<svg xmlns="http://www.w3.org/2000/svg" width="220.818" height="292.895" viewBox="0 0 220.818 292.895">
  <g id="Grupo_6484" data-name="Grupo 6484" transform="translate(-411.39 -224.386)">
    <path id="Trazado_21842" data-name="Trazado 21842" d="M463.582,273.778c-13.949,4.863-26.578,16.37-30.172,30.973-5.713,23.207,11.027,47.314.787,69.879-3.51,7.737-10.833,11.96-15.944,18.535-3.642,4.691-6.39,10.259-6.8,16.183-1.16,16.64,14.935,34.768,29,41.813,20.249,10.139,47.675,9.176,68.79,2.486,11.073-3.508,21.124-10.422,32.832-11.849,9.934-1.211,18.959,2.473,28.4,4.754,18.556,4.479,42.776,3.8,54.621-13.613,5.035-7.4,7-16.546,7.105-25.5a111.206,111.206,0,0,0-7.64-41.251c-4.592-11.568-11.606-22.552-13.873-34.938-2.455-13.41.019-27.205.59-40.663.659-15.493-1.343-32.754-14.931-42.474-16.991-12.155-43.8-6.692-60.417,2.973-10.911,6.348-20.555,14.209-33.189,16.768-12.518,2.538-25.59,1.6-37.861,5.488C464.446,273.484,464.014,273.627,463.582,273.778Z" transform="translate(0 18.378)" fill="#f8f3ff"/>
    <g id="Grupo_6463" data-name="Grupo 6463" transform="translate(519.412 242.942)">
      <g id="Grupo_6446" data-name="Grupo 6446" transform="translate(79.018 94.118)">
        <g id="Grupo_6445" data-name="Grupo 6445" transform="translate(5.541 27.604)">
          <path id="Trazado_21843" data-name="Trazado 21843" d="M507.811,308.416l-2.551,1.729h0a2.661,2.661,0,0,1,.984-3.348l2.278-1.462.655-1.007.942,2.872Z" transform="translate(-501.177 -276.897)" fill="#ffa181"/>
          <g id="Grupo_6443" data-name="Grupo 6443" transform="translate(0 19.94)">
            <path id="Trazado_21844" data-name="Trazado 21844" d="M512.9,304.222l-4.716,3.008-4.779-.455s.39-1.766,1.492-1.7a19.6,19.6,0,0,0,3.315-.348l3.038-2.776Z" transform="translate(-502.953 -299.449)" fill="#ff7e46"/>
            <path id="Trazado_21845" data-name="Trazado 21845" d="M511.554,302.238l-4.049,2.578-3.908-.858s.5-1.42,1.408-1.259a16.285,16.285,0,0,0,2.776.046l2.792-1.989Z" transform="translate(-502.737 -300.757)" fill="#ff7e46"/>
            <path id="Trazado_21846" data-name="Trazado 21846" d="M512.737,302.967l-4.859,3.094-4.691-1.028s.6-1.708,1.689-1.51a19.659,19.659,0,0,0,3.331.055l3.353-2.385Z" transform="translate(-503.187 -300.279)" fill="#ff7e46"/>
          </g>
          <g id="Grupo_6444" data-name="Grupo 6444" transform="translate(0.508)">
            <path id="Trazado_21847" data-name="Trazado 21847" d="M505.3,310.777c.256,1.263,1.192,3.275,1.112,4.563-.147,2.3-.237,5.484.982,5.6,1.666.159,1.6-5.335,1.641-5.566a1.193,1.193,0,0,1,1.315-1h0a.7.7,0,0,1,.606.566l.174,2.434-.214,1.3.942,2.872s1.88-2.1,2.012-2.866c.371-2.159,1.523-5.238.762-6.808-.348-.717-4.187-6.9-4.187-6.9l-2.113-11.069a3.27,3.27,0,0,0-4.907-2.182h0l1.311,10.831a6.813,6.813,0,0,1,.4,3.43A14.124,14.124,0,0,0,505.3,310.777Z" transform="translate(-503.429 -291.252)" fill="#ffa181"/>
            <path id="Trazado_21848" data-name="Trazado 21848" d="M506.105,304.417a1.193,1.193,0,0,1,1.315-1,.7.7,0,0,1,.606.566l.174,2.434s.919-6.138-1.16-5.06C506.225,301.782,506.07,304.648,506.105,304.417Z" transform="translate(-500.496 -280.294)" fill="#ff7e46"/>
          </g>
        </g>
        <path id="Trazado_21849" data-name="Trazado 21849" d="M508.35,318.936l-7.8-35.112,5.96-5.729,3.094,3.069c3.266,3.241,4.659,7.7,4.882,12.3.422,8.746-.869,25.964-.869,25.964Z" transform="translate(-500.546 -278.094)" fill="#ffa181"/>
      </g>
      <g id="Grupo_6447" data-name="Grupo 6447" transform="translate(29.354 224.188)">
        <path id="Trazado_21850" data-name="Trazado 21850" d="M493.382,346.123s-3.006,16.829-3.006,22.391,2.4,8.415,1.5,9.768-2.253,1.2-2.553,4.206-3.306,5.41-8.115,5.41-4.611-3.793-4.057-5.259c.271-.717,4.808-6.01,6.159-10.519s-.9-27.5-.9-27.5S492.328,333.5,493.382,346.123Z" transform="translate(-476.873 -340.094)" fill="#ffa181"/>
      </g>
      <g id="Grupo_6448" data-name="Grupo 6448" transform="translate(67.589 224.146)">
        <path id="Trazado_21851" data-name="Trazado 21851" d="M505.9,345.855s-2.872,20.419-1.45,24.059c2.555,6.529,11.88,9.516,11.88,9.516s4.615.734,4.991,1.452-.115,2.434-3.363,2.92c-1.634.245-3.4.426-4.75.548a7.423,7.423,0,0,1-3.944-.764,22.916,22.916,0,0,0-10.768-2.463s-3.371-.409-1.785-5.568-1.609-24.348-1.609-24.348S503.221,330.24,505.9,345.855Z" transform="translate(-495.098 -340.075)" fill="#ffa181"/>
      </g>
      <path id="Trazado_21852" data-name="Trazado 21852" d="M463.631,282.923s24.015,26.2,28.38,24.742,2.4-6.732-.182-9.824c-1.408-1.687-8.713-13.265-14.715-22.179S459.947,278.5,463.631,282.923Z" transform="translate(-462.858 -190.219)" fill="#ff947a"/>
      <path id="Trazado_21853" data-name="Trazado 21853" d="M475,291.751l.1-.1a1.265,1.265,0,0,0-.1-1.834h0l.508-1.586h0a1.279,1.279,0,0,0,.092-1.668l-.247-.321,3.566-2.859,2.473.512s.854,7.622-2.431,9.252S475,291.751,475,291.751Z" transform="translate(-449.571 -178.167)" fill="#ffa181"/>
      <path id="Trazado_21854" data-name="Trazado 21854" d="M481.469,250.584c.688,8.71,7.764,15.258,15.8,14.624s14.169-8.228,13.311-16.924c-.934-9.432-6.906-13.492-14.874-12.254C486.961,237.388,480.783,241.871,481.469,250.584Z" transform="translate(-442.529 -230.396)" fill="#ff5953"/>
      <path id="Trazado_21855" data-name="Trazado 21855" d="M522.907,264.162a11.839,11.839,0,0,1-2.213-10.055,20.3,20.3,0,0,0,.537-6.019c-.77-13.37-6.9-15.327-13.878-14.775a10.956,10.956,0,0,0-6.986,3.394,6.842,6.842,0,0,1-3.413,1.873,11.529,11.529,0,0,0-8.849,12.692,8.008,8.008,0,0,1-2.062,6.569,16.69,16.69,0,0,0-4.611,10.582,8.348,8.348,0,0,1-3.7,6.361,16.731,16.731,0,1,0,24.092,21.847,10.52,10.52,0,0,1,8.629-5.591c.145-.006.29-.017.434-.027C524.9,289.906,530.41,273.9,522.907,264.162Z" transform="translate(-454.62 -233.231)" fill="#ff5953"/>
      <path id="Trazado_21856" data-name="Trazado 21856" d="M514.84,309.419c-4.043-37.972-12.552-50.815-16.471-53.914,0,0-1.708,19.082-.8,33.312.537,8.436,5.614,22.426,9.449,21.409C514.6,308.219,514.84,309.419,514.84,309.419Z" transform="translate(-425.087 -208.777)" fill="#ffa181"/>
      <path id="Trazado_21857" data-name="Trazado 21857" d="M515.909,331.981s8.056-33.883,7.852-46.848c-.078-4.961-2.486-26.738-2.486-26.738s-10.985-5.773-19.343-5.515c-10.137.313-23.878,6.013-23.878,6.013a38.457,38.457,0,0,0-1.383,14.6c1.492,11.245,6.644,24.583,7.626,28.139C494.894,339.951,505.381,338.137,515.909,331.981Z" transform="translate(-447.992 -211.667)" fill="#ffa181"/>
      <path id="Trazado_21858" data-name="Trazado 21858" d="M521.012,276.713a33.315,33.315,0,0,1-4.244-20.742c-1.068-.487-2.463-1.083-4.047-1.68a64.814,64.814,0,0,1-1.668,12.161c-.854,3.376-2.068,7.915-5.889,8.975-4.263,1.185-9.174-2.389-11.383-5.488-3.472-4.869-7.964-15.843-7.964-15.843-2.178.631-4.171,1.29-5.792,1.861,1.854,3.428,4.6,14.547,3.858,22.208-.42,4.328-2.207,8.536-5.385,11.194,1.567,5.064,3.059,9.178,3.541,10.928q.261.944.522,1.857c3.464-.864,28.919-4.473,37.349-2.606a35.625,35.625,0,0,1,.883-4.013,11.006,11.006,0,0,0,2.262-2.914c1.114-3.577.027-4.391,0-6.308C523.032,284.943,521.285,279.8,521.012,276.713Z" transform="translate(-445.734 -210.324)" fill="#7b1fa2"/>
      <path id="Trazado_21859" data-name="Trazado 21859" d="M521.841,282.135H490.495s-17.914-.348-15.9,47.066c.51,12,5.136,27.852,7.141,43.542-1.481,15.793,4.506,51.14,4.506,51.14l7.668.122c2.74-17,4.8-33.268,4.964-47.5,0,0,1.116-57.118,8.116-57.618s8.992,59.311,8.992,59.311c-1.278,11.211.2,27.262,3.076,45.78h7.926l6.7-49.026C539.527,322.2,533.224,288.177,521.841,282.135Z" transform="translate(-450.193 -179.54)" fill="#ffa181"/>
      <path id="Trazado_21860" data-name="Trazado 21860" d="M506.059,319.087c9.3-11.123,26.819-12.665,26.819-12.665-2.421-13.187-6.508-21.571-11.624-24.287-7.708,4.8-17.771,5.471-31.347,0,0,0-11.287-.216-14.935,23.412C485.258,304.123,503.535,313.144,506.059,319.087Z" transform="translate(-449.605 -179.54)" fill="#7b1fa2"/>
      <path id="Trazado_21861" data-name="Trazado 21861" d="M493.2,257.926s-1.372-2.515-2.444-2.123a56.009,56.009,0,0,1-5.945.982s5.006.036,5.885.673S493.552,258.5,493.2,257.926Z" transform="translate(-438.804 -208.495)" fill="#ff7454"/>
      <path id="Trazado_21862" data-name="Trazado 21862" d="M490.077,258s.961-2.7,2.081-2.478a48.556,48.556,0,0,0,5.064.21s-3.978.646-4.745,1.414S489.819,258.619,490.077,258Z" transform="translate(-433.048 -208.776)" fill="#ff7454"/>
      <g id="Grupo_6450" data-name="Grupo 6450" transform="translate(47.951 28.966)">
        <g id="Grupo_6449" data-name="Grupo 6449">
          <path id="Trazado_21863" data-name="Trazado 21863" d="M485.737,247.141l.474,17.521,11.484-.907-1.2-16.717Z" transform="translate(-485.737 -247.038)" fill="#ffa181"/>
        </g>
      </g>
      <path id="Trazado_21864" data-name="Trazado 21864" d="M499.6,266.795h0c-5.589.17-14.675-6.436-14.847-12.025,0,0-1.2-8.517.292-11.207,2.593-4.672,13.76-5.455,18.233-4.8,6.852,1,5.99,13.653,5.99,13.653C510.085,262.815,502.042,266.719,499.6,266.795Z" transform="translate(-439.371 -227.38)" fill="#ff8f68"/>
      <path id="Trazado_21865" data-name="Trazado 21865" d="M496.442,247.038l-10.659.1a4.779,4.779,0,0,0,1.71,3.338c.281,5.371,5.811,9.25,9.862,9.25Z" transform="translate(-437.736 -218.073)" fill="#ff7454"/>
      <path id="Trazado_21866" data-name="Trazado 21866" d="M499.6,266.795h0c-5.589.17-14.675-6.436-14.847-12.025,0,0-1.2-8.517.292-11.207,2.593-4.672,13.76-5.455,18.233-4.8,6.852,1,5.99,13.653,5.99,13.653C510.085,262.815,502.042,266.719,499.6,266.795Z" transform="translate(-439.371 -227.38)" fill="#ffa181"/>
      <path id="Trazado_21867" data-name="Trazado 21867" d="M482.675,247.614c.191,2.394,2.486,4.284,5.368,4.206l-.3-8.7C484.864,243.2,482.331,243.315,482.675,247.614Z" transform="translate(-441.182 -222.37)" fill="#ffa181"/>
      <path id="Trazado_21868" data-name="Trazado 21868" d="M484.52,244.675a.322.322,0,0,0-.6-.176,1.909,1.909,0,0,0-.151,1.869c.478,1.087,1.412,2.131,1.817,1.664s-.036-.348-.738-1.748A3.417,3.417,0,0,1,484.52,244.675Z" transform="translate(-440.136 -221.028)" fill="#ff7454"/>
      <path id="Trazado_21869" data-name="Trazado 21869" d="M486.647,239.221c4.08-1.634,19.445-2.354,19.445-2.354a22.606,22.606,0,0,1-8.8,9.222,27.428,27.428,0,0,1-6.021,2.486,5.772,5.772,0,0,0-4.1,4.666h0l-.128-.545a3.206,3.206,0,0,0-3.539-2.442h0S482.566,240.855,486.647,239.221Z" transform="translate(-440.345 -229.239)" fill="#ff5953"/>
      <g id="Grupo_6451" data-name="Grupo 6451" transform="translate(54.707 24.028)">
        <path id="Trazado_21870" data-name="Trazado 21870" d="M488.965,246.735a2.206,2.206,0,0,1,.294-1.311,1.464,1.464,0,0,1,1.131-.734,1.422,1.422,0,0,1,1.038.352,2.108,2.108,0,0,1,.69,1.443l-1.317.1a.827.827,0,0,0-.231-.543l-.182.067a.877.877,0,0,0-.1.516Z" transform="translate(-488.958 -244.684)" fill="#28121e"/>
      </g>
      <g id="Grupo_6452" data-name="Grupo 6452" transform="translate(65.526 23.886)">
        <path id="Trazado_21871" data-name="Trazado 21871" d="M495.955,245.811c.055.7-.31,1.294-.818,1.334s-.961-.493-1.017-1.19.313-1.3.818-1.336S495.9,245.112,495.955,245.811Z" transform="translate(-494.114 -244.617)" fill="#28121e"/>
      </g>
      <g id="Grupo_6453" data-name="Grupo 6453" transform="translate(53.441 20.913)">
        <path id="Trazado_21872" data-name="Trazado 21872" d="M489.078,245.477l-.724-1.091a7.267,7.267,0,0,1,6.85-.529l-.585,1.173A6.014,6.014,0,0,0,489.078,245.477Z" transform="translate(-488.354 -243.2)" fill="#ff7454"/>
      </g>
      <g id="Grupo_6454" data-name="Grupo 6454" transform="translate(61.577 20.185)">
        <path id="Trazado_21873" data-name="Trazado 21873" d="M493.568,253.469l-.26-1.282a1.35,1.35,0,0,0,.533-.172c-.046-.052-.3-.556-.533-1-.193-.38-.419-.824-.657-1.351a5.143,5.143,0,0,1-.25-.688,4.666,4.666,0,0,1,.7-3.952,5.112,5.112,0,0,1,3.827-2.152,6.256,6.256,0,0,1,3.292.636l-.585,1.171a4.962,4.962,0,0,0-2.61-.5,3.806,3.806,0,0,0-2.853,1.6,3.315,3.315,0,0,0-.506,2.849,3.715,3.715,0,0,0,.18.5c.227.5.443.927.629,1.288.489.959.814,1.592.514,2.213A1.841,1.841,0,0,1,493.568,253.469Z" transform="translate(-492.232 -242.853)" fill="#ff7454"/>
      </g>
      <g id="Grupo_6455" data-name="Grupo 6455" transform="translate(59.942 33.178)">
        <path id="Trazado_21874" data-name="Trazado 21874" d="M493.373,251.194a3.889,3.889,0,0,1-1.92-.5l.667-1.127a2.5,2.5,0,0,0,3.1-.522l.944.908A3.793,3.793,0,0,1,493.373,251.194Z" transform="translate(-491.453 -249.046)" fill="#ff7454"/>
      </g>
      <path id="Trazado_21875" data-name="Trazado 21875" d="M488.866,247.264a.407.407,0,1,1-.438-.373A.408.408,0,0,1,488.866,247.264Z" transform="translate(-435.244 -218.236)" fill="#ff7454"/>
      <path id="Trazado_21876" data-name="Trazado 21876" d="M489.517,247.615a.174.174,0,0,1-.159.189.176.176,0,0,1-.189-.162.174.174,0,0,1,.159-.189A.176.176,0,0,1,489.517,247.615Z" transform="translate(-434.02 -217.617)" fill="#ff7454"/>
      <path id="Trazado_21877" data-name="Trazado 21877" d="M488.7,248.3a.357.357,0,1,1-.384-.327A.357.357,0,0,1,488.7,248.3Z" transform="translate(-435.313 -217.043)" fill="#ff7454"/>
      <path id="Trazado_21878" data-name="Trazado 21878" d="M487.575,247.5a.2.2,0,1,1-.214-.182A.2.2,0,0,1,487.575,247.5Z" transform="translate(-436.205 -217.761)" fill="#ff7454"/>
      <path id="Trazado_21879" data-name="Trazado 21879" d="M489.679,248.668a.3.3,0,1,1-.321-.275A.3.3,0,0,1,489.679,248.668Z" transform="translate(-434.113 -216.585)" fill="#ff7454"/>
      <path id="Trazado_21880" data-name="Trazado 21880" d="M490.588,247.178a.268.268,0,1,1-.287-.245A.268.268,0,0,1,490.588,247.178Z" transform="translate(-433.048 -218.189)" fill="#ff7454"/>
      <path id="Trazado_21881" data-name="Trazado 21881" d="M490.123,248.2a.465.465,0,1,1,.5.428A.465.465,0,0,1,490.123,248.2Z" transform="translate(-432.973 -217.345)" fill="#ff7454"/>
      <path id="Trazado_21882" data-name="Trazado 21882" d="M495.117,246.859a.356.356,0,1,1-.382-.327A.353.353,0,0,1,495.117,246.859Z" transform="translate(-428.268 -218.63)" fill="#ff7454"/>
      <path id="Trazado_21883" data-name="Trazado 21883" d="M494.989,248.123a.5.5,0,1,1,.533.455A.494.494,0,0,1,494.989,248.123Z" transform="translate(-427.631 -217.468)" fill="#ff7454"/>
      <path id="Trazado_21884" data-name="Trazado 21884" d="M496.073,247.022a.288.288,0,1,1-.31-.264A.289.289,0,0,1,496.073,247.022Z" transform="translate(-427.07 -218.381)" fill="#ff7454"/>
      <path id="Trazado_21885" data-name="Trazado 21885" d="M486.305,253.7a45.879,45.879,0,0,1,22.89-3.191s2.094-9.812-4.269-13.842C500.814,234.061,482.621,235.773,486.305,253.7Z" transform="translate(-437.7 -230.522)" fill="#ff5953"/>
      <path id="Trazado_21886" data-name="Trazado 21886" d="M492.879,255.835s-4.445,1.523-14.113,18.155c-11.184,19.236-16.617,20.771-15.808,25.426s10.527,4.456,17.056-1.815c4.238-4.07,16.839-23.091,18.662-29.842S495.521,255.969,492.879,255.835Z" transform="translate(-462.88 -208.414)" fill="#ffa181"/>
      <g id="Grupo_6461" data-name="Grupo 6461" transform="translate(33.155 65.613)">
        <g id="Grupo_6456" data-name="Grupo 6456" transform="translate(1.71 10.197)">
          <path id="Trazado_21887" data-name="Trazado 21887" d="M483.816,284.772a.788.788,0,0,1-.762-.592l-3.531-13.831a.787.787,0,1,1,1.525-.388l3.531,13.829a.79.79,0,0,1-.764.982Z" transform="translate(-479.499 -269.367)" fill="#621989"/>
        </g>
        <g id="Grupo_6457" data-name="Grupo 6457" transform="translate(40.786)">
          <path id="Trazado_21888" data-name="Trazado 21888" d="M498.913,285.241a.788.788,0,0,1-.438-1.443,7.081,7.081,0,0,0,2.434-8.178,85.889,85.889,0,0,1-2.28-10.19.787.787,0,1,1,1.55-.273,83.8,83.8,0,0,0,2.232,9.988,8.767,8.767,0,0,1-3.065,9.965A.782.782,0,0,1,498.913,285.241Z" transform="translate(-498.126 -264.507)" fill="#621989"/>
        </g>
        <g id="Grupo_6458" data-name="Grupo 6458" transform="translate(8.306 16.563)">
          <path id="Trazado_21889" data-name="Trazado 21889" d="M491.871,276.554a17.172,17.172,0,0,1-8.9-2.723.787.787,0,0,1,.906-1.286c.321.224,7.9,5.436,15.019.017a.787.787,0,1,1,.952,1.252A12.9,12.9,0,0,1,491.871,276.554Z" transform="translate(-482.644 -272.402)" fill="#621989"/>
        </g>
        <g id="Grupo_6459" data-name="Grupo 6459" transform="translate(22.512 44.78)">
          <path id="Trazado_21890" data-name="Trazado 21890" d="M490.2,315.794a.827.827,0,0,1-.189-.021.79.79,0,0,1-.577-.952,111.708,111.708,0,0,0,2.358-28.145.788.788,0,0,1,.751-.822.807.807,0,0,1,.82.751,113.3,113.3,0,0,1-2.4,28.59A.789.789,0,0,1,490.2,315.794Z" transform="translate(-489.415 -285.852)" fill="#621989"/>
        </g>
        <g id="Grupo_6460" data-name="Grupo 6460" transform="translate(0 39.274)">
          <path id="Trazado_21891" data-name="Trazado 21891" d="M503.531,290.351c-6.229,0-14.259-1.408-24.361-5.61a.787.787,0,0,1,.6-1.454c28.886,12.017,40.347.31,40.458.191a.788.788,0,0,1,1.154,1.072C521.063,284.9,515.789,290.351,503.531,290.351Z" transform="translate(-478.684 -283.227)" fill="#621989"/>
        </g>
      </g>
      <g id="Grupo_6462" data-name="Grupo 6462" transform="translate(25.286 103.992)">
        <path id="Trazado_21892" data-name="Trazado 21892" d="M482.894,282.8l-6.027.443a1.222,1.222,0,0,0-1.16,1.2c.023.667.394,1.475,1.062,1.431l5.536-.323,2.975.957a2.325,2.325,0,0,0,3.1-1.1h0Z" transform="translate(-474.086 -282.801)" fill="#ffa181"/>
        <path id="Trazado_21893" data-name="Trazado 21893" d="M483.685,285.468l-7.089-1.7c-.663-.233-1.29.6-1.418,1.33-.1.573.237,1.718.785,1.909l5.641.728,4.078,2.327a3.038,3.038,0,0,0,3.294-.785Z" transform="translate(-474.684 -281.784)" fill="#ffa181"/>
        <path id="Trazado_21894" data-name="Trazado 21894" d="M482.224,286.31l-5.671-.908c-.688-.057-1.689,1.045-1.615,1.779a1.221,1.221,0,0,0,1.16,1.047l5.3.357,2.794,2.024a2.326,2.326,0,0,0,3.248-.52h0Z" transform="translate(-474.933 -279.949)" fill="#ffa181"/>
        <path id="Trazado_21895" data-name="Trazado 21895" d="M480.028,287.542l-3.8-.453a1.166,1.166,0,0,0-1.3,1.211,1.21,1.21,0,0,0,1.091,1.108l3.306.394,2.016,1.047a2.326,2.326,0,0,0,3.136-.99h0Z" transform="translate(-474.933 -278.102)" fill="#ffa181"/>
      </g>
    </g>
    <g id="Grupo_6483" data-name="Grupo 6483" transform="translate(448.229 224.386)">
      <path id="Trazado_21896" data-name="Trazado 21896" d="M477.312,363.405a5.5,5.5,0,0,1-.919,1.88,1.366,1.366,0,0,1-.382.2.59.59,0,0,1-.325.023.145.145,0,0,1-.059-.008.83.83,0,0,1-.413.252c-.09.025-.178.042-.26.059a2.376,2.376,0,0,1-.285.023.535.535,0,0,1-.057.1.435.435,0,0,1-.707.073c-.506-.424-.545-2.236-.757-5.01a60.313,60.313,0,0,0-1.009-7.492c-.252-.8-.373-.837-.373-.837s-1.976,5.171-2.74,4.8-.415-1.1-.254-2.066,1.269-7.611,1.311-8.157-4.215-19.607-4.88-21.665-4.336-16.242-5.264-18.682c0,0-6.18-29.863-7.189-39.956a62.722,62.722,0,0,0-4.6-17.95s16.267,7.4,18.843,10.769,3.367,17.834,3.816,26.587.34,22.886.789,24.675S476.3,347.7,476.3,347.7s2.027,1.685,2.358,6.839A19.1,19.1,0,0,1,477.312,363.405Z" transform="translate(-407.874 -197.38)" fill="#ffa181"/>
      <path id="Trazado_21897" data-name="Trazado 21897" d="M447.689,245.7v8.864s-6.506,12.451-8.862,16.265-1.234,14.133-1.234,14.133.225,19.294.785,26.026-.673,16.265-.673,16.265,18.621.785,23.9.449a41.825,41.825,0,0,0,10.206-2.131s1.46-26.811.9-38.14-.56-18.174-.56-18.174-9.648-11.891-10.208-13.909-.449-7.628-.449-7.628S448.7,244.808,447.689,245.7Z" transform="translate(-419.753 -201.17)" fill="#ffa181"/>
      <path id="Trazado_21898" data-name="Trazado 21898" d="M443.619,251.412a16.149,16.149,0,0,0,9.086,2.851,12.888,12.888,0,0,0,3.541-.531c-.252-2.467-.182-6.008-.182-6.008s-12.789-2.916-13.8-2.02v4.7C442.7,250.757,443.151,251.1,443.619,251.412Z" transform="translate(-414.33 -201.17)" fill="#ff7454"/>
      <path id="Trazado_21899" data-name="Trazado 21899" d="M440.288,235.49s.225,20.528.9,26.249,1.122,6.955,1.907,7.292,9.2,4.374,11.666,4.712,10.208-4.487,11.78-6.508-.224-34.661-.338-35.224-7.515-7.29-13.685-6.17S440.288,234.705,440.288,235.49Z" transform="translate(-416.502 -222.926)" fill="#ffa181"/>
      <path id="Trazado_21900" data-name="Trazado 21900" d="M444.609,239.708s-4.376-4.823-6.17-3.027-1.122,8.077,2.356,8.526,4.263-3.592,4.263-3.592Z" transform="translate(-419.59 -211.328)" fill="#ffa181"/>
      <path id="Trazado_21901" data-name="Trazado 21901" d="M457.561,259.177c-1.349,5.5-7.515,14.591-8.3,17.387s-9.646,29.733-9.873,32.085-1.9,42.176-1.9,42.176.447,1.351,1.227,3.254,1.863,6.254.676,6.734c-.757.308-2.465-3.929-2.465-3.929s-.227,1.122.78,3.816,1.741,5.669,1.628,6.562c-.073.6-.709.472-1.116.317-.2-.073-.34-.147-.34-.147a6.472,6.472,0,0,1,.162.9,1.436,1.436,0,0,1-.218,1.154,1.1,1.1,0,0,1-1.3-.057H436.5c-.122-.082-.2-.147-.2-.147a1.621,1.621,0,0,1-.065.285c-.1.308-.348.715-.919.447a5.246,5.246,0,0,1-1.626-1.406l-.008-.008c-.187-.237-.3-.407-.3-.407a1.232,1.232,0,0,1-.164.235c-.243.254-.724.506-1.317-.52a18.833,18.833,0,0,1-1.716-8.213c0-3.7,1.236-7.63,1.236-8.3s-2.471-33.988-2.471-38.364,6.506-45.877,8.3-49.357S457.666,249.2,457.666,249.2A21.758,21.758,0,0,1,457.561,259.177Z" transform="translate(-428.95 -197.146)" fill="#ffa181"/>
      <path id="Trazado_21902" data-name="Trazado 21902" d="M440.086,300.44c0,1.122,2.018,44.647,2.243,45.77s-2.916,13.011-2.467,29.165,2.916,43.3,2.916,43.3-10.1,11.442-9.648,13.911S442.1,436.4,445.02,436.4s3.143-.449,4.038-2.469a68.668,68.668,0,0,0,2.918-15.031c0-3.365-.673-3.589-.449-12.115s2.916-50.7,4.487-59.23,1.569-46.89,1.569-48.908S440.086,300.44,440.086,300.44Z" transform="translate(-424.377 -143.505)" fill="#ffa181"/>
      <path id="Trazado_21903" data-name="Trazado 21903" d="M447.4,312.59s5.608,48.908,5.608,50.255a94.834,94.834,0,0,0,.673,23.557c2.02,13.238,6.508,39.038,6.508,39.038s-2.02,13.013-.449,14.582,32.008,1.341,33.373.957,1.54-3.969-1.534-5.465-6.68-1.219-7.544-1.934-13.078-8.14-13.527-11.056-2.692-59.005-2.692-60.577,0-38.364-3.143-51.824-7.4-21.09-7.4-21.09S446.058,300.25,447.4,312.59Z" transform="translate(-408.812 -153.411)" fill="#ffa181"/>
      <path id="Trazado_21904" data-name="Trazado 21904" d="M473.079,320.732c0-4.284-.634-26.7-.254-35.478a170.727,170.727,0,0,0-2.1-33.063l-2.861-1.431c0,7.517-.514,15.728-9.338,16.827-9.709,1.206-14.639-8.75-16.575-16.408l-4.038,2.61a37.336,37.336,0,0,1,2.132,7.475,69.161,69.161,0,0,1,.841,9.21c.266,5.184-1.672,10.223-3.59,14.4.073,11.547.573,24.6.562,36.224,9.887,6.527,33.329,2.744,35.11-.485" transform="translate(-419.79 -195.429)" fill="#fadee1"/>
      <path id="Trazado_21905" data-name="Trazado 21905" d="M438.975,283.405s5.488,2.933,18.678,2.58c12.619-.338,17.163-2.862,17.163-2.862s1.739,18.229,2.635,24.736,1.122,13.011,1.122,13.011-2.58.113-9.2,1.122c-7.261,1.108-8.973,1.907-8.973,1.907s-1.869-9-2.075-10.236a6.315,6.315,0,0,0-1.853-3.7l-1.431,14.052a43.686,43.686,0,0,1-9.843.587c-6.407-.164-8.413-1.009-8.413-1.009a109.941,109.941,0,0,1-.59-22.548A102.862,102.862,0,0,1,438.975,283.405Z" transform="translate(-421.359 -159.898)" fill="#ffd54f"/>
      <path id="Trazado_21906" data-name="Trazado 21906" d="M443.484,239.467c.562-4.28.057-8.868-.336-9.692s-2.3-1.7-3.254,1.8-.449,9.126.225,12.579a30.063,30.063,0,0,0,1.628,5.413S442.924,243.745,443.484,239.467Z" transform="translate(-417.512 -219.284)" fill="#aa4f20"/>
      <path id="Trazado_21907" data-name="Trazado 21907" d="M459.882,224.411c-7.909.413-17.276,7.267-18.623,9.623-1.433,2.507.021,2.864.021,2.864s6.373-3.613,13.273-3.2,11.922,4.743,13.124,4.206c2.748-1.223-1.8-4.676-1.8-4.676s3.871,2.939,4.936.919c.982-1.859-2.3-3.65-2.3-3.65s2.356,1.546,2.635-.052S467.789,224,459.882,224.411Z" transform="translate(-416.129 -224.386)" fill="#aa4f20"/>
      <g id="Grupo_6464" data-name="Grupo 6464" transform="translate(2.513 163.694)" style="mix-blend-mode: multiply;isolation: isolate">
        <path id="Trazado_21908" data-name="Trazado 21908" d="M432.068,309.763a1.232,1.232,0,0,1-.164.235c-.082-.178-.153-.357-.227-.543a18.181,18.181,0,0,1-.644-2.035,21.071,21.071,0,0,1-.885-4.806c-.008-.243.292-.275.3-.032A27.47,27.47,0,0,0,432.068,309.763Z" transform="translate(-430.148 -302.414)" fill="#c1b1b3"/>
      </g>
      <g id="Grupo_6465" data-name="Grupo 6465" transform="translate(4.218 163.586)" style="mix-blend-mode: multiply;isolation: isolate">
        <path id="Trazado_21909" data-name="Trazado 21909" d="M434.093,310.908a1.618,1.618,0,0,1-.065.285,7.041,7.041,0,0,1-.56-.885,14.555,14.555,0,0,1-1.106-2.092,19.4,19.4,0,0,1-.749-2.5,27.967,27.967,0,0,1-.65-3.138c-.034-.212.285-.3.317-.09a36.321,36.321,0,0,0,1.519,5.729C433.231,309.306,434.093,310.908,434.093,310.908Z" transform="translate(-430.961 -302.362)" fill="#c1b1b3"/>
      </g>
      <g id="Grupo_6466" data-name="Grupo 6466" transform="translate(6.252 163.141)" style="mix-blend-mode: multiply;isolation: isolate">
        <path id="Trazado_21910" data-name="Trazado 21910" d="M434.6,309.295a6.472,6.472,0,0,1,.162.9c-.277-.48-.5-.984-.732-1.448-.373-.766-.682-1.555-.984-2.352a18.082,18.082,0,0,1-1.114-4.074c-.032-.243.283-.212.329.04A49.669,49.669,0,0,0,434.6,309.295Z" transform="translate(-431.93 -302.151)" fill="#c1b1b3"/>
      </g>
      <g id="Grupo_6467" data-name="Grupo 6467" transform="translate(66.738 158.108)" style="mix-blend-mode: multiply;isolation: isolate">
        <path id="Trazado_21911" data-name="Trazado 21911" d="M461.712,304.383a26.839,26.839,0,0,1-.608,5.685,2.377,2.377,0,0,1-.285.023.537.537,0,0,1-.057.1,26.3,26.3,0,0,0,.585-5.75c-.008-.871-.057-1.741-.13-2.61a11.44,11.44,0,0,1-.147-1.962c.017-.1.122-.162.2-.08.407.4.39,1.324.415,1.846C461.721,302.545,461.721,303.464,461.712,304.383Z" transform="translate(-460.762 -299.751)" fill="#c1b1b3"/>
      </g>
      <g id="Grupo_6468" data-name="Grupo 6468" transform="translate(67.812 157.354)" style="mix-blend-mode: multiply;isolation: isolate">
        <path id="Trazado_21912" data-name="Trazado 21912" d="M462.957,302.8a26.569,26.569,0,0,1-.3,2.683,33.566,33.566,0,0,1-1.057,4.653.591.591,0,0,1-.325.023,39.246,39.246,0,0,0,.9-4.569,27.453,27.453,0,0,0,.294-2.937,20.339,20.339,0,0,1-.017-3.155c.031-.164.235-.122.283,0A8.044,8.044,0,0,1,462.957,302.8Z" transform="translate(-461.274 -299.392)" fill="#c1b1b3"/>
      </g>
      <g id="Grupo_6469" data-name="Grupo 6469" transform="translate(53.872 204.753)" style="mix-blend-mode: multiply;isolation: isolate">
        <path id="Trazado_21913" data-name="Trazado 21913" d="M454.887,324.017a8.1,8.1,0,0,0,1.148.09,3.6,3.6,0,0,0,1.114-.212,2.479,2.479,0,0,0,1.678-1.594.25.25,0,0,0-.363-.279c-.3.183-.543.443-.829.631a3.618,3.618,0,0,1-.789.422,6.694,6.694,0,0,1-.942.25,7.648,7.648,0,0,1-1.017.159.267.267,0,0,0,0,.533Z" transform="translate(-454.629 -321.986)" fill="#c1b1b3"/>
      </g>
      <g id="Grupo_6470" data-name="Grupo 6470" transform="translate(24.704 205.015)" style="mix-blend-mode: multiply;isolation: isolate">
        <path id="Trazado_21914" data-name="Trazado 21914" d="M440.877,322.716a9.55,9.55,0,0,0,2.226,1.179c.734.241,1.976.363,2.379-.48a.276.276,0,0,0-.235-.411,3.955,3.955,0,0,0-.543.09,2.992,2.992,0,0,1-.462.078,3.257,3.257,0,0,1-1.036-.12,9.251,9.251,0,0,1-2-.9.325.325,0,0,0-.327.56Z" transform="translate(-440.726 -322.11)" fill="#c1b1b3"/>
      </g>
      <g id="Grupo_6471" data-name="Grupo 6471" transform="translate(26.923 208.528)" style="mix-blend-mode: multiply;isolation: isolate">
        <path id="Trazado_21915" data-name="Trazado 21915" d="M441.99,324.406a3.908,3.908,0,0,0,.978.025,1.851,1.851,0,0,0,.476-.09,2.044,2.044,0,0,0,.241-.1.684.684,0,0,0,.18-.157.166.166,0,0,0-.115-.281.712.712,0,0,0-.222-.006c-.073.01-.082.013-.157.019s-.164.021-.245.036c-.008,0-.115.019-.069.013-.036,0-.069.008-.1.01a3.486,3.486,0,0,1-.417.017c-.071,0-.143-.006-.212-.011l-.1-.01-.061-.008-.013,0a.3.3,0,0,0-.352.2.289.289,0,0,0,.2.352Z" transform="translate(-441.784 -323.785)" fill="#c1b1b3"/>
      </g>
      <g id="Grupo_6472" data-name="Grupo 6472" transform="translate(18.604 287.69)" style="mix-blend-mode: multiply;isolation: isolate">
        <path id="Trazado_21916" data-name="Trazado 21916" d="M438.96,365.367a2.692,2.692,0,0,1,.134-1.8c.1-.269.271-.545.407-.831a1.76,1.76,0,0,0,.285-1.02.282.282,0,0,0-.338-.191c-.371.061-.692.472-.892.77a4.712,4.712,0,0,0-.535,1.074,3.631,3.631,0,0,0-.2,1.12,2.51,2.51,0,0,0,.294,1.236.466.466,0,0,0,.848-.357Z" transform="translate(-437.818 -361.519)" fill="#c1b1b3"/>
      </g>
      <g id="Grupo_6473" data-name="Grupo 6473" transform="translate(15.065 289.061)" style="mix-blend-mode: multiply;isolation: isolate">
        <path id="Trazado_21917" data-name="Trazado 21917" d="M436.848,364.2c.065-.3.145-.59.235-.879.046-.141.078-.287.117-.432a1.874,1.874,0,0,0,.065-.243,1.049,1.049,0,0,0-.034-.289.243.243,0,0,0-.355-.145,1.073,1.073,0,0,0-.218.18,1.191,1.191,0,0,0-.118.237,4.82,4.82,0,0,0-.187.474,8.94,8.94,0,0,0-.216.9.368.368,0,1,0,.709.2Z" transform="translate(-436.131 -362.172)" fill="#c1b1b3"/>
      </g>
      <g id="Grupo_6474" data-name="Grupo 6474" transform="translate(12.62 289.122)" style="mix-blend-mode: multiply;isolation: isolate">
        <path id="Trazado_21918" data-name="Trazado 21918" d="M435.525,363.47a2.537,2.537,0,0,1,.067-.283c.015-.046.031-.092.048-.138l.027-.071c0,.01-.021.05-.006.017l.017-.038c.044-.092.1-.176.141-.268l.031-.08.013-.034c0,.008-.019.046-.006.015s.036-.076.057-.111a.187.187,0,0,0-.027-.222.19.19,0,0,0-.224-.029,1.4,1.4,0,0,0-.248.17.956.956,0,0,0-.2.289,2.6,2.6,0,0,0-.243.634.286.286,0,0,0,.552.151Z" transform="translate(-434.965 -362.202)" fill="#c1b1b3"/>
      </g>
      <g id="Grupo_6475" data-name="Grupo 6475" transform="translate(56.148 269.852)" style="mix-blend-mode: multiply;isolation: isolate">
        <path id="Trazado_21919" data-name="Trazado 21919" d="M455.771,353.286a7.844,7.844,0,0,0,.006,1.894,1.833,1.833,0,0,0,.38.848,1,1,0,0,0,.363.285.738.738,0,0,0,.6.055.233.233,0,0,0,.1-.384.993.993,0,0,0-.2-.166c-.055-.029-.109-.059-.164-.09-.031-.023-.034-.023,0,0l-.082-.063c-.015-.008-.094-.073-.036-.023-.042-.038-.08-.078-.122-.117s.021.036-.017-.021c-.017-.029-.038-.057-.055-.084s-.034-.059-.048-.09c-.006-.013-.042-.09-.015-.027a1.915,1.915,0,0,1-.113-.384,4.191,4.191,0,0,1-.061-.806c0-.277.013-.552.019-.827.006-.363-.539-.357-.56,0Z" transform="translate(-455.714 -353.016)" fill="#c1b1b3"/>
      </g>
      <g id="Grupo_6476" data-name="Grupo 6476" transform="translate(26.088 88.541)" style="mix-blend-mode: multiply;isolation: isolate">
        <path id="Trazado_21920" data-name="Trazado 21920" d="M441.681,267.741a29.585,29.585,0,0,1,4.219-.407,14.548,14.548,0,0,0,4.024-.478c.134-.048.134-.262-.027-.264-.707-.006-1.422.088-2.129.124s-1.389.084-2.085.122a29.123,29.123,0,0,0-4.116.434c-.306.061-.191.527.115.47Z" transform="translate(-441.385 -266.591)" fill="#d7cdce"/>
      </g>
      <g id="Grupo_6477" data-name="Grupo 6477" transform="translate(36.327 87.764)" style="mix-blend-mode: multiply;isolation: isolate">
        <path id="Trazado_21921" data-name="Trazado 21921" d="M446.386,267.142c2.138.065,4.28-.067,6.415-.147,1.053-.038,2.1-.107,3.153-.149a20.751,20.751,0,0,0,3.107-.187.142.142,0,0,0,.006-.271,10.312,10.312,0,0,0-2.975-.12c-1.036.05-2.069.124-3.1.235a53.367,53.367,0,0,1-6.6.384.127.127,0,0,0-.006.254Z" transform="translate(-446.266 -266.221)" fill="#d7cdce"/>
      </g>
      <g id="Grupo_6478" data-name="Grupo 6478" transform="translate(29.811 26.339)">
        <path id="Trazado_21922" data-name="Trazado 21922" d="M443.17,239.641a2.889,2.889,0,0,1,.384-1.727,1.938,1.938,0,0,1,1.49-.967,1.887,1.887,0,0,1,1.368.466,2.77,2.77,0,0,1,.906,1.9l-1.733.138a1.075,1.075,0,0,0-.3-.715l-.241.086a1.171,1.171,0,0,0-.136.682Z" transform="translate(-443.16 -236.941)" fill="#28121e"/>
      </g>
      <g id="Grupo_6479" data-name="Grupo 6479" transform="translate(44.055 26.154)">
        <path id="Trazado_21923" data-name="Trazado 21923" d="M452.372,238.423c.071.919-.409,1.708-1.076,1.76s-1.267-.65-1.339-1.569.409-1.706,1.076-1.758S452.3,237.5,452.372,238.423Z" transform="translate(-449.949 -236.853)" fill="#28121e"/>
      </g>
      <g id="Grupo_6480" data-name="Grupo 6480" transform="translate(28.143 22.239)">
        <path id="Trazado_21924" data-name="Trazado 21924" d="M443.32,237.983l-.955-1.435c.18-.122,4.508-2.941,9.017-.7l-.77,1.542C446.991,235.587,443.357,237.96,443.32,237.983Z" transform="translate(-442.365 -234.987)" fill="#ff7454"/>
      </g>
      <g id="Grupo_6481" data-name="Grupo 6481" transform="translate(38.854 21.28)">
        <path id="Trazado_21925" data-name="Trazado 21925" d="M449.232,248.506l-.344-1.687a1.818,1.818,0,0,0,.7-.227c-.061-.069-.4-.732-.7-1.32-.254-.5-.554-1.085-.864-1.777a6.488,6.488,0,0,1-.329-.906,6.144,6.144,0,0,1,.919-5.2,6.72,6.72,0,0,1,5.041-2.834,8.21,8.21,0,0,1,4.33.837l-.768,1.542a6.551,6.551,0,0,0-3.438-.661,5.012,5.012,0,0,0-3.755,2.106,4.376,4.376,0,0,0-.667,3.751,4.675,4.675,0,0,0,.239.663c.3.661.583,1.221.827,1.7.646,1.263,1.072,2.1.678,2.916A2.425,2.425,0,0,1,449.232,248.506Z" transform="translate(-447.47 -234.53)" fill="#ff7454"/>
      </g>
      <g id="Grupo_6482" data-name="Grupo 6482" transform="translate(36.703 38.387)">
        <path id="Trazado_21926" data-name="Trazado 21926" d="M448.973,245.51a5.116,5.116,0,0,1-2.528-.657l.879-1.483a3.284,3.284,0,0,0,4.082-.686l1.244,1.194A4.988,4.988,0,0,1,448.973,245.51Z" transform="translate(-446.445 -242.684)" fill="#ff7454"/>
      </g>
    </g>
  </g>
</svg>
