<svg xmlns="http://www.w3.org/2000/svg" xmlns:xlink="http://www.w3.org/1999/xlink" width="260.528" height="261" viewBox="0 0 260.528 261">
  <defs>
    <clipPath id="clip-path">
      <path id="Trazado_14455" data-name="Trazado 14455" d="M571,542.841c-6.066-5.53-12.512-10.139-19.737-12.678q-.59,1.186-1.191,2.368c-4.376,2.789-9.956-1-12.9-4.558a.661.661,0,0,1-.038-.057c-.364-.005-.726,0-1.09,0,.008-.064.012-.129.02-.192-10.407-.311-19.945,3.895-29.088,9.8-10.034,6.484-18.437,15.165-26.486,23.994a41.327,41.327,0,0,0,8.345,11.642c.715.7,10.715-6.714,19.728-13.645q-3.312,13.219-6.624,26.437c8.675,1.1,16.833,2.54,24.921,4.027.658-.188,1.322-.358,1.987-.531a10.149,10.149,0,0,0,4.331-1.934.8.8,0,0,1,1.239.154c1.035,1.392,1.926,2.89,3,4.253,7.129,1.293,14.353,2.523,21.977,3.489q1.059-10.107,1.97-20.23c.39-4.325.911-9.4,1.04-14.595,8.376,9.087,19.671,21.043,20.615,20.386a41.325,41.325,0,0,0,10.15-10.108C586.685,560.836,579.826,550.891,571,542.841Z" transform="translate(-480.491 -527.71)" fill="none"/>
    </clipPath>
  </defs>
  <g id="Grupo_5440" data-name="Grupo 5440" transform="translate(-476.837 -463.703)">
    <g id="Grupo_5384" data-name="Grupo 5384" transform="translate(479.517 463.703)">
      <circle id="Elipse_384" data-name="Elipse 384" cx="60.658" cy="60.658" r="60.658" transform="translate(102.791 40.814) rotate(-19.659)" fill="#ffe292"/>
      <circle id="Elipse_385" data-name="Elipse 385" cx="63.507" cy="63.507" r="63.507" transform="translate(0 154.169) rotate(-87.23)" fill="#ffe292"/>
      <circle id="Elipse_386" data-name="Elipse 386" cx="66.337" cy="66.337" r="66.337" transform="translate(43.67 167.185) rotate(-45)" fill="#ffe292"/>
    </g>
    <g id="Grupo_5396" data-name="Grupo 5396" transform="translate(622.227 494.6)">
      <path id="Trazado_14430" data-name="Trazado 14430" d="M645.471,571.031c-1.663-11.19.456-30.332,13.066-34.853,5.755-2.063,13.118-1.183,16.97-5.931,1.57-1.935,2.179-4.447,2.9-6.832,1.268-4.193,3.1-8.379,6.359-11.31,4.381-3.945,10.175-3.714,15.45-1.955a17.049,17.049,0,0,0,4.864,1.265c2.676.066,5.094-1.509,7.221-3.136,4.378-3.348,8.467-7.238,13.536-9.4,8.312-3.547,18.724-.1,17.856,10.341-.294,3.533-2.13,6.736-4.039,9.723s-3.975,5.978-4.829,9.42c-1.514,6.1,3.611,9.569,3.592,15.335-.018,5.542-4.714,10.137-9.175,12.755-6.284,3.689-12.864,8.542-14.016,16.393-.414,2.816-.007,5.727-.642,8.5a15.556,15.556,0,0,1-6.108,8.645c-9.49,7.126-24.309,7.633-35.569,5.763C659.91,593.594,647.506,584.723,645.471,571.031Z" transform="translate(-636.785 -497.529)" fill="#e8bb3d"/>
      <g id="Grupo_5395" data-name="Grupo 5395" transform="translate(0 6.369)">
        <g id="Grupo_5385" data-name="Grupo 5385" transform="translate(0 17.362)">
          <path id="Trazado_14431" data-name="Trazado 14431" d="M636.914,634.584l-.906-.114a70.135,70.135,0,0,1,15.645-35.843,242.742,242.742,0,0,1,18.43-18.985q1.929-1.848,3.853-3.7a102.153,102.153,0,0,0,9.653-11.376c1.939-2.525,3.945-5.135,6.059-7.569a227.025,227.025,0,0,1,17.277-17.811,35.143,35.143,0,0,0,6-7.909,36.73,36.73,0,0,1,5.812-7.767l.631.66a36.046,36.046,0,0,0-5.665,7.585,35.866,35.866,0,0,1-6.156,8.1,226,226,0,0,0-17.208,17.74c-2.1,2.414-4.093,5.013-6.024,7.527a102.8,102.8,0,0,1-9.743,11.476q-1.922,1.856-3.856,3.7a241.937,241.937,0,0,0-18.362,18.912A69.214,69.214,0,0,0,636.914,634.584Z" transform="translate(-636.008 -523.509)" fill="#ffd54f"/>
        </g>
        <g id="Grupo_5386" data-name="Grupo 5386" transform="translate(92.851)">
          <rect id="Rectángulo_3105" data-name="Rectángulo 3105" width="6.244" height="0.914" transform="translate(0 4.935) rotate(-52.213)" fill="#ffd54f"/>
        </g>
        <g id="Grupo_5387" data-name="Grupo 5387" transform="translate(94.991 2.117)">
          <rect id="Rectángulo_3106" data-name="Rectángulo 3106" width="3.879" height="0.913" transform="translate(0 2.725) rotate(-44.644)" fill="#ffd54f"/>
        </g>
        <g id="Grupo_5388" data-name="Grupo 5388" transform="translate(86.489 39.053)">
          <rect id="Rectángulo_3107" data-name="Rectángulo 3107" width="0.913" height="8.215" transform="translate(0 0.904) rotate(-82.117)" fill="#ffd54f"/>
        </g>
        <g id="Grupo_5389" data-name="Grupo 5389" transform="translate(62.875 70.661)">
          <path id="Trazado_14432" data-name="Trazado 14432" d="M708.911,586.257a7.878,7.878,0,0,0-4.068-3.542l.323-.855a8.806,8.806,0,0,1,4.547,3.96Z" transform="translate(-704.843 -581.86)" fill="#ffd54f"/>
        </g>
        <g id="Grupo_5390" data-name="Grupo 5390" transform="translate(61.933 73.379)">
          <rect id="Rectángulo_3108" data-name="Rectángulo 3108" width="0.913" height="3.106" transform="translate(0 0.765) rotate(-56.953)" fill="#ffd54f"/>
        </g>
        <g id="Grupo_5391" data-name="Grupo 5391" transform="translate(18.598 44.434)">
          <path id="Trazado_14433" data-name="Trazado 14433" d="M658.884,557.238a17.07,17.07,0,0,1-2.515-3.678l.815-.413a16.173,16.173,0,0,0,2.38,3.483Z" transform="translate(-656.369 -553.147)" fill="#ffd54f"/>
        </g>
        <g id="Grupo_5392" data-name="Grupo 5392" transform="translate(90.417 19.793)">
          <rect id="Rectángulo_3109" data-name="Rectángulo 3109" width="5.741" height="0.913" transform="translate(0 0.309) rotate(-3.08)" fill="#ffd54f"/>
        </g>
        <g id="Grupo_5393" data-name="Grupo 5393" transform="translate(86.369 42.001)">
          <rect id="Rectángulo_3110" data-name="Rectángulo 3110" width="0.914" height="4.133" transform="translate(0 0.862) rotate(-70.521)" fill="#ffd54f"/>
        </g>
        <g id="Grupo_5394" data-name="Grupo 5394" transform="translate(80.681 50.876)">
          <rect id="Rectángulo_3111" data-name="Rectángulo 3111" width="0.914" height="2.165" transform="matrix(0.556, -0.831, 0.831, 0.556, 0, 0.76)" fill="#ffd54f"/>
        </g>
      </g>
    </g>
    <g id="Grupo_5407" data-name="Grupo 5407" transform="translate(506.46 469.672)">
      <path id="Trazado_14434" data-name="Trazado 14434" d="M603.553,587.416c-2.766,9.713-11.184,17.431-20.62,21.419-12.641,5.342-35.44,10.437-45.608-1.377a22.5,22.5,0,0,1-5.178-17.4c.422-3.178,1.492-6.6-.013-9.436-2.37-4.461-9.294-4.209-12.451-8.153-2.168-2.709-1.915-6.639-.884-9.952s2.728-6.452,3.148-9.9c.918-7.518-5.406-7.864-8.956-12.6-3.6-4.8-5.087-10.718-2.2-16.233,1.8-3.436,4.973-6.016,6.686-9.495,4.4-8.932-2.21-19.617-.568-29.437a17.942,17.942,0,0,1,8.438-12.3c10.626-6.285,19.769,1.131,24.232,11.007,2.8,6.2,4.2,13.871,10.1,17.27,6.428,3.7,14.31,1.339,20.42,6.257,6.33,5.093,1.93,12.089,3.291,19.086a18.432,18.432,0,0,0,8.375,12.456c4.978,2.9,7.97,6.25,7.517,12.61-.237,3.314-1.978,6.3-3.047,9.446s-1.322,7.017.976,9.415c1.107,1.156,2.647,1.789,3.879,2.808,3.1,2.565,3.737,7.116,3.18,11.1A25.117,25.117,0,0,1,603.553,587.416Z" transform="translate(-509.268 -470.238)" fill="#e8bb3d"/>
      <g id="Grupo_5406" data-name="Grupo 5406" transform="translate(19.426 13.328)">
        <g id="Grupo_5397" data-name="Grupo 5397" transform="translate(12.661 44.474)">
          <path id="Trazado_14435" data-name="Trazado 14435" d="M590.049,645.175c-6.568-6.3-11.623-15.024-15.456-26.682-1.926-5.859-3.405-11.945-4.836-17.831-.966-3.972-1.964-8.079-3.089-12.074-2.8-9.942-7.184-19.307-11.424-28.364-3.969-8.481-8.074-17.251-10.847-26.44l.874-.264c2.755,9.126,6.845,17.865,10.8,26.317,4.255,9.09,8.655,18.49,11.476,28.5,1.13,4.012,2.13,8.128,3.1,12.107,1.426,5.869,2.9,11.937,4.816,17.761,3.784,11.512,8.763,20.118,15.22,26.307Z" transform="translate(-544.397 -533.519)" fill="#ffd54f"/>
        </g>
        <g id="Grupo_5398" data-name="Grupo 5398" transform="translate(0 1.871)">
          <rect id="Rectángulo_3112" data-name="Rectángulo 3112" width="0.914" height="5.736" transform="translate(0 0.32) rotate(-20.525)" fill="#ffd54f"/>
        </g>
        <g id="Grupo_5399" data-name="Grupo 5399" transform="translate(4.14)">
          <rect id="Rectángulo_3113" data-name="Rectángulo 3113" width="0.913" height="8.033" transform="translate(0 0.255) rotate(-16.223)" fill="#ffd54f"/>
        </g>
        <g id="Grupo_5400" data-name="Grupo 5400" transform="translate(28.579 24.91)">
          <path id="Trazado_14436" data-name="Trazado 14436" d="M562.665,515.561l-.842-.355a8.461,8.461,0,0,1,2.258-3.106l.6.692A7.535,7.535,0,0,0,562.665,515.561Z" transform="translate(-561.823 -512.1)" fill="#ffd54f"/>
        </g>
        <g id="Grupo_5401" data-name="Grupo 5401" transform="translate(51.45 52.685)">
          <rect id="Rectángulo_3114" data-name="Rectángulo 3114" width="4.187" height="0.913" transform="matrix(0.697, -0.717, 0.717, 0.697, 0, 3.001)" fill="#ffd54f"/>
        </g>
        <g id="Grupo_5402" data-name="Grupo 5402" transform="translate(53.393 55.976)">
          <rect id="Rectángulo_3115" data-name="Rectángulo 3115" width="4.759" height="0.914" transform="matrix(0.871, -0.492, 0.492, 0.871, 0, 2.341)" fill="#ffd54f"/>
        </g>
        <g id="Grupo_5403" data-name="Grupo 5403" transform="translate(9.365 113.571)">
          <rect id="Rectángulo_3116" data-name="Rectángulo 3116" width="4.017" height="0.913" transform="translate(0 1.099) rotate(-15.884)" fill="#ffd54f"/>
        </g>
        <g id="Grupo_5404" data-name="Grupo 5404" transform="translate(13.588 117.382)">
          <path id="Trazado_14437" data-name="Trazado 14437" d="M546.544,615.273a3.389,3.389,0,0,1-1.133-.191l.305-.861a2.7,2.7,0,0,0,2.951-.883l.728.551A3.6,3.6,0,0,1,546.544,615.273Z" transform="translate(-545.411 -613.337)" fill="#ffd54f"/>
        </g>
        <g id="Grupo_5405" data-name="Grupo 5405" transform="translate(9.379 110.325)">
          <path id="Trazado_14438" data-name="Trazado 14438" d="M543.285,606.916a7.6,7.6,0,0,1-2.481-.415l.3-.863a6.7,6.7,0,0,0,4.441-.027l.309.86A7.6,7.6,0,0,1,543.285,606.916Z" transform="translate(-540.804 -605.611)" fill="#ffd54f"/>
        </g>
      </g>
    </g>
    <g id="Grupo_5408" data-name="Grupo 5408" transform="translate(587.524 551.203)">
      <path id="Trazado_14439" data-name="Trazado 14439" d="M628.948,595.092c-1.251-.047-2.46.447-3.711.489a3.123,3.123,0,0,1-1.579-.235,1.145,1.145,0,0,1-.621-1.337,1.616,1.616,0,0,1,1.039-.777,10.309,10.309,0,0,1,3.292-.322c2.045.024,4.236.189,5.148-.365,1.486-.9,1.177-4.73,1.12-6.373-.066-1.905.235-4.115-1.607-4.288-1.072-.1-4.543,2.2-5.756,2.621-1.034.359-2.611.4-2.773-.687-.11-.729.607-1.292,1.25-1.651,1.809-1.013,7.064-1.931,7.554-3.589.556-1.883-3.083-6.894-4.095-8.394-.628.412-5.6,3.588-5.437.707a1.411,1.411,0,0,1,.341-.74,7.01,7.01,0,0,1,2.651-2.133,24.626,24.626,0,0,0-8.654-8.522,55.982,55.982,0,0,0-8.494,6.912c2.254-2.261,6.485,8.475.748,2.846a24.492,24.492,0,0,1-1.685-1.878,39.219,39.219,0,0,0-5.7,7.7q.836.407,1.661.835c1.473.765,4.291,1.985,4.2,4.061-.21,4.762-6.046-1.536-7.024-2.6a30.049,30.049,0,0,0-2.791,11.635.369.369,0,0,1,.288.1.609.609,0,0,1,.246.54.483.483,0,0,1-.539.385,25.131,25.131,0,0,0,.288,3.513c1.4.143,2.853.083,4.216.13,2.287.079,4.761.389,6.283,2.3a.463.463,0,0,1-.322.728,18.146,18.146,0,0,1-6.6-.476c-1.069-.223-2.132-.48-3.2-.721.391,1.616,3.539,12.211,5.618,11.7a58.247,58.247,0,0,1,8.015-1.385,1.4,1.4,0,0,1,.855.094.969.969,0,0,1,.19,1.335c-1.681,2.569-7.161,1.386-9.326.366,1.611,1.354,3.149,3.234,5.014,4.144,4.281,2.09,14.089,1.112,17.89-1.764a19.447,19.447,0,0,0,5.007-6.529c.425-1.011,1.269-7.862,1.795-7.921C632.037,595.729,630.589,595.153,628.948,595.092Zm-15.123-6.585a.427.427,0,0,1-.461.224,3.831,3.831,0,0,1-2.062-1.157,7.736,7.736,0,0,1-.739-.606c-.6-.563-1.419-1.43-1.086-2.331a1.036,1.036,0,0,1,.1-.191.488.488,0,0,1,.544-.5h0a1.331,1.331,0,0,1,.338-.12,1.545,1.545,0,0,1,1.051.218,5.734,5.734,0,0,1,1.819,1.888,3.748,3.748,0,0,1,.813,2.137A.592.592,0,0,1,613.825,588.507Zm7.545-13.621a2.991,2.991,0,0,1-1.532,1.271,2.6,2.6,0,0,1-.915.19,1.886,1.886,0,0,1-1.048-.293.612.612,0,0,1-.173-.726,2.238,2.238,0,0,1,.526-.685,2.964,2.964,0,0,1,2.825-1.329.632.632,0,0,1,.508.539A1.579,1.579,0,0,1,621.369,574.886Zm4.416,32.644a2.212,2.212,0,0,1-.375.04c-1.247.039-9.253-.718-6.229-3.961.713-.765,2.022-.313,2.8.391s1.432,1.653,2.452,1.892a11.586,11.586,0,0,1,1.35.212c.429.155.8.647.595,1.053A.789.789,0,0,1,625.786,607.53Z" transform="translate(-598.016 -559.497)" fill="#296b48"/>
      <path id="Trazado_14440" data-name="Trazado 14440" d="M617.954,596.538c.416,7.363-1.6,14.654-1.768,22.026a44.382,44.382,0,0,0,2.845,16.669" transform="translate(-599.588 -562.704)" fill="none" stroke="#004000" stroke-miterlimit="10" stroke-width="1"/>
    </g>
    <g id="Grupo_5416" data-name="Grupo 5416" transform="translate(615.285 601.178)">
      <path id="Trazado_14441" data-name="Trazado 14441" d="M660.755,627.337c2.5-1.765,5.008-2.762,7.365-2.621,3.308.2,6.29,1.723,9.452,2.57,11.528,3.093,12.693-11.772,23.887-12.985,4.353-.471,8.81.818,11.136,4.667a10.056,10.056,0,0,0,1.659,2.464c1.455,1.289,3.738.99,5.662.289,5.552-2.024,10.5-6.846,16.228-6.979a10.119,10.119,0,0,1,9.113,5.525c5.259,10.2-8.065,19.24-16.493,22.034-3.237,1.073-7.376,2.288-8.055,5.748-.361,1.833.506,3.579.5,5.42-.015,2.823-2.144,5.443-4.617,6.8-4.047,2.213-8.229,1.243-12.343,2.651-2.146.734-3.649,2.89-4.64,5.039s-1.671,4.469-3.042,6.4c-4.383,6.173-11.44,3.991-16.444,1.422-5.67-2.911-11.7-6.442-18.192-4.955-6.014,1.378-10.492,5.367-16.11,1.785a12.177,12.177,0,0,1-5.407-11.629C641.222,652.827,650.978,634.229,660.755,627.337Z" transform="translate(-629.441 -614.208)" fill="#e8bb3d"/>
      <g id="Grupo_5409" data-name="Grupo 5409" transform="translate(0 20.514)">
        <path id="Trazado_14442" data-name="Trazado 14442" d="M629.089,685.593l-.681-.608c8.418-9.41,19.815-21.39,33.335-30.573,8.025-5.451,17.959-9.561,30.369-12.562,2.442-.591,5.07-.969,7.612-1.334,5-.719,10.172-1.463,14.555-3.848l.437.8c-4.529,2.463-9.782,3.218-14.861,3.95-2.637.379-5.127.738-7.528,1.318-12.3,2.975-22.138,7.041-30.072,12.431C648.818,664.3,637.472,676.224,629.089,685.593Z" transform="translate(-628.408 -636.667)" fill="#ffd54f"/>
      </g>
      <g id="Grupo_5410" data-name="Grupo 5410" transform="translate(68.078 34.777)">
        <rect id="Rectángulo_3117" data-name="Rectángulo 3117" width="0.913" height="7.301" transform="translate(0 0.822) rotate(-64.274)" fill="#ffd54f"/>
      </g>
      <g id="Grupo_5411" data-name="Grupo 5411" transform="translate(69.861 8.09)">
        <rect id="Rectángulo_3118" data-name="Rectángulo 3118" width="6.18" height="0.913" transform="translate(0 5.927) rotate(-73.547)" fill="#ffd54f"/>
      </g>
      <g id="Grupo_5412" data-name="Grupo 5412" transform="translate(68.382 10.612)">
        <path id="Trazado_14443" data-name="Trazado 14443" d="M704.148,629.789l-.876-.258c.27-.917.37-1.357.476-1.824s.212-.936.49-1.881l.876.259c-.27.917-.37,1.358-.475,1.824S704.427,628.845,704.148,629.789Z" transform="translate(-703.272 -625.826)" fill="#ffd54f"/>
      </g>
      <g id="Grupo_5413" data-name="Grupo 5413" transform="translate(92.47 15.015)">
        <rect id="Rectángulo_3119" data-name="Rectángulo 3119" width="6.343" height="0.913" transform="translate(0 2.335) rotate(-21.604)" fill="#ffd54f"/>
      </g>
      <g id="Grupo_5414" data-name="Grupo 5414" transform="translate(68.969 37.105)">
        <rect id="Rectángulo_3120" data-name="Rectángulo 3120" width="0.913" height="2.646" transform="matrix(0.434, -0.901, 0.901, 0.434, 0, 0.822)" fill="#ffd54f"/>
      </g>
      <g id="Grupo_5415" data-name="Grupo 5415" transform="translate(36.991 18.966)">
        <rect id="Rectángulo_3121" data-name="Rectángulo 3121" width="0.913" height="6.203" fill="#ffd54f"/>
      </g>
    </g>
    <g id="Grupo_5420" data-name="Grupo 5420" transform="translate(476.837 521.454)">
      <path id="Trazado_14444" data-name="Trazado 14444" d="M553.663,531.195c-.111.126-.221.254-.341.374-4.5,4.5-10.894.316-14.116-3.576a.671.671,0,0,1-.038-.057,30.26,30.26,0,0,0-10.2,1.445c-9.449,3.206-13.364,10.191-15.75,19.707q-4.626,18.443-9.243,36.889c8.675,1.1,16.833,2.54,24.921,4.027.658-.188,1.322-.358,1.987-.531a10.149,10.149,0,0,0,4.331-1.934.8.8,0,0,1,1.239.154c1.035,1.392,1.926,2.89,3,4.253,7.129,1.293,14.353,2.523,21.977,3.489q1.059-10.107,1.97-20.23C564.652,561.256,567.291,539.483,553.663,531.195Z" transform="translate(-479.187 -527.015)" fill="#7986cb"/>
      <path id="Trazado_14445" data-name="Trazado 14445" d="M535.772,534.33a40.608,40.608,0,0,1,.293-6.6c-10.407-.311-19.945,3.895-29.088,9.8-10.034,6.484-18.437,15.165-26.486,23.994a41.327,41.327,0,0,0,8.345,11.642c1.255,1.228,31.11-22.534,34.033-24.819,3.87-3.024,6.687-6.369,10.34-9.613.454-.4,1.441-1.353,2.676-2.5C535.832,535.6,535.795,534.961,535.772,534.33Z" transform="translate(-477.154 -526.996)" fill="#7986cb"/>
      <path id="Trazado_14446" data-name="Trazado 14446" d="M577.177,543.073c-6.066-5.53-12.512-10.139-19.737-12.678-1.766,3.549-3.582,7.083-5.582,10.505,2.692,3.474,4.823,6.908,7.862,10.224,2.506,2.734,28.038,31.091,29.478,30.087a41.325,41.325,0,0,0,10.15-10.108C592.864,561.069,586.005,551.123,577.177,543.073Z" transform="translate(-483.333 -527.228)" fill="#7986cb"/>
      <path id="Trazado_14447" data-name="Trazado 14447" d="M603.858,574.629c-.691-.989-1.995-3.005-3.174-3.436-1.473-.539-2.93.965-4.157,1.8a67.61,67.61,0,0,0-8.685,7.029,2.678,2.678,0,0,0-1.052,1.779,2.729,2.729,0,0,0,.983,1.746l1.988,2.064a3.925,3.925,0,0,0,1.652,1.2c2.425.681,5.6-3.12,7.43-4.415,2.178-1.537,5.575-3.94,5.4-6.99a1.18,1.18,0,0,0-.248-.571C603.953,574.766,603.906,574.7,603.858,574.629Z" transform="translate(-486.357 -530.751)" fill="#fff"/>
      <path id="Trazado_14448" data-name="Trazado 14448" d="M487.9,565.607c-1.566-1.528-5.113-6.679-7.239-4.363q-1.5,1.63-2.879,3.362a2.169,2.169,0,0,0-.044,3.594l7.852,7.644a6.3,6.3,0,0,0,1.182.977c2.812,1.643,6.793-2.369,8.011-4.577C492.413,570.1,490.188,567.836,487.9,565.607Z" transform="translate(-476.837 -529.848)" fill="#fff"/>
      <g id="Grupo_5419" data-name="Grupo 5419" transform="translate(3.337 0.715)">
        <g id="Grupo_5418" data-name="Grupo 5418" clip-path="url(#clip-path)">
          <g id="Grupo_5417" data-name="Grupo 5417" transform="translate(15.45 -3.87)">
            <path id="Trazado_14449" data-name="Trazado 14449" d="M512.08,582.94c1.4-1.276,3.4-1.67,4.952-2.752,2.329-1.62,3.341-4.5,4.5-7.091s2.929-5.317,5.718-5.846a2.836,2.836,0,0,1,2.809.826c.865,1.153.207,2.809-.632,3.98-2.537,3.539-6.589,6.017-8.225,10.051-.7,1.736-.923,3.694-1.992,5.232-1.463,2.1-5.333,3.562-7.844,2.654C508.44,588.935,510.409,584.462,512.08,582.94Z" transform="translate(-498.484 -527.258)" fill="#7fabbe"/>
            <path id="Trazado_14450" data-name="Trazado 14450" d="M561.013,563.423a3.267,3.267,0,0,1,3.123-1.2,2.672,2.672,0,0,1,2.115,2.476,4.66,4.66,0,0,1-.963,2.442,34.742,34.742,0,0,1-4.193,5.509,25.937,25.937,0,0,0-3.307,3.572c-.848,1.285-1.313,2.792-2.164,4.075-3.685,5.556-9.624-1.627-5.9-6.021,1.9-2.247,4.31-3.407,6.873-4.645C559.631,568.164,559.147,565.756,561.013,563.423Z" transform="translate(-501.833 -526.823)" fill="#7fabbe"/>
            <path id="Trazado_14451" data-name="Trazado 14451" d="M590.81,556.27c-1.628,1.439-3.587,2.5-5.046,4.112a9.681,9.681,0,0,0-2.389,7.655,1.6,1.6,0,0,0,.488,1.108,1.451,1.451,0,0,0,.783.24,7.426,7.426,0,0,0,4.791-1.8,24.9,24.9,0,0,1,4.278-2.987,14.258,14.258,0,0,0,3.138-1.455,5.06,5.06,0,0,0,1.477-4.915c-.257-1.323-1.811-5.764-3.295-6.153C593.325,551.629,591.934,555.275,590.81,556.27Z" transform="translate(-504.842 -525.947)" fill="#7fabbe"/>
            <path id="Trazado_14452" data-name="Trazado 14452" d="M563.663,543.13c1.813-.034,3.972.656,4.409,2.416.4,1.615-.914,3.164-2.337,4.026-2.261,1.369-5.007,1.847-7.133,3.417-1.726,1.275-2.889,3.159-4.412,4.671s-3.736,2.694-5.767,2a4.723,4.723,0,0,1-2.832-4.871c.305-3.721,4.055-7.234,7.323-8.659C556.1,544.744,560.2,543.2,563.663,543.13Z" transform="translate(-501.576 -525.175)" fill="#7fabbe"/>
            <path id="Trazado_14453" data-name="Trazado 14453" d="M523.15,530.237a17.415,17.415,0,0,0-3.622,3.341,5.785,5.785,0,0,0-1.185,4.642A3.529,3.529,0,0,0,521.91,541a5.733,5.733,0,0,0,2.906-1.636l7.359-6.338c1.756-1.513,3.673-3.39,3.5-5.7-.2-2.561-3.412-4.774-5.79-3.459-.961.532-1.618,1.868-2.362,2.654A35.71,35.71,0,0,1,523.15,530.237Z" transform="translate(-499.208 -523.473)" fill="#7fabbe"/>
            <path id="Trazado_14454" data-name="Trazado 14454" d="M499.543,550.335a4.725,4.725,0,0,1,2.626-1.922,1.843,1.843,0,0,1,1.683.435,2.208,2.208,0,0,1,.183,2.3,12.334,12.334,0,0,0-.913,2.249c-.243,1.374.746,3.088,1.17,4.38.509,1.553.821,3.205-.146,4.655-1.023,1.534-2.547,1.418-3.971.436C496.323,560.206,496.853,553.588,499.543,550.335Z" transform="translate(-497.406 -525.629)" fill="#7fabbe"/>
          </g>
        </g>
      </g>
      <path id="Trazado_14456" data-name="Trazado 14456" d="M549.718,530.479a24.035,24.035,0,0,1-8.872-3.206c.912,2.04,1.195,4.338,2.134,6.381.531,1.155,1,2.334,1.452,3.518.055.09.118.175.168.269a10.655,10.655,0,0,1,.922,2.574c.368.938.307,7.4.733,8.313,2.334-4.547,5.449-13.971,9.12-17.942A19.841,19.841,0,0,1,549.718,530.479Z" transform="translate(-482.379 -526.958)"/>
      <path id="Trazado_14457" data-name="Trazado 14457" d="M560.893,592.436c-4.155-.381-8.346-.824-12.449-1.594-2.169-.407-4.665-1.1-6.2-2.783-1.545-1.7-1.345-3.72-1.178-5.833.226-2.855.542-5.706.892-8.549q1.054-8.53,2.748-16.966L547,554.16a10.342,10.342,0,0,0,2.194-3.168.924.924,0,0,0,.077-.48.865.865,0,0,0-.336-.479c-1.151-.947-2.837-.829-4.2-1.442-.123-.055-.266-.169-.216-.294a.278.278,0,0,1,.2-.132,23.874,23.874,0,0,1,3.8-.849l5.9-.73c1.235-.153,1.44-.892,1.556-2.01a50.642,50.642,0,0,0-.261-7.566c-.041-.838.2-6.846-.333-7.143a17.656,17.656,0,0,0-2.529-1.151c-.25-.091-.5-.175-.759-.257-2.474,4.526-5.723,10.871-8.857,14.994-.384.5-.227-1.122-.415-1.844-.772-2.972-1.471-5.965-2.044-8.982-.24-1.263-.169-3.635-.581-4.892-1.248-.229-2.484-.529-3.724-.806-1.839,5.336-3.893,11.307-5.6,16.681a1.876,1.876,0,0,0,.017,1.684c.373.491,1.371.632,1.935.757l4.741,1.049a3.138,3.138,0,0,1,1.715.77c-1.027.348-2.13.29-3.152.7a1.65,1.65,0,0,0-.716.466,1.765,1.765,0,0,0,.075,1.756,42.8,42.8,0,0,1,2.156,4.721q-1.584,9.518-3.051,19.055c-.644,4.187-.234,10.635-5.314,11.825-2.664.624-5.448.2-8.11-.189-5.245-.844-10.474-1.795-15.71-2.693-2.545-.437-2.861,3.564-.332,4,6.622,1.136,13.5,2.967,20.231,3.225a19.64,19.64,0,0,0,2.365-.052c2.694-.218,4.621.435,6.958-1.343,6.113,6.38,17.7,6.346,25.884,7.1C563.133,596.669,563.466,592.671,560.893,592.436Z" transform="translate(-479.135 -526.928)" fill="#fff"/>
      <path id="Trazado_14458" data-name="Trazado 14458" d="M510.851,561.81a65.388,65.388,0,0,1,10.907-11.586" transform="translate(-479.782 -528.945)" fill="none" stroke="#7fabbe" stroke-miterlimit="10" stroke-width="1"/>
      <path id="Trazado_14459" data-name="Trazado 14459" d="M569.531,562.957c.239-.093.139-.452,0-.668l-6.881-10.517" transform="translate(-484.267 -529.079)" fill="none" stroke="#7fabbe" stroke-miterlimit="10" stroke-width="1"/>
      <path id="Trazado_14460" data-name="Trazado 14460" d="M538.29,590.5q4.43-26.323,8.857-52.644" transform="translate(-482.158 -527.874)" fill="none" stroke="#000" stroke-miterlimit="10" stroke-width="1"/>
    </g>
    <g id="Grupo_5424" data-name="Grupo 5424" transform="translate(566.021 587.126)">
      <path id="Trazado_14461" data-name="Trazado 14461" d="M612.747,615.178l-36.962,68.731,25.789,11.451,28.953-66.684-9.7,71.628,27.431,3.181q1.077-21.751,2.156-43.5c.754-15.229,3.8-32.38-.675-47.17a5.936,5.936,0,0,0-4.866-5.006c-7.266-2.528-12.347-7.087-19.97-4.235C620.321,605.285,616.071,609.754,612.747,615.178Z" transform="translate(-574.588 -599.157)" fill="#ba68c8"/>
      <path id="Rectángulo_3122" data-name="Rectángulo 3122" d="M1.747,0h23.42a1.747,1.747,0,0,1,1.747,1.747V9.354a0,0,0,0,1,0,0H0a0,0,0,0,1,0,0V1.747A1.747,1.747,0,0,1,1.747,0Z" transform="matrix(0.969, 0.249, -0.249, 0.969, 49.107, 0)" fill="#ba68c8"/>
      <g id="Grupo_5421" data-name="Grupo 5421" transform="translate(36.558 13.421)">
        <path id="Trazado_14462" data-name="Trazado 14462" d="M625.675,613.7a.781.781,0,0,0-1.1.087,14.384,14.384,0,0,1-10.008,4.962,1.074,1.074,0,0,1,.206.849.9.9,0,0,1-.143.455c-.05.085-.089.175-.132.264a15.964,15.964,0,0,0,11.263-5.518A.78.78,0,0,0,625.675,613.7Z" transform="translate(-614.498 -613.518)" fill="#7138be"/>
      </g>
      <g id="Grupo_5422" data-name="Grupo 5422" transform="translate(66.11 18.774)">
        <path id="Trazado_14463" data-name="Trazado 14463" d="M658.715,628.649c-.012-.1-.025-.2-.037-.3,0-.022-.018-.128-.024-.171l-.022-.149c-.016-.1-.03-.2-.046-.294-.028-.173-.057-.345-.087-.518a8.02,8.02,0,0,1-3.447-.776,17.81,17.81,0,0,1-4.182-2.922,6.55,6.55,0,0,1-2.47-3.486.78.78,0,1,0-1.54.249,7.86,7.86,0,0,0,2.978,4.407,19.328,19.328,0,0,0,4.563,3.168,9.9,9.9,0,0,0,3.306.894,7.97,7.97,0,0,0,1.021.016C658.724,628.73,658.72,628.689,658.715,628.649Z" transform="translate(-646.851 -619.378)" fill="#7138be"/>
      </g>
      <path id="Trazado_14464" data-name="Trazado 14464" d="M576.776,686.9l-2.3,5.2,27.259,12.311,2.3-5.2Z" transform="translate(-574.475 -606.45)" fill="#7138be"/>
      <g id="Grupo_5423" data-name="Grupo 5423" transform="translate(48.225 0.342)">
        <path id="Trazado_14465" data-name="Trazado 14465" d="M628.116,602.1c8.43,2.171,16.8,4.738,25.333,6.462l.38-1.482a1.577,1.577,0,0,0-1.135-1.921l-23.013-5.909a1.578,1.578,0,0,0-1.921,1.135l-.489,1.906A.86.86,0,0,1,628.116,602.1Z" transform="translate(-627.271 -599.199)" fill="#7138be"/>
        <path id="Trazado_14466" data-name="Trazado 14466" d="M638.223,601.723c-1.35,4.535-3.55,9.519-3.992,14.222a6.449,6.449,0,0,0,3.1,6.31c1.7-6.5,3.438-12.986,4.916-19.537C640.915,602.35,639.581,601.986,638.223,601.723Z" transform="translate(-627.871 -599.418)" fill="#7138be"/>
        <path id="Trazado_14467" data-name="Trazado 14467" d="M630.862,600.016a5.208,5.208,0,0,1-.34.893c-.21.453-.417.905-.6,1.37a16.161,16.161,0,0,0-.83,2.892c-.109.568,1.217.872,1.326.3a13.945,13.945,0,0,1,.954-2.773,19.929,19.929,0,0,0,1.063-2.263C632.141,600.4,631.143,600.1,630.862,600.016Z" transform="translate(-627.428 -599.27)" fill="#7138be"/>
        <path id="Trazado_14468" data-name="Trazado 14468" d="M636.629,601.076c-.368-.078-.734-.166-1.1-.248a.319.319,0,0,0-.1.1,40.738,40.738,0,0,0-2.211,5.484c-.177.554,1.426.843,1.6.291a37.168,37.168,0,0,1,1.933-5.177A.392.392,0,0,0,636.629,601.076Z" transform="translate(-627.785 -599.34)" fill="#7138be"/>
        <path id="Trazado_14469" data-name="Trazado 14469" d="M644.277,609.616c.067.032.131.07.2.1.108.046.219.084.329.126l.035.015.029.006a7.728,7.728,0,0,0,1.174.211l.02,0a.321.321,0,0,0,.119-.181l1.091-5.4a.3.3,0,0,0-.016-.128c-.114-.023-.228-.036-.343-.062-.354-.082-.7-.176-1.053-.27a.254.254,0,0,0-.05.086C645.464,605.84,644.666,607.87,644.277,609.616Z" transform="translate(-628.743 -599.618)" fill="#7138be"/>
        <path id="Trazado_14470" data-name="Trazado 14470" d="M651.931,605.443a21.5,21.5,0,0,1-1.709,5.717c-.093.227.74.574.97.708a.454.454,0,0,0,.617-.167,21.847,21.847,0,0,0,1.478-5.771C652.992,605.844,652.21,605.568,651.931,605.443Z" transform="translate(-629.258 -599.74)" fill="#7138be"/>
      </g>
    </g>
    <g id="Grupo_5428" data-name="Grupo 5428" transform="translate(636.166 488.8)">
      <path id="Trazado_14471" data-name="Trazado 14471" d="M712.829,563l-7.217-13.018a66.843,66.843,0,0,0-7.842-12.022c-2.834-3.221-6.222-5.737-8.418-9.47-2.453-4.17-2.332-9.268-3.12-13.915-.335-1.976-.685-3.954-.919-5.946a7.938,7.938,0,0,1-2.435-2.272c-2.315-3.221-3.03-7.55-3.487-11.4-.142-1.191-.237-2.39-.311-3.591-.08-.132-.144-.2-.184-.192-.3.1-2.246.78-2.219,1.164.058.8.1,1.593.107,2.386.041,3.609-.274,10.154-4.835,11.043-2.83.553-5.616-1.181-7.338-3.291a15.356,15.356,0,0,1-2.837-6.645c-1.176-.437-1.708-.113-1.9.54.251,1.007.508,2.015.748,3.025.927,3.9,2.206,9.783.767,14.048q.14.558.276,1.116c.8,3.257,1.79,6.465,2.506,9.742a22.226,22.226,0,0,1,.473,8.218,44.325,44.325,0,0,1-2.876,8.869c-2.373,6.148-5.133,12.178-6.929,18.533a79.859,79.859,0,0,0-2.1,9.548c-.472,3.064-.681,6.159-1.1,9.231q-.18,1.315-.365,2.639a9.56,9.56,0,0,1,5.571-.418c3.519.934,6.841,4.385,10.176,2.923,4.665-2.046,2.745-8.941,9.139-9.123,2.551-.073,4.974,1.012,7.32,2.016s4.852,1.966,7.383,1.633c2.621-.344,4.846-2.018,6.937-3.634,4.1-3.168,7.178-6.764,12.919-4.572a23.455,23.455,0,0,0,3.182,1.245,3.116,3.116,0,0,0,3.134-.838Z" transform="translate(-651.268 -491.178)" fill="#f89182"/>
      <g id="Grupo_5425" data-name="Grupo 5425" transform="translate(24.894 8.972)">
        <path id="Trazado_14472" data-name="Trazado 14472" d="M696.665,514.535a25.478,25.478,0,0,0-4.6,2.435,18.443,18.443,0,0,0-5.712,6.895c0-.158.007-.316.021-.472a8.331,8.331,0,0,1,.466-2.062c.487-1.355,1.62-2.324,2.368-3.524a.247.247,0,0,0-.414-.269,34.039,34.039,0,0,0-2.51,3.173,19.992,19.992,0,0,1,1-4.968c1.078-3.342,2.967-7.093,2.536-10.7-.066-.551-.927-.459-.957.074a25.624,25.624,0,0,1-.75,5.474c-.493,1.8-1.128,3.566-1.631,5.367a20.889,20.889,0,0,0-.891,5.112c-.017.737.02,1.477.056,2.217a6.015,6.015,0,0,0,.053,2.052c0,.03,0,.06,0,.09-.062.175-.139.345-.195.523-.089-.194-.19-.382-.287-.572-.119-.545-.248-1.089-.353-1.635-.182-.948-.378-1.894-.554-2.843-.36-1.954-.81-3.843-1.331-5.759a.091.091,0,0,0-.178.038c.31,1.957.652,3.877,1.075,5.813.206.944.385,1.893.572,2.84.016.086.03.172.046.257a15.623,15.623,0,0,0-4.521-4.679.943.943,0,0,0-1.419.979,18.285,18.285,0,0,0,5.933,9.289,1.34,1.34,0,0,0,.437.366c.063.394.688.58.79.107l.011-.045c.019-.006.037,0,.058-.01a1.153,1.153,0,0,0,.755-1.161,34.4,34.4,0,0,1,2.4-4.077,31.957,31.957,0,0,1,2.657-2.849c1.035-1,2.106-1.964,3.128-2.978a21.11,21.11,0,0,0,2.979-3.362A.8.8,0,0,0,696.665,514.535Z" transform="translate(-678.522 -501.319)" fill="#007658"/>
        <path id="Trazado_14473" data-name="Trazado 14473" d="M695.417,504.146a5.433,5.433,0,0,0-2.179-.735,5.11,5.11,0,0,0,.025-1.154c-.087-.936-1.207-1.187-1.909-.9a4.752,4.752,0,0,0-1.78,1.3,4.413,4.413,0,0,0-1.042-1.446,1.411,1.411,0,0,0-1.708.178c-.885.871-.617,2.036.034,3.009a1.33,1.33,0,0,0-1.261.588,1.405,1.405,0,0,0,.137,1.652c.133.168.264.338.4.507a4.237,4.237,0,0,0-.886,1.283,1.381,1.381,0,0,0,1.221,1.8,6.6,6.6,0,0,0,2-.151,2.416,2.416,0,0,0,1.876.85,2.365,2.365,0,0,0,1.873-.97l.462.48a1.385,1.385,0,0,0,2.311-.5,4.614,4.614,0,0,0,.026-3.067,3.006,3.006,0,0,0,.8-.859A1.367,1.367,0,0,0,695.417,504.146Z" transform="translate(-679.095 -501.001)" fill="#ffd54f"/>
        <path id="Trazado_14474" data-name="Trazado 14474" d="M685.747,515.414a1.556,1.556,0,0,0-.161-.1,4.546,4.546,0,0,0,.207-.417,2.807,2.807,0,0,0,.2-1.546,1.617,1.617,0,0,0-1.187-1.3,2.6,2.6,0,0,0-1.628.191,2.389,2.389,0,0,0-.429.273,2.758,2.758,0,0,0-.234.191,2.529,2.529,0,0,0-.5-.463,2,2,0,0,0-2.063-.325,1.862,1.862,0,0,0-.854,1.989,2.984,2.984,0,0,0,1.05,1.591c.139.121.28.235.427.341a2.343,2.343,0,0,0-.4.477,1.853,1.853,0,0,0-.128,1.8,1.716,1.716,0,0,0,1.336.85,2.171,2.171,0,0,0,1.586-.473,2.774,2.774,0,0,0,.469-.48,2.029,2.029,0,0,0,.588.6,1.909,1.909,0,0,0,.8.29,1.613,1.613,0,0,0,.86-.161,1.672,1.672,0,0,0,.889-1.555,2.337,2.337,0,0,0-.211-.992A2.141,2.141,0,0,0,685.747,515.414Z" transform="translate(-678.568 -501.931)" fill="#ffd54f"/>
        <path id="Trazado_14475" data-name="Trazado 14475" d="M691.637,515.991c-.055,0-.106.012-.16.016a1.228,1.228,0,0,0-.153-.14c-.056-.07-.109-.142-.17-.206a1.572,1.572,0,0,0-1.118-.535,1.532,1.532,0,0,0-1.195.554,1.73,1.73,0,0,0-.109,2.01c.057.09.118.176.181.261a1.32,1.32,0,0,0-.1.23,1.419,1.419,0,0,0,.273,1.293,1.514,1.514,0,0,0,1.029.512,1.734,1.734,0,0,0,1.633-.888,2.069,2.069,0,0,0,.133-.335c.055-.006.11-.007.164-.016a1.74,1.74,0,0,0,.883-.384,1.286,1.286,0,0,0,.41-1.263A1.639,1.639,0,0,0,691.637,515.991Z" transform="translate(-679.382 -502.224)" fill="#ffd54f"/>
      </g>
      <g id="Grupo_5427" data-name="Grupo 5427" transform="translate(12.82 33.659)">
        <g id="Grupo_5426" data-name="Grupo 5426">
          <path id="Trazado_14476" data-name="Trazado 14476" d="M672.063,533.86a1.021,1.021,0,0,0-.859-.555,1.134,1.134,0,0,0-.924.344,1.678,1.678,0,0,0-.173.25.372.372,0,0,0-.446.24,14.065,14.065,0,0,0-.392,4.279c-.019,1.4-.128,2.8-.227,4.191-.206,2.9-.468,5.791-.724,8.686-.035.389.609.529.687.131.58-2.958,1.343-5.874,1.887-8.84q.41-2.236.754-4.483c.114-.75.2-1.51.332-2.255C672.107,535.148,672.392,534.542,672.063,533.86Z" transform="translate(-665.564 -528.485)" fill="#c14749"/>
          <path id="Trazado_14477" data-name="Trazado 14477" d="M677.828,533.075c-.455-.964-1.637-.485-1.795.366a.265.265,0,0,0-.086.137,3.807,3.807,0,0,0,.124,1.617c.1.568.186,1.138.3,1.7.237,1.224.545,2.438.818,3.655q.818,3.656,1.635,7.31c.212.949,1.506.6,1.432-.307-.2-2.453-.41-4.9-.781-7.335-.185-1.212-.436-2.416-.7-3.614A16.9,16.9,0,0,0,677.828,533.075Z" transform="translate(-666.22 -528.419)" fill="#c14749"/>
          <path id="Trazado_14478" data-name="Trazado 14478" d="M682.724,533.195c-.237-.618-1.128-.135-.909.473,1.431,3.964,2.366,8.074,3.74,12.056.276.8,1.513.594,1.324-.283A83.138,83.138,0,0,0,682.724,533.195Z" transform="translate(-666.73 -528.45)" fill="#c14749"/>
          <path id="Trazado_14479" data-name="Trazado 14479" d="M694.854,542.633c-.648-1.38-1.357-2.722-2.124-4.04-.737-1.268-1.493-2.539-2.333-3.742-.413-.592-.868-1.159-1.323-1.719-.367-.45-.766-1.073-1.407-1.048a.4.4,0,0,0-.384.261c-.255.585.185,1.207.454,1.72.318.607.617,1.224.942,1.826.675,1.253,1.38,2.485,2.017,3.761s1.246,2.563,1.839,3.857a29.835,29.835,0,0,0,1.874,3.992,1.1,1.1,0,0,0,2.034-.733A17.085,17.085,0,0,0,694.854,542.633Z" transform="translate(-667.2 -528.379)" fill="#c14749"/>
          <path id="Trazado_14480" data-name="Trazado 14480" d="M690.338,530.4c-.24-.784-.466-1.571-.65-2.369-3.225.489-6.336,1.527-9.554,2.294a103.672,103.672,0,0,1-14.79,2.384,14.405,14.405,0,0,1-.04,2.97c1.882-.186,3.771-.3,5.66-.427C677.611,534.328,684.193,533.085,690.338,530.4Z" transform="translate(-665.303 -528.028)" fill="#c14749"/>
        </g>
      </g>
    </g>
    <g id="Grupo_5429" data-name="Grupo 5429" transform="translate(553.412 514.919)">
      <path id="Trazado_14481" data-name="Trazado 14481" d="M575.659,520.536a2.813,2.813,0,0,0-3.581-.218,3.954,3.954,0,0,0-1.367,2.493,10.189,10.189,0,0,0,.041,2.9q.26,2.174.708,4.321.223,1.073.493,2.134c.095.374.427,1.081.254,1.471.776-1.761,2.318-3.068,3.277-4.736a16.171,16.171,0,0,0,1.252-3.112A4.744,4.744,0,0,0,575.659,520.536Z" transform="translate(-561.531 -519.774)" fill="#36511d"/>
      <path id="Trazado_14482" data-name="Trazado 14482" d="M581.6,536.985a4.826,4.826,0,0,0-3.279-.945,9.3,9.3,0,0,0-3.6,1.2,23.547,23.547,0,0,0-5.07,3.612c-.38-2.961-.995-6.7-3.332-8.806a1.707,1.707,0,0,0-2.605-.045,3.178,3.178,0,0,0-.461,2.312,10.7,10.7,0,0,0,1.683,4.3,13.336,13.336,0,0,0,1.458,1.959c.142.159,2.222,2.52,2.29,2.5,2.951-1.055,6.133-.976,9.181-1.561,1.283-.247,2.84-.5,3.714-1.5C582.687,538.739,582.428,537.687,581.6,536.985Z" transform="translate(-560.891 -520.782)" fill="#36511d"/>
      <path id="Trazado_14483" data-name="Trazado 14483" d="M574.806,547.448l-.02-.036a2.429,2.429,0,0,0-2.011-.952,8.189,8.189,0,0,0-6.435,2.361,15.912,15.912,0,0,0-.6-4.718,3.752,3.752,0,0,0-1.092-1.79,1.777,1.777,0,0,0-1.98-.247,2.18,2.18,0,0,0-.828,1.973c.052,1.868,1.151,3.528,2.265,5.028.324.438.907,1.6,1.4,1.822.452.206,1.278-.147,1.806-.188,1.327-.1,2.661.107,3.983-.1S575.858,549.407,574.806,547.448Z" transform="translate(-560.771 -521.687)" fill="#36511d"/>
      <path id="Trazado_14484" data-name="Trazado 14484" d="M571.852,531.35a86.8,86.8,0,0,1-4.531,12.425q-1.4,3.088-3.055,6.054c-1.09,1.951-2.463,3.743-3.528,5.7a.467.467,0,0,0,.764.535,40.7,40.7,0,0,0,3.423-5.773q1.589-2.91,2.949-5.938a81.976,81.976,0,0,0,4.493-12.814C572.456,531.2,571.948,531.008,571.852,531.35Z" transform="translate(-560.67 -520.761)" fill="#36511d"/>
    </g>
    <g id="Grupo_5430" data-name="Grupo 5430" transform="translate(509.73 505.622)">
      <path id="Trazado_14485" data-name="Trazado 14485" d="M523.228,558.56a51.2,51.2,0,0,1,11.244-43.716" transform="translate(-513.652 -510.05)" fill="none" stroke="#004000" stroke-miterlimit="10" stroke-width="1"/>
      <path id="Trazado_14486" data-name="Trazado 14486" d="M536,509.8a6.5,6.5,0,0,1,.7-.16,2.532,2.532,0,0,1,2.909,1.526,4.037,4.037,0,0,1,.168,2.376c-.762,3.762-4.47,6.028-7.95,6.86a1.43,1.43,0,0,1-.585.052,1.058,1.058,0,0,1-.61-.4,3.423,3.423,0,0,1-.193-2.97,17.169,17.169,0,0,1,1.43-4.076A7,7,0,0,1,536,509.8Z" transform="translate(-514.35 -509.596)" fill="#004000"/>
      <path id="Trazado_14487" data-name="Trazado 14487" d="M521.931,520.118a4.826,4.826,0,0,1,.586-2.41,2.728,2.728,0,0,1,4.657.017,6.355,6.355,0,0,1,.946,4.086,14.83,14.83,0,0,1-1.105,4.964,2.467,2.467,0,0,1-.91,1.26C523.655,529.471,521.894,521.524,521.931,520.118Z" transform="translate(-513.634 -510.185)" fill="#004000"/>
      <path id="Trazado_14488" data-name="Trazado 14488" d="M517.586,531.377a5.076,5.076,0,0,1,.121-2.547,2.259,2.259,0,0,1,1.883-1.539,2.65,2.65,0,0,1,2.155,1.331,7.457,7.457,0,0,1,1.124,3.895,36.613,36.613,0,0,1-.212,4.1c-.037.5.184,2.983-.353,3.124s-1.6-1.428-1.849-1.752A14.42,14.42,0,0,1,517.586,531.377Z" transform="translate(-513.249 -511.127)" fill="#296b48"/>
      <path id="Trazado_14489" data-name="Trazado 14489" d="M536.3,529.285a3.964,3.964,0,0,1-.5.355,8.827,8.827,0,0,1-6.063,1.061c-2.2-.4-4.013-1.424-2.135-3.607a8.544,8.544,0,0,1,7.836-2.91C538.245,524.735,538.163,527.728,536.3,529.285Z" transform="translate(-514.058 -510.847)" fill="#296b48"/>
      <path id="Trazado_14490" data-name="Trazado 14490" d="M529.017,531.05a9.776,9.776,0,0,1,1.137-.5,5.886,5.886,0,0,1,2.334-.422,3.487,3.487,0,0,1,2.886,1.851,2.937,2.937,0,0,1-.514,3.321,4.42,4.42,0,0,1-1.232.785c-1.505.705-10.424,3-9.047-.9C525.146,533.583,527.239,531.961,529.017,531.05Z" transform="translate(-513.851 -511.372)" fill="#004000"/>
      <path id="Trazado_14491" data-name="Trazado 14491" d="M526.278,550.2c-1.072.335-2.236.786-3.311.17-1.4-.8-.7-2.385-.092-3.456a7.75,7.75,0,0,1,3.265-2.97,4.192,4.192,0,0,1,3.418-.456,2.665,2.665,0,0,1,1.325,3.5C530.043,548.693,528.093,549.635,526.278,550.2Z" transform="translate(-513.653 -512.513)" fill="#296b48"/>
      <path id="Trazado_14492" data-name="Trazado 14492" d="M519.974,542.1c-.973-1.9-3.037-4.682-5.489-3.49a2.961,2.961,0,0,0-1.6,2.159c-.258,1.616.849,3.111,1.975,4.3a9.019,9.019,0,0,0,3.359,2.467,3.09,3.09,0,0,0,1.782.153C522.621,547.015,520.729,543.571,519.974,542.1Z" transform="translate(-512.848 -512.083)" fill="#004000"/>
    </g>
    <g id="Grupo_5435" data-name="Grupo 5435" transform="translate(631.1 530.697)">
      <g id="Grupo_5431" data-name="Grupo 5431" transform="translate(8.021 6.143)">
        <path id="Trazado_14493" data-name="Trazado 14493" d="M663.945,583.52c-7.185-9.345-10.3-22.719-9.242-39.747l.912.057c-1.039,16.8,2.008,29.968,9.055,39.134Z" transform="translate(-654.503 -543.773)" fill="#007658"/>
      </g>
      <g id="Grupo_5432" data-name="Grupo 5432">
        <path id="Trazado_14494" data-name="Trazado 14494" d="M660.837,548.663a1.988,1.988,0,0,0-1.963-.309,7.788,7.788,0,0,0-2.949,1.935c.123-.322.255-.64.36-.969q.543-1.708,1.027-3.435c.323-1.147.655-2.3.91-3.466a6.069,6.069,0,0,0,.04-3.3,2.934,2.934,0,0,0-4.644-1.42,6.967,6.967,0,0,0-2.392,5.323,15.188,15.188,0,0,0,1.623,6.66,7.025,7.025,0,0,1,.354,1.683c-.082-.116-.161-.234-.244-.349-.446-.617-.888-1.238-1.37-1.826a5.9,5.9,0,0,0-3.624-2.417,1.951,1.951,0,0,0-2.082.9,2.181,2.181,0,0,0,.372,2.174,10.56,10.56,0,0,0,3.284,2.836,16.3,16.3,0,0,0,2.473,1.126c.971.382,1.78.964,2.841.808a8.989,8.989,0,0,0,3.409-1.384,11.3,11.3,0,0,0,1.475-1.086,5.891,5.891,0,0,0,1.395-1.534A1.567,1.567,0,0,0,660.837,548.663Z" transform="translate(-645.722 -537.047)" fill="#007658"/>
      </g>
      <g id="Grupo_5433" data-name="Grupo 5433" transform="translate(0.595 18.038)">
        <path id="Trazado_14495" data-name="Trazado 14495" d="M662.268,557.455a1.55,1.55,0,0,0-.527-.468,2.06,2.06,0,0,0-1.872.073,5.273,5.273,0,0,0-1.474,1.257,25.477,25.477,0,0,0-1.869,2.364,21.781,21.781,0,0,0-1.007,2.093c-.313-.28-.625-.57-.957-.831a15.248,15.248,0,0,0-1.868-1.248c-.62-.354-1.265-.654-1.915-.951a4.839,4.839,0,0,0-2.313-.623,2.407,2.407,0,0,0-1.961,3.266c.464,1.456,2.008,2.071,3.344,2.455a15.573,15.573,0,0,0,2.605.49,13.232,13.232,0,0,0,2.2.017c.532-.029.615.077,1.1-.175a18.716,18.716,0,0,0,1.654-1.039c1.085-.723,2.134-1.5,3.151-2.316a5.731,5.731,0,0,0,1.916-2.22A2.353,2.353,0,0,0,662.268,557.455Z" transform="translate(-646.374 -556.795)" fill="#007658"/>
      </g>
      <g id="Grupo_5434" data-name="Grupo 5434" transform="translate(2.805 26.101)">
        <path id="Trazado_14496" data-name="Trazado 14496" d="M659.227,568.619a5.157,5.157,0,0,1,2.506-2.761,2.219,2.219,0,0,1,1.831-.068,2.26,2.26,0,0,1,1.146,2.18,5.173,5.173,0,0,1-.92,2.418,17.9,17.9,0,0,1-2.367,2.97,16.538,16.538,0,0,0-2.794,3.181c-.182.322-3.052-1.194-3.377-1.3-1.159-.383-2.387-.67-3.561-1.05a5.272,5.272,0,0,1-2.346-1.232,1.813,1.813,0,0,1-.159-2.418,2.29,2.29,0,0,1,1.47-.52,8.847,8.847,0,0,1,4.609,1.449,5.218,5.218,0,0,1,2.362,2.653c-.21-.6.677-2.384.89-2.981.284-.8.409-1.59.659-2.375C659.193,568.715,659.21,568.666,659.227,568.619Z" transform="translate(-648.793 -565.622)" fill="#007658"/>
      </g>
    </g>
    <g id="Grupo_5438" data-name="Grupo 5438" transform="translate(627.459 646.915)">
      <g id="Grupo_5436" data-name="Grupo 5436" transform="translate(2.903)">
        <path id="Trazado_14497" data-name="Trazado 14497" d="M684.226,673.039c-.2.013-.406.023-.609.027-1.494.034-3.186-.153-4.13-1.454a.6.6,0,0,1,.336-.875,8.158,8.158,0,0,1,4.455-.216c.1-1.47.232-3.427-.279-4.046-.761-.921-4.609-1.113-5.783-1.326-.332-.06-.664-.115-1-.17a21.977,21.977,0,0,1-1.189,3.377.6.6,0,0,1-1.083-.121,8.661,8.661,0,0,1-.15-3.6,42.479,42.479,0,0,0-7.048-.313.465.465,0,0,1-.02.2c-.025.069-.044.14-.067.209.393,2.161.511,4.356-.62,6.347a.6.6,0,0,1-1.083-.121,21.288,21.288,0,0,1-.385-6.47,27.324,27.324,0,0,0-8.447,2.3c.316.355.633.71.93,1.081a6.113,6.113,0,0,1,1.413,3.174.594.594,0,0,1-.88.528,9.016,9.016,0,0,1-2.653-3.58c-.068-.141-.129-.284-.193-.426-1.909,1.315-6.775,4.952-6.157,5.366a.326.326,0,0,1,.151.222.54.54,0,0,1-.117.511.427.427,0,0,1-.585-.018,22.28,22.28,0,0,0-1.682,2.622c.91.854,1.961,1.588,2.895,2.353,1.566,1.282,3.138,2.826,3.185,4.983a.41.41,0,0,1-.617.339,16.072,16.072,0,0,1-4.383-3.872c-.63-.73-1.24-1.481-1.861-2.221-.1.229-.2.46-.29.693a19.916,19.916,0,0,0,.064,14.677c2.073,4.753,7.918,6.916,12.85,6.969a17.622,17.622,0,0,0,11.825-4.452,10.528,10.528,0,0,1-6.1-4.229c-2.036-3.18,1.82-1.171,3.2-.1,1.425,1.113,2.876,2.4,3.814,2.5,3.363.361,5.632-4.351,7.19-6.595.512-.738,1.014-1.513,1.492-2.313-.085-.214-.17-.427-.268-.635-.453-.287-.9-.576-1.336-.887-1.273-.912-2.691-2.041-3.089-3.638a.6.6,0,0,1,.855-.684,10.393,10.393,0,0,1,4.159,3.862q.247.266.506.518a22.312,22.312,0,0,0,2.713-8.307C684.221,674.5,684.232,673.771,684.226,673.039Zm-22.811,7.873a.524.524,0,0,1-.453.138.377.377,0,0,1-.444-.09,3.387,3.387,0,0,1-.828-1.919,6.9,6.9,0,0,1-.195-.821c-.12-.718-.23-1.767.487-2.221a.963.963,0,0,1,.169-.083.432.432,0,0,1,.648-.058h0a1.156,1.156,0,0,1,.3.1,1.359,1.359,0,0,1,.621.718,5.034,5.034,0,0,1,.266,2.3A3.311,3.311,0,0,1,661.415,680.912Zm9.34-7.046a1.972,1.972,0,0,1,.737-.2,2.62,2.62,0,0,1,2.7.581.558.558,0,0,1,.068.651,1.389,1.389,0,0,1-.69.623,2.644,2.644,0,0,1-1.757.072,2.3,2.3,0,0,1-.744-.357,1.671,1.671,0,0,1-.58-.768A.542.542,0,0,1,670.755,673.866Zm5.035,14.616a.6.6,0,0,1-.493.9c-2.474-.2-4.214-2.037-5.55-3.95a.6.6,0,0,1,.493-.9,6.051,6.051,0,0,1,3.2,1.382A10.543,10.543,0,0,1,675.789,688.481Z" transform="translate(-644.914 -664.281)" fill="#007658"/>
      </g>
      <g id="Grupo_5437" data-name="Grupo 5437" transform="translate(0 18.117)">
        <path id="Trazado_14498" data-name="Trazado 14498" d="M642.568,707.241l-.832-.376a33.816,33.816,0,0,1,5.635-9.047,47.139,47.139,0,0,1,7.034-5.958l10.469-7.744.543.734-10.469,7.745a46.456,46.456,0,0,0-6.9,5.837A32.935,32.935,0,0,0,642.568,707.241Z" transform="translate(-641.736 -684.115)" fill="#004000"/>
      </g>
    </g>
    <path id="Trazado_14499" data-name="Trazado 14499" d="M681.576,629.918a5.479,5.479,0,0,0-1.509-1.995,5.581,5.581,0,0,0-4.928-.65,23.342,23.342,0,0,0-4.637,2.234c-2.526,1.377-4.7,1.032-7.269,1.8a15.9,15.9,0,0,0-6.936,4.678,32.3,32.3,0,0,0-2.8,3.605,94.074,94.074,0,0,0,3.5-12.4c.069-.343-.5-.467-.6-.133-1.824,6.187-3.648,12.342-6.031,18.342a.4.4,0,0,0,.015.354c-.078.234-.166.469-.232.7l.172.054c.308.083.616.17.923.254,3.4-3.821,6.108-8.258,11.961-8.75,2.444-.206,4.87.448,7.313.674C675.369,639.143,684.742,636.56,681.576,629.918Z" transform="translate(-15.005 -14.127)" fill="#004000"/>
    <path id="Trazado_14500" data-name="Trazado 14500" d="M651.424,631.067a16.99,16.99,0,0,1-1.148-3.191,3.735,3.735,0,0,0-2.127-2.491c-1.8-.57-3.53,1.25-4.049,3.071a4.439,4.439,0,0,0-.028,2.721c.781,2.129,3.565,2.742,4.918,4.563,2.252,3.029.3,7.5.917,10.838,1.084-1.824,1.466-4.164,2.094-6.2C653.317,636.114,653.685,634.871,651.424,631.067Z" transform="translate(-14.462 -13.989)" fill="#004000"/>
    <path id="Trazado_14501" data-name="Trazado 14501" d="M645.646,645.78a.663.663,0,0,0-.719.49c-.6,2.308-1.021,5.01-.18,7.258a3.6,3.6,0,0,0,2.661,2.638,5.662,5.662,0,0,0,4.481-.149,5.364,5.364,0,0,0,2.123-2.4c.167-.344,1.18-3.923,1.619-5.485a.657.657,0,0,0-.54-.83C652,646.834,648.738,646.142,645.646,645.78Z" transform="translate(-14.497 -15.764)" fill="#7138be"/>
    <path id="Trazado_14502" data-name="Trazado 14502" d="M600.148,680.815c-1.781,2.994-4.419,6.168-7.523,6.683a5.623,5.623,0,0,1-6.66-6.668,13.707,13.707,0,0,1,1.441-3.622l2.85-5.558,10.637,5.084a1.323,1.323,0,0,1,.741.623,1.286,1.286,0,0,1-.165.976C601.106,679.1,600.663,679.949,600.148,680.815Z" transform="translate(-9.439 -18.004)" fill="#7138be"/>
    <path id="Trazado_14503" data-name="Trazado 14503" d="M659.445,623.717q-.19-.1-.4-.185a5.865,5.865,0,0,0-2.2-.521,2.06,2.06,0,0,0-2.32,2.051,4.277,4.277,0,0,0,.081.916c.119.614.448,1.434,1.1,1.62a1.046,1.046,0,0,0,.065.1,1.45,1.45,0,0,0,.9.484,1.1,1.1,0,0,0,.625.217,5.7,5.7,0,0,0,2.263-.464C661.984,626.867,661.391,624.74,659.445,623.717Z" transform="translate(-15.385 -13.793)" fill="#f1ad00"/>
    <path id="Trazado_14504" data-name="Trazado 14504" d="M655.493,630.819a3.137,3.137,0,0,0-.255-.658,3.062,3.062,0,0,0-.392-.557,2.827,2.827,0,0,0-1.126-.768,3.743,3.743,0,0,0-.662-.154,3.228,3.228,0,0,0-.664,0,2.259,2.259,0,0,0-.963.29,1.23,1.23,0,0,0-.675.979,1.186,1.186,0,0,0,.112.614c.012.024.029.043.042.066s-.012.043-.012.063a3.975,3.975,0,0,0,.026.5,1.93,1.93,0,0,0,.121.384,1.169,1.169,0,0,0,.364.468.752.752,0,0,0,.31.216c.061.035.123.067.186.1l.064.029a3.646,3.646,0,0,0,.912.239,3.875,3.875,0,0,0,.921-.007,3.6,3.6,0,0,0,.9-.245l.307-.2a1.077,1.077,0,0,0,.333-.435.716.716,0,0,0,.127-.352A1.1,1.1,0,0,0,655.493,630.819Z" transform="translate(-15.058 -14.282)" fill="#f1ad00"/>
    <path id="Trazado_14505" data-name="Trazado 14505" d="M660.946,635.651a2.6,2.6,0,0,0-.443-.948,2.354,2.354,0,0,0-.487-.47,2.2,2.2,0,0,0-.587-.311,2.031,2.031,0,0,0-.663-.125,1.528,1.528,0,0,0-.685.121,1.427,1.427,0,0,0-.13.071l-.06-.015a2.247,2.247,0,0,0-1.033-.078l-.366.121-.321.206a1.474,1.474,0,0,0-.479.819,1.487,1.487,0,0,0,.037.777,1.464,1.464,0,0,0,.549.761,2.308,2.308,0,0,0,.931.357l.3.065.634.136.607.13a3.69,3.69,0,0,0,.636.109,1.461,1.461,0,0,0,1.19-.478A1.389,1.389,0,0,0,660.946,635.651Z" transform="translate(-15.481 -14.727)" fill="#f1ad00"/>
    <g id="Grupo_5439" data-name="Grupo 5439" transform="translate(503.14 535.656)">
      <path id="Trazado_14506" data-name="Trazado 14506" d="M519.141,562.586a31.388,31.388,0,0,1-1.44-4.561A43.869,43.869,0,0,1,517,553.4c-.037-.309-.563-.29-.554.028a20.837,20.837,0,0,0,.817,5.085c-.265-.183-.532-.362-.778-.57a10.684,10.684,0,0,1-1.109-1.146c-.327-.373-.666-.723-1.019-1.057l.006-.008a12.318,12.318,0,0,0,.055-4.471c-.084-.765-.18-1.53-.271-2.295a19.076,19.076,0,0,0-.321-2.47c-.042-.163-.312-.173-.313.016a16.508,16.508,0,0,0,.237,2.167c.093.765.189,1.529.28,2.294a26.093,26.093,0,0,1,.137,4.6c-.245-.223-.489-.447-.756-.651-.682-.521-1.387-1.013-2.055-1.554a9.872,9.872,0,0,1-1.029-.935c-.3-.325-.521-.713-.815-1.039a.272.272,0,0,0-.451.291,5.323,5.323,0,0,0,1.728,1.909c.726.574,1.522,1.05,2.269,1.6a14.52,14.52,0,0,1,2.173,2.037,6.048,6.048,0,0,0,2.161,1.721,28.182,28.182,0,0,0,1.447,3.781C518.927,562.933,519.222,562.788,519.141,562.586Z" transform="translate(-505.928 -542.814)" fill="#36511d"/>
      <path id="Trazado_14507" data-name="Trazado 14507" d="M517.727,546.006c.385-.612.515-1.253-.259-1.716-.335-.2-.858-.057-1.079-.381a1.19,1.19,0,0,1-.125-.456c-.371-1.877-2.057-.571-2.84-.016-.424.3-1.688.456-1.956.79-.4.5.031,1.066-.214,1.6-.121.262-.394.418-.554.657a.929.929,0,0,0,.427,1.326c.622.231,1.444-.236,1.926.22a2.462,2.462,0,0,1,.349.569,1.473,1.473,0,0,0,2.089.385,4.65,4.65,0,0,0,.907-1.366C516.6,547.291,517.312,546.666,517.727,546.006Z" transform="translate(-506.06 -542.476)" fill="#cf6641"/>
      <path id="Trazado_14508" data-name="Trazado 14508" d="M519.349,552.81c-.99-1.942-4.227-.792-4.96.79a2.6,2.6,0,0,0,.2,2.558,2.416,2.416,0,0,0,2.024.991,2.305,2.305,0,0,0,2.289-2.392,1.959,1.959,0,0,0,.5-.743A1.565,1.565,0,0,0,519.349,552.81Z" transform="translate(-506.37 -543.283)" fill="#b14e2a"/>
      <path id="Trazado_14509" data-name="Trazado 14509" d="M511.255,549.679a2.186,2.186,0,0,0-1.157-.583,3.709,3.709,0,0,0-2.349.542c-1.547.861-3.123,3.083-1.291,4.415,1.848,1.343,3.445-.544,4.656-1.78a2.055,2.055,0,0,0,.646-1.6A1.635,1.635,0,0,0,511.255,549.679Z" transform="translate(-505.633 -543.047)" fill="#f1ad00"/>
    </g>
    <path id="Trazado_14510" data-name="Trazado 14510" d="M521.123,560.526c-2.027-.192-4.034-.577-6.057-.784-.531,1.555.093,3.95.35,5.2.722,3.535,2.926,6.194,6.859,4.92,3.7-1.2,5.073-5.871,5.293-9.32.005-.077,0-.156,0-.234A29.126,29.126,0,0,1,521.123,560.526Z" transform="translate(-3.292 -8.315)" fill="#fff"/>
    <path id="Trazado_14511" data-name="Trazado 14511" d="M623.146,706.037l-.321,5.953,30.213,2.688.263-5.727Z" transform="translate(-12.64 -20.981)" fill="#7138be"/>
  </g>
</svg>
