<svg xmlns="http://www.w3.org/2000/svg" width="209.988" height="281.692" viewBox="0 0 209.988 281.692">
  <g id="Grupo_6554" data-name="Grupo 6554" transform="translate(-404.487 -56.09)">
    <path id="Trazado_22014" data-name="Trazado 22014" d="M453.721,96.314c-13.16,4.585-25.071,15.442-28.463,29.217-5.389,21.889,10.4,44.631.744,65.916-3.313,7.3-10.221,11.28-15.04,17.484-3.437,4.423-6.03,9.677-6.42,15.265-1.092,15.7,14.09,32.8,27.359,39.442,19.1,9.564,44.973,8.656,64.889,2.345,10.445-3.311,19.928-9.831,30.97-11.177,9.37-1.142,17.883,2.333,26.791,4.484,17.506,4.225,40.352,3.578,51.525-12.843,4.749-6.98,6.6-15.606,6.7-24.05a104.9,104.9,0,0,0-7.205-38.91c-4.332-10.914-10.949-21.273-13.087-32.959-2.315-12.647.016-25.663.556-38.356.619-14.614-1.268-30.9-14.084-40.065-16.027-11.466-41.32-6.313-56.993,2.8-10.292,5.986-19.39,13.4-31.307,15.818-11.806,2.393-24.139,1.506-35.714,5.177C454.536,96.035,454.126,96.172,453.721,96.314Z" transform="translate(0 9.226)" fill="#f8f3ff"/>
    <g id="Grupo_6536" data-name="Grupo 6536" transform="translate(537.294 71.227)">
      <g id="Grupo_6528" data-name="Grupo 6528" transform="translate(59.371 88.293)">
        <g id="Grupo_6527" data-name="Grupo 6527" transform="translate(0 30.941)">
          <path id="Trazado_22015" data-name="Trazado 22015" d="M505.979,143.374l-3.091,1.247h0a2.88,2.88,0,0,1,1.8-3.319l2.743-1.027.924-.916.34,3.253Z" transform="translate(-500.404 -108.945)" fill="#962e09"/>
          <g id="Grupo_6525" data-name="Grupo 6525" transform="translate(0 22.457)">
            <path id="Trazado_22016" data-name="Trazado 22016" d="M512.224,139.507l-5.672,2.106-4.953-1.569s.815-1.779,1.967-1.462a21.148,21.148,0,0,0,3.584.388L511,136.725Z" transform="translate(-501.599 -133.98)" fill="#792304"/>
            <path id="Trazado_22017" data-name="Trazado 22017" d="M511.1,137.127l-4.87,1.8-3.94-1.8s.855-1.391,1.775-1.011A17.8,17.8,0,0,0,507,136.8l3.408-1.466Z" transform="translate(-500.919 -135.338)" fill="#ff7e46"/>
            <path id="Trazado_22018" data-name="Trazado 22018" d="M512.229,138.033l-5.846,2.167-4.728-2.157s1.027-1.668,2.131-1.213a21.353,21.353,0,0,0,3.511.817l4.089-1.761Z" transform="translate(-501.543 -134.802)" fill="#792304"/>
          </g>
          <g id="Grupo_6526" data-name="Grupo 6526" transform="translate(3.053)">
            <path id="Trazado_22019" data-name="Trazado 22019" d="M503.9,144.763c-.018,1.4.517,3.738.137,5.08-.677,2.395-1.5,5.749-.237,6.148,1.726.548,2.913-5.276,3-5.513a1.29,1.29,0,0,1,1.619-.754h0a.755.755,0,0,1,.513.736l-.37,2.614-.522,1.33.34,3.253s2.468-1.8,2.78-2.575c.885-2.2,2.806-5.193,2.357-7.027-.206-.839-2.858-8.254-2.858-8.254l.287-12.188a3.538,3.538,0,0,0-4.694-3.426h0l-1.078,11.755a7.368,7.368,0,0,1-.354,3.72A15.271,15.271,0,0,0,503.9,144.763Z" transform="translate(-503.142 -123.99)" fill="#962e09"/>
            <path id="Trazado_22020" data-name="Trazado 22020" d="M505,138.893a1.29,1.29,0,0,1,1.619-.754.755.755,0,0,1,.513.736l-.37,2.614s2.369-6.283-.077-5.616C505.724,136.135,504.9,139.131,505,138.893Z" transform="translate(-501.334 -112.406)" fill="#792304"/>
          </g>
        </g>
        <path id="Trazado_22021" data-name="Trazado 22021" d="M504.311,153.391l-.255-38.92,9.9-6.117s4.37,11.723,2.644,19.486c-2.056,9.248-6.833,27.266-6.833,27.266Z" transform="translate(-499.194 -108.355)" fill="#962e09"/>
      </g>
      <g id="Grupo_6529" data-name="Grupo 6529" transform="translate(12.367 216.813)">
        <path id="Trazado_22022" data-name="Trazado 22022" d="M493.255,178.986s-2.834,15.875-2.834,21.121,2.268,7.937,1.417,9.214-2.125,1.134-2.41,3.968-3.119,5.1-7.655,5.1-3.968-4.253-3.827-4.961,4.536-5.67,5.812-9.922-.851-25.942-.851-25.942S492.264,167.079,493.255,178.986Z" transform="translate(-477.847 -173.299)" fill="#962e09"/>
      </g>
      <path id="Trazado_22023" data-name="Trazado 22023" d="M507.03,115.34h-15.2s-19.76,4.1-17.749,40.77c.619,11.31,7.6,29.9,9.485,44.7-1.4,14.9,4.253,48.24,4.253,48.24l7.231.115c2.584-16.035,4.526-31.38,4.682-44.809l7.29-43.883,0,.022Z" transform="translate(-469.303 -13.225)" fill="#962e09"/>
      <g id="Grupo_6530" data-name="Grupo 6530" transform="translate(45.528 216.813)">
        <path id="Trazado_22024" data-name="Trazado 22024" d="M494.6,178.986s2.836,15.875,2.836,21.121-2.268,7.937-1.417,9.214,2.125,1.134,2.408,3.968,3.119,5.1,7.654,5.1,3.97-4.253,3.827-4.961-4.536-5.67-5.812-9.922.851-25.942.851-25.942S495.6,167.079,494.6,178.986Z" transform="translate(-494.604 -173.299)" fill="#962e09"/>
      </g>
      <path id="Trazado_22025" data-name="Trazado 22025" d="M489.575,115.34h15.2s19.748,3.061,17.264,42.019c-.72,11.3-7.11,28.651-9,43.451,1.4,14.9-4.251,48.24-4.251,48.24l-7.233.115c-2.584-16.035-4.526-31.38-4.682-44.809l-7.288-43.883-.006.022Z" transform="translate(-453.999 -13.225)" fill="#962e09"/>
      <path id="Trazado_22026" data-name="Trazado 22026" d="M526.631,123.03c-4.882-6.807-10.55-7.69-10.55-7.69H487.838s-5.074,1.057-9.815,6.865A170.982,170.982,0,0,0,526.631,123.03Z" transform="translate(-465.307 -13.225)" fill="#832307"/>
      <path id="Trazado_22027" data-name="Trazado 22027" d="M521.626,116.532a27.954,27.954,0,0,1-15.545,4.112c-7.239-.21-15.178-.643-21.56-4.4a23.406,23.406,0,0,0-7.273,7.134c11.628,5.739,20.043,15.208,26.543,26.11,2.561-9.525,19.314-23.618,25.435-24.4A22.977,22.977,0,0,0,521.626,116.532Z" transform="translate(-466.065 -12.335)" fill="#ffd54f"/>
      <circle id="Elipse_554" data-name="Elipse 554" cx="3.693" cy="3.693" r="3.693" transform="translate(24.974 29.931)" fill="#431202"/>
      <path id="Trazado_22028" data-name="Trazado 22028" d="M489.378,80.987a3.694,3.694,0,1,1-3.693-3.693A3.695,3.695,0,0,1,489.378,80.987Z" transform="translate(-461.423 -50.469)" fill="#431202"/>
      <circle id="Elipse_555" data-name="Elipse 555" cx="4.426" cy="4.426" r="4.426" transform="translate(44.215 9.942)" fill="#431202"/>
      <path id="Trazado_22029" data-name="Trazado 22029" d="M503.352,76.07a3.888,3.888,0,1,1-3.887-3.887A3.887,3.887,0,0,1,503.352,76.07Z" transform="translate(-448.123 -55.472)" fill="#431202"/>
      <path id="Trazado_22030" data-name="Trazado 22030" d="M502.281,78.688a3.887,3.887,0,1,1-3.887-3.887A3.887,3.887,0,0,1,502.281,78.688Z" transform="translate(-449.17 -52.909)" fill="#431202"/>
      <path id="Trazado_22031" data-name="Trazado 22031" d="M481.9,82.16c.665,8.412,7.494,14.733,15.255,14.12s13.68-7.941,12.851-16.338c-.9-9.107-6.667-13.027-14.361-11.832C487.2,69.422,481.237,73.75,481.9,82.16Z" transform="translate(-461.56 -59.665)" fill="#431202"/>
      <path id="Trazado_22032" data-name="Trazado 22032" d="M522.476,136.36c-.186-8.034-14.674-44.443-20.417-46.507,0,0-7.686,18.457-2.62,31.259s11.919,18,11.919,18C518.675,137.177,522.476,136.36,522.476,136.36Z" transform="translate(-446.033 -38.175)" fill="#962e09"/>
      <path id="Trazado_22033" data-name="Trazado 22033" d="M520.106,141.274a94.993,94.993,0,0,0,4.308-13.263s6.39-3.3,4.563-9.1a47.911,47.911,0,0,0-2.573-6.158,38.045,38.045,0,0,1-3.833-18.683c.038-.722.069-1.13.069-1.13s-12.455-6.477-20.523-6.228c-9.788.3-25.429,6.728-25.429,6.728a86.913,86.913,0,0,0,2.294,19.55s6.728,19.453,10.172,28.287Z" transform="translate(-466.615 -41.259)" fill="#962e09"/>
      <path id="Trazado_22034" data-name="Trazado 22034" d="M528.978,116.994a47.911,47.911,0,0,0-2.573-6.158,38.045,38.045,0,0,1-3.833-18.683c.038-.722.069-1.13.069-1.13s-2.1-1.094-5.141-2.365c-1.27,7.387-5.169,15.378-12.867,15.893C492,105.4,483.1,89.147,483.1,89.147c-3.778,1.3-6.408,2.377-6.408,2.377a86.913,86.913,0,0,0,2.294,19.55s5.084,14.7,8.676,24.347a327.249,327.249,0,0,0,34.075-.251c1.607-4.613,2.681-9.071,2.681-9.071S530.8,122.8,528.978,116.994Z" transform="translate(-466.615 -39.344)" fill="#ffd54f"/>
      <path id="Trazado_22035" data-name="Trazado 22035" d="M493.768,91.747s-1.324-2.428-2.361-2.048a54.278,54.278,0,0,1-5.741.948s4.835.034,5.683.649S494.108,92.3,493.768,91.747Z" transform="translate(-457.825 -38.365)" fill="#792304"/>
      <path id="Trazado_22036" data-name="Trazado 22036" d="M491.057,91.8s.926-2.606,2.009-2.395a46.619,46.619,0,0,0,4.888.2s-3.839.623-4.579,1.363S490.805,92.4,491.057,91.8Z" transform="translate(-452.571 -38.621)" fill="#792304"/>
      <g id="Grupo_6532" data-name="Grupo 6532" transform="translate(29.72 33.625)">
        <g id="Grupo_6531" data-name="Grupo 6531">
          <path id="Trazado_22037" data-name="Trazado 22037" d="M486.616,80.829l.457,16.916,11.087-.876L497,80.73Z" transform="translate(-486.616 -80.73)" fill="#962e09"/>
        </g>
      </g>
      <path id="Trazado_22038" data-name="Trazado 22038" d="M496.62,80.73,487,80.823a28.813,28.813,0,0,0,.493,3.8c3.152,7,6.507,8.43,10.031,8.719Z" transform="translate(-456.516 -47.105)" fill="#792304"/>
      <path id="Trazado_22039" data-name="Trazado 22039" d="M499.914,99.313h0c-5.395.164-14.167-6.214-14.333-11.61,0,0-1.162-8.224.281-10.821,2.5-4.51,13.286-5.266,17.6-4.637,6.616.964,5.78,13.184,5.78,13.184C510.04,95.472,502.275,99.24,499.914,99.313Z" transform="translate(-458.342 -55.6)" fill="#962e09"/>
      <path id="Trazado_22040" data-name="Trazado 22040" d="M483.48,81.058c.184,2.311,2.4,4.136,5.183,4.061l-.287-8.395C485.591,76.8,483.149,76.908,483.48,81.058Z" transform="translate(-459.995 -51.027)" fill="#962e09"/>
      <path id="Trazado_22041" data-name="Trazado 22041" d="M485.316,78.294a.31.31,0,0,0-.574-.17,1.839,1.839,0,0,0-.146,1.8c.461,1.049,1.364,2.058,1.753,1.607s-.034-.336-.712-1.688A3.3,3.3,0,0,1,485.316,78.294Z" transform="translate(-459.04 -49.802)" fill="#792304"/>
      <path id="Trazado_22042" data-name="Trazado 22042" d="M487.359,72.593c3.94-1.577,18.774-2.274,18.774-2.274a21.816,21.816,0,0,1-8.5,8.905,26.572,26.572,0,0,1-5.812,2.4,5.571,5.571,0,0,0-3.962,4.5h0l-.123-.526a3.1,3.1,0,0,0-3.418-2.357h0a23.916,23.916,0,0,1,.329-6.509C485.061,74.878,485.86,73.192,487.359,72.593Z" transform="translate(-459.231 -57.297)" fill="#431202"/>
      <path id="Trazado_22043" data-name="Trazado 22043" d="M496.964,78.834c.053.673-.3,1.251-.79,1.29s-.928-.477-.982-1.15" transform="translate(-448.499 -48.961)" fill="none" stroke="#28121e" stroke-miterlimit="10" stroke-width="0.595"/>
      <path id="Trazado_22044" data-name="Trazado 22044" d="M492.568,79c.053.673-.3,1.251-.79,1.29s-.928-.477-.982-1.15" transform="translate(-452.802 -48.795)" fill="none" stroke="#28121e" stroke-miterlimit="10" stroke-width="0.595"/>
      <path id="Trazado_22045" data-name="Trazado 22045" d="M489.471,78.158a6.435,6.435,0,0,1,5.98-.471" transform="translate(-454.101 -50.636)" fill="none" stroke="#792304" stroke-miterlimit="10" stroke-width="0.679"/>
      <path id="Trazado_22046" data-name="Trazado 22046" d="M500.382,77.329a5.435,5.435,0,0,0-2.85-.548,4.12,4.12,0,0,0-3.807,5.1,4.269,4.269,0,0,0,.208.574c1.035,2.3,1.894,2.966.184,3.315" transform="translate(-450.077 -50.987)" fill="none" stroke="#792304" stroke-miterlimit="10" stroke-width="0.679"/>
      <path id="Trazado_22047" data-name="Trazado 22047" d="M481.794,89.966s7.383,16.336,5.517,34.586c-1,9.758-2.784,23.688-9.54,16.209C470.134,132.305,467.631,96.057,481.794,89.966Z" transform="translate(-471.597 -38.064)" fill="#962e09"/>
      <g id="Grupo_6533" data-name="Grupo 6533" transform="translate(19.288 79.566)">
        <path id="Trazado_22048" data-name="Trazado 22048" d="M492.523,112.59c-9.02,0-11.122-7.292-11.143-7.377a1,1,0,0,1,1.935-.528c.1.344,2.406,7.995,13.6,5.339a1,1,0,1,1,.463,1.953A21,21,0,0,1,492.523,112.59Z" transform="translate(-481.344 -103.946)" fill="#e8bc42"/>
      </g>
      <g id="Grupo_6534" data-name="Grupo 6534" transform="translate(44.987 85.031)">
        <path id="Trazado_22049" data-name="Trazado 22049" d="M501.9,110.614a13.244,13.244,0,0,1-7.148-2.084,1,1,0,0,1,1.154-1.643,11.3,11.3,0,0,0,10.813.629,1,1,0,0,1,.841,1.825A13.452,13.452,0,0,1,501.9,110.614Z" transform="translate(-494.331 -106.707)" fill="#e8bc42"/>
      </g>
      <path id="Trazado_22050" data-name="Trazado 22050" d="M493.6,69.718a3.08,3.08,0,1,1-3.079-3.081A3.08,3.08,0,0,1,493.6,69.718Z" transform="translate(-456.091 -60.901)" fill="#431202"/>
      <path id="Trazado_22051" data-name="Trazado 22051" d="M492.2,70.6a3.718,3.718,0,1,1-3.718-3.718A3.719,3.719,0,0,1,492.2,70.6Z" transform="translate(-458.705 -60.66)" fill="#431202"/>
      <circle id="Elipse_556" data-name="Elipse 556" cx="4.969" cy="4.969" r="4.969" transform="translate(17.706 3.318)" fill="#431202"/>
      <circle id="Elipse_557" data-name="Elipse 557" cx="5.175" cy="5.175" r="5.175" transform="translate(14.334 9.636)" fill="#431202"/>
      <path id="Trazado_22052" data-name="Trazado 22052" d="M488.88,76.893a5.217,5.217,0,1,1-5.218-5.216A5.219,5.219,0,0,1,488.88,76.893Z" transform="translate(-464.894 -55.968)" fill="#431202"/>
      <path id="Trazado_22053" data-name="Trazado 22053" d="M488.823,79a4.419,4.419,0,1,1-4.419-4.419A4.418,4.418,0,0,1,488.823,79Z" transform="translate(-463.387 -53.122)" fill="#431202"/>
      <path id="Trazado_22054" data-name="Trazado 22054" d="M493.011,68.561a4.535,4.535,0,1,1-4.536-4.536A4.535,4.535,0,0,1,493.011,68.561Z" transform="translate(-459.513 -63.458)" fill="#431202"/>
      <circle id="Elipse_558" data-name="Elipse 558" cx="5.368" cy="5.368" r="5.368" transform="translate(30.209)" fill="#431202"/>
      <circle id="Elipse_559" data-name="Elipse 559" cx="6.174" cy="6.174" r="6.174" transform="translate(36.616 2.905)" fill="#431202"/>
      <path id="Trazado_22055" data-name="Trazado 22055" d="M497.8,73.21a2.511,2.511,0,1,1-2.511-2.513A2.511,2.511,0,0,1,497.8,73.21Z" transform="translate(-450.859 -56.927)" fill="#431202"/>
      <path id="Trazado_22056" data-name="Trazado 22056" d="M496.99,74.935a3.435,3.435,0,1,1-3.435-3.435A3.436,3.436,0,0,1,496.99,74.935Z" transform="translate(-453.466 -56.141)" fill="#431202"/>
      <path id="Trazado_22057" data-name="Trazado 22057" d="M494.668,75.75a3.435,3.435,0,1,1-3.435-3.435A3.436,3.436,0,0,1,494.668,75.75Z" transform="translate(-455.739 -55.343)" fill="#431202"/>
      <path id="Trazado_22058" data-name="Trazado 22058" d="M491.4,82.573a2.738,2.738,0,0,0,5.476,0Z" transform="translate(-452.214 -45.301)" fill="#fff"/>
      <g id="Grupo_6535" data-name="Grupo 6535" transform="translate(42.789 93.086)">
        <path id="Trazado_22059" data-name="Trazado 22059" d="M504.771,122.472l-1.445-.422-10.106-2.681,1.079-5.9,4.243-.554s7.779-2.325,8.124-2.131l3.235,1.069a.585.585,0,0,1-.083,1.059,2.111,2.111,0,0,1-1.785.172l-.7-.224-1.914.623,4.841.459,2.139.524a2.524,2.524,0,0,1,1.35.914.935.935,0,0,1,.1.431.466.466,0,0,1-.273.3,2.614,2.614,0,0,1-1.656.1l-1.91-.471-3.245-.338c-.847.04-.279.293-.077.323l3.784.528,2.864.788a2.515,2.515,0,0,1,1.348.916l.024.03a.46.46,0,0,1-.2.7l-.034.014a2.543,2.543,0,0,1-1.621.089l-2.634-.734-4.518-.277c-.8.065-.4.378-.036.408l2.921.243,2.9.627a2.522,2.522,0,0,1,1.4.837l.026.03a.461.461,0,0,1-.158.714l-.034.016a2.531,2.531,0,0,1-1.613.178l-2.67-.586-3.639-.139a.122.122,0,0,0-.063.228l.358.2,2.885.637,2.127-.121a1.275,1.275,0,0,1,1.263.966.392.392,0,0,1-.38.513l-2.873.325Z" transform="translate(-493.22 -110.777)" fill="#962e09"/>
      </g>
      <path id="Trazado_22060" data-name="Trazado 22060" d="M517.127,114.519s-28.227-4.668-33.749-4.356c-11.185.635-12.242,10.6-3.754,13.75,5.774,2.145,9.271.853,9.271.853l24.365-3.716c1.417.03,4.1-.285,4.1-.285S518.665,118.873,517.127,114.519Z" transform="translate(-469.232 -18.307)" fill="#962e09"/>
    </g>
    <g id="Grupo_6547" data-name="Grupo 6547" transform="translate(415.517 56.089)">
      <path id="Trazado_22061" data-name="Trazado 22061" d="M423.9,137.49s-.212,28.57,1.694,39.786,3.174,12.911,3.174,12.911.635,19.047,2.539,36.189,2.751,26.243,2.751,26.243-13.544,9.946-15.659,11-8.042,0-8.254,1.692-.635,5.5,7.831,5.08,20.1-.847,24.76-1.27,7.619-.633,8.466-4.231-1.482-8.678-2.753-9.948,8.889-37.247,8.889-46.346-6.348-19.894-6.348-19.894,7.831-31.532,9.946-42.96-21.163-25.4-27.513-21.163S424.322,136.431,423.9,137.49Z" transform="translate(-410.061 10.201)" fill="#ff926d"/>
      <path id="Trazado_22062" data-name="Trazado 22062" d="M418.638,119.76s-1.429,11.587-1.429,17.3-.477,17.3-.477,17.3,5.017,1.825,16.825,3.333c14.921,1.9,21.111,1.745,21.111,1.745s3.649-31.267-3.334-34.76S418.638,119.76,418.638,119.76Z" transform="translate(-403.53 6.239)" fill="#ba68c8"/>
      <path id="Trazado_22063" data-name="Trazado 22063" d="M432.132,132.857s3.386,28.886,8.889,43.065,7.619,19.047,7.619,19.047,15.236,26.771,20.1,35.449a143.283,143.283,0,0,1,7.2,14.391s-6.137,15.873-6.984,16.508-8.466.212-8.466,2.115,1.27,5.08,6.772,4.656a33.184,33.184,0,0,0,7.831-1.27s8.889-6.348,11.64-8.887c2.434-2.248,9.946-6.139,8.254-11.428a13.221,13.221,0,0,0-5.715-7.407s-4.866-37.671-9.523-45.5-9.311-10.793-9.311-10.793,3.809-41.9,1.692-50.368S433.826,127.141,432.132,132.857Z" transform="translate(-388.454 13.565)" fill="#ff926d"/>
      <path id="Trazado_22064" data-name="Trazado 22064" d="M430.528,136.852s2.857,19.364,3.651,21.744,1.587,4.128,1.587,4.128a112.424,112.424,0,0,0,22.7-2.064c11.747-2.381,17.937-5.555,17.937-5.555s.317-16.35-1.747-25.079a67.277,67.277,0,0,0-5.4-14.919S442.273,138.123,430.528,136.852Z" transform="translate(-390.025 1.685)" fill="#ba68c8"/>
      <path id="Trazado_22065" data-name="Trazado 22065" d="M448.341,79.255c-.475,0-15.4,6.509-22.855,14.6s-9.206,19.524-9.525,28.411a100.415,100.415,0,0,0,.635,15.715s23.967-9.048,32.379-24.921S448.341,79.255,448.341,79.255Z" transform="translate(-404.347 -33.412)" fill="#ff926d"/>
      <path id="Trazado_22066" data-name="Trazado 22066" d="M448.59,75.718s-.317,8.094-.952,8.729-17.618,13.809-20.476,22.38-1.11,12.7-1.11,12.7-10.158,14.919-11.112,28.57,4.128,27.46,25.714,31.9,36.03-6.19,42.537-13.967,7.937-21.111,7.779-25.4,12.707-35.714,4.761-43.333c-7.7-7.381-27.3-12.064-27.3-12.064l-.475-10.316S454.464,80.321,448.59,75.718Z" transform="translate(-405.389 -37.652)" fill="#ff926d"/>
      <path id="Trazado_22067" data-name="Trazado 22067" d="M435.33,81.419a25.5,25.5,0,0,0,11.715.918,17.581,17.581,0,0,0,4.571-1.641l.038-.02-.265-5.753s-13.492,5.4-19.366.794c0,0-.089,2.276-.267,4.508C432.935,80.661,434.121,81.074,435.33,81.419Z" transform="translate(-388.822 -37.652)" fill="#c1b1b3" style="mix-blend-mode: multiply;isolation: isolate"/>
      <path id="Trazado_22068" data-name="Trazado 22068" d="M434.355,61.518s-9.164,17.139-8.147,24.1,12.9,12.218,24.608,11.709S466.766,82.56,467.106,79s-1.506-14.785-8.464-18.178S437.409,57.445,434.355,61.518Z" transform="translate(-394.331 -53.864)" fill="#ff926d"/>
      <path id="Trazado_22069" data-name="Trazado 22069" d="M446.817,70.339s3.053-1.7,5.769.17,0,6.958-3.053,6.788a6.389,6.389,0,0,1-4.583-2.206Z" transform="translate(-375.907 -42.831)" fill="#ff926d"/>
      <path id="Trazado_22070" data-name="Trazado 22070" d="M493.864,123.688c-5.163.467-10.4-2.838-15.275-11.535-6.289-11.213-1.862-25.829-.514-29.668-1.427-.493-2.78-.926-4-1.3-.792,2.666-1.1,7.209-5.964,10.914-4.486,3.414-15.184,8.941-23.755,2.751s-1.27-14.179-1.27-14.179l-2.7,1.34c-3.817,4.411-11.1,12.81-13.223,19.188-2.856,8.573-1.11,12.7-1.11,12.7s-10.158,14.919-11.112,28.57,4.128,27.46,25.714,31.9,36.03-6.19,42.537-13.967,8.784-18.307,8.624-22.591C491.764,136.395,493.086,131.675,493.864,123.688Z" transform="translate(-405.389 -32.025)" fill="#fadee1"/>
      <path id="Trazado_22071" data-name="Trazado 22071" d="M480.775,168.151c-2.693,9.827-4.013,12.121-4.013,12.121a34.805,34.805,0,0,1-.2,8.745c-.736,4.488-1.373,5.1-2.594,6.269a5.671,5.671,0,0,1-1.6,1.181,1.431,1.431,0,0,1-.261.091,4.3,4.3,0,0,1-.491.928l-.016.024a1.237,1.237,0,0,1-.72.515c-.584.091-.875-.061-1.027-.247a.765.765,0,0,1-.162-.459s-.053.077-.152.208l-.008.006c-.368.485-1.312,1.581-2.064,1.365a1.408,1.408,0,0,1-.837-1.181,3.7,3.7,0,0,1-.075-.7v-.093a1.961,1.961,0,0,1-.989.629,1.379,1.379,0,0,1-1.544-1.872c.384-1.726,1.474-5.47,1.973-8.2a19.193,19.193,0,0,0,.451-3.835,2.229,2.229,0,0,0-1.488,2.139c-.069,1.749-.7,5.117-1.6,3.1s-2.478-5.125-1.5-7.872a27.453,27.453,0,0,1,3.515-6.054l-.453-34.944S450.48,111.488,447.9,101.123s6.928-23.858,18.665-11.407,16.572,45.9,16.678,48.124S483.468,158.323,480.775,168.151Z" transform="translate(-373.433 -28.061)" fill="#ff926d"/>
      <g id="Grupo_6537" data-name="Grupo 6537" transform="translate(22.703 82.069)" style="mix-blend-mode: multiply;isolation: isolate">
        <path id="Trazado_22072" data-name="Trazado 22072" d="M421.709,98.06a72.157,72.157,0,0,0,8.311,1.739q2.078.309,4.174.509c1.318.129,3.01.53,4.28.075a.218.218,0,0,0,.018-.416c-1.158-.524-2.693-.342-3.944-.433q-2.093-.154-4.18-.416a77.421,77.421,0,0,1-8.5-1.549c-.321-.077-.481.4-.158.491Z" transform="translate(-421.533 -97.561)" fill="#d7cdce"/>
      </g>
      <g id="Grupo_6538" data-name="Grupo 6538" transform="translate(43.683 84.505)" style="mix-blend-mode: multiply;isolation: isolate">
        <path id="Trazado_22073" data-name="Trazado 22073" d="M432.475,99.5l1.294.038c.212.006.422.008.635,0l.3-.01a1.135,1.135,0,0,0,.362-.083.205.205,0,0,0,.016-.392,1.125,1.125,0,0,0-.329-.109c-.109-.014-.22-.024-.328-.038-.212-.024-.422-.038-.635-.049l-1.292-.065a.354.354,0,1,0-.028.706Z" transform="translate(-432.135 -98.792)" fill="#d7cdce"/>
      </g>
      <g id="Grupo_6539" data-name="Grupo 6539" transform="translate(53.479 85.56)" style="mix-blend-mode: multiply;isolation: isolate">
        <path id="Trazado_22074" data-name="Trazado 22074" d="M437.335,99.917c2.974.251,5.913.794,8.9.972a29.072,29.072,0,0,0,4.413-.032c1.065-.1,2.757-.129,3.483-1.019a.312.312,0,0,0-.168-.463,3.588,3.588,0,0,0-1.648.17,16.656,16.656,0,0,1-2.143.319,30.965,30.965,0,0,1-4.306.008c-2.842-.162-5.656-.487-8.505-.495a.271.271,0,0,0-.022.54Z" transform="translate(-437.085 -99.325)" fill="#d7cdce"/>
      </g>
      <path id="Trazado_22075" data-name="Trazado 22075" d="M464.573,65.9a2.747,2.747,0,0,0-2.6.235,14.13,14.13,0,0,0-9.3-9.182,17.73,17.73,0,0,0-4.282-.817c-3.123-.184-6.625.1-9.408,1.706a22.636,22.636,0,0,0-8.054,7.749,27.8,27.8,0,0,0-3.962,10.53,52.6,52.6,0,0,1,12.889-7.643A53.783,53.783,0,0,1,449.894,66a29.069,29.069,0,0,1,6.123-.243c-4.009,2.1-5.385,3.321-6.835,6.73,1.476-.475,2.824-1.393,4.344-1.846a23.788,23.788,0,0,1,4-.989c.958-.107,1.931-.04,2.9-.061a27.39,27.39,0,0,0-.372,4.011,24.282,24.282,0,0,0,3.968,13.571s3.1-3.414,3.651-11.587C467.965,71.212,466.954,66.617,464.573,65.9Z" transform="translate(-393.515 -56.089)" fill="#bb5a38"/>
      <g id="Grupo_6540" data-name="Grupo 6540" transform="translate(93.119 158.436)" style="mix-blend-mode: multiply;isolation: isolate">
        <path id="Trazado_22076" data-name="Trazado 22076" d="M460.613,137.689c-.168.629-.352,1.259-.544,1.888-.445,1.411-.944,2.808-1.456,4.2-.453,1.205-.922,2.41-1.421,3.6a3.7,3.7,0,0,1-.075-.7c.414-1.043.819-2.088,1.2-3.139.507-1.358.982-2.731,1.413-4.12.176-.582.352-1.166.5-1.755a6.682,6.682,0,0,1,.406-1.451.107.107,0,0,1,.192.024A3.8,3.8,0,0,1,460.613,137.689Z" transform="translate(-457.116 -136.151)" fill="#c1b1b3"/>
      </g>
      <g id="Grupo_6541" data-name="Grupo 6541" transform="translate(96.103 158.716)" style="mix-blend-mode: multiply;isolation: isolate">
        <path id="Trazado_22077" data-name="Trazado 22077" d="M462.313,136.43a10.566,10.566,0,0,1-.651,2.9c-.224.8-.453,1.579-.7,2.369-.376,1.221-.768,2.432-1.219,3.637-.245.651-.507,1.312-.805,1.955a.765.765,0,0,1-.162-.459s-.053.077-.152.208c.267-.637.507-1.29.736-1.933.414-1.168.782-2.349,1.136-3.538.237-.819.467-1.648.7-2.47a11.828,11.828,0,0,1,.861-2.739A.139.139,0,0,1,462.313,136.43Z" transform="translate(-458.624 -136.292)" fill="#c1b1b3"/>
      </g>
      <g id="Grupo_6542" data-name="Grupo 6542" transform="translate(98.181 158.939)" style="mix-blend-mode: multiply;isolation: isolate">
        <path id="Trazado_22078" data-name="Trazado 22078" d="M462.636,139.842c-.277.958-.576,1.918-.914,2.854-.39,1.073-.819,2.131-1.3,3.176a1.431,1.431,0,0,1-.261.091,4.3,4.3,0,0,1-.491.928c.607-1.411,1.173-2.854,1.7-4.3.331-.9.606-1.833.851-2.769a17.119,17.119,0,0,0,.384-1.765,11.072,11.072,0,0,1,.269-1.573.115.115,0,0,1,.222,0C463.41,137.509,462.911,138.859,462.636,139.842Z" transform="translate(-459.674 -136.405)" fill="#c1b1b3"/>
      </g>
      <g id="Grupo_6543" data-name="Grupo 6543" transform="translate(21.406 200.336)" style="mix-blend-mode: multiply;isolation: isolate">
        <path id="Trazado_22079" data-name="Trazado 22079" d="M421.06,158.22a7.322,7.322,0,0,0,3.952,1.011,6.2,6.2,0,0,0,3.716-1.462.26.26,0,0,0-.251-.431,12.838,12.838,0,0,1-3.465,1.017,6.809,6.809,0,0,1-3.582-.766c-.418-.21-.786.4-.37.631Z" transform="translate(-420.878 -157.324)" fill="#c1b1b3"/>
      </g>
      <g id="Grupo_6544" data-name="Grupo 6544" transform="translate(61.729 199.913)" style="mix-blend-mode: multiply;isolation: isolate">
        <path id="Trazado_22080" data-name="Trazado 22080" d="M441.359,157.733a9.168,9.168,0,0,0,4.941,2.373c1.72.218,3.794-.273,4.722-1.874a.236.236,0,0,0-.321-.321,8.623,8.623,0,0,1-2.175,1.1,5.444,5.444,0,0,1-2.288.135,11.078,11.078,0,0,1-4.443-1.981c-.338-.23-.736.291-.437.566Z" transform="translate(-441.254 -157.11)" fill="#c1b1b3"/>
      </g>
      <g id="Grupo_6545" data-name="Grupo 6545" transform="translate(29.631 262.189)" style="mix-blend-mode: multiply;isolation: isolate">
        <path id="Trazado_22081" data-name="Trazado 22081" d="M425.535,192.447a3,3,0,0,0,1.8-1.356,4.352,4.352,0,0,0,.489-1.053,5.108,5.108,0,0,0,.135-.518,2.48,2.48,0,0,0,.008-.629.315.315,0,0,0-.582-.156c-.079.152-.178.3-.247.455s-.127.344-.194.514c-.032.079.008-.018-.012.03l-.055.123c-.026.057-.049.117-.073.176-.042.107.022-.046-.02.049a4.819,4.819,0,0,1-.228.451,4.139,4.139,0,0,1-.259.4c-.01.012-.081.109-.051.071s-.038.046-.044.053c-.053.063-.111.125-.17.184s-.111.1-.17.152c-.024.02-.022.018.006,0l-.051.038c-.028.02-.057.04-.085.057a1.745,1.745,0,0,1-.4.2.406.406,0,0,0-.277.487.4.4,0,0,0,.487.275Z" transform="translate(-425.034 -188.58)" fill="#c1b1b3"/>
      </g>
      <g id="Grupo_6546" data-name="Grupo 6546" transform="translate(95.001 253.713)" style="mix-blend-mode: multiply;isolation: isolate">
        <path id="Trazado_22082" data-name="Trazado 22082" d="M458.783,189.571a3.886,3.886,0,0,0,.871-2.466,11.177,11.177,0,0,0-.069-1.286,7.392,7.392,0,0,0-.249-1.363.223.223,0,0,0-.427,0,5.707,5.707,0,0,0-.164,1.245c-.024.4-.02.809-.047,1.213a4.583,4.583,0,0,1-.572,2.151c-.245.4.352.881.659.507Z" transform="translate(-458.067 -184.297)" fill="#c1b1b3"/>
      </g>
    </g>
    <g id="Grupo_6553" data-name="Grupo 6553" transform="translate(455.84 69.361)">
      <g id="Grupo_6548" data-name="Grupo 6548" transform="translate(0.593 5.054)">
        <path id="Trazado_22083" data-name="Trazado 22083" d="M430.931,66.419a1.453,1.453,0,0,0,.4,1.965c.592.271,1.373-.172,1.745-.987a1.455,1.455,0,0,0-.4-1.967C432.085,65.158,431.3,65.6,430.931,66.419Z" transform="translate(-430.737 -65.35)" fill="#28121e"/>
      </g>
      <g id="Grupo_6549" data-name="Grupo 6549" transform="translate(11.729 9.305)">
        <path id="Trazado_22084" data-name="Trazado 22084" d="M436.558,68.565a1.455,1.455,0,0,0,.4,1.967c.592.269,1.373-.172,1.745-.989a1.453,1.453,0,0,0-.4-1.965C437.712,67.306,436.93,67.75,436.558,68.565Z" transform="translate(-436.364 -67.498)" fill="#28121e"/>
      </g>
      <g id="Grupo_6550" data-name="Grupo 6550" transform="translate(10.846 4.942)">
        <path id="Trazado_22085" data-name="Trazado 22085" d="M442.583,69.981c-.024-.034-2.584-3.41-6.475-2.968l-.19-1.666c4.866-.56,7.89,3.465,8.015,3.639Z" transform="translate(-435.918 -65.293)" fill="#ff7454"/>
      </g>
      <g id="Grupo_6551" data-name="Grupo 6551">
        <path id="Trazado_22086" data-name="Trazado 22086" d="M434.08,77.759a2.367,2.367,0,0,1-1.34-1.631c-.089-.883.578-1.5,1.587-2.442.382-.354.829-.77,1.322-1.276a4.939,4.939,0,0,0,.439-.528,4.25,4.25,0,0,0,.637-3.649,4.876,4.876,0,0,0-2.735-3.176,6.316,6.316,0,0,0-3.364-.542l-.19-1.666a8.021,8.021,0,0,1,4.241.677,6.548,6.548,0,0,1,3.667,4.269,5.985,5.985,0,0,1-.893,5.066,6.273,6.273,0,0,1-.6.718c-.514.53-.984.968-1.383,1.338a7.879,7.879,0,0,0-1.041,1.071c.071,0,.192.137.526.342Z" transform="translate(-430.437 -62.796)" fill="#ff7454"/>
      </g>
      <g id="Grupo_6552" data-name="Grupo 6552" transform="translate(0.107 17.474)">
        <path id="Trazado_22087" data-name="Trazado 22087" d="M433.311,75.022a4.86,4.86,0,0,1-2.82-2.717l1.534-.679a3.2,3.2,0,0,0,3.509,1.987l.311,1.648A4.97,4.97,0,0,1,433.311,75.022Z" transform="translate(-430.491 -71.626)" fill="#ff7454"/>
      </g>
    </g>
  </g>
</svg>
