<svg xmlns="http://www.w3.org/2000/svg" width="174" height="180" viewBox="0 0 174 180">
  <g id="Grupo_9853" data-name="Grupo 9853" transform="translate(-233 -1251)">
    <rect id="Rect치ngulo_2668" data-name="Rect치ngulo 2668" width="174" height="180" transform="translate(233 1251)" fill="#fff"/>
    <g id="Grupo_9851" data-name="Grupo 9851" transform="translate(3.883 3.862)">
      <g id="Grupo_9820" data-name="Grupo 9820" transform="matrix(0.921, 0.391, -0.391, 0.921, 274.615, 1268.342)">
        <rect id="Rect치ngulo_2660" data-name="Rect치ngulo 2660" width="40.558" height="29.106" transform="translate(6.179 44.9) rotate(-63.631)" fill="#2a0764"/>
        <g id="Grupo_9817" data-name="Grupo 9817" transform="translate(20.734 0)">
          <g id="Grupo_9816" data-name="Grupo 9816" transform="translate(0 0)">
            <path id="Trazado_1282" data-name="Trazado 1282" d="M34.676,21.7l.969-1.962c1.45-2.938-.919-7.07-5.292-9.23L11.668,1.282C7.3-.877,2.574-.245,1.124,2.693L.155,4.655C-.372,5.722.488,7.223,2.076,8.007l28.771,14.2C32.435,22.995,34.15,22.766,34.676,21.7Z" fill="#7c3be6"/>
          </g>
        </g>
        <g id="Grupo_9819" data-name="Grupo 9819" transform="translate(0 42.617)">
          <g id="Grupo_9818" data-name="Grupo 9818" transform="translate(0 0)">
            <path id="Trazado_1283" data-name="Trazado 1283" d="M36.153,18.267l-.982,1.975C33.7,23.2,28.939,23.819,24.539,21.629l-18.8-9.357c-4.4-2.19-6.774-6.362-5.3-9.319L1.419.979c.534-1.073,2.263-1.3,3.86-.5L34.227,14.884C35.825,15.679,36.687,17.194,36.153,18.267Z" fill="#21c3fd"/>
          </g>
        </g>
        <path id="Trazado_1284" data-name="Trazado 1284" d="M30.382,43.041l1.146-3.483a84.7,84.7,0,0,1,10.8-21.711l1.927-2.786L13.87,0,12.6,4.9A51.862,51.862,0,0,1,3.283,23.774L0,27.98Z" transform="translate(6.099 11.674)" fill="#e6e6e6"/>
      </g>
      <g id="Grupo_9821" data-name="Grupo 9821" transform="matrix(0.921, 0.391, -0.391, 0.921, 297.219, 1317.239)">
        <path id="Trazado_1285" data-name="Trazado 1285" d="M77.54,46.584,0,4.68,3.229,0,82.434,36.9c5.055,2.4,5.339,4.792,3.985,7.512S82.516,49.2,77.54,46.584Z" transform="translate(12.939 8.266)" fill="#7c3be6"/>
        <path id="Trazado_1286" data-name="Trazado 1286" d="M11.384,16.369c-.647-.322-.7-1.579-.176-2.973C6.919,13.606,2.255,12.561,0,8.919L.544,7.643,3.667,1.236l.664-1.2c4.293-.384,7.96,2.749,10.363,6.338.8-1.294,1.861-2.041,2.519-1.714l.028.014c.753.375.7,2.016-.123,3.667l-2.855,5.736c-.821,1.65-2.1,2.684-2.851,2.309Z" transform="translate(0 0)" fill="#7c3be6"/>
      </g>
    </g>
  </g>
</svg>
