<svg xmlns="http://www.w3.org/2000/svg" width="174" height="180" viewBox="0 0 174 180">
  <g id="Grupo_9852" data-name="Grupo 9852" transform="translate(-233 -1457)">
    <rect id="Rectángulo_2669" data-name="Rectángulo 2669" width="174" height="180" transform="translate(233 1457)" fill="#fff"/>
    <g id="Grupo_9850" data-name="Grupo 9850" transform="translate(-386.786 776.632)">
      <path id="Trazado_1346" data-name="Trazado 1346" d="M874.653,910.388a59.925,59.925,0,1,1-59.924-59.924A59.722,59.722,0,0,1,874.653,910.388Z" transform="translate(-108.018 -134.814)" fill="#2ec9fd"/>
      <path id="Trazado_1347" data-name="Trazado 1347" d="M992.956,910.388a59.722,59.722,0,0,1-16.5,41.3L889.27,869.45a59.925,59.925,0,0,1,103.686,40.938Z" transform="translate(-226.321 -134.814)" fill="#804ee8"/>
      <g id="Grupo_9836" data-name="Grupo 9836" transform="translate(697.908 723.849)">
        <path id="Trazado_1348" data-name="Trazado 1348" d="M1182.6,921.406l-2.062.573-.426-1.637,3.077-.982h1.408V930.9h-2Z" transform="translate(-1180.11 -919.278)" fill="#ebf3fa"/>
        <path id="Trazado_1349" data-name="Trazado 1349" d="M1237.163,928.713l3.945-3.355c1.571-1.326,2.144-2.062,2.144-3.093a1.718,1.718,0,0,0-1.849-1.784c-1.047,0-1.768.573-2.651,1.719l-1.424-1.113a4.7,4.7,0,0,1,4.223-2.406c2.242,0,3.781,1.375,3.781,3.454,0,1.8-.966,2.766-2.979,4.436l-2.357,1.964h5.451V930.3h-8.282Z" transform="translate(-1230.305 -918.679)" fill="#ebf3fa"/>
      </g>
      <g id="Grupo_9837" data-name="Grupo 9837" transform="translate(701.059 813.231)">
        <path id="Trazado_1350" data-name="Trazado 1350" d="M1207.729,1672.926c-.884-.884-1.408-2.079-1.408-4.42,0-3.5,1.67-6.236,4.911-6.236a5.192,5.192,0,0,1,3.5,1.277l-1.08,1.555a3.8,3.8,0,0,0-2.488-1c-1.7,0-2.652,1.539-2.75,3.634a3.649,3.649,0,0,1,2.733-1.146c2.226,0,4.01,1.309,4.01,3.634a3.976,3.976,0,0,1-4.256,3.9A4.255,4.255,0,0,1,1207.729,1672.926Zm5.418-2.652a2.085,2.085,0,0,0-2.34-2,2.115,2.115,0,0,0-2.325,2.046,2.143,2.143,0,0,0,2.374,2.062A2.088,2.088,0,0,0,1213.146,1670.275Z" transform="translate(-1206.321 -1662.271)" fill="#ebf3fa"/>
      </g>
      <g id="Grupo_9838" data-name="Grupo 9838" transform="translate(745.662 769.432)">
        <path id="Trazado_1351" data-name="Trazado 1351" d="M1577.386,1307.535l1.407-1.309a3.737,3.737,0,0,0,3.012,1.506,1.8,1.8,0,0,0,1.98-1.768c0-1.13-1.031-1.768-2.635-1.768h-.933l-.327-1.26,3.094-3.29h-4.96v-1.751h7.579v1.506l-3.192,3.273c1.817.262,3.372,1.2,3.372,3.257,0,2.111-1.637,3.617-4.01,3.617A5.431,5.431,0,0,1,1577.386,1307.535Z" transform="translate(-1577.386 -1297.894)" fill="#ebf3fa"/>
      </g>
      <g id="Grupo_9839" data-name="Grupo 9839" transform="translate(658.864 769.334)">
        <path id="Trazado_1352" data-name="Trazado 1352" d="M855.552,1307.552l1.1-1.539a3.82,3.82,0,0,0,2.619,1.08c1.686,0,2.7-1.489,2.766-3.6a3.375,3.375,0,0,1-2.684,1.211c-2.439,0-4.059-1.424-4.059-3.666a3.985,3.985,0,0,1,4.272-3.961,4.107,4.107,0,0,1,3.175,1.211c.851.851,1.391,2.112,1.391,4.4,0,3.683-1.833,6.236-4.91,6.236A5.438,5.438,0,0,1,855.552,1307.552Zm6.416-6.629a2.165,2.165,0,0,0-2.389-2.111,2.117,2.117,0,1,0,2.389,2.111Z" transform="translate(-855.29 -1297.077)" fill="#ebf3fa"/>
      </g>
      <rect id="Rectángulo_2666" data-name="Rectángulo 2666" width="15.916" height="5.349" transform="translate(698.483 710.75)" fill="#370c7d"/>
      <rect id="Rectángulo_2667" data-name="Rectángulo 2667" width="2.56" height="6.069" transform="translate(705.161 705.694)" fill="#370c7d"/>
      <g id="Grupo_9843" data-name="Grupo 9843" transform="translate(701.487 697.231)">
        <path id="Trazado_1356" data-name="Trazado 1356" d="M1214.836,707.14a4.954,4.954,0,1,1,4.954-4.954A4.96,4.96,0,0,1,1214.836,707.14Zm0-7.775a2.821,2.821,0,1,0,2.821,2.821A2.824,2.824,0,0,0,1214.836,699.364Z" transform="translate(-1209.882 -697.231)" fill="#370c7d"/>
      </g>
      <g id="Grupo_9845" data-name="Grupo 9845" transform="translate(679.712 747.843)">
        <path id="Trazado_1357" data-name="Trazado 1357" d="M1085.076,1146.463a28.364,28.364,0,0,1-.455,5.075,28.18,28.18,0,0,1-53.483,6.331,27.715,27.715,0,0,1-1.435-4.051,28.374,28.374,0,0,1-.332-13.349c0-.022.01-.043.014-.066a28.248,28.248,0,0,1,11-16.759q.868-.63,1.788-1.194a28.017,28.017,0,0,1,14.735-4.158q1.075,0,2.129.08a27.983,27.983,0,0,1,13.953,4.959h0a28.269,28.269,0,0,1,7.727,8.069q.648,1.022,1.209,2.1a28.048,28.048,0,0,1,3.152,12.964Z" transform="translate(-1028.732 -1118.29)" fill="#e9b950"/>
        <g id="Grupo_9844" data-name="Grupo 9844" transform="translate(0.639 3.895)">
          <path id="Trazado_1358" data-name="Trazado 1358" d="M1052.013,1164.287c-1.125,1.78.469,4.872-2.9,4.029s-5.434-1.219-5.621.655,2.53,1.875,2.53,3.842-1.218,2.618-3.092,1.683-2.413-2.293-4.591-1.45-3.443.281-3.935-1.405a2.462,2.462,0,0,0-.35-.738c0-.022.01-.043.014-.066a28.249,28.249,0,0,1,11-16.759q.868-.63,1.787-1.194a3.706,3.706,0,0,1,2.823,1.473c1.967,2.437,3.278,1.219,2.81,4.029s.281,3.186,1.873,3.091,3.467-.094,3.654,1.124S1053.137,1162.506,1052.013,1164.287Z" transform="translate(-1034.051 -1152.619)" fill="#e9b950"/>
          <path id="Trazado_1359" data-name="Trazado 1359" d="M1229.437,1342.375s-1.96.629-2.478-.739.074-1.664-1.664-2.071-1.886-1.59-2.995-1.442-.555.592-1.849,1.553-2.477.518-2.44,2.292,1.96,2.052,2.348,3.217-.277,1.664.554,2.552,2.385.5,1.664,1.719-1.83,2.163-1.276,4.049.166,2,1.109,3.328,2.773,1.775,3.051.887-1.276-2.052-.777-2.939,1.331-.278,1.664-1.609,1.682-1.331,1.793-2.255-1.627-2.33-.961-2.921,2,1.072,3.032-.407.333-2.662,1.405-4.067S1230.177,1341.562,1229.437,1342.375Z" transform="translate(-1195.898 -1315.582)" fill="#e9b950"/>
          <path id="Trazado_1360" data-name="Trazado 1360" d="M1338.37,1265.749a28.365,28.365,0,0,1-.455,5.074,28.015,28.015,0,0,1-4.446,10.808,3.216,3.216,0,0,1-2.253-.06c-3.513-1.405-.913-5.2.492-7.1s-2.178-1.054-4.778-2.811.281-6.464-2.389-5.691-5.9,1.756-7.448-.843,1.405-3.022.07-5.2.773-3.443,3.443-3.654,2.318-2.108,5.621-2.389,3.232,3.935,6.886,3.654,3.489.562,3.489.562a1.7,1.7,0,0,1,.763.16A28.217,28.217,0,0,1,1338.37,1265.749Z" transform="translate(-1282.665 -1241.471)" fill="#e9b950"/>
          <path id="Trazado_1361" data-name="Trazado 1361" d="M1346.26,1170.378c-3.038,1.478-4.258-2.542-6.855-1.334-2.618,1.218-2.16-1.124-4.22-2.624s-6.183,1.219-6-1.124,3.278-1.686,3.935-3.559,3.654-1.405,3.654-1.405a2.028,2.028,0,0,1,.545-.124s0,0,0,0a28.282,28.282,0,0,1,7.728,8.069Q1345.7,1169.3,1346.26,1170.378Z" transform="translate(-1293.708 -1159.063)" fill="#e9b950"/>
          <path id="Trazado_1362" data-name="Trazado 1362" d="M1204,1153.925s1.593-2.3-.937-2.976-2.483.209-4.45,0-2.74,1.313-1.265,2.976,2.67,4.854,4.005,3.153S1202.427,1154.089,1204,1153.925Z" transform="translate(-1177.041 -1150.69)" fill="#e9b950"/>
        </g>
      </g>
      <g id="Grupo_9849" data-name="Grupo 9849" transform="translate(700.38 739.429)">
        <g id="Grupo_9846" data-name="Grupo 9846" transform="translate(4.855 0)">
          <path id="Trazado_1363" data-name="Trazado 1363" d="M1242.783,1086.353l-.414.007a1.253,1.253,0,0,1-1.3-1.227l.192-36.1a.763.763,0,0,1,.767-.74h0a.763.763,0,0,1,.792.719l1.157,36.151A1.182,1.182,0,0,1,1242.783,1086.353Z" transform="translate(-1241.065 -1048.293)" fill="#370c7d"/>
        </g>
        <g id="Grupo_9847" data-name="Grupo 9847" transform="translate(6.341 5.02)">
          <path id="Trazado_1364" data-name="Trazado 1364" d="M1253.483,1123.1l-.044-.03c-.077-.052.194-.583.6-1.176l21.421-31.259c.24-.35.468-.605.513-.574h0c.046.031-.11.339-.349.692l-21.32,31.421C1253.925,1122.734,1253.555,1123.152,1253.483,1123.1Z" transform="translate(-1253.425 -1090.06)" fill="#370c7d"/>
        </g>
        <g id="Grupo_9848" data-name="Grupo 9848" transform="translate(4.032 35.829)">
          <path id="Trazado_1365" data-name="Trazado 1365" d="M1234.29,1347.544l.146-.387a1.4,1.4,0,0,1,1.873-.665l40.773,16.225a.845.845,0,0,1,.552,1.042h0a.847.847,0,0,1-1.108.416l-41.333-15A1.32,1.32,0,0,1,1234.29,1347.544Z" transform="translate(-1234.222 -1346.37)" fill="#370c7d"/>
        </g>
        <path id="Trazado_1366" data-name="Trazado 1366" d="M1200.676,1306.651a6.3,6.3,0,1,1,6.4,6.2A6.3,6.3,0,0,1,1200.676,1306.651Z" transform="translate(-1200.675 -1269.961)" fill="#370c7d"/>
      </g>
    </g>
  </g>
</svg>
