<svg xmlns="http://www.w3.org/2000/svg" xmlns:xlink="http://www.w3.org/1999/xlink" width="64" height="63.2" viewBox="0 0 64 63.2">
  <defs>
    <radialGradient id="radial-gradient" cx="0.5" cy="0.5" r="12.427" gradientTransform="translate(0.48 549.179) scale(0.04 0.04)" gradientUnits="objectBoundingBox">
      <stop offset="0" stop-color="#999"/>
      <stop offset="0.331" stop-color="#9b9b9b"/>
      <stop offset="0.511" stop-color="#a3a3a3"/>
      <stop offset="0.654" stop-color="#b0b0b0"/>
      <stop offset="0.778" stop-color="#c4c4c4"/>
      <stop offset="0.889" stop-color="#ddd"/>
      <stop offset="0.99" stop-color="#fbfbfb"/>
      <stop offset="1" stop-color="#fff"/>
    </radialGradient>
    <radialGradient id="radial-gradient-2" cx="0.5" cy="0.5" r="0.647" gradientTransform="translate(-0.107 0.012) scale(1.214 0.975)" gradientUnits="objectBoundingBox">
      <stop offset="0" stop-color="#fff"/>
      <stop offset="0.388" stop-color="#fbfbfb"/>
      <stop offset="0.701" stop-color="#f1f1f1"/>
      <stop offset="0.989" stop-color="#e0e0e0"/>
      <stop offset="1" stop-color="#e0e0e0"/>
    </radialGradient>
    <linearGradient id="linear-gradient" x1="0.474" y1="0.408" x2="-0.3" y2="1.722" gradientUnits="objectBoundingBox">
      <stop offset="0" stop-color="#fff"/>
      <stop offset="0.337" stop-color="#f9f9f9"/>
      <stop offset="0.752" stop-color="#eaeaea"/>
      <stop offset="1" stop-color="#dedede"/>
    </linearGradient>
    <radialGradient id="radial-gradient-3" cx="0.51" cy="1.546" r="1.993" gradientTransform="translate(0.286 0) scale(0.439 1)" gradientUnits="objectBoundingBox">
      <stop offset="0" stop-color="#2d8fd4"/>
      <stop offset="0.288" stop-color="#278ad0"/>
      <stop offset="0.643" stop-color="#187dc5"/>
      <stop offset="1" stop-color="#026bb5"/>
    </radialGradient>
    <clipPath id="clip-path">
      <path id="Trazado_3631" data-name="Trazado 3631" d="M32,81.5A1.5,1.5,0,0,1,30.5,80V22A1.5,1.5,0,0,1,32,20.5H58.866L79.5,32.991V80A1.5,1.5,0,0,1,78,81.5Z" fill="none"/>
    </clipPath>
    <radialGradient id="radial-gradient-4" cx="0.217" cy="-0.058" r="1.062" gradientTransform="translate(0.119) scale(0.761 1)" gradientUnits="objectBoundingBox">
      <stop offset="0" stop-color="#d1ecff"/>
      <stop offset="0.215" stop-color="#cbe8fc"/>
      <stop offset="0.482" stop-color="#bcdef5"/>
      <stop offset="0.774" stop-color="#a3cdea"/>
      <stop offset="1" stop-color="#8bbde0"/>
    </radialGradient>
    <radialGradient id="radial-gradient-5" cx="2.469" cy="10" r="41.1" gradientTransform="translate(0.438) scale(0.125 1)" gradientUnits="objectBoundingBox">
      <stop offset="0" stop-color="#e5e5e5"/>
      <stop offset="0.338" stop-color="#e1e1e1"/>
      <stop offset="0.612" stop-color="#d7d7d7"/>
      <stop offset="0.863" stop-color="#c6c6c6"/>
      <stop offset="1" stop-color="#bababa"/>
    </radialGradient>
    <radialGradient id="radial-gradient-6" cx="1.317" cy="8" r="41.1" gradientTransform="translate(0.467) scale(0.067 1)" xlink:href="#radial-gradient-5"/>
    <radialGradient id="radial-gradient-7" cx="0.494" cy="4" r="41.1" gradientTransform="translate(0.488) scale(0.025 1)" xlink:href="#radial-gradient-5"/>
    <radialGradient id="radial-gradient-8" cx="2.469" cy="-2" r="41.1" xlink:href="#radial-gradient-5"/>
    <radialGradient id="radial-gradient-9" cx="0.983" cy="0" r="41.1" gradientTransform="translate(0.467) scale(0.067 1)" xlink:href="#radial-gradient-5"/>
    <radialGradient id="radial-gradient-10" cx="4.938" cy="0" r="41.1" gradientTransform="translate(0.375) scale(0.25 1)" xlink:href="#radial-gradient-5"/>
    <radialGradient id="radial-gradient-11" cx="0.536" cy="0" r="41.1" gradientTransform="translate(0.429) scale(0.143 1)" xlink:href="#radial-gradient-5"/>
    <radialGradient id="radial-gradient-12" cx="7.375" cy="-2" r="41.1" gradientTransform="translate(0.25) scale(0.5 1)" xlink:href="#radial-gradient-5"/>
    <radialGradient id="radial-gradient-13" cx="10.75" cy="-2" r="41.1" gradientTransform="matrix(1, 0, 0, 1, 0, 0)" xlink:href="#radial-gradient-5"/>
    <radialGradient id="radial-gradient-14" cx="-0.266" cy="0" r="41.1" gradientTransform="translate(0.469) scale(0.063 1)" xlink:href="#radial-gradient-5"/>
    <radialGradient id="radial-gradient-15" cx="-4.063" cy="2" r="41.1" gradientTransform="translate(0.375) scale(0.25 1)" xlink:href="#radial-gradient-5"/>
    <radialGradient id="radial-gradient-16" cx="3.292" cy="2" r="41.1" gradientTransform="translate(0.417) scale(0.167 1)" xlink:href="#radial-gradient-5"/>
    <radialGradient id="radial-gradient-17" cx="0.455" cy="2" r="41.1" gradientTransform="translate(0.482) scale(0.036 1)" xlink:href="#radial-gradient-5"/>
    <radialGradient id="radial-gradient-18" cx="1.95" r="41.1" gradientTransform="translate(0.4) scale(0.2 1)" xlink:href="#radial-gradient-5"/>
    <radialGradient id="radial-gradient-19" cx="1.975" cy="-8" r="41.1" gradientTransform="translate(0.45) scale(0.1 1)" xlink:href="#radial-gradient-5"/>
    <radialGradient id="radial-gradient-20" cx="3.95" cy="-6" r="41.1" gradientTransform="translate(0.4) scale(0.2 1)" xlink:href="#radial-gradient-5"/>
  </defs>
  <g id="Grupo_11237" data-name="Grupo 11237" transform="translate(-22 -20)">
    <path id="Trazado_3618" data-name="Trazado 3618" d="M22,81.912c0-.711,14.327-1.287,32-1.287s32,.576,32,1.287S71.673,83.2,54,83.2,22,82.624,22,81.912Z" fill="url(#radial-gradient)"/>
    <path id="Trazado_3619" data-name="Trazado 3619" d="M59,20H32a2,2,0,0,0-2,2V80a2,2,0,0,0,2,2H78a2,2,0,0,0,2-2V32.7Z" fill="#ccc"/>
    <path id="Trazado_3620" data-name="Trazado 3620" d="M32,81.5a1.483,1.483,0,0,1-1.5-1.463V23.463A1.483,1.483,0,0,1,32,22H58.866L79.5,34.184V80.037A1.483,1.483,0,0,1,78,81.5Z" fill="url(#radial-gradient-2)"/>
    <path id="Trazado_3621" data-name="Trazado 3621" d="M68.232,39.262a2,2,0,0,1-2.733-.733L58.866,20.5,79.5,32.912Z" fill="#ccc"/>
    <path id="Trazado_3622" data-name="Trazado 3622" d="M69.232,37.262A2,2,0,0,1,66.5,36.53L58.866,20.5,79.5,32.912Z" fill="url(#linear-gradient)"/>
    <g id="Grupo_11230" data-name="Grupo 11230">
      <path id="Trazado_3623" data-name="Trazado 3623" d="M80,32.7,59,20H32a2,2,0,0,0-2,2V42H80Z" fill="#025fa1"/>
    </g>
    <g id="Grupo_11231" data-name="Grupo 11231">
      <path id="Trazado_3624" data-name="Trazado 3624" d="M79.5,32.991,58.866,20.5H32A1.5,1.5,0,0,0,30.5,22V42h49Z" fill="url(#radial-gradient-3)"/>
    </g>
    <path id="Trazado_3625" data-name="Trazado 3625" d="M68.232,39.262a2,2,0,0,1-2.733-.733L58.866,20.5,79.5,32.912Z" fill="#025fa1"/>
    <path id="Trazado_3626" data-name="Trazado 3626" d="M69.232,37.262A2,2,0,0,1,66.5,36.53L58.866,20.5,79.5,32.912Z" fill="#3098d8"/>
    <g id="Grupo_11232" data-name="Grupo 11232">
      <path id="Trazado_3627" data-name="Trazado 3627" d="M38.77,27.86a3.7,3.7,0,0,1,1.286.22,2.787,2.787,0,0,1,1.029.66,3.055,3.055,0,0,1,.681,1.1,4.459,4.459,0,0,1,.244,1.55,4.958,4.958,0,0,1-.2,1.44,3.148,3.148,0,0,1-.6,1.14,2.825,2.825,0,0,1-1.01.755A3.424,3.424,0,0,1,38.77,35H35.69V27.86Zm-.11,5.82a2,2,0,0,0,.66-.11,1.457,1.457,0,0,0,.571-.365,1.836,1.836,0,0,0,.4-.665,2.9,2.9,0,0,0,.15-1,4.163,4.163,0,0,0-.1-.975,1.926,1.926,0,0,0-.345-.745,1.529,1.529,0,0,0-.635-.475,2.533,2.533,0,0,0-.975-.165H37.26v4.5Z" fill="#fff"/>
      <path id="Trazado_3628" data-name="Trazado 3628" d="M43.03,29.975a3.559,3.559,0,0,1,.691-1.195,3.156,3.156,0,0,1,1.1-.8,3.909,3.909,0,0,1,2.955,0,3.182,3.182,0,0,1,1.1.8,3.571,3.571,0,0,1,.689,1.195,4.464,4.464,0,0,1,.24,1.485,4.312,4.312,0,0,1-.24,1.455,3.47,3.47,0,0,1-.689,1.175,3.17,3.17,0,0,1-1.1.785,3.972,3.972,0,0,1-2.955,0,3.145,3.145,0,0,1-1.1-.785,3.458,3.458,0,0,1-.691-1.175,4.312,4.312,0,0,1-.24-1.455A4.464,4.464,0,0,1,43.03,29.975Zm1.436,2.36a2.315,2.315,0,0,0,.335.765,1.7,1.7,0,0,0,.6.545,2.078,2.078,0,0,0,1.8,0,1.722,1.722,0,0,0,.6-.545,2.4,2.4,0,0,0,.335-.765,3.683,3.683,0,0,0,.1-.875,3.961,3.961,0,0,0-.1-.91,2.442,2.442,0,0,0-.335-.785,1.717,1.717,0,0,0-.6-.55,2.078,2.078,0,0,0-1.8,0,1.694,1.694,0,0,0-.6.55,2.357,2.357,0,0,0-.335.785,3.855,3.855,0,0,0-.106.91A3.584,3.584,0,0,0,44.466,32.335Z" fill="#fff"/>
      <path id="Trazado_3629" data-name="Trazado 3629" d="M55.46,29.765a1.566,1.566,0,0,0-.35-.395,1.623,1.623,0,0,0-.475-.265,1.643,1.643,0,0,0-.555-.095,1.824,1.824,0,0,0-.9.2,1.7,1.7,0,0,0-.6.55,2.42,2.42,0,0,0-.335.785,3.907,3.907,0,0,0-.1.91,3.632,3.632,0,0,0,.1.875,2.378,2.378,0,0,0,.335.765,1.7,1.7,0,0,0,.6.545,1.835,1.835,0,0,0,.9.2,1.454,1.454,0,0,0,1.125-.44,2.021,2.021,0,0,0,.495-1.16h1.52a3.6,3.6,0,0,1-.31,1.21,2.9,2.9,0,0,1-.66.92,2.784,2.784,0,0,1-.96.58,3.5,3.5,0,0,1-1.21.2,3.661,3.661,0,0,1-1.475-.285,3.158,3.158,0,0,1-1.1-.785,3.472,3.472,0,0,1-.69-1.175,4.312,4.312,0,0,1-.24-1.455,4.464,4.464,0,0,1,.24-1.485,3.574,3.574,0,0,1,.69-1.195,3.169,3.169,0,0,1,1.1-.8,3.829,3.829,0,0,1,2.59-.12,3.05,3.05,0,0,1,.94.495,2.648,2.648,0,0,1,.685.805,2.885,2.885,0,0,1,.34,1.1H55.641A1.294,1.294,0,0,0,55.46,29.765Z" fill="#fff"/>
    </g>
    <g id="Grupo_11235" data-name="Grupo 11235">
      <g id="Grupo_11234" data-name="Grupo 11234" clip-path="url(#clip-path)">
        <g id="Grupo_11233" data-name="Grupo 11233">
          <path id="Trazado_3630" data-name="Trazado 3630" d="M70.518,83.431,66.644,67.87H66.58L62.77,83.431H57.679L51.628,60.569h5.026L60.273,76.13h.063l3.972-15.561h4.706L72.92,76.323h.063L76.73,60.569h4.931L75.514,83.431Z" fill="url(#radial-gradient-4)"/>
        </g>
      </g>
    </g>
    <g id="Grupo_11236" data-name="Grupo 11236">
      <rect id="Rectángulo_3077" data-name="Rectángulo 3077" width="8" height="1" transform="translate(35 46)" fill="url(#radial-gradient-5)"/>
      <rect id="Rectángulo_3078" data-name="Rectángulo 3078" width="15" height="1" transform="translate(35 48)" fill="url(#radial-gradient-6)"/>
      <rect id="Rectángulo_3079" data-name="Rectángulo 3079" width="40" height="1" transform="translate(35 52)" fill="url(#radial-gradient-7)"/>
      <rect id="Rectángulo_3080" data-name="Rectángulo 3080" width="8" height="1" transform="translate(35 58)" fill="url(#radial-gradient-8)"/>
      <rect id="Rectángulo_3081" data-name="Rectángulo 3081" width="15" height="1" transform="translate(40 56)" fill="url(#radial-gradient-9)"/>
      <rect id="Rectángulo_3082" data-name="Rectángulo 3082" width="4" height="1" transform="translate(35 56)" fill="url(#radial-gradient-10)"/>
      <rect id="Rectángulo_3083" data-name="Rectángulo 3083" width="7" height="1" transform="translate(51 56)" fill="url(#radial-gradient-11)"/>
      <rect id="Rectángulo_3084" data-name="Rectángulo 3084" width="2" height="1" transform="translate(40 58)" fill="url(#radial-gradient-12)"/>
      <rect id="Rectángulo_3085" data-name="Rectángulo 3085" width="1" height="1" transform="translate(44 58)" fill="url(#radial-gradient-13)"/>
      <rect id="Rectángulo_3086" data-name="Rectángulo 3086" width="16" height="1" transform="translate(59 56)" fill="url(#radial-gradient-14)"/>
      <rect id="Rectángulo_3087" data-name="Rectángulo 3087" width="4" height="1" transform="translate(71 54)" fill="url(#radial-gradient-15)"/>
      <rect id="Rectángulo_3088" data-name="Rectángulo 3088" width="6" height="1" transform="translate(35 54)" fill="url(#radial-gradient-16)"/>
      <rect id="Rectángulo_3089" data-name="Rectángulo 3089" width="28" height="1" transform="translate(42 54)" fill="url(#radial-gradient-17)"/>
      <rect id="Rectángulo_3090" data-name="Rectángulo 3090" width="5" height="1" transform="translate(45 46)" fill="url(#radial-gradient-18)"/>
      <rect id="Rectángulo_3091" data-name="Rectángulo 3091" width="10" height="1" transform="translate(35 64)" fill="url(#radial-gradient-19)"/>
      <rect id="Rectángulo_3092" data-name="Rectángulo 3092" width="5" height="1" transform="translate(35 62)" fill="url(#radial-gradient-20)"/>
    </g>
  </g>
</svg>
