<svg id="icon_media_video" xmlns="http://www.w3.org/2000/svg" width="52" height="52" viewBox="0 0 52 52">
  <circle id="Elipse_839" data-name="Elipse 839" cx="26" cy="26" r="26" fill="#ea4e4e"/>
  <path id="Trazado_22177" data-name="Trazado 22177" d="M27.875,15.25A14.625,14.625,0,1,1,13.25,29.875,14.625,14.625,0,0,1,27.875,15.25m0-3.25A17.875,17.875,0,1,0,45.75,29.875,17.875,17.875,0,0,0,27.875,12Z" transform="translate(-1.875 -2.25)" fill="#231f20" opacity="0.2"/>
  <g id="Grupo_14954" data-name="Grupo 14954" transform="translate(21.125 18.998)" opacity="0.2">
    <path id="Trazado_22178" data-name="Trazado 22178" d="M27.625,40.638A1.629,1.629,0,0,1,26,39.013V25.005A1.625,1.625,0,0,1,28.438,23.6l9.75,7a1.625,1.625,0,0,1,0,2.811l-9.75,7A1.625,1.625,0,0,1,27.625,40.638Z" transform="translate(-26 -23.382)" fill="#231f20"/>
  </g>
  <path id="Trazado_22179" data-name="Trazado 22179" d="M27.875,13.25A14.625,14.625,0,1,1,13.25,27.875,14.625,14.625,0,0,1,27.875,13.25m0-3.25A17.875,17.875,0,1,0,45.75,27.875,17.875,17.875,0,0,0,27.875,10Z" transform="translate(-1.875 -1.875)" fill="#e0e0d1"/>
  <path id="Trazado_22180" data-name="Trazado 22180" d="M27.625,38.638A1.629,1.629,0,0,1,26,37.013V23.005A1.625,1.625,0,0,1,28.438,21.6l9.75,7a1.625,1.625,0,0,1,0,2.811l-9.75,7A1.625,1.625,0,0,1,27.625,38.638Z" transform="translate(-4.875 -4.009)" fill="#e0e0d1"/>
</svg>
