<?xml version="1.0" standalone="no"?>
<!DOCTYPE svg PUBLIC "-//W3C//DTD SVG 20010904//EN"
 "http://www.w3.org/TR/2001/REC-SVG-20010904/DTD/svg10.dtd">
<svg version="1.0" xmlns="http://www.w3.org/2000/svg"
 width="225.000000pt" height="225.000000pt" viewBox="0 0 225.000000 225.000000"
 preserveAspectRatio="xMidYMid meet">

<g transform="translate(0.000000,225.000000) scale(0.100000,-0.100000)"
fill="#000000" stroke="none">
<path d="M450 2000 c-10 -101 -10 -108 4 -113 17 -7 26 16 21 53 -4 34 -23 79
-25 60z"/>
<path d="M1936 1908 c57 -62 60 -238 6 -301 -8 -9 -12 -20 -8 -25 12 -11 35
28 53 87 17 59 12 163 -8 187 -6 8 -9 14 -5 14 12 0 -25 48 -42 55 -13 5 -12
1 4 -17z"/>
<path d="M533 1825 c0 -27 2 -38 4 -22 2 15 2 37 0 50 -2 12 -4 0 -4 -28z"/>
<path d="M1197 1814 c-13 -13 -7 -24 14 -24 11 0 19 5 17 12 -5 14 -22 21 -31
12z"/>
<path d="M1580 1804 c0 -6 6 -17 14 -23 10 -9 15 -8 20 4 3 8 13 15 23 14 11
0 13 -3 5 -6 -18 -7 -4 -23 21 -22 12 0 16 3 10 6 -7 2 -13 11 -13 19 0 17
-32 18 -48 2 -10 -10 -15 -10 -22 2 -5 8 -10 10 -10 4z"/>
<path d="M1691 1783 c0 -11 3 -13 6 -5 2 6 9 10 13 7 5 -3 11 -1 15 5 3 5 -3
10 -14 10 -14 0 -21 -6 -20 -17z"/>
<path d="M1517 1779 c7 -7 15 -10 18 -7 3 3 -2 9 -12 12 -14 6 -15 5 -6 -5z"/>
<path d="M533 1725 c0 -22 2 -30 4 -17 2 12 2 30 0 40 -3 9 -5 -1 -4 -23z"/>
<path d="M1664 1733 c-16 -11 -37 -109 -30 -138 4 -15 16 -27 30 -31 34 -8 71
-1 69 14 -2 6 3 11 10 10 21 -5 21 58 -1 80 -10 10 -18 30 -18 43 1 19 -5 25
-24 27 -14 1 -30 -1 -36 -5z"/>
<path d="M1195 1710 c4 -6 11 -8 16 -5 14 9 11 15 -7 15 -8 0 -12 -5 -9 -10z"/>
<path d="M1242 1685 c4 -4 -4 -24 -19 -44 l-25 -36 28 33 c32 35 44 40 44 17
0 -8 7 -15 15 -15 9 0 15 9 15 21 0 12 -5 19 -12 16 -7 -2 -22 0 -33 6 -11 5
-17 6 -13 2z"/>
<path d="M1121 1670 c-16 -9 -6 -30 15 -30 15 0 20 25 6 34 -4 2 -14 1 -21 -4z"/>
<path d="M451 1636 c-17 -9 -20 -15 -11 -21 7 -4 19 0 28 9 21 21 12 27 -17
12z"/>
<path d="M594 1639 c-4 -7 -22 -9 -48 -6 -28 4 -35 3 -21 -3 42 -18 118 -6 86
14 -5 4 -13 1 -17 -5z"/>
<path d="M597 1558 c-33 -35 15 -64 64 -38 21 12 23 18 11 38 -14 21 -55 22
-75 0z"/>
<path d="M1773 1478 c2 -7 12 -13 22 -13 10 0 20 6 23 13 2 7 -6 12 -23 12
-17 0 -25 -5 -22 -12z"/>
<path d="M1772 1398 c-5 -107 32 -138 41 -36 3 35 5 63 4 64 -1 1 -11 4 -23 8
-19 6 -21 2 -22 -36z"/>
<path d="M468 1363 c6 -2 18 -2 25 0 6 3 1 5 -13 5 -14 0 -19 -2 -12 -5z"/>
<path d="M448 1338 c17 -17 15 -38 -3 -38 -12 0 -13 -4 -5 -19 16 -31 12 -38
-24 -45 -35 -7 -46 -21 -46 -61 0 -48 65 -55 76 -9 6 25 19 31 29 14 8 -13 25
-13 25 -1 0 5 -6 16 -12 23 -14 14 -18 119 -5 111 4 -2 7 0 7 6 0 6 -9 15 -19
21 -26 14 -38 13 -23 -2z"/>
<path d="M510 1338 c0 -4 9 -8 20 -8 11 0 20 4 20 9 0 6 -9 9 -20 8 -11 -1
-20 -5 -20 -9z"/>
<path d="M1510 1280 c0 -12 37 -12 65 0 15 7 10 9 -22 9 -24 1 -43 -3 -43 -9z"/>
<path d="M1643 1283 c9 -2 23 -2 30 0 6 3 -1 5 -18 5 -16 0 -22 -2 -12 -5z"/>
<path d="M580 1131 c0 -12 29 -23 42 -15 6 4 5 10 -3 15 -18 11 -39 11 -39 0z"/>
<path d="M465 1120 c-3 -4 1 -10 8 -13 11 -4 15 -63 20 -270 4 -145 9 -272 13
-281 4 -11 18 -16 45 -16 33 0 39 3 39 21 0 19 -4 20 -40 14 l-40 -7 0 59 c0
32 -3 151 -7 265 l-6 206 23 4 c13 1 25 8 27 13 3 12 -75 17 -82 5z"/>
<path d="M510 1065 c0 -8 5 -15 10 -15 6 0 10 7 10 15 0 8 -4 15 -10 15 -5 0
-10 -7 -10 -15z"/>
<path d="M1772 928 c2 -102 5 -142 12 -130 18 32 19 173 2 227 l-15 50 1 -147z
m15 -80 c-3 -7 -5 -2 -5 12 0 14 2 19 5 13 2 -7 2 -19 0 -25z"/>
<path d="M590 1040 c0 -5 5 -10 11 -10 5 0 7 5 4 10 -3 6 -8 10 -11 10 -2 0
-4 -4 -4 -10z"/>
<path d="M510 1020 c0 -5 5 -10 10 -10 6 0 10 5 10 10 0 6 -4 10 -10 10 -5 0
-10 -4 -10 -10z"/>
<path d="M570 930 c0 -5 5 -10 10 -10 6 0 10 5 10 10 0 6 -4 10 -10 10 -5 0
-10 -4 -10 -10z"/>
<path d="M590 900 c0 -5 5 -10 10 -10 6 0 10 5 10 10 0 6 -4 10 -10 10 -5 0
-10 -4 -10 -10z"/>
<path d="M590 770 c0 -5 5 -10 10 -10 6 0 10 5 10 10 0 6 -4 10 -10 10 -5 0
-10 -4 -10 -10z"/>
<path d="M1693 545 c0 -8 7 -15 15 -15 7 0 12 5 10 12 -6 18 -25 21 -25 3z"/>
</g>
</svg>
