<?xml version="1.0" standalone="no"?>
<!DOCTYPE svg PUBLIC "-//W3C//DTD SVG 20010904//EN"
 "http://www.w3.org/TR/2001/REC-SVG-20010904/DTD/svg10.dtd">
<svg version="1.0" xmlns="http://www.w3.org/2000/svg"
 width="280.000000pt" height="180.000000pt" viewBox="0 0 280.000000 180.000000"
 preserveAspectRatio="xMidYMid meet">

<g transform="translate(0.000000,180.000000) scale(0.100000,-0.100000)"
fill="#000000" stroke="none">
<path d="M1245 1760 c-11 -17 56 -98 77 -92 22 5 23 3 -6 54 -24 42 -57 60
-71 38z"/>
<path d="M1488 1690 c-5 -15 -66 -22 -74 -9 -9 15 -34 10 -34 -6 0 -8 9 -15
20 -15 13 0 24 -10 31 -27 5 -14 17 -32 26 -38 16 -12 16 -14 0 -39 -19 -29
-64 -36 -73 -11 -4 10 -15 12 -35 8 -23 -4 -29 -2 -29 11 0 13 -4 15 -18 7
-11 -6 -24 -6 -33 0 -19 12 -42 11 -34 -1 3 -5 15 -10 27 -10 14 0 18 -5 14
-15 -4 -12 2 -14 31 -11 21 3 40 1 43 -4 3 -5 17 -10 30 -12 14 -2 30 -7 36
-11 7 -4 17 0 24 8 15 18 67 43 95 46 32 2 41 -1 26 -10 -8 -5 -10 -14 -6 -21
6 -10 11 -9 21 5 9 13 20 16 39 11 17 -4 24 -3 20 4 -3 5 -17 10 -30 10 -23 0
-35 17 -35 49 0 22 -76 97 -82 81z"/>
<path d="M1136 1594 c-9 -24 -8 -27 10 -20 13 5 15 2 11 -13 -3 -11 1 -25 9
-32 10 -8 14 -8 14 -1 0 6 7 9 15 6 11 -5 15 1 15 18 0 44 -60 78 -74 42z"/>
<path d="M947 1581 c-4 -17 -3 -21 5 -13 5 5 8 16 6 23 -3 8 -7 3 -11 -10z"/>
<path d="M910 1570 c0 -11 -4 -20 -10 -20 -5 0 -10 -4 -10 -9 0 -13 42 -21 59
-11 16 9 14 11 -11 14 -7 1 -12 12 -11 24 2 12 -2 22 -7 22 -6 0 -10 -9 -10
-20z"/>
<path d="M1028 1543 c7 -3 16 -2 19 1 4 3 -2 6 -13 5 -11 0 -14 -3 -6 -6z"/>
<path d="M1110 1527 c-30 -45 -31 -47 -18 -47 8 0 19 14 26 32 14 39 11 45 -8
15z"/>
<path d="M978 1533 c7 -3 16 -2 19 1 4 3 -2 6 -13 5 -11 0 -14 -3 -6 -6z"/>
<path d="M1658 1525 c5 -11 20 -29 33 -40 22 -20 22 -20 11 0 -5 11 -20 29
-33 40 -22 20 -22 20 -11 0z"/>
<path d="M1603 1505 c8 -17 25 -39 38 -50 l22 -20 -19 33 c-10 18 -27 41 -38
50 -18 17 -18 16 -3 -13z"/>
<path d="M828 1513 c7 -3 16 -2 19 1 4 3 -2 6 -13 5 -11 0 -14 -3 -6 -6z"/>
<path d="M1640 1512 c0 -14 81 -120 92 -121 6 -1 -26 45 -89 128 -2 2 -3 -1
-3 -7z"/>
<path d="M920 1485 c0 -14 5 -25 10 -25 6 0 10 11 10 25 0 14 -4 25 -10 25 -5
0 -10 -11 -10 -25z"/>
<path d="M1445 1490 c-3 -5 -1 -10 4 -10 6 0 11 5 11 10 0 6 -2 10 -4 10 -3 0
-8 -4 -11 -10z"/>
<path d="M1570 1492 c0 -12 19 -26 26 -19 2 2 -2 10 -11 17 -9 8 -15 8 -15 2z"/>
<path d="M1751 1464 c0 -11 3 -14 6 -6 3 7 2 16 -1 19 -3 4 -6 -2 -5 -13z"/>
<path d="M550 1439 c0 -4 6 -10 13 -12 10 -4 10 -6 0 -6 -19 -1 -16 -21 2 -21
9 0 18 7 22 16 3 8 12 13 19 10 8 -3 11 0 8 9 -6 14 -64 18 -64 4z"/>
<path d="M1760 1416 c0 -14 4 -27 8 -30 5 -3 6 8 4 25 -5 35 -12 38 -12 5z"/>
<path d="M1670 1416 c0 -2 8 -10 18 -17 15 -13 16 -12 3 4 -13 16 -21 21 -21
13z"/>
<path d="M595 1400 c-3 -5 1 -10 9 -10 9 0 16 5 16 10 0 6 -4 10 -9 10 -6 0
-13 -4 -16 -10z"/>
<path d="M630 1398 c0 -11 47 -11 54 0 3 5 -8 9 -24 9 -17 0 -30 -4 -30 -9z"/>
<path d="M1480 1400 c0 -5 5 -10 10 -10 6 0 10 5 10 10 0 6 -4 10 -10 10 -5 0
-10 -4 -10 -10z"/>
<path d="M1420 1388 c0 -4 12 -8 27 -8 14 0 23 3 19 7 -10 10 -46 11 -46 1z"/>
<path d="M1360 1380 c0 -5 5 -10 11 -10 5 0 7 5 4 10 -3 6 -8 10 -11 10 -2 0
-4 -4 -4 -10z"/>
<path d="M1320 1370 c0 -5 7 -10 15 -10 8 0 15 5 15 10 0 6 -7 10 -15 10 -8 0
-15 -4 -15 -10z"/>
<path d="M1750 1361 c5 -11 15 -23 21 -27 6 -3 3 5 -6 20 -20 30 -30 35 -15 7z"/>
<path d="M520 1346 c0 -9 5 -16 10 -16 6 0 10 4 10 9 0 6 -4 13 -10 16 -5 3
-10 -1 -10 -9z"/>
<path d="M711 1338 c-1 -10 -5 -18 -11 -18 -5 0 -10 -7 -10 -15 0 -8 4 -15 10
-15 5 0 12 -11 16 -25 3 -14 10 -25 15 -25 12 0 11 37 -1 45 -6 4 -8 10 -5 15
3 4 1 19 -4 32 -7 17 -10 18 -10 6z"/>
<path d="M1740 1323 c13 -18 25 -33 27 -33 8 0 -17 38 -33 51 -11 9 -9 2 6
-18z"/>
<path d="M1810 1276 c19 -26 41 -52 49 -59 8 -7 -3 12 -23 40 -21 29 -43 56
-49 60 -6 3 4 -15 23 -41z"/>
<path d="M970 1290 l-75 -5 75 -11 c43 -7 79 -8 85 -3 18 18 -11 24 -85 19z"/>
<path d="M530 1260 c-9 -16 -8 -22 4 -26 17 -7 36 2 36 18 0 6 -6 6 -15 -2 -9
-7 -18 -10 -22 -6 -3 3 -1 6 6 6 7 0 10 4 7 9 -4 5 0 12 6 14 10 4 10 6 1 6
-7 1 -17 -8 -23 -19z"/>
<path d="M1786 1258 c10 -14 21 -24 23 -22 3 3 -6 15 -18 27 l-24 22 19 -27z"/>
<path d="M662 1248 c-7 -7 -12 -32 -12 -57 0 -34 -3 -42 -10 -31 -7 11 -10 3
-10 -29 0 -35 3 -42 16 -37 9 3 20 6 25 6 5 0 9 16 9 35 0 28 4 35 19 35 11 0
23 5 26 10 4 6 1 9 -7 8 -8 -2 -14 8 -16 24 -4 34 -24 52 -40 36z"/>
<path d="M1830 1200 c6 -11 13 -20 16 -20 2 0 0 9 -6 20 -6 11 -13 20 -16 20
-2 0 0 -9 6 -20z"/>
<path d="M506 1155 c-8 -22 11 -65 29 -65 22 0 30 27 17 56 -13 27 -37 32 -46
9z"/>
<path d="M1909 1143 c26 -38 49 -56 33 -27 -6 11 -20 28 -33 39 l-23 20 23
-32z"/>
<path d="M1885 1123 c11 -18 23 -33 28 -33 11 0 -8 34 -29 51 -16 12 -16 10 1
-18z"/>
<path d="M1856 1107 c3 -10 9 -15 12 -12 3 3 0 11 -7 18 -10 9 -11 8 -5 -6z"/>
<path d="M554 1035 c-7 -18 16 -49 27 -38 10 10 0 53 -12 53 -6 0 -12 -7 -15
-15z"/>
<path d="M500 980 c0 -5 5 -10 11 -10 5 0 7 5 4 10 -3 6 -8 10 -11 10 -2 0 -4
-4 -4 -10z"/>
<path d="M1035 960 c-3 -5 -2 -10 4 -10 5 0 13 5 16 10 3 6 2 10 -4 10 -5 0
-13 -4 -16 -10z"/>
<path d="M570 950 c0 -5 5 -10 10 -10 6 0 10 5 10 10 0 6 -4 10 -10 10 -5 0
-10 -4 -10 -10z"/>
<path d="M675 950 c-3 -5 -3 -10 1 -10 4 0 -1 -7 -12 -15 -17 -13 -17 -14 -2
-15 20 0 43 36 29 45 -5 3 -12 1 -16 -5z"/>
<path d="M1523 908 c-13 -6 -23 -14 -23 -18 0 -13 49 2 54 16 6 16 -1 17 -31
2z"/>
<path d="M573 873 c2 -18 0 -33 -5 -33 -4 0 -8 -11 -8 -25 0 -14 -8 -33 -17
-43 -21 -20 -28 -102 -9 -102 6 0 4 -5 -4 -10 -8 -5 -10 -10 -4 -10 7 0 14 -8
17 -19 2 -10 18 -25 36 -34 28 -14 31 -14 31 0 0 9 -3 14 -6 10 -10 -10 -56
43 -50 58 2 7 0 16 -7 19 -8 3 -8 5 -1 5 6 1 28 -10 49 -24 76 -52 215 -114
215 -97 0 4 -13 13 -30 20 -39 18 -38 28 5 36 38 8 39 26 1 26 -16 0 -26 7
-29 21 -4 16 -13 20 -39 19 -48 -3 -52 -2 -39 14 8 10 9 16 1 21 -5 3 -10 3
-10 -1 0 -4 -13 10 -30 32 -29 39 -38 69 -21 76 15 5 18 43 4 41 -7 -2 -13 1
-13 6 0 5 6 12 13 14 6 3 2 6 -11 6 -13 1 -20 -3 -17 -9 3 -5 2 -10 -4 -10 -5
0 -12 6 -15 13 -3 6 -5 -3 -3 -20z"/>
<path d="M2196 755 c4 -8 11 -15 16 -15 6 0 5 6 -2 15 -7 8 -14 15 -16 15 -2
0 -1 -7 2 -15z"/>
<path d="M2166 745 c4 -8 11 -15 16 -15 6 0 5 6 -2 15 -7 8 -14 15 -16 15 -2
0 -1 -7 2 -15z"/>
<path d="M850 570 c-12 -8 -9 -10 13 -10 15 0 27 5 27 10 0 13 -20 13 -40 0z"/>
<path d="M1500 565 c0 -17 9 -19 28 -6 11 7 10 10 -3 15 -23 9 -25 8 -25 -9z"/>
<path d="M745 530 c3 -5 8 -10 11 -10 2 0 4 5 4 10 0 6 -5 10 -11 10 -5 0 -7
-4 -4 -10z"/>
<path d="M1025 420 c-3 -5 -1 -10 4 -10 6 0 11 5 11 10 0 6 -2 10 -4 10 -3 0
-8 -4 -11 -10z"/>
<path d="M1380 420 c0 -5 5 -10 10 -10 6 0 10 5 10 10 0 6 -4 10 -10 10 -5 0
-10 -4 -10 -10z"/>
<path d="M980 415 c0 -8 198 -105 212 -104 7 0 2 5 -12 10 -20 8 -22 12 -10
20 12 8 10 10 -9 6 -15 -4 -49 8 -98 34 -78 40 -83 42 -83 34z"/>
<path d="M980 365 c0 -8 4 -15 10 -15 5 0 7 7 4 15 -4 8 -8 15 -10 15 -2 0 -4
-7 -4 -15z"/>
<path d="M1300 370 c0 -5 5 -10 10 -10 6 0 10 5 10 10 0 6 -4 10 -10 10 -5 0
-10 -4 -10 -10z"/>
<path d="M970 318 c0 -19 18 -43 25 -36 9 9 -4 48 -16 48 -5 0 -9 -6 -9 -12z"/>
<path d="M1080 321 c0 -5 5 -13 10 -16 6 -3 10 -2 10 4 0 5 -4 13 -10 16 -5 3
-10 2 -10 -4z"/>
<path d="M1030 280 c0 -5 5 -10 10 -10 6 0 10 5 10 10 0 6 -4 10 -10 10 -5 0
-10 -4 -10 -10z"/>
</g>
</svg>
