<?xml version="1.0" standalone="no"?>
<!DOCTYPE svg PUBLIC "-//W3C//DTD SVG 20010904//EN"
 "http://www.w3.org/TR/2001/REC-SVG-20010904/DTD/svg10.dtd">
<svg version="1.0" xmlns="http://www.w3.org/2000/svg"
 width="275.000000pt" height="183.000000pt" viewBox="0 0 275.000000 183.000000"
 preserveAspectRatio="xMidYMid meet">

<g transform="translate(0.000000,183.000000) scale(0.100000,-0.100000)"
fill="#000000" stroke="none">
<path d="M614 1725 c16 -16 12 -40 -11 -63 -7 -7 -13 -33 -13 -58 0 -41 2 -44
28 -45 l27 -1 -25 -8 c-17 -5 -19 -8 -7 -9 19 -1 19 -3 17 -80 -1 -35 3 -57
12 -62 19 -12 24 -11 43 8 16 15 17 12 14 -48 -2 -35 0 -70 5 -77 11 -18 -12
-42 -40 -42 -28 0 -30 -11 -8 -45 18 -28 49 -33 58 -10 3 8 15 15 26 15 11 0
20 5 20 11 0 5 4 8 9 5 13 -8 12 -84 -1 -92 -6 -4 -8 -2 -4 4 3 6 2 13 -4 17
-5 3 -10 -1 -10 -9 0 -9 -4 -16 -10 -16 -5 0 6 -16 26 -35 20 -21 45 -35 59
-35 25 0 55 24 55 44 0 16 42 36 75 36 26 0 50 32 41 55 -3 8 -15 21 -28 29
-19 13 -30 13 -60 4 -24 -7 -35 -15 -31 -24 3 -8 0 -14 -7 -14 -6 0 -9 -4 -6
-9 4 -5 -2 -8 -11 -6 -10 2 -21 4 -24 4 -4 1 -9 12 -11 26 -5 22 -3 24 20 18
18 -4 23 -2 20 8 -3 8 -11 14 -19 14 -21 0 -28 15 -27 57 0 24 6 42 17 48 14
9 13 12 -9 29 -24 19 -25 19 -32 1 -4 -10 -3 -43 1 -74 7 -53 6 -56 -13 -56
-20 0 -21 4 -21 175 0 191 -1 195 -57 195 -24 0 -28 4 -28 30 0 20 -5 30 -15
30 -21 0 -19 40 3 56 15 12 13 13 -21 14 -35 0 -37 -2 -23 -15z m72 -166 c3
-13 2 -53 -2 -89 -6 -57 -8 -61 -15 -36 -13 47 -8 168 7 153 3 -2 7 -15 10
-28z"/>
<path d="M500 1510 c0 -5 4 -10 9 -10 6 0 13 5 16 10 3 6 -1 10 -9 10 -9 0
-16 -4 -16 -10z"/>
<path d="M2049 1490 c-20 -16 -21 -19 -6 -20 9 0 17 5 17 10 0 6 10 15 23 20
15 6 17 9 6 9 -9 1 -27 -8 -40 -19z"/>
<path d="M950 1463 c0 -33 17 -49 37 -37 32 20 20 54 -19 54 -11 0 -18 -7 -18
-17z"/>
<path d="M1640 1470 c0 -5 9 -10 20 -10 11 0 20 5 20 10 0 6 -9 10 -20 10 -11
0 -20 -4 -20 -10z"/>
<path d="M2100 1442 c0 -11 7 -36 15 -55 19 -47 19 -100 -1 -138 -13 -25 -19
-78 -15 -126 1 -15 37 -18 45 -4 4 5 1 11 -6 13 -9 3 -9 11 0 34 16 41 24 170
15 223 -5 28 -16 49 -31 59 -20 13 -22 13 -22 -6z"/>
<path d="M2018 1443 c7 -3 16 -2 19 1 4 3 -2 6 -13 5 -11 0 -14 -3 -6 -6z"/>
<path d="M905 1420 c3 -5 14 -10 23 -10 15 0 15 2 2 10 -20 13 -33 13 -25 0z"/>
<path d="M921 1344 c-28 -20 -25 -59 4 -60 11 -1 25 -2 31 -3 16 -2 24 -39 10
-45 -6 -2 -4 -5 5 -5 21 -1 29 19 29 71 0 27 -4 38 -12 35 -7 -2 -20 2 -29 9
-13 11 -19 11 -38 -2z"/>
<path d="M499 1311 c7 -5 10 -14 7 -20 -5 -7 1 -11 14 -11 18 0 19 3 10 20 -6
11 -18 20 -28 20 -13 0 -14 -2 -3 -9z"/>
<path d="M1160 1305 c-16 -19 -9 -49 13 -53 11 -2 17 3 16 15 0 10 -3 13 -6 6
-8 -22 -25 -14 -21 10 2 12 9 21 16 19 8 -1 11 2 7 8 -8 13 -10 13 -25 -5z"/>
<path d="M1207 1313 c-4 -3 -7 -19 -7 -35 0 -20 5 -28 18 -27 10 0 12 3 5 6
-15 5 -18 53 -4 53 5 0 11 -13 15 -30 4 -23 11 -30 29 -30 13 0 28 5 35 12 9
9 12 9 12 0 0 -7 3 -12 8 -12 4 0 7 16 7 35 0 43 -10 45 -24 5 -10 -30 -43
-42 -56 -20 -3 6 -1 10 4 10 6 0 11 10 11 23 0 16 -3 18 -9 8 -6 -9 -11 -10
-15 -2 -8 12 -19 14 -29 4z"/>
<path d="M1274 1305 c-3 -8 -4 -20 -1 -27 3 -7 6 -3 6 10 1 13 5 20 11 17 6
-3 10 -1 10 4 0 16 -20 13 -26 -4z"/>
<path d="M1508 1313 c19 -7 14 -26 -7 -20 -10 2 -26 0 -35 -5 -12 -7 -16 -5
-16 9 0 15 -2 16 -10 3 -9 -13 -10 -13 -10 0 0 24 -20 -10 -20 -35 0 -17 2
-17 10 -5 9 13 10 13 11 0 0 -10 3 -8 9 5 5 11 9 14 9 7 1 -10 6 -8 19 4 16
17 17 17 20 -4 2 -12 7 -22 12 -22 5 0 7 7 4 15 -8 20 6 19 22 -2 13 -17 14
-17 8 0 -3 9 -1 17 5 17 6 0 11 -7 11 -15 0 -8 5 -15 10 -15 14 0 -5 36 -22
43 -10 4 -10 8 1 15 9 7 5 9 -15 9 -16 0 -23 -2 -16 -4z"/>
<path d="M1340 1283 c0 -22 2 -25 10 -13 13 20 13 40 0 40 -5 0 -10 -12 -10
-27z"/>
<path d="M858 1273 c7 -3 16 -2 19 1 4 3 -2 6 -13 5 -11 0 -14 -3 -6 -6z"/>
<path d="M930 1270 c0 -5 5 -10 10 -10 6 0 10 5 10 10 0 6 -4 10 -10 10 -5 0
-10 -4 -10 -10z"/>
<path d="M1361 1264 c0 -11 3 -14 6 -6 3 7 2 16 -1 19 -3 4 -6 -2 -5 -13z"/>
<path d="M1885 1238 c-5 -24 -25 -247 -25 -285 0 -20 5 -23 35 -23 31 0 35 3
35 26 0 15 8 33 18 40 16 13 16 15 0 25 -19 10 -22 39 -12 99 5 27 14 39 37
50 43 20 46 63 5 68 -16 2 -28 8 -28 13 0 5 -13 9 -30 9 -23 0 -31 -5 -35 -22z"/>
<path d="M1647 1193 c-12 -11 -8 -23 8 -23 8 0 15 7 15 15 0 16 -12 20 -23 8z"/>
<path d="M1796 1183 c-11 -11 -6 -23 8 -23 8 0 17 4 20 9 7 10 -19 23 -28 14z"/>
<path d="M496 1134 c-4 -9 -4 -19 -1 -22 2 -3 7 3 11 12 4 9 4 19 1 22 -2 3
-7 -3 -11 -12z"/>
<path d="M1800 1140 c0 -5 5 -10 10 -10 6 0 10 5 10 10 0 6 -4 10 -10 10 -5 0
-10 -4 -10 -10z"/>
<path d="M543 1095 c0 -22 2 -30 4 -17 2 12 2 30 0 40 -3 9 -5 -1 -4 -23z"/>
<path d="M1785 1030 c3 -5 13 -10 21 -10 8 0 14 5 14 10 0 6 -9 10 -21 10 -11
0 -17 -4 -14 -10z"/>
<path d="M1842 1005 c0 -16 2 -22 5 -12 2 9 2 23 0 30 -3 6 -5 -1 -5 -18z"/>
<path d="M486 981 c-4 -7 -5 -15 -2 -18 9 -9 19 4 14 18 -4 11 -6 11 -12 0z"/>
<path d="M575 950 c-22 -4 -34 -8 -27 -9 6 0 12 -10 12 -21 0 -13 7 -20 20
-20 18 0 20 -7 20 -88 0 -48 -4 -92 -9 -97 -5 -6 -5 -20 -1 -31 6 -16 15 -20
34 -17 23 5 24 8 19 54 -4 34 -2 49 6 49 11 0 11 45 1 85 -9 37 -1 43 71 43
72 1 107 15 80 31 -7 5 -22 6 -33 3 -13 -3 -24 1 -30 12 -10 17 -84 20 -163 6z"/>
<path d="M2020 906 c0 -9 5 -16 10 -16 6 0 10 4 10 9 0 6 -4 13 -10 16 -5 3
-10 -1 -10 -9z"/>
<path d="M1973 873 c-18 -7 -16 -20 2 -20 8 0 15 6 15 14 0 7 -1 13 -2 12 -2
0 -9 -3 -15 -6z"/>
<path d="M1865 859 c-4 -6 -5 -12 -2 -15 2 -3 7 2 10 11 7 17 1 20 -8 4z"/>
<path d="M1910 860 c0 -5 7 -10 15 -10 8 0 15 5 15 10 0 6 -7 10 -15 10 -8 0
-15 -4 -15 -10z"/>
<path d="M1940 820 c-13 -8 -12 -10 3 -10 9 0 17 5 17 10 0 12 -1 12 -20 0z"/>
<path d="M1970 821 c0 -5 9 -7 20 -4 11 3 20 7 20 9 0 2 -9 4 -20 4 -11 0 -20
-4 -20 -9z"/>
<path d="M1073 765 c-3 -9 -3 -19 1 -22 3 -4 6 1 6 10 0 8 6 18 13 20 9 4 9 6
-1 6 -7 1 -15 -6 -19 -14z"/>
<path d="M866 755 c-3 -9 -6 -34 -6 -55 0 -53 -8 -69 -31 -63 -14 4 -19 14
-19 39 0 32 -1 33 -40 32 -40 0 -40 -1 -40 -39 0 -28 -4 -39 -15 -39 -8 0 -15
5 -15 10 0 6 -25 10 -55 10 -51 0 -55 -2 -62 -27 -12 -44 -9 -141 5 -155 8 -8
38 -13 73 -13 59 0 59 0 61 30 1 17 1 40 0 53 -1 19 4 22 44 23 57 2 61 3 70
12 4 4 2 7 -4 7 -7 0 -12 6 -12 13 0 9 30 13 108 15 59 2 177 7 262 12 85 6
167 10 183 10 27 0 27 1 11 25 -9 13 -24 27 -35 30 -10 4 -19 13 -19 20 0 34
-64 30 -73 -5 -4 -15 -13 -20 -37 -20 -17 0 -29 -4 -26 -9 3 -5 -10 -12 -29
-15 -20 -4 -33 -11 -30 -17 4 -5 0 -9 -8 -9 -7 0 -13 9 -13 21 1 12 -5 24 -13
27 -8 2 -11 1 -8 -4 3 -5 -11 -9 -31 -8 -37 1 -37 2 -43 50 l-6 49 -1 -51 c-2
-46 -4 -51 -24 -49 -20 1 -23 8 -26 48 -2 28 1 47 7 47 6 0 11 -9 11 -20 0
-11 4 -20 9 -20 4 0 6 11 3 25 -3 21 -9 24 -36 22 -21 -2 -31 -8 -32 -20 -2
-12 -1 -13 3 -2 10 32 23 13 23 -35 0 -38 -4 -50 -15 -50 -8 0 -15 6 -15 13 0
8 -3 7 -10 -3 -6 -10 -10 2 -12 40 -3 53 -20 76 -32 45z m24 -45 c0 -27 -4
-50 -10 -50 -11 0 -14 83 -3 93 12 12 13 8 13 -43z m-123 -52 c-3 -8 -6 -5 -6
6 -1 11 2 17 5 13 3 -3 4 -12 1 -19z m471 -26 c-18 -7 -38 7 -32 23 6 14 8 14
24 -2 9 -10 13 -20 8 -21z m-175 -4 c-6 -10 -63 -10 -63 0 0 4 15 7 34 7 19 0
32 -3 29 -7z m-353 -68 c0 -5 -15 -9 -33 -8 -19 1 -39 -2 -44 -5 -6 -4 -16 0
-23 8 -11 13 -5 15 44 15 31 0 56 -4 56 -10z"/>
<path d="M1041 744 c0 -11 3 -14 6 -6 3 7 2 16 -1 19 -3 4 -6 -2 -5 -13z"/>
<path d="M1880 735 c0 -8 5 -15 10 -15 6 0 10 7 10 15 0 8 -4 15 -10 15 -5 0
-10 -7 -10 -15z"/>
<path d="M1820 730 c0 -5 5 -10 10 -10 6 0 10 5 10 10 0 6 -4 10 -10 10 -5 0
-10 -4 -10 -10z"/>
<path d="M1041 694 c0 -11 3 -14 6 -6 3 7 2 16 -1 19 -3 4 -6 -2 -5 -13z"/>
<path d="M1140 670 c-13 -8 -12 -10 3 -10 9 0 17 5 17 10 0 12 -1 12 -20 0z"/>
<path d="M2012 609 c2 -6 8 -10 13 -10 5 0 11 4 13 10 2 6 -4 11 -13 11 -9 0
-15 -5 -13 -11z"/>
<path d="M864 565 c-4 -9 -2 -21 4 -27 15 -15 44 -1 40 19 -4 23 -36 29 -44 8z"/>
<path d="M760 519 c0 -5 5 -7 10 -4 6 3 10 8 10 11 0 2 -4 4 -10 4 -5 0 -10
-5 -10 -11z"/>
<path d="M1427 417 c58 -48 103 -79 103 -72 0 16 -93 95 -112 95 -17 0 -16 -3
9 -23z"/>
<path d="M1391 393 c1 -18 3 -21 6 -10 3 10 9 14 16 10 7 -4 6 1 -2 10 -18 23
-21 22 -20 -10z"/>
<path d="M1357 353 c-22 -21 15 -74 51 -72 10 0 12 3 4 6 -6 2 -10 9 -6 14 3
5 -2 12 -10 15 -19 7 -21 30 -3 37 6 3 3 6 -9 6 -11 1 -24 -2 -27 -6z"/>
<path d="M1547 319 c7 -7 15 -10 18 -7 3 3 -2 9 -12 12 -14 6 -15 5 -6 -5z"/>
<path d="M1862 290 c0 -14 2 -19 5 -12 2 6 2 18 0 25 -3 6 -5 1 -5 -13z"/>
<path d="M1861 218 c-5 -13 -5 -24 0 -26 5 -2 7 -8 3 -13 -9 -16 13 -10 37 10
20 16 21 21 10 35 -19 23 -40 20 -50 -6z"/>
</g>
</svg>
