<?xml version="1.0" standalone="no"?>
<!DOCTYPE svg PUBLIC "-//W3C//DTD SVG 20010904//EN"
 "http://www.w3.org/TR/2001/REC-SVG-20010904/DTD/svg10.dtd">
<svg version="1.0" xmlns="http://www.w3.org/2000/svg"
 width="225.000000pt" height="225.000000pt" viewBox="0 0 225.000000 225.000000"
 preserveAspectRatio="xMidYMid meet">

<g transform="translate(0.000000,225.000000) scale(0.100000,-0.100000)"
fill="#000000" stroke="none">
<path d="M661 1895 c-1 -22 -5 -46 -10 -54 -12 -19 -3 -41 18 -40 9 0 11 2 6
5 -6 2 -9 24 -7 48 2 24 2 52 -1 62 -3 11 -5 1 -6 -21z"/>
<path d="M1071 1923 c3 -20 -2 -27 -10 -14 -6 9 -10 -5 -12 -43 -2 -31 -1 -56
4 -56 4 0 7 12 7 26 0 33 17 64 35 64 9 0 12 6 9 15 -6 15 -35 22 -33 8z"/>
<path d="M1118 1923 c7 -3 16 -2 19 1 4 3 -2 6 -13 5 -11 0 -14 -3 -6 -6z"/>
<path d="M1238 1925 c-3 -3 -32 -9 -64 -14 l-59 -9 56 -1 c41 -1 58 -5 63 -17
3 -8 2 -13 -2 -10 -5 3 -9 -1 -9 -9 0 -18 7 -19 32 -2 11 7 30 12 42 11 14 -1
20 3 16 12 -4 11 7 14 43 14 68 0 43 17 -32 22 -52 3 -59 2 -48 -10 8 -7 14
-19 14 -25 0 -7 -4 -6 -10 3 -5 8 -10 11 -10 6 0 -5 -7 -3 -15 4 -8 7 -12 16
-9 21 6 10 1 12 -8 4z"/>
<path d="M1625 1923 c17 -3 20 -11 18 -51 -2 -34 0 -41 6 -27 8 19 9 19 13 -5
4 -16 6 -9 7 21 1 49 -12 70 -43 68 -21 -2 -21 -2 -1 -6z"/>
<path d="M1484 1909 c-3 -5 9 -9 25 -9 17 0 31 4 31 9 0 5 -11 9 -25 9 -14 0
-28 -4 -31 -9z"/>
<path d="M1578 1903 c12 -2 30 -2 40 0 9 3 -1 5 -23 4 -22 0 -30 -2 -17 -4z"/>
<path d="M710 1825 c0 -16 6 -25 15 -25 8 0 15 7 15 15 0 8 6 15 13 15 8 0 7
4 -3 10 -26 17 -40 11 -40 -15z"/>
<path d="M1247 1830 c-16 -19 -16 -20 11 -20 19 0 23 3 13 9 -7 5 -10 14 -7
20 11 18 2 13 -17 -9z"/>
<path d="M1303 1813 c9 -2 25 -2 35 0 9 3 1 5 -18 5 -19 0 -27 -2 -17 -5z"/>
<path d="M980 1775 c0 -19 -4 -35 -9 -35 -14 0 -22 -73 -8 -82 9 -6 9 -8 0 -8
-9 0 -13 -16 -13 -48 0 -26 6 -54 13 -61 10 -11 9 -12 -3 -6 -12 7 -13 6 -3
-6 6 -8 13 -27 16 -44 3 -22 4 -17 6 18 0 26 6 47 12 47 5 0 8 3 6 8 -5 6 78
7 448 1 162 -2 269 0 264 5 -2 3 -32 6 -66 7 -38 1 -61 6 -60 13 1 6 -3 10
-10 9 -6 -1 -19 14 -28 33 -13 29 -14 38 -4 48 9 8 10 8 4 -4 -5 -8 -4 -11 0
-7 16 14 14 37 -5 47 -9 5 -20 7 -23 4 -3 -3 -4 1 -3 10 1 8 5 19 9 22 10 10
9 24 -2 24 -5 0 -12 -13 -16 -30 -4 -16 -11 -30 -15 -30 -5 0 -7 -7 -4 -15 4
-8 10 -12 15 -9 13 8 12 3 -17 -61 -19 -44 -28 -55 -37 -46 -6 6 -19 11 -29
11 -28 0 -57 38 -52 68 3 15 9 31 14 37 5 6 2 18 -7 30 -15 20 -15 20 -8 -2 4
-16 2 -23 -7 -23 -8 0 -19 -12 -25 -27 l-11 -28 -1 33 c-1 32 -1 32 -48 31
-30 -1 -38 -4 -20 -6 56 -9 68 -71 22 -116 -18 -18 -50 -24 -40 -7 3 6 1 10
-6 10 -33 0 -52 77 -25 100 13 10 13 16 -2 45 l-17 33 -72 -5 c-92 -7 -127 1
-120 27 3 11 1 20 -4 20 -5 0 -9 -16 -9 -35z m64 -40 c11 -8 30 -15 43 -15 47
0 59 -96 17 -129 -28 -22 -50 -28 -39 -11 3 6 1 10 -5 10 -25 0 -48 35 -46 71
2 22 -2 36 -9 36 -7 0 -10 -9 -7 -20 3 -14 1 -18 -6 -13 -13 8 -17 68 -5 79
11 11 37 7 57 -8z m69 8 c-7 -2 -19 -2 -25 0 -7 3 -2 5 12 5 14 0 19 -2 13 -5z
m67 -18 c19 -21 21 -25 7 -25 -9 0 -17 7 -17 16 0 8 -4 13 -8 10 -5 -3 -9 1
-9 9 0 19 -1 19 27 -10z m-17 -56 c-8 -29 -13 -23 -13 14 0 22 3 28 9 18 5 -7
6 -22 4 -32z m274 -95 c-3 -3 -12 -4 -19 -1 -8 3 -5 6 6 6 11 1 17 -2 13 -5z"/>
<path d="M1050 1658 c0 -31 17 -45 33 -29 8 8 5 17 -11 33 l-22 22 0 -26z"/>
<path d="M1204 1758 c-6 -10 -8 -10 95 -8 56 1 87 -3 91 -11 9 -14 30 -4 30
14 0 14 -208 19 -216 5z"/>
<path d="M1441 1754 c0 -11 3 -14 6 -6 3 7 2 16 -1 19 -3 4 -6 -2 -5 -13z"/>
<path d="M1543 1758 c-2 -5 15 -8 39 -9 32 0 38 -2 23 -9 -18 -7 -19 -8 -3
-15 10 -4 16 -11 13 -16 -8 -12 29 -29 65 -29 27 0 30 -2 24 -25 -4 -15 -2
-25 5 -25 14 0 51 -36 51 -50 0 -5 -10 -11 -22 -11 -17 -1 -19 -2 -5 -6 9 -2
17 -10 18 -16 2 -30 -3 -90 -11 -118 -12 -42 -3 -59 33 -59 29 0 30 1 12 19
-14 17 -16 31 -10 90 6 61 10 71 26 71 18 0 18 1 -1 20 -12 12 -17 26 -13 32
4 7 8 27 10 45 3 30 1 33 -24 34 l-28 1 30 13 c17 8 38 12 48 9 16 -5 17 -3 6
14 -18 29 -60 35 -66 11 -7 -24 -63 -27 -63 -4 0 9 9 15 25 15 22 0 24 2 13
14 -9 10 -37 13 -101 12 -49 0 -91 -4 -94 -8z m150 -5 c-7 -2 -19 -2 -25 0 -7
3 -2 5 12 5 14 0 19 -2 13 -5z m-9 -39 c3 -8 2 -12 -4 -9 -6 3 -10 10 -10 16
0 14 7 11 14 -7z m60 -63 c-17 -19 -28 -9 -19 18 5 17 9 18 20 8 11 -10 11
-14 -1 -26z"/>
<path d="M700 1689 c0 -13 8 -16 33 -13 17 1 34 4 37 5 3 1 8 1 13 0 4 0 7 4
7 9 0 6 -16 10 -35 10 -21 0 -35 -5 -35 -12 0 -9 -4 -8 -10 2 -8 13 -10 13
-10 -1z"/>
<path d="M800 1689 c0 -19 66 -23 74 -4 2 7 -7 11 -25 11 -16 0 -29 -4 -29
-10 0 -6 -5 -4 -10 4 -8 13 -10 13 -10 -1z"/>
<path d="M1820 1680 c0 -5 5 -10 11 -10 5 0 7 5 4 10 -3 6 -8 10 -11 10 -2 0
-4 -4 -4 -10z"/>
<path d="M1230 1640 c0 -15 5 -20 18 -18 9 2 17 10 17 18 0 8 -8 16 -17 18
-13 2 -18 -3 -18 -18z"/>
<path d="M1410 1640 c0 -11 7 -20 15 -20 8 0 15 9 15 20 0 11 -7 20 -15 20 -8
0 -15 -9 -15 -20z"/>
<path d="M1832 1640 c0 -14 2 -19 5 -12 2 6 2 18 0 25 -3 6 -5 1 -5 -13z"/>
<path d="M1594 1639 c-10 -17 13 -36 27 -22 12 12 4 33 -11 33 -5 0 -12 -5
-16 -11z"/>
<path d="M1861 1625 c2 -11 -3 -37 -10 -58 -7 -20 -11 -43 -8 -50 2 -6 8 0 12
16 4 15 11 27 16 27 10 0 4 69 -7 79 -3 3 -5 -3 -3 -14z"/>
<path d="M1828 1593 c7 -3 16 -2 19 1 4 3 -2 6 -13 5 -11 0 -14 -3 -6 -6z"/>
<path d="M642 1548 c3 -7 15 -15 29 -18 13 -3 25 -14 27 -24 3 -16 -2 -18 -37
-14 -46 4 -50 -3 -21 -34 24 -26 27 -47 4 -23 -9 9 -19 13 -23 9 -3 -3 2 -11
12 -18 52 -32 54 -35 28 -56 -19 -17 -23 -27 -18 -55 l6 -35 -56 0 c-30 0 -81
-7 -112 -15 -31 -8 -85 -13 -119 -12 -45 2 -68 -2 -80 -13 -10 -8 -43 -37 -75
-63 -51 -44 -57 -53 -57 -87 l0 -38 93 4 c50 3 180 8 287 13 124 6 196 13 198
20 2 6 16 12 30 12 17 1 21 3 10 6 -29 7 -21 22 12 21 16 -1 32 -8 35 -16 7
-20 4 -22 -39 -24 l-36 -1 0 -139 0 -138 148 0 147 0 -3 112 c-4 168 -9 180
-11 31 l-1 -133 -130 0 c-80 0 -130 4 -130 10 0 6 10 10 23 10 62 1 67 7 67
86 0 43 -4 74 -10 74 -5 0 -10 -18 -10 -40 0 -53 -18 -90 -45 -90 -20 0 -21 4
-17 68 2 42 9 71 18 78 8 6 14 16 14 23 0 6 10 11 23 12 92 3 92 3 95 28 5 30
-6 71 -18 71 -5 0 -14 -15 -19 -32 -6 -23 -10 -27 -11 -13 -1 11 -3 25 -5 30
-1 6 -3 18 -3 28 -1 10 -10 17 -23 17 -14 0 -19 5 -17 18 2 13 17 18 68 22 62
5 65 6 68 33 3 21 9 27 28 27 13 0 24 5 24 11 0 7 15 9 43 5 23 -3 47 -5 54
-5 6 -1 13 -18 15 -38 2 -27 8 -39 21 -41 14 -3 17 4 17 37 0 30 4 41 16 41 8
0 12 5 9 10 -9 15 28 12 51 -4 13 -10 34 -13 65 -9 29 3 49 1 53 -6 4 -6 16
-11 27 -11 12 0 19 -7 19 -19 0 -31 21 -38 120 -38 52 0 82 2 65 4 -16 3 -34
9 -40 14 -5 5 -17 9 -27 9 -10 0 -18 5 -18 10 0 6 -6 10 -12 9 -28 -3 -38 2
-38 19 0 13 2 14 9 3 7 -10 13 -11 30 -1 19 10 22 9 19 -6 -2 -9 3 -19 11 -22
10 -3 12 0 8 12 -4 10 -7 22 -7 27 0 6 -6 9 -12 8 -7 -1 -20 0 -28 4 -33 12
-80 16 -80 6 0 -6 -17 -9 -42 -6 -58 7 -78 16 -71 33 7 19 -25 18 -64 -1 -18
-9 -48 -14 -70 -12 -21 2 -46 0 -55 -5 -9 -4 -28 -4 -43 2 -17 7 -24 7 -20 0
4 -6 -7 -10 -24 -10 l-31 0 -2 63 -1 62 -7 -50 c-6 -41 -8 -46 -15 -27 -4 12
-12 22 -17 22 -5 0 -5 6 0 17 7 11 6 21 -3 30 -7 7 -12 21 -11 30 2 10 -2 21
-8 25 -8 5 -7 11 2 20 6 6 12 22 12 35 0 23 0 23 -146 23 -110 0 -145 -3 -142
-12z m108 -77 c0 -5 8 -12 18 -14 9 -3 5 -4 -10 -4 -25 1 -42 27 -18 27 6 0
10 -4 10 -9z m84 -52 c-11 -18 -21 1 -16 28 5 27 5 27 14 4 4 -13 5 -27 2 -32z
m-52 -41 c-7 -7 -12 -8 -12 -2 0 14 12 26 19 19 2 -3 -1 -11 -7 -17z m155 -30
c-3 -8 -6 -5 -6 6 -1 11 2 17 5 13 3 -3 4 -12 1 -19z m-150 -20 c6 -5 10 -15
8 -21 -2 -7 -6 -24 -9 -39 -5 -23 -12 -28 -37 -28 -25 0 -29 3 -24 19 3 11 1
22 -5 26 -14 9 -13 45 3 45 8 0 7 4 -3 10 -11 7 -5 8 20 4 19 -4 40 -11 47
-16z m653 -73 c0 -8 -7 -15 -15 -15 -26 0 -18 20 13 29 1 1 2 -6 2 -14z
m-1133 -29 c-10 -8 -14 -16 -9 -17 6 -2 4 -9 -3 -16 -10 -9 -14 -8 -18 8 -4
14 1 23 16 29 31 12 35 11 14 -4z m73 -6 c-14 -4 -32 -8 -40 -9 -13 -1 -13 0
0 9 8 5 26 9 40 9 l25 -1 -25 -8z m57 -6 c-3 -3 -12 -4 -19 -1 -8 3 -5 6 6 6
11 1 17 -2 13 -5z m124 -17 c4 -5 33 -7 69 -4 48 5 66 2 77 -9 14 -13 12 -14
-13 -9 -16 4 -35 8 -41 11 -7 2 -13 -1 -13 -6 0 -5 8 -11 18 -13 9 -3 1 -5
-20 -6 -20 0 -38 3 -40 7 -1 5 -30 11 -63 15 -40 3 -53 2 -40 -4 15 -7 12 -8
-12 -3 -17 3 -49 0 -70 -6 -21 -7 -50 -10 -63 -8 -18 3 -10 7 30 16 l55 11
-60 -4 c-49 -4 -56 -3 -35 6 14 6 51 9 83 6 48 -4 57 -3 53 9 -4 11 3 13 37 8
23 -4 45 -11 48 -17z m-271 -37 c0 -5 -4 -10 -10 -10 -5 0 -10 5 -10 10 0 6 5
10 10 10 6 0 10 -4 10 -10z m217 -6 c-3 -3 -12 -4 -19 -1 -8 3 -5 6 6 6 11 1
17 -2 13 -5z m291 -11 c-16 -2 -40 -2 -55 0 -16 2 -3 4 27 4 30 0 43 -2 28 -4z
m-82 -17 c18 -14 18 -15 1 -22 -10 -3 -23 -2 -30 5 -7 7 -67 12 -166 13 l-156
2 115 6 c205 11 215 11 236 -4z m-419 -2 c-1 -2 -33 -9 -70 -17 -61 -12 -67
-12 -67 3 0 13 12 16 70 16 39 1 69 0 67 -2z"/>
<path d="M740 1321 c0 -10 30 -24 37 -17 3 3 2 9 -2 15 -8 13 -35 15 -35 2z"/>
<path d="M938 1490 c-3 -17 -1 -33 4 -36 4 -3 8 11 8 30 0 44 -6 47 -12 6z"/>
<path d="M1440 1507 c-37 -19 -54 -61 -41 -99 14 -41 38 -57 83 -58 28 0 42 7
62 31 29 34 34 64 11 73 -8 3 -15 14 -15 25 0 12 -11 23 -31 30 -39 14 -38 14
-69 -2z m-10 -103 c0 -8 -5 -12 -10 -9 -6 4 -8 11 -5 16 9 14 15 11 15 -7z"/>
<path d="M1830 1467 c0 -21 -4 -46 -10 -56 -7 -14 -3 -23 17 -41 22 -19 32
-21 77 -15 28 3 56 11 63 17 7 6 49 10 93 11 58 0 80 4 80 13 0 10 -19 12 -74
10 -41 -1 -73 1 -70 5 2 4 -3 10 -12 13 -21 8 -36 8 -31 -1 3 -5 1 -17 -4 -28
-6 -15 -8 -11 -8 19 -1 33 -4 38 -21 33 -11 -3 -18 -2 -15 3 3 4 -3 11 -12 14
-9 4 -19 2 -22 -3 -8 -12 -24 -2 -39 24 -10 18 -11 15 -12 -18z m103 -94 c-7
-2 -21 -2 -30 0 -10 3 -4 5 12 5 17 0 24 -2 18 -5z"/>
<path d="M1583 1450 c0 -25 2 -35 4 -22 2 12 2 32 0 45 -2 12 -4 2 -4 -23z"/>
<path d="M1067 1411 c8 -36 12 -41 29 -41 8 0 14 10 15 23 0 21 1 21 9 2 6
-13 9 -15 9 -5 1 24 -12 37 -41 42 -26 5 -27 3 -21 -21z"/>
<path d="M1042 1360 c0 -14 2 -19 5 -12 2 6 2 18 0 25 -3 6 -5 1 -5 -13z"/>
<path d="M1021 1240 c0 -26 -7 -52 -13 -59 -10 -11 -10 -14 0 -18 6 -3 13 -19
13 -36 1 -23 4 -18 9 18 4 28 4 70 0 95 l-7 45 -2 -45z"/>
<path d="M1556 1261 c-4 -7 -5 -15 -2 -18 9 -9 19 4 14 18 -4 11 -6 11 -12 0z"/>
<path d="M1580 1255 c0 -8 15 -17 37 -21 31 -6 34 -8 18 -15 -15 -6 -11 -8 18
-8 26 -1 36 3 31 11 -4 6 -3 8 3 5 5 -3 8 -20 5 -37 -3 -22 0 -30 11 -30 10 0
17 11 19 28 2 20 8 27 23 25 22 -2 35 13 35 42 0 15 -2 17 -9 6 -7 -10 -10
-10 -16 -1 -6 9 -12 7 -24 -8 -12 -17 -19 -19 -31 -11 -12 9 -12 10 3 5 12 -4
17 -2 14 6 -2 7 -13 12 -23 10 -49 -7 -86 -7 -90 0 -8 13 -24 9 -24 -7z"/>
<path d="M2000 1142 c0 -44 -3 -113 -6 -155 l-7 -77 57 0 c52 0 57 2 67 27 14
37 14 220 0 256 -10 24 -15 27 -61 27 l-50 0 0 -78z"/>
<path d="M1373 1123 c9 -2 25 -2 35 0 9 3 1 5 -18 5 -19 0 -27 -2 -17 -5z"/>
<path d="M1144 978 c-3 -4 2 -8 10 -8 8 0 17 4 20 8 3 5 -2 9 -10 9 -8 0 -17
-4 -20 -9z"/>
<path d="M1745 973 c-11 -10 -14 -10 -18 0 -3 7 -6 5 -6 -5 -1 -13 7 -18 29
-18 17 0 30 5 30 12 0 9 3 9 12 0 17 -17 49 -15 42 2 -7 19 -73 26 -89 9z"/>
<path d="M1664 961 c8 -7 19 -10 25 -7 18 12 12 21 -14 21 -20 0 -22 -2 -11
-14z"/>
<path d="M1842 969 c2 -6 8 -10 13 -10 5 0 11 4 13 10 2 6 -4 11 -13 11 -9 0
-15 -5 -13 -11z"/>
<path d="M1258 933 c7 -3 16 -2 19 1 4 3 -2 6 -13 5 -11 0 -14 -3 -6 -6z"/>
<path d="M1800 916 c0 -9 5 -16 10 -16 6 0 10 4 10 9 0 6 -4 13 -10 16 -5 3
-10 -1 -10 -9z"/>
<path d="M1138 913 c7 -3 16 -2 19 1 4 3 -2 6 -13 5 -11 0 -14 -3 -6 -6z"/>
<path d="M1198 913 c7 -3 16 -2 19 1 4 3 -2 6 -13 5 -11 0 -14 -3 -6 -6z"/>
<path d="M1263 913 c20 -2 54 -2 75 0 20 2 3 4 -38 4 -41 0 -58 -2 -37 -4z"/>
<path d="M1388 913 c6 -2 18 -2 25 0 6 3 1 5 -13 5 -14 0 -19 -2 -12 -5z"/>
<path d="M1600 869 c0 -26 4 -29 31 -29 26 0 29 3 24 20 -6 20 -3 21 112 18
134 -3 163 -23 33 -23 -44 1 -80 -3 -80 -7 0 -4 35 -9 78 -10 42 0 86 -1 97
-2 15 -1 21 6 23 27 l3 27 -113 2 c-62 0 -134 2 -160 3 -47 2 -48 1 -48 -26z"/>
<path d="M1670 850 c0 -5 9 -10 20 -10 11 0 20 5 20 10 0 6 -9 10 -20 10 -11
0 -20 -4 -20 -10z"/>
<path d="M1991 844 c0 -11 3 -14 6 -6 3 7 2 16 -1 19 -3 4 -6 -2 -5 -13z"/>
<path d="M161 824 c0 -11 3 -14 6 -6 3 7 2 16 -1 19 -3 4 -6 -2 -5 -13z"/>
<path d="M170 736 c0 -8 4 -17 9 -20 5 -4 7 3 4 14 -6 23 -13 26 -13 6z"/>
<path d="M1760 733 c-22 -9 -30 -24 -30 -60 0 -23 -5 -33 -15 -33 -8 0 -15 -5
-15 -11 0 -5 3 -8 8 -6 4 2 15 -4 25 -15 16 -17 14 -23 -8 -18 -5 1 -5 -4 2
-11 10 -10 15 -9 28 1 8 7 18 10 22 6 3 -3 2 -6 -4 -6 -6 0 -9 -9 -6 -19 4
-16 -2 -21 -34 -26 -21 -4 -45 -9 -53 -12 -8 -4 -18 -5 -22 -5 -5 1 -8 -3 -8
-10 0 -6 -3 -8 -7 -4 -4 3 -13 -4 -20 -16 -11 -20 -12 -14 -13 50 l0 72 -102
1 c-57 1 -116 0 -133 -2 -16 -2 -118 -2 -225 -1 -107 1 -212 2 -232 2 -21 0
-38 5 -38 11 0 5 6 9 13 8 6 -1 149 0 317 1 202 1 293 5 270 11 -19 5 -230 9
-467 10 -258 0 -435 4 -438 10 -4 5 -50 8 -103 7 -90 -1 -93 -2 -37 -8 l60 -7
-59 -1 -59 -2 5 -110 c2 -60 7 -112 10 -115 3 -3 44 -9 92 -12 l86 -6 -4 44
c-2 24 -5 61 -5 82 -1 30 -5 37 -22 37 -12 0 -17 4 -14 11 4 6 13 8 21 5 8 -3
14 0 13 7 -4 29 4 40 11 17 4 -14 8 -65 9 -113 1 -64 4 -87 13 -86 26 3 36 -2
40 -19 5 -18 29 -19 441 -25 240 -3 445 -3 456 0 11 3 23 14 27 25 5 17 11 18
47 12 23 -4 66 -7 95 -6 30 2 52 -2 52 -8 0 -18 26 -11 47 13 34 37 46 69 53
139 6 66 5 68 -20 78 -23 9 -23 10 -2 6 21 -4 23 -2 17 22 -10 40 -39 87 -56
89 -7 1 -21 -1 -29 -4z m-1222 -119 c-15 -15 -18 -15 -39 0 -23 16 -23 16 16
16 36 0 38 -1 23 -16z m302 6 c0 -5 -2 -10 -4 -10 -3 0 -8 5 -11 10 -3 6 -1
10 4 10 6 0 11 -4 11 -10z m960 0 c0 -5 -5 -10 -11 -10 -5 0 -7 5 -4 10 3 6 8
10 11 10 2 0 4 -4 4 -10z m-1172 -58 c1 -15 4 -42 6 -59 3 -18 0 -33 -5 -33
-5 0 -9 -9 -9 -20 0 -11 -7 -20 -15 -20 -12 0 -15 15 -15 78 0 43 3 81 6 85
12 12 30 -5 32 -31z m86 11 c6 -18 -2 -124 -9 -131 -14 -15 -25 19 -25 79 0
53 3 69 14 69 8 0 17 -8 20 -17z m88 -39 c3 -62 -6 -98 -24 -92 -9 3 -14 30
-16 76 -3 66 -1 72 17 72 16 0 20 -8 23 -56z m77 47 c11 -7 12 -20 1 -75 -16
-87 -34 -82 -38 12 -3 74 3 84 37 63z m87 0 c-4 -5 -2 -11 4 -13 6 -2 8 -21 4
-50 -4 -26 -11 -45 -15 -42 -5 3 -9 -4 -9 -16 0 -13 -5 -20 -12 -18 -8 3 -14
31 -16 76 -3 72 -3 72 23 72 14 0 24 -4 21 -9z m90 -51 c1 -43 -3 -59 -18 -74
-11 -10 -21 -16 -22 -15 -2 2 -7 37 -10 77 l-7 73 28 -3 c27 -3 28 -5 29 -58z
m86 5 c3 -48 0 -59 -20 -75 -12 -11 -24 -20 -27 -20 -7 0 -6 48 1 104 5 35 11
46 24 46 15 0 19 -10 22 -55z m82 39 c14 -36 2 -129 -15 -118 -5 3 -12 -2 -15
-11 -11 -28 -24 4 -24 62 0 63 7 83 30 83 10 0 21 -7 24 -16z m84 -55 c3 -64
2 -67 -22 -71 -14 -3 -28 -3 -31 0 -8 8 -6 128 2 136 4 4 16 6 28 4 17 -3 20
-11 23 -69z m80 -2 c2 -46 -1 -67 -8 -62 -5 3 -10 0 -10 -7 0 -10 -2 -10 -9 1
-7 11 -10 10 -14 -5 -3 -14 -5 -12 -7 9 -1 26 -2 121 -1 133 1 3 11 4 24 2 20
-3 22 -9 25 -71z m82 6 c0 -48 -3 -64 -10 -53 -9 13 -11 13 -20 0 -5 -8 -10
-22 -11 -30 -1 -8 -4 -1 -8 15 -4 17 -4 51 -1 77 4 26 3 45 -2 42 -4 -3 -8 0
-8 5 0 6 14 11 30 11 l30 0 0 -67z m98 11 c3 -44 0 -52 -17 -57 -10 -2 -24 0
-30 6 -7 7 -8 3 -4 -12 3 -12 1 -21 -6 -21 -6 0 -11 15 -11 34 0 19 -3 43 -6
53 -5 15 -4 15 5 3 9 -12 11 -9 11 16 0 27 3 31 28 30 25 -1 27 -4 30 -52z
m-1048 -51 c-8 -2 -25 -9 -37 -15 -13 -6 -26 -8 -30 -5 -3 4 1 7 10 7 10 0 17
5 17 10 0 6 12 10 28 9 15 0 20 -3 12 -6z m1050 -33 c0 -5 -5 -10 -11 -10 -5
0 -7 5 -4 10 3 6 8 10 11 10 2 0 4 -4 4 -10z"/>
<path d="M1470 699 c0 -11 4 -18 10 -14 5 3 7 12 3 20 -7 21 -13 19 -13 -6z"/>
<path d="M197 689 c7 -7 15 -10 18 -7 3 3 -2 9 -12 12 -14 6 -15 5 -6 -5z"/>
<path d="M1542 635 c4 -5 22 -7 118 -15 24 -2 24 -3 -5 -10 -30 -8 -30 -8 6
-7 30 1 35 4 31 19 -4 15 -15 18 -80 18 -41 0 -73 -2 -70 -5z"/>
<path d="M1688 573 c7 -3 16 -2 19 1 4 3 -2 6 -13 5 -11 0 -14 -3 -6 -6z"/>
</g>
</svg>
