<svg xmlns="http://www.w3.org/2000/svg" width="186.165" height="193.103" viewBox="0 0 186.165 193.103">
  <g id="Grupo_15858" data-name="Grupo 15858" transform="translate(732.812 -1314.507)">
    <path id="Trazado_24870" data-name="Trazado 24870" d="M-691.341,1334.082c49.406-27.214,100.925-4.088,129.8,65.456,8.06,19.412,14.532,41.494,11.54,62.725-1.12,7.949-4.2,16.421-9.294,22.7-3.368,4.145-8.142,7.388-13.461,7.892-6.488.615-12.643-2.821-17.934-6.623-11.989-8.612-24.414-13.552-38.6-17.677-24.4-7.1-49.09-11.317-74.189-14.754-7.8-1.068-15.812-3.286-21.555-8.669-10.441-9.791-11.32-27.54-11.07-40.938a78.173,78.173,0,0,1,22.384-53.412A96.623,96.623,0,0,1-691.341,1334.082Z" transform="translate(-2050.644 765.248) rotate(-90)" fill="#ffeaaf"/>
    <g id="Grupo_15857" data-name="Grupo 15857" transform="translate(-732.812 1323.522)">
      <circle id="Elipse_887" data-name="Elipse 887" cx="61.856" cy="61.856" r="61.856" transform="translate(4.656 92.043) rotate(-45)" fill="#f5e9e2"/>
      <g id="Grupo_15855" data-name="Grupo 15855">
        <g id="Grupo_15814" data-name="Grupo 15814" transform="translate(86.69)">
          <g id="Grupo_15813" data-name="Grupo 15813" transform="translate(3.875 6.472)">
            <path id="Trazado_24871" data-name="Trazado 24871" d="M-665.522,1328.25l-.033,50.761a12.734,12.734,0,0,0,1.321,5.655l.192.39a12.74,12.74,0,0,0,1.878-6.649l.032-50.157Z" transform="translate(665.555 -1328.25)" fill="#36769d"/>
          </g>
          <path id="Trazado_24872" data-name="Trazado 24872" d="M-657.3,1328.971a5.586,5.586,0,0,1-5.586,5.586,5.586,5.586,0,0,1-5.587-5.586,5.586,5.586,0,0,1,5.587-5.586A5.586,5.586,0,0,1-657.3,1328.971Z" transform="translate(668.468 -1323.385)" fill="#fedf57"/>
        </g>
        <g id="Grupo_15816" data-name="Grupo 15816" transform="translate(100.32 3.762)">
          <g id="Grupo_15815" data-name="Grupo 15815" transform="translate(0 5.946)">
            <path id="Trazado_24873" data-name="Trazado 24873" d="M-642.829,1330.683l-14.837,48.543a12.735,12.735,0,0,0-.386,5.795l.07.428a12.751,12.751,0,0,0,3.735-5.812l14.659-47.966Z" transform="translate(658.222 -1330.683)" fill="#36769d"/>
          </g>
          <path id="Trazado_24874" data-name="Trazado 24874" d="M-638.518,1333.429a5.588,5.588,0,0,1-6.973,3.714,5.585,5.585,0,0,1-3.713-6.972,5.585,5.585,0,0,1,6.972-3.714A5.586,5.586,0,0,1-638.518,1333.429Z" transform="translate(661.119 -1326.213)" fill="#2cd7fe"/>
        </g>
        <g id="Grupo_15818" data-name="Grupo 15818" transform="translate(108.324 14.743)">
          <g id="Grupo_15817" data-name="Grupo 15817" transform="translate(0 5.386)">
            <path id="Trazado_24875" data-name="Trazado 24875" d="M-621.737,1338.517l-28.35,42.1a12.727,12.727,0,0,0-2.059,5.43l-.058.43a12.724,12.724,0,0,0,5.268-4.47l28.012-41.6Z" transform="translate(652.205 -1338.517)" fill="#36769d"/>
          </g>
          <path id="Trazado_24876" data-name="Trazado 24876" d="M-621.859,1343.172a5.587,5.587,0,0,1-7.753,1.518,5.585,5.585,0,0,1-1.518-7.751,5.585,5.585,0,0,1,7.751-1.519A5.586,5.586,0,0,1-621.859,1343.172Z" transform="translate(658.851 -1334.468)" fill="#3aaf5c"/>
        </g>
        <g id="Grupo_15820" data-name="Grupo 15820" transform="translate(114.695 31.44)">
          <g id="Grupo_15819" data-name="Grupo 15819" transform="translate(0 5.388)">
            <path id="Trazado_24877" data-name="Trazado 24877" d="M-604.283,1351.07l-39.4,32.006a12.738,12.738,0,0,0-3.554,4.592l-.181.4a12.738,12.738,0,0,0,6.343-2.738l38.929-31.625Z" transform="translate(647.416 -1351.07)" fill="#36769d"/>
          </g>
          <circle id="Elipse_888" data-name="Elipse 888" cx="5.586" cy="5.586" r="5.586" transform="matrix(0.103, -0.995, 0.995, 0.103, 38.75, 11.112)" fill="#fb668d"/>
        </g>
        <g id="Grupo_15822" data-name="Grupo 15822" transform="translate(119.118 53.986)">
          <g id="Grupo_15821" data-name="Grupo 15821" transform="translate(0 4.368)">
            <path id="Trazado_24878" data-name="Trazado 24878" d="M-592.043,1367.252l-47.021,19.122a12.726,12.726,0,0,0-4.738,3.356l-.289.325a12.748,12.748,0,0,0,6.865-.769l46.461-18.9Z" transform="translate(644.091 -1367.252)" fill="#36769d"/>
          </g>
          <path id="Trazado_24879" data-name="Trazado 24879" d="M-600.377,1374.728a5.586,5.586,0,0,1-7.28-3.065,5.586,5.586,0,0,1,3.066-7.281,5.587,5.587,0,0,1,7.28,3.065A5.586,5.586,0,0,1-600.377,1374.728Z" transform="translate(655.986 -1363.968)" fill="#8e5397"/>
        </g>
        <g id="Grupo_15824" data-name="Grupo 15824" transform="translate(121.209 76.939)">
          <g id="Grupo_15823" data-name="Grupo 15823" transform="translate(0 5.894)">
            <path id="Trazado_24880" data-name="Trazado 24880" d="M-586.083,1385.654l-50.553,4.576a12.742,12.742,0,0,0-5.511,1.828l-.371.228a12.734,12.734,0,0,0,6.792,1.266l49.952-4.523Z" transform="translate(642.519 -1385.654)" fill="#36769d"/>
          </g>
          <circle id="Elipse_889" data-name="Elipse 889" cx="5.586" cy="5.586" r="5.586" transform="translate(49.987 10.011) rotate(-63.652)" fill="#fe922e"/>
        </g>
        <g id="Grupo_15826" data-name="Grupo 15826" transform="translate(120.787 97.502)">
          <g id="Grupo_15825" data-name="Grupo 15825">
            <path id="Trazado_24881" data-name="Trazado 24881" d="M-586.921,1407.317l-49.691-10.368a12.732,12.732,0,0,0-5.8.141l-.42.109a12.723,12.723,0,0,0,6.126,3.191l49.1,10.244Z" transform="translate(642.836 -1396.681)" fill="#36769d"/>
          </g>
          <circle id="Elipse_890" data-name="Elipse 890" cx="5.586" cy="5.586" r="5.586" transform="translate(50.856 6.874)" fill="#fa4046"/>
        </g>
        <g id="Grupo_15828" data-name="Grupo 15828" transform="translate(117.887 106.08)">
          <g id="Grupo_15827" data-name="Grupo 15827">
            <path id="Trazado_24882" data-name="Trazado 24882" d="M-594.484,1429.117l-44.5-24.411a12.729,12.729,0,0,0-5.594-1.558l-.434-.019a12.729,12.729,0,0,0,4.929,4.841l43.976,24.119Z" transform="translate(645.016 -1403.13)" fill="#36769d"/>
          </g>
          <path id="Trazado_24883" data-name="Trazado 24883" d="M-608.346,1430.379a5.586,5.586,0,0,1-2.216-7.582,5.586,5.586,0,0,1,7.582-2.216,5.586,5.586,0,0,1,2.216,7.582A5.586,5.586,0,0,1-608.346,1430.379Z" transform="translate(656.167 -1397.594)" fill="#fedf57"/>
        </g>
        <g id="Grupo_15830" data-name="Grupo 15830" transform="translate(112.762 112.944)">
          <g id="Grupo_15829" data-name="Grupo 15829">
            <path id="Trazado_24884" data-name="Trazado 24884" d="M-608.113,1447.887l-35.45-36.33a12.72,12.72,0,0,0-4.9-3.122l-.41-.145a12.741,12.741,0,0,0,3.3,6.068l35.029,35.9Z" transform="translate(648.869 -1408.29)" fill="#36769d"/>
          </g>
          <path id="Trazado_24885" data-name="Trazado 24885" d="M-621.276,1444.706a5.585,5.585,0,0,1,.092-7.9,5.585,5.585,0,0,1,7.9.092,5.585,5.585,0,0,1-.092,7.9A5.588,5.588,0,0,1-621.276,1444.706Z" transform="translate(657.456 -1399.398)" fill="#2cd7fe"/>
        </g>
        <g id="Grupo_15832" data-name="Grupo 15832" transform="translate(105.825 118.015)">
          <g id="Grupo_15831" data-name="Grupo 15831">
            <path id="Trazado_24886" data-name="Trazado 24886" d="M-626.616,1461.865l-23.312-45.091a12.73,12.73,0,0,0-3.773-4.414l-.35-.258a12.726,12.726,0,0,0,1.39,6.767l23.034,44.554Z" transform="translate(654.084 -1412.102)" fill="#36769d"/>
          </g>
          <path id="Trazado_24887" data-name="Trazado 24887" d="M-637.823,1454.639a5.587,5.587,0,0,1,2.392-7.529,5.587,5.587,0,0,1,7.529,2.392,5.588,5.588,0,0,1-2.392,7.529A5.587,5.587,0,0,1-637.823,1454.639Z" transform="translate(659.247 -1400.748)" fill="#3aaf5c"/>
        </g>
        <g id="Grupo_15834" data-name="Grupo 15834" transform="translate(96.922 120.852)">
          <g id="Grupo_15833" data-name="Grupo 15833">
            <path id="Trazado_24888" data-name="Trazado 24888" d="M-648.2,1469.835l-9.148-49.929a12.719,12.719,0,0,0-2.32-5.323l-.259-.348a12.73,12.73,0,0,0-.645,6.877l9.039,49.336Z" transform="translate(660.777 -1414.235)" fill="#36769d"/>
          </g>
          <path id="Trazado_24889" data-name="Trazado 24889" d="M-656.547,1459.313a5.586,5.586,0,0,1,4.484-6.5,5.586,5.586,0,0,1,6.5,4.483,5.587,5.587,0,0,1-4.483,6.5A5.588,5.588,0,0,1-656.547,1459.313Z" transform="translate(662.143 -1401.527)" fill="#fb668d"/>
        </g>
        <g id="Grupo_15836" data-name="Grupo 15836" transform="translate(76.862 121.207)">
          <g id="Grupo_15835" data-name="Grupo 15835" transform="translate(3.988)">
            <path id="Trazado_24890" data-name="Trazado 24890" d="M-669.492,1471.1l5.815-50.425a12.748,12.748,0,0,0-.668-5.768l-.148-.41a12.743,12.743,0,0,0-2.622,6.392l-5.744,49.825Z" transform="translate(672.859 -1414.502)" fill="#36769d"/>
          </g>
          <path id="Trazado_24891" data-name="Trazado 24891" d="M-675.82,1458.323a5.586,5.586,0,0,1,6.186-4.914,5.584,5.584,0,0,1,4.913,6.186,5.586,5.586,0,0,1-6.186,4.914A5.585,5.585,0,0,1-675.82,1458.323Z" transform="translate(675.857 -1401.665)" fill="#8e5397"/>
        </g>
        <g id="Grupo_15838" data-name="Grupo 15838" transform="translate(52.154 119.051)">
          <g id="Grupo_15837" data-name="Grupo 15837" transform="translate(4.372)">
            <path id="Trazado_24892" data-name="Trazado 24892" d="M-688.036,1465.565l20.269-46.537a12.727,12.727,0,0,0,1.044-5.712l-.021-.435a12.742,12.742,0,0,0-4.372,5.349l-20.027,45.984Z" transform="translate(691.144 -1412.881)" fill="#36769d"/>
          </g>
          <path id="Trazado_24893" data-name="Trazado 24893" d="M-693.967,1451.754a5.586,5.586,0,0,1,7.351-2.895,5.585,5.585,0,0,1,2.895,7.35,5.586,5.586,0,0,1-7.35,2.894A5.586,5.586,0,0,1-693.967,1451.754Z" transform="translate(694.431 -1401.153)" fill="#fe922e"/>
        </g>
        <g id="Grupo_15840" data-name="Grupo 15840" transform="translate(30.453 114.571)">
          <g id="Grupo_15839" data-name="Grupo 15839" transform="translate(4.859)">
            <path id="Trazado_24894" data-name="Trazado 24894" d="M-704.512,1453.7l32.961-38.6a12.719,12.719,0,0,0,2.666-5.159l.105-.422a12.748,12.748,0,0,0-5.741,3.841l-32.57,38.143Z" transform="translate(707.091 -1409.513)" fill="#36769d"/>
          </g>
          <path id="Trazado_24895" data-name="Trazado 24895" d="M-709.408,1440.178a5.586,5.586,0,0,1,7.875-.625,5.585,5.585,0,0,1,.625,7.875,5.585,5.585,0,0,1-7.874.625A5.585,5.585,0,0,1-709.408,1440.178Z" transform="translate(710.744 -1400.034)" fill="#fa4046"/>
        </g>
        <g id="Grupo_15842" data-name="Grupo 15842" transform="translate(13.644 108.157)">
          <g id="Grupo_15841" data-name="Grupo 15841" transform="translate(5.413)">
            <path id="Trazado_24896" data-name="Trazado 24896" d="M-717.486,1436.53l42.787-27.31a12.731,12.731,0,0,0,4.053-4.158l.225-.371a12.732,12.732,0,0,0-6.613,2l-42.278,26.985Z" transform="translate(719.311 -1404.691)" fill="#36769d"/>
          </g>
          <path id="Trazado_24897" data-name="Trazado 24897" d="M-720.8,1424.6a5.588,5.588,0,0,1,7.715,1.7,5.587,5.587,0,0,1-1.7,7.715,5.587,5.587,0,0,1-7.715-1.7A5.586,5.586,0,0,1-720.8,1424.6Z" transform="translate(723.38 -1398.406)" fill="#fedf57"/>
        </g>
        <g id="Grupo_15844" data-name="Grupo 15844" transform="translate(3.189 99.878)">
          <g id="Grupo_15843" data-name="Grupo 15843" transform="translate(5.98)">
            <path id="Trazado_24898" data-name="Trazado 24898" d="M-725.83,1415.68l48.892-13.642a12.723,12.723,0,0,0,5.091-2.795l.323-.29a12.737,12.737,0,0,0-6.909-.017l-48.31,13.481Z" transform="translate(726.744 -1398.467)" fill="#36769d"/>
          </g>
          <path id="Trazado_24899" data-name="Trazado 24899" d="M-727.156,1406.38a5.586,5.586,0,0,1,6.884,3.875,5.588,5.588,0,0,1-3.875,6.884,5.586,5.586,0,0,1-6.884-3.875A5.585,5.585,0,0,1-727.156,1406.38Z" transform="translate(731.239 -1395.923)" fill="#2cd7fe"/>
        </g>
        <g id="Grupo_15846" data-name="Grupo 15846" transform="translate(0 84.748)">
          <g id="Grupo_15845" data-name="Grupo 15845" transform="translate(6.434 3.896)">
            <path id="Trazado_24900" data-name="Trazado 24900" d="M-728.8,1393.411l50.745,1.212a12.754,12.754,0,0,0,5.684-1.188l.394-.184a12.731,12.731,0,0,0-6.6-2.031l-50.142-1.2Z" transform="translate(728.8 -1390.023)" fill="#36769d"/>
          </g>
          <path id="Trazado_24901" data-name="Trazado 24901" d="M-727.921,1387.1a5.586,5.586,0,0,1,5.454,5.715,5.585,5.585,0,0,1-5.713,5.454,5.586,5.586,0,0,1-5.455-5.713A5.588,5.588,0,0,1-727.921,1387.1Z" transform="translate(733.637 -1387.094)" fill="#3aaf5c"/>
        </g>
        <g id="Grupo_15848" data-name="Grupo 15848" transform="translate(4.35 59.541)">
          <g id="Grupo_15847" data-name="Grupo 15847" transform="translate(5.903 4.241)">
            <path id="Trazado_24902" data-name="Trazado 24902" d="M-725.93,1374.551l48.187,15.96a12.759,12.759,0,0,0,5.783.521l.43-.061a12.736,12.736,0,0,0-5.723-3.87l-47.612-15.769Z" transform="translate(725.93 -1371.333)" fill="#36769d"/>
          </g>
          <path id="Trazado_24903" data-name="Trazado 24903" d="M-723.027,1368.428a5.585,5.585,0,0,1,3.55,7.056,5.588,5.588,0,0,1-7.057,3.552,5.587,5.587,0,0,1-3.55-7.057A5.586,5.586,0,0,1-723.027,1368.428Z" transform="translate(730.367 -1368.145)" fill="#fb668d"/>
        </g>
        <g id="Grupo_15850" data-name="Grupo 15850" transform="translate(15.865 36.701)">
          <g id="Grupo_15849" data-name="Grupo 15849" transform="translate(5.342 4.7)">
            <path id="Trazado_24904" data-name="Trazado 24904" d="M-717.695,1357.276l41.436,29.321a12.74,12.74,0,0,0,5.38,2.186l.428.067a12.732,12.732,0,0,0-4.345-5.37l-40.943-28.971Z" transform="translate(717.695 -1354.508)" fill="#36769d"/>
          </g>
          <path id="Trazado_24905" data-name="Trazado 24905" d="M-712.9,1352a5.585,5.585,0,0,1,1.338,7.785,5.586,5.586,0,0,1-7.786,1.338,5.585,5.585,0,0,1-1.338-7.785A5.586,5.586,0,0,1-712.9,1352Z" transform="translate(721.711 -1350.974)" fill="#8e5397"/>
        </g>
        <g id="Grupo_15852" data-name="Grupo 15852" transform="translate(33.54 18.211)">
          <g id="Grupo_15851" data-name="Grupo 15851" transform="translate(4.803 5.238)">
            <path id="Trazado_24906" data-name="Trazado 24906" d="M-704.813,1343.089l31.082,40.132a12.72,12.72,0,0,0,4.508,3.659l.391.189a12.741,12.741,0,0,0-2.591-6.4l-30.711-39.653Z" transform="translate(704.813 -1341.013)" fill="#36769d"/>
          </g>
          <path id="Trazado_24907" data-name="Trazado 24907" d="M-698.423,1339.238a5.586,5.586,0,0,1-.991,7.838,5.586,5.586,0,0,1-7.836-.991,5.586,5.586,0,0,1,.99-7.838A5.587,5.587,0,0,1-698.423,1339.238Z" transform="translate(708.424 -1337.075)" fill="#fe922e"/>
        </g>
        <g id="Grupo_15854" data-name="Grupo 15854" transform="translate(58.529 4.893)">
          <g id="Grupo_15853" data-name="Grupo 15853" transform="translate(4.304 5.848)">
            <path id="Trazado_24908" data-name="Trazado 24908" d="M-686.4,1332.6l17.006,47.828a12.735,12.735,0,0,0,3.141,4.883l.313.3a12.744,12.744,0,0,0-.463-6.892l-16.8-47.258Z" transform="translate(686.403 -1331.46)" fill="#36769d"/>
          </g>
          <path id="Trazado_24909" data-name="Trazado 24909" d="M-678.79,1330.777a5.586,5.586,0,0,1-3.387,7.135,5.584,5.584,0,0,1-7.137-3.387,5.588,5.588,0,0,1,3.387-7.137A5.586,5.586,0,0,1-678.79,1330.777Z" transform="translate(689.638 -1327.063)" fill="#fa4046"/>
        </g>
      </g>
      <g id="Grupo_15856" data-name="Grupo 15856" transform="translate(18.437 18.347)">
        <circle id="Elipse_891" data-name="Elipse 891" cx="52.111" cy="52.111" r="52.111" transform="translate(0 73.696) rotate(-45)" fill="#fbf5f1" opacity="0.89"/>
        <circle id="Elipse_892" data-name="Elipse 892" cx="20.272" cy="20.272" r="20.272" transform="translate(45.027 73.696) rotate(-45)" fill="none" stroke="#e5d9d2" stroke-miterlimit="10" stroke-width="1"/>
        <circle id="Elipse_893" data-name="Elipse 893" cx="45.565" cy="45.565" r="45.565" transform="translate(9.257 73.696) rotate(-45)" fill="none" stroke="#e5d9d2" stroke-miterlimit="10" stroke-width="1"/>
      </g>
    </g>
  </g>
</svg>
