<svg xmlns="http://www.w3.org/2000/svg" width="408.079" height="300.661" viewBox="0 0 408.079 300.661">
  <g id="Grupo_5070" data-name="Grupo 5070" transform="translate(-125.64 -38.221)">
    <g id="Grupo_5048" data-name="Grupo 5048" transform="translate(137.593 271.781)">
      <g id="Grupo_5047" data-name="Grupo 5047">
        <ellipse id="Elipse_377" data-name="Elipse 377" cx="22.408" cy="5.938" rx="22.408" ry="5.938" transform="translate(0 31.142)" fill="#004061" opacity="0.19" style="mix-blend-mode: multiply;isolation: isolate"/>
        <path id="Trazado_12848" data-name="Trazado 12848" d="M471.231,388.929c-19.666,0-37.833.685-52.53,1.844-7.519-4.248-18.462-7.915-31.788-10.7,3.708-1.043,5.744-2.175,5.744-3.358,0-5.227-39.653-9.463-88.568-9.463s-88.567,4.236-88.567,9.463c0,2.949,12.635,5.584,32.436,7.32-17.127,5.344-27.585,12.47-27.585,20.3,0,16.581,46.921,30.022,104.8,30.022,55.038,0,100.162-12.154,104.462-27.6,12.4.707,26.56,1.107,41.6,1.107,48.915,0,88.567-4.236,88.567-9.463S520.145,388.929,471.231,388.929Z" transform="translate(-163.673 -367.25)" fill="#004061" opacity="0.19" style="mix-blend-mode: multiply;isolation: isolate"/>
      </g>
    </g>
    <g id="Grupo_5067" data-name="Grupo 5067" transform="translate(137.824 38.221)">
      <path id="Trazado_12849" data-name="Trazado 12849" d="M230.917,174.856s-10.656-6.394-20.984-9.18-18.361-12.3-20.246-16.967a64.974,64.974,0,0,0-3.443-7.377s-7.324,19.284,11.5,31.445,27.1,11.3,36.2,13.861,12.378,2.563,12.378,2.563Z" transform="translate(-155.001 -68.139)" fill="#007658"/>
      <g id="Grupo_5050" data-name="Grupo 5050" transform="translate(77.231 108.633)">
        <g id="Grupo_5049" data-name="Grupo 5049">
          <path id="Trazado_12850" data-name="Trazado 12850" d="M282.71,250.451a.411.411,0,0,1-.051,0,.356.356,0,0,1-.3-.4c.016-.109,1.5-11.116-4.386-27.182S251.953,192.048,251.75,191.9a.355.355,0,0,1,.417-.575c.2.148,20.509,15.026,26.47,31.292,5.956,16.248,4.439,27.417,4.423,27.528A.355.355,0,0,1,282.71,250.451Z" transform="translate(-251.604 -191.258)" fill="#007658"/>
        </g>
      </g>
      <g id="Grupo_5052" data-name="Grupo 5052" transform="translate(203.394 33.149)">
        <g id="Grupo_5051" data-name="Grupo 5051">
          <path id="Trazado_12851" data-name="Trazado 12851" d="M429.692,137.326a.337.337,0,0,1-.065-.006.355.355,0,0,1-.285-.413c.028-.15,2.913-15.091,14.68-21.332,11.326-6.007,16.2-10.174,19.329-16.51,2.947-5.976,1.589-13.65,1.574-13.727a.355.355,0,0,1,.7-.128c.059.323,1.413,7.984-1.637,14.169-3.2,6.489-8.155,10.735-19.633,16.823-11.459,6.078-14.287,20.686-14.314,20.833A.355.355,0,0,1,429.692,137.326Z" transform="translate(-429.337 -84.92)" fill="#007658"/>
        </g>
      </g>
      <path id="Trazado_12852" data-name="Trazado 12852" d="M161.2,309.5s-6.659,11.864-6.795,18.387.679,57.891.679,57.891l3.6.136,6.322,5.572-2.454-5.572,3.622.272V383.2l6.714.408,6.3,4.077-2.785-3.941,4.093-.407-4.224-67.3.75-5.54Z" transform="translate(-146.166 -116.934)" fill="#b492f1"/>
      <path id="Trazado_12853" data-name="Trazado 12853" d="M185.22,281.935a33.8,33.8,0,0,1,3.757,7.111c1.391,3.813,3.864,9.48,3.864,9.48l13.55-5.976s2.01-3.452,2.37-3.349-.409,1.7-.409,1.7l6.282-2.576s-4.894,3.3-5.307,3.5-.618,2.175-1.545,3.071-15.817,10.942-16.744,10.428-3.143-4.122-3.143-4.122Z" transform="translate(-155.111 -108.936)" fill="#ff944f"/>
      <path id="Trazado_12854" data-name="Trazado 12854" d="M169.567,278.714l-3.967.994-5.16,17.165s6.047,6.6,11.29,7.77,5.875.9,5.875.9a125.227,125.227,0,0,0,1.175-14.3,64.066,64.066,0,0,0-.813-10.46l-2.223-1.31Z" transform="translate(-147.921 -108.001)" fill="#ba68c8"/>
      <g id="Grupo_5053" data-name="Grupo 5053" transform="translate(41.552 118.654)">
        <path id="Trazado_12855" data-name="Trazado 12855" d="M205.809,226.928a35.631,35.631,0,0,1-1.42-8.518c1.42,2.13.71,5.679,3.549,7.1a19.652,19.652,0,0,1-.71-6.389c1.534,1.023,1.232,3.146,2,4.521l-.856-3.171-7.035-14.78,1.193,15.527c.1-.9.241-1.826.437-2.807C202.97,221.249,204.39,224.088,205.809,226.928Z" transform="translate(-201.34 -205.467)" fill="#e09775"/>
        <path id="Trazado_12856" data-name="Trazado 12856" d="M209.718,228.84c-.769-1.375-.468-3.5-2-4.521a19.652,19.652,0,0,0,.71,6.389c-2.839-1.42-2.13-4.969-3.549-7.1a35.631,35.631,0,0,0,1.42,8.518c-1.42-2.839-2.839-5.679-2.839-8.518-.2.98-.334,1.9-.437,2.807l.231,3.015L215.9,280.874l8.548,2.494Z" transform="translate(-201.828 -210.666)" fill="#004061"/>
        <path id="Trazado_12857" data-name="Trazado 12857" d="M201.34,205.376l.016.221.375,5.1.314-1.212,1.213,1.54-.373-2.176" transform="translate(-201.34 -205.376)" fill="#6e4a39"/>
      </g>
      <g id="Grupo_5054" data-name="Grupo 5054" transform="translate(57.967 104.418)">
        <path id="Trazado_12858" data-name="Trazado 12858" d="M227.148,207.308a35.644,35.644,0,0,1-.055-8.635c1.065,2.327-.2,5.719,2.382,7.57a19.662,19.662,0,0,1,.309-6.421c1.353,1.252.72,3.3,1.262,4.781l-.344-3.266-4.61-15.707-1.276,15.521c.244-.875.527-1.765.875-2.7C225.242,201.252,226.194,204.28,227.148,207.308Z" transform="translate(-224.567 -185.41)" fill="#e09775"/>
        <path id="Trazado_12859" data-name="Trazado 12859" d="M230.944,209.842c-.542-1.479.091-3.529-1.262-4.781a19.663,19.663,0,0,0-.309,6.421c-2.579-1.851-1.317-5.243-2.382-7.57a35.644,35.644,0,0,0,.055,8.635c-.953-3.028-1.906-6.056-1.457-8.86-.349.937-.631,1.828-.875,2.7l-.248,3.013,4.354,52.8,8.046,3.813Z" transform="translate(-224.466 -190.65)" fill="#ffd54f"/>
        <path id="Trazado_12860" data-name="Trazado 12860" d="M226.477,185.321l-.019.221-.435,5.093.5-1.147.955,1.712-.025-2.207" transform="translate(-224.918 -185.321)" fill="#6e4a39"/>
      </g>
      <g id="Grupo_5055" data-name="Grupo 5055" transform="translate(72.162 118.499)">
        <path id="Trazado_12861" data-name="Trazado 12861" d="M253.021,227.008a35.655,35.655,0,0,1,1.371-8.526c.667,2.471-1.138,5.608,1.1,7.86a19.644,19.644,0,0,1,1.365-6.281c1.127,1.458.165,3.374.455,4.923l.2-3.278-1.954-16.252-3.821,15.1c.385-.822.811-1.655,1.31-2.521C252.141,220.721,252.581,223.865,253.021,227.008Z" transform="translate(-246.574 -205.243)" fill="#e09775"/>
        <path id="Trazado_12862" data-name="Trazado 12862" d="M255.2,230.124c-.29-1.549.672-3.465-.455-4.923a19.645,19.645,0,0,0-1.365,6.281c-2.238-2.252-.434-5.389-1.1-7.86a35.655,35.655,0,0,0-1.371,8.526c-.44-3.143-.88-6.287.026-8.979-.5.867-.924,1.7-1.31,2.521l-.742,2.931-4.422,52.79,7.306,5.089Z" transform="translate(-244.463 -210.383)" fill="#ba68c8"/>
        <path id="Trazado_12863" data-name="Trazado 12863" d="M256.679,205.157l-.055.215-1.27,4.951.685-1.049.659,1.847.34-2.181" transform="translate(-247.623 -205.157)" fill="#6e4a39"/>
      </g>
      <path id="Trazado_12864" data-name="Trazado 12864" d="M273.748,283.25H214.3l2.485,18.634h56.958Z" transform="translate(-163.55 -109.317)" fill="#9fa8da"/>
      <path id="Trazado_12865" data-name="Trazado 12865" d="M217.806,309.5l7.111,53.312h49.847V309.5Z" transform="translate(-164.566 -116.934)" fill="#475263"/>
      <path id="Trazado_12866" data-name="Trazado 12866" d="M486.1,280.056v7.479h-11a4.286,4.286,0,0,1,2.611-1.966,30.731,30.731,0,0,1,3.74-1.112l.144-4.053Z" transform="translate(-239.222 -108.391)" fill="#3c282c"/>
      <path id="Trazado_12867" data-name="Trazado 12867" d="M488.587,205.638a51.127,51.127,0,0,1,2.167,14.6c.127,8.723-2.8,38.3-2.8,38.3l-5.991.383-2.55-55.2Z" transform="translate(-240.471 -86.243)" fill="#475263"/>
      <g id="Grupo_5056" data-name="Grupo 5056" transform="translate(329.568 105.543)">
        <rect id="Rectángulo_3086" data-name="Rectángulo 3086" width="1.581" height="18.972" transform="translate(6.381 42.745)" fill="#475263"/>
        <rect id="Rectángulo_3087" data-name="Rectángulo 3087" width="1.581" height="18.972" transform="translate(6.516)" fill="#475263"/>
        <rect id="Rectángulo_3088" data-name="Rectángulo 3088" width="10.573" height="21.414" transform="translate(1.914 19.452)" fill="#cc5670"/>
        <rect id="Rectángulo_3089" data-name="Rectángulo 3089" width="10.573" height="21.414" transform="translate(1.914 19.452)" fill="#ffd54f"/>
        <path id="Trazado_12868" data-name="Trazado 12868" d="M620.355,231.009l-10.573,5.1v-.517l10.573-5.1Z" transform="translate(-607.867 -199.553)" fill="#e8bb3d"/>
        <path id="Trazado_12869" data-name="Trazado 12869" d="M620.355,228.524l-10.573,5.1v-.517l10.573-5.1Z" transform="translate(-607.867 -198.832)" fill="#e8bb3d"/>
        <path id="Trazado_12870" data-name="Trazado 12870" d="M620.355,226.039l-10.573,5.1v-.517l10.573-5.1Z" transform="translate(-607.867 -198.111)" fill="#e8bb3d"/>
        <path id="Trazado_12871" data-name="Trazado 12871" d="M620.355,223.555l-10.573,5.1v-.517l10.573-5.1Z" transform="translate(-607.867 -197.39)" fill="#e8bb3d"/>
        <path id="Trazado_12872" data-name="Trazado 12872" d="M620.355,221.07l-10.573,5.1v-.517l10.573-5.1Z" transform="translate(-607.867 -196.669)" fill="#e8bb3d"/>
        <path id="Trazado_12873" data-name="Trazado 12873" d="M620.355,218.585l-10.573,5.1v-.517l10.573-5.1Z" transform="translate(-607.867 -195.948)" fill="#e8bb3d"/>
        <path id="Trazado_12874" data-name="Trazado 12874" d="M620.355,216.1l-10.573,5.1v-.517l10.573-5.1Z" transform="translate(-607.867 -195.227)" fill="#e8bb3d"/>
        <path id="Trazado_12875" data-name="Trazado 12875" d="M609.042,212.873l-1.808-1.808V209.36h14.4v1.506l-2.02,2.008Z" transform="translate(-607.128 -193.421)" fill="#475263"/>
        <path id="Trazado_12876" data-name="Trazado 12876" d="M619.678,244.648l1.808,1.808v1.705h-14.4v-1.506l2.02-2.008Z" transform="translate(-607.084 -203.66)" fill="#475263"/>
      </g>
      <path id="Trazado_12877" data-name="Trazado 12877" d="M651.5,314.558a3.5,3.5,0,0,1,3.5,3.5v9.281h7.474V268.458h-6.027V280.2a2.29,2.29,0,1,1-4.581,0v-6.5l-2.993-1.43v43.5A3.472,3.472,0,0,1,651.5,314.558Z" transform="translate(-289.642 -105.025)" fill="#7986cb"/>
      <path id="Trazado_12878" data-name="Trazado 12878" d="M608.827,359.476H592.674V311.863a3.464,3.464,0,0,1,.864-2.277v-43.5l-1.828-.873H575.076s-18.081-26.76-43.877-15.188-28.447,27.483-37.367,27.483H473.1s-5.545-.056-6.268-9.069-2.4-20.1-2.4-20.1l-6.267-.093v73.993h5.356s4.3-13.489,13.855-16.266,81.958,0,81.958,0,9.721,0,9.721,9.323v20.631S571.239,351,554.179,351H483.558s-11.9,1.79-14.96,10.4H608.827Z" transform="translate(-234.308 -98.835)" fill="#9fa8da"/>
      <path id="Trazado_12879" data-name="Trazado 12879" d="M472.571,408.118a12.645,12.645,0,0,0-.711,4.263H612.8v-4.263Z" transform="translate(-238.281 -145.548)" fill="#7986cb"/>
      <rect id="Rectángulo_3090" data-name="Rectángulo 3090" width="6.671" height="73.186" transform="translate(223.859 149.411)" fill="#7986cb"/>
      <g id="Grupo_5061" data-name="Grupo 5061" transform="translate(81.544)">
        <path id="Trazado_12880" data-name="Trazado 12880" d="M316.321,63.9s-.549,22.088-9.832,27.407a77.257,77.257,0,0,1-19.088,7.51s-1.982,2.92-.73,10.848,1.564,10.744,1.564,10.744-6.867,14.255-3.13,25.706,9.04,12.777,9.04,12.777,2.291,19.889-1.687,30.376-27,45.684-31.582,77.507-2.893,42.912-2.893,42.912,19.908,19.286,76.492,24.349,76.112-19.287,76.112-19.287,2.17-39.3-11.813-72.565-22.662-48.216-24.832-64.128.723-17.358.723-17.358,13.5-13.259,11.331-25.072-3.617-12.055-3.617-12.055.723-14.705.483-19.769l-.241-5.063s-19.408-1.761-23.717-12.27A117.9,117.9,0,0,1,352.662,63.9Z" transform="translate(-257.68 -45.672)" fill="#004061"/>
        <path id="Trazado_12881" data-name="Trazado 12881" d="M376.632,62.464c0,1.941-8.135,3.515-18.17,3.515s-18.171-1.574-18.171-3.515,8.136-3.515,18.171-3.515S376.632,60.523,376.632,62.464Z" transform="translate(-281.65 -44.235)" fill="#847391"/>
        <path id="Trazado_12882" data-name="Trazado 12882" d="M309.051,197.722s5.139,3.752,14.658,5.112,10.124,2.115,10.124,2.115-10.275,5.591-16.168,8.764-8.216,3.622-8.216,3.622Z" transform="translate(-272.586 -84.501)" fill="#002a3a"/>
        <path id="Trazado_12883" data-name="Trazado 12883" d="M381.427,204.63s9.973.906,16.772,0a35.154,35.154,0,0,0,12.373-4.361s-1.893,8.123-1.161,13.7,1.344,8.693,1.344,8.693-4.547-.349-13.613-3.371S381.427,204.63,381.427,204.63Z" transform="translate(-293.586 -85.24)" fill="#002a3a"/>
        <g id="Grupo_5057" data-name="Grupo 5057" transform="translate(76.456 21.745)">
          <path id="Trazado_12884" data-name="Trazado 12884" d="M366.1,335.046h-.71V331.5h.71Zm0-7.1h-.71V324.4h.71Zm0-7.1h-.71V317.3h.71Zm0-7.1h-.71V310.2h.71Zm0-7.1h-.71V303.1h.71Zm0-7.1h-.71V296h.71Zm0-7.1h-.71v-3.549h.71Zm0-7.1h-.71v-3.549h.71Zm0-7.1h-.71v-3.549h.71Zm0-7.1h-.71v-3.549h.71Zm0-7.1h-.71v-3.549h.71Zm0-7.1h-.71v-3.549h.71Zm0-7.1h-.71v-3.549h.71Zm0-7.1h-.71v-3.549h.71Zm0-7.1h-.71v-3.549h.71Zm0-7.1h-.71V225.02h.71Zm0-7.1h-.71v-3.549h.71Zm0-7.1h-.71v-3.549h.71Zm0-7.1h-.71v-3.549h.71Zm0-7.1h-.71v-3.549h.71Zm0-7.1h-.71v-3.549h.71Zm0-7.1h-.71v-3.549h.71Zm0-7.1h-.71v-3.549h.71Zm0-7.1h-.71v-3.549h.71Zm0-7.1h-.71v-3.549h.71Zm0-7.1h-.71v-3.549h.71Zm0-7.1h-.71v-3.549h.71Zm0-7.1h-.71v-3.549h.71Zm0-7.1h-.71V132.74h.71Zm0-7.1h-.71v-3.549h.71Zm0-7.1h-.71v-3.549h.71Zm0-7.1h-.71v-3.549h.71Zm0-7.1h-.71v-3.549h.71Zm0-7.1h-.71V97.248h.71Zm0-7.1h-.71V90.149h.71Zm0-7.1h-.71V83.051h.71Zm0-7.1h-.71V75.952h.71Zm0-7.1h-.71V68.854h.71Z" transform="translate(-365.388 -68.854)" fill="#ebcad8"/>
        </g>
        <g id="Grupo_5058" data-name="Grupo 5058" transform="translate(26.464 87.028)">
          <path id="Trazado_12885" data-name="Trazado 12885" d="M370.3,178.066q-1.034,0-2.051-.026l.018-.71q1.74.044,3.534.011l.013.71Q371.051,178.066,370.3,178.066Zm5.076-.165-.047-.708q.919-.062,1.845-.148.859-.081,1.671-.175l.082.7q-.82.1-1.687.177Q376.3,177.838,375.374,177.9Zm-10.687-.019c-1.161-.075-2.357-.174-3.552-.3l.072-.706c1.187.121,2.373.219,3.525.292Zm-7.09-.718c-1.171-.16-2.356-.344-3.522-.544l.12-.7c1.158.2,2.335.38,3.5.54Zm24.859-.1-.121-.7c1.205-.208,2.366-.448,3.448-.713l.169.689C384.853,176.614,383.677,176.858,382.456,177.068Zm-31.882-1.111c-1.207-.251-2.377-.517-3.478-.791l.172-.689c1.092.272,2.253.536,3.451.784Zm-21.014-.022c-1.207,0-2.406-.033-3.563-.089l.034-.709c1.146.055,2.334.085,3.531.088Zm3.563-.065-.027-.709c1.153-.044,2.34-.111,3.53-.2l.053.708C335.481,175.758,334.285,175.826,333.123,175.87Zm-10.68-.285c-1.2-.119-2.389-.273-3.536-.455l.111-.7c1.134.18,2.31.331,3.5.449Zm17.782-.241-.077-.706c1.151-.125,2.333-.27,3.512-.434l.1.7C342.571,175.072,341.383,175.219,340.225,175.344Zm49.163,0-.234-.67a25.4,25.4,0,0,0,3.221-1.357l.324.632A26.258,26.258,0,0,1,389.388,175.339Zm-73.987-.883c-1.183-.269-2.344-.579-3.452-.921l.209-.678c1.091.337,2.235.642,3.4.907Zm-6.822-2.12c-1.128-.459-2.22-.966-3.247-1.508l.331-.628c1.007.531,2.078,1.029,3.184,1.479Zm87.149-.383-.468-.534a5.024,5.024,0,0,0,.991-1.08l.613.359A5.622,5.622,0,0,1,395.728,171.953Zm-93.47-2.973a27.351,27.351,0,0,1-2.829-2.214l.474-.528a26.586,26.586,0,0,0,2.756,2.157Zm-5.318-4.818a13.8,13.8,0,0,1-1.978-3.068l.656-.272a13.418,13.418,0,0,0,1.874,2.893Z" transform="translate(-294.962 -160.823)" fill="#ebcad8"/>
        </g>
        <g id="Grupo_5059" data-name="Grupo 5059" transform="translate(24.521 163.136)">
          <path id="Trazado_12886" data-name="Trazado 12886" d="M340.689,279.192h-.229v-.71h.229q1.628,0,3.313-.036l.015.71Q342.325,279.192,340.689,279.192Zm-3.786-.048q-1.814-.047-3.555-.137l.036-.708q1.731.087,3.536.136Zm10.669-.107-.031-.708q1.74-.077,3.536-.2l.046.708Q349.32,278.959,347.572,279.036Zm-17.775-.257c-1.188-.092-2.38-.2-3.544-.324l.075-.706c1.157.121,2.342.229,3.524.322Zm24.873-.211-.062-.707q1.738-.152,3.524-.344l.077.706Q356.415,278.416,354.67,278.568Zm-31.95-.537c-1.166-.156-2.351-.333-3.52-.526l.116-.7c1.162.192,2.34.368,3.5.523Zm39.021-.224-.09-.7q1.733-.22,3.51-.481l.1.7Q363.48,277.585,361.741,277.808ZM315.7,276.87c-1.169-.231-2.34-.483-3.481-.749l.16-.692c1.134.264,2.3.515,3.458.745Zm53.08-.092-.116-.7q1.725-.285,3.49-.61l.128.7Q370.508,276.491,368.777,276.778Zm6.993-1.284-.141-.7q1.716-.346,3.468-.728l.151.694Q377.491,275.146,375.77,275.493Zm-67.009-.243c-1.156-.313-2.306-.65-3.42-1l.212-.678c1.1.346,2.247.68,3.394.991Zm73.955-1.276-.163-.69q1.706-.4,3.443-.84l.174.688Q384.426,273.572,382.716,273.974Zm-80.753-.86c-1.151-.415-2.269-.85-3.326-1.29l.273-.656c1.046.437,2.154.867,3.293,1.279Zm87.645-.875-.184-.686q1.693-.454,3.417-.943l.194.684Q391.307,271.784,389.609,272.239Zm-94.226-1.883a31.148,31.148,0,0,1-3.158-1.724l.39-.593a30.956,30.956,0,0,0,3.079,1.679Z" transform="translate(-292.224 -268.04)" fill="#ebcad8"/>
        </g>
        <g id="Grupo_5060" data-name="Grupo 5060" transform="translate(3.628 217.255)">
          <path id="Trazado_12887" data-name="Trazado 12887" d="M345.824,362.2l-.006-.71q1.762-.015,3.539-.068l.021.71Q347.594,362.183,345.824,362.2Zm-3.552,0q-1.788-.021-3.556-.077l.022-.71q1.761.055,3.542.077Zm10.659-.207-.036-.708q1.761-.09,3.533-.221l.053.708Q354.7,361.9,352.931,361.986Zm-17.77-.016q-1.786-.091-3.55-.215l.05-.708q1.757.125,3.536.215Zm-7.1-.5q-1.784-.158-3.54-.346l.076-.706q1.749.186,3.527.345Zm31.957-.008-.068-.707q1.756-.168,3.519-.378l.084.7Q361.787,361.3,360.023,361.465Zm-39.03-.747q-1.779-.224-3.525-.473l.1-.7q1.74.249,3.514.471Zm46.092-.1-.1-.7q1.746-.251,3.5-.546l.118.7Q368.839,360.37,367.085,360.621Zm-53.133-.909q-1.775-.285-3.507-.593l.124-.7q1.726.306,3.5.59Zm60.145-.273-.135-.7q1.731-.335,3.465-.717l.153.693Q375.836,359.1,374.1,359.44Zm-67.149-.969q-1.769-.345-3.486-.708l.146-.694q1.712.361,3.475.7Zm74.094-.561-.17-.689q1.711-.424,3.423-.894l.189.685Q382.763,357.484,381.042,357.909ZM299.987,357q-1.762-.4-3.461-.818l.168-.689q1.693.414,3.451.816Zm87.912-.978-.207-.679c1.136-.346,2.271-.708,3.37-1.075l.225.674C390.181,355.31,389.041,355.674,387.9,356.022Zm-94.821-.713q-1.758-.459-3.435-.926l.19-.684q1.671.463,3.424.924Zm101.567-1.541-.243-.667c1.115-.407,2.227-.83,3.305-1.258l.262.659C396.884,352.934,395.765,353.359,394.644,353.768ZM286.222,353.4q-1.757-.52-3.4-1.034l.212-.678q1.641.513,3.394,1.031Zm-6.792-2.121q-1.769-.584-3.37-1.144l.233-.669q1.6.556,3.359,1.139Zm121.823-.138-.28-.652c1.089-.468,2.176-.954,3.231-1.443l.3.645C403.443,350.187,402.35,350.675,401.254,351.145Zm-128.545-2.2c-1.212-.447-2.325-.87-3.331-1.261l.258-.661c1,.39,2.109.811,3.317,1.255Zm135-.789-.319-.633.2-.1.316.635Zm-141.638-1.8c-2.108-.877-3.271-1.422-3.282-1.427l.3-.642c.011,0,1.161.544,3.253,1.413Z" transform="translate(-262.791 -344.281)" fill="#ebcad8"/>
        </g>
        <rect id="Rectángulo_3091" data-name="Rectángulo 3091" width="1.692" height="10.774" transform="translate(75.937 6.152)" fill="#5d5166"/>
        <circle id="Elipse_378" data-name="Elipse 378" cx="3.303" cy="3.303" r="3.303" transform="translate(73.509)" fill="#847391"/>
        <path id="Trazado_12888" data-name="Trazado 12888" d="M417.067,109.128l11.561,27.57s.682-7.886.518-15.182-.277-9.649-.277-9.649Z" transform="translate(-303.927 -58.795)" fill="#493f4f"/>
        <path id="Trazado_12889" data-name="Trazado 12889" d="M305.482,110.284l-6,22.88s-3.182-8.48-2.683-13.968,1.934-6.919,1.934-6.919Z" transform="translate(-269.017 -59.131)" fill="#493f4f"/>
      </g>
      <path id="Trazado_12890" data-name="Trazado 12890" d="M309.957,100.842s2.25,34.642,29.251,41.713,45.686-14.823,49.341-20.857,5.946-20.036,5.946-20.036l-12.054-6.037-6.286-.971,4.357,4.185s-10.768,5.3-22.822,3.536-28.821-17.311-28.821-17.311l1.158-4.495s-2.553,1.394-5.767,6.216S309.957,100.842,309.957,100.842Z" transform="translate(-191.304 -50.509)" fill="#ffd54f"/>
      <path id="Trazado_12891" data-name="Trazado 12891" d="M403.215,100.411l4.357,4.186,1.929-3.214Z" transform="translate(-218.363 -56.266)" fill="#733c48"/>
      <path id="Trazado_12892" data-name="Trazado 12892" d="M335.925,85.064,334.273,83l2.811-2.429Z" transform="translate(-198.359 -50.509)" fill="#733c48"/>
      <g id="Grupo_5062" data-name="Grupo 5062" transform="translate(133.993 36.301)">
        <path id="Trazado_12893" data-name="Trazado 12893" d="M368.062,123.638c-.879,0-1.777-.025-2.7-.078-24.138-1.388-33.7-33.678-33.791-34l.682-.2c.092.322,9.516,32.133,33.149,33.492s31.383-15.589,31.458-15.76l.65.285C397.432,107.546,390.083,123.638,368.062,123.638Z" transform="translate(-331.567 -89.36)" fill="#e8bb3d"/>
      </g>
      <g id="Grupo_5063" data-name="Grupo 5063" transform="translate(142.542 43.893)">
        <path id="Trazado_12894" data-name="Trazado 12894" d="M373.281,114.367c-15.565,0-29.509-13.646-29.67-13.807l.5-.5c.185.183,18.685,18.279,36.595,12.444l.22.675A24.554,24.554,0,0,1,373.281,114.367Z" transform="translate(-343.611 -100.056)" fill="#e8bb3d"/>
      </g>
      <g id="Grupo_5064" data-name="Grupo 5064" transform="translate(126.483 44.135)">
        <path id="Trazado_12895" data-name="Trazado 12895" d="M353.624,148.68c-17.474-2.689-25.417-15.693-29.005-26.129a71.052,71.052,0,0,1-3.628-22.154l.71.019a70.265,70.265,0,0,0,3.6,21.922c3.525,10.243,11.32,23.006,28.435,25.64Z" transform="translate(-320.988 -100.397)" fill="#e8bb3d"/>
      </g>
      <path id="Trazado_12896" data-name="Trazado 12896" d="M419.07,194.565s-3.3,16.432,4.565,35.668,3.211,57.771,12.25,79.012,21.816,34.259,23.263,48,.723,13.259.723,13.259-22.151,5.3-33.858,5.545l-11.707.241s-13.741-7.955-15.67-30.135,12.054-31.34,8.438-51.35-9.277-39.3-5.242-64.368S415.154,196.784,419.07,194.565Z" transform="translate(-216.982 -83.585)" fill="#ffd54f"/>
      <g id="Grupo_5065" data-name="Grupo 5065" transform="translate(188.605 132.786)">
        <path id="Trazado_12897" data-name="Trazado 12897" d="M411.322,299.008c-4.863-12.158-3.386-27.916,4.052-43.232,8.444-17.387,6.791-30.266,6.773-30.395l.7-.1c.018.13,1.7,13.223-6.838,30.8-7.351,15.137-8.821,30.685-4.031,42.657Z" transform="translate(-408.502 -225.284)" fill="#e8bb3d"/>
      </g>
      <g id="Grupo_5066" data-name="Grupo 5066" transform="translate(183.614 242.992)">
        <path id="Trazado_12898" data-name="Trazado 12898" d="M442.492,428.543c-13.151-.771-23.392-5.3-30.438-13.462-12.148-14.068-10.518-34.341-10.5-34.544l.707.062c-.018.2-1.618,20.184,10.334,34.022,6.916,8.008,16.989,12.454,29.939,13.212Z" transform="translate(-401.471 -380.537)" fill="#e8bb3d"/>
      </g>
      <path id="Trazado_12899" data-name="Trazado 12899" d="M578.788,287.5a12.947,12.947,0,0,0-24.923,0h-10.6v7.076H589.39V287.5Z" transform="translate(-258.999 -107.814)" fill="#7986cb"/>
      <path id="Trazado_12900" data-name="Trazado 12900" d="M484.156,157.1l-1.972-10.292s.838-.243.621-1.54-.621-1.242-.621-1.242-.351-3.377-2.3-3.647-3.836.109-4.593,1.567-2.188,5.483-2.188,5.483l1.053-.135s-.108,3.782,1.026,4.862,3.444-.7,3.444-.7l.473,4.619a19.9,19.9,0,0,1,2.508,1.242A2.535,2.535,0,0,0,484.156,157.1Z" transform="translate(-238.643 -67.839)" fill="#eb754c"/>
      <path id="Trazado_12901" data-name="Trazado 12901" d="M478.119,139.767a2.04,2.04,0,0,0,1.232.5,4.5,4.5,0,0,0,1.393-.06s-.848,1.917-.363,2.765a1.688,1.688,0,0,0,1.211.909s-.4,2.664-.06,2.523,1.13-2.059,1.171-2.18.787-.525,1.151-.161a1.264,1.264,0,0,1,.03,1.7,3.415,3.415,0,0,1-.737.477l.728,1.909a6.89,6.89,0,0,0,1.169-3.04,7.04,7.04,0,0,0-.424-2.382s.1-2.422-.4-2.725a.654.654,0,0,0-.848.1s-2.078-2.5-3.633-2.321-2.142,1.168-2.16,1.777l-.018.608.644-.226Z" transform="translate(-239.934 -67.108)" fill="#52363c"/>
      <path id="Trazado_12902" data-name="Trazado 12902" d="M480.638,149.066a6.73,6.73,0,0,1-1.3,1.249,19,19,0,0,1-2.213.911s-.982-1.232-1.642-1.25-.914-.035-.914-.035-.479,4.516,1.324,5.105,3.249-1.017,3.392-1.2,1.748-4.657,1.748-4.657" transform="translate(-239.049 -70.383)" fill="#52363c"/>
      <path id="Trazado_12903" data-name="Trazado 12903" d="M475.248,151.078a4.411,4.411,0,0,1,1.214.41c.375.25.268.375.268.375l-1.481.207Z" transform="translate(-239.264 -70.967)" fill="#fff"/>
      <path id="Trazado_12904" data-name="Trazado 12904" d="M477.425,145.575c0,.252-.148.456-.331.456s-.331-.2-.331-.456.148-.456.331-.456S477.425,145.323,477.425,145.575Z" transform="translate(-239.703 -69.238)" fill="#3c282c"/>
      <path id="Trazado_12905" data-name="Trazado 12905" d="M478.152,143.9a7.167,7.167,0,0,0-1.006-.195,2.339,2.339,0,0,0-.512.069s.023.434.092.434,1.369-.114,1.369-.114Z" transform="translate(-239.666 -68.827)" fill="#3c282c"/>
      <path id="Trazado_12906" data-name="Trazado 12906" d="M475.015,143.445l-.853,4.761-1.053.135Z" transform="translate(-238.643 -68.752)" fill="#aa4234"/>
      <circle id="Elipse_379" data-name="Elipse 379" cx="0.999" cy="0.999" r="0.999" transform="translate(236.722 77.358)" fill="#aa4234"/>
      <path id="Trazado_12907" data-name="Trazado 12907" d="M478.153,161.55l-.777-3.3-4.44,1.406v2.705s-2.115,4.4-2.289,6.886-.286,8.39-.286,8.39l-17.942,6.134.926,3.646,15.392-1.157,1.852,14.293,6.828-1.28.116-5.028,1.447,5.028h4.456s-3.588-31.357-3.646-32.167S478.153,161.55,478.153,161.55Z" transform="translate(-232.64 -73.047)" fill="#ba68c8"/>
      <path id="Trazado_12908" data-name="Trazado 12908" d="M516.762,238.4" transform="translate(-251.309 -96.305)" fill="#475263"/>
      <path id="Trazado_12909" data-name="Trazado 12909" d="M448.717,194.71A12.362,12.362,0,0,0,444.95,194a8.744,8.744,0,0,0-2.335.516c-.112.112-.089.359.7.449a20.506,20.506,0,0,1,2.02.449c.18.023.023.449.023.449s-2.828,1.639-3.142,1.728-2.4.382-2.4.382l-.651.18.045.292s2.132.381,2.963.4,4.175-.359,4.175-.359l3.1-.948Z" transform="translate(-228.793 -83.416)" fill="#eb754c"/>
      <path id="Trazado_12910" data-name="Trazado 12910" d="M431.438,188.6s2.428,6.253,5.481,6.659,2.987.907,2.987.907.32,4.64,1.067,15.415.907,14.988.907,14.988,5.493,3.681,5.654,3.681.373-12.642.533-18.136S446.52,198.9,445.24,196.92a9.6,9.6,0,0,0-2.506-2.768s-.418.471-.583.334-5.072-2.27-6.3-3.443-3.612-3.713-3.612-3.713Z" transform="translate(-226.552 -81.485)" fill="#ffd54f"/>
      <path id="Trazado_12911" data-name="Trazado 12911" d="M169.631,258.653s-1.32-.508-1.793.677a2.2,2.2,0,0,0,1.523,2.853,2.151,2.151,0,0,0,1.489-.247s1.692,1.692,2.03,2.165-.778,7.174-.778,7.174l4.6,4.838,1.151-3.925-.879-.576-.271-8.121a2.648,2.648,0,0,0,1.388-2.165c.067-1.523-.914-6.057-3.079-7.174a4.3,4.3,0,0,0-3.79-.27Z" transform="translate(-150.03 -100.707)" fill="#ff944f"/>
      <path id="Trazado_12912" data-name="Trazado 12912" d="M176.345,256.393c.026.08,1.809,2.607,1.809,2.607l-1.171-.026Z" transform="translate(-152.536 -101.525)" fill="#eb754c"/>
      <path id="Trazado_12913" data-name="Trazado 12913" d="M174.73,267.923a15.49,15.49,0,0,0,2.663,0c1.355-.131,1.347-.378,1.347-.378v2.617a8.107,8.107,0,0,1-1.852-.612A7.63,7.63,0,0,1,174.73,267.923Z" transform="translate(-152.067 -104.76)" fill="#f66c10"/>
      <path id="Trazado_12914" data-name="Trazado 12914" d="M174.85,259.748a.776.776,0,1,1-.776-.776A.776.776,0,0,1,174.85,259.748Z" transform="translate(-151.652 -102.273)" fill="#f66c10"/>
      <path id="Trazado_12915" data-name="Trazado 12915" d="M179.548,257.912a.776.776,0,1,1-.776-.776A.776.776,0,0,1,179.548,257.912Z" transform="translate(-153.015 -101.74)" fill="#f66c10"/>
      <path id="Trazado_12916" data-name="Trazado 12916" d="M178.469,261.634l-2.531-.476s-.361,1.366.806,1.56S178.469,261.634,178.469,261.634Z" transform="translate(-152.403 -102.907)" fill="#fff"/>
      <path id="Trazado_12917" data-name="Trazado 12917" d="M173.3,259.119" transform="translate(-151.652 -102.316)" fill="#52363c"/>
      <path id="Trazado_12918" data-name="Trazado 12918" d="M174.74,257.892a.347.347,0,1,1-.346-.347A.346.346,0,0,1,174.74,257.892Z" transform="translate(-151.869 -101.859)" fill="#52363c"/>
      <path id="Trazado_12919" data-name="Trazado 12919" d="M178.2,256.481a.347.347,0,1,1-.347-.346A.347.347,0,0,1,178.2,256.481Z" transform="translate(-152.873 -101.45)" fill="#52363c"/>
      <path id="Trazado_12920" data-name="Trazado 12920" d="M170.3,253.185a20.643,20.643,0,0,1-1.165,3.721,5.559,5.559,0,0,1-1.232,1.863l-.787-.654s-1.228-.207-1.536.743a2.387,2.387,0,0,0,.321,2.066c.236.385.308.347.308.347l-.742.706-3.442-1.155,2.311-4-2.8,3.414-.616-.654a10.852,10.852,0,0,1,1.515-2.3c.834-.885,1.848-1.745,1.848-1.745s-2.208,1.515-2.568,1.9-1.014,1.31-1.014,1.31l-1.245-.822s.346-1.758,3.388-3.529a26.125,26.125,0,0,1,7.059-2.541Z" transform="translate(-147.636 -100.206)" fill="#004061"/>
      <path id="Trazado_12921" data-name="Trazado 12921" d="M174.137,251.85a8.51,8.51,0,0,1,3.695,1.552,8.987,8.987,0,0,1,1.839,2.976l-.467.926a7.562,7.562,0,0,0-1.716-2.847,5.254,5.254,0,0,0-2.979-1.167l-.462-1.048" transform="translate(-151.869 -100.206)" fill="#004061"/>
      <path id="Trazado_12922" data-name="Trazado 12922" d="M168.319,278.833a40.956,40.956,0,0,1,1.114,11.072c-.373,5.2-3.211,17.231-3.211,17.231l-8.92-3.379,6.1-23.853Z" transform="translate(-147.011 -108.036)" fill="#d2bef6"/>
      <path id="Trazado_12923" data-name="Trazado 12923" d="M184.072,281.641a77.426,77.426,0,0,1,2.815,14.62,83.392,83.392,0,0,1-.676,16.15l-4.73-4.865.346-1.276,1.883.127s.5-19.731.555-21.015" transform="translate(-154.026 -108.85)" fill="#d2bef6"/>
      <path id="Trazado_12924" data-name="Trazado 12924" d="M159.191,280.111,142.8,294.294s9.621,14.4,10.291,14.551a2.593,2.593,0,0,0,1.6-.541s2.8-.54,3.49-.59a14.994,14.994,0,0,1,1.819.05,14.577,14.577,0,0,0-1.77-1.18,12.649,12.649,0,0,0-3.2-.492,6.3,6.3,0,0,0-1.327.786l-5.85-11.749s12.241-6.932,12.978-7.521a8.041,8.041,0,0,0,1.917-5.7c-.344-2.164-.738-2.36-.738-2.36Z" transform="translate(-142.804 -108.243)" fill="#ff944f"/>
      <path id="Trazado_12925" data-name="Trazado 12925" d="M447.251,125.414s-2.279-8.583.444-11,3.093,4.194,1.794,7.51S447.251,125.414,447.251,125.414Z" transform="translate(-230.881 -60.18)" fill="#007658"/>
      <path id="Trazado_12926" data-name="Trazado 12926" d="M459.885,117.913c-.123-.1-3.155-5.935.247-9.144s2.609,3.179,1.609,6.132S459.885,117.913,459.885,117.913Z" transform="translate(-234.411 -58.436)" fill="#007658"/>
      <path id="Trazado_12927" data-name="Trazado 12927" d="M465.061,120.761s4.1-1.794,7.619-.557,1.785,5.815-2.422,4.764A7.059,7.059,0,0,1,465.061,120.761Z" transform="translate(-236.308 -61.883)" fill="#007658"/>
      <path id="Trazado_12928" data-name="Trazado 12928" d="M451.2,129.874s6.558-1.655,8.909.51.8,5.249-2.66,4.481S451.2,129.874,451.2,129.874Z" transform="translate(-232.288 -64.639)" fill="#007658"/>
      <path id="Trazado_12929" data-name="Trazado 12929" d="M285.148,219.239s-3.712-10.45-.911-15.451a24.275,24.275,0,0,1,5.562-7.1,91.117,91.117,0,0,0,.939,15.2,21.94,21.94,0,0,1-2.762,13.846Z" transform="translate(-183.538 -84.201)" fill="#007658"/>
      <path id="Trazado_12930" data-name="Trazado 12930" d="M284.856,249.042s-6.751-9.087-14.211-7.487-7.96,5.4-7.96,5.4a15.214,15.214,0,0,1,11.1,2.087,21.985,21.985,0,0,0,11.644,3.273Z" transform="translate(-177.588 -97.164)" fill="#007658"/>
      <path id="Trazado_12931" data-name="Trazado 12931" d="M246.681,171.436s-7.317-1.74-14.018-14.241-7.555-11.6-8.228-22.3a49.913,49.913,0,0,1,3.363-20.2s-1.99,13,9.038,24.6,19.73,22.622,21.43,31.414.562,12.116.562,12.116" transform="translate(-166.468 -60.409)" fill="#007658"/>
    </g>
    <circle id="Elipse_380" data-name="Elipse 380" cx="2.957" cy="2.957" r="2.957" transform="translate(400.319 94.275)" fill="#fff"/>
    <g id="Grupo_5068" data-name="Grupo 5068" transform="translate(415.996 96.759)">
      <path id="Trazado_12932" data-name="Trazado 12932" d="M540.773,132.871a6.092,6.092,0,1,1,6.092-6.092A6.1,6.1,0,0,1,540.773,132.871Zm0-10.764a4.672,4.672,0,1,0,4.672,4.672A4.678,4.678,0,0,0,540.773,122.107Z" transform="translate(-534.681 -120.687)" fill="#ffd54f"/>
    </g>
    <g id="Grupo_5069" data-name="Grupo 5069" transform="translate(125.64 158.353)">
      <path id="Trazado_12933" data-name="Trazado 12933" d="M131.732,219.642a6.092,6.092,0,1,1,6.092-6.092A6.1,6.1,0,0,1,131.732,219.642Zm0-10.764a4.672,4.672,0,1,0,4.672,4.672A4.678,4.678,0,0,0,131.732,208.878Z" transform="translate(-125.64 -207.458)" fill="#ffd54f"/>
    </g>
    <circle id="Elipse_381" data-name="Elipse 381" cx="2.957" cy="2.957" r="2.957" transform="translate(247.343 46.803)" fill="#fff"/>
    <circle id="Elipse_382" data-name="Elipse 382" cx="2.957" cy="2.957" r="2.957" transform="translate(152.108 156.746)" fill="#fff"/>
  </g>
</svg>
