<svg xmlns="http://www.w3.org/2000/svg" width="403.35" height="380.158" viewBox="0 0 403.35 380.158">
  <g id="Grupo_11362" data-name="Grupo 11362" transform="translate(-763.65 -833.86)">
    <path id="Trazado_1344" data-name="Trazado 1344" d="M-10359.906,3545.495h173.547" transform="translate(11215.007 -2332.477)" fill="none" stroke="#3bcfff" stroke-width="2"/>
    <path id="Trazado_1557" data-name="Trazado 1557" d="M95.646,293.943c-14.892-12.284-29.5-26.646-37.177-44.359s-7.477-39.946,4.853-54.8c6.271-7.553,15.225-12.821,20.255-21.252,5.529-9.268,5.386-20.832,3.749-31.5s-4.6-21.26-4.142-32.043a50.784,50.784,0,0,1,62.986-47.114C163.224,67.117,176.9,79.8,193.24,86.264c16.812,6.655,36.049,6.468,53.4,2.032,17.982-4.6,35.447-17.312,52.077-25.576,10.291-5.114,20.849-10.129,32.2-11.906s23.789.094,32.57,7.507c9.727,8.212,13.29,21.391,16.863,33.61s8.446,25.315,19.4,31.807c8.207,4.865,18.345,5.056,27.191,8.63a37.581,37.581,0,0,1,19.785,51.146c-4.957,10.3-14.544,18.25-17.525,29.284-2.46,9.1.012,18.721.114,28.148.226,21.142-17.49,43.949-36.6,53Z" transform="translate(716.595 783.668)" fill="#45ceff"/>
    <g id="Grupo_9833" data-name="Grupo 9833" transform="translate(763.65 861.751)">
      <g id="Grupo_11360" data-name="Grupo 11360">
        <path id="Trazado_1342" data-name="Trazado 1342" d="M-9519.484,3804.547" transform="translate(9825.14 -3490.521)" fill="none" stroke="#707070" stroke-width="1"/>
        <path id="Trazado_1343" data-name="Trazado 1343" d="M-10359.9,3545.495h342.971" transform="translate(10359.904 -3213.228)" fill="none" stroke="#7c3be6" stroke-width="2"/>
        <ellipse id="Elipse_512" data-name="Elipse 512" cx="160.5" cy="14.5" rx="160.5" ry="14.5" transform="translate(21.999 290.664)" fill="#efefef"/>
        <g id="Grupo_9832" data-name="Grupo 9832" transform="translate(173.774 20.506)">
          <path id="Trazado_1316" data-name="Trazado 1316" d="M1889.987,751.784c1.508,3.042,3.932,6.5,6.169,7.191a8.34,8.34,0,0,1,3.7,2.139l1.842-1.343,2.2-1.605s-.082-.254-.241-.666-.394-.979-.7-1.6a2.28,2.28,0,0,1-.5-2.055,4.864,4.864,0,0,0-.821-4c-.865-1.012-1.871-3.625-2.314-3.5-1.075.3.944,3.828.547,4.562a.813.813,0,0,1-1.014.47l-.02-.008c-3.213-1.03-7.7-7.921-9.245-6.766C1889.015,745.035,1889.344,750.489,1889.987,751.784Z" transform="translate(-1889.294 -691.007)" fill="#ffb27d"/>
          <path id="Trazado_1317" data-name="Trazado 1317" d="M1985.865,743.19s-14.983,22.954-21.724,29.7L1936.808,755a9.559,9.559,0,0,0-5.149,5.305s17.856,31.362,33.568,31.774,35.181-41.064,35.181-41.064Z" transform="translate(-1922.601 -689.999)" fill="#f1b13d"/>
          <g id="Grupo_9830" data-name="Grupo 9830" transform="translate(50.842 126.496)">
            <path id="Trazado_1318" data-name="Trazado 1318" d="M2435.36,1722.234h11.373a6.894,6.894,0,0,0,3.111-5.212c.555-3.664,4.662-5.662,5.551-8.66s-3.665-7.214-3.665-7.214l-.761-.981-.792-1.018-7.549,1.777s-.187,1.8-.3,4.088a51.987,51.987,0,0,0-.033,5.236c.222,4-1.118,8.3-4.669,9.078C2435,1719.9,2435.119,1721.461,2435.36,1722.234Z" transform="translate(-2369.351 -1568.053)" fill="#370c7d"/>
            <path id="Trazado_1319" data-name="Trazado 1319" d="M2127.074,1758.209h26.011c1.25-1.526.79-7.16.6-9-.039-.37-.066-.587-.066-.587s-8.882-7.1-10.1-1.665c-.037.171-.083.337-.132.5-1.537,5.089-8.431,7.4-12.412,8.045C2128.384,1755.926,2127.428,1757.271,2127.074,1758.209Z" transform="translate(-2127.074 -1604.028)" fill="#370c7d"/>
            <path id="Trazado_1320" data-name="Trazado 1320" d="M2150.252,1119.507s1.349,16.827,2.934,37.055c2.155,27.477,4.745,61.228,5,67.622.444,11.1,2.222,28.863,2.222,28.863s4.216,4.219,12.655,2.441c0,0,7.519-25.352,9.667-52.177.033-.44.067-.883.1-1.326,2-27.307,5.1-84.809,5.1-84.809Z" transform="translate(-2145.296 -1110.516)" fill="#21c3fd"/>
            <path id="Trazado_1321" data-name="Trazado 1321" d="M2150.252,1119.507s1.349,16.827,2.934,37.055l29.545,46.749c.033-.44.067-.883.1-1.326,2-27.307,5.1-84.809,5.1-84.809Z" transform="translate(-2145.296 -1110.516)" fill="#0e9acc"/>
            <path id="Trazado_1322" data-name="Trazado 1322" d="M2179.059,1097.017s24.31,60.942,40.295,89.581,20.98,36.632,20.98,36.632,9.158-3.663,9.99-6.161c0,0-6.112-55.29-16.817-68.768-6.049-7.616-13.154-30.471-13.487-38.463s-2.165-23.811-2.165-23.811Z" transform="translate(-2167.944 -1086.027)" fill="#21c3fd"/>
          </g>
          <path id="Trazado_1323" data-name="Trazado 1323" d="M2207.361,628.776c9.5,3,25.937-5.093,25.937-5.093s-8.759-6.573-8.3-20.242l-7.345,5.92-4.99,4.021a59.818,59.818,0,0,0,.566,6.524c.144,1.093.323,2.31.549,3.642A22.731,22.731,0,0,0,2207.361,628.776Z" transform="translate(-2139.352 -580.132)" fill="#ffb27d"/>
          <path id="Trazado_1324" data-name="Trazado 1324" d="M2232.158,634.623a59.816,59.816,0,0,0,.566,6.524c5.528-.949,11.8-9.884,11.8-9.884a17.612,17.612,0,0,0-7.376-.661Z" transform="translate(-2158.847 -601.372)" fill="#ed975d"/>
          <path id="Trazado_1325" data-name="Trazado 1325" d="M2207.314,553.427s15.691,2.607,17.165-7.19,4.49-16.058-5.467-18.137-12.469,1.366-13.756,4.517S2203.27,552.5,2207.314,553.427Z" transform="translate(-2136.908 -520.402)" fill="#ffb27d"/>
          <path id="Trazado_1326" data-name="Trazado 1326" d="M2144.189,777.546a1.536,1.536,0,0,0,1,.38c3.567-.049,13.97,1.933,22.772,1.029,7.421-.713,13.989-2.911,21.042-6.072.937-.42,3.092-1.571,3.044-2.617-.031-1.146-.146-2.809-.289-4.9a262.346,262.346,0,0,1-.521-34.248c.153-2.69.233-5.359.243-7.986.072-19.579-3.81-36.8-11.611-42.629-.667-.477-4.757,1.522-8.516,3.376a15.556,15.556,0,0,1-10.227,1.238l-3.281,2.9c-4,3.71-8.373,8.753-10.275,16.411-1.619,6.517-2.569,18.269-3.093,30.446-.238,5.518-.429,11.085-.478,16.366v.189c-.046.524-.046,1.1-.046,1.619C2143.76,766.6,2143.951,777.354,2144.189,777.546Z" transform="translate(-2089.439 -640.657)" fill="#f1b13d"/>
          <path id="Trazado_1327" data-name="Trazado 1327" d="M2311.924,872.359a262.313,262.313,0,0,1-.521-34.248c.153-2.69.232-5.358.243-7.985-3.25-7.883-5.906-13.6-5.906-13.6h-8.192S2291.543,857.545,2311.924,872.359Z" transform="translate(-2209.607 -747.654)" fill="#be8d35"/>
          <path id="Trazado_1328" data-name="Trazado 1328" d="M2209.488,519.314s-1.61-.269-1.35-2.487.256-5.117-1.547-4.577-1.893,1.984-2.634,1.141-.754-4.4-6.12-4.642-7.546,1.62-10.041.523-2.627-4.873-2.627-4.873a4.294,4.294,0,0,0,1.781,1.777s-4.162-5.693.657-9.6,9.734-1.348,12.523-1.179c6.145.372,10.114.741,12.122,4.779S2213.432,515.428,2209.488,519.314Z" transform="translate(-2121.905 -494.422)" fill="#1f0746"/>
          <path id="Trazado_1337" data-name="Trazado 1337" d="M2434.975,1079.463q-.014-.28-.035-.575c-.073-.976-1.908-3.421-1.908-3.421l4.6-2.388,1.822,3.01c2.75,2.189,2.8,2.228,2.3,6.418-.435,3.633,1.942,3.676,1.885,6.27s-3.4,1.32-3.4,1.32c-5.18-2.432-5.609-3.657-5.449-6.123-.491.7-1.041,1.1-1.509.8-.412-.267.409-1.33.768-3.789A4.4,4.4,0,0,1,2434.975,1079.463Z" transform="translate(-2316.772 -949.352)" fill="#ffb27d"/>
          <path id="Trazado_1338" data-name="Trazado 1338" d="M2300.269,773.7a26.836,26.836,0,0,1-6.147.342s-8.757-27.052-9.884-29.523-26.011-31.72-26.011-31.72l10.366-25.943s26.915,44.958,29.648,51.276c4.516,10.439,6.083,33.844,6.083,33.844A11.27,11.27,0,0,1,2300.269,773.7Z" transform="translate(-2179.342 -645.707)" fill="#f1b13d"/>
          <path id="Trazado_1339" data-name="Trazado 1339" d="M1889.43,745.808s-.246-3.991,1.325-3.991,9.577,10.338,9.577,10.338l-.638,2.225Z" transform="translate(-1889.39 -688.919)" fill="#ffb27d"/>
        </g>
        <g id="Grupo_9829" data-name="Grupo 9829" transform="translate(18.832 10.583)">
          <g id="Grupo_9827" data-name="Grupo 9827" transform="translate(33.48 0)">
            <path id="Trazado_1287" data-name="Trazado 1287" d="M862.62,644.536l-.011,1.927s.525,6.028-6.9,6.908-13.509.767-13.308-3.885c.669-3.6,1.867-9.192,1.916-12.172a20.978,20.978,0,0,0-.264-3.609l14.383-.287,4.236.692Z" transform="translate(-795.248 -602.075)" fill="#ffb27d"/>
            <path id="Trazado_1288" data-name="Trazado 1288" d="M868.366,634.11l-.055,10.426a12.166,12.166,0,0,1-5.185,1.144c-6.61,0-10.882-4.847-13.116-8.365a20.99,20.99,0,0,0-.264-3.609l14.383-.287Z" transform="translate(-800.94 -602.075)" fill="#e2915a"/>
            <path id="Trazado_1289" data-name="Trazado 1289" d="M836.791,546.742c1.668,8.981,13.257,8.686,18.265,8.121,1.409-.157,2.3-.337,2.3-.337,1.589-.425,2.475-2.927,2.888-6.206.817-6.488-.215-16.013-1.311-18.449-1.65-3.666-4.757-7.63-16.427-4.77S834.649,535.235,836.791,546.742Z" transform="translate(-789.085 -517.426)" fill="#ffb27d"/>
            <path id="Trazado_1290" data-name="Trazado 1290" d="M802.81,1769.063h16.421a39.632,39.632,0,0,0-1.31-5.894,16.71,16.71,0,0,0-.93-2.366c-1.6-3.188-11.741-1.16-11.741-1.16s-.942.807-1.678,3.89A32.706,32.706,0,0,0,802.81,1769.063Z" transform="translate(-764.586 -1473.85)" fill="#370c7d"/>
            <path id="Trazado_1291" data-name="Trazado 1291" d="M1022.84,1740.924c.045,2.234.326,4.348,1.136,5.183h32.48c-.413-1.175-1.582-2.943-4.916-3.484-3.789-.613-9.7-2.437-13.144-6.083a9.781,9.781,0,0,1-2.545-4.608c-1.528-6.8-12.635,2.084-12.635,2.084A55.047,55.047,0,0,0,1022.84,1740.924Z" transform="translate(-934.995 -1450.894)" fill="#370c7d"/>
            <path id="Trazado_1292" data-name="Trazado 1292" d="M870.981,1169.924a51.223,51.223,0,0,1,.815,6c1.033,20.14,16.954,66.191,19.8,67.265,4.406,1.663,11.345-1.872,14.976-3.028a3.113,3.113,0,0,0,2.185-3.536c-7.884-36.247-10.782-88.441-11.836-119.342a140.228,140.228,0,0,0-3.2-26.316s-38.831-10.361-39.062,2.746C854.451,1105.309,867.518,1150.792,870.981,1169.924Z" transform="translate(-804.74 -953.437)" fill="#5c22bc"/>
            <path id="Trazado_1293" data-name="Trazado 1293" d="M870.981,1169.924l25.941-52.642a140.228,140.228,0,0,0-3.2-26.316s-38.831-10.361-39.062,2.746C854.451,1105.309,867.518,1150.792,870.981,1169.924Z" transform="translate(-804.74 -953.437)" fill="#471d8d"/>
            <path id="Trazado_1294" data-name="Trazado 1294" d="M815.765,1100.441l-20.528,148.78s-9.015,2.174-16.026.434c0,0-6.01-79.128-5.509-98.257s-4.313-51.188,1.1-54.724S815.765,1100.441,815.765,1100.441Z" transform="translate(-740.883 -960.121)" fill="#6529c7"/>
            <path id="Trazado_1295" data-name="Trazado 1295" d="M845.046,498.319a38.6,38.6,0,0,1-11.2-3.029c-4.918-2.138-11.122.216-13.135,1.277a2.992,2.992,0,0,1,.491-1.212,2.7,2.7,0,0,0-1.037,1.537c-.093.069-.135.116-.111.132a3.465,3.465,0,0,0-1.683.109s.461-.066.625.23a.274.274,0,0,0,.074.082c-7.671,3.706-8.379,15.829-5.911,18.634,2.97,3.375,6.531,10.975,6.531,10.975a6.516,6.516,0,0,0,.758-4.765c-.54-2.97,2.025-2.97,5.265-4.32s.54-5.13,3.374-7.425,13.23-.945,13.095-2.7C846.045,506.44,845.046,498.715,845.046,498.319Z" transform="translate(-771.622 -494.422)" fill="#1f0746"/>
            <path id="Trazado_1296" data-name="Trazado 1296" d="M834.657,716.139l4.726,101.408s39.446.644,38.32-8.282-14.219-90.02-14.219-90.02l-28.828-3.106Z" transform="translate(-789.252 -666.143)" fill="#e9f3fe"/>
            <path id="Trazado_1297" data-name="Trazado 1297" d="M746.169,760.666c2.347,7.04-2.078,30.664-3.655,38.667-.347,1.693-.577,2.693-.577,2.693,5.463,8.887,25.47,8.772,25.47,8.772,3.847-17.006,5.848-44.091,5.848-44.091L757.9,699.414l-19.314,17.853s1.462,10.889,3.271,21.969C743.283,748.008,744.9,756.934,746.169,760.666Z" transform="translate(-714.847 -653.189)" fill="#7c3be6"/>
            <path id="Trazado_1298" data-name="Trazado 1298" d="M917.784,627.3s.375,1.158,3.3.736c0,0,2.455-.355,2.273-1.647A7.963,7.963,0,0,0,917.784,627.3Z" transform="translate(-853.635 -596.504)" fill="#fff"/>
            <path id="Trazado_1299" data-name="Trazado 1299" d="M958.486,705.337s0,.017.009.043c.933.9,27.266,26.471,32.367,36.485,5.194,10.158-23.738,30.394-23.738,30.394a6.734,6.734,0,0,1-3.154.448c1.364,11.232,2.9,21.595,1.988,26.018-1.64,7.995-9.035,10.68-9.035,10.065,0-.2-1.906-29.152-4.174-44.11-5.034-33.2-11.039-64.355-11.039-64.355A55.522,55.522,0,0,1,958.486,705.337Zm15.679,40.914a.232.232,0,0,0,.039-.154c0-1.463-5.579-4.695-11.62-8.5l-.115-.117-.012-.007c.107,3.112.1,6.165-.09,9.007a115.2,115.2,0,0,0,.678,17.987C965.922,759.973,973.6,747.906,974.165,746.251Z" transform="translate(-872.166 -653.895)" fill="#7c3be6"/>
            <g id="Grupo_9826" data-name="Grupo 9826" transform="translate(44.287 42.642)">
              <path id="Trazado_1300" data-name="Trazado 1300" d="M829.7,690.961c-.048-.968,4.536-2.305,4.536-2.305s5.247,7.275,13.891,7.4c0,0-2.463,4.794-5.367,6.036C842.759,702.092,829.984,696.708,829.7,690.961Z" transform="translate(-829.698 -687.5)" fill="#d9e9f9"/>
              <g id="Grupo_9825" data-name="Grupo 9825" transform="translate(17.774 9.894)">
                <path id="Trazado_1301" data-name="Trazado 1301" d="M921.315,794.606a9.571,9.571,0,0,1-3.048,6.187l-2.751,2.535a1.611,1.611,0,0,1-2.357-.189l-3.407-4.327a5.743,5.743,0,0,1-1.2-4.1c.319-3.274.913-9.582,1.388-15.671.387-4.933.7-9.726.72-12.641.075-9.309-1.772-38.994-1.772-38.994l2.232.116a119.529,119.529,0,0,1,8.445,27.2,103.743,103.743,0,0,1,1.543,12.222S922.267,783.9,921.315,794.606Z" transform="translate(-908.522 -727.405)" fill="#370c7d"/>
                <path id="Trazado_1302" data-name="Trazado 1302" d="M921.315,888.435a9.57,9.57,0,0,1-3.048,6.186l-2.751,2.535a1.611,1.611,0,0,1-2.357-.189l-3.407-4.327a5.743,5.743,0,0,1-1.2-4.1c.319-3.274.913-9.582,1.388-15.671,6.167-6.929,8.666-16.5,9.625-24.318a103.744,103.744,0,0,1,1.543,12.222S922.267,877.729,921.315,888.435Z" transform="translate(-908.522 -821.234)" fill="#370c7d"/>
              </g>
              <path id="Trazado_1303" data-name="Trazado 1303" d="M911.417,701.14s4.579-2.714,4.595-5.657c0,0,2.958-.37,4.25,1.064,0,0,1.086,5.044-.354,7.973C919.907,704.52,913.313,703.515,911.417,701.14Z" transform="translate(-892.99 -692.753)" fill="#d9e9f9"/>
              <path id="Trazado_1304" data-name="Trazado 1304" d="M896.737,713.672l6.209-1.488a.94.94,0,0,1,.789,1.082c-.022,1.012-1.749,3.967-2.513,4.2S895.268,715.719,896.737,713.672Z" transform="translate(-881.418 -705.722)" fill="#370c7d"/>
              <path id="Trazado_1305" data-name="Trazado 1305" d="M832.905,686.49c-.048-.968,3.055-2.962,3.055-2.962s6,7.018,14.649,7.144c0,0-2.463,4.794-5.367,6.036C845.242,696.708,833.19,692.237,832.905,686.49Z" transform="translate(-832.182 -683.528)" fill="#e9f3fe"/>
              <path id="Trazado_1306" data-name="Trazado 1306" d="M911.417,696.669s4.631-2.455,4.647-5.4a14.8,14.8,0,0,1,4.088,2.664,8.5,8.5,0,0,1-.245,6.114S913.313,699.044,911.417,696.669Z" transform="translate(-892.99 -689.525)" fill="#e9f3fe"/>
            </g>
            <path id="Trazado_1307" data-name="Trazado 1307" d="M1032.781,1011.8a4.269,4.269,0,0,0-4.829-4.272,2.642,2.642,0,0,0-1.793.99c-1.759,2.341-3.432,9.152-.316,9.47,1.269.13,2.9-.76,4.153-1.714,1.275-.968,2.785-2.486,2.785-4.087Z" transform="translate(-935.978 -891.791)" fill="#ffb27d"/>
            <path id="Trazado_1308" data-name="Trazado 1308" d="M753.747,936.107c5.656-5.887,15.428-17.468,15.082-26.972-.461-13.312-15.736-33.126-15.736-33.126,1.424,8.772,3.039,17.7,4.309,21.43C759.749,904.48,755.324,928.1,753.747,936.107Z" transform="translate(-726.08 -789.964)" fill="#5a25b1"/>
            <path id="Trazado_1309" data-name="Trazado 1309" d="M751.611,1039.837s4.066,2.033,6.534,1.016,5.373-1.78,8.131,1.361,3.34,5.319,2.759,6.48-7.013.726-8.081,0-2.755-2.513-3.826-2.2c-2.954.859-5.443-1.4-6.836-3.19C749.453,1042.219,751.721,1041.695,751.611,1039.837Z" transform="translate(-723.767 -916.849)" fill="#ffb27d"/>
            <path id="Trazado_1310" data-name="Trazado 1310" d="M676.356,699.414s-16.194,1.793-20.013,8.845-23.678,35.632-23.028,47.51,27.09,25.2,27.09,25.2,5.856-2.474,5.944-5.136-18.279-18.574-17.165-21.544,21.337-26.455,23.289-34.2S676.356,699.414,676.356,699.414Z" transform="translate(-633.3 -653.189)" fill="#7c3be6"/>
            <path id="Trazado_1311" data-name="Trazado 1311" d="M1033.677,840.1l.115.117c6.041,3.808,11.62,7.04,11.62,8.5.808-2.579-7.041-13.352-9.58-15.544C1033.253,830.943,1033.677,840.1,1033.677,840.1Z" transform="translate(-943.374 -756.517)" fill="#5a25b1"/>
            <path id="Trazado_1312" data-name="Trazado 1312" d="M822.026,683.528s12.294,51.492,10.337,70.889c0,0-4.521-20.728-15.4-37.706,0,0,3.97-3.491,3.754-4.778a13.586,13.586,0,0,0-5.805-.285s.316-22.2,2.1-24.541A12.99,12.99,0,0,1,822.026,683.528Z" transform="translate(-773.961 -640.886)" fill="#5a25b1"/>
            <path id="Trazado_1313" data-name="Trazado 1313" d="M932.019,691.271c-.166.078,12.184,50.316,13.223,66.4,0,0-1.232-28.7-1.111-36.965,0,0-5.106-2.7-5.106-3.652s5.447-3.513,5.447-3.513-3.449-17.672-5.332-19.619S932.019,691.271,932.019,691.271Z" transform="translate(-864.658 -646.883)" fill="#5a25b1"/>
          </g>
          <g id="Grupo_9828" data-name="Grupo 9828" transform="translate(0 256.711)">
            <path id="Trazado_1314" data-name="Trazado 1314" d="M424.464,1693.383l35.636-.042a8.457,8.457,0,0,0,8.422-8.442l-.018-15.443a8.457,8.457,0,0,0-8.442-8.423l-35.636.042a8.457,8.457,0,0,0-8.422,8.442l.018,15.443A8.457,8.457,0,0,0,424.464,1693.383Z" transform="translate(-411.305 -1654.68)" fill="#7c3be6"/>
            <path id="Trazado_1315" data-name="Trazado 1315" d="M446.544,1643.235v0a8.5,8.5,0,0,0-6.511-4.222h-.009c-.272-.026-.547-.041-.829-.041l-7.1.01,0-3.333a2.795,2.795,0,0,0-2.8-2.789h-1.851l-7.45.008-1.344,0a2.8,2.8,0,0,0-2.789,2.8l0,3.333-12.248.013a8.491,8.491,0,0,0-8.455,8.474l.02,15.623a8.488,8.488,0,0,0,8.473,8.453l35.571-.04a8.283,8.283,0,0,0,1.826-.2h.006a8.33,8.33,0,0,0,2.622-1.078,8.481,8.481,0,0,0,4-7.193l-.018-15.621A8.391,8.391,0,0,0,446.544,1643.235Zm-28.928-7.571a1.045,1.045,0,0,1,.732-1,1.056,1.056,0,0,1,.31-.049l1.582,0,5.864-.005,3.2,0a1.043,1.043,0,0,1,1.044,1.04l0,3.333-12.729.013Z" transform="translate(-395.167 -1632.858)" fill="#370c7d"/>
          </g>
        </g>
      </g>
    </g>
  </g>
</svg>
