<svg xmlns="http://www.w3.org/2000/svg" width="285" height="330.656" viewBox="0 0 285 330.656">
  <ellipse id="Elipse_895" data-name="Elipse 895" cx="142.5" cy="143.5" rx="142.5" ry="143.5" transform="translate(0 30.656)" fill="#f2f6f9"/>
  <g id="Grupo_15860" data-name="Grupo 15860" transform="translate(-54.626 -145.415)">
    <path id="Trazado_24912" data-name="Trazado 24912" d="M323.693,422.91l-.338.025h-24.5q-.38-2.126-.819-4.7h25.308C323.465,419.779,323.575,421.34,323.693,422.91Z" transform="translate(-30.726 -42.605)" fill="#8aa7bc"/>
    <rect id="Rect치ngulo_3865" data-name="Rect치ngulo 3865" width="4.433" height="24.642" transform="translate(228.154 330.697) rotate(-66.558)" fill="#8aa6ba"/>
    <rect id="Rect치ngulo_3866" data-name="Rect치ngulo 3866" width="24.648" height="4.43" transform="translate(218.21 228.575)" fill="#8aa6ba"/>
    <path id="Trazado_24913" data-name="Trazado 24913" d="M271.56,254.955c1.122,34.648,11.409,97.843,16.1,125.174h25.308c-9.772-133.081-22.961-194.672-22.961-194.672s-17.4-6-26.836-11.231l7.873,32.639-22.539-6.886H231.579l17.729,24.868s-9.189,3.89-17.526,7.426l9.392,15.78v54.115L238.3,471.415s27.931,1.6,48.453-5.569l-9.594-116.5a61.544,61.544,0,0,0-4-17.02l-11.814-30.159V290.758Zm1.316,85.97-1.764,4.067L248.5,335.2l1.764-4.067ZM238.558,237.5v-4.43h24.648v4.43Z" transform="translate(-20.347 -4.499)" fill="#9ebcd6"/>
    <path id="Trazado_24914" data-name="Trazado 24914" d="M234.339,152.2l3.519,4.65-3.173,5.173H184.612l-.068.042-3.105-5.215,3.519-4.65,2.768-3.662h43.837Z" transform="translate(-12.517 -0.487)" fill="#8aa6ba"/>
    <path id="Trazado_24915" data-name="Trazado 24915" d="M235.259,164.515l-25.037,40.833-.608.363-24.5-41.154.068-.042h50.073Z" transform="translate(-13.092 -2.983)" fill="#7691a5"/>
    <path id="Trazado_24916" data-name="Trazado 24916" d="M219.054,195.48h16.927l22.539,6.886-7.873-32.639-.439-1.823s-6.852-6.582-12.852-11.544a39.178,39.178,0,0,1-5.822-6.084,33.677,33.677,0,0,1-3.164-4.861H181.529a33.677,33.677,0,0,1-3.164,4.861,39.177,39.177,0,0,1-5.822,6.084c-6,4.962-12.852,11.544-12.852,11.544l-.464,1.916-7.848,32.547,22.539-6.886h16.927l-17.729,24.868s37.542,11.426,55.533,23.205l-9.392-15.78c8.337-3.536,17.526-7.426,17.526-7.426Zm-39.2-33.905-3.105-5.215,3.519-4.65,2.768-3.662h43.837l2.776,3.662,3.519,4.65-3.173,5.173-25.037,40.833-.608.363Z" transform="translate(-7.823)" fill="#b3c6dd"/>
    <path id="Trazado_24917" data-name="Trazado 24917" d="M165.357,224.864,183.086,200H166.159l-22.539,6.886,7.848-32.547c-8.919,5.206-26.811,11.139-26.811,11.139S111.468,247.065,101.7,380.146h25.309c4.692-27.332,14.987-90.526,16.1-125.174l10.227,35.8v11.409l-11.822,30.159a61.544,61.544,0,0,0-4,17.02l-9.594,116.5s31.762,14.725,69.279,14.725a98.428,98.428,0,0,0,20.7-2.236l.118-6.919,2.877-169.248V248.069C202.9,236.289,165.357,224.864,165.357,224.864Zm45.424,24.159a3.709,3.709,0,1,1-3.713,3.713A3.706,3.706,0,0,1,210.781,249.023Zm0,29.222a3.713,3.713,0,1,1-3.713,3.713A3.706,3.706,0,0,1,210.781,278.245ZM183.6,249.023a3.709,3.709,0,1,1-3.7,3.713A3.713,3.713,0,0,1,183.6,249.023Zm0,29.222a3.713,3.713,0,1,1-3.7,3.713A3.713,3.713,0,0,1,183.6,278.245ZM167.712,202a3.709,3.709,0,1,1-3.7,3.713A3.713,3.713,0,0,1,167.712,202ZM144.245,345.009l-1.755-4.067,22.615-9.788,1.755,4.067Zm39.356.5a3.713,3.713,0,1,1,3.713-3.713A3.706,3.706,0,0,1,183.6,345.507Zm27.18,0a3.713,3.713,0,1,1,3.7-3.713A3.713,3.713,0,0,1,210.781,345.507Z" transform="translate(-0.064 -4.516)" fill="#a7c2dc"/>
    <path id="Trazado_24918" data-name="Trazado 24918" d="M230.282,262.845a3.709,3.709,0,1,1-3.713,3.713A3.706,3.706,0,0,1,230.282,262.845Z" transform="translate(-19.565 -18.339)" fill="#8aa7bc"/>
    <path id="Trazado_24919" data-name="Trazado 24919" d="M230.282,297.475a3.713,3.713,0,1,1-3.713,3.713A3.706,3.706,0,0,1,230.282,297.475Z" transform="translate(-19.565 -23.747)" fill="#8aa7bc"/>
    <path id="Trazado_24920" data-name="Trazado 24920" d="M230.282,368.385a3.713,3.713,0,1,1-3.713,3.713A3.706,3.706,0,0,1,230.282,368.385Z" transform="translate(-19.565 -34.82)" fill="#8aa7bc"/>
    <path id="Trazado_24921" data-name="Trazado 24921" d="M198.073,262.845a3.709,3.709,0,1,1-3.7,3.713A3.713,3.713,0,0,1,198.073,262.845Z" transform="translate(-14.536 -18.339)" fill="#8aa7bc"/>
    <path id="Trazado_24922" data-name="Trazado 24922" d="M198.073,297.475a3.713,3.713,0,1,1-3.7,3.713A3.713,3.713,0,0,1,198.073,297.475Z" transform="translate(-14.536 -23.747)" fill="#8aa7bc"/>
    <path id="Trazado_24923" data-name="Trazado 24923" d="M198.073,368.385a3.713,3.713,0,1,1-3.7,3.713A3.713,3.713,0,0,1,198.073,368.385Z" transform="translate(-14.536 -34.82)" fill="#8aa7bc"/>
    <path id="Trazado_24924" data-name="Trazado 24924" d="M179.243,207.115a3.709,3.709,0,1,1-3.7,3.713A3.713,3.713,0,0,1,179.243,207.115Z" transform="translate(-11.596 -9.635)" fill="#8aa7bc"/>
    <path id="Trazado_24925" data-name="Trazado 24925" d="M172.654,360.175l1.755,4.067-22.615,9.788-1.755-4.067Z" transform="translate(-7.614 -33.538)" fill="#8aa7bc"/>
    <path id="Trazado_24926" data-name="Trazado 24926" d="M101.632,418.235h25.309q-.443,2.57-.819,4.7H101.632l-.346-.025C101.4,421.34,101.514,419.779,101.632,418.235Z" transform="translate(0 -42.605)" fill="#8aa7bc"/>
  </g>
</svg>
