<svg id="icon_media_pdf" xmlns="http://www.w3.org/2000/svg" width="64" height="64" viewBox="0 0 64 64">
  <circle id="Elipse_866" data-name="Elipse 866" cx="32" cy="32" r="32" fill="#ffd54f"/>
  <g id="Grupo_15730" data-name="Grupo 15730">
    <g id="Grupo_15724" data-name="Grupo 15724">
      <g id="Grupo_15722" data-name="Grupo 15722" opacity="0.2">
        <path id="Trazado_24792" data-name="Trazado 24792" d="M36,23V14H19a3,3,0,0,0-3,3V51a3,3,0,0,0,3,3H45a3,3,0,0,0,3-3V26H39A3,3,0,0,1,36,23Z" fill="#231f20"/>
      </g>
      <path id="Trazado_24793" data-name="Trazado 24793" d="M36,21V12H19a3,3,0,0,0-3,3V49a3,3,0,0,0,3,3H45a3,3,0,0,0,3-3V24H39A3,3,0,0,1,36,21Z" fill="#e0e0d1"/>
      <g id="Grupo_15723" data-name="Grupo 15723" opacity="0.2">
        <path id="Trazado_24794" data-name="Trazado 24794" d="M37.02,23.29,48,33V24Z" fill="#231f20"/>
      </g>
      <path id="Trazado_24795" data-name="Trazado 24795" d="M36,12v9a3,3,0,0,0,3,3h9Z" fill="#fff"/>
    </g>
    <g id="Grupo_15725" data-name="Grupo 15725" opacity="0.2">
      <rect id="Rectángulo_3745" data-name="Rectángulo 3745" width="9.63" height="2" transform="translate(22 22)" fill="#231f20"/>
    </g>
    <g id="Grupo_15726" data-name="Grupo 15726" opacity="0.2">
      <rect id="Rectángulo_3746" data-name="Rectángulo 3746" width="20" height="2" transform="translate(22 32)" fill="#231f20"/>
    </g>
    <g id="Grupo_15727" data-name="Grupo 15727" opacity="0.2">
      <rect id="Rectángulo_3747" data-name="Rectángulo 3747" width="20" height="2" transform="translate(22 27)" fill="#231f20"/>
    </g>
    <g id="Grupo_15728" data-name="Grupo 15728" opacity="0.2">
      <rect id="Rectángulo_3748" data-name="Rectángulo 3748" width="20" height="2" transform="translate(22 37)" fill="#231f20"/>
    </g>
    <g id="Grupo_15729" data-name="Grupo 15729" opacity="0.2">
      <rect id="Rectángulo_3749" data-name="Rectángulo 3749" width="20" height="2" transform="translate(22 42)" fill="#231f20"/>
    </g>
  </g>
</svg>
