<svg xmlns="http://www.w3.org/2000/svg" xmlns:xlink="http://www.w3.org/1999/xlink" width="64" height="63.2" viewBox="0 0 64 63.2">
  <defs>
    <radialGradient id="radial-gradient" cx="0.5" cy="0.5" r="12.427" gradientTransform="translate(0.989 549.179) scale(0.04 0.04)" gradientUnits="objectBoundingBox">
      <stop offset="0" stop-color="#999"/>
      <stop offset="0.331" stop-color="#9b9b9b"/>
      <stop offset="0.511" stop-color="#a3a3a3"/>
      <stop offset="0.654" stop-color="#b0b0b0"/>
      <stop offset="0.778" stop-color="#c4c4c4"/>
      <stop offset="0.889" stop-color="#ddd"/>
      <stop offset="0.99" stop-color="#fbfbfb"/>
      <stop offset="1" stop-color="#fff"/>
    </radialGradient>
    <radialGradient id="radial-gradient-2" cx="0.5" cy="0.5" r="0.632" gradientTransform="translate(-0.122 0) scale(1.245 1)" gradientUnits="objectBoundingBox">
      <stop offset="0" stop-color="#fff"/>
      <stop offset="0.388" stop-color="#fbfbfb"/>
      <stop offset="0.701" stop-color="#f1f1f1"/>
      <stop offset="0.989" stop-color="#e0e0e0"/>
      <stop offset="1" stop-color="#e0e0e0"/>
    </radialGradient>
    <linearGradient id="linear-gradient" x1="0.474" y1="0.408" x2="-0.3" y2="1.722" gradientUnits="objectBoundingBox">
      <stop offset="0" stop-color="#fff"/>
      <stop offset="0.337" stop-color="#f9f9f9"/>
      <stop offset="0.752" stop-color="#eaeaea"/>
      <stop offset="1" stop-color="#dedede"/>
    </linearGradient>
    <radialGradient id="radial-gradient-3" cx="0.51" cy="1.582" r="1.91" gradientTransform="translate(0.286 0) scale(0.439 1)" gradientUnits="objectBoundingBox">
      <stop offset="0" stop-color="#f79952"/>
      <stop offset="0.223" stop-color="#f4934e"/>
      <stop offset="0.499" stop-color="#ed8445"/>
      <stop offset="0.801" stop-color="#e16b37"/>
      <stop offset="1" stop-color="#d8572b"/>
    </radialGradient>
    <clipPath id="clip-path">
      <path id="Trazado_3617" data-name="Trazado 3617" d="M212,81.5a1.5,1.5,0,0,1-1.5-1.5V22a1.5,1.5,0,0,1,1.5-1.5h26.866L259.5,32.99V80a1.5,1.5,0,0,1-1.5,1.5Z" fill="none"/>
    </clipPath>
    <radialGradient id="radial-gradient-4" cx="2.469" cy="10" r="41.1" gradientTransform="translate(0.438) scale(0.125 1)" gradientUnits="objectBoundingBox">
      <stop offset="0" stop-color="#e5e5e5"/>
      <stop offset="0.338" stop-color="#e1e1e1"/>
      <stop offset="0.612" stop-color="#d7d7d7"/>
      <stop offset="0.863" stop-color="#c6c6c6"/>
      <stop offset="1" stop-color="#bababa"/>
    </radialGradient>
    <radialGradient id="radial-gradient-5" cx="1.317" cy="8" r="49.321" gradientTransform="translate(0.363 1.333) scale(0.056 0.833)" xlink:href="#radial-gradient-4"/>
    <radialGradient id="radial-gradient-6" cx="1.317" cy="8" r="19.18" gradientTransform="translate(13.194 -9.143) scale(0.143 2.143)" xlink:href="#radial-gradient-4"/>
    <radialGradient id="radial-gradient-7" cx="1.316" cy="8" r="13.7" gradientTransform="translate(29.262 -16) scale(0.2 3)" xlink:href="#radial-gradient-4"/>
    <radialGradient id="radial-gradient-8" cx="1.95" r="41.1" gradientTransform="translate(0.4) scale(0.2 1)" xlink:href="#radial-gradient-4"/>
    <radialGradient id="radial-gradient-9" cx="1.975" cy="-8" r="41.1" gradientTransform="translate(0.45) scale(0.1 1)" xlink:href="#radial-gradient-4"/>
    <radialGradient id="radial-gradient-10" cx="1.975" cy="-8" r="12.33" gradientTransform="translate(44.315 18.667) scale(0.333 3.333)" xlink:href="#radial-gradient-4"/>
    <radialGradient id="radial-gradient-11" cx="3.95" cy="-6" r="41.1" gradientTransform="translate(0.4) scale(0.2 1)" xlink:href="#radial-gradient-4"/>
    <radialGradient id="radial-gradient-12" cx="3.95" cy="-6" r="24.66" gradientTransform="translate(15.796 4) scale(0.333 1.667)" xlink:href="#radial-gradient-4"/>
    <radialGradient id="radial-gradient-13" cx="0.494" cy="4" r="41.1" gradientTransform="translate(0.488) scale(0.025 1)" xlink:href="#radial-gradient-4"/>
    <radialGradient id="radial-gradient-14" cx="2.469" cy="-2" r="41.1" xlink:href="#radial-gradient-4"/>
    <radialGradient id="radial-gradient-15" cx="0.983" cy="0" r="41.1" gradientTransform="translate(0.467) scale(0.067 1)" xlink:href="#radial-gradient-4"/>
    <radialGradient id="radial-gradient-16" cx="4.938" cy="0" r="41.1" gradientTransform="translate(0.375) scale(0.25 1)" xlink:href="#radial-gradient-4"/>
    <radialGradient id="radial-gradient-17" cx="0.536" cy="0" r="41.1" gradientTransform="translate(0.429) scale(0.143 1)" xlink:href="#radial-gradient-4"/>
    <radialGradient id="radial-gradient-18" cx="7.375" cy="-2" r="41.1" gradientTransform="translate(0.25) scale(0.5 1)" xlink:href="#radial-gradient-4"/>
    <radialGradient id="radial-gradient-19" cx="10.75" cy="-2" r="41.1" gradientTransform="matrix(1, 0, 0, 1, 0, 0)" xlink:href="#radial-gradient-4"/>
    <radialGradient id="radial-gradient-20" cx="-0.266" cy="0" r="41.1" gradientTransform="translate(0.469) scale(0.063 1)" xlink:href="#radial-gradient-4"/>
    <radialGradient id="radial-gradient-21" cx="-4.063" cy="2" r="41.1" gradientTransform="translate(0.375) scale(0.25 1)" xlink:href="#radial-gradient-4"/>
    <radialGradient id="radial-gradient-22" cx="3.292" cy="2" r="41.1" gradientTransform="translate(0.417) scale(0.167 1)" xlink:href="#radial-gradient-4"/>
    <radialGradient id="radial-gradient-23" cx="0.455" cy="2" r="41.1" gradientTransform="translate(0.482) scale(0.036 1)" xlink:href="#radial-gradient-4"/>
  </defs>
  <g id="Grupo_11229" data-name="Grupo 11229" transform="translate(-203 -20)">
    <path id="Trazado_3602" data-name="Trazado 3602" d="M203,81.912c0-.711,14.327-1.287,32-1.287s32,.576,32,1.287S252.673,83.2,235,83.2,203,82.624,203,81.912Z" fill="url(#radial-gradient)"/>
    <path id="Trazado_3603" data-name="Trazado 3603" d="M239,20H212a2,2,0,0,0-2,2V80a2,2,0,0,0,2,2h46a2,2,0,0,0,2-2V32.7Z" fill="#ccc"/>
    <path id="Trazado_3604" data-name="Trazado 3604" d="M212,81.5a1.5,1.5,0,0,1-1.5-1.5V22a1.5,1.5,0,0,1,1.5-1.5h26.866L259.5,32.99V80a1.5,1.5,0,0,1-1.5,1.5Z" fill="url(#radial-gradient-2)"/>
    <path id="Trazado_3605" data-name="Trazado 3605" d="M248.232,39.262a2,2,0,0,1-2.733-.733L238.866,20.5,259.5,32.912Z" fill="#ccc"/>
    <path id="Trazado_3606" data-name="Trazado 3606" d="M249.232,37.262a2,2,0,0,1-2.733-.732L238.866,20.5,259.5,32.912Z" fill="url(#linear-gradient)"/>
    <g id="Grupo_11222" data-name="Grupo 11222">
      <path id="Trazado_3607" data-name="Trazado 3607" d="M260,32.7,239,20H212a2,2,0,0,0-2,2V42h50Z" fill="#af331b"/>
    </g>
    <g id="Grupo_11223" data-name="Grupo 11223">
      <path id="Trazado_3608" data-name="Trazado 3608" d="M259.5,32.99,238.866,20.5H212a1.5,1.5,0,0,0-1.5,1.5V42h49Z" fill="url(#radial-gradient-3)"/>
    </g>
    <path id="Trazado_3609" data-name="Trazado 3609" d="M248.232,39.262a2,2,0,0,1-2.733-.733L238.866,20.5,259.5,32.912Z" fill="#d8572b"/>
    <path id="Trazado_3610" data-name="Trazado 3610" d="M249.232,37.262a2,2,0,0,1-2.733-.732L238.866,20.5,259.5,32.912Z" fill="#f79952"/>
    <g id="Grupo_11224" data-name="Grupo 11224">
      <path id="Trazado_3611" data-name="Trazado 3611" d="M218.909,27.892a3,3,0,0,1,1.14.194,2.119,2.119,0,0,1,.764.516,1.968,1.968,0,0,1,.431.73,2.728,2.728,0,0,1,0,1.695,1.98,1.98,0,0,1-.431.735,2.13,2.13,0,0,1-.764.515,2.979,2.979,0,0,1-1.14.195h-1.65v2.56h-1.57v-7.14Zm-.431,3.36a3.142,3.142,0,0,0,.521-.041,1.2,1.2,0,0,0,.439-.154.849.849,0,0,0,.306-.325,1.386,1.386,0,0,0,0-1.1.846.846,0,0,0-.306-.324,1.187,1.187,0,0,0-.439-.155,3.375,3.375,0,0,0-.521-.04h-1.219v2.14Z" fill="#fff"/>
      <path id="Trazado_3612" data-name="Trazado 3612" d="M225.579,27.892a3,3,0,0,1,1.14.194,2.119,2.119,0,0,1,.764.516,1.968,1.968,0,0,1,.431.73,2.728,2.728,0,0,1,0,1.695,1.98,1.98,0,0,1-.431.735,2.13,2.13,0,0,1-.764.515,2.979,2.979,0,0,1-1.14.195h-1.65v2.56h-1.571v-7.14Zm-.431,3.36a3.143,3.143,0,0,0,.521-.041,1.2,1.2,0,0,0,.439-.154.849.849,0,0,0,.306-.325,1.386,1.386,0,0,0,0-1.1.846.846,0,0,0-.306-.324,1.187,1.187,0,0,0-.439-.155,3.376,3.376,0,0,0-.521-.04h-1.219v2.14Z" fill="#fff"/>
      <path id="Trazado_3613" data-name="Trazado 3613" d="M228.469,29.211V27.892h5.849v1.319h-2.139v5.821h-1.571V29.211Z" fill="#fff"/>
    </g>
    <g id="Grupo_11227" data-name="Grupo 11227">
      <g id="Grupo_11226" data-name="Grupo 11226" clip-path="url(#clip-path)">
        <g id="Grupo_11225" data-name="Grupo 11225">
          <path id="Trazado_3614" data-name="Trazado 3614" d="M257.574,61.949a13.942,13.942,0,0,0-17.15,0L249,70.525Z" fill="#f9b886"/>
          <path id="Trazado_3615" data-name="Trazado 3615" d="M247.763,74.237l-9.814-9.813a13.986,13.986,0,0,0,19.627,19.627L249,75.475Z" fill="#f79952"/>
          <path id="Trazado_3616" data-name="Trazado 3616" d="M260.051,81.576a13.941,13.941,0,0,0,0-17.152L251.475,73Z" fill="#fbcca8"/>
        </g>
      </g>
    </g>
    <g id="Grupo_11228" data-name="Grupo 11228">
      <rect id="Rectángulo_3052" data-name="Rectángulo 3052" width="8" height="1" transform="translate(216 58)" fill="url(#radial-gradient-4)"/>
      <rect id="Rectángulo_3053" data-name="Rectángulo 3053" width="18" height="1" transform="translate(216 60)" fill="url(#radial-gradient-5)"/>
      <rect id="Rectángulo_3054" data-name="Rectángulo 3054" width="7" height="1" transform="translate(216 56)" fill="url(#radial-gradient-6)"/>
      <rect id="Rectángulo_3055" data-name="Rectángulo 3055" width="1" height="1" transform="translate(214 56)" fill="#f79952"/>
      <rect id="Rectángulo_3056" data-name="Rectángulo 3056" width="1" height="1" transform="translate(214 58)" fill="#f79952"/>
      <rect id="Rectángulo_3057" data-name="Rectángulo 3057" width="1" height="1" transform="translate(214 60)" fill="#f79952"/>
      <rect id="Rectángulo_3058" data-name="Rectángulo 3058" width="1" height="1" transform="translate(214 62)" fill="#f79952"/>
      <rect id="Rectángulo_3059" data-name="Rectángulo 3059" width="1" height="1" transform="translate(214 64)" fill="#f79952"/>
      <rect id="Rectángulo_3060" data-name="Rectángulo 3060" width="5" height="1" transform="translate(224 56)" fill="url(#radial-gradient-7)"/>
      <rect id="Rectángulo_3061" data-name="Rectángulo 3061" width="5" height="1" transform="translate(226 58)" fill="url(#radial-gradient-8)"/>
      <rect id="Rectángulo_3062" data-name="Rectángulo 3062" width="10" height="1" transform="translate(216 64)" fill="url(#radial-gradient-9)"/>
      <rect id="Rectángulo_3063" data-name="Rectángulo 3063" width="3" height="1" transform="translate(227 64)" fill="url(#radial-gradient-10)"/>
      <rect id="Rectángulo_3064" data-name="Rectángulo 3064" width="5" height="1" transform="translate(216 62)" fill="url(#radial-gradient-11)"/>
      <rect id="Rectángulo_3065" data-name="Rectángulo 3065" width="3" height="1" transform="translate(222 62)" fill="url(#radial-gradient-12)"/>
    </g>
    <rect id="Rectángulo_3066" data-name="Rectángulo 3066" width="40" height="1" transform="translate(214 46)" fill="url(#radial-gradient-13)"/>
    <rect id="Rectángulo_3067" data-name="Rectángulo 3067" width="8" height="1" transform="translate(214 52)" fill="url(#radial-gradient-14)"/>
    <rect id="Rectángulo_3068" data-name="Rectángulo 3068" width="15" height="1" transform="translate(219 50)" fill="url(#radial-gradient-15)"/>
    <rect id="Rectángulo_3069" data-name="Rectángulo 3069" width="4" height="1" transform="translate(214 50)" fill="url(#radial-gradient-16)"/>
    <rect id="Rectángulo_3070" data-name="Rectángulo 3070" width="7" height="1" transform="translate(230 50)" fill="url(#radial-gradient-17)"/>
    <rect id="Rectángulo_3071" data-name="Rectángulo 3071" width="2" height="1" transform="translate(219 52)" fill="url(#radial-gradient-18)"/>
    <rect id="Rectángulo_3072" data-name="Rectángulo 3072" width="1" height="1" transform="translate(223 52)" fill="url(#radial-gradient-19)"/>
    <rect id="Rectángulo_3073" data-name="Rectángulo 3073" width="16" height="1" transform="translate(238 50)" fill="url(#radial-gradient-20)"/>
    <rect id="Rectángulo_3074" data-name="Rectángulo 3074" width="4" height="1" transform="translate(250 48)" fill="url(#radial-gradient-21)"/>
    <rect id="Rectángulo_3075" data-name="Rectángulo 3075" width="6" height="1" transform="translate(214 48)" fill="url(#radial-gradient-22)"/>
    <rect id="Rectángulo_3076" data-name="Rectángulo 3076" width="28" height="1" transform="translate(221 48)" fill="url(#radial-gradient-23)"/>
  </g>
</svg>
