<svg id="Grupo_867" data-name="Grupo 867" xmlns="http://www.w3.org/2000/svg" width="27.455" height="31.377" viewBox="0 0 27.455 31.377">
  <path id="Trazado_1157" data-name="Trazado 1157" d="M816.062,2604.383a1.967,1.967,0,0,0-1.961,1.96V2633.8a1.967,1.967,0,0,0,1.961,1.961h19.611a1.966,1.966,0,0,0,1.961-1.961v-21.572l-7.844-7.844Z" transform="translate(-810.179 -2604.383)" fill="#f2f2f2"/>
  <path id="Trazado_1160" data-name="Trazado 1160" d="M829.471,2645.782a.981.981,0,0,1-.981.981H806.919a.981.981,0,0,1-.981-.981v-9.806a.981.981,0,0,1,.981-.98H828.49a.98.98,0,0,1,.981.98Z" transform="translate(-805.938 -2620.288)" fill="#db311c"/>
  <g id="Grupo_855" data-name="Grupo 855" transform="translate(4.274 18.037)">
    <path id="Trazado_1161" data-name="Trazado 1161" d="M814.834,2642.465a.54.54,0,0,1,.532-.542h1.811a1.961,1.961,0,0,1,0,3.923h-1.308v1.035a.49.49,0,0,1-.437.538.442.442,0,0,1-.065,0,.528.528,0,0,1-.532-.524v-4.432Zm1.034.446v1.954h1.309a.981.981,0,0,0,0-1.954Z" transform="translate(-814.834 -2641.924)" fill="#fff"/>
    <path id="Trazado_1162" data-name="Trazado 1162" d="M826.355,2647.487a.49.49,0,0,1-.539-.436c0-.019,0-.036,0-.054v-4.453a.533.533,0,0,1,.541-.49h1.8c3.583,0,3.5,5.425.071,5.425Zm.491-4.468v3.512h1.3c2.117,0,2.211-3.512,0-3.512Z" transform="translate(-820.539 -2641.991)" fill="#fff"/>
    <path id="Trazado_1163" data-name="Trazado 1163" d="M839.507,2643.088v1.246h2a.606.606,0,0,1,.565.556.545.545,0,0,1-.565.471h-2v1.646a.464.464,0,0,1-.443.485h-.026a.5.5,0,0,1-.553-.437.484.484,0,0,1,0-.049v-4.453a.5.5,0,0,1,.5-.494.549.549,0,0,1,.06,0h2.752a.491.491,0,0,1,.546.428.53.53,0,0,1,0,.063.541.541,0,0,1-.549.533h-2.283Z" transform="translate(-827.12 -2641.994)" fill="#fff"/>
  </g>
  <path id="Trazado_1164" data-name="Trazado 1164" d="M832.732,2658.426H814.1v.981h18.631a.981.981,0,0,0,.981-.981v-.98A.981.981,0,0,1,832.732,2658.426Z" transform="translate(-810.179 -2631.951)" fill="#e6e6e6"/>
  <path id="Trazado_1158" data-name="Trazado 1158" d="M848.716,2612.227H854.6l-7.844-7.844v5.883A1.967,1.967,0,0,0,848.716,2612.227Z" transform="translate(-827.144 -2604.383)" fill="#b3b3b3"/>
</svg>
