<svg xmlns="http://www.w3.org/2000/svg" width="110" height="103.869" viewBox="0 0 110 103.869">
  <g id="Grupo_15314" data-name="Grupo 15314" transform="translate(473.824 -1240.943)">
    <rect id="Rectángulo_3587" data-name="Rectángulo 3587" width="110" height="103.87" rx="7.453" transform="translate(-473.824 1240.943)" fill="#f8f3ff"/>
    <g id="Grupo_15313" data-name="Grupo 15313" transform="translate(-457.285 1254.274)">
      <rect id="Rectángulo_3588" data-name="Rectángulo 3588" width="1.534" height="33.203" transform="translate(38.624 0.334)" fill="#7b1fa2"/>
      <rect id="Rectángulo_3589" data-name="Rectángulo 3589" width="1.707" height="22.628" transform="translate(66.525 0.334)" fill="#7b1fa2"/>
      <rect id="Rectángulo_3590" data-name="Rectángulo 3590" width="1.707" height="22.628" transform="translate(45.12 0.334)" fill="#7b1fa2"/>
      <rect id="Rectángulo_3591" data-name="Rectángulo 3591" width="1.707" height="22.628" transform="translate(51.72 0.334)" fill="#7b1fa2"/>
      <rect id="Rectángulo_3592" data-name="Rectángulo 3592" width="1.707" height="22.628" transform="translate(59.123 0.334)" fill="#7b1fa2"/>
      <rect id="Rectángulo_3593" data-name="Rectángulo 3593" width="1.707" height="22.628" transform="translate(31.151 0.334)" fill="#7b1fa2"/>
      <rect id="Rectángulo_3594" data-name="Rectángulo 3594" width="1.707" height="22.628" transform="translate(9.746 0.334)" fill="#7b1fa2"/>
      <rect id="Rectángulo_3595" data-name="Rectángulo 3595" width="1.707" height="22.628" transform="translate(16.346 0.334)" fill="#7b1fa2"/>
      <rect id="Rectángulo_3596" data-name="Rectángulo 3596" width="1.707" height="22.628" transform="translate(23.748 0.334)" fill="#7b1fa2"/>
      <rect id="Rectángulo_3597" data-name="Rectángulo 3597" width="1.707" height="74.115" transform="translate(74.471 0.334)" fill="#7b1fa2"/>
      <rect id="Rectángulo_3598" data-name="Rectángulo 3598" width="1.707" height="33.203" transform="translate(2.858 0.334)" fill="#7b1fa2"/>
      <text id="_1" data-name="1" transform="translate(57.914 70.66)" fill="#ba68c8" font-size="22" font-family="SegoeUI, Segoe UI"><tspan x="0" y="0">1</tspan></text>
      <text id="cm" transform="translate(0 70.18)" fill="#ba68c8" font-size="22" font-family="SegoeUI, Segoe UI"><tspan x="0" y="0">cm</tspan></text>
      <rect id="Rectángulo_3599" data-name="Rectángulo 3599" width="73.282" height="1.784" transform="translate(2.858)" fill="#7b1fa2"/>
    </g>
  </g>
</svg>
