<svg id="Grupo_6242" data-name="Grupo 6242" xmlns="http://www.w3.org/2000/svg" width="142.579" height="365.591" viewBox="0 0 142.579 365.591">
  <ellipse id="Elipse_530" data-name="Elipse 530" cx="58.696" cy="157.943" rx="58.696" ry="157.943" transform="translate(4.274 24.544)" fill="#f8f3ff"/>
  <g id="Grupo_6235" data-name="Grupo 6235">
    <path id="Trazado_21402" data-name="Trazado 21402" d="M332.956,306.3s-.275,37.079,2.2,51.636,4.12,16.753,4.12,16.753.824,24.72,3.3,46.967,3.573,34.059,3.573,34.059-17.58,12.911-20.326,14.283-10.438,0-10.713,2.2-.824,7.14,10.163,6.59,26.094-1.1,32.135-1.646,9.888-.824,10.987-5.494-1.924-11.262-3.57-12.908,11.534-48.341,11.534-60.153-8.239-25.817-8.239-25.817,10.163-40.926,12.908-55.758-27.466-32.959-35.7-27.466S333.506,304.922,332.956,306.3Z" transform="translate(-314.998 -114.615)" fill="#ff926d"/>
    <path id="Trazado_21403" data-name="Trazado 21403" d="M324.141,284.488s-1.854,15.038-1.854,22.452-.616,22.455-.616,22.455,6.508,2.371,21.836,4.325c19.363,2.473,27.4,2.268,27.4,2.268s4.739-40.582-4.325-45.115S324.141,284.488,324.141,284.488Z" transform="translate(-304.533 -120.962)" fill="#ba68c8"/>
    <path id="Trazado_21404" data-name="Trazado 21404" d="M337.069,299.256s4.394,37.493,11.537,55.895,9.888,24.718,9.888,24.718,19.776,34.747,26.092,46.006a185.935,185.935,0,0,1,9.338,18.677s-7.964,20.6-9.064,21.425-10.985.275-10.985,2.746,1.646,6.593,8.789,6.043,10.163-1.649,10.163-1.649,11.534-8.239,15.1-11.534c3.159-2.915,12.911-7.964,10.712-14.832a17.148,17.148,0,0,0-7.415-9.613s-6.318-48.891-12.361-59.054-12.084-14.008-12.084-14.008,4.944-54.382,2.2-65.369S339.267,291.839,337.069,299.256Z" transform="translate(-280.382 -109.225)" fill="#ff926d"/>
    <path id="Trazado_21405" data-name="Trazado 21405" d="M335.465,308.057s3.709,25.131,4.739,28.223,2.06,5.355,2.06,5.355a145.94,145.94,0,0,0,29.459-2.679c15.243-3.09,23.277-7.209,23.277-7.209s.411-21.217-2.265-32.548a87.466,87.466,0,0,0-7-19.363S350.708,309.706,335.465,308.057Z" transform="translate(-282.898 -128.258)" fill="#ba68c8"/>
    <path id="Trazado_21406" data-name="Trazado 21406" d="M362.943,243.983c-.619,0-19.982,8.447-29.664,18.952s-11.948,25.339-12.359,36.873a130.165,130.165,0,0,0,.822,20.4s31.108-11.742,42.026-32.343S362.943,243.983,362.943,243.983Z" transform="translate(-305.843 -184.487)" fill="#ff926d"/>
    <path id="Trazado_21407" data-name="Trazado 21407" d="M363.583,240.682s-.414,10.507-1.238,11.332-22.866,17.922-26.572,29.045-1.443,16.478-1.443,16.478-13.183,19.365-14.419,37.082,5.355,35.636,33.37,41.4,46.762-8.034,55.209-18.127,10.3-27.4,10.094-32.959,16.491-46.351,6.179-56.239c-9.991-9.577-35.43-15.654-35.43-15.654l-.619-13.391S371.2,246.656,363.583,240.682Z" transform="translate(-307.512 -191.279)" fill="#ff926d"/>
    <path id="Trazado_21408" data-name="Trazado 21408" d="M341.334,248.081c4.828,1.379,10.219,2.186,15.2,1.192a22.922,22.922,0,0,0,5.935-2.127l.046-.026-.344-7.469s-17.511,7-25.131,1.03c0,0-.116,2.954-.349,5.851C338.224,247.1,339.765,247.634,341.334,248.081Z" transform="translate(-280.972 -191.279)" fill="#c1b1b3" style="mix-blend-mode: multiply;isolation: isolate"/>
    <path id="Trazado_21409" data-name="Trazado 21409" d="M341.741,227.185s-11.894,22.244-10.571,31.275,16.738,15.857,31.935,15.2,20.7-19.16,21.143-23.785-1.955-19.185-10.985-23.59S345.7,221.9,341.741,227.185Z" transform="translate(-289.796 -217.253)" fill="#ff926d"/>
    <path id="Trazado_21410" data-name="Trazado 21410" d="M352.309,235.277s3.966-2.2,7.489.221,0,9.03-3.966,8.809a8.272,8.272,0,0,1-5.946-2.864Z" transform="translate(-260.28 -199.577)" fill="#ff926d"/>
    <path id="Trazado_21411" data-name="Trazado 21411" d="M422.338,301.23c-6.7.6-13.491-3.686-19.822-14.973-8.165-14.552-2.419-33.522-.67-38.5-1.852-.637-3.606-1.2-5.183-1.682-1.03,3.46-1.426,9.356-7.744,14.162-5.822,4.43-19.707,11.606-30.83,3.573s-1.649-18.4-1.649-18.4l-3.508,1.739c-4.954,5.725-14.4,16.625-17.159,24.905-3.709,11.123-1.443,16.478-1.443,16.478s-13.183,19.365-14.419,37.082,5.355,35.636,33.37,41.4,46.762-8.034,55.209-18.127,11.4-23.76,11.193-29.32C419.613,317.722,421.329,311.6,422.338,301.23Z" transform="translate(-307.512 -182.265)" fill="#fadee1"/>
    <path id="Trazado_21412" data-name="Trazado 21412" d="M395.629,357.728c-3.493,12.754-5.206,15.731-5.206,15.731a45.269,45.269,0,0,1-.259,11.352c-.955,5.825-1.782,6.621-3.365,8.134a7.357,7.357,0,0,1-2.083,1.533,1.647,1.647,0,0,1-.336.118,5.636,5.636,0,0,1-.637,1.207l-.021.028a1.607,1.607,0,0,1-.937.668c-.755.118-1.135-.08-1.333-.319a.994.994,0,0,1-.208-.6s-.072.1-.2.27l-.01.01c-.478.627-1.7,2.05-2.679,1.772a1.831,1.831,0,0,1-1.084-1.533,4.868,4.868,0,0,1-.1-.917v-.118a2.532,2.532,0,0,1-1.284.817,1.789,1.789,0,0,1-2-2.43c.5-2.242,1.911-7.1,2.558-10.646a25.1,25.1,0,0,0,.588-4.977,2.891,2.891,0,0,0-1.931,2.779c-.09,2.27-.907,6.639-2.073,4.022s-3.216-6.652-1.942-10.217a35.76,35.76,0,0,1,4.561-7.854l-.588-45.352s-18.749-37.02-22.093-50.47,8.989-30.966,24.225-14.806,21.5,59.57,21.646,62.457S399.124,344.973,395.629,357.728Z" transform="translate(-256.316 -175.915)" fill="#ff926d"/>
    <g id="Grupo_6225" data-name="Grupo 6225" transform="translate(29.466 106.512)" style="mix-blend-mode: multiply;isolation: isolate">
      <path id="Trazado_21413" data-name="Trazado 21413" d="M326.7,262.939a94.054,94.054,0,0,0,10.784,2.255q2.7.4,5.417.663c1.713.164,3.906.688,5.558.1a.285.285,0,0,0,.021-.542c-1.5-.681-3.493-.444-5.116-.562q-2.72-.2-5.427-.537A100.485,100.485,0,0,1,326.9,262.3c-.416-.1-.622.524-.2.639Z" transform="translate(-326.471 -262.289)" fill="#d7cdce"/>
    </g>
    <g id="Grupo_6226" data-name="Grupo 6226" transform="translate(56.694 109.673)" style="mix-blend-mode: multiply;isolation: isolate">
      <path id="Trazado_21414" data-name="Trazado 21414" d="M337.514,264.44l1.68.049c.275.008.55.01.824,0l.4-.013a1.5,1.5,0,0,0,.473-.108.267.267,0,0,0,.021-.509,1.587,1.587,0,0,0-.429-.141c-.141-.018-.285-.031-.426-.046-.275-.031-.547-.051-.822-.064l-1.68-.087a.46.46,0,1,0-.036.919Z" transform="translate(-337.072 -263.52)" fill="#d7cdce"/>
    </g>
    <g id="Grupo_6227" data-name="Grupo 6227" transform="translate(69.407 111.042)" style="mix-blend-mode: multiply;isolation: isolate">
      <path id="Trazado_21415" data-name="Trazado 21415" d="M342.346,264.821c3.86.329,7.674,1.03,11.55,1.261a38.068,38.068,0,0,0,5.727-.038c1.379-.128,3.575-.167,4.518-1.323a.406.406,0,0,0-.218-.6,4.623,4.623,0,0,0-2.139.224,21.622,21.622,0,0,1-2.782.411,40.2,40.2,0,0,1-5.589.01c-3.688-.211-7.34-.632-11.039-.64a.35.35,0,0,0-.028.7Z" transform="translate(-342.022 -264.053)" fill="#d7cdce"/>
    </g>
    <path id="Trazado_21416" data-name="Trazado 21416" d="M380.713,233.552a3.559,3.559,0,0,0-3.377.306,18.338,18.338,0,0,0-12.074-11.915,22.975,22.975,0,0,0-5.555-1.063c-4.053-.236-8.6.136-12.21,2.214a29.364,29.364,0,0,0-10.456,10.058A36.131,36.131,0,0,0,331.9,246.82c4.834-4.271,13.7-8.848,16.73-9.921a69.52,69.52,0,0,1,13.032-3.218,37.753,37.753,0,0,1,7.949-.318c-5.206,2.733-6.991,4.312-8.874,8.735,1.916-.616,3.665-1.808,5.637-2.394a30.847,30.847,0,0,1,5.2-1.287c1.241-.139,2.5-.051,3.755-.077a36.263,36.263,0,0,0-.483,5.2,31.528,31.528,0,0,0,5.15,17.614s4.017-4.428,4.739-15.038C385.115,240.443,383.8,234.479,380.713,233.552Z" transform="translate(-288.491 -220.818)" fill="#bb5a38"/>
    <g id="Grupo_6228" data-name="Grupo 6228" transform="translate(120.854 205.624)" style="mix-blend-mode: multiply;isolation: isolate">
      <path id="Trazado_21417" data-name="Trazado 21417" d="M366.594,302.874c-.221.817-.46,1.633-.709,2.45-.575,1.831-1.223,3.645-1.89,5.447-.588,1.562-1.194,3.126-1.841,4.669a4.866,4.866,0,0,1-.1-.917c.537-1.353,1.066-2.707,1.564-4.071.655-1.764,1.274-3.544,1.831-5.347.229-.758.457-1.513.647-2.281a8.707,8.707,0,0,1,.526-1.883.139.139,0,0,1,.249.031A4.975,4.975,0,0,1,366.594,302.874Z" transform="translate(-362.053 -300.879)" fill="#c1b1b3"/>
    </g>
    <g id="Grupo_6229" data-name="Grupo 6229" transform="translate(124.727 205.989)" style="mix-blend-mode: multiply;isolation: isolate">
      <path id="Trazado_21418" data-name="Trazado 21418" d="M368.351,301.2a13.786,13.786,0,0,1-.848,3.765c-.288,1.035-.588,2.049-.907,3.077-.488,1.582-.994,3.156-1.582,4.718-.319.848-.658,1.7-1.045,2.54a.994.994,0,0,1-.208-.6s-.072.1-.2.27c.349-.827.657-1.672.955-2.509.537-1.513,1.017-3.046,1.474-4.59.308-1.066.606-2.142.907-3.205a15.314,15.314,0,0,1,1.115-3.555A.182.182,0,0,1,368.351,301.2Z" transform="translate(-363.561 -301.021)" fill="#c1b1b3"/>
    </g>
    <g id="Grupo_6230" data-name="Grupo 6230" transform="translate(127.426 206.278)" style="mix-blend-mode: multiply;isolation: isolate">
      <path id="Trazado_21419" data-name="Trazado 21419" d="M368.454,305.593c-.36,1.243-.747,2.489-1.184,3.7-.509,1.395-1.066,2.769-1.685,4.122a1.648,1.648,0,0,1-.336.118,5.635,5.635,0,0,1-.637,1.207c.786-1.834,1.523-3.706,2.2-5.576.429-1.176.788-2.381,1.107-3.6a22.916,22.916,0,0,0,.5-2.291,14.409,14.409,0,0,1,.349-2.039.151.151,0,0,1,.29,0C369.458,302.565,368.814,304.319,368.454,305.593Z" transform="translate(-364.612 -301.134)" fill="#c1b1b3"/>
    </g>
    <g id="Grupo_6231" data-name="Grupo 6231" transform="translate(27.783 260.005)" style="mix-blend-mode: multiply;isolation: isolate">
      <path id="Trazado_21420" data-name="Trazado 21420" d="M326.051,323.214a9.541,9.541,0,0,0,5.129,1.315,8.061,8.061,0,0,0,4.823-1.9.335.335,0,0,0-.324-.557,16.792,16.792,0,0,1-4.5,1.318,8.814,8.814,0,0,1-4.649-.994c-.542-.272-1.017.521-.48.819Z" transform="translate(-325.815 -322.053)" fill="#c1b1b3"/>
    </g>
    <g id="Grupo_6232" data-name="Grupo 6232" transform="translate(80.116 259.457)" style="mix-blend-mode: multiply;isolation: isolate">
      <path id="Trazado_21421" data-name="Trazado 21421" d="M346.329,322.645a11.881,11.881,0,0,0,6.413,3.079c2.229.283,4.923-.354,6.125-2.432a.3.3,0,0,0-.414-.414,11.326,11.326,0,0,1-2.825,1.428,7.067,7.067,0,0,1-2.969.175,14.376,14.376,0,0,1-5.766-2.568c-.437-.3-.955.378-.565.732Z" transform="translate(-346.191 -321.839)" fill="#c1b1b3"/>
    </g>
    <g id="Grupo_6233" data-name="Grupo 6233" transform="translate(38.459 340.28)" style="mix-blend-mode: multiply;isolation: isolate">
      <path id="Trazado_21422" data-name="Trazado 21422" d="M330.622,358.328a3.894,3.894,0,0,0,2.335-1.762,5.656,5.656,0,0,0,.634-1.366c.064-.221.128-.444.172-.67a3.218,3.218,0,0,0,.01-.817.409.409,0,0,0-.755-.205c-.1.2-.229.388-.321.591s-.162.447-.249.668c-.044.1.008-.021-.018.038l-.069.159c-.033.077-.067.154-.1.231-.054.136.031-.062-.026.062a6.3,6.3,0,0,1-.3.588,5.508,5.508,0,0,1-.336.514c-.01.015-.105.141-.067.092s-.046.056-.057.067c-.069.082-.144.164-.221.239a2.73,2.73,0,0,1-.221.2c-.028.023-.026.023.008-.005l-.064.049-.113.077a2.252,2.252,0,0,1-.524.259.528.528,0,0,0-.357.632.522.522,0,0,0,.632.36Z" transform="translate(-329.972 -353.308)" fill="#c1b1b3"/>
    </g>
    <g id="Grupo_6234" data-name="Grupo 6234" transform="translate(123.297 329.279)" style="mix-blend-mode: multiply;isolation: isolate">
      <path id="Trazado_21423" data-name="Trazado 21423" d="M363.936,355.872a5.058,5.058,0,0,0,1.127-3.2,13.367,13.367,0,0,0-.09-1.667,9.831,9.831,0,0,0-.321-1.772.29.29,0,0,0-.555,0,7.415,7.415,0,0,0-.216,1.618c-.031.524-.026,1.048-.062,1.572a5.929,5.929,0,0,1-.74,2.792c-.321.514.455,1.143.855.66Z" transform="translate(-363.004 -349.025)" fill="#c1b1b3"/>
    </g>
  </g>
  <g id="Grupo_6241" data-name="Grupo 6241" transform="translate(52.333 17.225)">
    <g id="Grupo_6236" data-name="Grupo 6236" transform="translate(0.771 6.559)">
      <path id="Trazado_21424" data-name="Trazado 21424" d="M335.926,231.465a1.892,1.892,0,0,0,.519,2.553c.768.349,1.785-.226,2.265-1.284a1.892,1.892,0,0,0-.516-2.553C337.423,229.831,336.408,230.4,335.926,231.465Z" transform="translate(-335.674 -230.078)" fill="#28121e"/>
    </g>
    <g id="Grupo_6237" data-name="Grupo 6237" transform="translate(15.222 12.075)">
      <path id="Trazado_21425" data-name="Trazado 21425" d="M341.553,233.613a1.886,1.886,0,0,0,.519,2.55c.768.352,1.782-.223,2.265-1.282a1.888,1.888,0,0,0-.519-2.553C343.05,231.977,342.036,232.553,341.553,233.613Z" transform="translate(-341.301 -232.226)" fill="#28121e"/>
    </g>
    <g id="Grupo_6238" data-name="Grupo 6238" transform="translate(14.077 6.415)">
      <path id="Trazado_21426" data-name="Trazado 21426" d="M349.508,236.106c-.033-.044-3.357-4.428-8.406-3.855l-.246-2.16c6.315-.727,10.24,4.5,10.4,4.721Z" transform="translate(-340.855 -230.022)" fill="#ff7454"/>
    </g>
    <g id="Grupo_6239" data-name="Grupo 6239">
      <path id="Trazado_21427" data-name="Trazado 21427" d="M340.1,246.945a3.081,3.081,0,0,1-1.739-2.119c-.113-1.143.75-1.949,2.062-3.167.493-.462,1.076-1,1.713-1.659a6.337,6.337,0,0,0,.573-.683,5.528,5.528,0,0,0,.825-4.739,6.329,6.329,0,0,0-3.549-4.122,8.2,8.2,0,0,0-4.366-.7l-.247-2.16a10.361,10.361,0,0,1,5.5.878,8.492,8.492,0,0,1,4.759,5.54,7.761,7.761,0,0,1-1.156,6.572,8.193,8.193,0,0,1-.778.932c-.67.691-1.279,1.256-1.8,1.739a10.425,10.425,0,0,0-1.351,1.387c.092-.005.249.177.686.444Z" transform="translate(-335.374 -227.524)" fill="#ff7454"/>
    </g>
    <g id="Grupo_6240" data-name="Grupo 6240" transform="translate(0.139 22.68)">
      <path id="Trazado_21428" data-name="Trazado 21428" d="M339.09,240.76a6.3,6.3,0,0,1-3.662-3.526l1.993-.878a4.144,4.144,0,0,0,4.551,2.576l.406,2.142A6.482,6.482,0,0,1,339.09,240.76Z" transform="translate(-335.428 -236.355)" fill="#ff7454"/>
    </g>
  </g>
</svg>
