<svg id="Grupo_6224" data-name="Grupo 6224" xmlns="http://www.w3.org/2000/svg" width="128.04" height="354.011" viewBox="0 0 128.04 354.011">
  <ellipse id="Elipse_529" data-name="Elipse 529" cx="58.696" cy="157.943" rx="58.696" ry="157.943" transform="translate(0 17.866)" fill="#f8f3ff"/>
  <g id="Grupo_6223" data-name="Grupo 6223" transform="translate(7.043)">
    <path id="Trazado_21371" data-name="Trazado 21371" d="M214.531,241.871s-.139,19.365-1.238,20.051-19.088,9.888-21.836,13.6,4.669,40.649,8.791,54.931,5.355,19.227,5.355,19.227,14.557,5.219,29.115,4.944,16.753-1.646,16.753-1.646,6.182-46.97,6.318-50.951-9.749-32.274-10.438-33.648-11.534-5.219-11.809-7.279-.413-11.948-.413-11.948l-21.011-7.14" transform="translate(-165.329 -201.047)" fill="#962e09"/>
    <path id="Trazado_21372" data-name="Trazado 21372" d="M228.338,265.973c-5.774,7.559-13.741,15.662-17.991,27.741s-11.121,37.356-11.121,37.356.128,8.514.686,18.4,2.191,20.6,2.191,20.6,6.87,7.279,7.009,10.165a20.08,20.08,0,0,1-.966,7.14c-.408.824-1.094,1.374-1.782-1.235a27.06,27.06,0,0,0-2.887-6.043,79.139,79.139,0,0,0,2.748,10.574c1.654,4.541,2.738,5.635,1.921,6.94a1.408,1.408,0,0,1-1.3.806,1.091,1.091,0,0,1-.408-.09,2.8,2.8,0,0,1-.19.727,1.882,1.882,0,0,1-.29.547,3.538,3.538,0,0,1-1.711.778h-.01l-.211.049a1.236,1.236,0,0,1-.177.768,1.818,1.818,0,0,1-.637.606c-.7.4-2.121-.439-2.848-.927l-.01-.008c-.27-.18-.439-.311-.439-.311s.062.339-.506.4a3.627,3.627,0,0,1-1.145-.118c-1.782-.408-5.078-4.531-6.87-10.713s-1.235-14.7-1.235-14.7-9.886-36.8-9.2-43.939,6.185-52.332,8.244-59.878,4.251-7.559,12.495-12.636,28.565-9.618,28.565-9.618S234.1,258.427,228.338,265.973Z" transform="translate(-180.921 -189.308)" fill="#962e09"/>
    <path id="Trazado_21373" data-name="Trazado 21373" d="M256.907,386.517a10.965,10.965,0,0,1-1.6,3.336,7.638,7.638,0,0,1-.886,1.1,1.351,1.351,0,0,1-.4.3c-.388.131-1.025.339-1.433.478-.249.09-.419.141-.419.141a3.755,3.755,0,0,1-.308.267c-.6.488-1.9,1.295-2.368-.267-.619-2.062-1.654-8.863-3.1-13.183a51.788,51.788,0,0,0-1.852-5.147s-2.26,9.677-3.506,9.059-2.26-3.912-2.049-7.826a34.984,34.984,0,0,1,2.26-9.059s-17.1-39.349-18.749-45.323-14.824-71.279-14.824-71.279,32.546,13.6,33.573,17.305,3.3,9.885,3.085,28.842S243.3,317.3,243.3,317.3s8.244,47.594,8.861,48.21,3.3,3.7,4.741,9.677A21.912,21.912,0,0,1,256.907,386.517Z" transform="translate(-138.966 -189.684)" fill="#962e09"/>
    <path id="Trazado_21374" data-name="Trazado 21374" d="M203.427,307.91s1.854,57.885,1.443,58.915-7.487,21.15-7.692,27.535,3.983,50.332,4.394,51.98-10.5,18.952-10.5,21.63,7.62,3.914,12.153,3.914,6.385-.208,6.8-1.238,1.441-23.9,1.441-25.75,6.593-45.113,8.447-55.206a53.21,53.21,0,0,0-.413-19.571s8.034-48,9.064-62.624-14.624-14.008-18.952-10.5S203.427,307.91,203.427,307.91Z" transform="translate(-165.006 -117.874)" fill="#962e09"/>
    <path id="Trazado_21375" data-name="Trazado 21375" d="M206.307,302.179s8.445,68.8,8.239,69.833-3.914,23.9-3.706,27.6,11.123,46.9,10.71,48.752-3.3,15.726-1.235,18.2,39.347,3.5,41.2,2.06-.822-6.385-5.766-7.415-4.533-.413-4.533-.413S234.322,448.987,233.7,446.1s-3.57-71.412-3.57-71.412,2.884-27.33,2.473-49.99-3.023-31.791-3.023-31.791Z" transform="translate(-141.107 -121.001)" fill="#962e09"/>
    <g id="Grupo_6203" data-name="Grupo 6203" transform="translate(48.789 40.824)">
      <path id="Trazado_21376" data-name="Trazado 21376" d="M221.3,260.928c-.275-2.06-.413-11.948-.413-11.948l-20.6-7c-.013,1.371-.085,7.726-.347,12.872a15.3,15.3,0,0,0,8.725,6.077,41.32,41.32,0,0,0,13,.645A1.279,1.279,0,0,1,221.3,260.928Z" transform="translate(-199.878 -241.702)" fill="#c1b1b3" style="mix-blend-mode: multiply;isolation: isolate"/>
      <path id="Trazado_21377" data-name="Trazado 21377" d="M199.917,242.01l.411.139,0-.277Z" transform="translate(-199.917 -241.871)" fill="#c1b1b3" style="mix-blend-mode: multiply;isolation: isolate"/>
    </g>
    <path id="Trazado_21378" data-name="Trazado 21378" d="M197.891,235.151c-1.649,1.924-1.374,18.816.822,23.074S208.6,276.488,212.86,278s15.793,1.513,17.3-.686,5.632-21.7,6.318-28.84-.55-17.442-4.669-19.088S199.538,233.23,197.891,235.151Z" transform="translate(-155.968 -221.107)" fill="#962e09"/>
    <path id="Trazado_21379" data-name="Trazado 21379" d="M203.4,261.925a8.688,8.688,0,0,0,4.669-6.249,30.916,30.916,0,0,0-.55-11.948s11.183,3.58,20.737,2.473c9.477-1.1,11.09-3.228,11.09-3.228s.516,2.782,1.03,6.7a81.857,81.857,0,0,1,.205,10.815s2.165-11.021,2.576-14.008a15.172,15.172,0,0,0,.1-4.533A8.747,8.747,0,0,0,245.528,237c.5-4.924-1.133-9.58-7.517-10.61s-20.5,4.122-20.5,4.122,2.034-4.674-1.235-4.533c-4.739.205-13.9,11.432-13.9,11.432s-4.841-3.4-7.52-1.441-.611,6.762,1.443,9.683c1.957,2.782,2.884,4.017,2.884,4.017a3.007,3.007,0,0,0-3.606,2.884c-.411,3.5,2.265,7.723,3.4,9.166S203.4,261.925,203.4,261.925Z" transform="translate(-161.067 -225.976)" fill="#431202"/>
    <path id="Trazado_21380" data-name="Trazado 21380" d="M203.782,241.905s-4.805-5.08-7.551-4.256-.735,12.392,1.785,12.495c3.3.139,5.355-2.746,6.179-4.394S203.782,241.905,203.782,241.905Z" transform="translate(-158.977 -207.81)" fill="#962e09"/>
    <path id="Trazado_21381" data-name="Trazado 21381" d="M250.666,253.583l-3.722-1.533c-1.759,7.6-6.688,18.767-20.449,18.494-16.715-.331-24.25-14.352-26.569-19.853l-8.725,3.028c5.971,5.871,8.052,15.9,8.242,23.921.128,5.45-.878,13.517-5.368,17.079l.01.062c.824,3.983,8.63,36.28,10.987,41.751,5.9,2.82,12.7,3.814,19.134,4.407,11.766,1.084,25.362.077,26.459-1.937l.55.411c0-3.375,5.237-46.248,5.851-53.033C254.7,274.571,253.688,266.63,250.666,253.583Z" transform="translate(-164.798 -187.214)" fill="#fadee1"/>
    <g id="Grupo_6204" data-name="Grupo 6204" transform="translate(62.627 104.068)">
      <path id="Trazado_21382" data-name="Trazado 21382" d="M205.7,269.751a77.311,77.311,0,0,1,11.555-1.61c2.489-.257,4.98-.491,7.474-.683a58.364,58.364,0,0,0,6.069-.509c.226-.041.141-.344-.049-.367a33.07,33.07,0,0,0-6.331.249q-3.829.308-7.654.722a76.14,76.14,0,0,0-11.231,1.59.316.316,0,0,0,.167.609Z" transform="translate(-205.305 -266.495)" fill="#d7cdce"/>
    </g>
    <g id="Grupo_6205" data-name="Grupo 6205" transform="translate(45.528 108.638)">
      <path id="Trazado_21383" data-name="Trazado 21383" d="M198.957,269.036c.578.008,1.153.056,1.731.051a5.061,5.061,0,0,0,.86-.059,2.062,2.062,0,0,0,.822-.316c.177-.118.128-.452-.118-.437-.131.01-.262,0-.393.018s-.267.041-.4.054c-.275.026-.55.051-.827.059-.557.013-1.115-.018-1.672-.01a.32.32,0,0,0,0,.64Z" transform="translate(-198.647 -268.275)" fill="#d7cdce"/>
    </g>
    <g id="Grupo_6206" data-name="Grupo 6206" transform="translate(44.158 254.785)" style="mix-blend-mode: multiply;isolation: isolate">
      <path id="Trazado_21384" data-name="Trazado 21384" d="M198.489,326.38a10.246,10.246,0,0,0,2.63-.028,5.611,5.611,0,0,0,2.437-.681c.162-.105.17-.419-.059-.455a7.276,7.276,0,0,0-2.45.265,9.719,9.719,0,0,1-2.558.152.377.377,0,0,0-.375.372.384.384,0,0,0,.375.375Z" transform="translate(-198.114 -325.178)" fill="#c1b1b3"/>
    </g>
    <g id="Grupo_6207" data-name="Grupo 6207" transform="translate(48.27 256.605)" style="mix-blend-mode: multiply;isolation: isolate">
      <path id="Trazado_21385" data-name="Trazado 21385" d="M200.1,326.647c.234,0,.465.005.7-.018l.352-.038a.836.836,0,0,0,.211-.044l.172-.062a.229.229,0,0,0,0-.437l-.172-.062a.825.825,0,0,0-.211-.044c-.118-.013-.234-.026-.352-.036a6.359,6.359,0,0,0-.7-.021.38.38,0,1,0,0,.76Z" transform="translate(-199.715 -325.887)" fill="#c1b1b3"/>
    </g>
    <g id="Grupo_6208" data-name="Grupo 6208" transform="translate(84.237 252.591)" style="mix-blend-mode: multiply;isolation: isolate">
      <path id="Trazado_21386" data-name="Trazado 21386" d="M214.115,325.269a15.849,15.849,0,0,0,1.639.026,3.677,3.677,0,0,0,.837-.116,2.573,2.573,0,0,0,.388-.136,1.967,1.967,0,0,0,.344-.257.267.267,0,0,0-.185-.452c-.118,0-.236-.015-.352-.008s-.239.036-.357.049c-.275.026-.485.067-.755.085-.519.039-1.04.026-1.559.015a.4.4,0,0,0,0,.794Z" transform="translate(-213.719 -324.324)" fill="#c1b1b3"/>
    </g>
    <g id="Grupo_6209" data-name="Grupo 6209" transform="translate(38.189 346.737)" style="mix-blend-mode: multiply;isolation: isolate">
      <path id="Trazado_21387" data-name="Trazado 21387" d="M196.609,367.223c.082-.991.134-2,.275-2.984s.455-1.939.637-2.915a.275.275,0,0,0-.457-.265A4.649,4.649,0,0,0,195.89,364a16.665,16.665,0,0,0-.044,3.221.382.382,0,0,0,.763,0Z" transform="translate(-195.79 -360.981)" fill="#c1b1b3"/>
    </g>
    <g id="Grupo_6210" data-name="Grupo 6210" transform="translate(33.18 348.045)" style="mix-blend-mode: multiply;isolation: isolate">
      <path id="Trazado_21388" data-name="Trazado 21388" d="M194.431,366.013a8.355,8.355,0,0,1,.293-2.224c.092-.354.205-.706.334-1.053q.1-.254.2-.509a1.3,1.3,0,0,0,.11-.539.205.205,0,0,0-.347-.144,2.3,2.3,0,0,0-.534.994,11.5,11.5,0,0,0-.352,1.13,8.817,8.817,0,0,0-.3,2.345.3.3,0,0,0,.591,0Z" transform="translate(-193.84 -361.49)" fill="#c1b1b3"/>
    </g>
    <g id="Grupo_6211" data-name="Grupo 6211" transform="translate(29.494 347.539)" style="mix-blend-mode: multiply;isolation: isolate">
      <path id="Trazado_21389" data-name="Trazado 21389" d="M193.343,364.182c.08-.221.159-.442.244-.663.041-.108.082-.216.126-.324l.031-.077c.049-.121-.023.051.008-.018l.074-.17c.1-.205.208-.4.3-.6.049-.105.108-.2.159-.306a2.554,2.554,0,0,0,.118-.36.3.3,0,0,0-.105-.311.31.31,0,0,0-.329-.023,1.172,1.172,0,0,0-.336.19,2.324,2.324,0,0,0-.221.257,3.348,3.348,0,0,0-.406.7c-.221.475-.4.966-.583,1.454a.478.478,0,0,0,.331.583.489.489,0,0,0,.586-.331Z" transform="translate(-192.404 -361.293)" fill="#c1b1b3"/>
    </g>
    <g id="Grupo_6212" data-name="Grupo 6212" transform="translate(85.238 322.788)" style="mix-blend-mode: multiply;isolation: isolate">
      <path id="Trazado_21390" data-name="Trazado 21390" d="M214.143,352.185a14.047,14.047,0,0,0,.051,2.566,5.468,5.468,0,0,0,.311,1.31c.185.465.431.986.989,1.03a.369.369,0,0,0,.324-.185,1.593,1.593,0,0,0-.118-1.253c-.121-.372-.226-.758-.313-1.14a9.676,9.676,0,0,1-.185-2.327.529.529,0,0,0-1.058,0Z" transform="translate(-214.109 -351.656)" fill="#c1b1b3"/>
    </g>
    <g id="Grupo_6213" data-name="Grupo 6213" transform="translate(111.981 187.035)" style="mix-blend-mode: multiply;isolation: isolate">
      <path id="Trazado_21391" data-name="Trazado 21391" d="M226.308,310.977a27.58,27.58,0,0,1-.149,2.835c-.249.09-.419.141-.419.141a3.752,3.752,0,0,1-.308.267c.031-.457.09-.914.131-1.364.059-.776.09-1.544.118-2.319a30.2,30.2,0,0,0,.031-3.305,78.049,78.049,0,0,0-1.187-8.154c-.049-.28.36-.4.429-.121a45.081,45.081,0,0,1,1.415,8.275A30.922,30.922,0,0,1,226.308,310.977Z" transform="translate(-224.521 -298.799)" fill="#c1b1b3"/>
    </g>
    <g id="Grupo_6214" data-name="Grupo 6214" transform="translate(115.233 186.075)" style="mix-blend-mode: multiply;isolation: isolate">
      <path id="Trazado_21392" data-name="Trazado 21392" d="M227.371,308.176a38.629,38.629,0,0,1-.429,4c-.021.11-.031.218-.049.339a7.633,7.633,0,0,1-.886,1.1c.139-.526.247-1.066.336-1.6a37.164,37.164,0,0,0,.439-3.942,26.892,26.892,0,0,0-.986-9.421c-.069-.239.29-.329.37-.1A23.4,23.4,0,0,1,227.371,308.176Z" transform="translate(-225.788 -298.426)" fill="#c1b1b3"/>
    </g>
    <g id="Grupo_6215" data-name="Grupo 6215" transform="translate(12.533 196.388)" style="mix-blend-mode: multiply;isolation: isolate">
      <path id="Trazado_21393" data-name="Trazado 21393" d="M192.258,317.3s.062.339-.506.4c-.29-.367-.568-.734-.837-1.125a28.131,28.131,0,0,1-2.44-4.618,44.635,44.635,0,0,1-2.669-9.141c-.069-.378.488-.537.568-.159a55.657,55.657,0,0,0,2.817,9.061C189.89,313.32,192.258,317.3,192.258,317.3Z" transform="translate(-185.801 -302.441)" fill="#c1b1b3"/>
    </g>
    <g id="Grupo_6216" data-name="Grupo 6216" transform="translate(15.829 195.215)" style="mix-blend-mode: multiply;isolation: isolate">
      <path id="Trazado_21394" data-name="Trazado 21394" d="M194.358,317.889a1.236,1.236,0,0,1-.177.768c-.141-.17-.259-.339-.38-.488a21.8,21.8,0,0,1-1.343-1.952,37.689,37.689,0,0,1-2.46-4.769,37.077,37.077,0,0,1-2.907-9.02c-.069-.439.578-.64.678-.19a46.7,46.7,0,0,0,2.869,8.84C191.353,312.673,194.358,317.889,194.358,317.889Z" transform="translate(-187.084 -301.984)" fill="#c1b1b3"/>
    </g>
    <g id="Grupo_6217" data-name="Grupo 6217" transform="translate(19.252 194.144)" style="mix-blend-mode: multiply;isolation: isolate">
      <path id="Trazado_21395" data-name="Trazado 21395" d="M194.679,316.442a2.8,2.8,0,0,1-.19.727c-.17-.249-.329-.519-.478-.758-.4-.616-.768-1.253-1.115-1.9-.609-1.156-1.156-2.35-1.723-3.524a37.538,37.538,0,0,1-2.748-9.012c-.09-.408.526-.586.627-.17a44.021,44.021,0,0,0,2.859,8.881C192.489,311.863,194.679,316.442,194.679,316.442Z" transform="translate(-188.417 -301.567)" fill="#c1b1b3"/>
    </g>
    <path id="Trazado_21396" data-name="Trazado 21396" d="M199.493,283.739a98.3,98.3,0,0,0,26.78,3.845c14.008-.136,20.187-1.646,20.187-1.646s2.2,14.693,3.159,24.307,1.51,18.952,1.51,18.952-3.57,1.649-12.772,2.884a47.014,47.014,0,0,1-11.948.275l-1.51-15.107-1.51,14.146a61.46,61.46,0,0,1-13.6.824,64.278,64.278,0,0,1-12.495-1.785s-3.023-16.206-2.884-23.349C194.559,299.4,199.493,283.739,199.493,283.739Z" transform="translate(-159.768 -135.384)" fill="#7986cb"/>
    <g id="Grupo_6218" data-name="Grupo 6218" transform="translate(71.783 33.89)">
      <path id="Trazado_21397" data-name="Trazado 21397" d="M211.1,242.014a2.48,2.48,0,0,1-2.229-2.5l1.664-.131c.049.624.372.953.58.963a.314.314,0,0,0,.185-.121,1.293,1.293,0,0,0,.234-.922l1.664-.131a2.933,2.933,0,0,1-.632,2.137,1.926,1.926,0,0,1-1.32.7C211.2,242.012,211.146,242.014,211.1,242.014Z" transform="translate(-208.87 -239.171)" fill="#28121e"/>
    </g>
    <g id="Grupo_6219" data-name="Grupo 6219" transform="translate(58.697 34.396)">
      <path id="Trazado_21398" data-name="Trazado 21398" d="M206,242.211a2.48,2.48,0,0,1-2.229-2.5l1.664-.131c.046.624.383.935.58.963a.308.308,0,0,0,.182-.121,1.28,1.28,0,0,0,.236-.922l1.664-.131a2.954,2.954,0,0,1-.629,2.137,1.943,1.943,0,0,1-1.325.7C206.1,242.209,206.051,242.211,206,242.211Z" transform="translate(-203.775 -239.368)" fill="#28121e"/>
    </g>
    <g id="Grupo_6220" data-name="Grupo 6220" transform="translate(55.055 27.907)">
      <path id="Trazado_21399" data-name="Trazado 21399" d="M203.41,240.146l-1.053-1.582c.2-.134,4.99-3.244,9.947-.768l-.848,1.7C207.46,237.5,203.451,240.117,203.41,240.146Z" transform="translate(-202.357 -236.842)" fill="#792304"/>
    </g>
    <g id="Grupo_6221" data-name="Grupo 6221" transform="translate(66.873 26.848)">
      <path id="Trazado_21400" data-name="Trazado 21400" d="M208.9,251.846l-.378-1.859a2.006,2.006,0,0,0,.773-.252c-.069-.074-.444-.809-.773-1.454-.283-.55-.614-1.2-.955-1.962a6.941,6.941,0,0,1-.362-1,6.783,6.783,0,0,1,1.012-5.74,7.42,7.42,0,0,1,5.56-3.128,9.15,9.15,0,0,1,4.777.922l-.848,1.7a7.027,7.027,0,0,0-3.793-.724,5.515,5.515,0,0,0-4.143,2.322,4.825,4.825,0,0,0-.735,4.135,4.97,4.97,0,0,0,.265.727c.329.735.645,1.354.914,1.877.711,1.389,1.179,2.309.745,3.213A2.681,2.681,0,0,1,208.9,251.846Z" transform="translate(-206.958 -236.429)" fill="#792304"/>
    </g>
    <g id="Grupo_6222" data-name="Grupo 6222" transform="translate(61.32 45.082)">
      <path id="Trazado_21401" data-name="Trazado 21401" d="M204.8,243.529a4.118,4.118,0,1,0,8.237,0Z" transform="translate(-204.796 -243.529)" fill="#fff"/>
    </g>
  </g>
</svg>
