<svg id="Grupo_6266" data-name="Grupo 6266" xmlns="http://www.w3.org/2000/svg" width="122.316" height="352.458" viewBox="0 0 122.316 352.458">
  <ellipse id="Elipse_531" data-name="Elipse 531" cx="58.696" cy="157.943" rx="58.696" ry="157.943" transform="translate(0 21.955)" fill="#f8f3ff"/>
  <g id="Grupo_6249" data-name="Grupo 6249" transform="translate(4.328)">
    <path id="Trazado_21429" data-name="Trazado 21429" d="M139.313,247.807c-.411.275-17.234,15.243-18.2,18.127s-.755,36.118-.616,40.1-3.159,31.449-3.3,34.883,14.282,6.729,21.15.55,14.557-43.947,13.458-54.246S139.313,247.807,139.313,247.807Z" transform="translate(-95.76 -187.648)" fill="#ffa181"/>
    <path id="Trazado_21430" data-name="Trazado 21430" d="M138.241,244.693s-.275,13.461-.824,13.872-4.941,8.378-5.355,12.634.275,30.35-.55,36.668-3.57,8.653-7.415,13.458-5.768,8.378-6.318,13.186a39.114,39.114,0,0,0,0,8.789s7.553,6.315,30.763,6.041,28.426-6.315,29.387-9.749.55-6.868-.136-10.3a23.365,23.365,0,0,0-2.609-6.593s-2.609-17.028-3.57-25.819-1.1-17.439-1.1-17.439l2.06-21.15a81.387,81.387,0,0,0-10.712-3.3c-6.729-1.649-7.415-1.785-7.415-1.785l-.413-7.967S141.125,240.3,138.241,244.693Z" transform="translate(-95.237 -195.386)" fill="#ffa181"/>
    <path id="Trazado_21431" data-name="Trazado 21431" d="M124.8,301.994s-1.372,29.115.55,43.4S130.3,372.31,130.3,372.31s3.573,74.158,3.3,74.982-11.537,9.339-15.657,12.359-8.514,1.1-9.064,3.847,10.163,3.02,22.8,1.921,19.776-.824,21.425-2.471,1.371-6.593-.824-10.438-2.748-4.669-2.748-4.669,6.318-24.72,5.219-42.573a278.963,278.963,0,0,0-5.219-36.668s5.768-60.289,6.868-67.7S129.746,290.734,124.8,301.994Z" transform="translate(-108.853 -114.531)" fill="#ffa181"/>
    <path id="Trazado_21432" data-name="Trazado 21432" d="M129.073,303.277s.275,33.784,3.57,50.812,4.533,18.13,4.533,18.13,13.869,70.863,13.319,71.687-9.087,13.974-11.473,14.562-8.3-.039-9.5,2.787,2.206,4.579,9.475,4.811,17.814-4.857,22.208-5.132,8.378-.136,10.574-3.159.688-7-1.51-11.124c-1.474-2.763-3.02-6.318-3.02-6.318s3.845-18.952.55-37.354-10.987-37.354-10.987-37.354,7.143-60.15,5.768-66.468S129.348,293.388,129.073,303.277Z" transform="translate(-77.142 -113.615)" fill="#ffa181"/>
    <path id="Trazado_21433" data-name="Trazado 21433" d="M177.793,321.581a23.364,23.364,0,0,0-2.609-6.593s-2.609-17.028-3.57-25.819c-.154-1.392-.283-2.779-.4-4.132a17.213,17.213,0,0,1-2.247-3.629c-4.649-10.237-2.769-22-.036-32.543-1.33-.431-3.144-.557-5.088-1.074-.013.152-.028.3-.041.452-.177,1.865-.437,3.724-.765,5.568a44.829,44.829,0,0,1-2.481,9.125c-1.685,4.143-4.423,8.111-8.678,9.9-3.87,1.626-8.989,1.4-12.207-1.5-2.889-2.6-4.12-6.657-4.741-10.371a42,42,0,0,1-.485-4.71,26.051,26.051,0,0,0-2.386,7.238c-.411,4.258.275,30.35-.55,36.668s-3.57,8.653-7.415,13.458-5.768,8.378-6.318,13.186a39.114,39.114,0,0,0,0,8.789s7.553,6.315,30.763,6.041,28.426-6.315,29.387-9.749S178.479,325.012,177.793,321.581Z" transform="translate(-95.237 -187.675)" fill="#fadee1"/>
    <path id="Trazado_21434" data-name="Trazado 21434" d="M126.155,249.2a64.569,64.569,0,0,0,.275,8.1,64.749,64.749,0,0,0,1.854,7.345l-4.533,2.335-.961-14.557Z" transform="translate(-86.995 -185.468)" fill="#fadee1"/>
    <path id="Trazado_21435" data-name="Trazado 21435" d="M141.482,245.243s-12.908-4.944-15.793-.55c0,0-.049,2.471-.152,5.327a17.009,17.009,0,0,0,8.255,2.571,20.788,20.788,0,0,0,7.97-1.954Z" transform="translate(-82.686 -195.386)" fill="#c1b1b3" style="mix-blend-mode: multiply;isolation: isolate"/>
    <path id="Trazado_21436" data-name="Trazado 21436" d="M136.275,238.881s8.928-4.533,10.3-.824-4.05,6.488-7.964,7.415c-4.551,1.079-3.845,0-3.845,0Z" transform="translate(-68.277 -205.228)" fill="#ffa181"/>
    <path id="Trazado_21437" data-name="Trazado 21437" d="M137.085,226.88a32.771,32.771,0,0,0-8.789,10.163c-3.434,6.315-5.9,23.071-6.318,28.015s3.845,8.239,8.789,9.888,10.368,4.531,16.756.411c7.859-5.07,11.673-16.617,12.772-20.6s5.08-19.64,1.921-22.935S142.853,222.072,137.085,226.88Z" transform="translate(-88.312 -223.166)" fill="#ffa181"/>
    <path id="Trazado_21438" data-name="Trazado 21438" d="M126.495,236.485c0-.55-2.06-6.454-3.57-4.944s-1.924,10.574-.139,12.634,2.884,2.2,2.884,2.2Z" transform="translate(-88.846 -213.544)" fill="#ffa181"/>
    <path id="Trazado_21439" data-name="Trazado 21439" d="M121.669,283.271s12.5,5.768,31.313,4.669,29.936-7.143,29.936-7.143,4.4,7.967,5.219,21.15-1.371,27.879-1.371,27.879S181,332.3,166.99,332.712c-12.238.36-15.657-.275-15.657-.275L149,315.82l-1.785,16.892a103.949,103.949,0,0,1-21.012-1.374c-10.849-1.924-11.673-3.023-11.673-3.023s.686-18.263,3.02-29.112A147.409,147.409,0,0,1,121.669,283.271Z" transform="translate(-99.951 -135.907)" fill="#7b1fa2"/>
    <g id="Grupo_6243" data-name="Grupo 6243" transform="translate(39.155 98.552)" style="mix-blend-mode: multiply;isolation: isolate">
      <path id="Trazado_21440" data-name="Trazado 21440" d="M124.454,264.878a42.119,42.119,0,0,1,15.664-.64,57.793,57.793,0,0,1,7.867,1.551c2.227.6,4.566,1.8,6.881,1.934a.243.243,0,0,0,.169-.411c-1.716-1.574-4.528-2.165-6.711-2.753a53.967,53.967,0,0,0-8-1.51,39.358,39.358,0,0,0-16.024,1.274.288.288,0,0,0,.154.555Z" transform="translate(-124.099 -262.756)" fill="#d7cdce"/>
    </g>
    <path id="Trazado_21441" data-name="Trazado 21441" d="M177.775,294.94c-4.574-9.757-15.217-25.01-21.7-34.218a80.143,80.143,0,0,0-5.281-7.6c-2.884-3.606-10.027-4.59-10.027-4.59-1.7,2.263-3.054,20.141-1.3,21.892,1.374,1.371,6.477,9.2,8.622,12.518-.005.1-.018.2-.023.306.776,1.163,1.554,2.378,2.319,3.657,6.8,11.329,14.421,24.926,14.421,24.926s-10.029,23.046-12,27.938c-.473-.11-7.268-1.631-10.253.488-3.09,2.2-6.521,8.447-6.246,10.576s5.424-5.083,5.424-5.083-3.914,7.484-2.543,8.378,5.427-6.935,5.427-6.935-3.3,8.583-1.579,8.583,4.325-6.937,4.325-6.937-2.4,8.1-.755,7.967,1.921-6.043,4.325-5.974,5.15,3.639,8.034.822c1.952-1.9,2.74-4.61,3.293-7.677,7.841-10.037,20.965-27.846,21.428-31.393C184.093,309.428,183.954,308.123,177.775,294.94Z" transform="translate(-65.829 -186.51)" fill="#ffa181"/>
    <g id="Grupo_6244" data-name="Grupo 6244" transform="translate(24.856 246.996)" style="mix-blend-mode: multiply;isolation: isolate">
      <path id="Trazado_21442" data-name="Trazado 21442" d="M118.9,330.276c2.206-.131,3.647-1.744,4.541-3.629a22.546,22.546,0,0,0,1.179-3.061,15.97,15.97,0,0,0,.747-2.756c.031-.267-.324-.352-.491-.2A5.9,5.9,0,0,0,123.606,323c-.347.927-.629,1.88-1,2.8-.678,1.667-1.746,3.493-3.706,3.719-.475.054-.5.791,0,.763Z" transform="translate(-118.531 -320.554)" fill="#c1b1b3"/>
    </g>
    <g id="Grupo_6245" data-name="Grupo 6245" transform="translate(67.21 246.448)" style="mix-blend-mode: multiply;isolation: isolate">
      <path id="Trazado_21443" data-name="Trazado 21443" d="M135.693,331.024a9.721,9.721,0,0,0,4.387-4.4,27.831,27.831,0,0,0,1.978-6.025.212.212,0,0,0-.385-.162,50.927,50.927,0,0,0-2.525,5.4,9.359,9.359,0,0,1-3.9,4.415c-.5.277-.059,1.017.449.765Z" transform="translate(-135.022 -320.34)" fill="#c1b1b3"/>
    </g>
    <g id="Grupo_6246" data-name="Grupo 6246" transform="translate(34.436 331.873)" style="mix-blend-mode: multiply;isolation: isolate">
      <path id="Trazado_21444" data-name="Trazado 21444" d="M123.635,359.775a10.657,10.657,0,0,0,.193-1.621,13.612,13.612,0,0,0,.036-1.713,4.855,4.855,0,0,0-.331-1.641,1.651,1.651,0,0,0-.455-.747c.092.074.049.051-.01-.028a1.3,1.3,0,0,0-.128-.164,1.81,1.81,0,0,0-.285-.216c-.2-.141-.431.09-.388.3.041.19.087.38.123.57v-.231a1.738,1.738,0,0,0,.046.7c.026.187.026.38.039.57.031.473.064.945.067,1.418a12.8,12.8,0,0,0,.1,2.807.518.518,0,0,0,.991,0Z" transform="translate(-122.261 -353.601)" fill="#c1b1b3"/>
    </g>
    <g id="Grupo_6247" data-name="Grupo 6247" transform="translate(83.457 329.815)" style="mix-blend-mode: multiply;isolation: isolate">
      <path id="Trazado_21445" data-name="Trazado 21445" d="M141.407,352.923a.062.062,0,0,0,0-.123.062.062,0,0,0,0,.123Z" transform="translate(-141.348 -352.8)" fill="#c1b1b3"/>
    </g>
    <g id="Grupo_6248" data-name="Grupo 6248" transform="translate(83.311 325.906)" style="mix-blend-mode: multiply;isolation: isolate">
      <path id="Trazado_21446" data-name="Trazado 21446" d="M141.33,355.76c.026.046-.036.149-.039.205a.271.271,0,0,0,.1.229c.247.2.478.082.686-.1a3.8,3.8,0,0,0,.919-1.307,9.234,9.234,0,0,0,.57-1.631c.067-.27.128-.542.193-.812.031-.139.064-.28.087-.421a1.577,1.577,0,0,0-.031-.452.265.265,0,0,0-.442-.116,1.55,1.55,0,0,0-.306.542c-.059.2-.108.4-.159.606-.108.421-.216.845-.336,1.264a6.217,6.217,0,0,1-.426,1.14c-.09.18-.19.36-.3.532s-.254.313-.37.483l.154-.121c-.149.051.036.244.087.164a.347.347,0,0,0,.026-.136.417.417,0,0,0-.077-.267.2.2,0,0,0-.336.2Z" transform="translate(-141.291 -351.278)" fill="#c1b1b3"/>
    </g>
    <path id="Trazado_21447" data-name="Trazado 21447" d="M123.084,249.179S127,238.741,129.2,235.446a26.553,26.553,0,0,1,2.951-3.983,9.645,9.645,0,0,0,8.242,5.7c6.385.619,14.829-1.785,16.684-2.129a16.714,16.714,0,0,1,2.473-.342s-5.083,6.454-5.838,13.938.619,11.329.619,11.329,3.3-2.06,7.279-8.514,5.424-11.054,4.256-14.146a6.408,6.408,0,0,0-4.325-3.775s-8.309-9.408-17.647-9.133-11.468,4.669-11.468,4.669-1.99-1.371-5.219,4.053S123.084,249.179,123.084,249.179Z" transform="translate(-86.534 -224.384)" fill="#ffc94a"/>
  </g>
  <g id="Grupo_6265" data-name="Grupo 6265" transform="translate(40.967 17.87)">
    <g id="Grupo_6250" data-name="Grupo 6250" transform="translate(3.819 5.923)">
      <path id="Trazado_21448" data-name="Trazado 21448" d="M124.786,235a1.729,1.729,0,0,0,.593,2.306c.717.283,1.615-.288,2.008-1.279a1.729,1.729,0,0,0-.593-2.306C126.078,233.438,125.176,234.01,124.786,235Z" transform="translate(-124.606 -233.648)" fill="#28121e"/>
    </g>
    <g id="Grupo_6251" data-name="Grupo 6251" transform="translate(17.269 10.287)">
      <path id="Trazado_21449" data-name="Trazado 21449" d="M130.023,236.7a1.725,1.725,0,0,0,.593,2.3c.717.285,1.618-.288,2.008-1.277a1.731,1.731,0,0,0-.591-2.306C131.315,235.137,130.416,235.707,130.023,236.7Z" transform="translate(-129.843 -235.347)" fill="#28121e"/>
    </g>
    <g id="Grupo_6252" data-name="Grupo 6252" transform="translate(15.85 5.199)">
      <path id="Trazado_21450" data-name="Trazado 21450" d="M137.468,238.587c-.031-.039-3.27-3.886-7.851-3.128l-.326-1.962c5.733-.955,9.557,3.629,9.719,3.827Z" transform="translate(-129.29 -233.366)" fill="#ff7454"/>
    </g>
    <g id="Grupo_6253" data-name="Grupo 6253" transform="translate(2.7)">
      <path id="Trazado_21451" data-name="Trazado 21451" d="M129.386,248.92a2.819,2.819,0,0,1-1.685-1.854c-.159-1.038.593-1.813,1.734-2.987.429-.444.937-.966,1.487-1.595a5.68,5.68,0,0,0,.491-.65,5.041,5.041,0,0,0,.534-4.364,5.787,5.787,0,0,0-3.434-3.6,7.474,7.474,0,0,0-4.017-.439l-.326-1.962a9.5,9.5,0,0,1,5.065.544,7.766,7.766,0,0,1,4.6,4.839,7.088,7.088,0,0,1-.75,6.054,7.371,7.371,0,0,1-.668.889c-.578.66-1.107,1.2-1.559,1.669a9.4,9.4,0,0,0-1.169,1.33c.085-.01.236.149.647.372Z" transform="translate(-124.17 -231.342)" fill="#ff7454"/>
    </g>
    <g id="Grupo_6254" data-name="Grupo 6254" transform="translate(3.92 20.673)">
      <path id="Trazado_21452" data-name="Trazado 21452" d="M128.151,243.336a5.753,5.753,0,0,1-3.506-3.049l1.777-.9a3.79,3.79,0,0,0,4.276,2.142l.47,1.934A5.9,5.9,0,0,1,128.151,243.336Z" transform="translate(-124.645 -239.391)" fill="#ff7454"/>
    </g>
    <g id="Grupo_6255" data-name="Grupo 6255" transform="translate(22.17 18.755)">
      <path id="Trazado_21453" data-name="Trazado 21453" d="M131.795,239.034a.619.619,0,1,0,.8-.347A.62.62,0,0,0,131.795,239.034Z" transform="translate(-131.751 -238.644)" fill="#ff7454"/>
    </g>
    <g id="Grupo_6256" data-name="Grupo 6256" transform="translate(19.036 19.548)">
      <path id="Trazado_21454" data-name="Trazado 21454" d="M130.549,239.12a.267.267,0,1,0,.344-.149A.267.267,0,0,0,130.549,239.12Z" transform="translate(-130.531 -238.953)" fill="#ff7454"/>
    </g>
    <g id="Grupo_6257" data-name="Grupo 6257" transform="translate(21.518 22.15)">
      <path id="Trazado_21455" data-name="Trazado 21455" d="M131.535,240.31a.543.543,0,1,0,.7-.306A.543.543,0,0,0,131.535,240.31Z" transform="translate(-131.497 -239.966)" fill="#ff7454"/>
    </g>
    <g id="Grupo_6258" data-name="Grupo 6258" transform="translate(25.146 20.999)">
      <path id="Trazado_21456" data-name="Trazado 21456" d="M132.931,239.708a.3.3,0,1,0,.39-.169A.3.3,0,0,0,132.931,239.708Z" transform="translate(-132.91 -239.518)" fill="#ff7454"/>
    </g>
    <g id="Grupo_6259" data-name="Grupo 6259" transform="translate(17.991 22.428)">
      <path id="Trazado_21457" data-name="Trazado 21457" d="M130.155,240.362a.455.455,0,1,0,.591-.254A.456.456,0,0,0,130.155,240.362Z" transform="translate(-130.124 -240.074)" fill="#ff7454"/>
    </g>
    <g id="Grupo_6260" data-name="Grupo 6260" transform="translate(16.508 17.08)">
      <path id="Trazado_21458" data-name="Trazado 21458" d="M129.576,238.249a.406.406,0,1,0,.526-.229A.4.4,0,0,0,129.576,238.249Z" transform="translate(-129.546 -237.992)" fill="#ff7454"/>
    </g>
    <g id="Grupo_6261" data-name="Grupo 6261" transform="translate(14.906 19.26)">
      <path id="Trazado_21459" data-name="Trazado 21459" d="M130.285,239.807a.706.706,0,1,0-.917.4A.706.706,0,0,0,130.285,239.807Z" transform="translate(-128.923 -238.841)" fill="#ff7454"/>
    </g>
    <g id="Grupo_6262" data-name="Grupo 6262" transform="translate(3.307 11.738)">
      <path id="Trazado_21460" data-name="Trazado 21460" d="M124.444,236.253a.541.541,0,1,0,1.007.4.541.541,0,0,0-1.007-.4Z" transform="translate(-124.407 -235.912)" fill="#ff7454"/>
    </g>
    <g id="Grupo_6263" data-name="Grupo 6263" transform="translate(0.07 14.349)">
      <path id="Trazado_21461" data-name="Trazado 21461" d="M124.6,237.959a.753.753,0,1,0-.976.424A.754.754,0,0,0,124.6,237.959Z" transform="translate(-123.146 -236.929)" fill="#ff7454"/>
    </g>
    <g id="Grupo_6264" data-name="Grupo 6264" transform="translate(0 11.442)">
      <path id="Trazado_21462" data-name="Trazado 21462" d="M123.15,236.075a.439.439,0,1,0,.57-.246A.439.439,0,0,0,123.15,236.075Z" transform="translate(-123.119 -235.797)" fill="#ff7454"/>
    </g>
  </g>
</svg>
