<svg xmlns="http://www.w3.org/2000/svg" width="122.786" height="411.155" viewBox="0 0 122.786 411.155">
  <g id="Grupo_15861" data-name="Grupo 15861" transform="translate(-843.794 -988.458)">
    <rect id="Rect치ngulo_3145" data-name="Rect치ngulo 3145" width="18.778" height="37.018" rx="3.656" transform="translate(895.798 988.458)" fill="#ff5953"/>
    <g id="Grupo_6181" data-name="Grupo 6181" transform="translate(843.794 1065.013)">
      <ellipse id="Elipse_527" data-name="Elipse 527" cx="58.696" cy="157.943" rx="58.696" ry="157.943" transform="translate(0.308)" fill="#f8f3ff"/>
      <g id="Grupo_6180" data-name="Grupo 6180" transform="translate(0 6.551)">
        <path id="Trazado_21293" data-name="Trazado 21293" d="M251.024,105.636s29.228,27.425,34.336,25.722,1.667-4.656-1.354-8.273c-1.646-1.975-11.7-14.645-18.723-25.069S246.714,100.455,251.024,105.636Z" transform="translate(-249.554 1.733)" fill="#ff926d"/>
        <path id="Trazado_21294" data-name="Trazado 21294" d="M281.814,79.576a65.9,65.9,0,0,0-14.719,15.035c-14.94,21.312-18.926,27.3-16.6,32.31,2.183,4.708,9.549,2.342,17.185-4.993,4.954-4.759,20.331-16.792,22.463-24.687S281.814,79.576,281.814,79.576Z" transform="translate(-249.879 -20.972)" fill="#ff926d"/>
        <path id="Trazado_21295" data-name="Trazado 21295" d="M290.424,161.675l3.208-54.654c-7.23.657-22.144,0-22.144,0-12.017,14.136-14.267,45.393-9.415,83.833l10.967,73.7,11.809-9.582,2.992-52.332,2.81-40.074A2.161,2.161,0,0,1,290.424,161.675Z" transform="translate(-234.501 22.071)" fill="#ff926d"/>
        <g id="Grupo_6157" data-name="Grupo 6157" transform="translate(32.578 268.619)">
          <path id="Trazado_21296" data-name="Trazado 21296" d="M280.495,168.525s-1.978,20.657-1.672,27.463,2.63,10.281,1.6,11.986-2.694,1.6-2.9,5.293-3.75,6.8-9.636,7.068-5.4-5.288-5.255-6.215,5.555-7.623,6.963-13.217-2.617-33.614-2.617-33.614S278.512,153.13,280.495,168.525Z" transform="translate(-262.563 -161.347)" fill="#ff926d"/>
        </g>
        <g id="Grupo_6158" data-name="Grupo 6158" transform="translate(61.318 270.958)">
          <path id="Trazado_21297" data-name="Trazado 21297" d="M290.89,162.258s-1.957,26.04-1.651,32.846,3.406,10.171,2.376,11.876-2.692,1.595-2.895,5.291-3.75,6.8-9.636,7.068-5.4-5.286-5.257-6.215,5.558-7.623,6.965-13.217-2.617-33.614-2.617-33.614Z" transform="translate(-273.754 -162.258)" fill="#ffa181"/>
        </g>
        <path id="Trazado_21298" data-name="Trazado 21298" d="M270.654,107.385s24.91-8.026,31.141,7.579c8.486,21.263,2.008,57.081,2.188,57.243l-3.454,25.6-4.456,61.006L286.4,273.551s-6.508-39.781-12.164-74.559c-2.268-13.946-3.19-25.809-4.127-36.5Z" transform="translate(-218.15 19.405)" fill="#ffa181"/>
        <path id="Trazado_21299" data-name="Trazado 21299" d="M292.183,107.021c-7.23.657-22.144,0-22.144,0-4.425,5.2-7.52,12.736-9.431,22.085,8.067,2.812,17.254,8.54,24.268,13.8C287.108,141.776,292.183,107.021,292.183,107.021Z" transform="translate(-233.052 22.071)" fill="#ffd54f"/>
        <path id="Trazado_21300" data-name="Trazado 21300" d="M305.639,131.556a63.545,63.545,0,0,0-3.76-16.591c-6.231-15.605-31.141-7.579-31.141-7.579l-.681,38.189C275.882,136.6,297.286,129.568,305.639,131.556Z" transform="translate(-218.233 19.405)" fill="#ffd54f"/>
        <rect id="Rect치ngulo_3146" data-name="Rect치ngulo 3146" width="39.618" height="64.465" transform="translate(38.072 20.741)" fill="#bb5a38"/>
        <path id="Trazado_21301" data-name="Trazado 21301" d="M319.862,107.507s-29.228,27.427-34.336,25.724-1.667-4.656,1.354-8.275c1.646-1.975,11.7-14.642,18.723-25.069S324.172,102.33,319.862,107.507Z" transform="translate(-198.069 4.669)" fill="#ff926d"/>
        <path id="Trazado_21302" data-name="Trazado 21302" d="M292.244,115.575l-.11-.118a1.479,1.479,0,0,1,.11-2.145h0l-.593-1.854h0a1.5,1.5,0,0,1-.108-1.952l.288-.375-4.168-3.344-7.317,1.063s3.424,8.45,7.266,10.356S292.244,115.575,292.244,115.575Z" transform="translate(-202.098 20.135)" fill="#ff926d"/>
        <path id="Trazado_21303" data-name="Trazado 21303" d="M302.877,78.707C302,89.838,292.958,98.2,282.69,97.391s-18.1-10.51-17.008-21.62c1.192-12.051,7.672-20.4,17.853-18.821C294.707,58.684,303.756,67.578,302.877,78.707Z" transform="translate(-225.254 -56.758)" fill="#bb5a38"/>
        <path id="Trazado_21304" data-name="Trazado 21304" d="M300.617,74.208c-.7,8.843-9.59,15.353-19.861,14.542s-18.248-8.655-17.331-17.477c.994-9.57,8.535-13.576,18.726-12.153C293.338,60.68,301.315,65.367,300.617,74.208Z" transform="translate(-228.747 -53.494)" fill="#bb5a38"/>
        <path id="Trazado_21305" data-name="Trazado 21305" d="M309.537,153.208l6.616-43.782-2.2-26.331s-14.511-6.087-26.366-6.452c-9.775-.3-24.867,7.546-24.867,7.546s-.575,24.376-.668,30.178c-.157,9.986,2.948,27.407,5.72,40.31C275.879,168.905,298.714,161.84,309.537,153.208Z" transform="translate(-230.789 -25.585)" fill="#ff926d"/>
        <path id="Trazado_21306" data-name="Trazado 21306" d="M308.786,103.972c-2.162-8.1-2.609-16.876-2.684-25.229-.727-.231-1.49-.465-2.283-.7l-29.166-.431c-1.11.378-2.191.773-3.218,1.169a82.311,82.311,0,0,1-7.6,26.351c0,.033-1.78,7.661-1.78,7.692a113.227,113.227,0,0,0,1.651,17.061,198.413,198.413,0,0,1,28.686,2.722c6.868,1.1,13.533,1.485,19.956.036,1.189-7.625,2.368-15.323,3.09-20.066C312.38,110.514,309.875,108.051,308.786,103.972Z" transform="translate(-230.788 -24.046)" fill="#ffd54f"/>
        <path id="Trazado_21307" data-name="Trazado 21307" d="M296.156,79.477S292.173,100,276.342,98.963c-10.684-.7-9.351-19.917-9.351-19.917S282.02,73.505,296.156,79.477Z" transform="translate(-223.126 -25.473)" fill="#ff926d"/>
        <path id="Trazado_21308" data-name="Trazado 21308" d="M271.816,81.926s1.605-2.941,2.861-2.484a65.255,65.255,0,0,0,6.955,1.148s-5.858.041-6.886.788S271.406,82.6,271.816,81.926Z" transform="translate(-215.549 -21.257)" fill="#ff7454"/>
        <path id="Trazado_21309" data-name="Trazado 21309" d="M275.691,82.065s-1.122-3.156-2.435-2.9a57.124,57.124,0,0,1-5.923.247s4.651.755,5.55,1.654S275.994,82.792,275.691,82.065Z" transform="translate(-222.503 -21.64)" fill="#ff7454"/>
        <g id="Grupo_6160" data-name="Grupo 6160" transform="translate(49.82 33.672)">
          <g id="Grupo_6159" data-name="Grupo 6159">
            <path id="Trazado_21310" data-name="Trazado 21310" d="M283.263,69.989l-.554,20.494-13.432-1.061,1.406-19.553Z" transform="translate(-269.277 -69.869)" fill="#ff926d"/>
          </g>
        </g>
        <path id="Trazado_21311" data-name="Trazado 21311" d="M276.077,94.793h0c6.536.2,17.167-7.528,17.367-14.064,0,0,1.407-9.963-.342-13.111-3.033-5.463-16.1-6.377-21.327-5.614-8.013,1.166-7,15.97-7,15.97C263.81,90.139,273.218,94.705,276.077,94.793Z" transform="translate(-226.631 -48.899)" fill="#ff8f68"/>
        <path id="Trazado_21312" data-name="Trazado 21312" d="M270.475,69.869l12.469.118a5.589,5.589,0,0,1-2,3.9c-.329,6.285-6.8,10.818-11.534,10.818Z" transform="translate(-219.249 -36.196)" fill="#ff7454"/>
        <path id="Trazado_21313" data-name="Trazado 21313" d="M276.077,94.793h0c6.536.2,17.167-7.528,17.367-14.064,0,0,1.407-9.963-.342-13.111-3.033-5.463-16.1-6.377-21.327-5.614-8.013,1.166-7,15.97-7,15.97C263.81,90.139,273.218,94.705,276.077,94.793Z" transform="translate(-226.631 -48.899)" fill="#ff8f68"/>
        <path id="Trazado_21314" data-name="Trazado 21314" d="M281.5,71.379c-.223,2.8-2.907,5.011-6.277,4.921l.347-10.171C278.938,66.219,281.9,66.352,281.5,71.379Z" transform="translate(-210.137 -42.062)" fill="#ff926d"/>
        <path id="Trazado_21315" data-name="Trazado 21315" d="M277.222,67.683a.376.376,0,0,1,.7-.208,2.233,2.233,0,0,1,.177,2.188c-.56,1.269-1.651,2.491-2.124,1.944s.039-.406.863-2.044A3.987,3.987,0,0,0,277.222,67.683Z" transform="translate(-209.243 -40.23)" fill="#ff7454"/>
        <path id="Trazado_21316" data-name="Trazado 21316" d="M289.36,62.906c-4.772-1.911-22.742-2.756-22.742-2.756a26.428,26.428,0,0,0,10.3,10.79,32.148,32.148,0,0,0,7.042,2.907,6.752,6.752,0,0,1,4.8,5.455h0l.149-.637a3.747,3.747,0,0,1,4.14-2.853h0S294.135,64.817,289.36,62.906Z" transform="translate(-223.626 -51.439)" fill="#bb5a38"/>
        <g id="Grupo_6176" data-name="Grupo 6176" transform="translate(38.528 23.401)">
          <g id="Grupo_6161" data-name="Grupo 6161" transform="translate(2.562 4.329)">
            <path id="Trazado_21317" data-name="Trazado 21317" d="M265.884,68.952c-.064.814.365,1.515.958,1.562s1.125-.578,1.189-1.392-.365-1.518-.958-1.564S265.948,68.135,265.884,68.952Z" transform="translate(-265.878 -67.555)" fill="#28121e"/>
          </g>
          <g id="Grupo_6162" data-name="Grupo 6162" transform="translate(13.441 4.501)">
            <path id="Trazado_21318" data-name="Trazado 21318" d="M270.12,69.019c-.064.814.362,1.515.955,1.562s1.125-.578,1.189-1.392-.362-1.518-.955-1.564S270.184,68.2,270.12,69.019Z" transform="translate(-270.113 -67.622)" fill="#28121e"/>
          </g>
          <g id="Grupo_6163" data-name="Grupo 6163" transform="translate(10.846 0.85)">
            <path id="Trazado_21319" data-name="Trazado 21319" d="M276.269,68.867c-.033-.021-3.282-2.119-6.482-.527l-.683-1.369c4-2,7.849.511,8.011.619Z" transform="translate(-269.103 -66.201)" fill="#ff7454"/>
          </g>
          <g id="Grupo_6164" data-name="Grupo 6164">
            <path id="Trazado_21320" data-name="Trazado 21320" d="M272.657,78.288A2.166,2.166,0,0,1,271,77.307c-.349-.729.028-1.469.6-2.589.216-.424.473-.922.735-1.51a4.156,4.156,0,0,0,.213-.588,3.889,3.889,0,0,0-.591-3.331,4.453,4.453,0,0,0-3.339-1.87,5.751,5.751,0,0,0-3.056.583l-.681-1.369a7.307,7.307,0,0,1,3.847-.742,5.971,5.971,0,0,1,4.479,2.517,5.479,5.479,0,0,1,.524,5.427c-.275.616-.542,1.138-.768,1.58a6.984,6.984,0,0,0-.56,1.243c.059-.026.208.057.56.128Z" transform="translate(-264.88 -65.87)" fill="#ff7454"/>
          </g>
          <g id="Grupo_6165" data-name="Grupo 6165" transform="translate(5.738 15.198)">
            <path id="Trazado_21321" data-name="Trazado 21321" d="M270.383,74.3a4.436,4.436,0,0,1-3.269-1.451l1.1-1.061a2.914,2.914,0,0,0,3.629.609l.783,1.318A4.555,4.555,0,0,1,270.383,74.3Z" transform="translate(-267.114 -71.787)" fill="#ff7454"/>
          </g>
          <g id="Grupo_6166" data-name="Grupo 6166" transform="translate(18.645 9.905)">
            <path id="Trazado_21322" data-name="Trazado 21322" d="M272.141,70.165a.477.477,0,1,0,.514-.437A.476.476,0,0,0,272.141,70.165Z" transform="translate(-272.139 -69.726)" fill="#ff7454"/>
          </g>
          <g id="Grupo_6167" data-name="Grupo 6167" transform="translate(16.452 11.288)">
            <path id="Trazado_21323" data-name="Trazado 21323" d="M271.287,70.453a.2.2,0,1,0,.408.033.208.208,0,0,0-.19-.221A.2.2,0,0,0,271.287,70.453Z" transform="translate(-271.286 -70.265)" fill="#ff7454"/>
          </g>
          <g id="Grupo_6168" data-name="Grupo 6168" transform="translate(18.917 12.571)">
            <path id="Trazado_21324" data-name="Trazado 21324" d="M272.247,71.149a.417.417,0,1,0,.449-.383A.417.417,0,0,0,272.247,71.149Z" transform="translate(-272.245 -70.764)" fill="#ff7454"/>
          </g>
          <g id="Grupo_6169" data-name="Grupo 6169" transform="translate(21.28 10.967)">
            <path id="Trazado_21325" data-name="Trazado 21325" d="M273.167,70.354a.231.231,0,0,0,.211.249.232.232,0,1,0,.039-.462A.231.231,0,0,0,273.167,70.354Z" transform="translate(-273.166 -70.14)" fill="#ff7454"/>
          </g>
          <g id="Grupo_6170" data-name="Grupo 6170" transform="translate(16.369 13.594)">
            <path id="Trazado_21326" data-name="Trazado 21326" d="M271.255,71.485a.35.35,0,1,0,.378-.321A.351.351,0,0,0,271.255,71.485Z" transform="translate(-271.254 -71.163)" fill="#ff7454"/>
          </g>
          <g id="Grupo_6171" data-name="Grupo 6171" transform="translate(14.061 10.009)">
            <path id="Trazado_21327" data-name="Trazado 21327" d="M270.355,70.055a.314.314,0,1,0,.339-.288A.317.317,0,0,0,270.355,70.055Z" transform="translate(-270.355 -69.767)" fill="#ff7454"/>
          </g>
          <g id="Grupo_6172" data-name="Grupo 6172" transform="translate(13.433 11.896)">
            <path id="Trazado_21328" data-name="Trazado 21328" d="M271.2,71.089a.544.544,0,1,0-.586.5A.544.544,0,0,0,271.2,71.089Z" transform="translate(-270.11 -70.501)" fill="#ff7454"/>
          </g>
          <g id="Grupo_6173" data-name="Grupo 6173" transform="translate(3.173 9.025)">
            <path id="Trazado_21329" data-name="Trazado 21329" d="M266.117,69.767a.413.413,0,0,0,.38.447.416.416,0,1,0-.38-.447Z" transform="translate(-266.115 -69.383)" fill="#ff7454"/>
          </g>
          <g id="Grupo_6174" data-name="Grupo 6174" transform="translate(1.421 11.621)">
            <path id="Trazado_21330" data-name="Trazado 21330" d="M266.591,71.02a.58.58,0,1,0-.624.532A.579.579,0,0,0,266.591,71.02Z" transform="translate(-265.433 -70.394)" fill="#ff7454"/>
          </g>
          <g id="Grupo_6175" data-name="Grupo 6175" transform="translate(0.654 9.58)">
            <path id="Trazado_21331" data-name="Trazado 21331" d="M265.136,69.911a.337.337,0,1,0,.362-.311A.336.336,0,0,0,265.136,69.911Z" transform="translate(-265.135 -69.6)" fill="#ff7454"/>
          </g>
        </g>
        <g id="Grupo_6177" data-name="Grupo 6177" transform="translate(50.903 98.97)">
          <path id="Trazado_21332" data-name="Trazado 21332" d="M279.4,100.15a15.1,15.1,0,0,1-9.339-3.2.921.921,0,1,1,1.115-1.467c8.35,6.357,17.472.044,17.565-.018a.92.92,0,1,1,1.063,1.5A20.074,20.074,0,0,1,279.4,100.15Z" transform="translate(-269.698 -95.293)" fill="#e8bc42"/>
        </g>
        <path id="Trazado_21333" data-name="Trazado 21333" d="M282.917,79.15S298.1,87.9,305.8,100.09c13.884,22.013,17.547,26.862,16.6,32.31s-9.549,2.34-17.185-4.993c-4.954-4.762-20.331-16.792-22.463-24.689S282.917,79.15,282.917,79.15Z" transform="translate(-199.749 -21.64)" fill="#ff926d"/>
        <path id="Trazado_21334" data-name="Trazado 21334" d="M266.52,110.172a14.593,14.593,0,0,1-5.689-11.278c-.015-2.116,4.918-10.564,4.918-10.564Z" transform="translate(-232.702 -7.242)" fill="#ffd54f"/>
        <g id="Grupo_6178" data-name="Grupo 6178" transform="translate(31.844 98.969)">
          <path id="Trazado_21335" data-name="Trazado 21335" d="M268.409,100.066a20.751,20.751,0,0,1-5.476-.753.921.921,0,0,1-.616-1.148.931.931,0,0,1,1.148-.616c.08.026,8.154,2.381,12.2-1.962a.921.921,0,0,1,1.348,1.256C274.63,99.4,271.257,100.066,268.409,100.066Z" transform="translate(-262.278 -95.292)" fill="#e8bc42"/>
        </g>
        <g id="Grupo_6179" data-name="Grupo 6179" transform="translate(73.601 124.489)">
          <path id="Trazado_21336" data-name="Trazado 21336" d="M284.949,105.229l7.05.519a1.424,1.424,0,0,1,1.356,1.4c-.026.778-.46,1.726-1.24,1.675l-6.477-.38-3.478,1.12a2.718,2.718,0,0,1-3.624-1.289h0Z" transform="translate(-278.536 -105.229)" fill="#ffa181"/>
          <path id="Trazado_21337" data-name="Trazado 21337" d="M284.723,108.148l8.291-1.988c.776-.272,1.51.706,1.662,1.556.118.668-.277,2.008-.919,2.232l-6.6.85-4.772,2.722a3.552,3.552,0,0,1-3.85-.917Z" transform="translate(-278.536 -103.841)" fill="#ffa181"/>
          <path id="Trazado_21338" data-name="Trazado 21338" d="M285.453,108.774l6.631-1.061c.806-.067,1.975,1.223,1.89,2.08a1.43,1.43,0,0,1-1.356,1.225l-6.205.419-3.269,2.365a2.717,2.717,0,0,1-3.8-.606h0Z" transform="translate(-277.266 -101.336)" fill="#ffa181"/>
          <path id="Trazado_21339" data-name="Trazado 21339" d="M285.906,109.857l4.438-.529a1.364,1.364,0,0,1,1.521,1.415,1.418,1.418,0,0,1-1.277,1.3l-3.868.46-2.355,1.225a2.722,2.722,0,0,1-3.67-1.158h0Z" transform="translate(-275.15 -98.815)" fill="#ffa181"/>
        </g>
      </g>
    </g>
  </g>
</svg>
