<svg xmlns="http://www.w3.org/2000/svg" width="959.775" height="758.069" viewBox="0 0 959.775 758.069">
  <g id="Grupo_15864" data-name="Grupo 15864" transform="translate(-298.447 -2055.62)">
    <g id="Grupo_6436" data-name="Grupo 6436" transform="translate(137.936 1783.15)">
      <g id="Grupo_6357" data-name="Grupo 6357" transform="translate(524.521 659.47)">
        <ellipse id="Elipse_537" data-name="Elipse 537" cx="63.905" cy="171.958" rx="63.905" ry="171.958" transform="translate(7.312 4.218)" fill="#f8f3ff"/>
        <g id="Grupo_6356" data-name="Grupo 6356" transform="translate(0 0)">
          <g id="Grupo_6349" data-name="Grupo 6349" transform="translate(29.109)">
            <path id="Trazado_21574" data-name="Trazado 21574" d="M386.041,681.062s-7.592,13.791,1.186,23.1,14.146,13.593,5.173,25.767-6.588,20.765.73,23.567,9.949,27.674-12.695,38.812-48.6-11.381-57.228-19.406-14.339-14.6-8.26-24.607,12.837-8.132,11.456-18.892-15.391-12.121-5.71-23.343,12.647-9.239,11.1-19.482,15.5-23.483,22.429-25.351S383.633,668.172,386.041,681.062Z" transform="translate(-312.416 -656.76)" fill="#ffc94a"/>
            <rect id="Rectángulo_3152" data-name="Rectángulo 3152" width="14.099" height="21.855" transform="translate(40.578 48.119)" fill="#ed744d"/>
            <path id="Trazado_21575" data-name="Trazado 21575" d="M326.74,678.171a10.915,10.915,0,0,0,7.329,10.419,5.338,5.338,0,0,0,1.348.291,3.454,3.454,0,0,0,1.379-.238,6.324,6.324,0,0,0,4.046-5.99v-6.412h-14.1Z" transform="translate(-286.687 -629.344)" fill="#bb5a38"/>
            <circle id="Elipse_538" data-name="Elipse 538" cx="21.298" cy="21.298" r="21.298" transform="translate(20.542 39.353) rotate(-67.5)" fill="#ffc94a"/>
            <path id="Trazado_21576" data-name="Trazado 21576" d="M342.04,675.509c0,3.235-2.88,6.015-6.756,6.213l-.523-11.7C338.637,669.825,342.045,669.707,342.04,675.509Z" transform="translate(-272.279 -640.63)" fill="#ed744d"/>
            <path id="Trazado_21577" data-name="Trazado 21577" d="M336.765,671.6a.432.432,0,0,1,.777-.3,2.562,2.562,0,0,1,.4,2.491c-.526,1.51-1.669,3.011-2.262,2.424s.011-.47.805-2.424A4.571,4.571,0,0,0,336.765,671.6Z" transform="translate(-271.05 -638.548)" fill="#bb5a38"/>
            <path id="Trazado_21578" data-name="Trazado 21578" d="M334.347,675.948a.667.667,0,1,1,.668.668A.668.668,0,0,1,334.347,675.948Z" transform="translate(-273.023 -631.066)" fill="#ff7454"/>
            <circle id="Elipse_539" data-name="Elipse 539" cx="0.389" cy="0.389" r="0.389" transform="translate(62.969 41.967)" fill="#ff7454"/>
            <path id="Trazado_21579" data-name="Trazado 21579" d="M341.9,704.522h0c-7.516-.364-18.273-10.855-17.91-18.371,0,0-.713-11.557,1.577-15.01,3.973-5.992,19.042-5.858,24.976-4.51,9.088,2.066,6.588,18.958,6.588,18.958C357.133,699.631,345.191,704.678,341.9,704.522Z" transform="translate(-291.81 -647.977)" fill="#ed744d"/>
            <path id="Trazado_21580" data-name="Trazado 21580" d="M322.14,675.509c0,3.235,2.883,6.015,6.759,6.213l.52-11.7C325.543,669.825,322.134,669.707,322.14,675.509Z" transform="translate(-294.949 -640.63)" fill="#ed744d"/>
            <path id="Trazado_21581" data-name="Trazado 21581" d="M324.449,671.6a.433.433,0,0,0-.78-.3,2.563,2.563,0,0,0-.4,2.491c.526,1.51,1.667,3.011,2.259,2.424s-.008-.47-.805-2.424A4.6,4.6,0,0,1,324.449,671.6Z" transform="translate(-293.21 -638.548)" fill="#bb5a38"/>
            <path id="Trazado_21582" data-name="Trazado 21582" d="M330.257,673.942c0,.942-.554,1.706-1.236,1.706s-1.239-.763-1.239-1.706.554-1.706,1.239-1.706S330.257,673,330.257,673.942Z" transform="translate(-284.815 -636.54)" fill="#28121e"/>
            <path id="Trazado_21583" data-name="Trazado 21583" d="M335.162,673.942c0,.942-.554,1.706-1.236,1.706s-1.239-.763-1.239-1.706.554-1.706,1.239-1.706S335.162,673,335.162,673.942Z" transform="translate(-276.004 -636.54)" fill="#28121e"/>
            <path id="Trazado_21584" data-name="Trazado 21584" d="M326.661,671.854s4.343-2.416,8.364,0" transform="translate(-286.828 -639.155)" fill="none" stroke="#bb5a38" stroke-miterlimit="10" stroke-width="0.707"/>
            <path id="Trazado_21585" data-name="Trazado 21585" d="M329.358,677.055a4.291,4.291,0,0,0,5.313-.336" transform="translate(-281.984 -628.487)" fill="none" stroke="#bb5a38" stroke-miterlimit="10" stroke-width="0.707"/>
            <g id="Grupo_6347" data-name="Grupo 6347" transform="translate(36.664 40.699)">
              <path id="Trazado_21586" data-name="Trazado 21586" d="M327.531,674.573a.548.548,0,1,1-.548-.548A.549.549,0,0,1,327.531,674.573Z" transform="translate(-323.899 -674.025)" fill="#bb5a38"/>
              <path id="Trazado_21587" data-name="Trazado 21587" d="M327.995,674.91a.236.236,0,1,1-.238-.238A.237.237,0,0,1,327.995,674.91Z" transform="translate(-321.946 -672.863)" fill="#bb5a38"/>
              <path id="Trazado_21588" data-name="Trazado 21588" d="M327.249,675.592a.481.481,0,1,1-.481-.481A.481.481,0,0,1,327.249,675.592Z" transform="translate(-324.165 -672.074)" fill="#bb5a38"/>
              <path id="Trazado_21589" data-name="Trazado 21589" d="M326.062,674.652a.267.267,0,1,1-.266-.268A.267.267,0,0,1,326.062,674.652Z" transform="translate(-325.528 -673.382)" fill="#bb5a38"/>
              <circle id="Elipse_540" data-name="Elipse 540" cx="0.403" cy="0.403" r="0.403" transform="translate(5.113 4.448)" fill="#bb5a38"/>
              <path id="Trazado_21590" data-name="Trazado 21590" d="M329.173,674.582a.361.361,0,1,1-.361-.361A.362.362,0,0,1,329.173,674.582Z" transform="translate(-320.278 -673.673)" fill="#bb5a38"/>
              <path id="Trazado_21591" data-name="Trazado 21591" d="M328.451,675.632a.626.626,0,1,1,.626.626A.625.625,0,0,1,328.451,675.632Z" transform="translate(-320.278 -672.259)" fill="#bb5a38"/>
            </g>
            <g id="Grupo_6348" data-name="Grupo 6348" transform="translate(55.229 40.819)">
              <path id="Trazado_21592" data-name="Trazado 21592" d="M334.17,674.616a.548.548,0,1,1-.548-.548A.549.549,0,0,1,334.17,674.616Z" transform="translate(-330.538 -674.068)" fill="#bb5a38"/>
              <path id="Trazado_21593" data-name="Trazado 21593" d="M334.631,674.951a.235.235,0,1,1-.235-.235A.234.234,0,0,1,334.631,674.951Z" transform="translate(-328.585 -672.904)" fill="#bb5a38"/>
              <path id="Trazado_21594" data-name="Trazado 21594" d="M333.888,675.635a.481.481,0,1,1-.481-.481A.481.481,0,0,1,333.888,675.635Z" transform="translate(-330.804 -672.117)" fill="#bb5a38"/>
              <path id="Trazado_21595" data-name="Trazado 21595" d="M332.7,674.694a.267.267,0,0,1-.534,0,.267.267,0,1,1,.534,0Z" transform="translate(-332.167 -673.425)" fill="#bb5a38"/>
              <path id="Trazado_21596" data-name="Trazado 21596" d="M334.8,676.062a.4.4,0,1,1-.4-.4A.4.4,0,0,1,334.8,676.062Z" transform="translate(-328.882 -671.21)" fill="#bb5a38"/>
              <path id="Trazado_21597" data-name="Trazado 21597" d="M335.811,674.625a.361.361,0,1,1-.361-.361A.362.362,0,0,1,335.811,674.625Z" transform="translate(-326.917 -673.716)" fill="#bb5a38"/>
            </g>
            <path id="Trazado_21598" data-name="Trazado 21598" d="M334.811,674.647a.48.48,0,1,1-.478-.481A.48.48,0,0,1,334.811,674.647Z" transform="translate(-273.912 -633.073)" fill="#bb5a38"/>
            <path id="Trazado_21599" data-name="Trazado 21599" d="M323.584,676.245l3.02,6.155s1.647-15.41,7.933-16.562C334.537,665.837,323.481,665.9,323.584,676.245Z" transform="translate(-292.356 -648.034)" fill="#ffc94a"/>
            <path id="Trazado_21600" data-name="Trazado 21600" d="M342.958,676.187l-1.516,7.41s-2.469-16.789-8.755-17.941C332.687,665.656,343.061,665.838,342.958,676.187Z" transform="translate(-276.004 -648.359)" fill="#ffc94a"/>
            <path id="Trazado_21601" data-name="Trazado 21601" d="M332.046,672.627l1.242,4.457s1.84,2.824-2.749,2.824Z" transform="translate(-279.863 -635.837)" fill="#ed744d"/>
            <path id="Trazado_21602" data-name="Trazado 21602" d="M340.952,671.854a7.564,7.564,0,0,0-3.9-1.074,5.74,5.74,0,0,0-5.847,6.663,5.337,5.337,0,0,0,.227.819c1.183,3.314,2.3,4.331-.109,4.628" transform="translate(-278.851 -639.155)" fill="none" stroke="#bb5a38" stroke-miterlimit="10" stroke-width="0.707"/>
            <path id="Trazado_21603" data-name="Trazado 21603" d="M348.648,666.426s.464,7.883-4.955,9.8-16.282.414-18.019,9.337c0,0-1.116-8.859,0-13.881S339.974,663.325,348.648,666.426Z" transform="translate(-289.491 -649.129)" fill="#ffc94a"/>
          </g>
          <g id="Grupo_6350" data-name="Grupo 6350" transform="translate(43.976 303.203)">
            <path id="Trazado_21604" data-name="Trazado 21604" d="M339.5,775.937s-4,22.434-4,29.844,3.2,11.216,2,13.019-3.006,1.6-3.406,5.609-4.407,7.209-10.816,7.209-5.606-6.006-5.408-7.01,6.409-8.011,8.213-14.02-1.2-36.653-1.2-36.653S338.1,759.112,339.5,775.937Z" transform="translate(-317.733 -767.903)" fill="#ed744d"/>
          </g>
          <path id="Trazado_21605" data-name="Trazado 21605" d="M354.587,709.944H331.616s-14.451,12.119-14.451,46.787c0,16,5.221,52.429,7.894,73.34-1.974,21.053,2.388,68.8,2.388,68.8l10.217.165c3.652-22.66,6.395-44.342,6.616-63.315l10.3-62.009.006.031Z" transform="translate(-274.777 -568.807)" fill="#ed744d"/>
          <g id="Grupo_6351" data-name="Grupo 6351" transform="translate(90.833 303.203)">
            <path id="Trazado_21606" data-name="Trazado 21606" d="M334.49,775.937s4.007,22.434,4.007,29.844-3.2,11.216-2,13.019,3.006,1.6,3.406,5.609,4.407,7.209,10.816,7.209,5.609-6.006,5.408-7.01-6.409-8.011-8.212-14.02,1.2-36.653,1.2-36.653S335.894,759.112,334.49,775.937Z" transform="translate(-334.49 -767.903)" fill="#ed744d"/>
          </g>
          <path id="Trazado_21607" data-name="Trazado 21607" d="M329.461,710.815l23.279-1.356s17.482,25.074,15.035,59.182c-1.146,15.964-2.491,42.03-5.165,62.94,1.974,21.053-6.006,68.164-6.006,68.164l-10.22.165c-3.652-22.66-3.479-45.861-3.7-64.833l-13.215-60.491-.008.031Z" transform="translate(-252.69 -569.679)" fill="#ed744d"/>
          <path id="Trazado_21608" data-name="Trazado 21608" d="M351.055,759.776l.671-49.832H328.755s-5.749,4.832-10,17.1C339.959,739.288,350.9,759.918,351.055,759.776Z" transform="translate(-271.915 -568.807)" fill="#7986cb"/>
          <path id="Trazado_21609" data-name="Trazado 21609" d="M361.895,728.188a88.671,88.671,0,0,0-9.155-18.729l-23.279,1.356v37.663c.864.688,1.513,11.47,2.368,12.169C337.461,748.525,352.021,735.777,361.895,728.188Z" transform="translate(-252.69 -569.679)" fill="#7986cb"/>
          <path id="Trazado_21610" data-name="Trazado 21610" d="M366.141,756.268C364.6,745.721,362.57,689.363,346.7,684c0,0-11.669,26.589-5.959,45.185a130.178,130.178,0,0,0,13.9,30.915C365.162,758.186,366.141,756.268,366.141,756.268Z" transform="translate(-235.252 -615.4)" fill="#ed744d"/>
          <path id="Trazado_21611" data-name="Trazado 21611" d="M387.289,688.855s-23.382-7.891-34.782-7.539c-13.83.428-35.932,9.507-35.932,9.507a122.79,122.79,0,0,0,3.241,27.624s11.224,40.97,13.285,45.405c8.9,19.171,31.27,20.527,41.088,1.692C377.586,759.029,387.289,688.855,387.289,688.855Z" transform="translate(-275.839 -620.25)" fill="#ed744d"/>
          <path id="Trazado_21612" data-name="Trazado 21612" d="M377.347,684.486c-1.5-.436-4.742-1.37-6.484-1.837-.906,11.229-2.324,24.649-10.287,32.017-5.506,5.092-15.3,4.709-19.6-1.021-6.5-8.66-8.917-17.08-13.137-30.512-1.588.484-3.118.973-4.547,1.451.85,5.715,3.744,38.138-4.645,41.026,1.018,3.741,2.824,10.357,4,14.554a3.253,3.253,0,0,1,.391.2c8.942,5.71,19.87,4.3,29.934,3.6,7.7-.534,15.541-1.032,22.859-3.308,1.037-5.8,2.05-12.169,2.981-18.441C372.694,711.752,375.91,695.478,377.347,684.486Z" transform="translate(-272.116 -617.836)" fill="#7986cb"/>
          <path id="Trazado_21613" data-name="Trazado 21613" d="M337,687.5s-1.851-3.89-3.314-3.353-8.134,1.8-8.134,1.8,6.831.048,8.031.917S337.481,688.287,337,687.5Z" transform="translate(-259.712 -615.228)" fill="#bb5a38"/>
          <path id="Trazado_21614" data-name="Trazado 21614" d="M330.951,687.4s1.311-3.68,2.841-3.383a65.912,65.912,0,0,0,6.907.288s-5.425.881-6.47,1.929S330.6,688.25,330.951,687.4Z" transform="translate(-250.073 -615.409)" fill="#bb5a38"/>
          <path id="Trazado_21615" data-name="Trazado 21615" d="M332.649,684.709s7.894,7.628,5.257,33.415c0,0-8.252,35.3-16.719,45.816-4.169,5.181-7.273,6.171-11.451,4.021C303.056,764.522,312.636,693.316,332.649,684.709Z" transform="translate(-291.913 -614.135)" fill="#ed744d"/>
          <g id="Grupo_6352" data-name="Grupo 6352" transform="translate(47.136 108.827)">
            <path id="Trazado_21616" data-name="Trazado 21616" d="M334.656,710.605c-12.742,0-15.712-10.3-15.743-10.424a1.418,1.418,0,0,1,2.735-.75c.14.489,3.4,11.3,19.213,7.547a1.418,1.418,0,1,1,.654,2.76A29.677,29.677,0,0,1,334.656,710.605Z" transform="translate(-318.863 -698.389)" fill="#6473b2"/>
          </g>
          <g id="Grupo_6353" data-name="Grupo 6353" transform="translate(82.96 108.829)">
            <path id="Trazado_21617" data-name="Trazado 21617" d="M339.626,710.6a29.676,29.676,0,0,1-6.859-.867,1.418,1.418,0,1,1,.654-2.76c15.93,3.769,19.084-7.077,19.21-7.542a1.418,1.418,0,0,1,2.737.744C355.338,700.3,352.368,710.6,339.626,710.6Z" transform="translate(-331.674 -698.39)" fill="#6473b2"/>
          </g>
          <path id="Trazado_21618" data-name="Trazado 21618" d="M334.724,701.817" transform="translate(-243.237 -583.405)" fill="none" stroke="#dfc5b6" stroke-linecap="round" stroke-miterlimit="10" stroke-width="1.078"/>
          <g id="Grupo_6354" data-name="Grupo 6354" transform="translate(0 187.412)">
            <path id="Trazado_21619" data-name="Trazado 21619" d="M304.1,741.4l1.043-1.854,6.91-13.056,7.773,3.361-.59,6.02s.721,11.448.344,11.862l-2.5,4.113a.828.828,0,0,1-1.432-.453,2.983,2.983,0,0,1,.333-2.511l.529-.889-.246-2.833-2.176,6.518-1.4,2.777A3.573,3.573,0,0,1,311,756.024a1.3,1.3,0,0,1-.626,0,.653.653,0,0,1-.33-.472,3.684,3.684,0,0,1,.386-2.312l1.258-2.478,1.5-4.362c.215-1.175-.316-.476-.419-.207l-1.935,5.039-2,3.694a3.579,3.579,0,0,1-1.689,1.563l-.05.022a.65.65,0,0,1-.906-.5l-.009-.053a3.575,3.575,0,0,1,.394-2.257l1.851-3.392,1.82-6.132c.168-1.124-.392-.666-.548-.179l-1.269,3.943-1.787,3.8a3.57,3.57,0,0,1-1.6,1.655l-.048.025a.652.652,0,0,1-.934-.445l-.011-.053a3.585,3.585,0,0,1,.269-2.276l1.658-3.49,1.351-4.963a.17.17,0,0,0-.291-.159l-.389.428-1.8,3.769-.512,2.967a1.8,1.8,0,0,1-1.734,1.429.553.553,0,0,1-.584-.685l.47-4.06Z" transform="translate(-302.006 -726.493)" fill="#ed744d"/>
          </g>
          <path id="Trazado_21620" data-name="Trazado 21620" d="M313.282,768.315s13.858-38.862,15.186-46.563c2.69-15.6-6.266-17.7-13.313-7.016-4.793,7.262-9.633,46.174-9.633,46.174-.492,1.94-.914,5.732-.914,5.732S306.795,769.044,313.282,768.315Z" transform="translate(-297.332 -572.134)" fill="#ed744d"/>
          <g id="Grupo_6355" data-name="Grupo 6355" transform="translate(125.884 186.151)">
            <path id="Trazado_21621" data-name="Trazado 21621" d="M363.005,741.533l-.895-1.929-5.861-13.562-8.011,2.74.112,6.046s-1.619,11.358-1.278,11.8l2.173,4.3a.826.826,0,0,0,1.462-.339,2.966,2.966,0,0,0-.134-2.528l-.459-.925.47-2.807,1.655,6.669,1.18,2.88a3.572,3.572,0,0,0,1.563,1.692,1.3,1.3,0,0,0,.624.048.646.646,0,0,0,.366-.445,3.672,3.672,0,0,0-.2-2.335l-1.057-2.57L353.56,745.8c-.123-1.191.35-.45.431-.173l1.535,5.176,1.7,3.836a3.574,3.574,0,0,0,1.563,1.692l.048.025a.649.649,0,0,0,.942-.422l.014-.05a3.584,3.584,0,0,0-.218-2.284l-1.577-3.526-1.331-6.255c-.078-1.135.442-.635.559-.137l.954,4.032,1.482,3.926a3.582,3.582,0,0,0,1.465,1.776l.048.028a.651.651,0,0,0,.965-.369l.014-.053a3.552,3.552,0,0,0-.089-2.29l-1.376-3.607-.956-5.056a.172.172,0,0,1,.3-.137l.352.459,1.493,3.9.277,2.995a1.8,1.8,0,0,0,1.616,1.563.552.552,0,0,0,.635-.637l-.148-4.085Z" transform="translate(-347.025 -726.042)" fill="#ed744d"/>
          </g>
          <path id="Trazado_21622" data-name="Trazado 21622" d="M355.18,768.169s-10.338-40.051-11.056-47.83c-1.454-15.762,7.223-16.931,13.408-5.729,4.206,7.62,5.967,46.789,5.967,46.789.336,1.974.459,5.788.459,5.788S361.589,769.408,355.18,768.169Z" transform="translate(-226.643 -573.741)" fill="#ed744d"/>
        </g>
      </g>
      <g id="Grupo_6370" data-name="Grupo 6370" transform="translate(178.127 660.274)">
        <ellipse id="Elipse_541" data-name="Elipse 541" cx="63.905" cy="171.958" rx="63.905" ry="171.958" fill="#f8f3ff"/>
        <g id="Grupo_6369" data-name="Grupo 6369" transform="translate(9.376 0.192)">
          <g id="Grupo_6361" data-name="Grupo 6361" transform="translate(83.891 124.757)">
            <g id="Grupo_6360" data-name="Grupo 6360" transform="translate(0 43.72)">
              <path id="Trazado_21623" data-name="Trazado 21623" d="M217.166,741.118l-4.368,1.761h0a4.073,4.073,0,0,1,2.547-4.689l3.876-1.448,1.3-1.294.484,4.594Z" transform="translate(-209.289 -692.47)" fill="#962e09"/>
              <g id="Grupo_6358" data-name="Grupo 6358" transform="translate(0 31.731)">
                <path id="Trazado_21624" data-name="Trazado 21624" d="M226.495,736.745l-8.017,2.975-7-2.218s1.152-2.517,2.78-2.067a30.059,30.059,0,0,0,5.064.545l5.436-3.168Z" transform="translate(-211.482 -728.932)" fill="#792304"/>
                <path id="Trazado_21625" data-name="Trazado 21625" d="M224.626,733.953l-6.882,2.553-5.567-2.542s1.208-1.963,2.508-1.429a24.9,24.9,0,0,0,4.136.965l4.815-2.075Z" transform="translate(-210.234 -731.425)" fill="#ff7e46"/>
                <path id="Trazado_21626" data-name="Trazado 21626" d="M226.476,735.008l-8.257,3.062-6.68-3.051s1.451-2.354,3.012-1.714a29.879,29.879,0,0,0,4.961,1.155l5.777-2.486Z" transform="translate(-211.38 -730.439)" fill="#792304"/>
              </g>
              <g id="Grupo_6359" data-name="Grupo 6359" transform="translate(4.314)">
                <path id="Trazado_21627" data-name="Trazado 21627" d="M214.1,749.431c-.025,1.972.727,5.279.193,7.178-.956,3.383-2.117,8.12-.336,8.688,2.438.774,4.116-7.458,4.245-7.79a1.825,1.825,0,0,1,2.287-1.068h0a1.067,1.067,0,0,1,.724,1.043l-.526,3.694-.738,1.879.484,4.594s3.487-2.536,3.929-3.635c1.25-3.109,3.962-7.34,3.33-9.929-.291-1.186-4.038-11.666-4.038-11.666l.405-17.222a5,5,0,0,0-6.633-4.84h0l-1.524,16.61a10.421,10.421,0,0,1-.5,5.26A21.566,21.566,0,0,0,214.1,749.431Z" transform="translate(-213.025 -720.077)" fill="#962e09"/>
                <path id="Trazado_21628" data-name="Trazado 21628" d="M214.881,736.251a1.825,1.825,0,0,1,2.287-1.068,1.067,1.067,0,0,1,.724,1.043l-.526,3.694s3.35-8.878-.106-7.938C215.91,732.35,214.753,736.583,214.881,736.251Z" transform="translate(-209.708 -698.821)" fill="#792304"/>
              </g>
            </g>
            <path id="Trazado_21629" data-name="Trazado 21629" d="M214.3,768.079l-.361-54.991,13.99-8.646s6.174,16.565,3.736,27.537c-2.905,13.067-9.655,38.524-9.655,38.524Z" transform="translate(-207.069 -704.442)" fill="#962e09"/>
          </g>
          <g id="Grupo_6362" data-name="Grupo 6362" transform="translate(17.474 306.357)">
            <path id="Trazado_21630" data-name="Trazado 21630" d="M209.5,777.421s-4,22.434-4,29.844,3.2,11.216,2,13.019-3.006,1.6-3.406,5.609-4.407,7.209-10.816,7.209-5.609-6.006-5.408-7.01,6.409-8.011,8.213-14.02-1.2-36.653-1.2-36.653S208.1,760.6,209.5,777.421Z" transform="translate(-187.729 -769.387)" fill="#962e09"/>
          </g>
          <path id="Trazado_21631" data-name="Trazado 21631" d="M230.579,711.428H209.107s-27.92,5.791-25.079,57.608c.875,15.978,10.732,42.248,13.4,63.159-1.974,21.053,6.009,68.164,6.009,68.164l10.217.165c3.652-22.661,6.4-44.343,6.616-63.315l10.3-62.009.006.031Z" transform="translate(-177.27 -567.137)" fill="#962e09"/>
          <g id="Grupo_6363" data-name="Grupo 6363" transform="translate(64.332 306.357)">
            <path id="Trazado_21632" data-name="Trazado 21632" d="M204.487,777.421s4.007,22.434,4.007,29.844-3.2,11.216-2,13.019,3.006,1.6,3.406,5.609,4.407,7.209,10.816,7.209,5.609-6.006,5.408-7.01-6.409-8.011-8.213-14.02,1.2-36.653,1.2-36.653S205.891,760.6,204.487,777.421Z" transform="translate(-204.487 -769.387)" fill="#962e09"/>
          </g>
          <path id="Trazado_21633" data-name="Trazado 21633" d="M199.458,711.428h21.475s27.9,4.326,24.394,59.373c-1.018,15.972-10.047,40.484-12.72,61.394,1.974,21.053-6.006,68.164-6.006,68.164l-10.22.165c-3.652-22.661-6.395-44.343-6.616-63.315l-10.3-62.009-.006.031Z" transform="translate(-149.189 -567.137)" fill="#962e09"/>
          <path id="Trazado_21634" data-name="Trazado 21634" d="M256.592,722.294c-6.9-9.622-14.907-10.866-14.907-10.866H201.777s-7.17,1.49-13.872,9.7A241.728,241.728,0,0,0,256.592,722.294Z" transform="translate(-169.94 -567.137)" fill="#832307"/>
          <path id="Trazado_21635" data-name="Trazado 21635" d="M249.838,712.739a39.523,39.523,0,0,1-21.964,5.811c-10.229-.3-21.447-.909-30.468-6.213a33.113,33.113,0,0,0-10.273,10.083c16.428,8.109,28.32,21.486,37.506,36.893,3.618-13.458,27.291-33.373,35.94-34.483A32.418,32.418,0,0,0,249.838,712.739Z" transform="translate(-171.329 -565.506)" fill="#ffd54f"/>
          <circle id="Elipse_542" data-name="Elipse 542" cx="5.219" cy="5.219" r="5.219" transform="translate(35.289 42.293)" fill="#431202"/>
          <path id="Trazado_21636" data-name="Trazado 21636" d="M202.312,678.6a5.219,5.219,0,1,1-5.221-5.218A5.219,5.219,0,0,1,202.312,678.6Z" transform="translate(-162.811 -635.477)" fill="#431202"/>
          <circle id="Elipse_543" data-name="Elipse 543" cx="6.254" cy="6.254" r="6.254" transform="translate(62.476 14.049)" fill="#431202"/>
          <path id="Trazado_21637" data-name="Trazado 21637" d="M216.446,673.765a5.493,5.493,0,1,1-5.492-5.494A5.494,5.494,0,0,1,216.446,673.765Z" transform="translate(-138.408 -644.659)" fill="#431202"/>
          <path id="Trazado_21638" data-name="Trazado 21638" d="M215.375,676.381a5.492,5.492,0,1,1-5.492-5.492A5.491,5.491,0,0,1,215.375,676.381Z" transform="translate(-140.328 -639.955)" fill="#431202"/>
          <path id="Trazado_21639" data-name="Trazado 21639" d="M191.806,684.139c.94,11.884,10.589,20.818,21.556,19.951s19.33-11.224,18.159-23.088c-1.272-12.866-9.423-18.408-20.292-16.719C199.3,666.137,190.866,672.255,191.806,684.139Z" transform="translate(-163.062 -652.352)" fill="#431202"/>
          <path id="Trazado_21640" data-name="Trazado 21640" d="M242.587,751.653c-.263-11.35-20.737-62.795-28.849-65.712,0,0-10.861,26.081-3.7,44.167s16.842,25.44,16.842,25.44C237.216,752.807,242.587,751.653,242.587,751.653Z" transform="translate(-134.573 -612.918)" fill="#962e09"/>
          <path id="Trazado_21641" data-name="Trazado 21641" d="M247.919,759.9a133.9,133.9,0,0,0,6.09-18.74s9.029-4.656,6.448-12.862a67.661,67.661,0,0,0-3.635-8.7,53.805,53.805,0,0,1-5.419-26.4c.056-1.021.1-1.6.1-1.6s-17.6-9.155-29-8.8c-13.83.428-35.932,9.507-35.932,9.507a122.794,122.794,0,0,0,3.241,27.624s9.507,27.49,14.37,39.969Z" transform="translate(-172.338 -618.578)" fill="#962e09"/>
          <path id="Trazado_21642" data-name="Trazado 21642" d="M260.457,724.783a67.661,67.661,0,0,0-3.635-8.7,53.8,53.8,0,0,1-5.419-26.4c.056-1.021.1-1.6.1-1.6s-2.972-1.546-7.265-3.342c-1.8,10.436-7.3,21.73-18.181,22.457-17.851,1.194-30.431-21.766-30.431-21.766-5.338,1.832-9.054,3.356-9.054,3.356a122.794,122.794,0,0,0,3.241,27.624s7.184,20.773,12.259,34.4c16.056.512,32.137.805,48.148-.358,2.271-6.515,3.789-12.818,3.789-12.818S263.038,732.99,260.457,724.783Z" transform="translate(-172.338 -615.064)" fill="#ffd54f"/>
          <path id="Trazado_21643" data-name="Trazado 21643" d="M207,688.7s-1.871-3.428-3.336-2.894a75.982,75.982,0,0,1-8.112,1.339s6.831.048,8.031.917S207.478,689.479,207,688.7Z" transform="translate(-156.21 -613.268)" fill="#792304"/>
          <path id="Trazado_21644" data-name="Trazado 21644" d="M200.948,688.885s1.311-3.68,2.841-3.384a65.879,65.879,0,0,0,6.907.288s-5.425.881-6.47,1.929S200.6,689.735,200.948,688.885Z" transform="translate(-146.571 -613.739)" fill="#792304"/>
          <g id="Grupo_6365" data-name="Grupo 6365" transform="translate(41.994 47.512)">
            <g id="Grupo_6364" data-name="Grupo 6364">
              <path id="Trazado_21645" data-name="Trazado 21645" d="M196.5,676.958l.646,23.9,15.667-1.237-1.64-22.806Z" transform="translate(-196.499 -676.818)" fill="#962e09"/>
            </g>
          </g>
          <path id="Trazado_21646" data-name="Trazado 21646" d="M210.474,676.817l-13.587.131a40.722,40.722,0,0,0,.7,5.374c4.454,9.888,9.194,11.912,14.171,12.32Z" transform="translate(-153.807 -629.306)" fill="#792304"/>
          <path id="Trazado_21647" data-name="Trazado 21647" d="M215.9,706.657h0c-7.623.235-20.021-8.78-20.253-16.4,0,0-1.641-11.621.394-15.293,3.54-6.37,18.774-7.438,24.878-6.549,9.348,1.359,8.168,18.626,8.168,18.626C230.208,701.229,219.233,706.556,215.9,706.657Z" transform="translate(-157.158 -644.891)" fill="#962e09"/>
          <path id="Trazado_21648" data-name="Trazado 21648" d="M193.376,678.935c.26,3.266,3.392,5.847,7.323,5.741l-.405-11.865C196.359,672.917,192.906,673.071,193.376,678.935Z" transform="translate(-160.191 -636.502)" fill="#962e09"/>
          <path id="Trazado_21649" data-name="Trazado 21649" d="M195.566,674.511a.438.438,0,0,0-.811-.24,2.6,2.6,0,0,0-.207,2.55c.652,1.482,1.927,2.908,2.477,2.268s-.048-.473-1.007-2.385A4.654,4.654,0,0,1,195.566,674.511Z" transform="translate(-158.439 -634.254)" fill="#792304"/>
          <path id="Trazado_21650" data-name="Trazado 21650" d="M198.535,669.622c5.567-2.232,26.528-3.216,26.528-3.216a30.827,30.827,0,0,1-12.01,12.583,37.421,37.421,0,0,1-8.212,3.392,7.874,7.874,0,0,0-5.6,6.364h0l-.173-.741a4.377,4.377,0,0,0-4.829-3.333l0,0a33.877,33.877,0,0,1,.467-9.2C195.288,672.851,196.418,670.469,198.535,669.622Z" transform="translate(-158.79 -648.007)" fill="#431202"/>
          <path id="Trazado_21651" data-name="Trazado 21651" d="M207.579,674.921c.076.953-.425,1.77-1.116,1.823s-1.311-.671-1.387-1.625" transform="translate(-139.097 -632.712)" fill="none" stroke="#28121e" stroke-miterlimit="10" stroke-width="0.595"/>
          <path id="Trazado_21652" data-name="Trazado 21652" d="M203.183,675.091c.073.953-.425,1.77-1.116,1.823s-1.314-.671-1.387-1.625" transform="translate(-146.994 -632.407)" fill="none" stroke="#28121e" stroke-miterlimit="10" stroke-width="0.595"/>
          <path id="Trazado_21653" data-name="Trazado 21653" d="M199.354,674.675s4.194-2.791,8.45-.668" transform="translate(-149.375 -635.785)" fill="none" stroke="#792304" stroke-miterlimit="10" stroke-width="0.679"/>
          <path id="Trazado_21654" data-name="Trazado 21654" d="M213.071,673.65a7.667,7.667,0,0,0-4.027-.775,5.818,5.818,0,0,0-5.377,7.2,5.939,5.939,0,0,0,.294.814c1.462,3.249,2.676,4.191.26,4.684" transform="translate(-141.992 -636.427)" fill="none" stroke="#792304" stroke-miterlimit="10" stroke-width="0.679"/>
          <path id="Trazado_21655" data-name="Trazado 21655" d="M195.888,686.054s10.433,23.08,7.8,48.867c-1.409,13.788-3.934,33.471-13.481,22.9C179.413,745.879,175.876,694.661,195.888,686.054Z" transform="translate(-181.48 -612.715)" fill="#962e09"/>
          <g id="Grupo_6366" data-name="Grupo 6366" transform="translate(27.253 112.427)">
            <path id="Trazado_21656" data-name="Trazado 21656" d="M207.02,712.25c-12.742,0-15.712-10.3-15.743-10.424a1.418,1.418,0,0,1,2.735-.75c.137.487,3.4,11.3,19.213,7.544a1.42,1.42,0,1,1,.654,2.763A29.832,29.832,0,0,1,207.02,712.25Z" transform="translate(-191.227 -700.033)" fill="#e8bc42"/>
          </g>
          <g id="Grupo_6367" data-name="Grupo 6367" transform="translate(63.567 120.151)">
            <path id="Trazado_21657" data-name="Trazado 21657" d="M214.916,708.312a18.766,18.766,0,0,1-10.1-2.942,1.419,1.419,0,0,1,1.633-2.321,15.976,15.976,0,0,0,15.279.886,1.419,1.419,0,1,1,1.186,2.578A18.942,18.942,0,0,1,214.916,708.312Z" transform="translate(-204.214 -702.795)" fill="#e8bc42"/>
          </g>
          <path id="Trazado_21658" data-name="Trazado 21658" d="M206.026,667.076a4.352,4.352,0,1,1-4.354-4.351A4.351,4.351,0,0,1,206.026,667.076Z" transform="translate(-153.027 -654.619)" fill="#431202"/>
          <path id="Trazado_21659" data-name="Trazado 21659" d="M205.158,668.225a5.254,5.254,0,1,1-5.254-5.254A5.255,5.255,0,0,1,205.158,668.225Z" transform="translate(-157.825 -654.177)" fill="#431202"/>
          <circle id="Elipse_544" data-name="Elipse 544" cx="7.021" cy="7.021" r="7.021" transform="translate(25.019 4.688)" fill="#431202"/>
          <circle id="Elipse_545" data-name="Elipse 545" cx="7.312" cy="7.312" r="7.312" transform="translate(20.254 13.616)" fill="#431202"/>
          <path id="Trazado_21660" data-name="Trazado 21660" d="M203.074,675.138a7.374,7.374,0,1,1-7.374-7.374A7.373,7.373,0,0,1,203.074,675.138Z" transform="translate(-169.182 -645.568)" fill="#431202"/>
          <path id="Trazado_21661" data-name="Trazado 21661" d="M202.356,676.916a6.244,6.244,0,1,1-6.244-6.244A6.243,6.243,0,0,1,202.356,676.916Z" transform="translate(-166.414 -640.344)" fill="#431202"/>
          <path id="Trazado_21662" data-name="Trazado 21662" d="M206.64,666.519a6.408,6.408,0,1,1-6.409-6.406A6.408,6.408,0,0,1,206.64,666.519Z" transform="translate(-159.307 -659.311)" fill="#431202"/>
          <circle id="Elipse_546" data-name="Elipse 546" cx="7.585" cy="7.585" r="7.585" transform="translate(42.685)" fill="#431202"/>
          <circle id="Elipse_547" data-name="Elipse 547" cx="8.724" cy="8.724" r="8.724" transform="translate(51.739 4.105)" fill="#431202"/>
          <path id="Trazado_21663" data-name="Trazado 21663" d="M209.764,670.333a3.55,3.55,0,1,1-3.548-3.548A3.548,3.548,0,0,1,209.764,670.333Z" transform="translate(-143.43 -647.326)" fill="#431202"/>
          <path id="Trazado_21664" data-name="Trazado 21664" d="M209.711,672.441a4.854,4.854,0,1,1-4.854-4.854A4.855,4.855,0,0,1,209.711,672.441Z" transform="translate(-148.211 -645.886)" fill="#431202"/>
          <path id="Trazado_21665" data-name="Trazado 21665" d="M207.386,673.257a4.853,4.853,0,1,1-4.851-4.854A4.855,4.855,0,0,1,207.386,673.257Z" transform="translate(-152.382 -644.42)" fill="#431202"/>
          <path id="Trazado_21666" data-name="Trazado 21666" d="M201.281,678.66a3.869,3.869,0,1,0,7.737,0Z" transform="translate(-145.914 -625.996)" fill="#fff"/>
          <g id="Grupo_6368" data-name="Grupo 6368" transform="translate(60.462 131.53)">
            <path id="Trazado_21667" data-name="Trazado 21667" d="M219.425,723.392l-2.041-.6-14.28-3.786,1.524-8.33,6-.783s10.992-3.286,11.479-3.014l4.572,1.51a.828.828,0,0,1-.117,1.5,2.97,2.97,0,0,1-2.522.24l-.984-.313-2.7.878,6.84.649,3.023.741a3.586,3.586,0,0,1,1.907,1.294,1.293,1.293,0,0,1,.137.61.643.643,0,0,1-.383.428,3.684,3.684,0,0,1-2.34.146l-2.7-.665-4.586-.478c-1.2.056-.394.414-.109.453l5.346.749,4.046,1.113a3.551,3.551,0,0,1,1.9,1.292l.034.045a.637.637,0,0,1,.106.565.645.645,0,0,1-.386.431l-.05.02a3.585,3.585,0,0,1-2.287.123l-3.722-1.037-6.384-.389c-1.135.09-.562.531-.05.573l4.124.346,4.1.884a3.584,3.584,0,0,1,1.971,1.186l.036.042a.652.652,0,0,1-.224,1.01l-.048.022a3.594,3.594,0,0,1-2.279.251l-3.772-.828-5.142-.2a.17.17,0,0,0-.089.319l.506.282,4.077.9,3-.17a1.8,1.8,0,0,1,1.787,1.364.554.554,0,0,1-.537.724l-4.06.458Z" transform="translate(-203.103 -706.864)" fill="#962e09"/>
          </g>
          <path id="Trazado_21668" data-name="Trazado 21668" d="M244.816,712.409s-39.885-6.6-47.687-6.152c-15.8.9-17.3,14.971-5.3,19.428,8.157,3.028,13.1,1.2,13.1,1.2l34.427-5.251c2,.042,5.791-.4,5.791-.4S246.989,718.564,244.816,712.409Z" transform="translate(-177.14 -576.463)" fill="#962e09"/>
        </g>
      </g>
      <g id="Grupo_6392" data-name="Grupo 6392" transform="translate(891.271 660.274)">
        <ellipse id="Elipse_548" data-name="Elipse 548" cx="63.905" cy="171.958" rx="63.905" ry="171.958" transform="translate(11.938)" fill="#f8f3ff"/>
        <g id="Grupo_6391" data-name="Grupo 6391" transform="translate(0 6.422)">
          <g id="Grupo_6374" data-name="Grupo 6374" transform="translate(105.325 125.447)">
            <g id="Grupo_6373" data-name="Grupo 6373" transform="translate(7.385 36.793)">
              <path id="Trazado_21669" data-name="Trazado 21669" d="M479.026,738.6l-3.4,2.3h0a3.546,3.546,0,0,1,1.309-4.463l3.037-1.949.875-1.342,1.256,3.828Z" transform="translate(-470.184 -696.589)" fill="#ffa181"/>
              <g id="Grupo_6371" data-name="Grupo 6371" transform="translate(0 26.578)">
                <path id="Trazado_21670" data-name="Trazado 21670" d="M486.34,733.8l-6.283,4.007-6.373-.6s.523-2.354,1.991-2.271a26.178,26.178,0,0,0,4.418-.464l4.049-3.7Z" transform="translate(-473.091 -727.441)" fill="#ff7e46"/>
                <path id="Trazado_21671" data-name="Trazado 21671" d="M484.49,731.554l-5.4,3.437-5.209-1.144s.668-1.9,1.876-1.678a21.719,21.719,0,0,0,3.7.062l3.725-2.651Z" transform="translate(-472.737 -729.58)" fill="#ff7e46"/>
                <path id="Trazado_21672" data-name="Trazado 21672" d="M486.2,732.382l-6.479,4.124-6.25-1.37s.8-2.276,2.248-2.013a26.194,26.194,0,0,0,4.44.073l4.468-3.182Z" transform="translate(-473.472 -728.801)" fill="#ff7e46"/>
              </g>
              <g id="Grupo_6372" data-name="Grupo 6372" transform="translate(0.677)">
                <path id="Trazado_21673" data-name="Trazado 21673" d="M476.214,746.1c.338,1.683,1.588,4.365,1.479,6.082-.193,3.059-.313,7.31,1.309,7.466,2.223.213,2.139-7.111,2.189-7.419a1.587,1.587,0,0,1,1.753-1.328h0a.929.929,0,0,1,.808.755l.232,3.243-.285,1.737,1.256,3.828s2.505-2.8,2.679-3.82c.495-2.88,2.033-6.982,1.018-9.074-.467-.956-5.584-9.2-5.584-9.2l-2.816-14.753a4.357,4.357,0,0,0-6.538-2.908h0l1.748,14.437a9.05,9.05,0,0,1,.537,4.572A18.834,18.834,0,0,0,476.214,746.1Z" transform="translate(-473.714 -720.075)" fill="#ffa181"/>
                <path id="Trazado_21674" data-name="Trazado 21674" d="M476.392,734.3a1.587,1.587,0,0,1,1.753-1.328.928.928,0,0,1,.808.755l.232,3.244s1.225-8.182-1.549-6.745C476.552,730.788,476.342,734.608,476.392,734.3Z" transform="translate(-468.915 -702.146)" fill="#ff7e46"/>
              </g>
            </g>
            <path id="Trazado_21675" data-name="Trazado 21675" d="M481.233,761.354l-10.4-46.8,7.944-7.637,4.122,4.091c4.354,4.32,6.211,10.265,6.507,16.391.565,11.657-1.158,34.606-1.158,34.606Z" transform="translate(-470.831 -706.917)" fill="#ffa181"/>
          </g>
          <g id="Grupo_6375" data-name="Grupo 6375" transform="translate(39.126 298.815)">
            <path id="Trazado_21676" data-name="Trazado 21676" d="M469.161,776.953s-4,22.431-4,29.841,3.2,11.218,2,13.019-3.006,1.6-3.406,5.609-4.407,7.211-10.816,7.211-6.146-5.056-5.408-7.01c.361-.956,6.409-8.011,8.212-14.02s-1.2-36.656-1.2-36.656S467.76,760.128,469.161,776.953Z" transform="translate(-447.157 -768.917)" fill="#ffa181"/>
          </g>
          <g id="Grupo_6376" data-name="Grupo 6376" transform="translate(90.091 298.76)">
            <path id="Trazado_21677" data-name="Trazado 21677" d="M479.772,776.6s-3.828,27.216-1.929,32.067c3.4,8.7,15.832,12.684,15.832,12.684s6.152.979,6.655,1.935-.156,3.244-4.482,3.893c-2.181.327-4.533.567-6.331.73a9.868,9.868,0,0,1-5.257-1.021,30.625,30.625,0,0,0-14.353-3.283s-4.493-.543-2.382-7.418-2.142-32.453-2.142-32.453S476.21,755.79,479.772,776.6Z" transform="translate(-465.383 -768.898)" fill="#ffa181"/>
          </g>
          <path id="Trazado_21678" data-name="Trazado 21678" d="M434.159,715.246s32.006,34.919,37.827,32.979,3.2-8.973-.243-13.095c-1.876-2.248-11.613-17.681-19.616-29.562S429.249,709.346,434.159,715.246Z" transform="translate(-433.125 -591.684)" fill="#ff947a"/>
          <path id="Trazado_21679" data-name="Trazado 21679" d="M445.288,723.359l.126-.131a1.683,1.683,0,0,0-.126-2.444h0l.677-2.114h0a1.708,1.708,0,0,0,.123-2.223l-.33-.428,4.751-3.811,3.3.682s1.138,10.159-3.241,12.331S445.288,723.359,445.288,723.359Z" transform="translate(-411.388 -571.966)" fill="#ffa181"/>
          <path id="Trazado_21680" data-name="Trazado 21680" d="M451.772,684.324c.917,11.61,10.346,20.337,21.061,19.493s18.886-10.967,17.739-22.557c-1.242-12.572-9.205-17.983-19.825-16.336C459.09,666.736,450.855,672.712,451.772,684.324Z" transform="translate(-399.866 -657.416)" fill="#ff5953"/>
          <path id="Trazado_21681" data-name="Trazado 21681" d="M510.671,703.282a15.77,15.77,0,0,1-2.95-13.4,27.152,27.152,0,0,0,.716-8.023c-1.026-17.82-9.2-20.429-18.5-19.694a14.613,14.613,0,0,0-9.314,4.522,9.1,9.1,0,0,1-4.547,2.5A15.364,15.364,0,0,0,464.284,686.1a10.674,10.674,0,0,1-2.749,8.755,22.25,22.25,0,0,0-6.149,14.1,11.124,11.124,0,0,1-4.933,8.478,22.3,22.3,0,1,0,32.115,29.12,14.018,14.018,0,0,1,11.5-7.452c.193-.011.386-.022.582-.039C513.327,737.594,520.667,716.256,510.671,703.282Z" transform="translate(-419.649 -662.054)" fill="#ff5953"/>
          <path id="Trazado_21682" data-name="Trazado 21682" d="M490.961,756.188c-5.388-50.612-16.73-67.73-21.95-71.86,0,0-2.276,25.435-1.068,44.4.719,11.244,7.486,29.892,12.594,28.536C490.636,754.589,490.961,756.188,490.961,756.188Z" transform="translate(-371.33 -622.045)" fill="#ffa181"/>
          <path id="Trazado_21683" data-name="Trazado 21683" d="M499.333,787.138S510.071,741.976,509.8,724.7c-.1-6.613-3.314-35.638-3.314-35.638s-14.644-7.7-25.781-7.351c-13.511.417-31.83,8.014-31.83,8.014s-3.121,9.834-1.843,19.459c1.991,14.988,8.856,32.764,10.167,37.506C471.32,797.758,485.3,795.342,499.333,787.138Z" transform="translate(-408.806 -626.775)" fill="#ffa181"/>
          <path id="Trazado_21684" data-name="Trazado 21684" d="M505.446,713.065c-4.955-8.146-6.658-18.025-5.657-27.649-1.42-.646-3.283-1.44-5.391-2.237a86.187,86.187,0,0,1-2.226,16.21c-1.135,4.5-2.757,10.55-7.849,11.962-5.682,1.58-12.225-3.185-15.172-7.315-4.628-6.49-10.612-21.117-10.612-21.117-2.905.842-5.562,1.72-7.723,2.48,2.472,4.569,6.129,19.389,5.142,29.6-.556,5.772-2.939,11.381-7.175,14.924,2.089,6.75,4.077,12.234,4.72,14.566.232.839.464,1.661.7,2.475,4.614-1.152,38.546-5.962,49.781-3.473a47.046,47.046,0,0,1,1.177-5.352s2.564-2.444,3.012-3.881c1.485-4.768.039-5.853,0-8.408C508.139,724.035,505.812,717.184,505.446,713.065Z" transform="translate(-405.11 -624.576)" fill="#7b1fa2"/>
          <path id="Trazado_21685" data-name="Trazado 21685" d="M507.908,710.958H466.127s-23.88-.464-21.2,62.733c.68,15.989,6.848,37.123,9.518,58.036-1.974,21.05,6.009,68.164,6.009,68.164l10.217.162c3.652-22.658,6.4-44.343,6.616-63.315l10.3-62.009,12.5,64.266c-1.706,14.943.26,36.337,4.1,61.02h10.564l8.934-65.345C531.48,764.361,523.078,719.011,507.908,710.958Z" transform="translate(-412.406 -574.211)" fill="#ffa181"/>
          <path id="Trazado_21686" data-name="Trazado 21686" d="M486.692,760.211c12.39-14.826,35.744-16.881,35.744-16.881-3.227-17.577-8.671-28.754-15.491-32.372-10.273,6.395-23.69,7.292-41.781,0,0,0-15.047-.288-19.906,31.206C458.964,740.265,483.328,752.289,486.692,760.211Z" transform="translate(-411.443 -574.211)" fill="#7b1fa2"/>
          <path id="Trazado_21687" data-name="Trazado 21687" d="M466.279,687.466s-1.829-3.35-3.26-2.827a74.527,74.527,0,0,1-7.925,1.309s6.675.047,7.846.9S466.749,688.233,466.279,687.466Z" transform="translate(-393.774 -621.585)" fill="#ff7454"/>
          <path id="Trazado_21688" data-name="Trazado 21688" d="M460.37,687.65s1.278-3.6,2.774-3.305a64.014,64.014,0,0,0,6.747.282s-5.3.861-6.322,1.885S460.026,688.48,460.37,687.65Z" transform="translate(-384.355 -622.045)" fill="#ff7454"/>
          <g id="Grupo_6378" data-name="Grupo 6378" transform="translate(63.914 38.608)">
            <g id="Grupo_6377" data-name="Grupo 6377">
              <path id="Trazado_21689" data-name="Trazado 21689" d="M456.022,676l.631,23.353,15.306-1.209-1.6-22.281Z" transform="translate(-456.022 -675.861)" fill="#ffa181"/>
            </g>
          </g>
          <path id="Trazado_21690" data-name="Trazado 21690" d="M474.979,705.013h0c-7.449.229-19.562-8.576-19.789-16.025,0,0-1.605-11.353.386-14.94,3.456-6.225,18.343-7.267,24.3-6.4,9.132,1.328,7.98,18.2,7.98,18.2C488.957,699.712,478.233,704.916,474.979,705.013Z" transform="translate(-394.7 -652.481)" fill="#ff8f68"/>
          <path id="Trazado_21691" data-name="Trazado 21691" d="M470.277,675.861,456.067,676a6.379,6.379,0,0,0,2.282,4.449c.375,7.158,7.743,12.328,13.142,12.328Z" transform="translate(-392.026 -637.254)" fill="#ff7454"/>
          <path id="Trazado_21692" data-name="Trazado 21692" d="M474.979,705.013h0c-7.449.229-19.562-8.576-19.789-16.025,0,0-1.605-11.353.386-14.94,3.456-6.225,18.343-7.267,24.3-6.4,9.132,1.328,7.98,18.2,7.98,18.2C488.957,699.712,478.233,704.916,474.979,705.013Z" transform="translate(-394.7 -652.481)" fill="#ffa181"/>
          <path id="Trazado_21693" data-name="Trazado 21693" d="M452.97,677.928c.257,3.193,3.313,5.713,7.156,5.609l-.4-11.59C455.886,672.05,452.514,672.2,452.97,677.928Z" transform="translate(-397.664 -644.284)" fill="#ffa181"/>
          <path id="Trazado_21694" data-name="Trazado 21694" d="M455.111,673.607a.428.428,0,0,0-.791-.235,2.537,2.537,0,0,0-.2,2.492c.635,1.448,1.882,2.841,2.419,2.218s-.045-.464-.981-2.329A4.557,4.557,0,0,1,455.111,673.607Z" transform="translate(-395.952 -642.088)" fill="#ff7454"/>
          <path id="Trazado_21695" data-name="Trazado 21695" d="M458.012,668.829c5.439-2.178,25.918-3.14,25.918-3.14a30.126,30.126,0,0,1-11.736,12.295,36.6,36.6,0,0,1-8.022,3.314,7.7,7.7,0,0,0-5.472,6.219h0l-.168-.727a4.276,4.276,0,0,0-4.717-3.255h0S452.573,671.007,458.012,668.829Z" transform="translate(-396.295 -655.525)" fill="#ff5953"/>
          <g id="Grupo_6379" data-name="Grupo 6379" transform="translate(72.92 32.026)">
            <path id="Trazado_21696" data-name="Trazado 21696" d="M459.253,676.241a2.939,2.939,0,0,1,.389-1.748,1.955,1.955,0,0,1,1.51-.979,1.9,1.9,0,0,1,1.384.47,2.8,2.8,0,0,1,.917,1.924l-1.756.14a1.076,1.076,0,0,0-.307-.724l-.243.087a1.184,1.184,0,0,0-.137.691Z" transform="translate(-459.242 -673.507)" fill="#28121e"/>
          </g>
          <g id="Grupo_6380" data-name="Grupo 6380" transform="translate(87.341 31.838)">
            <path id="Trazado_21697" data-name="Trazado 21697" d="M466.85,675.031c.076.928-.414,1.725-1.088,1.779s-1.283-.657-1.356-1.586.414-1.728,1.091-1.781S466.778,674.1,466.85,675.031Z" transform="translate(-464.399 -673.44)" fill="#28121e"/>
          </g>
          <g id="Grupo_6381" data-name="Grupo 6381" transform="translate(71.23 27.875)">
            <path id="Trazado_21698" data-name="Trazado 21698" d="M459.606,675.057l-.967-1.454c.185-.123,4.566-2.978,9.13-.7l-.777,1.563C463.322,672.63,459.645,675.035,459.606,675.057Z" transform="translate(-458.638 -672.023)" fill="#ff7454"/>
          </g>
          <g id="Grupo_6382" data-name="Grupo 6382" transform="translate(82.077 26.904)">
            <path id="Trazado_21699" data-name="Trazado 21699" d="M464.3,685.826l-.347-1.708a1.864,1.864,0,0,0,.71-.229c-.062-.07-.408-.741-.713-1.334-.254-.506-.559-1.1-.875-1.8a6.461,6.461,0,0,1-.33-.917,6.228,6.228,0,0,1,.928-5.268,6.814,6.814,0,0,1,5.1-2.869,8.331,8.331,0,0,1,4.384.847l-.777,1.56a6.619,6.619,0,0,0-3.481-.665,5.077,5.077,0,0,0-3.8,2.131,4.437,4.437,0,0,0-.674,3.8,4.6,4.6,0,0,0,.243.671c.3.668.59,1.236.836,1.717.654,1.278,1.085,2.12.685,2.95A2.449,2.449,0,0,1,464.3,685.826Z" transform="translate(-462.517 -671.676)" fill="#ff7454"/>
          </g>
          <g id="Grupo_6383" data-name="Grupo 6383" transform="translate(79.896 44.222)">
            <path id="Trazado_21700" data-name="Trazado 21700" d="M464.3,680.732a5.173,5.173,0,0,1-2.561-.668l.892-1.5a3.328,3.328,0,0,0,4.133-.7l1.261,1.208A5.057,5.057,0,0,1,464.3,680.732Z" transform="translate(-461.737 -677.869)" fill="#ff7454"/>
          </g>
          <path id="Trazado_21701" data-name="Trazado 21701" d="M459.42,676.212a.543.543,0,0,1-1.082.087.543.543,0,0,1,1.082-.087Z" transform="translate(-387.949 -637.52)" fill="#ff7454"/>
          <path id="Trazado_21702" data-name="Trazado 21702" d="M459.919,676.492a.234.234,0,1,1-.252-.215A.236.236,0,0,1,459.919,676.492Z" transform="translate(-385.946 -636.509)" fill="#ff7454"/>
          <path id="Trazado_21703" data-name="Trazado 21703" d="M459.226,677.236a.477.477,0,1,1-.512-.436A.477.477,0,0,1,459.226,677.236Z" transform="translate(-388.063 -635.57)" fill="#ff7454"/>
          <path id="Trazado_21704" data-name="Trazado 21704" d="M457.989,676.389a.264.264,0,1,1-.285-.243A.266.266,0,0,1,457.989,676.389Z" transform="translate(-389.519 -636.744)" fill="#ff7454"/>
          <path id="Trazado_21705" data-name="Trazado 21705" d="M460.165,677.583a.4.4,0,1,1-.431-.366A.4.4,0,0,1,460.165,677.583Z" transform="translate(-386.099 -634.82)" fill="#ff7454"/>
          <path id="Trazado_21706" data-name="Trazado 21706" d="M461.049,676.083a.356.356,0,1,1-.383-.327A.357.357,0,0,1,461.049,676.083Z" transform="translate(-384.355 -637.445)" fill="#ff7454"/>
          <path id="Trazado_21707" data-name="Trazado 21707" d="M460.408,677.191a.619.619,0,1,1,.665.57A.618.618,0,0,1,460.408,677.191Z" transform="translate(-384.232 -636.064)" fill="#ff7454"/>
          <path id="Trazado_21708" data-name="Trazado 21708" d="M465.638,675.791a.474.474,0,1,1-.509-.436A.473.473,0,0,1,465.638,675.791Z" transform="translate(-376.535 -638.165)" fill="#ff7454"/>
          <path id="Trazado_21709" data-name="Trazado 21709" d="M465.273,677.124a.661.661,0,1,1,.71.607A.661.661,0,0,1,465.273,677.124Z" transform="translate(-375.493 -636.265)" fill="#ff7454"/>
          <path id="Trazado_21710" data-name="Trazado 21710" d="M466.552,675.933a.386.386,0,1,1-.414-.352A.385.385,0,0,1,466.552,675.933Z" transform="translate(-374.576 -637.759)" fill="#ff7454"/>
          <path id="Trazado_21711" data-name="Trazado 21711" d="M456.753,688.514s14.308-6.535,30.51-4.253c0,0,2.788-13.078-5.69-18.45C476.092,662.339,451.84,664.621,456.753,688.514Z" transform="translate(-391.966 -657.622)" fill="#ff5953"/>
          <path id="Trazado_21712" data-name="Trazado 21712" d="M473.152,684.658s-5.925,2.03-18.813,24.2c-14.9,25.642-22.149,27.685-21.07,33.893s14.034,5.939,22.736-2.419c5.646-5.424,21.472-18.715,23.9-27.713S476.67,684.837,473.152,684.658Z" transform="translate(-433.164 -621.452)" fill="#ffa181"/>
          <g id="Grupo_6389" data-name="Grupo 6389" transform="translate(44.193 87.454)">
            <g id="Grupo_6384" data-name="Grupo 6384" transform="translate(2.28 13.591)">
              <path id="Trazado_21713" data-name="Trazado 21713" d="M455.535,718.723a1.052,1.052,0,0,1-1.015-.788l-4.7-18.435a1.049,1.049,0,0,1,2.033-.52l4.7,18.435a1.044,1.044,0,0,1-.755,1.275A1.055,1.055,0,0,1,455.535,718.723Z" transform="translate(-449.784 -698.19)" fill="#621989"/>
            </g>
            <g id="Grupo_6385" data-name="Grupo 6385" transform="translate(54.364)">
              <path id="Trazado_21714" data-name="Trazado 21714" d="M469.46,720.966a1.051,1.051,0,0,1-.584-1.924c.226-.151,5.486-3.769,3.241-10.9a114.274,114.274,0,0,1-3.039-13.578,1.049,1.049,0,1,1,2.066-.364,112.826,112.826,0,0,0,2.975,13.313,11.681,11.681,0,0,1-4.085,13.282A1.036,1.036,0,0,1,469.46,720.966Z" transform="translate(-468.411 -693.33)" fill="#621989"/>
            </g>
            <g id="Grupo_6386" data-name="Grupo 6386" transform="translate(11.069 22.076)">
              <path id="Trazado_21715" data-name="Trazado 21715" d="M465.229,706.76a22.9,22.9,0,0,1-11.859-3.629,1.049,1.049,0,1,1,1.211-1.714c.425.3,10.536,7.245,20.018.022a1.049,1.049,0,1,1,1.269,1.669A17.207,17.207,0,0,1,465.229,706.76Z" transform="translate(-452.928 -701.225)" fill="#621989"/>
            </g>
            <g id="Grupo_6387" data-name="Grupo 6387" transform="translate(30.004 59.686)">
              <path id="Trazado_21716" data-name="Trazado 21716" d="M460.75,754.584a1.064,1.064,0,0,1-.249-.028,1.052,1.052,0,0,1-.772-1.27,148.669,148.669,0,0,0,3.146-37.517,1.045,1.045,0,0,1,1-1.093,1.078,1.078,0,0,1,1.093,1,150.949,150.949,0,0,1-3.2,38.107A1.047,1.047,0,0,1,460.75,754.584Z" transform="translate(-459.699 -714.675)" fill="#621989"/>
            </g>
            <g id="Grupo_6388" data-name="Grupo 6388" transform="translate(0 52.348)">
              <path id="Trazado_21717" data-name="Trazado 21717" d="M482.088,721.545c-8.3,0-19.009-1.876-32.473-7.477a1.049,1.049,0,0,1,.805-1.938c38.5,16.017,53.777.414,53.925.254a1.049,1.049,0,0,1,1.535,1.429C505.453,714.275,498.426,721.545,482.088,721.545Z" transform="translate(-448.969 -712.05)" fill="#621989"/>
            </g>
          </g>
          <g id="Grupo_6390" data-name="Grupo 6390" transform="translate(33.703 138.609)">
            <path id="Trazado_21718" data-name="Trazado 21718" d="M455.571,711.624l-8.034.59a1.628,1.628,0,0,0-1.546,1.6c.031.886.526,1.966,1.415,1.907l7.379-.434,3.962,1.278a3.1,3.1,0,0,0,4.133-1.468h0Z" transform="translate(-443.829 -711.624)" fill="#ffa181"/>
            <path id="Trazado_21719" data-name="Trazado 21719" d="M456.81,714.871l-9.448-2.268c-.884-.31-1.722.805-1.893,1.773-.134.76.316,2.29,1.046,2.544l7.519.97,5.439,3.1a4.052,4.052,0,0,0,4.39-1.046Z" transform="translate(-444.81 -709.961)" fill="#ffa181"/>
            <path id="Trazado_21720" data-name="Trazado 21720" d="M454.933,715.433l-7.555-1.208c-.917-.076-2.251,1.392-2.153,2.371a1.623,1.623,0,0,0,1.546,1.4l7.069.475,3.725,2.7a3.1,3.1,0,0,0,4.329-.694h0Z" transform="translate(-445.215 -706.957)" fill="#ffa181"/>
            <path id="Trazado_21721" data-name="Trazado 21721" d="M452.011,716.519l-5.058-.6a1.557,1.557,0,0,0-1.734,1.613A1.618,1.618,0,0,0,446.676,719l4.407.526,2.684,1.4a3.1,3.1,0,0,0,4.18-1.32h0Z" transform="translate(-445.218 -703.936)" fill="#ffa181"/>
          </g>
        </g>
      </g>
      <g id="Grupo_6405" data-name="Grupo 6405" transform="translate(719.067 665.965)">
        <ellipse id="Elipse_549" data-name="Elipse 549" cx="63.905" cy="171.958" rx="63.905" ry="171.958" fill="#f8f3ff"/>
        <g id="Grupo_6404" data-name="Grupo 6404" transform="translate(13.394 6.314)">
          <path id="Trazado_21722" data-name="Trazado 21722" d="M429.779,708.124H386.267v-31.3l43.512-9.06Z" transform="translate(-358.593 -657.376)" fill="#aa4f20"/>
          <path id="Trazado_21723" data-name="Trazado 21723" d="M397.06,727.053c8.607-6.1-10.816-30.985-10.816-30.985" transform="translate(-358.634 -606.54)" fill="#007e75"/>
          <g id="Grupo_6393" data-name="Grupo 6393" transform="translate(17.912 292.637)">
            <path id="Trazado_21724" data-name="Trazado 21724" d="M404.57,776.748s-4.01,22.454-4.01,29.872,3.207,11.227,2,13.031-3.009,1.6-3.409,5.615-4.413,7.217-10.827,7.217-5.612-6.015-5.413-7.016,6.417-8.02,8.221-14.034-1.2-36.689-1.2-36.689S403.166,759.906,404.57,776.748Z" transform="translate(-382.776 -768.705)" fill="#ff926d"/>
          </g>
          <g id="Grupo_6394" data-name="Grupo 6394" transform="translate(72.182 292.584)">
            <path id="Trazado_21725" data-name="Trazado 21725" d="M416.59,776.4s-3.848,27.249-1.932,32.1,15.846,12.7,15.846,12.7,6.16.979,6.661,1.935-.154,3.246-4.485,3.895-9.345.967-9.345.967a31.059,31.059,0,0,0-16.621-4.541s-4.5-.545-2.382-7.427-2.148-32.484-2.148-32.484S413.022,755.567,416.59,776.4Z" transform="translate(-402.184 -768.686)" fill="#ff926d"/>
          </g>
          <path id="Trazado_21726" data-name="Trazado 21726" d="M386.351,685.977c1.026,13.016,10.961,22.845,22.188,21.959S428.272,695.761,427,682.767c-1.373-14.09-9.75-20.2-20.874-18.413C393.92,666.317,385.322,672.963,386.351,685.977Z" transform="translate(-358.593 -664.051)" fill="#aa4f20"/>
          <path id="Trazado_21727" data-name="Trazado 21727" d="M430.19,746.738c-.246-10.606-15.374-58.2-22.954-60.919,0,0-10.147,24.369-3.462,41.27s10.852,25.068,15.74,23.774C429.172,748.3,430.19,746.738,430.19,746.738Z" transform="translate(-331.242 -624.949)" fill="#ffa181"/>
          <path id="Trazado_21728" data-name="Trazado 21728" d="M433.241,783.719S443.509,740.526,443.249,724c-.1-6.325-.727-32.89-.727-32.89s-16.445-8.553-27.1-8.224c-12.921.4-33.574,8.884-33.574,8.884s9.037,45.816,11.1,53.26C406.45,793.875,419.819,791.565,433.241,783.719Z" transform="translate(-366.529 -630.238)" fill="#ff926d"/>
          <path id="Trazado_21729" data-name="Trazado 21729" d="M442.522,687.775s-2.693-1.4-6.6-3.045c-1.227,5.721-2.645,11.448-5.111,16.557-2.587,5.349-8.185,6.912-13.992,6.884-13.095-.07-25.382-23.253-25.382-23.253-5.581,1.873-9.583,3.518-9.583,3.518l3.515,80.554c13.506,48.847,34.455,19.244,47.877,11.4,0,0,10.268-43.193,10.008-59.722C443.151,714.339,442.522,687.775,442.522,687.775Z" transform="translate(-366.529 -626.906)" fill="#ba68c8"/>
          <path id="Trazado_21730" data-name="Trazado 21730" d="M400.936,688.394s-1.75-3.2-3.118-2.7a71.291,71.291,0,0,1-7.581,1.253s6.384.042,7.505.855S401.384,689.127,400.936,688.394Z" transform="translate(-351.46 -625.276)" fill="#ff7454"/>
          <path id="Trazado_21731" data-name="Trazado 21731" d="M395.284,688.568s1.225-3.439,2.654-3.16a61.536,61.536,0,0,0,6.454.268s-5.07.825-6.048,1.8S394.954,689.362,395.284,688.568Z" transform="translate(-342.452 -625.716)" fill="#ff7454"/>
          <path id="Trazado_21732" data-name="Trazado 21732" d="M383.176,809.653l13.816,91.266,10.835.173,18.329-137.463L436.3,831.4c.207,26.651,4.231,48.081,8.151,69.657h10.908s10.5-62.946,11.775-84.024c1.035-17.074-.218-77.251-10.922-97.3l.64-9.289c-8.842,12.413-36.74,9.289-57.98-2.489l-.19,8.663s-21.075,13.064-18.942,59.73C380.369,790.068,382.7,800.7,383.176,809.653Z" transform="translate(-370.585 -585.181)" fill="#ff926d"/>
          <path id="Trazado_21733" data-name="Trazado 21733" d="M427.556,768.271c8.073-3.789,17.737-5.464,26.472-6.982,3.836-.665,7.687-1.2,11.549-1.636-1.608-18.34-3.1-39.573-5.453-46.328L390.9,711.192s-9,9.955-11.221,44.969c15.684.738,30.686,5.517,44.919,12.1l1.393-10.438Z" transform="translate(-370.421 -579.374)" fill="#ba68c8"/>
          <g id="Grupo_6396" data-name="Grupo 6396" transform="translate(41.26 37.032)">
            <g id="Grupo_6395" data-name="Grupo 6395">
              <path id="Trazado_21734" data-name="Trazado 21734" d="M391.125,677.425l.6,22.335,14.639-1.156-1.532-21.31Z" transform="translate(-391.125 -677.294)" fill="#ff926d"/>
            </g>
          </g>
          <path id="Trazado_21735" data-name="Trazado 21735" d="M410.7,707.372h0c-7.8.241-20.494-8.987-20.734-16.791,0,0-1.681-11.9.408-15.653,3.621-6.524,19.216-7.614,25.463-6.705,9.569,1.393,8.363,19.068,8.363,19.068C425.348,701.816,414.115,707.265,410.7,707.372Z" transform="translate(-353.096 -657.058)" fill="#ff8f68"/>
          <path id="Trazado_21736" data-name="Trazado 21736" d="M404.186,677.294l-12.7.123a38.134,38.134,0,0,0,.652,5.022c4.161,9.236,8.59,11.129,13.243,11.51Z" transform="translate(-349.215 -640.262)" fill="#ff7454"/>
          <path id="Trazado_21737" data-name="Trazado 21737" d="M410.7,707.372h0c-7.8.241-20.494-8.987-20.734-16.791,0,0-1.681-11.9.408-15.653,3.621-6.524,19.216-7.614,25.463-6.705,9.569,1.393,8.363,19.068,8.363,19.068C425.348,701.816,414.115,707.265,410.7,707.372Z" transform="translate(-353.096 -657.058)" fill="#ff8f68"/>
          <path id="Trazado_21738" data-name="Trazado 21738" d="M387.643,678.991c.266,3.344,3.47,5.984,7.5,5.875l-.417-12.141C390.7,672.834,387.162,672.991,387.643,678.991Z" transform="translate(-356.2 -648.469)" fill="#ff926d"/>
          <path id="Trazado_21739" data-name="Trazado 21739" d="M389.885,674.465a.449.449,0,0,0-.831-.246,2.665,2.665,0,0,0-.21,2.609c.666,1.518,1.971,2.978,2.536,2.324s-.05-.487-1.032-2.441A4.786,4.786,0,0,1,389.885,674.465Z" transform="translate(-354.406 -646.168)" fill="#ff7454"/>
          <path id="Trazado_21740" data-name="Trazado 21740" d="M392.923,669.459c5.7-2.282,27.157-3.291,27.157-3.291a31.566,31.566,0,0,1-12.3,12.882,38.232,38.232,0,0,1-8.408,3.47,8.066,8.066,0,0,0-5.729,6.515h0l-.179-.761a4.477,4.477,0,0,0-4.941-3.409h0S387.227,671.741,392.923,669.459Z" transform="translate(-354.766 -660.247)" fill="#aa4f20"/>
          <path id="Trazado_21741" data-name="Trazado 21741" d="M402.186,675.956c.078.973-.433,1.809-1.141,1.865s-1.342-.688-1.42-1.664.436-1.809,1.144-1.865S402.111,674.98,402.186,675.956Z" transform="translate(-334.613 -645.66)" fill="#28121e"/>
          <path id="Trazado_21742" data-name="Trazado 21742" d="M397.686,676.13c.075.973-.433,1.809-1.141,1.865s-1.345-.688-1.42-1.664.433-1.809,1.141-1.865S397.608,675.154,397.686,676.13Z" transform="translate(-342.696 -645.348)" fill="#28121e"/>
          <path id="Trazado_21743" data-name="Trazado 21743" d="M393.763,674.631s4.292-2.855,8.649-.682" transform="translate(-345.128 -647.736)" fill="none" stroke="#ff7454" stroke-miterlimit="10" stroke-width="0.695"/>
          <path id="Trazado_21744" data-name="Trazado 21744" d="M407.806,673.582a7.847,7.847,0,0,0-4.122-.791,5.955,5.955,0,0,0-5.506,7.368,5.82,5.82,0,0,0,.3.83c1.493,3.328,2.737,4.292.266,4.8" transform="translate(-337.57 -648.393)" fill="none" stroke="#ff7454" stroke-miterlimit="10" stroke-width="0.695"/>
          <path id="Trazado_21745" data-name="Trazado 21745" d="M397,680.039a4.458,4.458,0,0,0,5.455-.884" transform="translate(-339.321 -636.918)" fill="none" stroke="#ff7454" stroke-miterlimit="10" stroke-width="0.695"/>
          <path id="Trazado_21746" data-name="Trazado 21746" d="M394.4,677.192a.569.569,0,1,1-.612-.52A.572.572,0,0,1,394.4,677.192Z" transform="translate(-346.022 -641.383)" fill="#ff7454"/>
          <path id="Trazado_21747" data-name="Trazado 21747" d="M394.924,677.485a.246.246,0,1,1-.263-.224A.245.245,0,0,1,394.924,677.485Z" transform="translate(-343.923 -640.322)" fill="#ff7454"/>
          <path id="Trazado_21748" data-name="Trazado 21748" d="M394.2,678.267a.5.5,0,1,1-.537-.459A.5.5,0,0,1,394.2,678.267Z" transform="translate(-346.141 -639.34)" fill="#ff7454"/>
          <path id="Trazado_21749" data-name="Trazado 21749" d="M392.9,677.376a.276.276,0,1,1-.551.045.276.276,0,0,1,.551-.045Z" transform="translate(-347.667 -640.568)" fill="#ff7454"/>
          <path id="Trazado_21750" data-name="Trazado 21750" d="M395.179,678.629a.414.414,0,0,1-.383.45.418.418,0,1,1,.383-.45Z" transform="translate(-344.083 -638.555)" fill="#ff7454"/>
          <path id="Trazado_21751" data-name="Trazado 21751" d="M396.109,677.059a.374.374,0,1,1-.4-.344A.374.374,0,0,1,396.109,677.059Z" transform="translate(-342.257 -641.305)" fill="#ff7454"/>
          <path id="Trazado_21752" data-name="Trazado 21752" d="M395.435,678.22a.649.649,0,1,1,.7.6A.651.651,0,0,1,395.435,678.22Z" transform="translate(-342.128 -639.858)" fill="#ff7454"/>
          <path id="Trazado_21753" data-name="Trazado 21753" d="M400.915,676.751a.5.5,0,1,1-.534-.456A.5.5,0,0,1,400.915,676.751Z" transform="translate(-334.063 -642.059)" fill="#ff7454"/>
          <path id="Trazado_21754" data-name="Trazado 21754" d="M400.533,678.148a.693.693,0,1,1,.744.635A.692.692,0,0,1,400.533,678.148Z" transform="translate(-332.971 -640.068)" fill="#ff7454"/>
          <path id="Trazado_21755" data-name="Trazado 21755" d="M401.871,676.9a.4.4,0,1,1-.433-.372A.4.4,0,0,1,401.871,676.9Z" transform="translate(-332.01 -641.634)" fill="#ff7454"/>
          <path id="Trazado_21756" data-name="Trazado 21756" d="M390.768,696.789s12.158-22.121,29.134-19.727c0,0,8.011-5.523-.872-11.152C413.286,662.272,385.62,671.754,390.768,696.789Z" transform="translate(-351.649 -662.058)" fill="#aa4f20"/>
          <path id="Trazado_21757" data-name="Trazado 21757" d="M391.853,685.925c-18.7,8.042-15.228,72.786-15.228,72.786,4.994,6.482,11.666,5.953,15.066,5.134a207.953,207.953,0,0,0,9.063-33.1C403.98,712.973,391.853,685.925,391.853,685.925Z" transform="translate(-376.37 -624.759)" fill="#ff926d"/>
          <path id="Trazado_21758" data-name="Trazado 21758" d="M417.127,701.253s-13.031-4.8-26,9.775" transform="translate(-349.867 -598.585)" fill="none" stroke="#dfc5b6" stroke-linecap="round" stroke-miterlimit="10" stroke-width="0.762"/>
          <g id="Grupo_6397" data-name="Grupo 6397" transform="translate(33.917 170.094)">
            <path id="Trazado_21759" data-name="Trazado 21759" d="M396.791,734.913a1,1,0,0,1-.056-2.005l7.34-.411-14.926-5.676a1,1,0,1,1,.71-1.876l23.748,9.029-16.761.937Z" transform="translate(-388.5 -724.88)" fill="#9c57aa"/>
          </g>
          <g id="Grupo_6398" data-name="Grupo 6398" transform="translate(55.861 175.828)">
            <path id="Trazado_21760" data-name="Trazado 21760" d="M397.351,730.555a1,1,0,0,1-.1-2l15.664-1.619a1.017,1.017,0,0,1,1.1.895,1.006,1.006,0,0,1-.895,1.1l-15.665,1.619C397.42,730.552,397.384,730.555,397.351,730.555Z" transform="translate(-396.347 -726.931)" fill="#9c57aa"/>
          </g>
          <g id="Grupo_6399" data-name="Grupo 6399" transform="translate(85.262 118.181)">
            <path id="Trazado_21761" data-name="Trazado 21761" d="M414.51,785.163s-1.784-6.89-2.522-9.49.506-9.5,3.688-12.936c0,0-6.057-33.765-8.447-40.048s7.463-23.9,13.318-12.768c4.611,8.775,1.141,46.356,2.947,53.623s2.673,11.755,1.969,15.4l-.97,1.1-.137,2.19-1.051,1.3-.031,1.068a1.846,1.846,0,0,1-.78,1.457l-.875.615L417.8,794.8s-1.6-2.735-.822-3.828l-1.7.112s.07-1.8,1.09-2.156c0,0-.786-1.843,1.868-3.249l-.691-6.11s-.288-6.261-1.759-5.85C413.014,774.49,418.4,783.866,414.51,785.163Z" transform="translate(-406.862 -706.315)" fill="#ffa181"/>
            <path id="Trazado_21762" data-name="Trazado 21762" d="M413.377,731.208l-1.428,2.746.531,8.015.323-.228-.156-5.845Z" transform="translate(-397.724 -661.602)" fill="#ff745e"/>
            <path id="Trazado_21763" data-name="Trazado 21763" d="M410.962,737.945s-.786-1.843,1.868-3.249l-1.261,5.293-1.7.112S409.942,738.3,410.962,737.945Z" transform="translate(-401.455 -655.336)" fill="#ff745e"/>
            <path id="Trazado_21764" data-name="Trazado 21764" d="M413.939,731.989a1.785,1.785,0,0,0,1.2-.551A15.266,15.266,0,0,1,415,733.2a2.14,2.14,0,0,1-.52,1.1l-.554.629-.092,1.448a2.339,2.339,0,0,1-.512,1.317l-.584.724.042-5.637C413.217,732.859,413.939,731.989,413.939,731.989Z" transform="translate(-396.3 -661.188)" fill="#ff745e"/>
          </g>
          <path id="Trazado_21765" data-name="Trazado 21765" d="M449.011,750.978c-1.029-8.937-2.97-22.289-7.922-30.8a11.692,11.692,0,0,0,3.453-12.432c-2.41-7.667-10.757-16.822-10.757-16.822S401.254,702,389.473,730.772c-10.531,25.711,3.3,63.43,26.656,60.114C444.366,786.873,451.617,773.6,449.011,750.978Z" transform="translate(-359.266 -615.776)" fill="#ba68c8"/>
          <path id="Trazado_21766" data-name="Trazado 21766" d="M427.175,702.823s-4.32,2.307-4.225,1.977c-10.05,2.969-31.807,8.266-38.462,12.141-13.481,7.852-8.5,20.885,4.024,19.437,8.52-.984,12.046-4.8,12.046-4.8l26.508-19.8a30.366,30.366,0,0,0,4.678-3.367S431.834,707.255,427.175,702.823Z" transform="translate(-376.206 -594.406)" fill="#ffa181"/>
          <g id="Grupo_6400" data-name="Grupo 6400" transform="translate(29.934 98.017)">
            <path id="Trazado_21767" data-name="Trazado 21767" d="M400.055,708.917c-10.486,0-12.919-8.45-12.944-8.551a1,1,0,0,1,1.935-.528c.109.394,2.83,9.58,16.21,6.409a1,1,0,0,1,.464,1.954A24.549,24.549,0,0,1,400.055,708.917Z" transform="translate(-387.075 -699.104)" fill="#9c57aa"/>
          </g>
          <g id="Grupo_6401" data-name="Grupo 6401" transform="translate(54.569 170.094)">
            <path id="Trazado_21768" data-name="Trazado 21768" d="M396.886,734.238a1,1,0,0,1-.8-1.608,29.876,29.876,0,0,0,3.864-7.111,1,1,0,1,1,1.868.73,31.946,31.946,0,0,1-4.127,7.586A1.009,1.009,0,0,1,396.886,734.238Z" transform="translate(-395.885 -724.88)" fill="#9c57aa"/>
          </g>
          <g id="Grupo_6402" data-name="Grupo 6402" transform="translate(69.248 103.403)">
            <path id="Trazado_21769" data-name="Trazado 21769" d="M406.552,704.357a20.606,20.606,0,0,1-4.639-.523,1,1,0,0,1-.752-1.2,1.013,1.013,0,0,1,1.2-.755,18.928,18.928,0,0,0,10.939-.761,1,1,0,1,1,.817,1.832A20.007,20.007,0,0,1,406.552,704.357Z" transform="translate(-401.135 -701.03)" fill="#9c57aa"/>
          </g>
          <g id="Grupo_6403" data-name="Grupo 6403" transform="translate(44.457 102.182)">
            <path id="Trazado_21770" data-name="Trazado 21770" d="M411.56,718.718l-2.318-.022-16.106.249-.867-9.194,6.062-2.6s10.564-6.7,11.157-6.557l5.246.235a.9.9,0,0,1,.319,1.605c-1.023.747-1.311,1.046-2.575,1l-1.127-.039-2.578,1.722,7.371-1.342,3.392-.117a3.9,3.9,0,0,1,2.382.794s.327.377.327.6a.712.712,0,0,1-.277.562,4.013,4.013,0,0,1-2.413.845l-3.028.1-4.958.856c-1.236.411-.288.551.022.509l5.833-.794L422,707.1a3.9,3.9,0,0,1,2.382.794l.048.036a.706.706,0,0,1,.28.562.717.717,0,0,1-.277.565l-.048.036a3.912,3.912,0,0,1-2.366.805l-4.211.014-6.817,1.479c-1.166.431-.433.724.115.618l4.435-.858,4.566-.285a3.905,3.905,0,0,1,2.424.66l.048.034a.7.7,0,0,1,.31.545.7.7,0,0,1-.246.579l-.045.039a3.9,3.9,0,0,1-2.315.937l-4.205.249-5.453,1.314a.187.187,0,0,0,0,.364l.612.145,4.547-.263,3.1-1.068a1.966,1.966,0,0,1,2.276.906.6.6,0,0,1-.347.917l-4.13,1.683Z" transform="translate(-392.269 -700.593)" fill="#ffa181"/>
          </g>
        </g>
      </g>
      <g id="Grupo_6430" data-name="Grupo 6430" transform="translate(355.259 664.826)">
        <ellipse id="Elipse_550" data-name="Elipse 550" cx="63.905" cy="171.958" rx="63.905" ry="171.958" transform="translate(0.336)" fill="#f8f3ff"/>
        <g id="Grupo_6429" data-name="Grupo 6429" transform="translate(0 7.132)">
          <path id="Trazado_21771" data-name="Trazado 21771" d="M242.7,713.841s31.821,29.858,37.383,28,1.815-5.07-1.471-9.007c-1.8-2.15-12.74-15.944-20.387-27.294S238.01,708.2,242.7,713.841Z" transform="translate(-241.102 -596.945)" fill="#ff926d"/>
          <path id="Trazado_21772" data-name="Trazado 21772" d="M276.245,686.754a71.729,71.729,0,0,0-16.028,16.369c-16.263,23.2-20.605,29.719-18.072,35.177,2.38,5.126,10.4,2.55,18.71-5.436,5.394-5.181,22.135-18.282,24.456-26.877S276.245,686.754,276.245,686.754Z" transform="translate(-241.474 -622.95)" fill="#ff926d"/>
          <path id="Trazado_21773" data-name="Trazado 21773" d="M284.75,773.7l3.492-59.5c-7.874.716-24.112,0-24.112,0C251.047,729.59,248.6,763.62,253.88,805.471l11.943,80.241,12.857-10.433,3.255-56.976L285,774.673A2.31,2.31,0,0,1,284.75,773.7Z" transform="translate(-223.862 -573.652)" fill="#ff926d"/>
          <g id="Grupo_6406" data-name="Grupo 6406" transform="translate(35.468 292.456)">
            <path id="Trazado_21774" data-name="Trazado 21774" d="M273.681,776.34s-2.153,22.49-1.82,29.9,2.866,11.193,1.745,13.05-2.933,1.739-3.154,5.763-4.082,7.407-10.491,7.7-5.878-5.757-5.721-6.767,6.048-8.3,7.581-14.39-2.849-36.6-2.849-36.6S271.525,759.579,273.681,776.34Z" transform="translate(-254.158 -768.525)" fill="#ff926d"/>
          </g>
          <g id="Grupo_6407" data-name="Grupo 6407" transform="translate(66.761 295.002)">
            <path id="Trazado_21775" data-name="Trazado 21775" d="M284.005,769.436s-2.131,28.351-1.8,35.761,3.708,11.073,2.589,12.93-2.933,1.737-3.154,5.76-4.082,7.407-10.491,7.7-5.878-5.755-5.721-6.767,6.048-8.3,7.581-14.39-2.849-36.6-2.849-36.6Z" transform="translate(-265.349 -769.436)" fill="#ffa181"/>
          </g>
          <path id="Trazado_21776" data-name="Trazado 21776" d="M262.3,714.746s27.124-8.738,33.9,8.252c9.239,23.15,2.19,62.146,2.382,62.322L294.824,813.2l-4.851,66.419-10.531,16.042s-7.086-43.311-13.243-81.175c-2.469-15.184-3.473-28.1-4.494-39.74Z" transform="translate(-205.134 -576.705)" fill="#ffa181"/>
          <path id="Trazado_21777" data-name="Trazado 21777" d="M286.581,714.2c-7.874.716-24.112,0-24.112,0-4.818,5.665-8.187,13.867-10.265,24.045,8.78,3.062,18.782,9.3,26.419,15.027C281.053,752.038,286.581,714.2,286.581,714.2Z" transform="translate(-222.2 -573.652)" fill="#ffd54f"/>
          <path id="Trazado_21778" data-name="Trazado 21778" d="M300.391,741.061A69.208,69.208,0,0,0,296.3,723c-6.781-16.99-33.9-8.252-33.9-8.252l-.741,41.577C267.994,746.551,291.3,738.9,300.391,741.061Z" transform="translate(-205.229 -576.705)" fill="#ffd54f"/>
          <rect id="Rectángulo_3153" data-name="Rectángulo 3153" width="43.133" height="70.185" transform="translate(41.45 22.582)" fill="#bb5a38"/>
          <path id="Trazado_21779" data-name="Trazado 21779" d="M314.735,715.713s-31.821,29.861-37.383,28.007-1.812-5.07,1.474-9.01c1.792-2.15,12.74-15.941,20.384-27.294S319.427,710.076,314.735,715.713Z" transform="translate(-182.135 -593.582)" fill="#ff926d"/>
          <path id="Trazado_21780" data-name="Trazado 21780" d="M284.895,723.622l-.12-.129a1.61,1.61,0,0,1,.12-2.335h0l-.646-2.019h0a1.631,1.631,0,0,1-.117-2.125l.316-.408-4.541-3.641-7.966,1.157s3.727,9.2,7.911,11.274S284.895,723.622,284.895,723.622Z" transform="translate(-186.75 -575.869)" fill="#ff926d"/>
          <path id="Trazado_21781" data-name="Trazado 21781" d="M297.78,687.832c-.956,12.119-10.8,21.226-21.978,20.343s-19.711-11.442-18.514-23.539c1.295-13.12,8.35-22.213,19.434-20.491C288.888,666.033,298.737,675.716,297.78,687.832Z" transform="translate(-213.269 -663.936)" fill="#bb5a38"/>
          <path id="Trazado_21782" data-name="Trazado 21782" d="M295.521,682.749c-.761,9.627-10.441,16.716-21.623,15.833s-19.87-9.423-18.872-19.029c1.085-10.419,9.292-14.781,20.39-13.232C287.6,668.021,296.282,673.125,295.521,682.749Z" transform="translate(-217.271 -660.198)" fill="#bb5a38"/>
          <path id="Trazado_21783" data-name="Trazado 21783" d="M305.346,767.183l7.2-47.67-2.388-28.667s-15.8-6.627-28.709-7.024c-10.642-.33-27.07,8.215-27.07,8.215s-.629,26.539-.73,32.856c-.171,10.872,3.21,29.838,6.227,43.887C268.7,784.271,293.565,776.579,305.346,767.183Z" transform="translate(-219.61 -628.233)" fill="#ff926d"/>
          <path id="Trazado_21784" data-name="Trazado 21784" d="M304.528,713.489c-2.354-8.814-2.838-18.374-2.919-27.468q-1.191-.377-2.489-.758l-31.754-.47c-1.208.411-2.385.842-3.5,1.272a89.524,89.524,0,0,1-8.274,28.689c0,.036-1.935,8.341-1.938,8.375a123.723,123.723,0,0,0,1.8,18.578,215.613,215.613,0,0,1,31.231,2.961c7.477,1.194,14.733,1.616,21.727.039,1.295-8.3,2.578-16.682,3.364-21.847C308.44,720.611,305.714,717.93,304.528,713.489Z" transform="translate(-219.609 -626.471)" fill="#ffd54f"/>
          <path id="Trazado_21785" data-name="Trazado 21785" d="M290.343,686.9s-4.337,22.342-21.573,21.215c-11.632-.76-10.178-21.685-10.178-21.685S274.952,680.4,290.343,686.9Z" transform="translate(-210.831 -628.105)" fill="#ff926d"/>
          <path id="Trazado_21786" data-name="Trazado 21786" d="M263.416,689.329s1.748-3.2,3.115-2.7a71.023,71.023,0,0,0,7.572,1.25s-6.375.045-7.5.858S262.968,690.058,263.416,689.329Z" transform="translate(-202.156 -623.276)" fill="#ff7454"/>
          <path id="Trazado_21787" data-name="Trazado 21787" d="M268.026,689.5s-1.222-3.437-2.651-3.157a62.122,62.122,0,0,1-6.445.268s5.061.822,6.04,1.8S268.356,690.293,268.026,689.5Z" transform="translate(-210.119 -623.715)" fill="#ff7454"/>
          <g id="Grupo_6409" data-name="Grupo 6409" transform="translate(54.241 36.66)">
            <g id="Grupo_6408" data-name="Grupo 6408">
              <path id="Trazado_21788" data-name="Trazado 21788" d="M276.1,677.177l-.6,22.312-14.624-1.155,1.531-21.289Z" transform="translate(-260.872 -677.046)" fill="#ff926d"/>
            </g>
          </g>
          <path id="Trazado_21789" data-name="Trazado 21789" d="M268.681,704.9h0c7.114.218,18.687-8.2,18.905-15.312,0,0,1.532-10.847-.369-14.275-3.305-5.948-17.527-6.943-23.223-6.112-8.724,1.269-7.625,17.387-7.625,17.387C255.326,699.834,265.572,704.806,268.681,704.9Z" transform="translate(-214.848 -654.935)" fill="#ff8f68"/>
          <path id="Trazado_21790" data-name="Trazado 21790" d="M262.164,677.047l13.576.129a6.085,6.085,0,0,1-2.178,4.25c-.358,6.843-7.4,11.781-12.558,11.781Z" transform="translate(-206.393 -640.386)" fill="#ff7454"/>
          <path id="Trazado_21791" data-name="Trazado 21791" d="M268.681,704.9h0c7.114.218,18.687-8.2,18.905-15.312,0,0,1.532-10.847-.369-14.275-3.305-5.948-17.527-6.943-23.223-6.112-8.724,1.269-7.625,17.387-7.625,17.387C255.326,699.834,265.572,704.806,268.681,704.9Z" transform="translate(-214.848 -654.935)" fill="#ff8f68"/>
          <path id="Trazado_21792" data-name="Trazado 21792" d="M273.651,679.023c-.243,3.051-3.165,5.455-6.837,5.357l.38-11.073C270.863,673.4,274.087,673.55,273.651,679.023Z" transform="translate(-195.957 -647.104)" fill="#ff926d"/>
          <path id="Trazado_21793" data-name="Trazado 21793" d="M268.943,674.895a.409.409,0,0,1,.758-.224,2.426,2.426,0,0,1,.193,2.38c-.607,1.381-1.8,2.712-2.312,2.117s.045-.442.939-2.226A4.342,4.342,0,0,0,268.943,674.895Z" transform="translate(-194.932 -645.006)" fill="#ff7454"/>
          <path id="Trazado_21794" data-name="Trazado 21794" d="M282.974,670.328c-5.2-2.08-24.761-3-24.761-3a28.774,28.774,0,0,0,11.21,11.747,35.121,35.121,0,0,0,7.667,3.165,7.35,7.35,0,0,1,5.226,5.942h0l.162-.694a4.081,4.081,0,0,1,4.508-3.109h0S288.172,672.409,282.974,670.328Z" transform="translate(-211.407 -657.844)" fill="#bb5a38"/>
          <g id="Grupo_6425" data-name="Grupo 6425" transform="translate(41.947 25.478)">
            <g id="Grupo_6410" data-name="Grupo 6410" transform="translate(2.789 4.713)">
              <path id="Trazado_21795" data-name="Trazado 21795" d="M257.479,676.254c-.07.889.4,1.65,1.043,1.7s1.225-.629,1.295-1.516-.4-1.65-1.04-1.7S257.552,675.365,257.479,676.254Z" transform="translate(-257.473 -674.733)" fill="#28121e"/>
            </g>
            <g id="Grupo_6411" data-name="Grupo 6411" transform="translate(14.634 4.9)">
              <path id="Trazado_21796" data-name="Trazado 21796" d="M261.715,676.321c-.07.886.4,1.65,1.04,1.7s1.225-.629,1.295-1.516-.394-1.653-1.04-1.7S261.785,675.432,261.715,676.321Z" transform="translate(-261.709 -674.8)" fill="#28121e"/>
            </g>
            <g id="Grupo_6412" data-name="Grupo 6412" transform="translate(11.808 0.926)">
              <path id="Trazado_21797" data-name="Trazado 21797" d="M268.5,676.282c-.034-.022-3.574-2.307-7.058-.573l-.744-1.49c4.357-2.178,8.548.556,8.724.674Z" transform="translate(-260.698 -673.379)" fill="#ff7454"/>
            </g>
            <g id="Grupo_6413" data-name="Grupo 6413">
              <path id="Trazado_21798" data-name="Trazado 21798" d="M264.942,686.568a2.358,2.358,0,0,1-1.806-1.068c-.38-.794.031-1.6.654-2.818.235-.462.514-1,.8-1.644a4.519,4.519,0,0,0,.232-.64,4.234,4.234,0,0,0-.643-3.627,4.848,4.848,0,0,0-3.635-2.036,6.249,6.249,0,0,0-3.325.635l-.744-1.49a7.954,7.954,0,0,1,4.189-.808,6.5,6.5,0,0,1,4.877,2.74,5.948,5.948,0,0,1,.889,5.033,6.37,6.37,0,0,1-.319.875c-.3.671-.59,1.239-.836,1.72a8.144,8.144,0,0,0-.61,1.353c.064-.028.226.062.61.14Z" transform="translate(-256.475 -673.048)" fill="#ff7454"/>
            </g>
            <g id="Grupo_6414" data-name="Grupo 6414" transform="translate(6.247 16.546)">
              <path id="Trazado_21799" data-name="Trazado 21799" d="M262.269,681.7a4.83,4.83,0,0,1-3.56-1.58l1.205-1.155a3.173,3.173,0,0,0,3.951.663l.85,1.435A4.952,4.952,0,0,1,262.269,681.7Z" transform="translate(-258.709 -678.965)" fill="#ff7454"/>
            </g>
            <g id="Grupo_6415" data-name="Grupo 6415" transform="translate(20.299 10.784)">
              <path id="Trazado_21800" data-name="Trazado 21800" d="M263.736,677.381a.519.519,0,1,0,.559-.475A.52.52,0,0,0,263.736,677.381Z" transform="translate(-263.734 -676.904)" fill="#ff7454"/>
            </g>
            <g id="Grupo_6416" data-name="Grupo 6416" transform="translate(17.912 12.29)">
              <path id="Trazado_21801" data-name="Trazado 21801" d="M262.882,677.648a.223.223,0,0,0,.445.036.223.223,0,1,0-.445-.036Z" transform="translate(-262.881 -677.443)" fill="#ff7454"/>
            </g>
            <g id="Grupo_6417" data-name="Grupo 6417" transform="translate(20.596 13.687)">
              <path id="Trazado_21802" data-name="Trazado 21802" d="M263.842,678.361a.456.456,0,1,0,.489-.417A.454.454,0,0,0,263.842,678.361Z" transform="translate(-263.841 -677.943)" fill="#ff7454"/>
            </g>
            <g id="Grupo_6418" data-name="Grupo 6418" transform="translate(23.169 11.94)">
              <path id="Trazado_21803" data-name="Trazado 21803" d="M264.762,677.551a.252.252,0,1,0,.271-.232A.251.251,0,0,0,264.762,677.551Z" transform="translate(-264.761 -677.318)" fill="#ff7454"/>
            </g>
            <g id="Grupo_6419" data-name="Grupo 6419" transform="translate(17.822 14.8)">
              <path id="Trazado_21804" data-name="Trazado 21804" d="M262.85,678.691a.382.382,0,1,0,.411-.35A.382.382,0,0,0,262.85,678.691Z" transform="translate(-262.849 -678.34)" fill="#ff7454"/>
            </g>
            <g id="Grupo_6420" data-name="Grupo 6420" transform="translate(15.311 10.897)">
              <path id="Trazado_21805" data-name="Trazado 21805" d="M261.952,677.259a.339.339,0,0,0,.313.366.341.341,0,1,0-.313-.366Z" transform="translate(-261.951 -676.945)" fill="#ff7454"/>
            </g>
            <g id="Grupo_6421" data-name="Grupo 6421" transform="translate(14.625 12.951)">
              <path id="Trazado_21806" data-name="Trazado 21806" d="M262.887,678.319a.592.592,0,1,0-.638.542A.592.592,0,0,0,262.887,678.319Z" transform="translate(-261.705 -677.679)" fill="#ff7454"/>
            </g>
            <g id="Grupo_6422" data-name="Grupo 6422" transform="translate(3.455 9.826)">
              <path id="Trazado_21807" data-name="Trazado 21807" d="M257.712,676.98a.453.453,0,1,0,.487-.417A.452.452,0,0,0,257.712,676.98Z" transform="translate(-257.711 -676.562)" fill="#ff7454"/>
            </g>
            <g id="Grupo_6423" data-name="Grupo 6423" transform="translate(1.547 12.652)">
              <path id="Trazado_21808" data-name="Trazado 21808" d="M258.288,678.254a.631.631,0,1,0-.677.579A.63.63,0,0,0,258.288,678.254Z" transform="translate(-257.028 -677.572)" fill="#ff7454"/>
            </g>
            <g id="Grupo_6424" data-name="Grupo 6424" transform="translate(0.712 10.43)">
              <path id="Trazado_21809" data-name="Trazado 21809" d="M256.731,677.117a.367.367,0,1,0,.394-.338A.365.365,0,0,0,256.731,677.117Z" transform="translate(-256.73 -676.778)" fill="#ff7454"/>
            </g>
          </g>
          <g id="Grupo_6426" data-name="Grupo 6426" transform="translate(55.42 107.752)">
            <path id="Trazado_21810" data-name="Trazado 21810" d="M271.856,707.759a16.441,16.441,0,0,1-10.167-3.487,1,1,0,0,1,1.214-1.6c9.091,6.921,19.023.05,19.124-.02a1,1,0,1,1,1.158,1.636A21.856,21.856,0,0,1,271.856,707.759Z" transform="translate(-261.294 -702.471)" fill="#e8bc42"/>
          </g>
          <path id="Trazado_21811" data-name="Trazado 21811" d="M274.609,686.328s16.531,9.521,24.906,22.8c15.119,23.966,19.1,29.246,18.072,35.176s-10.393,2.55-18.71-5.436c-5.394-5.184-22.135-18.282-24.456-26.877S274.609,686.328,274.609,686.328Z" transform="translate(-184.059 -623.715)" fill="#ff926d"/>
          <path id="Trazado_21812" data-name="Trazado 21812" d="M258.618,719.288a15.88,15.88,0,0,1-6.191-12.278c-.02-2.3,5.352-11.5,5.352-11.5Z" transform="translate(-221.8 -607.224)" fill="#ffd54f"/>
          <g id="Grupo_6427" data-name="Grupo 6427" transform="translate(34.671 107.751)">
            <path id="Trazado_21813" data-name="Trazado 21813" d="M260.547,707.667a22.6,22.6,0,0,1-5.962-.819,1,1,0,0,1-.668-1.25,1.011,1.011,0,0,1,1.247-.671c.087.028,8.881,2.595,13.279-2.136a1,1,0,1,1,1.468,1.367C267.32,706.946,263.648,707.667,260.547,707.667Z" transform="translate(-253.873 -702.47)" fill="#e8bc42"/>
          </g>
          <g id="Grupo_6428" data-name="Grupo 6428" transform="translate(80.132 135.536)">
            <path id="Trazado_21814" data-name="Trazado 21814" d="M277.113,712.407l7.676.565a1.549,1.549,0,0,1,1.476,1.529c-.028.847-.5,1.879-1.351,1.823l-7.049-.414-3.789,1.219a2.96,2.96,0,0,1-3.945-1.4h0Z" transform="translate(-270.131 -712.407)" fill="#ffa181"/>
            <path id="Trazado_21815" data-name="Trazado 21815" d="M276.867,715.509l9.029-2.167c.842-.3,1.641.769,1.806,1.695.129.727-.3,2.187-1,2.43l-7.184.928-5.193,2.961a3.87,3.87,0,0,1-4.194-1Z" transform="translate(-270.131 -710.817)" fill="#ffa181"/>
            <path id="Trazado_21816" data-name="Trazado 21816" d="M277.589,716.047l7.223-1.155c.875-.073,2.15,1.331,2.055,2.265a1.551,1.551,0,0,1-1.476,1.334l-6.753.456-3.56,2.578a2.961,2.961,0,0,1-4.136-.663h0Z" transform="translate(-268.674 -707.949)" fill="#ffa181"/>
            <path id="Trazado_21817" data-name="Trazado 21817" d="M277.964,717.083l4.835-.576a1.485,1.485,0,0,1,1.653,1.541,1.544,1.544,0,0,1-1.39,1.412l-4.208.5-2.567,1.334a2.963,2.963,0,0,1-4-1.261h0Z" transform="translate(-266.253 -705.061)" fill="#ffa181"/>
          </g>
        </g>
      </g>
      <g id="Grupo_6431" data-name="Grupo 6431" transform="translate(560.966 723.976)">
        <path id="Trazado_21818" data-name="Trazado 21818" d="M356.806,823h-.1a10.045,10.045,0,0,1-9.845-7.667L315.382,695.421a10.272,10.272,0,0,1,9.935-12.882H390.54a10.276,10.276,0,0,1,9.89,13.058L366.688,815.506A10.042,10.042,0,0,1,356.806,823ZM325.317,685.335a7.482,7.482,0,0,0-7.234,9.379l31.48,119.905a7.335,7.335,0,0,0,7.167,5.581h.064a7.323,7.323,0,0,0,7.2-5.456L397.737,694.84a7.481,7.481,0,0,0-7.2-9.5Z" transform="translate(-315.039 -682.539)" fill="#ffd54f"/>
      </g>
      <g id="Grupo_6432" data-name="Grupo 6432" transform="translate(922.996 723.977)">
        <path id="Trazado_21819" data-name="Trazado 21819" d="M520.011,823H454.792a10.275,10.275,0,0,1-9.89-13.059L478.644,690.03a10.275,10.275,0,0,1,19.828.176l31.477,119.908A10.275,10.275,0,0,1,520.011,823ZM488.534,685.337a7.317,7.317,0,0,0-7.2,5.453L447.594,810.7a7.474,7.474,0,0,0,7.2,9.5h65.219a7.478,7.478,0,0,0,7.234-9.376L495.768,690.916a7.331,7.331,0,0,0-7.169-5.579Z" transform="translate(-444.51 -682.539)" fill="#ffd54f"/>
      </g>
      <g id="Grupo_6433" data-name="Grupo 6433" transform="translate(198.638 723.976)">
        <path id="Trazado_21820" data-name="Trazado 21820" d="M254.668,837.327H195.6a10.134,10.134,0,0,1-8.9-14.974l32.048-58.917a7.317,7.317,0,0,0,0-7.007l-32.048-58.917a10.134,10.134,0,0,1,8.9-14.974h59.065a10.134,10.134,0,0,1,8.9,14.974L231.524,756.43a7.3,7.3,0,0,0,0,7.007l32.048,58.917a10.134,10.134,0,0,1-8.9,14.974ZM195.6,685.335a7.332,7.332,0,0,0-6.44,10.838l32.048,58.917a10.121,10.121,0,0,1,0,9.683l-32.048,58.919a7.333,7.333,0,0,0,6.44,10.838h59.065a7.336,7.336,0,0,0,6.445-10.838l-32.048-58.919a10.106,10.106,0,0,1,0-9.683l32.048-58.917a7.334,7.334,0,0,0-6.445-10.838Z" transform="translate(-185.462 -682.539)" fill="#ba68c8"/>
      </g>
      <g id="Grupo_6434" data-name="Grupo 6434" transform="translate(734.113 723.976)">
        <path id="Trazado_21821" data-name="Trazado 21821" d="M426.236,847.044c-27.171,0-49.275-36.9-49.275-82.251s22.1-82.254,49.275-82.254,49.27,36.9,49.27,82.254S453.4,847.044,426.236,847.044Zm0-161.709c-25.628,0-46.479,35.644-46.479,79.458s20.851,79.455,46.479,79.455S472.71,808.6,472.71,764.793,451.861,685.335,426.236,685.335Z" transform="translate(-376.961 -682.539)" fill="#ff5953"/>
      </g>
      <g id="Grupo_6435" data-name="Grupo 6435" transform="translate(372.51 723.976)">
        <path id="Trazado_21822" data-name="Trazado 21822" d="M317.219,832.56H255.548a7.913,7.913,0,0,1-7.9-7.9V690.441a7.913,7.913,0,0,1,7.9-7.9h61.671a7.913,7.913,0,0,1,7.9,7.9V824.655A7.913,7.913,0,0,1,317.219,832.56ZM255.548,685.335a5.112,5.112,0,0,0-5.109,5.106V824.655a5.113,5.113,0,0,0,5.109,5.109h61.671a5.113,5.113,0,0,0,5.109-5.109V690.441a5.112,5.112,0,0,0-5.109-5.106Z" transform="translate(-247.643 -682.539)" fill="#ff5953"/>
      </g>
    </g>
    <g id="Grupo_15863" data-name="Grupo 15863">
      <text id="_Tus_hombros_y_cadera_tienen_medida_similar_" data-name="¿Tus hombros y cadera tienen medida similar?" transform="translate(720 2063.62)" fill="#7b1fa2" font-size="20" font-family="SegoeUI, Segoe UI"><tspan x="-203.765" y="22">¿Tus hombros y cadera tienen medida similar?</tspan></text>
      <text id="_Tu_cintura_es_más_pequeña_que_tu_cadera_" data-name="¿Tu cintura es más pequeña que tu cadera?" transform="translate(430.301 2122.62)" fill="#7b1fa2" font-size="20" font-family="SegoeUI, Segoe UI"><tspan x="-81.328" y="22">¿Tu cintura es más </tspan><tspan x="-106.548" y="45">pequeña que tu cadera?</tspan></text>
      <text id="_Tus_hombros_miden_más_que_tu_cadera_o_abdomen_" data-name="¿Tus hombros miden más que tu cadera o abdomen?" transform="translate(1007.221 2122.62)" fill="#7b1fa2" font-size="20" font-family="SegoeUI, Segoe UI"><tspan x="-113.188" y="22">¿Tus hombros miden más </tspan><tspan x="-118.73" y="45">que tu cadera o abdomen?</tspan></text>
      <text id="_Tu_blusa_tiene_una_talla_más_que_tu_pantalón_" data-name="¿Tu blusa tiene una talla más que tu pantalón?" transform="translate(1007.221 2283.62)" fill="#7b1fa2" font-size="20" font-family="SegoeUI, Segoe UI"><tspan x="-106.372" y="22">¿Tu blusa tiene una talla </tspan><tspan x="-95.513" y="45">más que tu pantalón?</tspan></text>
      <path id="Trazado_21824" data-name="Trazado 21824" d="M363.183,462.707H332.445a1.6,1.6,0,0,0-1.113.451l-6.433,6.248a1.6,1.6,0,0,1-2.224,0l-6.441-6.249a1.593,1.593,0,0,0-1.111-.451H284.8a1.6,1.6,0,0,1-1.6-1.6V420.73a1.6,1.6,0,0,1,1.6-1.6h78.386a1.6,1.6,0,0,1,1.6,1.6v40.38A1.6,1.6,0,0,1,363.183,462.707Z" transform="translate(103.863 1636.762)" fill="#ffd54f"/>
      <path id="Trazado_21825" data-name="Trazado 21825" d="M363.183,462.707H332.445a1.6,1.6,0,0,0-1.113.451l-6.433,6.248a1.6,1.6,0,0,1-2.224,0l-6.441-6.249a1.593,1.593,0,0,0-1.111-.451H284.8a1.6,1.6,0,0,1-1.6-1.6V420.73a1.6,1.6,0,0,1,1.6-1.6h78.386a1.6,1.6,0,0,1,1.6,1.6v40.38A1.6,1.6,0,0,1,363.183,462.707Z" transform="translate(682.493 1636.762)" fill="#ffd54f"/>
      <text id="SÍ" transform="translate(412.063 2069.636)" fill="#7b1fa2" font-size="16" font-family="SegoeUI-Bold, Segoe UI" font-weight="700"><tspan x="8.48" y="17">SÍ</tspan></text>
      <g id="Grupo_6440" data-name="Grupo 6440" transform="translate(-18.92 -1712.275)">
        <path id="Trazado_21826" data-name="Trazado 21826" d="M363.183,462.707H332.445a1.6,1.6,0,0,0-1.113.451l-6.433,6.248a1.6,1.6,0,0,1-2.224,0l-6.441-6.249a1.593,1.593,0,0,0-1.111-.451H284.8a1.6,1.6,0,0,1-1.6-1.6V420.73a1.6,1.6,0,0,1,1.6-1.6h78.386a1.6,1.6,0,0,1,1.6,1.6v40.38A1.6,1.6,0,0,1,363.183,462.707Z" transform="translate(51.783 3497.762)" fill="#ffd54f"/>
        <text id="SÍ-2" data-name="SÍ" transform="translate(359.983 3930.636)" fill="#7b1fa2" font-size="16" font-family="SegoeUI-Bold, Segoe UI" font-weight="700"><tspan x="8.48" y="17">SÍ</tspan></text>
      </g>
      <g id="Grupo_6442" data-name="Grupo 6442" transform="translate(539.645 -1556)">
        <path id="Trazado_21826-2" data-name="Trazado 21826" d="M363.183,462.707H332.445a1.6,1.6,0,0,0-1.113.451l-6.433,6.248a1.6,1.6,0,0,1-2.224,0l-6.441-6.249a1.593,1.593,0,0,0-1.111-.451H284.8a1.6,1.6,0,0,1-1.6-1.6V420.73a1.6,1.6,0,0,1,1.6-1.6h78.386a1.6,1.6,0,0,1,1.6,1.6v40.38A1.6,1.6,0,0,1,363.183,462.707Z" transform="translate(51.783 3497.762)" fill="#ffd54f"/>
        <text id="SÍ-3" data-name="SÍ" transform="translate(359.983 3930.636)" fill="#7b1fa2" font-size="16" font-family="SegoeUI-Bold, Segoe UI" font-weight="700"><tspan x="8.48" y="17">SÍ</tspan></text>
      </g>
      <g id="Grupo_6438" data-name="Grupo 6438" transform="translate(-96.684 -1712.275)">
        <path id="Trazado_21829" data-name="Trazado 21829" d="M363.183,462.707H332.445a1.6,1.6,0,0,0-1.113.451l-6.433,6.248a1.6,1.6,0,0,1-2.224,0l-6.441-6.249a1.593,1.593,0,0,0-1.111-.451H284.8a1.6,1.6,0,0,1-1.6-1.6V420.73a1.6,1.6,0,0,1,1.6-1.6h78.386a1.6,1.6,0,0,1,1.6,1.6v40.38A1.6,1.6,0,0,1,363.183,462.707Z" transform="translate(515.203 3497.762)" fill="#ffd54f"/>
        <text id="SÍ-4" data-name="SÍ" transform="translate(823.403 3930.636)" fill="#7b1fa2" font-size="16" font-family="SegoeUI-Bold, Segoe UI" font-weight="700"><tspan x="8.48" y="17">SÍ</tspan></text>
      </g>
      <text id="NO" transform="translate(990.983 2069.636)" fill="#7b1fa2" font-size="16" font-family="SegoeUI-Bold, Segoe UI" font-weight="700"><tspan x="3.113" y="17">NO</tspan></text>
      <g id="Grupo_6437" data-name="Grupo 6437" transform="translate(13 -1710.984)">
        <path id="Trazado_21828" data-name="Trazado 21828" d="M363.183,462.707H332.445a1.6,1.6,0,0,0-1.113.451l-6.433,6.248a1.6,1.6,0,0,1-2.224,0l-6.441-6.249a1.593,1.593,0,0,0-1.111-.451H284.8a1.6,1.6,0,0,1-1.6-1.6V420.73a1.6,1.6,0,0,1,1.6-1.6h78.386a1.6,1.6,0,0,1,1.6,1.6v40.38A1.6,1.6,0,0,1,363.183,462.707Z" transform="translate(669.493 3496.471)" fill="#ffd54f"/>
        <text id="NO-2" data-name="NO" transform="translate(977.983 3929.345)" fill="#7b1fa2" font-size="16" font-family="SegoeUI-Bold, Segoe UI" font-weight="700"><tspan x="3.113" y="17">NO</tspan></text>
      </g>
      <g id="Grupo_6439" data-name="Grupo 6439" transform="translate(0.173 -1712.275)">
        <path id="Trazado_21827" data-name="Trazado 21827" d="M363.183,462.707H332.445a1.6,1.6,0,0,0-1.113.451l-6.433,6.248a1.6,1.6,0,0,1-2.224,0l-6.441-6.249a1.593,1.593,0,0,0-1.111-.451H284.8a1.6,1.6,0,0,1-1.6-1.6V420.73a1.6,1.6,0,0,1,1.6-1.6h78.386a1.6,1.6,0,0,1,1.6,1.6v40.38A1.6,1.6,0,0,1,363.183,462.707Z" transform="translate(197.203 3497.762)" fill="#ffd54f"/>
        <text id="NO-3" data-name="NO" transform="translate(505.693 3930.636)" fill="#7b1fa2" font-size="16" font-family="SegoeUI-Bold, Segoe UI" font-weight="700"><tspan x="3.113" y="17">NO</tspan></text>
      </g>
      <g id="Grupo_6441" data-name="Grupo 6441" transform="translate(578.79 -1556)">
        <path id="Trazado_21827-2" data-name="Trazado 21827" d="M363.183,462.707H332.445a1.6,1.6,0,0,0-1.113.451l-6.433,6.248a1.6,1.6,0,0,1-2.224,0l-6.441-6.249a1.593,1.593,0,0,0-1.111-.451H284.8a1.6,1.6,0,0,1-1.6-1.6V420.73a1.6,1.6,0,0,1,1.6-1.6h78.386a1.6,1.6,0,0,1,1.6,1.6v40.38A1.6,1.6,0,0,1,363.183,462.707Z" transform="translate(197.203 3497.762)" fill="#ffd54f"/>
        <text id="NO-4" data-name="NO" transform="translate(505.693 3930.636)" fill="#7b1fa2" font-size="16" font-family="SegoeUI-Bold, Segoe UI" font-weight="700"><tspan x="3.113" y="17">NO</tspan></text>
      </g>
      <g id="Rectángulo_3154" data-name="Rectángulo 3154" transform="translate(491.447 2055.62)" fill="none" stroke="#ffd54f" stroke-width="1">
        <rect width="454.71" height="43" rx="21.5" stroke="none"/>
        <rect x="0.5" y="0.5" width="453.71" height="42" rx="21" fill="none"/>
      </g>
      <g id="Rectángulo_3155" data-name="Rectángulo 3155" transform="translate(298.447 2115.62)" fill="none" stroke="#ffd54f" stroke-width="1">
        <rect width="263.71" height="74" rx="37" stroke="none"/>
        <rect x="0.5" y="0.5" width="262.71" height="73" rx="36.5" fill="none"/>
      </g>
      <g id="Rectángulo_3157" data-name="Rectángulo 3157" transform="translate(874.628 2275.329)" fill="none" stroke="#ffd54f" stroke-width="1">
        <rect width="263.71" height="74" rx="37" stroke="none"/>
        <rect x="0.5" y="0.5" width="262.71" height="73" rx="36.5" fill="none"/>
      </g>
      <g id="Rectángulo_3156" data-name="Rectángulo 3156" transform="translate(861.628 2115.62)" fill="none" stroke="#ffd54f" stroke-width="1">
        <rect width="289.71" height="74" rx="37" stroke="none"/>
        <rect x="0.5" y="0.5" width="288.71" height="73" rx="36.5" fill="none"/>
      </g>
      <path id="Trazado_21830" data-name="Trazado 21830" d="M2430.645,3827H2314.667v53" transform="translate(-1569.017 -1674.38)" fill="none" stroke="#ffd54f" stroke-width="1"/>
      <path id="Trazado_21831" data-name="Trazado 21831" d="M2515.173,3751.5h22.16" transform="translate(-1569.017 -1674.38)" fill="none" stroke="#ffd54f" stroke-width="1"/>
      <path id="Trazado_21832" data-name="Trazado 21832" d="M2037.661,3751.5h25.006" transform="translate(-1569.017 -1674.38)" fill="none" stroke="#ffd54f" stroke-width="1"/>
      <path id="Trazado_21833" data-name="Trazado 21833" d="M2575.5,3864v14.667" transform="translate(-1569.017 -1674.38)" fill="none" stroke="#ffd54f" stroke-width="1"/>
      <path id="Trazado_21834" data-name="Trazado 21834" d="M2090.383,3864v16" transform="translate(-1569.017 -1674.38)" fill="none" stroke="#ffd54f" stroke-width="1"/>
      <path id="Trazado_21835" data-name="Trazado 21835" d="M2090.383,3864v16" transform="translate(-1733.53 -1674.38)" fill="none" stroke="#ffd54f" stroke-width="1"/>
      <path id="Trazado_21836" data-name="Trazado 21836" d="M2669,4023.709V4036.5" transform="translate(-1569.017 -1674.38)" fill="none" stroke="#ffd54f" stroke-width="1"/>
      <path id="Trazado_21837" data-name="Trazado 21837" d="M2669,4023.709V4036.5" transform="translate(-1753.582 -1674.38)" fill="none" stroke="#ffd54f" stroke-width="1"/>
    </g>
  </g>
</svg>
