<svg id="Grupo_6202" data-name="Grupo 6202" xmlns="http://www.w3.org/2000/svg" width="117.393" height="358.574" viewBox="0 0 117.393 358.574">
  <ellipse id="Elipse_528" data-name="Elipse 528" cx="58.696" cy="157.943" rx="58.696" ry="157.943" transform="translate(0 18.998)" fill="#f8f3ff"/>
  <g id="Grupo_6201" data-name="Grupo 6201" transform="translate(10.084)">
    <path id="Trazado_21340" data-name="Trazado 21340" d="M309.757,389.063a6.736,6.736,0,0,1-1.125,2.3,1.67,1.67,0,0,1-.467.239.722.722,0,0,1-.4.028.178.178,0,0,1-.072-.01,1.016,1.016,0,0,1-.506.308c-.11.031-.221.051-.319.072a2.915,2.915,0,0,1-.349.028.661.661,0,0,1-.069.121.533.533,0,0,1-.866.09c-.619-.519-.668-2.738-.927-6.133a73.84,73.84,0,0,0-1.235-9.171c-.308-.976-.457-1.025-.457-1.025s-2.419,6.331-3.354,5.874-.509-1.343-.311-2.53,1.554-9.318,1.605-9.986-5.16-24-5.974-26.523-5.309-19.884-6.444-22.871c0,0-7.566-36.56-8.8-48.916a76.785,76.785,0,0,0-5.635-21.975s19.915,9.061,23.069,13.183,4.122,21.833,4.672,32.548.416,28.018.966,30.209,5.763,44.912,5.763,44.912,2.481,2.062,2.887,8.373A23.386,23.386,0,0,1,309.757,389.063Z" transform="translate(-224.748 -185.809)" fill="#ffa181"/>
    <path id="Trazado_21341" data-name="Trazado 21341" d="M275.918,245.742v10.851s-7.964,15.243-10.849,19.912-1.51,17.3-1.51,17.3.275,23.621.961,31.863-.825,19.912-.825,19.912,22.8.961,29.253.55a51.2,51.2,0,0,0,12.495-2.609s1.788-32.823,1.1-46.692-.686-22.25-.686-22.25-11.812-14.557-12.5-17.028-.55-9.338-.55-9.338S277.153,244.645,275.918,245.742Z" transform="translate(-241.718 -191.222)" fill="#ffa181"/>
    <path id="Trazado_21342" data-name="Trazado 21342" d="M269.828,252.73a19.77,19.77,0,0,0,11.123,3.49,15.78,15.78,0,0,0,4.335-.65c-.308-3.02-.224-7.356-.224-7.356s-15.656-3.57-16.892-2.473v5.748C268.705,251.929,269.255,252.348,269.828,252.73Z" transform="translate(-233.971 -191.222)" fill="#ff7454"/>
    <path id="Trazado_21343" data-name="Trazado 21343" d="M266.193,237.682s.275,25.131,1.1,32.135,1.374,8.514,2.335,8.928,11.262,5.355,14.283,5.768,12.5-5.494,14.421-7.967-.275-42.434-.413-43.122-9.2-8.925-16.753-7.553S266.193,236.721,266.193,237.682Z" transform="translate(-237.073 -222.3)" fill="#ffa181"/>
    <path id="Trazado_21344" data-name="Trazado 21344" d="M272.114,240.477s-5.358-5.9-7.553-3.706-1.374,9.888,2.884,10.438,5.219-4.4,5.219-4.4Z" transform="translate(-241.484 -205.733)" fill="#ffa181"/>
    <path id="Trazado_21345" data-name="Trazado 21345" d="M289.882,261.414c-1.651,6.732-9.2,17.863-10.165,21.286s-11.809,36.4-12.087,39.28-2.329,51.634-2.329,51.634.547,1.654,1.5,3.983,2.281,7.656.827,8.244c-.927.378-3.018-4.81-3.018-4.81s-.277,1.374.955,4.672,2.132,6.94,1.993,8.034c-.09.737-.868.578-1.366.388-.239-.09-.416-.18-.416-.18a7.926,7.926,0,0,1,.2,1.1,1.758,1.758,0,0,1-.267,1.413,1.346,1.346,0,0,1-1.595-.069h-.01c-.149-.1-.249-.18-.249-.18a1.984,1.984,0,0,1-.08.349c-.128.378-.426.876-1.125.547a6.422,6.422,0,0,1-1.991-1.721l-.01-.01c-.229-.29-.367-.5-.367-.5a1.51,1.51,0,0,1-.2.288c-.3.311-.886.619-1.613-.637a23.058,23.058,0,0,1-2.1-10.055c0-4.531,1.513-9.341,1.513-10.165s-3.025-41.609-3.025-46.967,7.964-56.164,10.165-60.425S290.01,249.2,290.01,249.2A26.638,26.638,0,0,1,289.882,261.414Z" transform="translate(-254.855 -185.475)" fill="#ffa181"/>
    <path id="Trazado_21346" data-name="Trazado 21346" d="M267.554,300.974c0,1.374,2.471,54.659,2.746,56.033s-3.57,15.929-3.02,35.7,3.57,53.01,3.57,53.01-12.359,14.008-11.812,17.031,10.987,4.669,14.557,4.669,3.847-.55,4.944-3.023,3.573-14.283,3.573-18.4-.824-4.394-.55-14.832,3.57-62.074,5.494-72.512,1.921-57.4,1.921-59.875S267.554,300.974,267.554,300.974Z" transform="translate(-248.323 -108.848)" fill="#ffa181"/>
    <path id="Trazado_21347" data-name="Trazado 21347" d="M273.335,317.873S280.2,377.748,280.2,379.4a116.1,116.1,0,0,0,.824,28.84c2.473,16.206,7.967,47.791,7.967,47.791s-2.473,15.931-.55,17.853,39.185,1.641,40.857,1.171,1.885-4.859-1.877-6.691-8.177-1.492-9.236-2.368-16.011-9.965-16.561-13.535-3.3-72.237-3.3-74.16,0-46.967-3.847-63.445-9.064-25.819-9.064-25.819S271.686,302.766,273.335,317.873Z" transform="translate(-226.088 -122.998)" fill="#ffa181"/>
    <path id="Trazado_21348" data-name="Trazado 21348" d="M307.009,336.423c0-5.245-.776-32.692-.311-43.433a209.013,209.013,0,0,0-2.573-40.477l-3.5-1.752c0,9.2-.629,19.255-11.432,20.6-11.886,1.477-17.922-10.712-20.292-20.087l-4.944,3.2a45.708,45.708,0,0,1,2.609,9.151,84.636,84.636,0,0,1,1.03,11.275c.326,6.346-2.047,12.516-4.394,17.634.09,14.136.7,30.121.688,44.347,12.1,7.99,40.8,3.359,42.984-.593" transform="translate(-241.77 -183.022)" fill="#fadee1"/>
    <path id="Trazado_21349" data-name="Trazado 21349" d="M265.578,283.468s6.719,3.591,22.866,3.159c15.449-.414,21.012-3.5,21.012-3.5s2.129,22.316,3.226,30.283,1.374,15.929,1.374,15.929-3.159.139-11.262,1.374c-8.889,1.356-10.985,2.335-10.985,2.335s-2.288-11.016-2.54-12.531A7.731,7.731,0,0,0,287,315.981l-1.752,17.2s-4.017.927-12.051.719c-7.844-.2-10.3-1.235-10.3-1.235a134.6,134.6,0,0,1-.722-27.6C263.382,291.129,265.578,283.468,265.578,283.468Z" transform="translate(-244.012 -132.266)" fill="#ffd54f"/>
    <path id="Trazado_21350" data-name="Trazado 21350" d="M270.312,241.807c.688-5.239.069-10.856-.411-11.866s-2.815-2.083-3.983,2.209-.55,11.172.275,15.4a36.809,36.809,0,0,0,1.993,6.626S269.626,247.044,270.312,241.807Z" transform="translate(-238.516 -217.097)" fill="#aa4f20"/>
    <path id="Trazado_21351" data-name="Trazado 21351" d="M290.105,224.417c-9.683.506-21.15,8.9-22.8,11.781-1.754,3.069.026,3.506.026,3.506s7.8-4.423,16.25-3.919,14.6,5.807,16.068,5.149c3.365-1.5-2.2-5.725-2.2-5.725s4.738,3.6,6.043,1.125c1.2-2.276-2.815-4.469-2.815-4.469s2.884,1.893,3.226-.064S299.785,223.911,290.105,224.417Z" transform="translate(-236.54 -224.386)" fill="#aa4f20"/>
    <g id="Grupo_6182" data-name="Grupo 6182" transform="translate(3.077 200.402)" style="mix-blend-mode: multiply;isolation: isolate">
      <path id="Trazado_21352" data-name="Trazado 21352" d="M258.4,311.411a1.509,1.509,0,0,1-.2.288c-.1-.218-.188-.437-.277-.665a22.258,22.258,0,0,1-.789-2.491,25.8,25.8,0,0,1-1.084-5.884c-.01-.3.357-.336.359-.039C256.469,306.212,258.4,311.411,258.4,311.411Z" transform="translate(-256.053 -302.414)" fill="#c1b1b3"/>
    </g>
    <g id="Grupo_6183" data-name="Grupo 6183" transform="translate(5.164 200.269)" style="mix-blend-mode: multiply;isolation: isolate">
      <path id="Trazado_21353" data-name="Trazado 21353" d="M260.7,312.825a1.986,1.986,0,0,1-.08.349,8.605,8.605,0,0,1-.686-1.084,17.808,17.808,0,0,1-1.354-2.561,23.76,23.76,0,0,1-.917-3.067,34.254,34.254,0,0,1-.8-3.842c-.041-.259.349-.37.388-.11a44.465,44.465,0,0,0,1.859,7.014C259.645,310.862,260.7,312.825,260.7,312.825Z" transform="translate(-256.866 -302.362)" fill="#c1b1b3"/>
    </g>
    <g id="Grupo_6184" data-name="Grupo 6184" transform="translate(7.654 199.725)" style="mix-blend-mode: multiply;isolation: isolate">
      <path id="Trazado_21354" data-name="Trazado 21354" d="M261.1,310.9a7.924,7.924,0,0,1,.2,1.1c-.339-.588-.616-1.2-.9-1.772-.457-.937-.835-1.9-1.2-2.879a22.142,22.142,0,0,1-1.364-4.988c-.039-.3.347-.259.4.049A60.811,60.811,0,0,0,261.1,310.9Z" transform="translate(-257.835 -302.151)" fill="#c1b1b3"/>
    </g>
    <g id="Grupo_6185" data-name="Grupo 6185" transform="translate(81.704 193.563)" style="mix-blend-mode: multiply;isolation: isolate">
      <path id="Trazado_21355" data-name="Trazado 21355" d="M287.83,305.421a32.858,32.858,0,0,1-.745,6.96,2.912,2.912,0,0,1-.349.028.661.661,0,0,1-.069.121,32.191,32.191,0,0,0,.717-7.04c-.01-1.066-.069-2.132-.159-3.195a14,14,0,0,1-.18-2.4c.021-.118.149-.2.239-.1.5.485.478,1.621.509,2.26C287.841,303.172,287.841,304.3,287.83,305.421Z" transform="translate(-286.667 -299.751)" fill="#c1b1b3"/>
    </g>
    <g id="Grupo_6186" data-name="Grupo 6186" transform="translate(83.019 192.639)" style="mix-blend-mode: multiply;isolation: isolate">
      <path id="Trazado_21356" data-name="Trazado 21356" d="M289.239,303.566a32.532,32.532,0,0,1-.367,3.285,41.11,41.11,0,0,1-1.294,5.7.722.722,0,0,1-.4.028,48.061,48.061,0,0,0,1.1-5.594,32.964,32.964,0,0,0,.357-3.6,25.218,25.218,0,0,1-.018-3.863c.039-.2.288-.149.347,0A9.848,9.848,0,0,1,289.239,303.566Z" transform="translate(-287.179 -299.392)" fill="#c1b1b3"/>
    </g>
    <g id="Grupo_6187" data-name="Grupo 6187" transform="translate(65.952 250.668)" style="mix-blend-mode: multiply;isolation: isolate">
      <path id="Trazado_21357" data-name="Trazado 21357" d="M280.85,324.473a9.9,9.9,0,0,0,1.4.11,4.409,4.409,0,0,0,1.364-.259,3.034,3.034,0,0,0,2.055-1.952.306.306,0,0,0-.444-.342c-.37.224-.665.542-1.014.773a4.43,4.43,0,0,1-.966.516,8.207,8.207,0,0,1-1.153.306,9.368,9.368,0,0,1-1.246.2.326.326,0,0,0,0,.652Z" transform="translate(-280.534 -321.986)" fill="#c1b1b3"/>
    </g>
    <g id="Grupo_6188" data-name="Grupo 6188" transform="translate(30.244 250.988)" style="mix-blend-mode: multiply;isolation: isolate">
      <path id="Trazado_21358" data-name="Trazado 21358" d="M266.817,322.852a11.692,11.692,0,0,0,2.725,1.443c.9.3,2.419.444,2.913-.588a.338.338,0,0,0-.288-.5,4.843,4.843,0,0,0-.665.11,3.662,3.662,0,0,1-.565.095,3.986,3.986,0,0,1-1.269-.146,11.268,11.268,0,0,1-2.45-1.1.4.4,0,0,0-.4.686Z" transform="translate(-266.631 -322.11)" fill="#c1b1b3"/>
    </g>
    <g id="Grupo_6189" data-name="Grupo 6189" transform="translate(32.961 255.289)" style="mix-blend-mode: multiply;isolation: isolate">
      <path id="Trazado_21359" data-name="Trazado 21359" d="M267.941,324.546a4.77,4.77,0,0,0,1.194.031,2.266,2.266,0,0,0,.586-.11,2.5,2.5,0,0,0,.3-.128.836.836,0,0,0,.221-.193.2.2,0,0,0-.141-.344.872.872,0,0,0-.272-.008c-.09.013-.1.015-.193.023s-.2.026-.3.044c-.01,0-.141.023-.085.015-.044.005-.085.01-.129.013a4.26,4.26,0,0,1-.511.021c-.087,0-.175-.008-.259-.013l-.129-.013-.074-.01-.015,0a.364.364,0,0,0-.431.244.353.353,0,0,0,.244.431Z" transform="translate(-267.689 -323.785)" fill="#c1b1b3"/>
    </g>
    <g id="Grupo_6190" data-name="Grupo 6190" transform="translate(22.775 352.202)" style="mix-blend-mode: multiply;isolation: isolate">
      <path id="Trazado_21360" data-name="Trazado 21360" d="M265.121,366.229a3.3,3.3,0,0,1,.164-2.206c.128-.329.331-.668.5-1.017a2.154,2.154,0,0,0,.349-1.248.345.345,0,0,0-.414-.234c-.455.074-.848.578-1.092.943a5.769,5.769,0,0,0-.655,1.315,4.447,4.447,0,0,0-.249,1.372,3.072,3.072,0,0,0,.36,1.513.57.57,0,0,0,1.038-.437Z" transform="translate(-263.723 -361.519)" fill="#c1b1b3"/>
    </g>
    <g id="Grupo_6191" data-name="Grupo 6191" transform="translate(18.443 353.881)" style="mix-blend-mode: multiply;isolation: isolate">
      <path id="Trazado_21361" data-name="Trazado 21361" d="M262.914,364.65c.08-.362.175-.722.288-1.076.056-.172.1-.352.144-.529a2.308,2.308,0,0,0,.08-.3,1.285,1.285,0,0,0-.041-.354.3.3,0,0,0-.434-.177,1.316,1.316,0,0,0-.267.221,1.462,1.462,0,0,0-.144.29,5.9,5.9,0,0,0-.229.58,10.955,10.955,0,0,0-.265,1.1.45.45,0,1,0,.868.239Z" transform="translate(-262.036 -362.172)" fill="#c1b1b3"/>
    </g>
    <g id="Grupo_6192" data-name="Grupo 6192" transform="translate(15.45 353.956)" style="mix-blend-mode: multiply;isolation: isolate">
      <path id="Trazado_21362" data-name="Trazado 21362" d="M261.555,363.754a3.093,3.093,0,0,1,.082-.347c.018-.056.038-.113.059-.169l.033-.087c-.005.013-.026.062-.008.02l.021-.046c.054-.113.126-.216.172-.329l.039-.1.015-.041c0,.01-.026.056-.008.018s.044-.092.069-.136a.228.228,0,0,0-.033-.272.233.233,0,0,0-.275-.036,1.709,1.709,0,0,0-.3.208,1.172,1.172,0,0,0-.242.354,3.189,3.189,0,0,0-.3.776.35.35,0,0,0,.675.185Z" transform="translate(-260.87 -362.202)" fill="#c1b1b3"/>
    </g>
    <g id="Grupo_6193" data-name="Grupo 6193" transform="translate(68.739 330.365)" style="mix-blend-mode: multiply;isolation: isolate">
      <path id="Trazado_21363" data-name="Trazado 21363" d="M281.688,353.347a9.6,9.6,0,0,0,.008,2.319,2.243,2.243,0,0,0,.465,1.038,1.23,1.23,0,0,0,.444.349.9.9,0,0,0,.737.067.285.285,0,0,0,.123-.47,1.218,1.218,0,0,0-.241-.2c-.067-.036-.134-.072-.2-.11-.039-.028-.041-.028,0,0l-.1-.077c-.018-.01-.116-.09-.044-.028-.051-.046-.1-.1-.149-.144-.064-.064.026.044-.021-.026-.021-.036-.046-.069-.067-.1s-.041-.072-.059-.11c-.008-.015-.051-.11-.018-.033a2.346,2.346,0,0,1-.139-.47,5.133,5.133,0,0,1-.075-.986c0-.339.015-.675.023-1.012.008-.444-.66-.437-.686,0Z" transform="translate(-281.619 -353.016)" fill="#c1b1b3"/>
    </g>
    <g id="Grupo_6194" data-name="Grupo 6194" transform="translate(31.938 108.396)" style="mix-blend-mode: multiply;isolation: isolate">
      <path id="Trazado_21364" data-name="Trazado 21364" d="M267.652,268a36.212,36.212,0,0,1,5.165-.5,17.818,17.818,0,0,0,4.926-.586c.164-.059.162-.321-.033-.324-.865-.008-1.741.108-2.607.151-.85.044-1.7.1-2.553.149a35.679,35.679,0,0,0-5.039.532c-.375.074-.234.645.141.575Z" transform="translate(-267.29 -266.591)" fill="#d7cdce"/>
    </g>
    <g id="Grupo_6195" data-name="Grupo 6195" transform="translate(44.473 107.445)" style="mix-blend-mode: multiply;isolation: isolate">
      <path id="Trazado_21365" data-name="Trazado 21365" d="M272.317,267.349c2.617.08,5.239-.082,7.854-.18,1.289-.046,2.573-.131,3.86-.182a25.4,25.4,0,0,0,3.8-.229.173.173,0,0,0,.008-.331,12.627,12.627,0,0,0-3.642-.146c-1.269.062-2.532.152-3.8.288a65.338,65.338,0,0,1-8.08.47.156.156,0,0,0-.008.311Z" transform="translate(-272.171 -266.221)" fill="#d7cdce"/>
    </g>
    <g id="Grupo_6196" data-name="Grupo 6196" transform="translate(36.496 32.245)">
      <path id="Trazado_21366" data-name="Trazado 21366" d="M269.078,240.246a3.537,3.537,0,0,1,.47-2.114,2.372,2.372,0,0,1,1.824-1.184,2.31,2.31,0,0,1,1.674.57,3.391,3.391,0,0,1,1.11,2.327l-2.121.169a1.316,1.316,0,0,0-.372-.876l-.3.105a1.433,1.433,0,0,0-.167.835Z" transform="translate(-269.065 -236.941)" fill="#28121e"/>
    </g>
    <g id="Grupo_6197" data-name="Grupo 6197" transform="translate(53.934 32.018)">
      <path id="Trazado_21367" data-name="Trazado 21367" d="M278.82,238.775c.087,1.125-.5,2.091-1.318,2.155s-1.551-.8-1.639-1.921.5-2.088,1.318-2.152S278.73,237.65,278.82,238.775Z" transform="translate(-275.854 -236.853)" fill="#28121e"/>
    </g>
    <g id="Grupo_6198" data-name="Grupo 6198" transform="translate(34.454 27.226)">
      <path id="Trazado_21368" data-name="Trazado 21368" d="M269.439,238.655,268.27,236.9c.221-.149,5.519-3.6,11.039-.853l-.943,1.888C273.933,235.722,269.485,238.627,269.439,238.655Z" transform="translate(-268.27 -234.987)" fill="#ff7454"/>
    </g>
    <g id="Grupo_6199" data-name="Grupo 6199" transform="translate(47.566 26.052)">
      <path id="Trazado_21369" data-name="Trazado 21369" d="M275.532,251.641l-.421-2.065a2.226,2.226,0,0,0,.858-.277c-.075-.085-.491-.9-.858-1.615-.311-.611-.678-1.328-1.058-2.175a7.94,7.94,0,0,1-.4-1.11,7.521,7.521,0,0,1,1.125-6.369,8.227,8.227,0,0,1,6.169-3.47,10.056,10.056,0,0,1,5.3,1.025l-.94,1.888a8.019,8.019,0,0,0-4.21-.809,6.136,6.136,0,0,0-4.6,2.579,5.357,5.357,0,0,0-.817,4.592,5.718,5.718,0,0,0,.293.812c.362.809.714,1.495,1.012,2.075.791,1.546,1.312,2.566.83,3.57A2.968,2.968,0,0,1,275.532,251.641Z" transform="translate(-273.375 -234.53)" fill="#ff7454"/>
    </g>
    <g id="Grupo_6200" data-name="Grupo 6200" transform="translate(44.933 46.995)">
      <path id="Trazado_21370" data-name="Trazado 21370" d="M275.445,246.144a6.263,6.263,0,0,1-3.095-.8l1.076-1.816a4.021,4.021,0,0,0,5-.84l1.523,1.461A6.106,6.106,0,0,1,275.445,246.144Z" transform="translate(-272.35 -242.684)" fill="#ff7454"/>
    </g>
  </g>
</svg>
