<svg id="Grupo_6295" data-name="Grupo 6295" xmlns="http://www.w3.org/2000/svg" width="136.127" height="366.797" viewBox="0 0 136.127 366.797">
  <ellipse id="Elipse_532" data-name="Elipse 532" cx="58.696" cy="157.943" rx="58.696" ry="157.943" transform="translate(7.002 28.512)" fill="#f8f3ff"/>
  <g id="Grupo_6278" data-name="Grupo 6278">
    <g id="Grupo_6276" data-name="Grupo 6276">
      <g id="Grupo_6267" data-name="Grupo 6267" transform="translate(0 47.731)">
        <path id="Trazado_21463" data-name="Trazado 21463" d="M49.912,242.691a2.628,2.628,0,0,1,.426-.5l-.013-.321Z" transform="translate(-3.682 -238.36)" fill="#ed744d"/>
        <path id="Trazado_21464" data-name="Trazado 21464" d="M156.42,351.953c-4.531,2.887-7-1.035-7-1.035a9,9,0,0,1-3.5.419c-2.679,0-9.061-.827-9.061-.827l-1.035,10.3s-7,2.26-24.515,4.731-48.2-2.471-48.2-2.471l1.443-7s-10.923,5.147-18.959-1.654-9.058-39.963-9.058-39.963A42.536,42.536,0,0,1,32,298.187c-.619-9.269,1.641-19.573,16.268-27.6a165.94,165.94,0,0,1,30.9-12.574l-.336-7.7-.27-5.984c4.43-4.2,29.441-3.822,29.441-3.822l1.035,9.5.827,7.6s33.784,6.382,39.339,10.5,10.712,21.425,13.6,42.026S160.958,349.066,156.42,351.953Z" transform="translate(-31.912 -240.502)" fill="#ed744d"/>
      </g>
      <path id="Trazado_21465" data-name="Trazado 21465" d="M43.789,303.808c-.4.719-1.649,18.677,0,31.31s4.669,32.412,4.669,32.412-6.043,17.3-5.219,24.718,8.514,47.791,8.514,47.791-3.3,11.812-2.2,15.107,11,7.867,22.66,10.027c11.123,2.06,14.693,3.133,19.006,1.749,2.959-.948,6.631-5.928,3.1-7.931a40.584,40.584,0,0,0-7.89-3.213L69.883,440.315s4.12-42.023,4.669-54.931-.275-15.657-.275-15.657,1.1-1.1,3.3-8.789,5.219-49.715,5.494-54.659S49.008,294.47,43.789,303.808Z" transform="translate(-14.587 -100.748)" fill="#ed744d"/>
      <path id="Trazado_21466" data-name="Trazado 21466" d="M60.393,306.618s6.318,29.939,9.338,43.672,4.944,17.578,4.944,17.578-5.768,15.656-6.318,28.565,8.789,49.99,8.514,51.639-3.845,13.458-1.1,17.028,43.4,2.473,46.417.824-.275-5.768-4.12-6.593a11.683,11.683,0,0,0-6.043,0S96.922,447.8,95.548,444.773s5.494-72.237,6.593-78.552,1.718-43.536-2.954-59.739S61.492,295.358,60.393,306.618Z" transform="translate(12.756 -105.481)" fill="#ed744d"/>
      <path id="Trazado_21467" data-name="Trazado 21467" d="M125.989,306.037c-.822-14.95-2.34-30.242-6.516-44.668a107.175,107.175,0,0,0-4.263-12.027c-.4-.937-.966-.842-1.9-1.009-.837-.151-1.677-.3-2.514-.452a.6.6,0,0,0-.732.732,14.373,14.373,0,0,1-2.427,13.615c-3.408,4.14-8.612,6.6-13.717,7.887A40.907,40.907,0,0,1,60.743,263.7a103.887,103.887,0,0,1-13.034-11.229.753.753,0,0,0-.886-.113l-6.459,3.285a.748.748,0,0,0,0,1.282,22.238,22.238,0,0,1,5.643,4.754,61.769,61.769,0,0,1,4.715,5.609,42.849,42.849,0,0,1,7.327,17.064c2.961,14.064.693,28.362-2.589,42.159-1.9,7.982-4.114,15.934-5.214,24.078a.7.7,0,0,0,.208.6.528.528,0,0,0,.316.6,46.311,46.311,0,0,0,10.769,2.627c5.126.778,10.3,1.269,15.477,1.556a164.887,164.887,0,0,0,33.668-1.223,64.836,64.836,0,0,0,7.525-1.541c1.88-.519,4.1-1.128,5.489-2.568a.559.559,0,0,0-.1-.889c2.085-6.251,2.2-13.032,2.52-19.55A231.943,231.943,0,0,0,125.989,306.037Z" transform="translate(-19.225 -181.216)" fill="#fadee1"/>
      <path id="Trazado_21468" data-name="Trazado 21468" d="M80.554,250.008a37.335,37.335,0,0,1-7.625,3.167c-5.447,1.184-9.986.616-15.443-.311-1.811-.308-4.849-1.693-7.137-2.548l-.27-5.984c4.43-4.2,29.441-3.822,29.441-3.822Z" transform="translate(-3.421 -192.77)" fill="#c1b1b3" style="mix-blend-mode: multiply;isolation: isolate"/>
      <path id="Trazado_21469" data-name="Trazado 21469" d="M69.153,222.069c-7.417.824-14.832,1.235-20.6,8.239-4.908,5.961-3.09,16.275-1.235,25.339s4.12,19.982,8.034,21.217,16.686,4.325,25.75,2.06,12.153-7.415,15.448-14.627c2.72-5.951-2.471-26.367-5.149-32.959S77.772,221.111,69.153,222.069Z" transform="translate(-10.767 -221.917)" fill="#ed744d"/>
      <path id="Trazado_21470" data-name="Trazado 21470" d="M53.168,237.936s-4.636-4.12-7.52-2.163-1.338,9.475,2.576,9.991A7.187,7.187,0,0,0,54.3,243.91Z" transform="translate(-12.704 -201.013)" fill="#ed744d"/>
      <path id="Trazado_21471" data-name="Trazado 21471" d="M48.2,277.608c.683-.545,25.2-5.974,41.473-6.8a263.426,263.426,0,0,1,32.685.686s-4.461,5.769-18.263,15.243S80.745,301.3,66.324,305.213a150.49,150.49,0,0,1-24.512,4.739S43.047,281.73,48.2,277.608Z" transform="translate(-16.385 -145.619)" fill="#ed744d"/>
      <path id="Trazado_21472" data-name="Trazado 21472" d="M102.312,303.645s-7.967.131-21.836-2.2a63.05,63.05,0,0,1-15.282-4.5c-.38-.159-.737-.318-1.066-.478a32.077,32.077,0,0,1-4.81-2.707L57.4,272.74s12.636-1.374,24.861-2.06a78.433,78.433,0,0,1,15.752.717c.149.021.3.039.439.059v.01a49.329,49.329,0,0,1,5.1,1.007s6.313,2.748,7.14,12.076S102.312,303.645,102.312,303.645Z" transform="translate(8.057 -145.628)" fill="#ed744d"/>
      <path id="Trazado_21473" data-name="Trazado 21473" d="M46.415,287.457a230.759,230.759,0,0,0,41.818,2.679c21.22-.824,32.754-3.914,32.754-3.914a26.825,26.825,0,0,0-.205,5.56c.205,3.092,6.385,26.164,7.417,30.078a60.436,60.436,0,0,1,1.441,7.415,205.71,205.71,0,0,0-21.63,3.914c-11.242,2.622-16.892,5.355-16.892,5.355s-1.854-6.8-2.471-10.3-1.03-5.15-1.03-5.15l-2.884,15.038s-8.653.824-22.66-.824c-12.521-1.472-19.363-3.914-19.363-3.914s-.619-15.243.616-25.955S46.415,287.457,46.415,287.457Z" transform="translate(-15.222 -121.065)" fill="#ffd54f"/>
      <g id="Grupo_6268" data-name="Grupo 6268" transform="translate(44.121 259.216)" style="mix-blend-mode: multiply;isolation: isolate">
        <path id="Trazado_21474" data-name="Trazado 21474" d="M49.137,323.582c1.094,2.486.809,5.658,2.81,7.726a6.317,6.317,0,0,0,3.547,1.587,16.483,16.483,0,0,0,2.075.208,3.669,3.669,0,0,0,1.816-.241c.257-.121.136-.455-.072-.539a5.393,5.393,0,0,0-1.744-.252,14.471,14.471,0,0,1-1.849-.249,5.309,5.309,0,0,1-3.136-1.572,9.6,9.6,0,0,1-1.413-3.506,19.916,19.916,0,0,0-1.2-3.65c-.28-.565-1.079-.069-.832.488Z" transform="translate(-49.091 -322.845)" fill="#c1b1b3"/>
      </g>
      <g id="Grupo_6269" data-name="Grupo 6269" transform="translate(106.557 255.744)" style="mix-blend-mode: multiply;isolation: isolate">
        <path id="Trazado_21475" data-name="Trazado 21475" d="M73.448,322.186c.473,1.04.791,2.142,1.223,3.2a8.325,8.325,0,0,0,.814,1.567,2.325,2.325,0,0,0,1.356,1.117.362.362,0,0,0,.439-.439,4.888,4.888,0,0,0-.768-1.377,16.446,16.446,0,0,1-.809-1.495c-.5-1-.912-2.052-1.461-3.033-.3-.524-1.032-.064-.794.462Z" transform="translate(-73.401 -321.493)" fill="#c1b1b3"/>
      </g>
      <g id="Grupo_6270" data-name="Grupo 6270" transform="translate(73.404 358.985)" style="mix-blend-mode: multiply;isolation: isolate">
        <path id="Trazado_21476" data-name="Trazado 21476" d="M60.807,362.537c2.121.393,3.6,1.865,5.275,3.1.329.244,1.061.824,1.451.416.429-.444-.434-.948-.719-1.161-.819-.616-1.641-1.248-2.489-1.821a8.189,8.189,0,0,0-3.287-1.371c-.544-.085-.786.737-.231.84Z" transform="translate(-60.492 -361.691)" fill="#c1b1b3"/>
      </g>
      <g id="Grupo_6271" data-name="Grupo 6271" transform="translate(73.716 362.175)" style="mix-blend-mode: multiply;isolation: isolate">
        <path id="Trazado_21477" data-name="Trazado 21477" d="M60.874,363.93c.488.288.955.609,1.415.94.221.159.439.326.66.483a2.454,2.454,0,0,0,.362.193,1.251,1.251,0,0,0,.511.108.336.336,0,0,0,.324-.424,1.4,1.4,0,0,0-.231-.431,2.718,2.718,0,0,0-.285-.285c-.244-.2-.514-.38-.773-.565-.467-.331-.943-.655-1.441-.945a.544.544,0,0,0-.735.193.549.549,0,0,0,.193.735Z" transform="translate(-60.614 -362.933)" fill="#c1b1b3"/>
      </g>
      <g id="Grupo_6272" data-name="Grupo 6272" transform="translate(71.686 364.879)" style="mix-blend-mode: multiply;isolation: isolate">
        <path id="Trazado_21478" data-name="Trazado 21478" d="M60.19,364.98c.421.128.853.221,1.264.37.026.008.136.036.144.054-.005-.008-.1-.044-.031-.013l.074.036c.092.044.185.09.275.139.041.023.082.049.123.074l.064.044c.051.036,0,0-.021-.015a.722.722,0,0,0,.29.139,1.072,1.072,0,0,1,.128.038.338.338,0,0,0,.424-.324,1.027,1.027,0,0,0-.1-.429,1.114,1.114,0,0,0-.285-.285,2.8,2.8,0,0,0-.74-.4c-.437-.169-.9-.265-1.343-.4a.51.51,0,0,0-.622.354.517.517,0,0,0,.352.621Z" transform="translate(-59.823 -363.986)" fill="#c1b1b3"/>
      </g>
      <g id="Grupo_6273" data-name="Grupo 6273" transform="translate(42.317 337.587)" style="mix-blend-mode: multiply;isolation: isolate">
        <path id="Trazado_21479" data-name="Trazado 21479" d="M48.408,354.132c.226.963.288,1.957.568,2.91a4.525,4.525,0,0,0,.66,1.423c.352.467,1.066.973,1.644.6a.43.43,0,0,0,.193-.475.891.891,0,0,0-.2-.39c-.069-.074-.149-.141-.218-.218-.039-.041-.221-.267-.113-.116-.054-.077-.11-.151-.167-.223s-.077-.105-.015-.013a4.9,4.9,0,0,1-.342-.6c-.08-.162.049.134-.018-.039-.021-.051-.041-.105-.059-.157-.044-.118-.082-.236-.118-.354-.27-.881-.375-1.8-.619-2.686a.623.623,0,0,0-1.2.331Z" transform="translate(-48.388 -353.359)" fill="#c1b1b3"/>
      </g>
      <g id="Grupo_6274" data-name="Grupo 6274" transform="translate(96.273 339.002)" style="mix-blend-mode: multiply;isolation: isolate">
        <path id="Trazado_21480" data-name="Trazado 21480" d="M69.4,354.339a4.839,4.839,0,0,0,.781,2.389,3.55,3.55,0,0,0,.917.889,2.4,2.4,0,0,0,.6.3,1,1,0,0,0,.735-.054.266.266,0,0,0,.1-.362,1.369,1.369,0,0,0-.475-.424c-.154-.087-.318-.157-.47-.249-.077-.049-.152-.1-.221-.151.077.059-.026-.026-.033-.031l-.09-.08c-.064-.059-.123-.121-.182-.185l-.09-.105c-.062-.074.033.049-.028-.036a3.7,3.7,0,0,1-.265-.429c-.041-.08-.08-.159-.116-.241.033.08-.018-.046-.018-.051l-.044-.118a5.036,5.036,0,0,1-.241-1.061.442.442,0,0,0-.429-.429.431.431,0,0,0-.426.429Z" transform="translate(-69.396 -353.91)" fill="#c1b1b3"/>
      </g>
      <g id="Grupo_6275" data-name="Grupo 6275" transform="translate(72.186 125.709)" style="mix-blend-mode: multiply;isolation: isolate">
        <path id="Trazado_21481" data-name="Trazado 21481" d="M94.4,271.421c-.786,1.413-2.568,2.468-3.8,3.485-1.353,1.115-2.728,2.229-4.112,3.323-2.669,2.111-5.376,4.194-8.144,6.195-5.686,4.132-11.2,8.493-17.254,12.045-.38-.159-.737-.318-1.066-.478,5.894-3.722,12.017-8.224,17.593-12.356,2.918-2.16,5.8-4.351,8.632-6.621q2.061-1.657,4.091-3.344c1.1-.917,2.211-2.222,3.565-2.748a.293.293,0,0,1,.08-.041.316.316,0,0,1,.36.1v.01A.4.4,0,0,1,94.4,271.421Z" transform="translate(-60.018 -270.863)" fill="#c1b1b3"/>
      </g>
      <path id="Trazado_21482" data-name="Trazado 21482" d="M71.013,275.039c-4.808,1.436-8.981,9.012-11.313,8.463a1.35,1.35,0,0,1-1.184-1.382,4.313,4.313,0,0,1,.588-1.931c-.211.336-.678,1.1-1.284,1.939-1.2,1.664-2.938,3.634-4.163,3.228-1.264-.429-1.312-2.093-1.163-3.316v-.021a9.648,9.648,0,0,1,.267-1.336s-.357.678-.935,1.533l-.01.01c-1,1.484-2.638,3.516-4.2,3.606-1.592.09-1.395-1.693-1.045-2.979v-.018c.18-.627.378-1.135.419-1.235a2.558,2.558,0,0,1-.637.526,2.7,2.7,0,0,1-3-.277c-1.752-1.135,8.273-13.512,12.495-12.775A40.2,40.2,0,0,1,71.013,275.039Z" transform="translate(-14.288 -148.007)" fill="#ed744d"/>
      <path id="Trazado_21483" data-name="Trazado 21483" d="M71.063,275.05l-.136-.092-.031-.018-.023-.015-.087-.059c-2.468,1.2-4.412,3.216-6.336,5.119a15.6,15.6,0,0,1-3.18,2.679c-.691.385-1.793.891-2.106-.164a3.862,3.862,0,0,1,.75-2.9,27.379,27.379,0,0,1,1.98-2.8c.349-.439.717-.876,1.107-1.284.318-.349.945-.747,1.035-1.235.018-.1-.041-.239-.17-.229-.519.059-.9.637-1.225,1-.419.457-.817.925-1.194,1.413-1.944,2.453-3.388,5.376-5.609,7.595-.891.891-2.7,2.011-2.979-.01a10.419,10.419,0,0,1,.444-3.388c.362-.683.735-1.361,1.145-2.026a26.421,26.421,0,0,1,2.24-3.115c.378-.467.776-.917,1.184-1.354.36-.4.935-.817,1.066-1.356a.193.193,0,0,0-.239-.239c-.519.131-.886.658-1.235,1.045-.447.5-.876,1.007-1.294,1.533a40.7,40.7,0,0,0-3.4,5.34,15.661,15.661,0,0,1-3.549,4.68,2.568,2.568,0,0,1-1.582.768c-.943-.092-1.068-1.187-1.007-1.857a9.468,9.468,0,0,1,.778-2.8.328.328,0,0,0,.026-.136,24.335,24.335,0,0,1,3.254-5.031c.747-.866,1.484-1.752,2.281-2.579.367-.388.765-.776,1.163-1.135.259-.239.806-.526.876-.886a.1.1,0,0,0-.108-.139c-.36-.039-.737.408-.976.627-.439.39-.855.806-1.274,1.225-.858.858-1.693,1.713-2.471,2.64a24.64,24.64,0,0,0-1.98,2.758,16.474,16.474,0,0,1-1.51,2.527c-.552.616-1.487,1.428-2.371,1.03-1.163-.527-.383-2.1.049-2.895a26.591,26.591,0,0,1,3.272-4.726,33.153,33.153,0,0,1,2.781-2.656,14.834,14.834,0,0,1,4.03-2.6l.013-.288a17.435,17.435,0,0,0-2.555,1.176,18.36,18.36,0,0,0-2.586,2.16,27.475,27.475,0,0,0-4.636,5.345c-.77,1.158-2.35,3.316-1.176,4.695.8.945,1.978.514,2.887-.159-.529,1.805-.848,4.428,1.366,4.3,1.271-.072,2.311-1.31,3.061-2.206a22.329,22.329,0,0,0,1.618-2.245c-.3,1.865-.326,4.3,1.937,3.7,1.754-.465,3.041-2.376,4.107-4.043a1.932,1.932,0,0,0,.475,1.7c.858.76,2.1-.074,2.828-.6,3.277-2.394,5.622-5.943,9.374-7.7A.839.839,0,0,0,71.063,275.05Z" transform="translate(-14.372 -148.044)" fill="#c2b3b5" style="mix-blend-mode: multiply;isolation: isolate"/>
    </g>
    <g id="Grupo_6277" data-name="Grupo 6277" transform="translate(63.18 120.357)" style="mix-blend-mode: multiply;isolation: isolate">
      <path id="Trazado_21484" data-name="Trazado 21484" d="M56.968,272.747c5.078-1.878,10.571-2.368,15.942-2.571,2.689-.1,5.378-.118,8.07-.1a36.479,36.479,0,0,0,7.692-.3.3.3,0,0,0,0-.583,38.294,38.294,0,0,0-7.692-.419c-2.828-.013-5.661,0-8.486.154a48.56,48.56,0,0,0-15.728,3.072c-.442.182-.262.909.2.737Z" transform="translate(-56.511 -268.779)" fill="#d7cdce"/>
    </g>
  </g>
  <g id="Grupo_6294" data-name="Grupo 6294" transform="translate(50.587 18.22)">
    <g id="Grupo_6279" data-name="Grupo 6279" transform="translate(23.462 6.221)">
      <path id="Trazado_21485" data-name="Trazado 21485" d="M63.8,233.279c.19,1.151-.334,2.193-1.169,2.329s-1.662-.683-1.852-1.834.336-2.191,1.169-2.327S63.614,232.131,63.8,233.279Z" transform="translate(-60.743 -231.433)" fill="#28121e"/>
    </g>
    <g id="Grupo_6280" data-name="Grupo 6280" transform="translate(8.067 7.757)">
      <path id="Trazado_21486" data-name="Trazado 21486" d="M57.808,233.88c.19,1.148-.334,2.191-1.169,2.327s-1.662-.683-1.852-1.831.336-2.191,1.169-2.329S57.62,232.732,57.808,233.88Z" transform="translate(-54.749 -232.031)" fill="#28121e"/>
    </g>
    <g id="Grupo_6281" data-name="Grupo 6281" transform="translate(3.025 2.497)">
      <path id="Trazado_21487" data-name="Trazado 21487" d="M54.137,234.261c.044-.033,4.4-3.393,9.123-1.518l.8-2.021c-5.9-2.355-11.062,1.659-11.278,1.831Z" transform="translate(-52.786 -229.983)" fill="#bb5a38"/>
    </g>
    <g id="Grupo_6282" data-name="Grupo 6282" transform="translate(16.897)">
      <path id="Trazado_21488" data-name="Trazado 21488" d="M61.228,247.184a3.077,3.077,0,0,0,2.232-1.59c.411-1.074-.213-2.078-1.158-3.6-.357-.575-.778-1.251-1.22-2.052a6,6,0,0,1-.372-.809,5.519,5.519,0,0,1,.444-4.79,6.331,6.331,0,0,1,4.5-3.049,8.222,8.222,0,0,1,4.4.465l.8-2.021a10.391,10.391,0,0,0-5.542-.593,8.5,8.5,0,0,0-6.046,4.1,7.778,7.778,0,0,0-.606,6.649,8.3,8.3,0,0,0,.509,1.1c.465.84.9,1.546,1.279,2.147a10.233,10.233,0,0,1,.94,1.7c-.09-.031-.288.1-.778.247Z" transform="translate(-58.187 -229.011)" fill="#bb5a38"/>
    </g>
    <g id="Grupo_6283" data-name="Grupo 6283" transform="translate(15.569 22)">
      <path id="Trazado_21489" data-name="Trazado 21489" d="M60.924,241.391a6.3,6.3,0,0,0,4.459-2.442l-1.693-1.372a4.147,4.147,0,0,1-5.07,1.294l-.95,1.96A6.452,6.452,0,0,0,60.924,241.391Z" transform="translate(-57.67 -237.577)" fill="#bb5a38"/>
    </g>
    <g id="Grupo_6284" data-name="Grupo 6284" transform="translate(2.942 15.957)">
      <path id="Trazado_21490" data-name="Trazado 21490" d="M54.1,235.794a.678.678,0,1,1-.778-.56A.677.677,0,0,1,54.1,235.794Z" transform="translate(-52.754 -235.224)" fill="#bb5a38"/>
    </g>
    <g id="Grupo_6285" data-name="Grupo 6285" transform="translate(6.953 17.625)">
      <path id="Trazado_21491" data-name="Trazado 21491" d="M54.895,236.119a.292.292,0,1,1-.334-.241A.291.291,0,0,1,54.895,236.119Z" transform="translate(-54.316 -235.874)" fill="#bb5a38"/>
    </g>
    <g id="Grupo_6286" data-name="Grupo 6286" transform="translate(3.032 19.76)">
      <path id="Trazado_21492" data-name="Trazado 21492" d="M53.971,237.2a.595.595,0,1,1-.683-.491A.593.593,0,0,1,53.971,237.2Z" transform="translate(-52.789 -236.705)" fill="#bb5a38"/>
    </g>
    <g id="Grupo_6287" data-name="Grupo 6287" transform="translate(0 17.747)">
      <path id="Trazado_21493" data-name="Trazado 21493" d="M52.263,236.2a.329.329,0,1,1-.378-.272A.327.327,0,0,1,52.263,236.2Z" transform="translate(-51.608 -235.921)" fill="#bb5a38"/>
    </g>
    <g id="Grupo_6288" data-name="Grupo 6288" transform="translate(6.948 20.899)">
      <path id="Trazado_21494" data-name="Trazado 21494" d="M55.3,237.566a.5.5,0,1,1-.573-.411A.5.5,0,0,1,55.3,237.566Z" transform="translate(-54.313 -237.148)" fill="#bb5a38"/>
    </g>
    <g id="Grupo_6289" data-name="Grupo 6289" transform="translate(9.892 15.539)">
      <path id="Trazado_21495" data-name="Trazado 21495" d="M56.344,235.435a.443.443,0,0,1-.367.511.445.445,0,0,1-.144-.878A.442.442,0,0,1,56.344,235.435Z" transform="translate(-55.46 -235.062)" fill="#bb5a38"/>
    </g>
    <g id="Grupo_6290" data-name="Grupo 6290" transform="translate(10.381 18.165)">
      <path id="Trazado_21496" data-name="Trazado 21496" d="M55.66,236.983a.773.773,0,1,1,.889.637A.773.773,0,0,1,55.66,236.983Z" transform="translate(-55.65 -236.084)" fill="#bb5a38"/>
    </g>
    <g id="Grupo_6291" data-name="Grupo 6291" transform="translate(24.925 12.862)">
      <path id="Trazado_21497" data-name="Trazado 21497" d="M62.489,234.515a.592.592,0,1,1-.681-.488A.591.591,0,0,1,62.489,234.515Z" transform="translate(-61.313 -234.019)" fill="#bb5a38"/>
    </g>
    <g id="Grupo_6292" data-name="Grupo 6292" transform="translate(27.272 16.351)">
      <path id="Trazado_21498" data-name="Trazado 21498" d="M62.238,236.337a.824.824,0,1,1,.945.678A.823.823,0,0,1,62.238,236.337Z" transform="translate(-62.227 -235.378)" fill="#bb5a38"/>
    </g>
    <g id="Grupo_6293" data-name="Grupo 6293" transform="translate(28.774 13.34)">
      <path id="Trazado_21499" data-name="Trazado 21499" d="M63.768,234.608a.482.482,0,1,1-.552-.4A.484.484,0,0,1,63.768,234.608Z" transform="translate(-62.812 -234.205)" fill="#bb5a38"/>
    </g>
  </g>
</svg>
