<svg id="Grupo_6143" data-name="Grupo 6143" xmlns="http://www.w3.org/2000/svg" width="128.356" height="410.317" viewBox="0 0 128.356 410.317">
  <ellipse id="Elipse_524" data-name="Elipse 524" cx="58.696" cy="157.943" rx="58.696" ry="157.943" transform="translate(10.963 71.435)" fill="#f8f3ff"/>
  <path id="Trazado_21190" data-name="Trazado 21190" d="M144.922,59.9H128.033a2.045,2.045,0,0,1-1.978-2.563l8.152-31.049a2.044,2.044,0,0,1,3.945-.036l8.737,31.051A2.044,2.044,0,0,1,144.922,59.9Z" transform="translate(-74.633 -24.766)" fill="#ff5953"/>
  <g id="Grupo_6142" data-name="Grupo 6142" transform="translate(0 77.331)">
    <g id="Grupo_6125" data-name="Grupo 6125" transform="translate(96.738 115.225)">
      <g id="Grupo_6124" data-name="Grupo 6124" transform="translate(6.783 33.794)">
        <path id="Trazado_21191" data-name="Trazado 21191" d="M151.549,130.978l-3.123,2.116h0a3.258,3.258,0,0,1,1.2-4.1l2.789-1.79.8-1.233,1.153,3.516Z" transform="translate(-143.428 -92.391)" fill="#ffa181"/>
        <g id="Grupo_6122" data-name="Grupo 6122" transform="translate(0 24.412)">
          <path id="Trazado_21192" data-name="Trazado 21192" d="M158.136,126.377l-5.774,3.68-5.851-.555s.478-2.163,1.826-2.085a23.993,23.993,0,0,0,4.058-.426l3.719-3.4Z" transform="translate(-145.965 -120.534)" fill="#ff7e46"/>
          <path id="Trazado_21193" data-name="Trazado 21193" d="M156.451,124.215l-4.957,3.156-4.785-1.05s.614-1.741,1.721-1.541a19.963,19.963,0,0,0,3.4.057l3.418-2.435Z" transform="translate(-145.656 -122.402)" fill="#ff7e46"/>
          <path id="Trazado_21194" data-name="Trazado 21194" d="M157.99,125.011l-5.948,3.788-5.743-1.258s.737-2.091,2.068-1.852a23.87,23.87,0,0,0,4.079.069l4.1-2.923Z" transform="translate(-146.299 -121.721)" fill="#ff7e46"/>
        </g>
        <g id="Grupo_6123" data-name="Grupo 6123" transform="translate(0.622)">
          <path id="Trazado_21195" data-name="Trazado 21195" d="M148.837,136.8c.313,1.546,1.459,4.009,1.361,5.586-.18,2.81-.29,6.714,1.2,6.857,2.039.2,1.965-6.531,2.008-6.814a1.46,1.46,0,0,1,1.61-1.22h0a.85.85,0,0,1,.742.693l.213,2.979-.262,1.595,1.153,3.516s2.3-2.576,2.463-3.511c.455-2.643,1.865-6.411.932-8.332-.426-.878-5.126-8.45-5.126-8.45l-2.586-13.551a4,4,0,0,0-6.007-2.671h0l1.605,13.26a8.337,8.337,0,0,1,.5,4.2A17.288,17.288,0,0,0,148.837,136.8Z" transform="translate(-146.541 -112.897)" fill="#ffa181"/>
          <path id="Trazado_21196" data-name="Trazado 21196" d="M149.219,126.776a1.46,1.46,0,0,1,1.61-1.22.85.85,0,0,1,.742.693l.213,2.979s1.125-7.515-1.42-6.195C149.365,123.55,149.175,127.059,149.219,126.776Z" transform="translate(-142.351 -97.243)" fill="#ff7e46"/>
        </g>
      </g>
      <path id="Trazado_21197" data-name="Trazado 21197" d="M153.212,149.739l-9.554-42.986,7.3-7.014,3.788,3.757c4,3.968,5.7,9.428,5.974,15.056.519,10.707-1.061,31.786-1.061,31.786Z" transform="translate(-143.658 -99.739)" fill="#ffa181"/>
    </g>
    <g id="Grupo_6126" data-name="Grupo 6126" transform="translate(35.936 274.461)">
      <path id="Trazado_21198" data-name="Trazado 21198" d="M140.2,169.118s-3.68,20.606-3.68,27.412,2.943,10.3,1.839,11.958-2.758,1.472-3.126,5.152-4.048,6.624-9.934,6.624-5.645-4.644-4.97-6.439c.331-.878,5.889-7.361,7.543-12.878s-1.1-33.668-1.1-33.668S138.907,153.667,140.2,169.118Z" transform="translate(-119.984 -161.739)" fill="#ffa181"/>
    </g>
    <g id="Grupo_6127" data-name="Grupo 6127" transform="translate(82.745 274.411)">
      <path id="Trazado_21199" data-name="Trazado 21199" d="M151.427,168.8s-3.516,25-1.772,29.454c3.128,7.993,14.542,11.65,14.542,11.65s5.653.9,6.113,1.777-.141,2.979-4.117,3.575c-2,.3-4.161.521-5.815.67a9.065,9.065,0,0,1-4.828-.937,28.127,28.127,0,0,0-13.183-3.015s-4.127-.5-2.186-6.814-1.97-29.808-1.97-29.808S148.155,149.68,151.427,168.8Z" transform="translate(-138.21 -161.72)" fill="#ffa181"/>
    </g>
    <path id="Trazado_21200" data-name="Trazado 21200" d="M106.906,106.926s29.4,32.073,34.744,30.291,2.936-8.242-.223-12.027c-1.723-2.065-10.666-16.24-18.014-27.152S102.4,101.507,106.906,106.926Z" transform="translate(-105.96 6.568)" fill="#ff947a"/>
    <path id="Trazado_21201" data-name="Trazado 21201" d="M118.115,115.272l.118-.121a1.549,1.549,0,0,0-.118-2.245h0l.622-1.942h0a1.566,1.566,0,0,0,.113-2.042l-.3-.393,4.366-3.5,3.028.627s1.045,9.331-2.977,11.326S118.115,115.272,118.115,115.272Z" transform="translate(-86.98 23.784)" fill="#ffa181"/>
    <path id="Trazado_21202" data-name="Trazado 21202" d="M124.593,75.542c.842,10.664,9.5,18.679,19.345,17.9s17.346-10.073,16.3-20.719c-1.143-11.547-8.455-16.52-18.209-15C131.317,59.387,123.751,64.876,124.593,75.542Z" transform="translate(-76.921 -50.825)" fill="#ff5953"/>
    <path id="Trazado_21203" data-name="Trazado 21203" d="M177.793,92.745a14.485,14.485,0,0,1-2.71-12.31,24.85,24.85,0,0,0,.657-7.369c-.943-16.368-8.45-18.764-16.99-18.091A13.426,13.426,0,0,0,150.2,59.13a8.362,8.362,0,0,1-4.179,2.3,14.112,14.112,0,0,0-10.833,15.538,9.8,9.8,0,0,1-2.525,8.041,20.434,20.434,0,0,0-5.645,12.955,10.224,10.224,0,0,1-4.531,7.787,20.483,20.483,0,1,0,29.495,26.747,12.879,12.879,0,0,1,10.564-6.845c.177-.01.354-.021.532-.036C180.235,124.26,186.977,104.662,177.793,92.745Z" transform="translate(-94.192 -54.875)" fill="#ff5953"/>
    <path id="Trazado_21204" data-name="Trazado 21204" d="M161.884,143.153c-4.949-46.487-15.366-62.21-20.164-66,0,0-2.091,23.362-.979,40.78.657,10.33,6.873,27.458,11.568,26.212C161.587,141.684,161.884,143.153,161.884,143.153Z" transform="translate(-52.005 -19.941)" fill="#ffa181"/>
    <path id="Trazado_21205" data-name="Trazado 21205" d="M167.872,171.366s9.862-41.481,9.613-57.353c-.095-6.074-3.043-32.733-3.043-32.733s-13.448-7.068-23.68-6.752c-12.41.383-29.233,7.361-29.233,7.361s-2.869,9.033-1.7,17.873c1.829,13.766,8.136,30.093,9.338,34.449C142.145,181.121,154.984,178.9,167.872,171.366Z" transform="translate(-84.726 -24.071)" fill="#ffa181"/>
    <path id="Trazado_21206" data-name="Trazado 21206" d="M173.657,103.43c-4.554-7.482-6.118-16.555-5.2-25.4-1.307-.593-3.015-1.325-4.954-2.055a79.311,79.311,0,0,1-2.042,14.886c-1.045,4.135-2.532,9.693-7.209,10.99-5.221,1.451-11.231-2.925-13.936-6.719-4.251-5.961-9.749-19.4-9.749-19.4-2.666.773-5.106,1.58-7.094,2.278,2.273,4.2,5.63,17.809,4.726,27.186-.514,5.3-2.7,10.453-6.593,13.707,1.919,6.2,3.745,11.236,4.335,13.378.213.77.426,1.526.64,2.27,4.24-1.056,35.4-5.473,45.724-3.187a43.758,43.758,0,0,1,1.081-4.916s2.358-2.245,2.769-3.565c1.364-4.379.033-5.375,0-7.723C176.13,113.506,173.991,107.213,173.657,103.43Z" transform="translate(-81.499 -22.151)" fill="#7b1fa2"/>
    <path id="Trazado_21207" data-name="Trazado 21207" d="M175.583,103.78H137.207s-21.931-.426-19.465,57.62c.624,14.686,6.287,34.1,8.743,53.306C124.671,234.041,132,277.314,132,277.314l9.387.149c3.354-20.811,5.874-40.729,6.077-58.155l9.459-56.955,11.486,59.028c-1.564,13.725.241,33.375,3.765,56.044h9.7l8.206-60.017C197.234,152.83,189.519,111.177,175.583,103.78Z" transform="translate(-87.868 21.823)" fill="#ffa181"/>
    <path id="Trazado_21208" data-name="Trazado 21208" d="M156.141,149.019c11.38-13.617,32.834-15.5,32.834-15.5-2.964-16.145-7.967-26.41-14.231-29.734-9.436,5.874-21.756,6.7-38.376,0,0,0-13.818-.265-18.284,28.663C130.677,130.7,153.052,141.743,156.141,149.019Z" transform="translate(-87.029 21.823)" fill="#7b1fa2"/>
    <path id="Trazado_21209" data-name="Trazado 21209" d="M138.193,80.054s-1.68-3.077-2.992-2.6a68.567,68.567,0,0,1-7.279,1.2s6.128.041,7.2.824S138.624,80.757,138.193,80.054Z" transform="translate(-71.6 -19.54)" fill="#ff7454"/>
    <path id="Trazado_21210" data-name="Trazado 21210" d="M133.194,80.2s1.176-3.3,2.548-3.036a58.891,58.891,0,0,0,6.2.259s-4.87.791-5.81,1.731S132.878,80.964,133.194,80.2Z" transform="translate(-63.377 -19.941)" fill="#ff7454"/>
    <g id="Grupo_6129" data-name="Grupo 6129" transform="translate(58.703 35.463)">
      <g id="Grupo_6128" data-name="Grupo 6128">
        <path id="Trazado_21211" data-name="Trazado 21211" d="M128.849,68.809l.58,21.45,14.059-1.11-1.471-20.465Z" transform="translate(-128.849 -68.683)" fill="#ffa181"/>
      </g>
    </g>
    <path id="Trazado_21212" data-name="Trazado 21212" d="M146.143,94.769h0c-6.842.211-17.965-7.877-18.176-14.719,0,0-1.474-10.427.357-13.723,3.174-5.717,16.846-6.675,22.321-5.879,8.388,1.223,7.333,16.717,7.333,16.717C158.982,89.9,149.135,94.679,146.143,94.769Z" transform="translate(-72.409 -46.516)" fill="#ff8f68"/>
    <path id="Trazado_21213" data-name="Trazado 21213" d="M141.945,68.683l-13.05.126a5.85,5.85,0,0,0,2.093,4.086c.344,6.575,7.114,11.324,12.074,11.324Z" transform="translate(-70.074 -33.22)" fill="#ff7454"/>
    <path id="Trazado_21214" data-name="Trazado 21214" d="M146.143,94.769h0c-6.842.211-17.965-7.877-18.176-14.719,0,0-1.474-10.427.357-13.723,3.174-5.717,16.846-6.675,22.321-5.879,8.388,1.223,7.333,16.717,7.333,16.717C158.982,89.9,149.135,94.679,146.143,94.769Z" transform="translate(-72.409 -46.516)" fill="#ffa181"/>
    <path id="Trazado_21215" data-name="Trazado 21215" d="M125.794,70.263c.234,2.933,3.043,5.247,6.572,5.152L132,64.769C128.473,64.864,125.373,65,125.794,70.263Z" transform="translate(-74.996 -39.359)" fill="#ffa181"/>
    <path id="Trazado_21216" data-name="Trazado 21216" d="M127.839,66.394a.394.394,0,0,0-.729-.216,2.337,2.337,0,0,0-.185,2.288c.586,1.33,1.729,2.609,2.224,2.037s-.044-.426-.9-2.142A4.135,4.135,0,0,1,127.839,66.394Z" transform="translate(-73.502 -37.442)" fill="#ff7454"/>
    <path id="Trazado_21217" data-name="Trazado 21217" d="M130.485,61.4c5-2,23.806-2.884,23.806-2.884A27.669,27.669,0,0,1,143.512,69.8a33.5,33.5,0,0,1-7.369,3.043,7.067,7.067,0,0,0-5.024,5.712h0l-.157-.668a3.926,3.926,0,0,0-4.333-2.99h0S125.49,63.4,130.485,61.4Z" transform="translate(-73.801 -49.173)" fill="#ff5953"/>
    <g id="Grupo_6130" data-name="Grupo 6130" transform="translate(66.974 29.416)">
      <path id="Trazado_21218" data-name="Trazado 21218" d="M132.079,68.841a2.682,2.682,0,0,1,.36-1.605,1.8,1.8,0,0,1,1.384-.9,1.754,1.754,0,0,1,1.271.434,2.581,2.581,0,0,1,.845,1.767l-1.613.128a1.012,1.012,0,0,0-.283-.665l-.226.08a1.1,1.1,0,0,0-.126.634Z" transform="translate(-132.069 -66.329)" fill="#28121e"/>
    </g>
    <g id="Grupo_6131" data-name="Grupo 6131" transform="translate(80.219 29.245)">
      <path id="Trazado_21219" data-name="Trazado 21219" d="M139.48,67.723c.067.853-.38,1.585-1,1.633s-1.176-.6-1.246-1.456.38-1.587,1-1.636S139.411,66.868,139.48,67.723Z" transform="translate(-137.226 -66.262)" fill="#28121e"/>
    </g>
    <g id="Grupo_6132" data-name="Grupo 6132" transform="translate(65.425 25.605)">
      <path id="Trazado_21220" data-name="Trazado 21220" d="M132.352,67.632l-.886-1.336c.167-.113,4.192-2.735,8.386-.647l-.717,1.433C135.768,65.4,132.388,67.609,132.352,67.632Z" transform="translate(-131.466 -64.845)" fill="#ff7454"/>
    </g>
    <g id="Grupo_6133" data-name="Grupo 6133" transform="translate(75.385 24.713)">
      <path id="Trazado_21221" data-name="Trazado 21221" d="M136.98,77.494l-.318-1.569a1.679,1.679,0,0,0,.652-.211c-.056-.064-.372-.681-.652-1.225-.236-.465-.516-1.012-.8-1.654a6.286,6.286,0,0,1-.306-.842,5.711,5.711,0,0,1,.855-4.839,6.251,6.251,0,0,1,4.685-2.635,7.66,7.66,0,0,1,4.03.778l-.717,1.433a6.078,6.078,0,0,0-3.2-.611,4.659,4.659,0,0,0-3.49,1.957,4.068,4.068,0,0,0-.622,3.488,4.566,4.566,0,0,0,.223.616c.275.614.542,1.135.77,1.577.6,1.174,1,1.947.629,2.71A2.262,2.262,0,0,1,136.98,77.494Z" transform="translate(-135.344 -64.498)" fill="#ff7454"/>
    </g>
    <g id="Grupo_6134" data-name="Grupo 6134" transform="translate(73.384 40.62)">
      <path id="Trazado_21222" data-name="Trazado 21222" d="M136.915,73.318a4.734,4.734,0,0,1-2.35-.611l.817-1.377a3.06,3.06,0,0,0,3.8-.64l1.156,1.11A4.634,4.634,0,0,1,136.915,73.318Z" transform="translate(-134.565 -70.691)" fill="#ff7454"/>
    </g>
    <path id="Trazado_21223" data-name="Trazado 21223" d="M132.16,68.993a.5.5,0,1,1-.537-.457A.5.5,0,0,1,132.16,68.993Z" transform="translate(-66.515 -33.453)" fill="#ff7454"/>
    <path id="Trazado_21224" data-name="Trazado 21224" d="M132.707,69.3a.214.214,0,1,1-.231-.2A.215.215,0,0,1,132.707,69.3Z" transform="translate(-64.765 -32.57)" fill="#ff7454"/>
    <path id="Trazado_21225" data-name="Trazado 21225" d="M131.974,70.023a.437.437,0,1,1-.47-.4A.437.437,0,0,1,131.974,70.023Z" transform="translate(-66.613 -31.75)" fill="#ff7454"/>
    <path id="Trazado_21226" data-name="Trazado 21226" d="M130.773,69.191a.24.24,0,0,1-.221.262.243.243,0,1,1,.221-.262Z" transform="translate(-67.886 -32.775)" fill="#ff7454"/>
    <path id="Trazado_21227" data-name="Trazado 21227" d="M132.925,70.375a.366.366,0,1,1-.393-.336A.364.364,0,0,1,132.925,70.375Z" transform="translate(-64.899 -31.096)" fill="#ff7454"/>
    <path id="Trazado_21228" data-name="Trazado 21228" d="M133.82,68.878a.328.328,0,1,1-.354-.3A.33.33,0,0,1,133.82,68.878Z" transform="translate(-63.377 -33.387)" fill="#ff7454"/>
    <path id="Trazado_21229" data-name="Trazado 21229" d="M133.235,69.958a.569.569,0,0,1,1.135-.09.569.569,0,1,1-1.135.09Z" transform="translate(-63.27 -32.182)" fill="#ff7454"/>
    <path id="Trazado_21230" data-name="Trazado 21230" d="M138.388,68.575a.435.435,0,1,1-.467-.4A.434.434,0,0,1,138.388,68.575Z" transform="translate(-56.549 -34.016)" fill="#ff7454"/>
    <path id="Trazado_21231" data-name="Trazado 21231" d="M138.1,69.887a.607.607,0,1,1,.652.557A.6.6,0,0,1,138.1,69.887Z" transform="translate(-55.638 -32.357)" fill="#ff7454"/>
    <path id="Trazado_21232" data-name="Trazado 21232" d="M139.314,68.726a.353.353,0,1,1-.38-.324A.352.352,0,0,1,139.314,68.726Z" transform="translate(-54.838 -33.662)" fill="#ff7454"/>
    <path id="Trazado_21233" data-name="Trazado 21233" d="M129.527,79.381s13.142-6,28.023-3.906c0,0,2.561-12.012-5.227-16.946C147.289,55.339,125.017,57.434,129.527,79.381Z" transform="translate(-70.022 -51.004)" fill="#ff5953"/>
    <path id="Trazado_21234" data-name="Trazado 21234" d="M142.719,77.48s-5.442,1.862-17.277,22.224c-13.692,23.552-20.344,25.429-19.352,31.131s12.888,5.455,20.881-2.222c5.188-4.983,19.722-17.19,21.954-25.455S145.949,77.644,142.719,77.48Z" transform="translate(-105.992 -19.424)" fill="#ffa181"/>
    <g id="Grupo_6140" data-name="Grupo 6140" transform="translate(40.589 80.328)">
      <g id="Grupo_6135" data-name="Grupo 6135" transform="translate(2.094 12.483)">
        <path id="Trazado_21235" data-name="Trazado 21235" d="M127.9,109.871a.964.964,0,0,1-.932-.727l-4.322-16.93a.964.964,0,0,1,1.867-.478l4.322,16.933a.967.967,0,0,1-.935,1.2Z" transform="translate(-122.611 -91.012)" fill="#621989"/>
      </g>
      <g id="Grupo_6136" data-name="Grupo 6136" transform="translate(49.933)">
        <path id="Trazado_21236" data-name="Trazado 21236" d="M142.2,111.536a.965.965,0,0,1-.537-1.767,8.673,8.673,0,0,0,2.979-10.014,104.96,104.96,0,0,1-2.792-12.472.964.964,0,1,1,1.9-.334,102.587,102.587,0,0,0,2.733,12.228,10.735,10.735,0,0,1-3.752,12.2A.958.958,0,0,1,142.2,111.536Z" transform="translate(-141.238 -86.151)" fill="#621989"/>
      </g>
      <g id="Grupo_6137" data-name="Grupo 6137" transform="translate(10.167 20.277)">
        <path id="Trazado_21237" data-name="Trazado 21237" d="M137.054,99.13a21.022,21.022,0,0,1-10.89-3.334.963.963,0,1,1,1.11-1.574c.393.272,9.677,6.652,18.387.021a.963.963,0,1,1,1.166,1.533A15.794,15.794,0,0,1,137.054,99.13Z" transform="translate(-125.755 -94.047)" fill="#621989"/>
      </g>
      <g id="Grupo_6138" data-name="Grupo 6138" transform="translate(27.561 54.821)">
        <path id="Trazado_21238" data-name="Trazado 21238" d="M133.493,144.153a.891.891,0,0,1-.231-.028.961.961,0,0,1-.706-1.163,136.767,136.767,0,0,0,2.887-34.459.962.962,0,0,1,.919-1,.988.988,0,0,1,1,.919,138.721,138.721,0,0,1-2.938,35A.966.966,0,0,1,133.493,144.153Z" transform="translate(-132.527 -107.497)" fill="#621989"/>
      </g>
      <g id="Grupo_6139" data-name="Grupo 6139" transform="translate(0 48.081)">
        <path id="Trazado_21239" data-name="Trazado 21239" d="M152.215,113.593c-7.625,0-17.457-1.723-29.823-6.868a.963.963,0,1,1,.737-1.78c35.361,14.711,49.394.38,49.53.234a.964.964,0,0,1,1.413,1.312C173.676,106.916,167.222,113.593,152.215,113.593Z" transform="translate(-121.796 -104.872)" fill="#621989"/>
      </g>
    </g>
    <g id="Grupo_6141" data-name="Grupo 6141" transform="translate(30.956 127.314)">
      <path id="Trazado_21240" data-name="Trazado 21240" d="M127.618,104.446l-7.379.542a1.5,1.5,0,0,0-1.42,1.472c.028.814.483,1.806,1.3,1.752l6.778-.4,3.642,1.174a2.846,2.846,0,0,0,3.793-1.348h0Z" transform="translate(-116.834 -104.446)" fill="#ffa181"/>
      <path id="Trazado_21241" data-name="Trazado 21241" d="M128.709,107.5l-8.678-2.083c-.812-.285-1.58.74-1.736,1.628-.123.7.29,2.1.961,2.337l6.906.891,4.993,2.848a3.724,3.724,0,0,0,4.032-.961Z" transform="translate(-117.689 -102.994)" fill="#ffa181"/>
      <path id="Trazado_21242" data-name="Trazado 21242" d="M126.971,108.158l-6.942-1.112c-.842-.069-2.068,1.282-1.978,2.181a1.5,1.5,0,0,0,1.42,1.282l6.493.437,3.421,2.478a2.847,2.847,0,0,0,3.976-.637h0Z" transform="translate(-118.044 -100.373)" fill="#ffa181"/>
      <path id="Trazado_21243" data-name="Trazado 21243" d="M124.283,109.291l-4.646-.555a1.427,1.427,0,0,0-1.59,1.482,1.481,1.481,0,0,0,1.336,1.356l4.048.48,2.468,1.284a2.847,2.847,0,0,0,3.84-1.212h0Z" transform="translate(-118.045 -97.733)" fill="#ffa181"/>
    </g>
  </g>
</svg>
