<svg xmlns="http://www.w3.org/2000/svg" width="159.607" height="164.137" viewBox="0 0 159.607 164.137">
  <g id="Grupo_6346" data-name="Grupo 6346" transform="translate(-46.739 -420.275)">
    <path id="Trazado_21500" data-name="Trazado 21500" d="M83.164,447.985c-9.735,3.394-18.549,11.425-21.057,21.617-3.987,16.2,7.7,33.02.55,48.767-2.45,5.4-7.562,8.347-11.127,12.936A21.2,21.2,0,0,0,46.78,542.6c-.808,11.613,10.424,24.265,20.242,29.181,14.131,7.076,33.272,6.4,48.007,1.735,7.729-2.448,14.743-7.273,22.914-8.269,6.932-.844,13.231,1.727,19.821,3.318,12.951,3.126,29.853,2.648,38.12-9.5,3.514-5.165,4.886-11.548,4.958-17.794a77.576,77.576,0,0,0-5.331-28.788c-3.205-8.074-8.1-15.739-9.683-24.383-1.712-9.359.012-18.987.412-28.379.46-10.812-.938-22.859-10.42-29.642-11.858-8.483-30.571-4.671-42.166,2.075-7.614,4.43-14.345,9.916-23.162,11.7-8.736,1.77-17.86,1.114-26.423,3.83Q83.615,447.827,83.164,447.985Z" transform="translate(0 -0.53)" fill="#ffe292"/>
    <g id="Grupo_6298" data-name="Grupo 6298" transform="translate(107.747 420.275)">
      <g id="Grupo_6297" data-name="Grupo 6297" transform="translate(0 9.377)">
        <path id="Trazado_21501" data-name="Trazado 21501" d="M144.227,434.763a49.571,49.571,0,0,1-14.233-.481,78.777,78.777,0,0,1-14.283-3.469c-.59-.206-.865.723-.278.928a79.7,79.7,0,0,0,14.527,3.51,50.465,50.465,0,0,0,14.483.457c.618-.087.4-1.031-.217-.944Z" transform="translate(-115.108 -430.783)" fill="#8fb0ff"/>
      </g>
      <path id="Trazado_21502" data-name="Trazado 21502" d="M147.019,443.25c-2.938,5.831-10.869-7.064-10.869-7.064S149.226,438.868,147.019,443.25Z" transform="translate(-117.373 -421.988)" fill="#8fb0ff"/>
      <path id="Trazado_21503" data-name="Trazado 21503" d="M143.854,426.324c-3.571-5.466-10.01,8.234-10.01,8.234S146.538,430.43,143.854,426.324Z" transform="translate(-117.125 -420.788)" fill="#8fb0ff"/>
      <path id="Trazado_21504" data-name="Trazado 21504" d="M134.738,423.873c-4.289-4.923-8.783,9.531-8.783,9.531S137.961,427.571,134.738,423.873Z" transform="translate(-116.275 -420.552)" fill="#8fb0ff"/>
      <path id="Trazado_21505" data-name="Trazado 21505" d="M127.212,421.094c-4.811-4.414-7.667,10.451-7.667,10.451S130.827,424.411,127.212,421.094Z" transform="translate(-115.585 -420.275)" fill="#8fb0ff"/>
      <path id="Trazado_21506" data-name="Trazado 21506" d="M137.39,445.034c-4.685,4.547-7.956-10.232-7.956-10.232S140.911,441.617,137.39,445.034Z" transform="translate(-116.65 -421.839)" fill="#8fb0ff"/>
      <path id="Trazado_21507" data-name="Trazado 21507" d="M154.27,434.35c1.457,6.364-12.875,1.494-12.875,1.494S153.176,429.567,154.27,434.35Z" transform="translate(-117.938 -421.597)" fill="#8fb0ff"/>
      <path id="Trazado_21508" data-name="Trazado 21508" d="M127.575,444.561c-5.43,3.626-5.977-11.5-5.977-11.5S131.655,441.837,127.575,444.561Z" transform="translate(-115.806 -421.651)" fill="#8fb0ff"/>
    </g>
    <g id="Grupo_6302" data-name="Grupo 6302" transform="translate(151.188 520.829)">
      <g id="Grupo_6301" data-name="Grupo 6301" transform="translate(0 0)">
        <g id="Grupo_6300" data-name="Grupo 6300">
          <ellipse id="Elipse_533" data-name="Elipse 533" cx="11.639" cy="3.421" rx="11.639" ry="3.421" transform="translate(29.902 20.719) rotate(-7.437)" fill="#8fb0ff"/>
          <path id="Trazado_21509" data-name="Trazado 21509" d="M200.73,546.354c.305,6.421-.977,11.7-2.864,11.789s-3.665-5.043-3.971-11.463,1.917-11.743,2.865-11.789C197.674,534.848,200.425,539.934,200.73,546.354Z" transform="translate(-167.028 -533.168)" fill="#8fb0ff"/>
          <path id="Trazado_21510" data-name="Trazado 21510" d="M200.749,574.135c-6.374.832-11.739-.013-11.983-1.886s4.724-4.066,11.1-4.9,11.861.945,11.984,1.886C211.966,570.144,207.123,573.3,200.749,574.135Z" transform="translate(-166.478 -536.639)" fill="#8fb0ff"/>
          <path id="Trazado_21511" data-name="Trazado 21511" d="M190.714,558.872c1.258,6.3.776,11.713-1.077,12.083s-4.375-4.44-5.633-10.744.146-11.9,1.077-12.083C185.978,547.949,189.456,552.569,190.714,558.872Z" transform="translate(-165.912 -534.593)" fill="#8fb0ff"/>
          <path id="Trazado_21512" data-name="Trazado 21512" d="M189.663,588.691c-6.426.167-11.674-1.23-11.724-3.119s5.12-3.555,11.546-3.721,11.7,2.17,11.724,3.119C201.233,585.884,196.088,588.525,189.663,588.691Z" transform="translate(-165.313 -538.223)" fill="#8fb0ff"/>
          <ellipse id="Elipse_534" data-name="Elipse 534" cx="3.421" cy="11.639" rx="3.421" ry="11.639" transform="translate(8.406 25.389) rotate(-5.335)" fill="#8fb0ff"/>
          <path id="Trazado_21513" data-name="Trazado 21513" d="M179.318,602.555c-6.427.166-11.675-1.23-11.724-3.119s5.12-3.555,11.546-3.722,11.7,2.17,11.724,3.119C190.887,599.748,185.742,602.388,179.318,602.555Z" transform="translate(-164.2 -539.715)" fill="#8fb0ff"/>
          <path id="Trazado_21514" data-name="Trazado 21514" d="M170.713,586.843c.6,6.4-.443,11.731-2.324,11.907s-3.892-4.87-4.488-11.27,1.379-11.818,2.324-11.906C167.135,575.488,170.116,580.443,170.713,586.843Z" transform="translate(-163.79 -537.548)" fill="#8fb0ff"/>
          <path id="Trazado_21515" data-name="Trazado 21515" d="M209.467,545.035c-2.514,5.916-5.961,10.113-7.7,9.374s-1.112-6.134,1.4-12.049,6.826-9.746,7.7-9.375C211.712,533.343,211.98,539.119,209.467,545.035Z" transform="translate(-167.773 -532.96)" fill="#8fb0ff"/>
          <g id="Grupo_6299" data-name="Grupo 6299" transform="translate(3.273 11.621)">
            <path id="Trazado_21516" data-name="Trazado 21516" d="M201.98,546.419a519.318,519.318,0,0,1-34.288,47.256c-.843,1.034.8,2.294,1.641,1.262a519.531,519.531,0,0,0,34.288-47.256c.717-1.114-.919-2.384-1.641-1.262Z" transform="translate(-167.458 -545.983)" fill="#8fb0ff"/>
          </g>
        </g>
      </g>
    </g>
    <g id="Grupo_6306" data-name="Grupo 6306" transform="translate(56.043 523.817)">
      <g id="Grupo_6305" data-name="Grupo 6305" transform="translate(0 0)">
        <g id="Grupo_6304" data-name="Grupo 6304">
          <path id="Trazado_21517" data-name="Trazado 21517" d="M68.692,564.408c6.425.2,11.681-1.167,11.74-3.056s-5.1-3.582-11.526-3.784-11.71,2.107-11.74,3.056C57.137,561.539,62.267,564.207,68.692,564.408Z" transform="translate(-57.166 -538.597)" fill="#8fb0ff"/>
          <path id="Trazado_21518" data-name="Trazado 21518" d="M78.287,548.574c.327,6.419,2.123,11.545,4.009,11.449s3.152-5.378,2.824-11.8-3.063-11.5-4.01-11.45C80.2,536.822,77.959,542.153,78.287,548.574Z" transform="translate(-59.436 -536.359)" fill="#8fb0ff"/>
          <ellipse id="Elipse_535" data-name="Elipse 535" cx="3.421" cy="11.639" rx="3.421" ry="11.639" transform="matrix(0.031, -1, 1, 0.031, 9.042, 36.098)" fill="#8fb0ff"/>
          <path id="Trazado_21519" data-name="Trazado 21519" d="M89.416,560.03c-.632,6.4.38,11.732,2.26,11.919s3.916-4.85,4.549-11.246-1.315-11.825-2.26-11.919C93.055,548.694,90.048,553.633,89.416,560.03Z" transform="translate(-60.618 -537.652)" fill="#8fb0ff"/>
          <path id="Trazado_21520" data-name="Trazado 21520" d="M91.4,589.707c6.411-.466,11.5-2.372,11.36-4.257s-5.446-3.034-11.857-2.568-11.428,3.311-11.36,4.257C79.61,588.052,84.989,590.174,91.4,589.707Z" transform="translate(-59.575 -541.312)" fill="#8fb0ff"/>
          <ellipse id="Elipse_536" data-name="Elipse 536" cx="3.421" cy="11.639" rx="3.421" ry="11.639" transform="translate(38.381 21.906) rotate(-0.31)" fill="#8fb0ff"/>
          <path id="Trazado_21521" data-name="Trazado 21521" d="M103.059,602.486c6.411-.467,11.5-2.373,11.36-4.257s-5.446-3.034-11.857-2.567-11.429,3.31-11.359,4.256C91.269,600.831,96.648,602.953,103.059,602.486Z" transform="translate(-60.83 -542.688)" fill="#8fb0ff"/>
          <path id="Trazado_21522" data-name="Trazado 21522" d="M112.135,585.908c.035,6.428,1.595,11.631,3.484,11.62s3.394-5.229,3.359-11.657-2.535-11.625-3.485-11.62C114.578,574.255,112.1,579.48,112.135,585.908Z" transform="translate(-63.084 -540.394)" fill="#8fb0ff"/>
          <path id="Trazado_21523" data-name="Trazado 21523" d="M68.9,548.2c3.083,5.64,6.926,9.478,8.584,8.572s.5-6.213-2.581-11.854-7.752-9.027-8.584-8.571C65.514,536.789,65.815,542.563,68.9,548.2Z" transform="translate(-58.11 -536.309)" fill="#8fb0ff"/>
          <g id="Grupo_6303" data-name="Grupo 6303" transform="translate(12.919 11.127)">
            <path id="Trazado_21524" data-name="Trazado 21524" d="M73.39,549.145a519.651,519.651,0,0,0,38.77,43.653c.941.947-.57,2.362-1.509,1.417a519.344,519.344,0,0,1-38.77-43.653c-.822-1.038.681-2.464,1.509-1.417Z" transform="translate(-71.643 -548.779)" fill="#8fb0ff"/>
          </g>
        </g>
      </g>
    </g>
    <path id="Trazado_21525" data-name="Trazado 21525" d="M216.593,522.6l-.007-.489a12.453,12.453,0,0,1-4.093-.874c-.34-6.574-8.732-8.328-8.732-8.328-2.532,5,4.956,10.529,8.425,8.729A13.133,13.133,0,0,0,216.593,522.6Z" transform="translate(-16.85 -9.973)" fill="#8fb0ff"/>
    <path id="Trazado_21526" data-name="Trazado 21526" d="M204.792,436.15l-.008-.489a12.5,12.5,0,0,1-4.093-.875c-.34-6.574-8.732-8.328-8.732-8.328-2.532,5,4.956,10.529,8.425,8.73A13.13,13.13,0,0,0,204.792,436.15Z" transform="translate(-15.579 -0.666)" fill="#8fb0ff"/>
    <path id="Trazado_21527" data-name="Trazado 21527" d="M65.868,528.951l-.136.469a12.513,12.513,0,0,0-4.18-.231c-2.055,6.253-10.614,5.741-10.614,5.741-1.129-5.489,7.549-8.857,10.423-6.209A13.128,13.128,0,0,1,65.868,528.951Z" transform="translate(-0.441 -11.576)" fill="#8fb0ff"/>
    <path id="Trazado_21528" data-name="Trazado 21528" d="M224.421,585.437l-.087.306a8.148,8.148,0,0,0-2.722-.15c-1.339,4.072-6.911,3.738-6.911,3.738-.735-3.574,4.915-5.767,6.787-4.042A8.55,8.55,0,0,1,224.421,585.437Z" transform="translate(-18.076 -17.701)" fill="#8fb0ff"/>
    <path id="Trazado_21529" data-name="Trazado 21529" d="M47.863,582.438l.388-.159a10.689,10.689,0,0,0,2.065,2.936c5.3-1.938,9.5,4.094,9.5,4.094-3.095,3.676-9.97-.376-9.715-3.717A11.294,11.294,0,0,1,47.863,582.438Z" transform="translate(-0.121 -17.441)" fill="#8fb0ff"/>
    <path id="Trazado_21530" data-name="Trazado 21530" d="M184.748,443.753l-.136.47a12.482,12.482,0,0,0-4.18-.231c-2.054,6.254-10.614,5.741-10.614,5.741-1.13-5.489,7.548-8.857,10.423-6.209A13.163,13.163,0,0,1,184.748,443.753Z" transform="translate(-13.24 -2.404)" fill="#8fb0ff"/>
    <path id="Trazado_21531" data-name="Trazado 21531" d="M78.9,440.869l-.47.133a12.5,12.5,0,0,0-2.011-3.671c-6.4,1.557-10.48-5.982-10.48-5.982,4.065-3.857,11.507,1.734,10.776,5.574A13.137,13.137,0,0,1,78.9,440.869Z" transform="translate(-2.067 -1.052)" fill="#8fb0ff"/>
    <g id="Grupo_6307" data-name="Grupo 6307" transform="translate(72.933 510.314)">
      <path id="Trazado_21532" data-name="Trazado 21532" d="M84.475,529.223,81.9,530.841l-1.618,2.573-1.272-2.573-2.919-1.618,2.919-1.618,1.272-2.573,1.272,2.573Z" transform="translate(-76.093 -521.592)" fill="#fff"/>
      <path id="Trazado_21533" data-name="Trazado 21533" d="M87.678,523.208l-1.247.784-.784,1.247-.616-1.247-1.414-.784,1.414-.784.616-1.247.617,1.247Z" transform="translate(-76.903 -521.177)" fill="#fff"/>
    </g>
    <path id="Trazado_21534" data-name="Trazado 21534" d="M196.211,515.188l-2.573,1.618-1.618,2.573-1.272-2.573-2.919-1.618,2.919-1.618L192.02,511l1.272,2.573Z" transform="translate(-15.19 -9.767)" fill="#fff"/>
    <path id="Trazado_21535" data-name="Trazado 21535" d="M193.507,532.357l-3.071,1.931-1.931,3.071-1.519-3.071-3.484-1.931,3.484-1.931,1.519-3.071,1.519,3.071Z" transform="translate(-14.724 -11.528)" fill="#fff"/>
    <path id="Trazado_21536" data-name="Trazado 21536" d="M199.414,509.172l-1.247.784-.784,1.247-.617-1.247-1.414-.784,1.414-.784.617-1.247.617,1.247Z" transform="translate(-16 -9.352)" fill="#fff"/>
    <g id="Grupo_6314" data-name="Grupo 6314" transform="translate(163.608 450.347)">
      <g id="Grupo_6309" data-name="Grupo 6309" transform="translate(1.131 13.925)">
        <g id="Grupo_6308" data-name="Grupo 6308">
          <path id="Trazado_21537" data-name="Trazado 21537" d="M184.823,469.58a2.233,2.233,0,0,0-1.807.921,2.234,2.234,0,0,0-4.041,1.314c0,1.877,4.041,4.905,4.041,4.905s4.041-3.028,4.041-4.905A2.234,2.234,0,0,0,184.823,469.58Z" transform="translate(-178.975 -469.58)" fill="#ff5953"/>
        </g>
      </g>
      <g id="Grupo_6311" data-name="Grupo 6311" transform="translate(9.669 3.007)">
        <g id="Grupo_6310" data-name="Grupo 6310">
          <path id="Trazado_21538" data-name="Trazado 21538" d="M192.291,457.345a1.429,1.429,0,0,0-1.158.59,1.432,1.432,0,0,0-2.59.841c0,1.2,2.59,3.144,2.59,3.144s2.59-1.941,2.59-3.144A1.431,1.431,0,0,0,192.291,457.345Z" transform="translate(-188.543 -457.345)" fill="#ff5953"/>
        </g>
      </g>
      <g id="Grupo_6313" data-name="Grupo 6313">
        <g id="Grupo_6312" data-name="Grupo 6312">
          <path id="Trazado_21539" data-name="Trazado 21539" d="M181.456,453.975a1.431,1.431,0,0,0-1.158.59,1.432,1.432,0,0,0-2.59.842c0,1.2,2.59,3.144,2.59,3.144s2.59-1.94,2.59-3.144A1.431,1.431,0,0,0,181.456,453.975Z" transform="translate(-177.708 -453.975)" fill="#ff5953"/>
        </g>
      </g>
    </g>
    <g id="Grupo_6319" data-name="Grupo 6319" transform="translate(67.747 441.817)">
      <g id="Grupo_6315" data-name="Grupo 6315" transform="translate(28.691 14.113)">
        <path id="Trazado_21540" data-name="Trazado 21540" d="M109.244,460.232a2.6,2.6,0,0,0-2.1,1.072,2.6,2.6,0,0,0-4.705,1.529c0,2.186,4.705,5.711,4.705,5.711s4.706-3.525,4.706-5.711A2.6,2.6,0,0,0,109.244,460.232Z" transform="translate(-102.435 -460.232)" fill="#ff5953"/>
      </g>
      <g id="Grupo_6316" data-name="Grupo 6316" transform="translate(0 53.924)">
        <path id="Trazado_21541" data-name="Trazado 21541" d="M78.241,504.846a3.039,3.039,0,0,0-2.459,1.253,3.04,3.04,0,0,0-5.5,1.788c0,2.555,5.5,6.675,5.5,6.675s5.5-4.12,5.5-6.675A3.041,3.041,0,0,0,78.241,504.846Z" transform="translate(-70.282 -504.846)" fill="#ff5953"/>
      </g>
      <g id="Grupo_6317" data-name="Grupo 6317" transform="translate(18.056 3.967)">
        <path id="Trazado_21542" data-name="Trazado 21542" d="M96.9,448.862a2.434,2.434,0,0,0-1.972,1,2.44,2.44,0,0,0-4.413,1.435c0,2.05,4.413,5.356,4.413,5.356s4.413-3.306,4.413-5.356A2.44,2.44,0,0,0,96.9,448.862Z" transform="translate(-90.516 -448.862)" fill="#ff5953"/>
      </g>
      <g id="Grupo_6318" data-name="Grupo 6318" transform="translate(34.905)">
        <path id="Trazado_21543" data-name="Trazado 21543" d="M113.062,444.416a1.4,1.4,0,0,0-1.132.577,1.4,1.4,0,0,0-2.532.824c0,1.176,2.532,3.073,2.532,3.073s2.532-1.9,2.532-3.073A1.4,1.4,0,0,0,113.062,444.416Z" transform="translate(-109.398 -444.416)" fill="#ff5953"/>
      </g>
    </g>
    <g id="Grupo_6345" data-name="Grupo 6345" transform="translate(83.963 454.832)">
      <g id="Grupo_6325" data-name="Grupo 6325" transform="translate(0)">
        <g id="Grupo_6324" data-name="Grupo 6324">
          <g id="Grupo_6320" data-name="Grupo 6320" transform="translate(2.315)">
            <path id="Trazado_21544" data-name="Trazado 21544" d="M133.011,460.663a23.373,23.373,0,0,0-8.635,5.669c-1.957,2.058-3.817,4.27-6.384,5.6-6.635,3.437-15.015,1.364-21.271,5.841-7.743,5.542-6.765,18.145-1.822,25.136,3.858,5.458,9.96,8.9,16.378,10.423,6.787,1.608,12.272,4.274,17.179,9.385,6.862,7.146,14.985,12.633,25.277,12.426a15.918,15.918,0,0,0,8.105-2.045c5.105-3.165,7.491-9.3,7.729-15.09.279-6.837-3.634-12.848-4.518-19.493-.949-7.133,2.108-14.2.8-21.316-1.733-9.411-10.325-16.088-19.4-17.791A25.082,25.082,0,0,0,133.011,460.663Z" transform="translate(-91.048 -459.001)" fill="#004061"/>
          </g>
          <g id="Grupo_6321" data-name="Grupo 6321" transform="translate(75.373 14.525)">
            <path id="Trazado_21545" data-name="Trazado 21545" d="M177.184,535.176l-.69-.566c2.228-2.711,3.58-6.834,3.709-11.311a29.927,29.927,0,0,0-2.388-12.235c-.15-.359-.306-.717-.461-1.074a22.882,22.882,0,0,1-1.337-3.613c-.743-2.964-.4-6.122-.068-9.176.107-.978.213-1.954.285-2.922a37.633,37.633,0,0,0-3.313-18.615l.807-.384a38.542,38.542,0,0,1,3.4,19.065c-.072.978-.179,1.965-.286,2.952-.324,2.977-.659,6.054.045,8.865a22.36,22.36,0,0,0,1.289,3.472c.158.362.316.724.468,1.088a30.828,30.828,0,0,1,2.457,12.6C180.96,528,179.534,532.317,177.184,535.176Z" transform="translate(-172.921 -475.279)" fill="#004061"/>
          </g>
          <g id="Grupo_6322" data-name="Grupo 6322" transform="translate(0 7.107)">
            <path id="Trazado_21546" data-name="Trazado 21546" d="M100.038,513.284c-3.309,0-5.981-4.892-7.227-7.172l-.091-.168c-3.146-5.751-4.669-11.9-4.174-16.86.883-8.882,8.939-16.2,18.738-17.026,1.18-.1,2.429-.153,3.751-.211,5.848-.256,12.478-.545,16.177-4.881l.679.578c-3.952,4.633-10.787,4.931-16.817,5.194-1.314.057-2.554.112-3.716.209-9.378.789-17.083,7.763-17.925,16.226-.477,4.788,1.007,10.746,4.069,16.342l.092.168c1.444,2.644,4.45,8.145,7.772,6.347l.424.784A3.643,3.643,0,0,1,100.038,513.284Z" transform="translate(-88.454 -466.966)" fill="#004061"/>
          </g>
          <g id="Grupo_6323" data-name="Grupo 6323" transform="translate(21.545 1.71)">
            <path id="Trazado_21547" data-name="Trazado 21547" d="M112.987,476.4l-.388-.8c1.416-.683,1.986-2.05,2.59-3.5.213-.509.434-1.036.693-1.534a12.357,12.357,0,0,1,4.894-5,20.208,20.208,0,0,1,5.87-1.828c.518-.105,1.031-.21,1.531-.322a23.6,23.6,0,0,0,7.075-2.493l.46.763a24.305,24.305,0,0,1-7.339,2.6c-.507.114-1.026.22-1.55.327a19.552,19.552,0,0,0-5.614,1.732,11.457,11.457,0,0,0-4.537,4.635c-.243.465-.455.974-.661,1.466C115.372,473.978,114.708,475.568,112.987,476.4Z" transform="translate(-112.599 -460.918)" fill="#004061"/>
          </g>
        </g>
      </g>
      <g id="Grupo_6334" data-name="Grupo 6334" transform="translate(0.027 48.869)">
        <g id="Grupo_6331" data-name="Grupo 6331">
          <g id="Grupo_6330" data-name="Grupo 6330">
            <path id="Trazado_21548" data-name="Trazado 21548" d="M116.811,518.339a7.669,7.669,0,0,0,5.082,1.836l20.765-.113,3.565-1.722s8.97,15,12.494,43.921c1.852,15.194,8.351,32.71,8.351,32.71H110.61V525.6l6.2-7.261" transform="translate(-90.867 -514.258)" fill="#7b1fa2"/>
            <g id="Grupo_6327" data-name="Grupo 6327" transform="translate(2.489 7.792)">
              <g id="Grupo_6326" data-name="Grupo 6326">
                <path id="Trazado_21549" data-name="Trazado 21549" d="M108.474,523.789v45.428s-3.28,10.821-12.036,12.7C96.438,581.921,78.9,512.244,108.474,523.789Z" transform="translate(-91.274 -522.498)" fill="#ffa181"/>
                <path id="Trazado_21550" data-name="Trazado 21550" d="M93.105,531.8l15.5,11.6v2.775L92.476,534.106Q92.75,532.9,93.105,531.8Z" transform="translate(-91.403 -523.5)" fill="#ff8e89"/>
              </g>
            </g>
            <path id="Trazado_21551" data-name="Trazado 21551" d="M114.757,517.845c-19.95-13.528-23.208,10.929-23.208,10.929l16.963,12.691,3.721-11.8Z" transform="translate(-88.815 -513.766)" fill="#7b1fa2"/>
            <g id="Grupo_6329" data-name="Grupo 6329" transform="translate(0 7.792)">
              <path id="Trazado_21552" data-name="Trazado 21552" d="M157.553,523.789v45.428s3.28,10.821,12.036,12.7C169.589,581.921,187.131,512.244,157.553,523.789Z" transform="translate(-95.921 -522.498)" fill="#ffa181"/>
              <path id="Trazado_21553" data-name="Trazado 21553" d="M173.057,531.8l-15.5,11.6v2.775l16.127-12.066Q173.412,532.9,173.057,531.8Z" transform="translate(-95.921 -523.5)" fill="#ff8e89"/>
              <path id="Trazado_21554" data-name="Trazado 21554" d="M109.15,564.347l38.289,4.1a15.651,15.651,0,0,1,16.457,12.6,23.062,23.062,0,0,1,.568,3.928,3.294,3.294,0,0,1-4.02,3.589c-7.479-1.961-26.289-8.776-52.724-18.277Z" transform="translate(-90.556 -527.003)" fill="#ffa181"/>
              <g id="Grupo_6328" data-name="Grupo 6328" transform="translate(0 30.125)">
                <path id="Trazado_21555" data-name="Trazado 21555" d="M91.773,558.562l-3.288,2.685,3.926,8.431,1.764.556Z" transform="translate(-88.485 -556.505)" fill="#ffa181"/>
                <path id="Trazado_21556" data-name="Trazado 21556" d="M91.323,558.314l5.68-2a1.012,1.012,0,0,1,.987.178l1.85,1.548,7.545,5.434-1.43,5.937a24.918,24.918,0,0,1-10.036.292l-2.194.28Z" transform="translate(-88.79 -556.257)" fill="#ffa181"/>
              </g>
            </g>
          </g>
          <path id="Trazado_21557" data-name="Trazado 21557" d="M150.545,517.845c19.95-13.528,23.208,10.929,23.208,10.929l-16.962,12.691-3.722-11.8Z" transform="translate(-95.166 -513.766)" fill="#7b1fa2"/>
        </g>
        <g id="Grupo_6333" data-name="Grupo 6333" transform="translate(7.221 26.211)">
          <g id="Grupo_6332" data-name="Grupo 6332" transform="translate(56.397)">
            <path id="Trazado_21558" data-name="Trazado 21558" d="M176.64,545.444l3.288,2.685L176,556.56l-1.764.556Z" transform="translate(-161.335 -543.387)" fill="#ffa181"/>
            <path id="Trazado_21559" data-name="Trazado 21559" d="M175.839,545.2l-5.68-2a1.014,1.014,0,0,0-.988.178l-1.85,1.548-7.544,5.434,1.429,5.937a24.924,24.924,0,0,0,10.037.292l2.193.28Z" transform="translate(-159.778 -543.139)" fill="#ffa181"/>
          </g>
          <path id="Trazado_21560" data-name="Trazado 21560" d="M153.663,550.9l-43.675,14.251a15.652,15.652,0,0,0-13.408,15.8,22.966,22.966,0,0,0,.278,3.959,3.3,3.3,0,0,0,4.69,2.655c6.892-3.5,29.9-15.8,53.719-30.689Z" transform="translate(-96.577 -543.975)" fill="#ffa181"/>
        </g>
      </g>
      <g id="Grupo_6344" data-name="Grupo 6344" transform="translate(25.724 2.092)">
        <path id="Trazado_21561" data-name="Trazado 21561" d="M146.941,516.576l-3.565,1.722.465-15.472-16.788-.859-4.442,16.445-5.082-1.835s-3.651,18.776,17.121,20.712C134.651,537.289,149.479,536,146.941,516.576Z" transform="translate(-117.282 -465.719)" fill="#ffa181"/>
        <g id="Grupo_6335" data-name="Grupo 6335" transform="translate(3.956 16.751)">
          <path id="Trazado_21562" data-name="Trazado 21562" d="M130.241,487.545a4.7,4.7,0,1,1-1.1-6.554A4.7,4.7,0,0,1,130.241,487.545Z" transform="translate(-121.716 -480.117)" fill="#ffa181"/>
        </g>
        <path id="Trazado_21563" data-name="Trazado 21563" d="M161.536,487.311c-5.885,23.366-22.268,23.669-24.2,23.379a8.887,8.887,0,0,1-2.566-.7c-15.862-7.656-4.464-35.635-4.464-35.635s6.109-11.217,20.538-5.381C150.84,468.973,164.925,473.86,161.536,487.311Z" transform="translate(-118.257 -461.986)" fill="#ffa181"/>
        <path id="Trazado_21564" data-name="Trazado 21564" d="M137.367,514.744a8.873,8.873,0,0,1-2.567-.7,14.021,14.021,0,0,1-7.465-9.058l-.692,2.561a13.881,13.881,0,0,0,7.272,8.446,8.859,8.859,0,0,0,2.566.7,17.534,17.534,0,0,0,8.009-1.518l.049-1.62A16.956,16.956,0,0,1,137.367,514.744Z" transform="translate(-118.29 -466.044)" fill="#ff8e89"/>
        <g id="Grupo_6336" data-name="Grupo 6336" transform="translate(8.861)">
          <path id="Trazado_21565" data-name="Trazado 21565" d="M159.334,495.253a4.686,4.686,0,0,1-1.054-2.238c-1.382-5.617.586-14.8-6.83-16.708-2.676-.69-5.486-.258-8.194-.028-3.284.279-6.718.287-9.793-1.059a7.176,7.176,0,0,1-1.977-1.267,9.577,9.577,0,0,0-.562.863s-.233.572-.585,1.572a7.248,7.248,0,0,0,1.929,1.224c3.074,1.347,6.509,1.339,9.792,1.059,2.708-.231,5.518-.663,8.194.027,7.417,1.911,5.448,11.091,6.831,16.709a4.677,4.677,0,0,0,1.053,2.237c.071.072.141.132.211.192q.614-1.135,1.186-2.4C159.468,495.378,159.4,495.322,159.334,495.253Z" transform="translate(-127.549 -462.703)" fill="#ffa181"/>
          <path id="Trazado_21566" data-name="Trazado 21566" d="M128.405,472.352l-.319,3.248c-.16,1.626-.3,3.253-.461,4.878-.081.813-.168,1.625-.265,2.436-.023.188-.328,1.978.012,1.849a17.964,17.964,0,0,0,1.6-2.28q.717-1.053,1.417-2.118c.95-1.455,1.863-2.936,2.681-4.47a26.78,26.78,0,0,0,2.738-6.885c.01-.043.019-.087.028-.13Z" transform="translate(-127.212 -462.157)" fill="#004061"/>
          <path id="Trazado_21567" data-name="Trazado 21567" d="M161.138,494.681c1.085-.542,1.906-2.281,2.425-3.237,3.174-5.847,4.336-12.843,1.625-19.1,0,0-5.464-10.225-19.257-10.971a17.906,17.906,0,0,0-9.53,2.186c-2.247,1.232-6.434,3.69-6.449,6.658-.009,1.8,1.629,3.181,3.279,3.9,3.073,1.346,6.509,1.339,9.792,1.058,2.708-.23,5.518-.662,8.194.028,7.416,1.91,5.448,11.091,6.831,16.709a4.676,4.676,0,0,0,1.053,2.237A1.65,1.65,0,0,0,161.138,494.681Z" transform="translate(-127.507 -461.346)" fill="#004061"/>
        </g>
        <path id="Trazado_21568" data-name="Trazado 21568" d="M125.587,490.044a1.617,1.617,0,1,1-1.618-1.618A1.618,1.618,0,0,1,125.587,490.044Z" transform="translate(-117.828 -464.261)" fill="#fff"/>
        <g id="Grupo_6338" data-name="Grupo 6338" transform="translate(16.832 25.146)">
          <g id="Grupo_6337" data-name="Grupo 6337">
            <path id="Trazado_21569" data-name="Trazado 21569" d="M136.145,491.138a2.825,2.825,0,0,1,1.114-1.314,1.881,1.881,0,0,1,1.723-.158,1.831,1.831,0,0,1,.967,1.019,2.706,2.706,0,0,1-.079,2.051l-1.557-.667a1.047,1.047,0,0,0,.062-.754l-.247-.035a1.134,1.134,0,0,0-.426.526Z" transform="translate(-136.145 -489.525)" fill="#004061"/>
          </g>
        </g>
        <g id="Grupo_6340" data-name="Grupo 6340" transform="translate(29.441 31.141)">
          <g id="Grupo_6339" data-name="Grupo 6339">
            <path id="Trazado_21570" data-name="Trazado 21570" d="M152.618,498.273c-.354.825-1.126,1.285-1.725,1.029a1.458,1.458,0,0,1-.443-1.959c.354-.825,1.126-1.285,1.725-1.028A1.457,1.457,0,0,1,152.618,498.273Z" transform="translate(-150.275 -496.244)" fill="#004061"/>
          </g>
        </g>
        <g id="Grupo_6341" data-name="Grupo 6341" transform="translate(17.759 21.455)">
          <path id="Trazado_21571" data-name="Trazado 21571" d="M137.356,487.086l-.172-1.669c.212-.023,5.218-.493,8.088,3.484l-1.363.982C141.606,486.685,137.4,487.085,137.356,487.086Z" transform="translate(-137.184 -485.389)" fill="#ff7454"/>
        </g>
        <g id="Grupo_6342" data-name="Grupo 6342" transform="translate(23.319 26.426)">
          <path id="Trazado_21572" data-name="Trazado 21572" d="M143.414,501.542l.469-1.611a1.78,1.78,0,0,0,.707.123c-.021-.087-.014-.814-.008-1.455.007-.545.015-1.186.061-1.924a6.235,6.235,0,0,1,.128-.928,5.984,5.984,0,0,1,3.149-4.07,6.548,6.548,0,0,1,5.628-.159A8,8,0,0,1,156.9,494.2l-1.362.98a6.38,6.38,0,0,0-2.665-2.126,4.883,4.883,0,0,0-4.191.113,4.264,4.264,0,0,0-2.274,2.93,4.5,4.5,0,0,0-.093.68c-.045.7-.051,1.316-.056,1.836-.016,1.38-.026,2.292-.737,2.819A2.367,2.367,0,0,1,143.414,501.542Z" transform="translate(-143.414 -490.96)" fill="#ff7454"/>
        </g>
        <g id="Grupo_6343" data-name="Grupo 6343" transform="translate(17.546 38.922)">
          <path id="Trazado_21573" data-name="Trazado 21573" d="M138.827,507.556a4.972,4.972,0,0,1-1.882-1.712l1.43-.88a3.2,3.2,0,0,0,3.83,1.259l.532,1.592A4.853,4.853,0,0,1,138.827,507.556Z" transform="translate(-136.945 -504.964)" fill="#ff7454"/>
        </g>
      </g>
    </g>
  </g>
</svg>
