<svg xmlns="http://www.w3.org/2000/svg" width="217.04" height="281.692" viewBox="0 0 217.04 281.692">
  <g id="Grupo_6524" data-name="Grupo 6524" transform="translate(-528.022 -254.479)">
    <path id="Trazado_21927" data-name="Trazado 21927" d="M577.092,296.932c-13.115,4.57-24.989,15.391-28.367,29.121-5.371,21.819,10.367,44.484.74,65.7-3.3,7.274-10.187,11.245-14.99,17.426-3.424,4.41-6.01,9.645-6.4,15.215-1.091,15.645,14.042,32.689,27.269,39.312,19.036,9.533,44.823,8.627,64.674,2.337,10.411-3.3,19.862-9.8,30.87-11.14,9.338-1.138,17.823,2.326,26.7,4.47,17.446,4.211,40.218,3.566,51.354-12.8,4.734-6.959,6.582-15.556,6.679-23.973a104.516,104.516,0,0,0-7.182-38.782c-4.318-10.876-10.911-21.2-13.044-32.849-2.308-12.608.016-25.58.554-38.231.619-14.566-1.264-30.8-14.038-39.934-15.975-11.428-41.184-6.292-56.8,2.795-10.259,5.969-19.328,13.359-31.2,15.766-11.769,2.387-24.06,1.5-35.6,5.16C577.9,296.656,577.5,296.79,577.092,296.932Z" transform="translate(0 11.43)" fill="#f8f3ff"/>
    <g id="Grupo_6494" data-name="Grupo 6494" transform="translate(638.511 261.914)">
      <g id="Grupo_6487" data-name="Grupo 6487" transform="translate(21.649)">
        <path id="Trazado_21928" data-name="Trazado 21928" d="M649.768,274.774s-5.645,10.257.882,17.18,10.521,10.109,3.848,19.164-4.9,15.442.542,17.525,7.4,20.582-9.442,28.864-36.141-8.466-42.559-14.432-10.665-10.856-6.142-18.3,9.544-6.047,8.519-14.05-11.446-9.014-4.247-17.359,9.406-6.87,8.257-14.487,11.527-17.464,16.679-18.854S647.979,265.188,649.768,274.774Z" transform="translate(-595.014 -256.702)" fill="#ffc94a"/>
        <rect id="Rectángulo_3159" data-name="Rectángulo 3159" width="10.485" height="16.253" transform="translate(30.178 35.786)" fill="#ed744d"/>
        <path id="Trazado_21929" data-name="Trazado 21929" d="M610.116,277.365a8.117,8.117,0,0,0,5.452,7.75,3.872,3.872,0,0,0,1,.217,2.6,2.6,0,0,0,1.024-.177,4.705,4.705,0,0,0,3.01-4.456v-4.767H610.118Z" transform="translate(-580.329 -241.054)" fill="#bb5a38"/>
        <circle id="Elipse_551" data-name="Elipse 551" cx="15.839" cy="15.839" r="15.839" transform="translate(15.277 29.267) rotate(-67.5)" fill="#ffc94a"/>
        <path id="Trazado_21930" data-name="Trazado 21930" d="M623.987,273.435c0,2.4-2.144,4.471-5.026,4.621l-.389-8.7C621.455,269.207,623.989,269.12,623.987,273.435Z" transform="translate(-572.105 -247.495)" fill="#ed744d"/>
        <path id="Trazado_21931" data-name="Trazado 21931" d="M620.274,270.884a.322.322,0,0,1,.58-.223,1.9,1.9,0,0,1,.3,1.852c-.391,1.122-1.241,2.239-1.681,1.8s.008-.349.6-1.8A3.407,3.407,0,0,0,620.274,270.884Z" transform="translate(-571.404 -246.306)" fill="#bb5a38"/>
        <path id="Trazado_21932" data-name="Trazado 21932" d="M618.136,275.415a.5.5,0,1,1,.5.5A.5.5,0,0,1,618.136,275.415Z" transform="translate(-572.53 -242.037)" fill="#ff7454"/>
        <circle id="Elipse_552" data-name="Elipse 552" cx="0.289" cy="0.289" r="0.289" transform="translate(46.829 31.211)" fill="#ff7454"/>
        <path id="Trazado_21933" data-name="Trazado 21933" d="M620.506,293.74h0c-5.59-.268-13.588-8.071-13.32-13.661,0,0-.529-8.6,1.174-11.162,2.957-4.458,14.162-4.359,18.574-3.355,6.76,1.535,4.9,14.1,4.9,14.1C631.834,290.1,622.952,293.858,620.506,293.74Z" transform="translate(-583.253 -251.688)" fill="#ed744d"/>
        <path id="Trazado_21934" data-name="Trazado 21934" d="M605.267,273.435c0,2.4,2.142,4.471,5.024,4.621l.388-8.7C607.8,269.207,605.263,269.12,605.267,273.435Z" transform="translate(-585.044 -247.495)" fill="#ed744d"/>
        <path id="Trazado_21935" data-name="Trazado 21935" d="M607.285,270.884a.322.322,0,0,0-.58-.223,1.9,1.9,0,0,0-.3,1.852c.391,1.122,1.241,2.239,1.68,1.8s-.006-.349-.6-1.8A3.409,3.409,0,0,1,607.285,270.884Z" transform="translate(-584.052 -246.306)" fill="#bb5a38"/>
        <path id="Trazado_21936" data-name="Trazado 21936" d="M613.056,272.976c0,.7-.412,1.268-.921,1.268s-.921-.568-.921-1.268.414-1.268.921-1.268S613.056,272.276,613.056,272.976Z" transform="translate(-579.261 -245.16)" fill="#28121e"/>
        <path id="Trazado_21937" data-name="Trazado 21937" d="M618.228,272.976c0,.7-.412,1.268-.921,1.268s-.921-.568-.921-1.268.412-1.268.921-1.268S618.228,272.276,618.228,272.976Z" transform="translate(-574.232 -245.16)" fill="#28121e"/>
        <path id="Trazado_21938" data-name="Trazado 21938" d="M610.033,270.972s3.229-1.8,6.221,0" transform="translate(-580.41 -246.653)" fill="none" stroke="#bb5a38" stroke-miterlimit="10" stroke-width="0.707"/>
        <path id="Trazado_21939" data-name="Trazado 21939" d="M612.876,276.685a3.193,3.193,0,0,0,3.953-.251" transform="translate(-577.645 -240.564)" fill="none" stroke="#bb5a38" stroke-miterlimit="10" stroke-width="0.707"/>
        <g id="Grupo_6485" data-name="Grupo 6485" transform="translate(27.268 30.268)">
          <path id="Trazado_21940" data-name="Trazado 21940" d="M610.611,274a.408.408,0,1,1-.408-.406A.409.409,0,0,1,610.611,274Z" transform="translate(-607.91 -273.594)" fill="#bb5a38"/>
          <path id="Trazado_21941" data-name="Trazado 21941" d="M611.29,274.452a.175.175,0,1,1-.176-.176A.175.175,0,0,1,611.29,274.452Z" transform="translate(-606.795 -272.931)" fill="#bb5a38"/>
          <path id="Trazado_21942" data-name="Trazado 21942" d="M610.354,275.1a.358.358,0,1,1-.357-.357A.359.359,0,0,1,610.354,275.1Z" transform="translate(-608.062 -272.481)" fill="#bb5a38"/>
          <path id="Trazado_21943" data-name="Trazado 21943" d="M609.235,274.17a.2.2,0,1,1-.2-.2A.2.2,0,0,1,609.235,274.17Z" transform="translate(-608.839 -273.227)" fill="#bb5a38"/>
          <circle id="Elipse_553" data-name="Elipse 553" cx="0.3" cy="0.3" r="0.3" transform="translate(3.801 3.308)" fill="#bb5a38"/>
          <path id="Trazado_21944" data-name="Trazado 21944" d="M612.456,274.068a.268.268,0,1,1-.268-.268A.269.269,0,0,1,612.456,274.068Z" transform="translate(-605.843 -273.394)" fill="#bb5a38"/>
          <path id="Trazado_21945" data-name="Trazado 21945" d="M611.92,275.1a.466.466,0,1,1,.466.465A.465.465,0,0,1,611.92,275.1Z" transform="translate(-605.843 -272.587)" fill="#bb5a38"/>
        </g>
        <g id="Grupo_6486" data-name="Grupo 6486" transform="translate(41.073 30.357)">
          <path id="Trazado_21946" data-name="Trazado 21946" d="M617.609,274.047a.407.407,0,1,1-.406-.408A.407.407,0,0,1,617.609,274.047Z" transform="translate(-614.908 -273.639)" fill="#bb5a38"/>
          <path id="Trazado_21947" data-name="Trazado 21947" d="M618.291,274.5a.176.176,0,1,1-.176-.176A.176.176,0,0,1,618.291,274.5Z" transform="translate(-613.794 -272.975)" fill="#bb5a38"/>
          <path id="Trazado_21948" data-name="Trazado 21948" d="M617.354,275.142a.358.358,0,1,1-.359-.357A.359.359,0,0,1,617.354,275.142Z" transform="translate(-615.06 -272.525)" fill="#bb5a38"/>
          <path id="Trazado_21949" data-name="Trazado 21949" d="M616.236,274.216a.2.2,0,1,1-.2-.2A.2.2,0,0,1,616.236,274.216Z" transform="translate(-615.838 -273.271)" fill="#bb5a38"/>
          <path id="Trazado_21950" data-name="Trazado 21950" d="M618.366,275.615a.3.3,0,1,1-.3-.3A.3.3,0,0,1,618.366,275.615Z" transform="translate(-613.963 -272.007)" fill="#bb5a38"/>
          <path id="Trazado_21951" data-name="Trazado 21951" d="M619.457,274.114a.268.268,0,1,1-.268-.268A.269.269,0,0,1,619.457,274.114Z" transform="translate(-612.841 -273.438)" fill="#bb5a38"/>
        </g>
        <path id="Trazado_21952" data-name="Trazado 21952" d="M618.327,274.1a.356.356,0,1,1-.355-.357A.356.356,0,0,1,618.327,274.1Z" transform="translate(-573.037 -243.181)" fill="#bb5a38"/>
        <path id="Trazado_21953" data-name="Trazado 21953" d="M606.789,272.7l2.247,4.578s1.223-11.46,5.9-12.318C614.933,264.961,606.71,265.006,606.789,272.7Z" transform="translate(-583.565 -251.721)" fill="#ffc94a"/>
        <path id="Trazado_21954" data-name="Trazado 21954" d="M624.025,272.6l-1.126,5.513s-1.838-12.485-6.513-13.343C616.386,264.77,624.1,264.906,624.025,272.6Z" transform="translate(-574.232 -251.907)" fill="#ffc94a"/>
        <path id="Trazado_21955" data-name="Trazado 21955" d="M615.242,272.12l.923,3.314s1.369,2.1-2.043,2.1Z" transform="translate(-576.433 -244.76)" fill="#ed744d"/>
        <path id="Trazado_21956" data-name="Trazado 21956" d="M622.042,270.972a5.615,5.615,0,0,0-2.9-.8,4.167,4.167,0,0,0-4.182,5.564c.88,2.464,1.716,3.223-.081,3.442" transform="translate(-575.856 -246.653)" fill="none" stroke="#bb5a38" stroke-miterlimit="10" stroke-width="0.707"/>
        <path id="Trazado_21957" data-name="Trazado 21957" d="M625.926,265.209s.345,5.864-3.687,7.286-12.109.31-13.4,6.945c0,0-.828-6.588,0-10.324S619.474,262.9,625.926,265.209Z" transform="translate(-581.929 -252.346)" fill="#ffc94a"/>
      </g>
      <g id="Grupo_6488" data-name="Grupo 6488" transform="translate(32.705 225.49)">
        <path id="Trazado_21958" data-name="Trazado 21958" d="M616.812,378.545s-2.978,16.685-2.978,22.2,2.383,8.341,1.489,9.683-2.235,1.191-2.533,4.17-3.276,5.363-8.044,5.363-4.172-4.469-4.022-5.213,4.767-5.959,6.107-10.428-.893-27.259-.893-27.259S615.771,366.034,616.812,378.545Z" transform="translate(-600.62 -372.57)" fill="#ed744d"/>
      </g>
      <path id="Trazado_21959" data-name="Trazado 21959" d="M627.852,311.463H610.769s-10.748,9.014-10.748,34.8c0,11.9,3.884,38.991,5.872,54.543-1.469,15.655,1.775,51.169,1.775,51.169l7.6.122c2.716-16.852,4.755-32.977,4.919-47.088l7.661-46.115,0,.024Z" transform="translate(-568.497 -206.502)" fill="#ed744d"/>
      <g id="Grupo_6489" data-name="Grupo 6489" transform="translate(67.552 225.49)">
        <path id="Trazado_21960" data-name="Trazado 21960" d="M618.287,378.545s2.98,16.685,2.98,22.2-2.385,8.341-1.489,9.683,2.233,1.191,2.531,4.17,3.278,5.363,8.046,5.363,4.17-4.469,4.022-5.213-4.767-5.959-6.109-10.428.894-27.259.894-27.259S619.33,366.034,618.287,378.545Z" transform="translate(-618.287 -372.57)" fill="#ed744d"/>
      </g>
      <path id="Trazado_21961" data-name="Trazado 21961" d="M612.985,311.96l17.312-1.008a74.236,74.236,0,0,1,11.182,44.015c-.852,11.87-1.854,31.257-3.84,46.81,1.468,15.655-4.468,50.691-4.468,50.691l-7.6.122c-2.716-16.852-2.586-34.105-2.752-48.216l-9.829-44.987-.006.024Z" transform="translate(-555.891 -206.998)" fill="#ed744d"/>
      <path id="Trazado_21962" data-name="Trazado 21962" d="M625.719,348.523l.5-37.06H609.135s-4.276,3.594-7.434,12.716C617.467,333.288,625.6,348.629,625.719,348.523Z" transform="translate(-566.863 -206.502)" fill="#7986cb"/>
      <path id="Trazado_21963" data-name="Trazado 21963" d="M637.106,324.881a65.889,65.889,0,0,0-6.809-13.929l-17.312,1.008v28.01c.643.513,1.126,8.531,1.761,9.049C618.936,340,629.763,330.524,637.106,324.881Z" transform="translate(-555.891 -206.998)" fill="#7986cb"/>
      <path id="Trazado_21964" data-name="Trazado 21964" d="M643.279,337.858c-1.146-7.842-2.657-49.756-14.458-53.743,0,0-8.677,19.777-4.43,33.606a96.849,96.849,0,0,0,10.335,22.99C642.551,339.286,643.279,337.858,643.279,337.858Z" transform="translate(-545.937 -233.095)" fill="#ed744d"/>
      <path id="Trazado_21965" data-name="Trazado 21965" d="M651.987,286.883s-17.387-5.866-25.866-5.606c-10.286.318-26.722,7.071-26.722,7.071a91.384,91.384,0,0,0,2.41,20.545s8.347,30.468,9.88,33.768c6.621,14.257,23.255,15.265,30.557,1.258C644.772,339.073,651.987,286.883,651.987,286.883Z" transform="translate(-569.103 -235.863)" fill="#ed744d"/>
      <path id="Trazado_21966" data-name="Trazado 21966" d="M645.239,284.053c-1.118-.325-3.527-1.02-4.825-1.367-.672,8.351-1.726,18.33-7.649,23.811-4.095,3.787-11.381,3.5-14.578-.757-4.832-6.442-6.631-12.7-9.767-22.693-1.181.359-2.32.722-3.383,1.079.631,4.249,2.785,28.362-3.454,30.509.755,2.783,2.1,7.7,2.978,10.827a2.52,2.52,0,0,1,.29.148c6.649,4.247,14.777,3.2,22.261,2.677,5.724-.4,11.558-.767,17-2.46.773-4.314,1.525-9.051,2.217-13.716C641.779,304.331,644.17,292.229,645.239,284.053Z" transform="translate(-566.978 -234.485)" fill="#7986cb"/>
      <path id="Trazado_21967" data-name="Trazado 21967" d="M617.377,286.748s-1.375-2.892-2.464-2.493-6.049,1.335-6.049,1.335,5.079.036,5.973.682S617.736,287.33,617.377,286.748Z" transform="translate(-559.898 -232.996)" fill="#bb5a38"/>
      <path id="Trazado_21968" data-name="Trazado 21968" d="M614.546,286.64s.974-2.738,2.112-2.517a48.933,48.933,0,0,0,5.136.215s-4.034.655-4.813,1.434S614.284,287.271,614.546,286.64Z" transform="translate(-554.396 -233.1)" fill="#bb5a38"/>
      <path id="Trazado_21969" data-name="Trazado 21969" d="M608.573,284.858s5.87,5.673,3.909,24.851c0,0-6.134,26.253-12.432,34.074-3.1,3.852-5.408,4.588-8.517,2.99C586.565,344.216,593.689,291.26,608.573,284.858Z" transform="translate(-578.278 -232.373)" fill="#ed744d"/>
      <g id="Grupo_6490" data-name="Grupo 6490" transform="translate(35.055 80.934)">
        <path id="Trazado_21970" data-name="Trazado 21970" d="M613.558,308.366c-9.479,0-11.687-7.663-11.71-7.752a1.055,1.055,0,0,1,2.036-.556c.1.361,2.527,8.4,14.286,5.61a1.055,1.055,0,1,1,.489,2.053A22.07,22.07,0,0,1,613.558,308.366Z" transform="translate(-601.811 -299.281)" fill="#6473b2"/>
      </g>
      <g id="Grupo_6491" data-name="Grupo 6491" transform="translate(61.698 80.935)">
        <path id="Trazado_21971" data-name="Trazado 21971" d="M621.23,308.365a22.058,22.058,0,0,1-5.1-.645,1.055,1.055,0,0,1,.489-2.053c11.844,2.8,14.192-5.262,14.286-5.606a1.055,1.055,0,0,1,2.036.552C632.917,300.7,630.708,308.365,621.23,308.365Z" transform="translate(-615.319 -299.282)" fill="#6473b2"/>
      </g>
      <path id="Trazado_21972" data-name="Trazado 21972" d="M618.534,302.895" transform="translate(-550.495 -214.833)" fill="none" stroke="#dfc5b6" stroke-linecap="round" stroke-miterlimit="10" stroke-width="1.078"/>
      <g id="Grupo_6492" data-name="Grupo 6492" transform="translate(0 139.376)">
        <path id="Trazado_21973" data-name="Trazado 21973" d="M585.6,340l.775-1.379,5.138-9.71,5.781,2.5-.44,4.475s.536,8.515.258,8.821l-1.862,3.059a.615.615,0,0,1-1.065-.335,2.216,2.216,0,0,1,.249-1.868l.392-.661-.183-2.107-1.617,4.846-1.043,2.067a2.66,2.66,0,0,1-1.256,1.162.986.986,0,0,1-.466,0,.485.485,0,0,1-.246-.351,2.736,2.736,0,0,1,.288-1.72l.935-1.842,1.116-3.245c.16-.874-.235-.353-.312-.154l-1.44,3.748-1.483,2.746a2.67,2.67,0,0,1-1.258,1.164l-.036.016a.484.484,0,0,1-.674-.369l-.006-.039a2.661,2.661,0,0,1,.294-1.68l1.375-2.521,1.355-4.56c.124-.838-.292-.5-.408-.134l-.943,2.933-1.329,2.823a2.657,2.657,0,0,1-1.189,1.233l-.036.018a.483.483,0,0,1-.694-.331l-.008-.039a2.663,2.663,0,0,1,.2-1.692l1.233-2.594,1-3.692a.127.127,0,0,0-.217-.118l-.288.318-1.335,2.8-.381,2.205a1.338,1.338,0,0,1-1.288,1.063.411.411,0,0,1-.436-.509l.349-3.02Z" transform="translate(-584.039 -328.911)" fill="#ed744d"/>
      </g>
      <path id="Trazado_21974" data-name="Trazado 21974" d="M593.231,354.3s10.308-28.9,11.3-34.626c2-11.6-4.661-13.162-9.9-5.219-3.564,5.4-7.164,34.34-7.164,34.34-.365,1.444-.678,4.262-.678,4.262S588.408,354.841,593.231,354.3Z" transform="translate(-581.37 -208.4)" fill="#ed744d"/>
      <g id="Grupo_6493" data-name="Grupo 6493" transform="translate(93.62 138.439)">
        <path id="Trazado_21975" data-name="Trazado 21975" d="M643.387,339.955l-.665-1.434-4.359-10.085-5.959,2.037.085,4.5s-1.205,8.446-.951,8.773l1.615,3.2a.615.615,0,0,0,1.089-.25,2.221,2.221,0,0,0-.1-1.882l-.341-.688.349-2.087,1.233,4.959.878,2.142a2.651,2.651,0,0,0,1.16,1.258.984.984,0,0,0,.465.036.486.486,0,0,0,.272-.331,2.731,2.731,0,0,0-.152-1.736l-.787-1.911-.858-3.322c-.091-.884.262-.333.323-.128l1.14,3.85,1.262,2.852a2.665,2.665,0,0,0,1.162,1.258l.036.02a.486.486,0,0,0,.7-.314l.008-.039a2.673,2.673,0,0,0-.16-1.7l-1.174-2.621-.99-4.653c-.059-.844.329-.471.416-.1l.71,3,1.1,2.919a2.646,2.646,0,0,0,1.089,1.322l.034.022a.484.484,0,0,0,.718-.274l.012-.039a2.656,2.656,0,0,0-.067-1.7l-1.024-2.683-.71-3.759a.127.127,0,0,1,.225-.1l.262.339,1.112,2.9.205,2.229a1.338,1.338,0,0,0,1.2,1.162.408.408,0,0,0,.471-.473l-.109-3.038Z" transform="translate(-631.503 -328.436)" fill="#ed744d"/>
      </g>
      <path id="Trazado_21976" data-name="Trazado 21976" d="M636.617,353.913s-7.691-29.786-8.223-35.573c-1.083-11.72,5.371-12.59,9.971-4.26,3.128,5.667,4.438,34.8,4.438,34.8.25,1.469.341,4.3.341,4.3S641.383,354.834,636.617,353.913Z" transform="translate(-541.023 -209.317)" fill="#ed744d"/>
    </g>
    <g id="Grupo_6523" data-name="Grupo 6523" transform="translate(533.157 254.479)">
      <g id="Grupo_6506" data-name="Grupo 6506">
        <g id="Grupo_6504" data-name="Grupo 6504">
          <g id="Grupo_6495" data-name="Grupo 6495" transform="translate(0 36.655)">
            <path id="Trazado_21977" data-name="Trazado 21977" d="M548.626,275.062a1.883,1.883,0,0,1,.327-.387l-.012-.247Z" transform="translate(-513.121 -271.734)" fill="#ed744d"/>
            <path id="Trazado_21978" data-name="Trazado 21978" d="M626.244,358.657c-3.479,2.217-5.377-.795-5.377-.795a6.907,6.907,0,0,1-2.69.322c-2.057,0-6.959-.635-6.959-.635l-.795,7.913s-5.375,1.736-18.825,3.633-37.016-1.9-37.016-1.9l1.109-5.375s-8.389,3.953-14.558-1.27-6.959-30.693-6.959-30.693a32.65,32.65,0,0,1-3.479-12.493c-.473-7.118,1.262-15.034,12.493-21.2a127.427,127.427,0,0,1,23.736-9.657l-.26-5.911-.207-4.6c3.4-3.227,22.61-2.937,22.61-2.937l.8,7.3.633,5.834s25.945,4.9,30.212,8.067,8.227,16.454,10.446,32.275S629.731,356.44,626.244,358.657Z" transform="translate(-530.625 -273.063)" fill="#ed744d"/>
          </g>
          <path id="Trazado_21979" data-name="Trazado 21979" d="M542.309,335.3c-.308.552-1.264,14.343,0,24.046s3.586,24.89,3.586,24.89-4.641,13.29-4.008,18.985,6.541,36.7,6.541,36.7-2.533,9.071-1.688,11.6,8.448,6.042,17.4,7.7c8.543,1.584,11.284,2.408,14.6,1.345,2.272-.728,5.093-4.552,2.385-6.091a31.213,31.213,0,0,0-6.061-2.467L562.349,440.13s3.164-32.273,3.586-42.186-.211-12.024-.211-12.024.844-.844,2.531-6.75,4.008-38.18,4.219-41.977S546.317,328.124,542.309,335.3Z" transform="translate(-519.883 -179.35)" fill="#ed744d"/>
          <path id="Trazado_21980" data-name="Trazado 21980" d="M559.106,336.753s4.852,22.993,7.172,33.539,3.8,13.5,3.8,13.5-4.43,12.024-4.852,21.937,6.75,38.391,6.541,39.657-2.955,10.336-.844,13.077,33.328,1.9,35.648.633-.211-4.43-3.164-5.063a8.946,8.946,0,0,0-4.641,0s-11.6-8.858-12.655-11.18,4.217-55.476,5.061-60.326,1.319-33.434-2.266-45.879S559.95,328.1,559.106,336.753Z" transform="translate(-502.93 -182.285)" fill="#ed744d"/>
          <path id="Trazado_21981" data-name="Trazado 21981" d="M604.751,325.1c-.629-11.482-1.8-23.225-5-34.3a82.157,82.157,0,0,0-3.274-9.237c-.306-.72-.742-.647-1.458-.775l-1.931-.347a.463.463,0,0,0-.562.562,11.039,11.039,0,0,1-1.864,10.456c-2.617,3.18-6.611,5.069-10.535,6.057a31.416,31.416,0,0,1-25.48-4.927,79.764,79.764,0,0,1-10.01-8.623.579.579,0,0,0-.681-.087q-2.479,1.26-4.961,2.523a.574.574,0,0,0,0,.984,17.077,17.077,0,0,1,4.333,3.651,46.9,46.9,0,0,1,3.621,4.308,32.937,32.937,0,0,1,5.629,13.1c2.272,10.8.531,21.781-1.99,32.377-1.458,6.13-3.16,12.237-4,18.491a.54.54,0,0,0,.158.464.405.405,0,0,0,.243.46,35.566,35.566,0,0,0,8.27,2.018c3.937.6,7.911.974,11.886,1.2A126.635,126.635,0,0,0,593,362.513a49.579,49.579,0,0,0,5.779-1.183,9.212,9.212,0,0,0,4.215-1.972.429.429,0,0,0-.077-.682c1.6-4.8,1.688-10.008,1.935-15.016A178.073,178.073,0,0,0,604.751,325.1Z" transform="translate(-522.759 -229.243)" fill="#fadee1"/>
          <path id="Trazado_21982" data-name="Trazado 21982" d="M572.2,280.365a28.725,28.725,0,0,1-5.858,2.432c-4.182.909-7.669.473-11.86-.239A41.351,41.351,0,0,1,549,280.6l-.207-4.6c3.4-3.227,22.61-2.937,22.61-2.937Z" transform="translate(-512.96 -236.408)" fill="#c1b1b3" style="mix-blend-mode: multiply;isolation: isolate"/>
          <path id="Trazado_21983" data-name="Trazado 21983" d="M562.354,254.6c-5.7.633-11.391.949-15.821,6.328-3.769,4.578-2.373,12.5-.949,19.46s3.164,15.345,6.17,16.294,12.815,3.322,19.776,1.582,9.333-5.694,11.864-11.233c2.091-4.57-1.9-20.249-3.955-25.312S568.973,253.86,562.354,254.6Z" transform="translate(-517.515 -254.479)" fill="#ed744d"/>
          <path id="Trazado_21984" data-name="Trazado 21984" d="M549.791,269.874s-3.56-3.164-5.775-1.661-1.028,7.276,1.978,7.673a5.52,5.52,0,0,0,4.667-1.424Z" transform="translate(-518.716 -241.518)" fill="#ed744d"/>
          <path id="Trazado_21985" data-name="Trazado 21985" d="M545.428,308.536c.525-.418,19.353-4.588,31.851-5.219a202.341,202.341,0,0,1,25.1.527s-3.428,4.43-14.028,11.706-17.929,11.18-29,14.186a115.575,115.575,0,0,1-18.825,3.639S541.474,311.7,545.428,308.536Z" transform="translate(-520.998 -207.171)" fill="#ed744d"/>
          <path id="Trazado_21986" data-name="Trazado 21986" d="M590.6,328.531a102.5,102.5,0,0,1-16.77-1.688,48.507,48.507,0,0,1-11.736-3.458c-.292-.122-.566-.245-.818-.367a24.634,24.634,0,0,1-3.694-2.079L556.11,304.8s9.7-1.055,19.093-1.582a60.229,60.229,0,0,1,12.1.55c.115.016.229.03.337.045v.008a38,38,0,0,1,3.915.773s4.846,2.109,5.481,9.274S590.6,328.531,590.6,328.531Z" transform="translate(-505.843 -207.177)" fill="#ed744d"/>
          <path id="Trazado_21987" data-name="Trazado 21987" d="M544.234,319.733a177.409,177.409,0,0,0,32.115,2.057c16.294-.633,25.152-3.006,25.152-3.006a20.607,20.607,0,0,0-.158,4.27c.158,2.373,4.905,20.093,5.7,23.1a46.423,46.423,0,0,1,1.107,5.7,157.975,157.975,0,0,0-16.612,3.006,68.531,68.531,0,0,0-12.973,4.112s-1.422-5.221-1.9-7.909-.791-3.955-.791-3.955l-2.215,11.549a90.875,90.875,0,0,1-17.4-.633,74.727,74.727,0,0,1-14.87-3.006,159.168,159.168,0,0,1,.473-19.933C542.81,326.851,544.234,319.733,544.234,319.733Z" transform="translate(-520.277 -191.947)" fill="#ffd54f"/>
          <g id="Grupo_6496" data-name="Grupo 6496" transform="translate(33.884 199.072)" style="mix-blend-mode: multiply;isolation: isolate">
            <path id="Trazado_21988" data-name="Trazado 21988" d="M547.84,355.971c.84,1.909.621,4.347,2.158,5.935a4.835,4.835,0,0,0,2.724,1.217,12.709,12.709,0,0,0,1.594.162,2.818,2.818,0,0,0,1.395-.185c.2-.093.1-.349-.055-.414a4.141,4.141,0,0,0-1.339-.193,10.778,10.778,0,0,1-1.42-.193,4.058,4.058,0,0,1-2.406-1.205A7.355,7.355,0,0,1,549.4,358.4a15,15,0,0,0-.923-2.8c-.215-.434-.828-.053-.639.373Z" transform="translate(-547.804 -355.407)" fill="#c1b1b3"/>
          </g>
          <g id="Grupo_6497" data-name="Grupo 6497" transform="translate(81.833 196.406)" style="mix-blend-mode: multiply;isolation: isolate">
            <path id="Trazado_21989" data-name="Trazado 21989" d="M572.15,354.588c.363.8.607,1.645.939,2.456a6.576,6.576,0,0,0,.625,1.2,1.792,1.792,0,0,0,1.042.858.279.279,0,0,0,.337-.337,3.758,3.758,0,0,0-.59-1.057c-.233-.369-.426-.759-.621-1.148-.383-.771-.7-1.576-1.122-2.329-.227-.4-.793-.049-.609.355Z" transform="translate(-572.114 -354.055)" fill="#c1b1b3"/>
          </g>
          <g id="Grupo_6498" data-name="Grupo 6498" transform="translate(56.372 275.693)" style="mix-blend-mode: multiply;isolation: isolate">
            <path id="Trazado_21990" data-name="Trazado 21990" d="M559.447,394.9c1.629.3,2.767,1.432,4.051,2.379.252.187.817.631,1.116.32.327-.341-.335-.728-.554-.892-.629-.473-1.26-.959-1.911-1.4a6.29,6.29,0,0,0-2.525-1.053c-.418-.065-.6.566-.177.645Z" transform="translate(-559.205 -394.253)" fill="#c1b1b3"/>
          </g>
          <g id="Grupo_6499" data-name="Grupo 6499" transform="translate(56.612 278.143)" style="mix-blend-mode: multiply;isolation: isolate">
            <path id="Trazado_21991" data-name="Trazado 21991" d="M559.526,396.261c.375.221.734.467,1.087.722.17.122.337.251.507.371a2.075,2.075,0,0,0,.278.148.961.961,0,0,0,.392.083.258.258,0,0,0,.249-.325,1.072,1.072,0,0,0-.176-.331,2.317,2.317,0,0,0-.221-.219c-.187-.156-.394-.292-.594-.434-.359-.256-.724-.5-1.107-.726a.412.412,0,0,0-.416.712Z" transform="translate(-559.327 -395.495)" fill="#c1b1b3"/>
          </g>
          <g id="Grupo_6500" data-name="Grupo 6500" transform="translate(55.053 280.219)" style="mix-blend-mode: multiply;isolation: isolate">
            <path id="Trazado_21992" data-name="Trazado 21992" d="M558.818,397.312c.323.1.655.17.972.284.018.006.1.028.109.041,0-.008-.077-.034-.024-.01l.059.028c.069.034.142.069.209.107.033.018.063.037.095.057l.049.034c.039.028,0,0-.016-.012a.552.552,0,0,0,.223.107c.034.008.067.018.1.028a.258.258,0,0,0,.326-.247.753.753,0,0,0-.075-.329.9.9,0,0,0-.219-.221,2.141,2.141,0,0,0-.568-.308c-.335-.13-.688-.2-1.032-.308a.393.393,0,0,0-.477.27.4.4,0,0,0,.27.479Z" transform="translate(-558.536 -396.548)" fill="#c1b1b3"/>
          </g>
          <g id="Grupo_6501" data-name="Grupo 6501" transform="translate(32.498 259.259)" style="mix-blend-mode: multiply;isolation: isolate">
            <path id="Trazado_21993" data-name="Trazado 21993" d="M547.116,386.515c.174.74.221,1.5.438,2.235a3.43,3.43,0,0,0,.5,1.093c.27.359.819.748,1.262.462a.327.327,0,0,0,.148-.363.684.684,0,0,0-.15-.3c-.053-.057-.114-.108-.168-.168-.03-.034-.17-.207-.087-.089-.041-.059-.085-.116-.128-.172s-.059-.081-.012-.012a3.589,3.589,0,0,1-.262-.456c-.061-.124.037.1-.012-.03-.016-.039-.034-.081-.047-.12-.033-.091-.063-.182-.091-.272-.207-.677-.286-1.383-.475-2.063a.478.478,0,0,0-.921.254Z" transform="translate(-547.101 -385.921)" fill="#c1b1b3"/>
          </g>
          <g id="Grupo_6502" data-name="Grupo 6502" transform="translate(73.935 260.346)" style="mix-blend-mode: multiply;isolation: isolate">
            <path id="Trazado_21994" data-name="Trazado 21994" d="M568.111,386.8a3.7,3.7,0,0,0,.6,1.834,2.688,2.688,0,0,0,.7.682,1.837,1.837,0,0,0,.462.231.764.764,0,0,0,.564-.041.205.205,0,0,0,.073-.278,1.053,1.053,0,0,0-.365-.326c-.118-.067-.245-.12-.361-.193a1.678,1.678,0,0,1-.17-.114c.059.045-.02-.02-.026-.024l-.069-.061c-.049-.045-.095-.093-.14-.142l-.069-.083c-.047-.055.026.039-.022-.026a2.843,2.843,0,0,1-.2-.329c-.032-.061-.061-.122-.089-.187.026.063-.014-.034-.014-.038l-.034-.091a4.012,4.012,0,0,1-.118-.418,3.824,3.824,0,0,1-.067-.4.339.339,0,0,0-.329-.329.331.331,0,0,0-.327.329Z" transform="translate(-568.109 -386.472)" fill="#c1b1b3"/>
          </g>
          <g id="Grupo_6503" data-name="Grupo 6503" transform="translate(55.437 96.541)" style="mix-blend-mode: multiply;isolation: isolate">
            <path id="Trazado_21995" data-name="Trazado 21995" d="M585.134,303.853c-.6,1.085-1.972,1.9-2.921,2.677-1.039.856-2.095,1.712-3.158,2.552-2.049,1.621-4.128,3.219-6.255,4.758-4.367,3.172-8.6,6.521-13.251,9.251-.292-.122-.566-.245-.818-.367,4.527-2.86,9.229-6.316,13.511-9.489,2.241-1.659,4.458-3.341,6.629-5.085q1.583-1.272,3.142-2.568a11.2,11.2,0,0,1,2.738-2.11.264.264,0,0,1,.061-.032.243.243,0,0,1,.276.077v.008A.305.305,0,0,1,585.134,303.853Z" transform="translate(-558.731 -303.425)" fill="#c1b1b3"/>
          </g>
          <path id="Trazado_21996" data-name="Trazado 21996" d="M563.261,306.21c-3.692,1.1-6.9,6.921-8.687,6.5a1.038,1.038,0,0,1-.911-1.063,3.331,3.331,0,0,1,.452-1.483c-.162.26-.521.85-.986,1.491-.925,1.278-2.256,2.791-3.2,2.477-.97-.327-1.008-1.606-.894-2.546v-.014a7.779,7.779,0,0,1,.205-1.026s-.274.521-.718,1.178l-.008.008c-.763,1.14-2.026,2.7-3.227,2.767-1.223.069-1.069-1.3-.8-2.286V312.2c.138-.483.29-.872.322-.949a1.962,1.962,0,0,1-.489.4,2.072,2.072,0,0,1-2.3-.213c-1.345-.872,6.355-10.377,9.6-9.811A30.834,30.834,0,0,1,563.261,306.21Z" transform="translate(-519.698 -208.652)" fill="#ed744d"/>
          <path id="Trazado_21997" data-name="Trazado 21997" d="M563.287,306.213l-.1-.071-.024-.014-.018-.012-.067-.045A19.212,19.212,0,0,0,558.208,310a11.931,11.931,0,0,1-2.442,2.057c-.531.3-1.375.684-1.617-.126a2.966,2.966,0,0,1,.576-2.227,21.057,21.057,0,0,1,1.521-2.15c.268-.337.55-.673.85-.986.245-.268.726-.574.795-.949.016-.077-.032-.183-.13-.176-.4.045-.688.489-.941.765-.322.351-.627.71-.917,1.085-1.493,1.884-2.6,4.128-4.308,5.832-.685.684-2.075,1.544-2.286-.008a7.934,7.934,0,0,1,.339-2.6c.278-.525.564-1.047.88-1.556a20.3,20.3,0,0,1,1.72-2.393c.29-.359.6-.7.909-1.039.276-.308.72-.627.818-1.041a.148.148,0,0,0-.183-.183c-.4.1-.68.5-.949.8-.343.383-.673.773-.994,1.178a31.251,31.251,0,0,0-2.607,4.1,12,12,0,0,1-2.726,3.592,1.965,1.965,0,0,1-1.215.592c-.724-.071-.818-.911-.773-1.426a7.271,7.271,0,0,1,.6-2.148.252.252,0,0,0,.02-.1,18.682,18.682,0,0,1,2.5-3.864c.574-.665,1.14-1.345,1.751-1.98.282-.3.588-.6.893-.872.2-.183.619-.4.675-.68a.082.082,0,0,0-.085-.107c-.276-.03-.566.314-.75.481-.337.3-.657.619-.978.941-.659.659-1.3,1.316-1.9,2.026a18.713,18.713,0,0,0-1.519,2.12,12.672,12.672,0,0,1-1.162,1.941c-.424.473-1.142,1.1-1.821.789-.894-.4-.294-1.611.039-2.221a20.31,20.31,0,0,1,2.511-3.629,25.431,25.431,0,0,1,2.136-2.039,11.39,11.39,0,0,1,3.095-1.994l.012-.221a13.612,13.612,0,0,0-1.964.9,14.252,14.252,0,0,0-1.986,1.661,21.1,21.1,0,0,0-3.56,4.1c-.592.89-1.8,2.546-.9,3.606.617.726,1.519.394,2.217-.124-.406,1.389-.651,3.4,1.049,3.306.976-.055,1.775-1.006,2.351-1.694a17.392,17.392,0,0,0,1.243-1.724c-.227,1.432-.25,3.3,1.487,2.842,1.347-.357,2.335-1.824,3.154-3.1a1.485,1.485,0,0,0,.365,1.306c.659.582,1.617-.057,2.172-.464,2.517-1.838,4.32-4.564,7.2-5.913A.628.628,0,0,0,563.287,306.213Z" transform="translate(-519.75 -208.675)" fill="#c2b3b5" style="mix-blend-mode: multiply;isolation: isolate"/>
        </g>
        <g id="Grupo_6505" data-name="Grupo 6505" transform="translate(48.521 92.431)" style="mix-blend-mode: multiply;isolation: isolate">
          <path id="Trazado_21998" data-name="Trazado 21998" d="M555.574,304.387a39.57,39.57,0,0,1,12.243-1.972c2.065-.079,4.132-.091,6.2-.073a28.142,28.142,0,0,0,5.907-.227.235.235,0,0,0,0-.45,29.552,29.552,0,0,0-5.907-.321c-2.172-.008-4.347,0-6.517.12a37.285,37.285,0,0,0-12.077,2.359c-.341.14-.2.7.154.564Z" transform="translate(-555.225 -301.34)" fill="#d7cdce"/>
        </g>
      </g>
      <g id="Grupo_6522" data-name="Grupo 6522" transform="translate(38.849 13.993)">
        <g id="Grupo_6507" data-name="Grupo 6507" transform="translate(18.018 4.777)">
          <path id="Trazado_21999" data-name="Trazado 21999" d="M561.8,265.413c.146.884-.256,1.682-.9,1.789s-1.276-.527-1.422-1.408.258-1.683.9-1.787S561.661,264.531,561.8,265.413Z" transform="translate(-559.456 -263.995)" fill="#28121e"/>
        </g>
        <g id="Grupo_6508" data-name="Grupo 6508" transform="translate(6.195 5.957)">
          <path id="Trazado_22000" data-name="Trazado 22000" d="M555.811,266.013c.146.882-.256,1.682-.9,1.787s-1.276-.525-1.422-1.406.258-1.684.9-1.789S555.667,265.129,555.811,266.013Z" transform="translate(-553.462 -264.593)" fill="#28121e"/>
        </g>
        <g id="Grupo_6509" data-name="Grupo 6509" transform="translate(2.323 1.917)">
          <path id="Trazado_22001" data-name="Trazado 22001" d="M552.537,265.831c.033-.026,3.379-2.606,7.006-1.166l.617-1.552c-4.535-1.811-8.5,1.272-8.661,1.406Z" transform="translate(-551.499 -262.545)" fill="#bb5a38"/>
        </g>
        <g id="Grupo_6510" data-name="Grupo 6510" transform="translate(12.976)">
          <path id="Trazado_22002" data-name="Trazado 22002" d="M559.235,275.53a2.363,2.363,0,0,0,1.714-1.221c.315-.824-.164-1.6-.89-2.763-.274-.44-.6-.959-.937-1.574a4.967,4.967,0,0,1-.286-.621,4.238,4.238,0,0,1,.341-3.679,4.866,4.866,0,0,1,3.46-2.341,6.315,6.315,0,0,1,3.379.357l.617-1.552a7.979,7.979,0,0,0-4.256-.456,6.517,6.517,0,0,0-4.641,3.148,5.963,5.963,0,0,0-.468,5.1,6.571,6.571,0,0,0,.391.85c.357.645.694,1.187.982,1.647a8.017,8.017,0,0,1,.722,1.3c-.067-.022-.221.081-.6.191Z" transform="translate(-556.9 -261.573)" fill="#bb5a38"/>
        </g>
        <g id="Grupo_6511" data-name="Grupo 6511" transform="translate(11.956 16.895)">
          <path id="Trazado_22003" data-name="Trazado 22003" d="M558.884,273.068a4.837,4.837,0,0,0,3.422-1.878l-1.3-1.051a3.185,3.185,0,0,1-3.894.994l-.732,1.5A4.959,4.959,0,0,0,558.884,273.068Z" transform="translate(-556.383 -270.139)" fill="#bb5a38"/>
        </g>
        <g id="Grupo_6512" data-name="Grupo 6512" transform="translate(2.259 12.255)">
          <path id="Trazado_22004" data-name="Trazado 22004" d="M552.5,268.222a.521.521,0,1,1-.6-.428A.521.521,0,0,1,552.5,268.222Z" transform="translate(-551.467 -267.786)" fill="#bb5a38"/>
        </g>
        <g id="Grupo_6513" data-name="Grupo 6513" transform="translate(5.34 13.535)">
          <path id="Trazado_22005" data-name="Trazado 22005" d="M553.473,268.624a.224.224,0,1,1-.256-.185A.225.225,0,0,1,553.473,268.624Z" transform="translate(-553.029 -268.436)" fill="#bb5a38"/>
        </g>
        <g id="Grupo_6514" data-name="Grupo 6514" transform="translate(2.328 15.175)">
          <path id="Trazado_22006" data-name="Trazado 22006" d="M552.409,269.648a.457.457,0,1,1-.525-.375A.456.456,0,0,1,552.409,269.648Z" transform="translate(-551.502 -269.267)" fill="#bb5a38"/>
        </g>
        <g id="Grupo_6515" data-name="Grupo 6515" transform="translate(0 13.629)">
          <path id="Trazado_22007" data-name="Trazado 22007" d="M550.824,268.7a.253.253,0,1,1-.29-.209A.251.251,0,0,1,550.824,268.7Z" transform="translate(-550.321 -268.483)" fill="#bb5a38"/>
        </g>
        <g id="Grupo_6516" data-name="Grupo 6516" transform="translate(5.336 16.05)">
          <path id="Trazado_22008" data-name="Trazado 22008" d="M553.787,270.031a.383.383,0,1,1-.44-.316A.381.381,0,0,1,553.787,270.031Z" transform="translate(-553.026 -269.71)" fill="#bb5a38"/>
        </g>
        <g id="Grupo_6517" data-name="Grupo 6517" transform="translate(7.597 11.934)">
          <path id="Trazado_22009" data-name="Trazado 22009" d="M554.852,267.911a.342.342,0,1,1-.393-.282A.341.341,0,0,1,554.852,267.911Z" transform="translate(-554.173 -267.624)" fill="#bb5a38"/>
        </g>
        <g id="Grupo_6518" data-name="Grupo 6518" transform="translate(7.972 13.95)">
          <path id="Trazado_22010" data-name="Trazado 22010" d="M554.371,269.336a.594.594,0,1,1,.682.489A.593.593,0,0,1,554.371,269.336Z" transform="translate(-554.363 -268.646)" fill="#bb5a38"/>
        </g>
        <g id="Grupo_6519" data-name="Grupo 6519" transform="translate(19.142 9.877)">
          <path id="Trazado_22011" data-name="Trazado 22011" d="M560.929,266.962a.455.455,0,1,1-.521-.375A.454.454,0,0,1,560.929,266.962Z" transform="translate(-560.026 -266.581)" fill="#bb5a38"/>
        </g>
        <g id="Grupo_6520" data-name="Grupo 6520" transform="translate(20.943 12.557)">
          <path id="Trazado_22012" data-name="Trazado 22012" d="M560.948,268.674a.633.633,0,1,1,.726.523A.631.631,0,0,1,560.948,268.674Z" transform="translate(-560.94 -267.94)" fill="#bb5a38"/>
        </g>
        <g id="Grupo_6521" data-name="Grupo 6521" transform="translate(22.099 10.245)">
          <path id="Trazado_22013" data-name="Trazado 22013" d="M562.258,267.076a.371.371,0,0,1-.306.424.369.369,0,1,1,.306-.424Z" transform="translate(-561.525 -266.767)" fill="#bb5a38"/>
        </g>
      </g>
    </g>
  </g>
</svg>
