<svg id="Grupo_860" data-name="Grupo 860" xmlns="http://www.w3.org/2000/svg" width="48" height="48" viewBox="0 0 48 48">
  <rect id="Rectángulo_450" data-name="Rectángulo 450" width="48" height="48" fill="#fff"/>
  <path id="SENA_LOGO" data-name="SENA LOGO" d="M12.773,1a2.58,2.58,0,1,0,2.58,2.58h0A2.581,2.581,0,0,0,12.773,1ZM4.254,6.988a4.81,4.81,0,0,0-1.339.146,1.591,1.591,0,0,0-.73.365.762.762,0,0,0-.146.8,1.025,1.025,0,0,0,.657.511,13.773,13.773,0,0,0,2,.389.727.727,0,0,1,.341.146.2.2,0,0,1-.1.292,1.3,1.3,0,0,1-.755.1,1.191,1.191,0,0,1-.657-.146A.28.28,0,0,1,3.4,9.252H1.917a1.093,1.093,0,0,0,.195.657,1.083,1.083,0,0,0,.609.341,4.071,4.071,0,0,0,1.217.146,7.477,7.477,0,0,0,1.655-.122A1.575,1.575,0,0,0,6.42,9.86a.764.764,0,0,0-.195-1.217A3.033,3.033,0,0,0,5.4,8.351c-.438-.1-.852-.146-1.29-.219A1.3,1.3,0,0,1,3.67,8.01a.175.175,0,0,1,0-.316A1.336,1.336,0,0,1,4.3,7.6a1.505,1.505,0,0,1,.657.122.268.268,0,0,1,.146.243H6.517a.809.809,0,0,0-.17-.511,1.266,1.266,0,0,0-.682-.389c-.511-.049-.974-.073-1.412-.073Zm3.043.1v3.359H11.41v-.73h-2.6V9.057h2.312V8.351H8.805V7.815h2.507v-.73Zm6.791,0h-1.9v3.359h1.436V8.181L15.6,10.444h1.972V7.085H16.132V9.325Zm6.061,0-2.337,3.359h1.509l.365-.609h2.337l.341.609h1.68L21.828,7.085Zm.755.8.73,1.217H20.148ZM.7,11.418l.024,1.826,6.864-.024c.341.073.56.292.487.828L3.84,21.422,5.2,22.712l6.523-11.294Zm13.071,0L20.2,22.663,21.609,21.4l-4.26-7.375c-.073-.511.122-.755.487-.828l6.864.024v-1.8ZM12.7,13.292,6.663,23.613l1.606.779L12.286,17.6a.611.611,0,0,1,.414-.17.668.668,0,0,1,.438.17l4.016,6.815,1.655-.852Z" transform="translate(11.367 11.399)" fill="#141c33"/>
</svg>
