<svg xmlns="http://www.w3.org/2000/svg" xmlns:xlink="http://www.w3.org/1999/xlink" width="249.609" height="279.704" viewBox="0 0 249.609 279.704">
  <defs>
    <clipPath id="clip-path">
      <circle id="Elipse_849" data-name="Elipse 849" cx="124.805" cy="124.805" r="124.805" fill="none"/>
    </clipPath>
  </defs>
  <g id="Grupo_15410" data-name="Grupo 15410" transform="translate(-399.448 -832.939)">
    <circle id="Elipse_846" data-name="Elipse 846" cx="119.63" cy="119.63" r="119.63" transform="translate(404.622 860.811)" fill="#f8f3ff"/>
    <g id="Grupo_15383" data-name="Grupo 15383" transform="translate(399.448 855.637)">
      <g id="Grupo_15382" data-name="Grupo 15382" clip-path="url(#clip-path)">
        <path id="Trazado_24442" data-name="Trazado 24442" d="M459.581,906.947c-10.259-1.844-18.918,4.6-21.538,14.685a189.054,189.054,0,0,0-5.534,37.49c-1.962,36.848-.988,68.8.383,85.412a16.546,16.546,0,0,0,16.071,15.176h0a16.56,16.56,0,0,0,16.891-14.72L476.2,928.779a19.876,19.876,0,0,0-16.269-21.767Z" transform="translate(-349.228 -739.81)" fill="#7b1fa2"/>
        <path id="Trazado_24443" data-name="Trazado 24443" d="M466.465,906.835c10.3-1.576,16.526,5.089,18.882,15.243A188.962,188.962,0,0,1,489.9,959.7c1,36.884-.815,68.8-2.621,85.374a16.544,16.544,0,0,1-16.462,14.746h0a16.559,16.559,0,0,1-16.5-15.155l-5.041-116.442a19.877,19.877,0,0,1,16.832-21.335Z" transform="translate(-321.247 -739.855)" fill="#7b1fa2"/>
        <g id="Grupo_15358" data-name="Grupo 15358" transform="translate(89.375 147.934)">
          <path id="Trazado_24444" data-name="Trazado 24444" d="M493.546,899.288H451.11s-10.845,7.792-16.909,32.041L466.252,949.6a11.71,11.71,0,0,0,12.1,0l29.86-18.4C501.7,907.669,493.546,899.288,493.546,899.288Z" transform="translate(-434.201 -899.288)" fill="#7b1fa2"/>
          <g id="Grupo_15355" data-name="Grupo 15355" transform="translate(35.626 51.532)">
            <line id="Línea_10437" data-name="Línea 10437" x1="14.75" transform="translate(0.46 0.46)" fill="#65198e"/>
            <path id="Trazado_24445" data-name="Trazado 24445" d="M463.263,920.247H448.514a.46.46,0,1,1,0-.921h14.749a.46.46,0,1,1,0,.921Z" transform="translate(-448.054 -919.326)" fill="#65198e"/>
          </g>
          <g id="Grupo_15356" data-name="Grupo 15356" transform="translate(8.975 7.553)">
            <path id="Trazado_24446" data-name="Trazado 24446" d="M451.13,902.405s-.841,14.368-13.26,17.979" transform="translate(-437.41 -901.942)" fill="#65198e"/>
            <path id="Trazado_24447" data-name="Trazado 24447" d="M438.151,921.127a.459.459,0,0,1-.442-.329.464.464,0,0,1,.314-.573c11.956-3.475,12.92-17.424,12.928-17.565a.45.45,0,0,1,.486-.432.464.464,0,0,1,.435.486c-.01.149-1.005,14.739-13.592,18.4A.535.535,0,0,1,438.151,921.127Z" transform="translate(-437.691 -902.225)" fill="#65198e"/>
          </g>
          <g id="Grupo_15357" data-name="Grupo 15357" transform="translate(58.307 7.857)">
            <path id="Trazado_24448" data-name="Trazado 24448" d="M457.052,902.522s1.713,11.614,11.624,17.981" transform="translate(-456.592 -902.062)" fill="#65198e"/>
            <path id="Trazado_24449" data-name="Trazado 24449" d="M468.957,921.245a.467.467,0,0,1-.249-.072c-9.971-6.409-11.812-18.185-11.83-18.3a.46.46,0,1,1,.91-.136c.018.113,1.805,11.485,11.418,17.66a.461.461,0,0,1-.25.849Z" transform="translate(-456.873 -902.343)" fill="#65198e"/>
          </g>
        </g>
        <g id="Grupo_15369" data-name="Grupo 15369" transform="translate(60.664 56.517)">
          <g id="Grupo_15362" data-name="Grupo 15362" transform="translate(75.582 10.867)">
            <g id="Grupo_15360" data-name="Grupo 15360" transform="translate(22.481 71.189)">
              <g id="Grupo_15359" data-name="Grupo 15359">
                <path id="Trazado_24450" data-name="Trazado 24450" d="M461.345,905.452,480.07,972.27l7.62-.779s-5.308-42.853-9.816-69.287c-.718-4.195-6.3-7.406-10.418-6.355h0C463.593,896.831,460.365,901.589,461.345,905.452Z" transform="translate(-461.168 -895.648)" fill="#dc927b"/>
              </g>
              <path id="Trazado_24451" data-name="Trazado 24451" d="M469.982,925.015a20.449,20.449,0,0,0-1.047,16.078l-1.682,8.849a2.948,2.948,0,0,0,1.692,3.274h0a2.511,2.511,0,0,0,3.318-1.551l1.839-5.038.3,1.885a14.188,14.188,0,0,1-1.355,8.664l-3.832,7.448a2.874,2.874,0,0,0,.085,2.734h0a2.4,2.4,0,0,0,4.115.242l6.188-9.042a16.02,16.02,0,0,0,2.348-12.308l-4.873-23.215Z" transform="translate(-451.687 -852.602)" fill="#dc927b"/>
            </g>
            <g id="Grupo_15361" data-name="Grupo 15361">
              <path id="Trazado_24452" data-name="Trazado 24452" d="M485.095,928.6l-9.369-49.269-19.085,5.686,12.11,47.23a8.376,8.376,0,0,0,10.112,6.054h0A8.378,8.378,0,0,0,485.095,928.6Z" transform="translate(-445.802 -850.1)" fill="#dc927b"/>
              <path id="Trazado_24453" data-name="Trazado 24453" d="M460.056,922.977l31.8-6.53-7.293-35.513A16.228,16.228,0,0,0,465.394,868.3h0a16.228,16.228,0,0,0-12.632,19.165Z" transform="translate(-452.427 -867.966)" fill="#ffd54f"/>
            </g>
          </g>
          <g id="Grupo_15363" data-name="Grupo 15363" transform="translate(26.548)">
            <path id="Trazado_24454" data-name="Trazado 24454" d="M472.453,863.741l-35.878,14.515a5.145,5.145,0,0,0-3.006,6.216l19.167,64.2H495.1s9.361-50.1,13.288-66.628a5.222,5.222,0,0,0-3.238-6.218Z" transform="translate(-433.36 -863.741)" fill="#ffd54f"/>
            <path id="Trazado_24455" data-name="Trazado 24455" d="M438.91,873.783l24.82-10.042,21.734,7.926s6.254,12.221-13.005,13.808C448.325,887.46,438.91,873.783,438.91,873.783Z" transform="translate(-424.637 -863.741)" fill="#dc927b"/>
            <rect id="Rectángulo_3730" data-name="Rectángulo 3730" width="42.436" height="6.489" transform="translate(19.071 84.928)" fill="#ffd54f"/>
            <line id="Línea_10438" data-name="Línea 10438" y1="24.951" x2="4.897" transform="translate(65.731 38.999)" fill="#ffd54f"/>
          </g>
          <g id="Grupo_15368" data-name="Grupo 15368" transform="translate(0 13.249)">
            <g id="Grupo_15365" data-name="Grupo 15365" transform="translate(0 71.188)">
              <g id="Grupo_15364" data-name="Grupo 15364" transform="translate(4.092)">
                <path id="Trazado_24456" data-name="Trazado 24456" d="M450.973,906.378,432.245,973.2l-7.617-.779s5.308-42.853,9.816-69.287c.715-4.195,6.3-7.406,10.418-6.355h0C448.725,897.76,451.953,902.515,450.973,906.378Z" transform="translate(-424.628 -896.574)" fill="#dc927b"/>
              </g>
              <path id="Trazado_24457" data-name="Trazado 24457" d="M435.356,925.941A20.458,20.458,0,0,1,436.4,942.02l1.682,8.849a2.945,2.945,0,0,1-1.692,3.274h0a2.507,2.507,0,0,1-3.315-1.551l-1.839-5.036-.3,1.885a14.181,14.181,0,0,0,1.353,8.662l3.832,7.448a2.874,2.874,0,0,1-.082,2.734h0a2.4,2.4,0,0,1-4.115.242l-6.19-9.04a16.04,16.04,0,0,1-2.348-12.311l4.873-23.215Z" transform="translate(-423.037 -853.528)" fill="#dc927b"/>
            </g>
            <g id="Grupo_15367" data-name="Grupo 15367" transform="translate(13.652)">
              <path id="Trazado_24458" data-name="Trazado 24458" d="M428.494,929.529l9.369-49.269,19.087,5.686-12.11,47.229a8.379,8.379,0,0,1-10.115,6.054h0A8.38,8.38,0,0,1,428.494,929.529Z" transform="translate(-428.345 -851.026)" fill="#dc927b"/>
              <g id="Grupo_15366" data-name="Grupo 15366" transform="translate(0.015)">
                <path id="Trazado_24459" data-name="Trazado 24459" d="M460.15,923.9l-31.8-6.53,7.293-35.513a16.233,16.233,0,0,1,19.165-12.632h0a16.23,16.23,0,0,1,12.635,19.165Z" transform="translate(-428.351 -868.893)" fill="#ffd54f"/>
                <path id="Trazado_24460" data-name="Trazado 24460" d="M448.056,881.287l-4.928,23.164-4.285-1.024" transform="translate(-411.861 -849.412)" fill="#ffd54f"/>
              </g>
            </g>
          </g>
        </g>
        <g id="Grupo_15381" data-name="Grupo 15381" transform="translate(79.034 -22.698)">
          <path id="Trazado_24461" data-name="Trazado 24461" d="M457.877,836.929s8.682-3.793,15.978,3.073,2.147,11.447,8.584,14.844,1.738,12.8,9.25,17.086,2.554,14.842-5.172,16.341c0,0-3.711,9.785-11.853,8.844,0,0-7.532,8.374-22.207,3.055l-5.4-2.217Z" transform="translate(-403.657 -828.311)" fill="#004061"/>
          <path id="Trazado_24462" data-name="Trazado 24462" d="M454.679,838.955s-9.765,1.26-11.658,9.932-1.2,6.622-6.566,11.035,1.42,9.407-2.837,13.823c-2.173,2.255-3.2,4.1-3.4,6.224a7.817,7.817,0,0,0,5.84,8.109c2.469.7,4.485,3.037,5.954,6.216,2.911,6.306,13.332,3.567,13.332,3.567s9.842,5.735,15.873,1.476-3.058-62.9-3.058-62.9Z" transform="translate(-430.18 -827.449)" fill="#004061"/>
          <path id="Trazado_24463" data-name="Trazado 24463" d="M477.087,842.035s-3.953-9.1-18.185-9.1S440.26,846.9,440.26,846.9l20.708,11.28Z" transform="translate(-414.336 -832.939)" fill="#004061"/>
          <g id="Grupo_15373" data-name="Grupo 15373" transform="translate(63.554 37.565)">
            <g id="Grupo_15372" data-name="Grupo 15372">
              <g id="Grupo_15371" data-name="Grupo 15371">
                <g id="Grupo_15370" data-name="Grupo 15370">
                  <path id="Trazado_24464" data-name="Trazado 24464" d="M455.714,851.4c-1.33,2.973-1.216,7.772,1.6,8.834s6.19-2.77,7.522-5.743.517-5.56-2.3-6.62S457.047,848.428,455.714,851.4Z" transform="translate(-454.892 -847.546)" fill="#ad523f"/>
                </g>
              </g>
            </g>
            <path id="Trazado_24465" data-name="Trazado 24465" d="M455.192,861.874a6.338,6.338,0,1,0,5.547-10.356" transform="translate(-454.421 -841.303)" fill="none" stroke="#fcb807" stroke-miterlimit="10" stroke-width="0.75"/>
          </g>
          <g id="Grupo_15376" data-name="Grupo 15376" transform="translate(21.77 37.565)">
            <g id="Grupo_15375" data-name="Grupo 15375">
              <g id="Grupo_15374" data-name="Grupo 15374">
                <path id="Trazado_24466" data-name="Trazado 24466" d="M448.394,851.4c1.332,2.973,2.466,7.384-1.6,8.834-2.839,1.013-6.19-2.77-7.52-5.743s-.519-5.56,2.3-6.62S447.065,848.428,448.394,851.4Z" transform="translate(-438.645 -847.546)" fill="#dc927b"/>
              </g>
            </g>
            <path id="Trazado_24467" data-name="Trazado 24467" d="M439.749,849.107s3.454-.918,4.745,3.77" transform="translate(-436.91 -845.206)" fill="none" stroke="#ad523f" stroke-linecap="round" stroke-linejoin="round" stroke-width="0.484"/>
            <path id="Trazado_24468" data-name="Trazado 24468" d="M451.675,859.991a6.338,6.338,0,1,1-6.63-8.479" transform="translate(-437.484 -841.312)" fill="none" stroke="#fcb807" stroke-miterlimit="10" stroke-width="0.75"/>
          </g>
          <path id="Trazado_24469" data-name="Trazado 24469" d="M488.507,858.54c0,12.609-10.526,22.829-23.511,22.829s-24.889-10.737-24.889-23.344,11.9-22.315,24.889-22.315S488.507,845.931,488.507,858.54Z" transform="translate(-414.577 -828.582)" fill="#004061"/>
          <g id="Grupo_15377" data-name="Grupo 15377" transform="translate(38.608 57.46)">
            <path id="Trazado_24470" data-name="Trazado 24470" d="M448.184,855.576l-2.992,28.491h17.721l-3.06-28.785Z" transform="translate(-445.192 -855.282)" fill="#dc927b"/>
            <path id="Trazado_24471" data-name="Trazado 24471" d="M446.2,858.071l13.769,12.19-1.5-14.332Z" transform="translate(-443.608 -854.265)" fill="#ad523f"/>
          </g>
          <g id="Grupo_15378" data-name="Grupo 15378" transform="translate(30.005 9.798)">
            <path id="Trazado_24472" data-name="Trazado 24472" d="M462.555,836.749h0c-11,0-20.708,8.5-20.708,19l.633,12.591s.229,17.851,17.171,23.282a9.56,9.56,0,0,0,5.8,0c16.945-5.431,17.171-23.282,17.171-23.282l.635-12.591C483.262,845.254,473.551,836.749,462.555,836.749Z" transform="translate(-441.847 -836.749)" fill="#dc927b"/>
          </g>
          <g id="Grupo_15380" data-name="Grupo 15380" transform="translate(36.164 27.308)">
            <path id="Trazado_24473" data-name="Trazado 24473" d="M449.316,852.955s.2,2.623,3.783,2.623,3.78-2.623,3.78-2.623Z" transform="translate(-436.267 -828.788)" fill="#fd5a62"/>
            <g id="Grupo_15379" data-name="Grupo 15379" transform="translate(17.171 16.879)">
              <path id="Trazado_24474" data-name="Trazado 24474" d="M452.585,850.121l.481,2.924-2.147.024" transform="translate(-450.919 -850.121)" fill="none" stroke="#ad523f" stroke-linecap="round" stroke-linejoin="round" stroke-width="0.484"/>
            </g>
            <path id="Trazado_24475" data-name="Trazado 24475" d="M450.219,843.818a16.881,16.881,0,0,0-5.226,1.518,1.193,1.193,0,0,0,.244,2.286c1.165.388,3.672.134,5.161-.033,3.649-.417,6.069-1.772,5.835-2.9C455.93,843.237,452.137,843.474,450.219,843.818Z" transform="translate(-444.242 -843.558)" fill="#004061"/>
            <path id="Trazado_24476" data-name="Trazado 24476" d="M458.3,843.818a15.249,15.249,0,0,1,4.932,1.518,1.212,1.212,0,0,1-.231,2.286c-1.1.388-3.467.134-4.871-.033-3.446-.417-5.73-1.772-5.509-2.9C452.905,843.237,456.488,843.474,458.3,843.818Z" transform="translate(-431.097 -843.558)" fill="#004061"/>
            <path id="Trazado_24477" data-name="Trazado 24477" d="M456.879,853.475a8.8,8.8,0,0,0-7.563,0S453.462,855.244,456.879,853.475Z" transform="translate(-436.267 -829.308)" fill="#fd5a62"/>
            <path id="Trazado_24478" data-name="Trazado 24478" d="M448.979,852.828a10.287,10.287,0,0,0,9.176,0" transform="translate(-436.797 -828.988)" fill="none" stroke="#ad523f" stroke-linecap="round" stroke-linejoin="round" stroke-width="0.484"/>
          </g>
          <path id="Trazado_24479" data-name="Trazado 24479" d="M477.239,839.563s-.967,9.955-12.187,11.532c-11.442,1.61-8.963,8.294-22.857,6.692,0,0-5.023-7.273,2.422-14.78,4.93-4.969,14.561-9.112,21.456-8.42C468.4,834.821,473.9,838.895,477.239,839.563Z" transform="translate(-413.9 -830.467)" fill="#004061"/>
          <path id="Trazado_24480" data-name="Trazado 24480" d="M455.005,836.749s-7.121,7.17,12.622,20.16a13.68,13.68,0,0,0-1.276-8.263C464.217,844.467,455.005,836.749,455.005,836.749Z" transform="translate(-393.127 -826.951)" fill="#004061"/>
        </g>
        <circle id="Elipse_847" data-name="Elipse 847" cx="1.544" cy="1.544" r="1.544" transform="translate(120.587 13.704)" fill="#004061"/>
        <circle id="Elipse_848" data-name="Elipse 848" cx="1.544" cy="1.544" r="1.544" transform="translate(138.119 13.704)" fill="#004061"/>
      </g>
    </g>
    <g id="Grupo_15394" data-name="Grupo 15394" transform="translate(460.112 912.153)">
      <g id="Grupo_15387" data-name="Grupo 15387" transform="translate(75.582 10.867)">
        <g id="Grupo_15385" data-name="Grupo 15385" transform="translate(22.481 71.189)">
          <g id="Grupo_15384" data-name="Grupo 15384">
            <path id="Trazado_24481" data-name="Trazado 24481" d="M461.345,905.452,480.07,972.27l7.62-.779s-5.308-42.853-9.816-69.287c-.718-4.195-6.3-7.406-10.418-6.355h0C463.593,896.831,460.365,901.589,461.345,905.452Z" transform="translate(-461.168 -895.648)" fill="#dc927b"/>
          </g>
          <path id="Trazado_24482" data-name="Trazado 24482" d="M469.982,925.015a20.449,20.449,0,0,0-1.047,16.078l-1.682,8.849a2.948,2.948,0,0,0,1.692,3.274h0a2.511,2.511,0,0,0,3.318-1.551l1.839-5.038.3,1.885a14.188,14.188,0,0,1-1.355,8.664l-3.832,7.448a2.874,2.874,0,0,0,.085,2.734h0a2.4,2.4,0,0,0,4.115.242l6.188-9.042a16.02,16.02,0,0,0,2.348-12.308l-4.873-23.215Z" transform="translate(-451.687 -852.602)" fill="#dc927b"/>
        </g>
        <g id="Grupo_15386" data-name="Grupo 15386">
          <path id="Trazado_24483" data-name="Trazado 24483" d="M485.095,928.6l-9.369-49.269-19.085,5.686,12.11,47.23a8.376,8.376,0,0,0,10.112,6.054h0A8.378,8.378,0,0,0,485.095,928.6Z" transform="translate(-445.802 -850.1)" fill="#dc927b"/>
          <path id="Trazado_24484" data-name="Trazado 24484" d="M460.056,922.977l31.8-6.53-7.293-35.513A16.228,16.228,0,0,0,465.394,868.3h0a16.228,16.228,0,0,0-12.632,19.165Z" transform="translate(-452.427 -867.966)" fill="#ffd54f"/>
        </g>
      </g>
      <g id="Grupo_15388" data-name="Grupo 15388" transform="translate(26.548)">
        <path id="Trazado_24485" data-name="Trazado 24485" d="M472.453,863.741l-35.878,14.515a5.145,5.145,0,0,0-3.006,6.216l19.167,64.2H495.1s9.361-50.1,13.288-66.628a5.222,5.222,0,0,0-3.238-6.218Z" transform="translate(-433.36 -863.741)" fill="#ffd54f"/>
        <path id="Trazado_24486" data-name="Trazado 24486" d="M438.91,873.783l24.82-10.042,21.734,7.926s6.254,12.221-13.005,13.808C448.325,887.46,438.91,873.783,438.91,873.783Z" transform="translate(-424.637 -863.741)" fill="#dc927b"/>
        <rect id="Rectángulo_3731" data-name="Rectángulo 3731" width="42.436" height="6.489" transform="translate(19.071 84.928)" fill="#ffd54f"/>
        <line id="Línea_10439" data-name="Línea 10439" y1="24.951" x2="4.897" transform="translate(65.731 38.999)" fill="#ffd54f"/>
      </g>
      <g id="Grupo_15393" data-name="Grupo 15393" transform="translate(0 13.249)">
        <g id="Grupo_15390" data-name="Grupo 15390" transform="translate(0 71.188)">
          <g id="Grupo_15389" data-name="Grupo 15389" transform="translate(4.092)">
            <path id="Trazado_24487" data-name="Trazado 24487" d="M450.973,906.378,432.245,973.2l-7.617-.779s5.308-42.853,9.816-69.287c.715-4.195,6.3-7.406,10.418-6.355h0C448.725,897.76,451.953,902.515,450.973,906.378Z" transform="translate(-424.628 -896.574)" fill="#dc927b"/>
          </g>
          <path id="Trazado_24488" data-name="Trazado 24488" d="M435.356,925.941A20.458,20.458,0,0,1,436.4,942.02l1.682,8.849a2.945,2.945,0,0,1-1.692,3.274h0a2.507,2.507,0,0,1-3.315-1.551l-1.839-5.036-.3,1.885a14.181,14.181,0,0,0,1.353,8.662l3.832,7.448a2.874,2.874,0,0,1-.082,2.734h0a2.4,2.4,0,0,1-4.115.242l-6.19-9.04a16.04,16.04,0,0,1-2.348-12.311l4.873-23.215Z" transform="translate(-423.037 -853.528)" fill="#dc927b"/>
        </g>
        <g id="Grupo_15392" data-name="Grupo 15392" transform="translate(13.652)">
          <path id="Trazado_24489" data-name="Trazado 24489" d="M428.494,929.529l9.369-49.269,19.087,5.686-12.11,47.229a8.379,8.379,0,0,1-10.115,6.054h0A8.38,8.38,0,0,1,428.494,929.529Z" transform="translate(-428.345 -851.026)" fill="#dc927b"/>
          <g id="Grupo_15391" data-name="Grupo 15391" transform="translate(0.015)">
            <path id="Trazado_24490" data-name="Trazado 24490" d="M460.15,923.9l-31.8-6.53,7.293-35.513a16.233,16.233,0,0,1,19.165-12.632h0a16.23,16.23,0,0,1,12.635,19.165Z" transform="translate(-428.351 -868.893)" fill="#ffd54f"/>
            <path id="Trazado_24491" data-name="Trazado 24491" d="M448.056,881.287l-4.928,23.164-4.285-1.024" transform="translate(-411.861 -849.412)" fill="#ffd54f"/>
          </g>
        </g>
      </g>
    </g>
    <g id="Grupo_15406" data-name="Grupo 15406" transform="translate(478.482 832.939)">
      <path id="Trazado_24492" data-name="Trazado 24492" d="M457.877,836.929s8.682-3.793,15.978,3.073,2.147,11.447,8.584,14.844,1.738,12.8,9.25,17.086,2.554,14.842-5.172,16.341c0,0-3.711,9.785-11.853,8.844,0,0-7.532,8.374-22.207,3.055l-5.4-2.217Z" transform="translate(-403.657 -828.311)" fill="#004061"/>
      <path id="Trazado_24493" data-name="Trazado 24493" d="M454.679,838.955s-9.765,1.26-11.658,9.932-1.2,6.622-6.566,11.035,1.42,9.407-2.837,13.823c-2.173,2.255-3.2,4.1-3.4,6.224a7.817,7.817,0,0,0,5.84,8.109c2.469.7,4.485,3.037,5.954,6.216,2.911,6.306,13.332,3.567,13.332,3.567s9.842,5.735,15.873,1.476-3.058-62.9-3.058-62.9Z" transform="translate(-430.18 -827.449)" fill="#004061"/>
      <path id="Trazado_24494" data-name="Trazado 24494" d="M477.087,842.035s-3.953-9.1-18.185-9.1S440.26,846.9,440.26,846.9l20.708,11.28Z" transform="translate(-414.336 -832.939)" fill="#004061"/>
      <g id="Grupo_15398" data-name="Grupo 15398" transform="translate(63.554 37.565)">
        <g id="Grupo_15397" data-name="Grupo 15397">
          <g id="Grupo_15396" data-name="Grupo 15396">
            <g id="Grupo_15395" data-name="Grupo 15395">
              <path id="Trazado_24495" data-name="Trazado 24495" d="M455.714,851.4c-1.33,2.973-1.216,7.772,1.6,8.834s6.19-2.77,7.522-5.743.517-5.56-2.3-6.62S457.047,848.428,455.714,851.4Z" transform="translate(-454.892 -847.546)" fill="#ad523f"/>
            </g>
          </g>
        </g>
        <path id="Trazado_24496" data-name="Trazado 24496" d="M455.192,861.874a6.338,6.338,0,1,0,5.547-10.356" transform="translate(-454.421 -841.303)" fill="none" stroke="#fcb807" stroke-miterlimit="10" stroke-width="0.75"/>
      </g>
      <g id="Grupo_15401" data-name="Grupo 15401" transform="translate(21.77 37.565)">
        <g id="Grupo_15400" data-name="Grupo 15400">
          <g id="Grupo_15399" data-name="Grupo 15399">
            <path id="Trazado_24497" data-name="Trazado 24497" d="M448.394,851.4c1.332,2.973,2.466,7.384-1.6,8.834-2.839,1.013-6.19-2.77-7.52-5.743s-.519-5.56,2.3-6.62S447.065,848.428,448.394,851.4Z" transform="translate(-438.645 -847.546)" fill="#dc927b"/>
          </g>
        </g>
        <path id="Trazado_24498" data-name="Trazado 24498" d="M439.749,849.107s3.454-.918,4.745,3.77" transform="translate(-436.91 -845.206)" fill="none" stroke="#ad523f" stroke-linecap="round" stroke-linejoin="round" stroke-width="0.484"/>
        <path id="Trazado_24499" data-name="Trazado 24499" d="M451.675,859.991a6.338,6.338,0,1,1-6.63-8.479" transform="translate(-437.484 -841.312)" fill="none" stroke="#fcb807" stroke-miterlimit="10" stroke-width="0.75"/>
      </g>
      <path id="Trazado_24500" data-name="Trazado 24500" d="M488.507,858.54c0,12.609-10.526,22.829-23.511,22.829s-24.889-10.737-24.889-23.344,11.9-22.315,24.889-22.315S488.507,845.931,488.507,858.54Z" transform="translate(-414.577 -828.582)" fill="#004061"/>
      <g id="Grupo_15402" data-name="Grupo 15402" transform="translate(38.608 57.46)">
        <path id="Trazado_24501" data-name="Trazado 24501" d="M448.184,855.576l-2.992,28.491h17.721l-3.06-28.785Z" transform="translate(-445.192 -855.282)" fill="#dc927b"/>
        <path id="Trazado_24502" data-name="Trazado 24502" d="M446.2,858.071l13.769,12.19-1.5-14.332Z" transform="translate(-443.608 -854.265)" fill="#ad523f"/>
      </g>
      <g id="Grupo_15403" data-name="Grupo 15403" transform="translate(30.005 9.798)">
        <path id="Trazado_24503" data-name="Trazado 24503" d="M462.555,836.749h0c-11,0-20.708,8.5-20.708,19l.633,12.591s.229,17.851,17.171,23.282a9.56,9.56,0,0,0,5.8,0c16.945-5.431,17.171-23.282,17.171-23.282l.635-12.591C483.262,845.254,473.551,836.749,462.555,836.749Z" transform="translate(-441.847 -836.749)" fill="#dc927b"/>
      </g>
      <g id="Grupo_15405" data-name="Grupo 15405" transform="translate(36.164 27.308)">
        <path id="Trazado_24504" data-name="Trazado 24504" d="M449.316,852.955s.2,2.623,3.783,2.623,3.78-2.623,3.78-2.623Z" transform="translate(-436.267 -828.788)" fill="#fd5a62"/>
        <g id="Grupo_15404" data-name="Grupo 15404" transform="translate(17.171 16.879)">
          <path id="Trazado_24505" data-name="Trazado 24505" d="M452.585,850.121l.481,2.924-2.147.024" transform="translate(-450.919 -850.121)" fill="none" stroke="#ad523f" stroke-linecap="round" stroke-linejoin="round" stroke-width="0.484"/>
        </g>
        <path id="Trazado_24506" data-name="Trazado 24506" d="M450.219,843.818a16.881,16.881,0,0,0-5.226,1.518,1.193,1.193,0,0,0,.244,2.286c1.165.388,3.672.134,5.161-.033,3.649-.417,6.069-1.772,5.835-2.9C455.93,843.237,452.137,843.474,450.219,843.818Z" transform="translate(-444.242 -843.558)" fill="#004061"/>
        <path id="Trazado_24507" data-name="Trazado 24507" d="M458.3,843.818a15.249,15.249,0,0,1,4.932,1.518,1.212,1.212,0,0,1-.231,2.286c-1.1.388-3.467.134-4.871-.033-3.446-.417-5.73-1.772-5.509-2.9C452.905,843.237,456.488,843.474,458.3,843.818Z" transform="translate(-431.097 -843.558)" fill="#004061"/>
        <path id="Trazado_24508" data-name="Trazado 24508" d="M456.879,853.475a8.8,8.8,0,0,0-7.563,0S453.462,855.244,456.879,853.475Z" transform="translate(-436.267 -829.308)" fill="#fd5a62"/>
        <path id="Trazado_24509" data-name="Trazado 24509" d="M448.979,852.828a10.287,10.287,0,0,0,9.176,0" transform="translate(-436.797 -828.988)" fill="none" stroke="#ad523f" stroke-linecap="round" stroke-linejoin="round" stroke-width="0.484"/>
      </g>
      <path id="Trazado_24510" data-name="Trazado 24510" d="M477.239,839.563s-.967,9.955-12.187,11.532c-11.442,1.61-8.963,8.294-22.857,6.692,0,0-5.023-7.273,2.422-14.78,4.93-4.969,14.561-9.112,21.456-8.42C468.4,834.821,473.9,838.895,477.239,839.563Z" transform="translate(-413.9 -830.467)" fill="#004061"/>
      <path id="Trazado_24511" data-name="Trazado 24511" d="M455.005,836.749s-7.121,7.17,12.622,20.16a13.68,13.68,0,0,0-1.276-8.263C464.217,844.467,455.005,836.749,455.005,836.749Z" transform="translate(-393.127 -826.951)" fill="#004061"/>
    </g>
    <circle id="Elipse_850" data-name="Elipse 850" cx="1.544" cy="1.544" r="1.544" transform="translate(520.035 869.34)" fill="#004061"/>
    <circle id="Elipse_851" data-name="Elipse 851" cx="1.544" cy="1.544" r="1.544" transform="translate(537.566 869.34)" fill="#004061"/>
    <g id="Grupo_15407" data-name="Grupo 15407" transform="translate(508.862 907.053)">
      <path id="Trazado_24512" data-name="Trazado 24512" d="M459.082,877.741c-.743,0-1.476-.023-2.194-.07l.136-2.106a32.55,32.55,0,0,0,4.161,0l.139,2.1Q460.225,877.74,459.082,877.741Zm-6.6-.676a23.434,23.434,0,0,1-4.295-1.337l.828-1.939A21.381,21.381,0,0,0,452.92,875Zm13.26-.01-.453-2.06a21.6,21.6,0,0,0,3.906-1.224l.833,1.937A23.579,23.579,0,0,1,465.738,877.055Zm-21.5-3.77a6.226,6.226,0,0,1-2.248-4.472l2.109-.026a4.156,4.156,0,0,0,1.566,2.947Zm29.721-.033-1.438-1.546a4.09,4.09,0,0,0,1.538-2.955l2.109-.126v.162A6.168,6.168,0,0,1,473.962,873.251Zm-28.353-7.425-1.445-1.535a13.544,13.544,0,0,1,3.93-2.474l.841,1.934A11.575,11.575,0,0,0,445.609,865.827Zm26.857-.085a11.9,11.9,0,0,0-3.354-2.042l.823-1.942a14.016,14.016,0,0,1,3.95,2.423Z" transform="translate(-441.993 -861.758)" fill="#ff5953"/>
    </g>
    <g id="Grupo_15408" data-name="Grupo 15408" transform="translate(561.976 1048.935)">
      <path id="Trazado_24513" data-name="Trazado 24513" d="M477.408,930.73c-.643,0-1.276-.018-1.9-.059l.118-1.818a27.869,27.869,0,0,0,3.593-.005l.121,1.818Q478.391,930.731,477.408,930.73Zm-5.707-.584a20.488,20.488,0,0,1-3.708-1.155l.718-1.674a18.568,18.568,0,0,0,3.374,1.047Zm11.452-.008-.388-1.78a18.578,18.578,0,0,0,3.372-1.059l.723,1.674A20.35,20.35,0,0,1,483.153,930.139Zm-18.563-3.256a5.384,5.384,0,0,1-1.944-3.865l1.823-.021a3.575,3.575,0,0,0,1.353,2.543Zm25.666-.031-1.24-1.335a3.529,3.529,0,0,0,1.327-2.551l1.821-.111V923A5.311,5.311,0,0,1,490.256,926.852Zm-24.485-6.411-1.247-1.327a11.744,11.744,0,0,1,3.392-2.137l.725,1.672A9.953,9.953,0,0,0,465.771,920.441Zm23.194-.072a10.287,10.287,0,0,0-2.9-1.767l.712-1.674a11.974,11.974,0,0,1,3.41,2.091Z" transform="translate(-462.646 -916.928)" fill="#ff5953"/>
    </g>
    <g id="Grupo_15409" data-name="Grupo 15409" transform="translate(496.027 993.224)">
      <path id="Trazado_24514" data-name="Trazado 24514" d="M467.209,918.727q-1.042,0-2.068-.036l.072-2.119c1.342.049,2.726.049,4.063,0l.077,2.116Q468.289,918.727,467.209,918.727Zm-6.272-.332c-1.407-.149-2.813-.352-4.179-.607l.386-2.083c1.314.244,2.664.442,4.017.584Zm12.622,0-.224-2.109c1.35-.144,2.7-.342,4.012-.589l.391,2.083C476.372,918.032,474.966,918.241,473.559,918.392Zm-20.926-1.556a40.31,40.31,0,0,1-4.032-1.347l.784-1.97A37.905,37.905,0,0,0,453.2,914.8Zm29.225-.021-.571-2.04a37.47,37.47,0,0,0,3.817-1.286l.784,1.97A40.184,40.184,0,0,1,481.858,916.816Zm-37.123-3.161a21.726,21.726,0,0,1-3.567-2.484l1.391-1.6a19.734,19.734,0,0,0,3.217,2.235Zm45.018-.039-1.047-1.841a19.562,19.562,0,0,0,3.207-2.25l1.4,1.594A21.813,21.813,0,0,1,489.753,913.617Zm-51.478-5.848A8.973,8.973,0,0,1,437,903.322l2.119-.021a6.86,6.86,0,0,0,.988,3.4Zm57.91-.07-1.841-1.049a6.826,6.826,0,0,0,.957-3.407l2.117-.162,0,.08A8.961,8.961,0,0,1,496.185,907.7Zm-56.138-7.81L438.2,898.85a13.457,13.457,0,0,1,2.857-3.438l1.4,1.589A11.325,11.325,0,0,0,440.047,899.889Zm54.238-.162a11.741,11.741,0,0,0-2.471-2.857l1.386-1.6a13.829,13.829,0,0,1,2.906,3.384Z" transform="translate(-437.002 -895.265)" fill="#ff5953"/>
    </g>
  </g>
</svg>
