<svg xmlns="http://www.w3.org/2000/svg" width="111.409" height="114.468" viewBox="0 0 111.409 114.468">
  <g id="Grupo_15307" data-name="Grupo 15307" transform="translate(-15.035 -893.3)">
    <circle id="Elipse_845" data-name="Elipse 845" cx="55.304" cy="55.304" r="55.304" transform="translate(15.035 897.159)" fill="#ffe292"/>
    <path id="Trazado_24386" data-name="Trazado 24386" d="M167.626,904.044a1.929,1.929,0,0,1-1.929-1.929v-3.627a1.329,1.329,0,1,0-2.658,0v3.627a1.929,1.929,0,0,1-3.859,0v-3.627a5.188,5.188,0,1,1,10.376,0v3.627A1.929,1.929,0,0,1,167.626,904.044Z" transform="translate(-93.973 0)" fill="#d2ecf7"/>
    <path id="Trazado_24387" data-name="Trazado 24387" d="M134.147,924.544H57.588a3.513,3.513,0,0,0-3.513,3.513v81.082a55.3,55.3,0,0,0,83.542-.125v-81A3.47,3.47,0,0,0,134.147,924.544Z" transform="translate(-25.452 -20.369)" fill="#ba68c8"/>
    <path id="Trazado_24388" data-name="Trazado 24388" d="M72.578,927.609a3.511,3.511,0,0,1,1.8-3.066H57.588a3.514,3.514,0,0,0-3.513,3.514v81.082a55.486,55.486,0,0,0,18.5,13.9V927.609Z" transform="translate(-25.452 -20.368)" fill="#7b1fa2"/>
    <path id="Trazado_24389" data-name="Trazado 24389" d="M142.906,958.785H86.414A3.513,3.513,0,0,0,82.9,962.3v70.812a4.116,4.116,0,0,0,4.116,4.116h59.36V962.255A3.471,3.471,0,0,0,142.906,958.785Z" transform="translate(-44.244 -42.692)" fill="#f8f3ff"/>
    <path id="Trazado_24390" data-name="Trazado 24390" d="M91.371,958.785H86.415A3.514,3.514,0,0,0,82.9,962.3v70.812a4.116,4.116,0,0,0,4.117,4.116h4.353V958.785Z" transform="translate(-44.244 -42.692)" fill="#a0d9ed"/>
    <path id="Trazado_24391" data-name="Trazado 24391" d="M135.25,949.513a6.8,6.8,0,0,1-6.369-4.374H119.7a5.188,5.188,0,0,1,0-10.377H150.8a5.188,5.188,0,0,1,0,10.377h-9.177A6.8,6.8,0,0,1,135.25,949.513ZM119.7,938.622a1.329,1.329,0,0,0,0,2.659H130.39a1.93,1.93,0,0,1,1.919,1.729,2.958,2.958,0,0,0,5.883,0,1.93,1.93,0,0,1,1.919-1.729H150.8a1.329,1.329,0,0,0,0-2.659Z" transform="translate(-64.856 -27.031)" fill="#ffcf38"/>
    <path id="Trazado_24392" data-name="Trazado 24392" d="M161.576,926.7h-22a1.551,1.551,0,0,1-1.551-1.551v-7.187a1.551,1.551,0,0,1,1.551-1.552h22a1.552,1.552,0,0,1,1.552,1.552v7.187A1.551,1.551,0,0,1,161.576,926.7Z" transform="translate(-80.182 -15.065)" fill="#a0d9ed"/>
    <path id="Trazado_24393" data-name="Trazado 24393" d="M150.577,925.147V917.96a1.552,1.552,0,0,1,1.552-1.552H139.577a1.551,1.551,0,0,0-1.551,1.552v7.187a1.551,1.551,0,0,0,1.551,1.552h12.551A1.551,1.551,0,0,1,150.577,925.147Z" transform="translate(-80.182 -15.065)" fill="#6dd1eb"/>
    <path id="Trazado_24394" data-name="Trazado 24394" d="M154.086,1164.874H94.726a4.117,4.117,0,0,0,4.117-4.116V1155.7a1.12,1.12,0,0,1,1.12-1.12h56.959a1.281,1.281,0,0,1,1.281,1.281v4.894A4.116,4.116,0,0,1,154.086,1164.874Z" transform="translate(-51.953 -170.339)" fill="#a0d9ed"/>
    <g id="Grupo_15305" data-name="Grupo 15305" transform="translate(48.431 937.05)">
      <path id="Trazado_24395" data-name="Trazado 24395" d="M112.912,1022.852a1.93,1.93,0,1,1,0-3.859h0a1.93,1.93,0,0,1,0,3.859Z" transform="translate(-110.982 -1018.993)" fill="#ba68c8"/>
      <path id="Trazado_24396" data-name="Trazado 24396" d="M165.359,1022.852H132.934a1.93,1.93,0,0,1,0-3.859h32.425a1.93,1.93,0,0,1,0,3.859Z" transform="translate(-124.036 -1018.993)" fill="#ba68c8"/>
      <path id="Trazado_24397" data-name="Trazado 24397" d="M161.335,1045.047h-28.4a1.929,1.929,0,1,1,0-3.859h28.4a1.929,1.929,0,1,1,0,3.859Z" transform="translate(-124.036 -1033.463)" fill="#ba68c8"/>
      <path id="Trazado_24398" data-name="Trazado 24398" d="M159.191,1067.241H132.934a1.93,1.93,0,0,1,0-3.859H159.19a1.93,1.93,0,0,1,0,3.859Z" transform="translate(-124.036 -1047.932)" fill="#ba68c8"/>
      <path id="Trazado_24399" data-name="Trazado 24399" d="M159.191,1089.437H132.934a1.93,1.93,0,0,1,0-3.859H159.19a1.93,1.93,0,1,1,0,3.859Z" transform="translate(-124.036 -1062.402)" fill="#ba68c8"/>
      <path id="Trazado_24400" data-name="Trazado 24400" d="M112.912,1067.241a1.93,1.93,0,0,1,0-3.859h0a1.93,1.93,0,0,1,0,3.859Z" transform="translate(-110.982 -1047.932)" fill="#ba68c8"/>
    </g>
    <rect id="Rectángulo_3516" data-name="Rectángulo 3516" width="7.668" height="11.952" transform="translate(109.974 930.33) rotate(-59.999)" fill="#d2ecf7"/>
    <g id="Grupo_15306" data-name="Grupo 15306" transform="translate(109.974 923.689)">
      <rect id="Rectángulo_3517" data-name="Rectángulo 3517" width="3.729" height="11.952" transform="translate(0 6.64) rotate(-59.999)" fill="#a0d9ed"/>
      <rect id="Rectángulo_3518" data-name="Rectángulo 3518" width="7.668" height="4.044" transform="translate(0.001 6.641) rotate(-59.999)" fill="#a0d9ed"/>
    </g>
    <rect id="Rectángulo_3519" data-name="Rectángulo 3519" width="3.729" height="4.044" transform="translate(109.974 930.331) rotate(-59.999)" fill="#6dd1eb"/>
    <path id="Trazado_24401" data-name="Trazado 24401" d="M308.193,965.443h0a5.975,5.975,0,0,0-8.163,2.187l-1.626,2.816,10.35,5.976,1.626-2.816A5.976,5.976,0,0,0,308.193,965.443Z" transform="translate(-184.738 -46.51)" fill="#ff6467"/>
    <path id="Trazado_24402" data-name="Trazado 24402" d="M303.566,969.61a6.887,6.887,0,0,1,5.631-3.438,6,6,0,0,0-1-.729h0a5.976,5.976,0,0,0-8.163,2.187l-1.626,2.816,3.51,2.026Z" transform="translate(-184.738 -46.51)" fill="#ff515a"/>
    <path id="Trazado_24403" data-name="Trazado 24403" d="M252.464,998.99l-19.08,33.048a1.992,1.992,0,0,1,3.45,1.992l19.08-33.048Z" transform="translate(-142.349 -68.903)" fill="#ffb900"/>
    <path id="Trazado_24404" data-name="Trazado 24404" d="M262.376,1004.713,243.3,1037.76a1.992,1.992,0,0,1,3.45,1.992l19.08-33.048Z" transform="translate(-148.811 -72.634)" fill="#ffcf38"/>
    <path id="Trazado_24405" data-name="Trazado 24405" d="M272.289,1010.436l-19.08,33.048a1.992,1.992,0,1,1,3.45,1.992l19.08-33.048Z" transform="translate(-155.273 -76.365)" fill="#ffe579"/>
    <path id="Trazado_24406" data-name="Trazado 24406" d="M239.309,1095.324a1.99,1.99,0,0,0-2.154.106.184.184,0,0,1-.2.013l-.007,0a.2.2,0,0,1-.1-.2,1.989,1.989,0,0,0-3.14-1.8.194.194,0,0,1-.209.007h0a.2.2,0,0,1-.1-.191,1.991,1.991,0,0,0-3.706-1.185l-1.961,13.26a1.123,1.123,0,0,0,1.809,1.044l10.5-8.328A1.992,1.992,0,0,0,239.309,1095.324Z" transform="translate(-138.652 -128.934)" fill="#ffc3b8"/>
    <path id="Trazado_24407" data-name="Trazado 24407" d="M229.716,1106.229l3.712-12.847a.19.19,0,0,1-.035-.127,1.991,1.991,0,0,0-3.706-1.185l-1.961,13.26a1.123,1.123,0,0,0,1.809,1.044Z" transform="translate(-138.652 -128.935)" fill="#fbb5ac"/>
    <path id="Trazado_24408" data-name="Trazado 24408" d="M231.616,1115.081a30.858,30.858,0,0,1-2.92-1.916l-.971,6.567a1.123,1.123,0,0,0,1.809,1.044l5.2-4.125A30.82,30.82,0,0,1,231.616,1115.081Z" transform="translate(-138.652 -143.337)" fill="#656583"/>
    <path id="Trazado_24409" data-name="Trazado 24409" d="M228.739,1121.017a1.311,1.311,0,0,0,.98-.386l1.647-5.7a30.872,30.872,0,0,1-2.666-1.765l-.924,6.247a1.594,1.594,0,0,0,.033.932A1.142,1.142,0,0,0,228.739,1121.017Z" transform="translate(-138.655 -143.337)" fill="#575779"/>
    <path id="Trazado_24410" data-name="Trazado 24410" d="M110.162,1159.728a5.6,5.6,0,0,1,3.385-5.146H99.963a1.12,1.12,0,0,0-1.12,1.12v5.054a4.116,4.116,0,0,1-4.117,4.116h18.821A5.6,5.6,0,0,1,110.162,1159.728Z" transform="translate(-51.953 -170.339)" fill="#6dd1eb"/>
  </g>
</svg>
