<svg xmlns="http://www.w3.org/2000/svg" width="259.509" height="95.335" viewBox="0 0 259.509 95.335">
  <g id="Grupo_15333" data-name="Grupo 15333" transform="translate(739.13 -966.361)">
    <rect id="Rectángulo_3674" data-name="Rectángulo 3674" width="259.509" height="95.335" rx="7.453" transform="translate(-739.13 966.361)" fill="#f8f3ff"/>
    <text id="_1" data-name="1" transform="translate(-680.365 1045.304)" fill="#ba68c8" font-size="27" font-family="SegoeUI, Segoe UI"><tspan x="0" y="0">1</tspan></text>
    <text id="cm" transform="translate(-723.829 1029.305)" fill="#ba68c8" font-size="24" font-family="SegoeUI, Segoe UI"><tspan x="0" y="0">cm</tspan></text>
    <text id="_2" data-name="2" transform="translate(-643.629 1045.304)" fill="#ba68c8" font-size="27" font-family="SegoeUI, Segoe UI"><tspan x="0" y="0">2</tspan></text>
    <text id="_3" data-name="3" transform="translate(-603.751 1045.304)" fill="#ba68c8" font-size="27" font-family="SegoeUI, Segoe UI"><tspan x="0" y="0">3</tspan></text>
    <text id="_4" data-name="4" transform="translate(-564.058 1045.304)" fill="#ba68c8" font-size="27" font-family="SegoeUI, Segoe UI"><tspan x="0" y="0">4</tspan></text>
    <text id="_5" data-name="5" transform="translate(-524.847 1045.304)" fill="#ba68c8" font-size="27" font-family="SegoeUI, Segoe UI"><tspan x="0" y="0">5</tspan></text>
    <g id="Grupo_15332" data-name="Grupo 15332" transform="translate(-699.104 982.32)">
      <rect id="Rectángulo_3675" data-name="Rectángulo 3675" width="1.424" height="18.882" transform="translate(0 0.785)" fill="#7b1fa2"/>
      <rect id="Rectángulo_3676" data-name="Rectángulo 3676" width="1.424" height="18.882" transform="translate(3.935 0.785)" fill="#7b1fa2"/>
      <rect id="Rectángulo_3677" data-name="Rectángulo 3677" width="1.424" height="18.882" transform="translate(7.868 0.785)" fill="#7b1fa2"/>
      <rect id="Rectángulo_3678" data-name="Rectángulo 3678" width="1.424" height="18.882" transform="translate(11.803 0.785)" fill="#7b1fa2"/>
      <rect id="Rectángulo_3679" data-name="Rectángulo 3679" width="1.424" height="26.466" transform="translate(15.738 0.785)" fill="#7b1fa2"/>
      <rect id="Rectángulo_3680" data-name="Rectángulo 3680" width="1.424" height="18.882" transform="translate(19.672 0.785)" fill="#7b1fa2"/>
      <rect id="Rectángulo_3681" data-name="Rectángulo 3681" width="1.424" height="18.882" transform="translate(23.606 0.785)" fill="#7b1fa2"/>
      <rect id="Rectángulo_3682" data-name="Rectángulo 3682" width="1.424" height="18.882" transform="translate(27.541 0.785)" fill="#7b1fa2"/>
      <rect id="Rectángulo_3683" data-name="Rectángulo 3683" width="1.424" height="18.882" transform="translate(31.475 0.785)" fill="#7b1fa2"/>
      <rect id="Rectángulo_3684" data-name="Rectángulo 3684" width="1.424" height="61.848" transform="translate(35.409 0.785)" fill="#7b1fa2"/>
      <rect id="Rectángulo_3685" data-name="Rectángulo 3685" width="1.424" height="18.882" transform="translate(39.343 0.785)" fill="#7b1fa2"/>
      <rect id="Rectángulo_3686" data-name="Rectángulo 3686" width="1.424" height="18.882" transform="translate(43.278 0.785)" fill="#7b1fa2"/>
      <rect id="Rectángulo_3687" data-name="Rectángulo 3687" width="1.424" height="18.882" transform="translate(47.212 0.785)" fill="#7b1fa2"/>
      <rect id="Rectángulo_3688" data-name="Rectángulo 3688" width="1.424" height="18.882" transform="translate(51.146 0.785)" fill="#7b1fa2"/>
      <rect id="Rectángulo_3689" data-name="Rectángulo 3689" width="1.424" height="26.466" transform="translate(55.081 0.785)" fill="#7b1fa2"/>
      <rect id="Rectángulo_3690" data-name="Rectángulo 3690" width="1.424" height="18.882" transform="translate(59.016 0.785)" fill="#7b1fa2"/>
      <rect id="Rectángulo_3691" data-name="Rectángulo 3691" width="1.424" height="18.882" transform="translate(62.95 0.785)" fill="#7b1fa2"/>
      <rect id="Rectángulo_3692" data-name="Rectángulo 3692" width="1.424" height="18.882" transform="translate(66.884 0.785)" fill="#7b1fa2"/>
      <rect id="Rectángulo_3693" data-name="Rectángulo 3693" width="1.424" height="18.882" transform="translate(70.819 0.785)" fill="#7b1fa2"/>
      <rect id="Rectángulo_3694" data-name="Rectángulo 3694" width="1.424" height="61.848" transform="translate(74.753 0.785)" fill="#7b1fa2"/>
      <rect id="Rectángulo_3695" data-name="Rectángulo 3695" width="1.424" height="18.882" transform="translate(78.687 0.785)" fill="#7b1fa2"/>
      <rect id="Rectángulo_3696" data-name="Rectángulo 3696" width="1.424" height="18.882" transform="translate(82.622 0.785)" fill="#7b1fa2"/>
      <rect id="Rectángulo_3697" data-name="Rectángulo 3697" width="1.424" height="18.882" transform="translate(86.556 0.785)" fill="#7b1fa2"/>
      <rect id="Rectángulo_3698" data-name="Rectángulo 3698" width="1.424" height="18.882" transform="translate(90.49 0.785)" fill="#7b1fa2"/>
      <rect id="Rectángulo_3699" data-name="Rectángulo 3699" width="1.424" height="26.466" transform="translate(94.424 0.785)" fill="#7b1fa2"/>
      <rect id="Rectángulo_3700" data-name="Rectángulo 3700" width="1.424" height="18.882" transform="translate(98.359 0.785)" fill="#7b1fa2"/>
      <rect id="Rectángulo_3701" data-name="Rectángulo 3701" width="1.424" height="18.882" transform="translate(102.293 0.785)" fill="#7b1fa2"/>
      <rect id="Rectángulo_3702" data-name="Rectángulo 3702" width="1.424" height="18.882" transform="translate(106.227 0.785)" fill="#7b1fa2"/>
      <rect id="Rectángulo_3703" data-name="Rectángulo 3703" width="1.424" height="18.882" transform="translate(110.162 0.785)" fill="#7b1fa2"/>
      <rect id="Rectángulo_3704" data-name="Rectángulo 3704" width="1.424" height="61.848" transform="translate(114.097 0.785)" fill="#7b1fa2"/>
      <rect id="Rectángulo_3705" data-name="Rectángulo 3705" width="1.424" height="18.882" transform="translate(118.031 0.785)" fill="#7b1fa2"/>
      <rect id="Rectángulo_3706" data-name="Rectángulo 3706" width="1.424" height="18.882" transform="translate(121.965 0.785)" fill="#7b1fa2"/>
      <rect id="Rectángulo_3707" data-name="Rectángulo 3707" width="1.424" height="18.882" transform="translate(125.9 0.785)" fill="#7b1fa2"/>
      <rect id="Rectángulo_3708" data-name="Rectángulo 3708" width="1.424" height="18.882" transform="translate(129.834 0.785)" fill="#7b1fa2"/>
      <rect id="Rectángulo_3709" data-name="Rectángulo 3709" width="1.424" height="26.466" transform="translate(133.768 0.785)" fill="#7b1fa2"/>
      <rect id="Rectángulo_3710" data-name="Rectángulo 3710" width="1.424" height="18.882" transform="translate(137.703 0.785)" fill="#7b1fa2"/>
      <rect id="Rectángulo_3711" data-name="Rectángulo 3711" width="1.424" height="18.882" transform="translate(141.637 0.785)" fill="#7b1fa2"/>
      <rect id="Rectángulo_3712" data-name="Rectángulo 3712" width="1.424" height="18.882" transform="translate(145.571 0.785)" fill="#7b1fa2"/>
      <rect id="Rectángulo_3713" data-name="Rectángulo 3713" width="1.424" height="18.882" transform="translate(149.505 0.785)" fill="#7b1fa2"/>
      <rect id="Rectángulo_3714" data-name="Rectángulo 3714" width="1.424" height="61.848" transform="translate(153.44 0.785)" fill="#7b1fa2"/>
      <rect id="Rectángulo_3715" data-name="Rectángulo 3715" width="1.424" height="18.882" transform="translate(157.375 0.785)" fill="#7b1fa2"/>
      <rect id="Rectángulo_3716" data-name="Rectángulo 3716" width="1.424" height="18.882" transform="translate(161.308 0.785)" fill="#7b1fa2"/>
      <rect id="Rectángulo_3717" data-name="Rectángulo 3717" width="1.424" height="18.882" transform="translate(165.243 0.785)" fill="#7b1fa2"/>
      <rect id="Rectángulo_3718" data-name="Rectángulo 3718" width="1.424" height="18.882" transform="translate(169.178 0.785)" fill="#7b1fa2"/>
      <rect id="Rectángulo_3719" data-name="Rectángulo 3719" width="1.424" height="26.466" transform="translate(173.112 0.785)" fill="#7b1fa2"/>
      <rect id="Rectángulo_3720" data-name="Rectángulo 3720" width="1.424" height="18.882" transform="translate(177.046 0.785)" fill="#7b1fa2"/>
      <rect id="Rectángulo_3721" data-name="Rectángulo 3721" width="1.424" height="18.882" transform="translate(180.981 0.785)" fill="#7b1fa2"/>
      <rect id="Rectángulo_3722" data-name="Rectángulo 3722" width="1.424" height="18.882" transform="translate(184.915 0.785)" fill="#7b1fa2"/>
      <rect id="Rectángulo_3723" data-name="Rectángulo 3723" width="1.424" height="18.882" transform="translate(188.849 0.785)" fill="#7b1fa2"/>
      <rect id="Rectángulo_3724" data-name="Rectángulo 3724" width="1.424" height="61.848" transform="translate(192.784 0.785)" fill="#7b1fa2"/>
      <rect id="Rectángulo_3725" data-name="Rectángulo 3725" width="194.208" height="1.57" fill="#7b1fa2"/>
    </g>
  </g>
</svg>
