<svg xmlns="http://www.w3.org/2000/svg" width="117.393" height="412.586" viewBox="0 0 117.393 412.586">
  <g id="Grupo_15862" data-name="Grupo 15862" transform="translate(-1023.634 -986.637)">
    <ellipse id="Elipse_525" data-name="Elipse 525" cx="12.037" cy="20.329" rx="12.037" ry="20.329" transform="translate(1070.293 986.637)" fill="#ff5953"/>
    <g id="Grupo_6156" data-name="Grupo 6156" transform="translate(1023.634 1066.059)">
      <ellipse id="Elipse_526" data-name="Elipse 526" cx="58.696" cy="157.943" rx="58.696" ry="157.943" fill="#f8f3ff"/>
      <g id="Grupo_6155" data-name="Grupo 6155" transform="translate(12.303 5.799)">
        <path id="Trazado_21244" data-name="Trazado 21244" d="M374.554,97.657H334.588V68.91l39.966-8.321Z" transform="translate(-309.17 -51.045)" fill="#aa4f20"/>
        <path id="Trazado_21245" data-name="Trazado 21245" d="M344.5,117.35c7.905-5.6-9.934-28.46-9.934-28.46" transform="translate(-309.205 -6.659)" fill="#007e75"/>
        <g id="Grupo_6144" data-name="Grupo 6144" transform="translate(16.451 268.786)">
          <path id="Trazado_21246" data-name="Trazado 21246" d="M351.113,168.914s-3.683,20.624-3.683,27.437,2.948,10.312,1.842,11.968-2.761,1.474-3.128,5.157-4.053,6.629-9.945,6.629-5.157-5.524-4.972-6.444,5.892-7.366,7.551-12.89-1.107-33.7-1.107-33.7S349.826,153.445,351.113,168.914Z" transform="translate(-331.096 -161.527)" fill="#ff926d"/>
        </g>
        <g id="Grupo_6145" data-name="Grupo 6145" transform="translate(66.299 268.737)">
          <path id="Trazado_21247" data-name="Trazado 21247" d="M363.734,168.589s-3.531,25.028-1.775,29.482,14.557,11.663,14.557,11.663,5.655.9,6.118,1.777-.144,2.982-4.12,3.578-8.586.889-8.586.889a28.519,28.519,0,0,0-15.266-4.171s-4.13-.5-2.188-6.821-1.97-29.836-1.97-29.836S360.46,149.458,363.734,168.589Z" transform="translate(-350.505 -161.508)" fill="#ff926d"/>
        </g>
        <path id="Trazado_21248" data-name="Trazado 21248" d="M334.664,77.012c.945,11.956,10.07,20.983,20.38,20.169S373.168,86,372,74.063c-1.261-12.942-8.956-18.554-19.173-16.912C341.619,58.954,333.721,65.059,334.664,77.012Z" transform="translate(-309.171 -56.873)" fill="#aa4f20"/>
        <path id="Trazado_21249" data-name="Trazado 21249" d="M376.17,134.595c-.226-9.742-14.118-53.452-21.081-55.954,0,0-9.323,22.383-3.18,37.906s9.965,23.025,14.455,21.833C375.237,136.03,376.17,134.595,376.17,134.595Z" transform="translate(-285.29 -22.733)" fill="#ffa181"/>
        <path id="Trazado_21250" data-name="Trazado 21250" d="M377.373,168.322s9.431-39.673,9.192-54.854c-.09-5.81-.668-30.209-.668-30.209s-15.1-7.857-24.89-7.553c-11.871.365-30.838,8.16-30.838,8.16s8.3,42.082,10.191,48.919C352.766,177.65,365.045,175.528,377.373,168.322Z" transform="translate(-316.098 -27.35)" fill="#ff926d"/>
        <path id="Trazado_21251" data-name="Trazado 21251" d="M385.9,80.349s-2.473-1.287-6.066-2.8a67.487,67.487,0,0,1-4.7,15.207c-2.373,4.913-7.518,6.349-12.852,6.323-12.025-.064-23.31-21.358-23.31-21.358-5.126,1.721-8.8,3.231-8.8,3.231l3.228,73.988c12.405,44.866,31.647,17.675,43.975,10.469,0,0,9.431-39.673,9.192-54.854C386.475,104.748,385.9,80.349,385.9,80.349Z" transform="translate(-316.098 -24.44)" fill="#ba68c8"/>
        <path id="Trazado_21252" data-name="Trazado 21252" d="M348.383,80.991s-1.605-2.943-2.861-2.484a65.443,65.443,0,0,1-6.963,1.148s5.864.041,6.891.788S348.8,81.664,348.383,80.991Z" transform="translate(-302.942 -23.018)" fill="#ff7454"/>
        <path id="Trazado_21253" data-name="Trazado 21253" d="M343.6,81.131s1.122-3.159,2.437-2.9a56.483,56.483,0,0,0,5.928.247s-4.656.758-5.555,1.657S343.3,81.861,343.6,81.131Z" transform="translate(-295.077 -23.402)" fill="#ff7454"/>
        <path id="Trazado_21254" data-name="Trazado 21254" d="M331.206,194.183l12.69,83.83,9.95.159,16.835-126.259L380,214.162c.19,24.479,3.886,44.162,7.484,63.98h10.019s9.647-57.816,10.818-77.176c.948-15.682-.2-70.955-10.032-89.368l.588-8.532c-8.124,11.4-33.748,8.532-53.257-2.286l-.172,7.957s-19.357,12-17.4,54.862C328.628,176.2,330.765,185.967,331.206,194.183Z" transform="translate(-319.641 11.99)" fill="#ff926d"/>
        <path id="Trazado_21255" data-name="Trazado 21255" d="M371.975,156.441c7.415-3.48,16.291-5.019,24.314-6.413,3.521-.611,7.06-1.1,10.607-1.5-1.477-16.846-2.851-36.347-5.008-42.552l-63.579-1.96s-8.267,9.143-10.307,41.3c14.4.678,28.182,5.067,41.258,11.113l1.276-9.588Z" transform="translate(-319.497 17.061)" fill="#ba68c8"/>
        <g id="Grupo_6147" data-name="Grupo 6147" transform="translate(37.896 34.014)">
          <g id="Grupo_6146" data-name="Grupo 6146">
            <path id="Trazado_21256" data-name="Trazado 21256" d="M339.446,70.237,340,90.751l13.446-1.062L352.04,70.116Z" transform="translate(-339.446 -70.116)" fill="#ff926d"/>
          </g>
        </g>
        <path id="Trazado_21257" data-name="Trazado 21257" d="M357.28,96.981h0c-7.168.221-18.823-8.255-19.044-15.423,0,0-1.544-10.928.372-14.378,3.329-5.992,17.652-7,23.39-6.159,8.789,1.279,7.682,17.513,7.682,17.513C370.733,91.877,360.413,96.883,357.28,96.981Z" transform="translate(-304.37 -50.768)" fill="#ff8f68"/>
        <path id="Trazado_21258" data-name="Trazado 21258" d="M351.472,70.116l-11.663.113a34.946,34.946,0,0,0,.6,4.61c3.822,8.486,7.89,10.225,12.164,10.574Z" transform="translate(-300.981 -36.103)" fill="#ff7454"/>
        <path id="Trazado_21259" data-name="Trazado 21259" d="M357.28,96.981h0c-7.168.221-18.823-8.255-19.044-15.423,0,0-1.544-10.928.372-14.378,3.329-5.992,17.652-7,23.39-6.159,8.789,1.279,7.682,17.513,7.682,17.513C370.733,91.877,360.413,96.883,357.28,96.981Z" transform="translate(-304.37 -50.768)" fill="#ff8f68"/>
        <path id="Trazado_21260" data-name="Trazado 21260" d="M335.959,71.3c.247,3.072,3.19,5.5,6.886,5.4l-.38-11.152C338.767,65.645,335.52,65.791,335.959,71.3Z" transform="translate(-307.081 -43.268)" fill="#ff926d"/>
        <path id="Trazado_21261" data-name="Trazado 21261" d="M338.1,67.25a.412.412,0,0,0-.763-.226,2.435,2.435,0,0,0-.193,2.4c.611,1.395,1.808,2.735,2.327,2.134s-.044-.447-.945-2.242A4.4,4.4,0,0,1,338.1,67.25Z" transform="translate(-305.515 -41.26)" fill="#ff7454"/>
        <path id="Trazado_21262" data-name="Trazado 21262" d="M340.876,62.013c5.234-2.1,24.944-3.023,24.944-3.023a28.993,28.993,0,0,1-11.293,11.832A35.284,35.284,0,0,1,346.8,74.01a7.4,7.4,0,0,0-5.262,5.984h0l-.164-.7a4.111,4.111,0,0,0-4.541-3.131h0S335.641,64.109,340.876,62.013Z" transform="translate(-305.828 -53.552)" fill="#aa4f20"/>
        <path id="Trazado_21263" data-name="Trazado 21263" d="M350.3,68.642c.072.894-.4,1.662-1.048,1.713s-1.233-.632-1.3-1.528.4-1.662,1.048-1.713S350.229,67.745,350.3,68.642Z" transform="translate(-288.232 -40.816)" fill="#28121e"/>
        <path id="Trazado_21264" data-name="Trazado 21264" d="M345.8,68.816c.069.894-.4,1.662-1.05,1.713s-1.233-.632-1.3-1.528.4-1.662,1.048-1.713S345.726,67.919,345.8,68.816Z" transform="translate(-295.289 -40.543)" fill="#28121e"/>
        <path id="Trazado_21265" data-name="Trazado 21265" d="M342.083,67.331s3.945-2.622,7.946-.627" transform="translate(-297.415 -42.628)" fill="none" stroke="#ff7454" stroke-miterlimit="10" stroke-width="0.695"/>
        <path id="Trazado_21266" data-name="Trazado 21266" d="M355.323,66.338a7.2,7.2,0,0,0-3.786-.727,5.344,5.344,0,0,0-4.78,7.53c1.374,3.056,2.517,3.942.247,4.4" transform="translate(-290.814 -43.201)" fill="none" stroke="#ff7454" stroke-miterlimit="10" stroke-width="0.695"/>
        <path id="Trazado_21267" data-name="Trazado 21267" d="M345.317,72.787a4.093,4.093,0,0,0,5.011-.809" transform="translate(-292.343 -33.182)" fill="none" stroke="#ff7454" stroke-miterlimit="10" stroke-width="0.695"/>
        <path id="Trazado_21268" data-name="Trazado 21268" d="M342.628,69.972a.522.522,0,1,1-.56-.478A.521.521,0,0,1,342.628,69.972Z" transform="translate(-298.194 -37.081)" fill="#ff7454"/>
        <path id="Trazado_21269" data-name="Trazado 21269" d="M343.2,70.289a.224.224,0,1,1-.241-.205A.221.221,0,0,1,343.2,70.289Z" transform="translate(-296.361 -36.155)" fill="#ff7454"/>
        <path id="Trazado_21270" data-name="Trazado 21270" d="M342.434,71.052a.457.457,0,1,1-.493-.421A.458.458,0,0,1,342.434,71.052Z" transform="translate(-298.297 -35.297)" fill="#ff7454"/>
        <path id="Trazado_21271" data-name="Trazado 21271" d="M341.179,70.179a.255.255,0,1,1-.275-.234A.256.256,0,0,1,341.179,70.179Z" transform="translate(-299.631 -36.371)" fill="#ff7454"/>
        <path id="Trazado_21272" data-name="Trazado 21272" d="M343.432,71.419a.384.384,0,0,1-.765.062.384.384,0,0,1,.765-.062Z" transform="translate(-296.501 -34.612)" fill="#ff7454"/>
        <path id="Trazado_21273" data-name="Trazado 21273" d="M344.367,69.853a.343.343,0,1,1-.367-.316A.343.343,0,0,1,344.367,69.853Z" transform="translate(-294.906 -37.013)" fill="#ff7454"/>
        <path id="Trazado_21274" data-name="Trazado 21274" d="M343.756,70.985a.6.6,0,1,1,.642.547A.6.6,0,0,1,343.756,70.985Z" transform="translate(-294.794 -35.749)" fill="#ff7454"/>
        <path id="Trazado_21275" data-name="Trazado 21275" d="M349.155,69.536a.456.456,0,1,1-.491-.419A.458.458,0,0,1,349.155,69.536Z" transform="translate(-287.752 -37.672)" fill="#ff7454"/>
        <path id="Trazado_21276" data-name="Trazado 21276" d="M348.854,70.909a.635.635,0,1,1,.683.583A.635.635,0,0,1,348.854,70.909Z" transform="translate(-286.799 -35.933)" fill="#ff7454"/>
        <path id="Trazado_21277" data-name="Trazado 21277" d="M350.127,69.7a.371.371,0,1,1-.4-.342A.372.372,0,0,1,350.127,69.7Z" transform="translate(-285.96 -37.3)" fill="#ff7454"/>
        <path id="Trazado_21278" data-name="Trazado 21278" d="M339.037,87.033S350.2,66.715,365.8,68.913c0,0,7.358-5.072-.8-10.243C359.72,55.329,334.309,64.039,339.037,87.033Z" transform="translate(-303.106 -55.133)" fill="#aa4f20"/>
        <path id="Trazado_21279" data-name="Trazado 21279" d="M338.912,78.747c-17.174,7.387-13.987,66.854-13.987,66.854a12.894,12.894,0,0,0,13.838,4.715,191.009,191.009,0,0,0,8.324-30.4C350.051,103.59,338.912,78.747,338.912,78.747Z" transform="translate(-324.691 -22.566)" fill="#ff926d"/>
        <path id="Trazado_21280" data-name="Trazado 21280" d="M363.329,94.013s-11.968-4.4-23.883,8.979" transform="translate(-301.55 0.287)" fill="none" stroke="#dfc5b6" stroke-linecap="round" stroke-miterlimit="10" stroke-width="0.762"/>
        <g id="Grupo_6148" data-name="Grupo 6148" transform="translate(31.153 156.23)">
          <path id="Trazado_21281" data-name="Trazado 21281" d="M344.437,126.917a.921.921,0,0,1-.051-1.841l6.742-.38-13.712-5.211a.922.922,0,1,1,.655-1.723l21.813,8.293-15.395.86Z" transform="translate(-336.821 -117.702)" fill="#9c57aa"/>
        </g>
        <g id="Grupo_6149" data-name="Grupo 6149" transform="translate(51.308 161.495)">
          <path id="Trazado_21282" data-name="Trazado 21282" d="M345.587,123.083a.922.922,0,0,1-.092-1.839l14.388-1.49a.937.937,0,0,1,1.012.824.924.924,0,0,1-.822,1.012l-14.388,1.487C345.651,123.08,345.621,123.083,345.587,123.083Z" transform="translate(-344.668 -119.752)" fill="#9c57aa"/>
        </g>
        <g id="Grupo_6150" data-name="Grupo 6150" transform="translate(78.312 108.549)">
          <path id="Trazado_21283" data-name="Trazado 21283" d="M362.206,171.559s-1.636-6.328-2.317-8.717.467-8.73,3.39-11.881c0,0-5.563-31.013-7.759-36.784s6.855-21.954,12.23-11.727c4.238,8.059,1.05,42.578,2.71,49.253s2.455,10.8,1.806,14.146l-.889,1.014-.129,2.008-.963,1.2-.028.981a1.7,1.7,0,0,1-.716,1.338l-.8.565-3.508,7.453s-1.472-2.512-.755-3.516l-1.559.1s.064-1.657,1-1.98c0,0-.719-1.693,1.716-2.984L365,166.417s-.265-5.75-1.615-5.373C360.832,161.755,365.781,170.367,362.206,171.559Z" transform="translate(-355.183 -99.137)" fill="#ffa181"/>
          <path id="Trazado_21284" data-name="Trazado 21284" d="M361.582,124.03l-1.312,2.522.487,7.362.3-.209-.144-5.368Z" transform="translate(-347.204 -60.097)" fill="#ff745e"/>
          <path id="Trazado_21285" data-name="Trazado 21285" d="M359.192,130.5s-.719-1.693,1.716-2.984l-1.156,4.862-1.559.1S358.257,130.826,359.192,130.5Z" transform="translate(-350.461 -54.626)" fill="#ff745e"/>
          <path id="Trazado_21286" data-name="Trazado 21286" d="M362.162,124.766a1.639,1.639,0,0,0,1.1-.506,13.462,13.462,0,0,1-.126,1.615,1.941,1.941,0,0,1-.475,1.009l-.509.578-.085,1.33a2.156,2.156,0,0,1-.47,1.21l-.537.665.036-5.18C361.5,125.562,362.162,124.766,362.162,124.766Z" transform="translate(-345.96 -59.736)" fill="#ff745e"/>
        </g>
        <path id="Trazado_21287" data-name="Trazado 21287" d="M392.188,138.905c-.945-8.208-2.728-20.472-7.276-28.288A10.739,10.739,0,0,0,388.084,99.2c-2.216-7.042-9.88-15.451-9.88-15.451s-29.88,10.176-40.7,36.6c-9.67,23.616,3.033,58.26,24.486,55.214C387.922,171.875,394.582,159.681,392.188,138.905Z" transform="translate(-309.758 -14.723)" fill="#ba68c8"/>
        <path id="Trazado_21288" data-name="Trazado 21288" d="M371.363,95.645s-3.968,2.119-3.883,1.816c-9.231,2.728-29.212,7.592-35.325,11.152-12.382,7.212-7.813,19.18,3.7,17.852,7.826-.9,11.062-4.4,11.062-4.4l24.35-18.189a27.9,27.9,0,0,0,4.3-3.092S375.642,99.716,371.363,95.645Z" transform="translate(-324.548 3.935)" fill="#ffa181"/>
        <g id="Grupo_6151" data-name="Grupo 6151" transform="translate(27.492 90.028)">
          <path id="Trazado_21289" data-name="Trazado 21289" d="M347.317,100.939c-9.629,0-11.866-7.761-11.889-7.854a.921.921,0,0,1,1.777-.485c.1.362,2.6,8.8,14.891,5.887a.923.923,0,0,1,.426,1.8A22.593,22.593,0,0,1,347.317,100.939Z" transform="translate(-335.395 -91.926)" fill="#9c57aa"/>
        </g>
        <g id="Grupo_6152" data-name="Grupo 6152" transform="translate(50.12 156.231)">
          <path id="Trazado_21290" data-name="Trazado 21290" d="M345.126,126.3a.922.922,0,0,1-.734-1.477,27.462,27.462,0,0,0,3.547-6.534.923.923,0,0,1,1.718.673,29.261,29.261,0,0,1-3.793,6.968A.918.918,0,0,1,345.126,126.3Z" transform="translate(-344.206 -117.702)" fill="#9c57aa"/>
        </g>
        <g id="Grupo_6153" data-name="Grupo 6153" transform="translate(63.602 94.975)">
          <path id="Trazado_21291" data-name="Trazado 21291" d="M354.432,96.908a19.071,19.071,0,0,1-4.261-.48.922.922,0,1,1,.413-1.8,17.386,17.386,0,0,0,10.047-.7.921.921,0,1,1,.75,1.682A18.389,18.389,0,0,1,354.432,96.908Z" transform="translate(-349.455 -93.852)" fill="#9c57aa"/>
        </g>
        <g id="Grupo_6154" data-name="Grupo 6154" transform="translate(40.834 93.853)">
          <path id="Trazado_21292" data-name="Trazado 21292" d="M358.309,110.063l-2.129-.021-14.8.229-.794-8.447,5.568-2.383s9.7-6.154,10.248-6.023l4.816.216a.828.828,0,0,1,.3,1.474,2.976,2.976,0,0,1-2.366.919l-1.035-.036-2.368,1.582,6.77-1.233,3.115-.108a3.578,3.578,0,0,1,2.188.729s.3.347.3.552a.648.648,0,0,1-.257.516,3.672,3.672,0,0,1-2.214.776l-2.781.09-4.554.786c-1.138.378-.267.506.018.467l5.36-.729,4.2-.028a3.578,3.578,0,0,1,2.188.729l.044.033a.65.65,0,0,1,0,1.035l-.041.033a3.6,3.6,0,0,1-2.175.74l-3.868.013-6.262,1.359c-1.068.393-.4.665.108.568l4.073-.788,4.194-.262a3.575,3.575,0,0,1,2.224.606l.046.031a.654.654,0,0,1,.285.5.646.646,0,0,1-.226.532l-.041.036a3.578,3.578,0,0,1-2.129.86l-3.86.229-5.011,1.207a.172.172,0,0,0,0,.334l.563.134,4.176-.241,2.848-.981a1.8,1.8,0,0,1,2.091.832.551.551,0,0,1-.318.842l-3.791,1.546Z" transform="translate(-340.59 -93.415)" fill="#ffa181"/>
        </g>
      </g>
    </g>
  </g>
</svg>
