<svg xmlns="http://www.w3.org/2000/svg" width="131.594" height="407.448" viewBox="0 0 131.594 407.448">
  <g id="Grupo_15860" data-name="Grupo 15860" transform="translate(-657.867 -989.66)">
    <g id="Grupo_6109" data-name="Grupo 6109" transform="translate(657.867 1060.094)">
      <ellipse id="Elipse_513" data-name="Elipse 513" cx="58.696" cy="157.943" rx="58.696" ry="157.943" transform="translate(6.715 3.874)" fill="#f8f3ff"/>
      <g id="Grupo_6108" data-name="Grupo 6108" transform="translate(0 0)">
        <g id="Grupo_6101" data-name="Grupo 6101" transform="translate(26.735)">
          <path id="Trazado_21093" data-name="Trazado 21093" d="M255.52,72.247s-6.97,12.667,1.089,21.217,13,12.485,4.751,23.667-6.051,19.072.673,21.646,9.138,25.419-11.663,35.648S205.735,163.97,197.807,156.6s-13.17-13.407-7.584-22.6,11.789-7.469,10.52-17.352-14.133-11.134-5.242-21.44,11.614-8.486,10.194-17.894,14.236-21.569,20.6-23.284S253.311,60.407,255.52,72.247Z" transform="translate(-187.896 -49.926)" fill="#ffc94a"/>
          <rect id="Rectángulo_3144" data-name="Rectángulo 3144" width="12.949" height="20.073" transform="translate(37.271 44.197)" fill="#ed744d"/>
          <path id="Trazado_21094" data-name="Trazado 21094" d="M202.22,70.836a10.024,10.024,0,0,0,6.734,9.57,4.881,4.881,0,0,0,1.238.267,3.2,3.2,0,0,0,1.264-.218,5.812,5.812,0,0,0,3.719-5.5V69.064h-12.95Z" transform="translate(-165.432 -25.988)" fill="#bb5a38"/>
          <circle id="Elipse_514" data-name="Elipse 514" cx="19.562" cy="19.562" r="19.562" transform="translate(18.868 36.146) rotate(-67.5)" fill="#ffc94a"/>
          <path id="Trazado_21095" data-name="Trazado 21095" d="M216.927,67.88c0,2.972-2.648,5.522-6.208,5.707l-.478-10.746C213.8,62.656,216.932,62.551,216.927,67.88Z" transform="translate(-152.851 -35.843)" fill="#ed744d"/>
          <path id="Trazado_21096" data-name="Trazado 21096" d="M212.136,64.377a.4.4,0,0,1,.717-.275,2.354,2.354,0,0,1,.367,2.288c-.483,1.387-1.531,2.766-2.075,2.227s.008-.431.74-2.227A4.232,4.232,0,0,0,212.136,64.377Z" transform="translate(-151.779 -34.025)" fill="#bb5a38"/>
          <path id="Trazado_21097" data-name="Trazado 21097" d="M209.827,68.716a.613.613,0,1,1,.614.614A.613.613,0,0,1,209.827,68.716Z" transform="translate(-153.502 -27.492)" fill="#ff7454"/>
          <circle id="Elipse_515" data-name="Elipse 515" cx="0.357" cy="0.357" r="0.357" transform="translate(57.837 38.547)" fill="#ff7454"/>
          <path id="Trazado_21098" data-name="Trazado 21098" d="M215.917,94.193h0c-6.9-.334-16.784-9.97-16.453-16.874,0,0-.655-10.615,1.449-13.787,3.652-5.5,17.493-5.381,22.94-4.143,8.35,1.9,6.054,17.411,6.054,17.411C229.906,89.7,218.934,94.337,215.917,94.193Z" transform="translate(-169.906 -42.257)" fill="#ed744d"/>
          <path id="Trazado_21099" data-name="Trazado 21099" d="M197.621,67.88c0,2.972,2.645,5.522,6.205,5.707l.48-10.746C200.747,62.656,197.616,62.551,197.621,67.88Z" transform="translate(-172.645 -35.843)" fill="#ed744d"/>
          <path id="Trazado_21100" data-name="Trazado 21100" d="M199.819,64.377a.4.4,0,0,0-.714-.275,2.354,2.354,0,0,0-.37,2.288c.483,1.387,1.533,2.766,2.078,2.227s-.01-.431-.74-2.227A4.2,4.2,0,0,1,199.819,64.377Z" transform="translate(-171.127 -34.025)" fill="#bb5a38"/>
          <path id="Trazado_21101" data-name="Trazado 21101" d="M205.538,66.625c0,.866-.509,1.567-1.138,1.567s-1.138-.7-1.138-1.567.509-1.567,1.138-1.567S205.538,65.759,205.538,66.625Z" transform="translate(-163.798 -32.271)" fill="#28121e"/>
          <path id="Trazado_21102" data-name="Trazado 21102" d="M210.443,66.625c0,.866-.509,1.567-1.138,1.567s-1.138-.7-1.138-1.567.509-1.567,1.138-1.567S210.443,65.759,210.443,66.625Z" transform="translate(-156.105 -32.271)" fill="#28121e"/>
          <path id="Trazado_21103" data-name="Trazado 21103" d="M202.142,64.588s3.989-2.219,7.682,0" transform="translate(-165.554 -34.554)" fill="none" stroke="#bb5a38" stroke-miterlimit="10" stroke-width="0.707"/>
          <path id="Trazado_21104" data-name="Trazado 21104" d="M204.838,69.849a3.946,3.946,0,0,0,4.882-.308" transform="translate(-161.326 -25.24)" fill="none" stroke="#bb5a38" stroke-miterlimit="10" stroke-width="0.707"/>
          <g id="Grupo_6099" data-name="Grupo 6099" transform="translate(33.678 37.382)">
            <path id="Trazado_21105" data-name="Trazado 21105" d="M202.922,67.35a.5.5,0,1,1-.5-.5A.5.5,0,0,1,202.922,67.35Z" transform="translate(-199.588 -66.847)" fill="#bb5a38"/>
            <path id="Trazado_21106" data-name="Trazado 21106" d="M203.436,67.712a.217.217,0,1,1-.216-.218A.217.217,0,0,1,203.436,67.712Z" transform="translate(-197.883 -65.832)" fill="#bb5a38"/>
            <path id="Trazado_21107" data-name="Trazado 21107" d="M202.65,68.375a.442.442,0,1,1-.442-.442A.442.442,0,0,1,202.65,68.375Z" transform="translate(-199.82 -65.144)" fill="#bb5a38"/>
            <path id="Trazado_21108" data-name="Trazado 21108" d="M201.5,67.449a.245.245,0,1,1-.491,0,.245.245,0,0,1,.491,0Z" transform="translate(-201.009 -66.286)" fill="#bb5a38"/>
            <circle id="Elipse_516" data-name="Elipse 516" cx="0.37" cy="0.37" r="0.37" transform="translate(4.695 4.085)" fill="#bb5a38"/>
            <path id="Trazado_21109" data-name="Trazado 21109" d="M204.592,67.374a.33.33,0,1,1-.331-.331A.328.328,0,0,1,204.592,67.374Z" transform="translate(-196.425 -66.54)" fill="#bb5a38"/>
            <path id="Trazado_21110" data-name="Trazado 21110" d="M203.932,68.4a.574.574,0,1,1,.573.575A.573.573,0,0,1,203.932,68.4Z" transform="translate(-196.425 -65.305)" fill="#bb5a38"/>
          </g>
          <g id="Grupo_6100" data-name="Grupo 6100" transform="translate(50.729 37.492)">
            <path id="Trazado_21111" data-name="Trazado 21111" d="M209.561,67.393a.5.5,0,1,1-.5-.5A.5.5,0,0,1,209.561,67.393Z" transform="translate(-206.227 -66.89)" fill="#bb5a38"/>
            <path id="Trazado_21112" data-name="Trazado 21112" d="M210.075,67.755a.217.217,0,1,1-.216-.218A.217.217,0,0,1,210.075,67.755Z" transform="translate(-204.522 -65.875)" fill="#bb5a38"/>
            <path id="Trazado_21113" data-name="Trazado 21113" d="M209.29,68.418a.442.442,0,1,1-.442-.442A.442.442,0,0,1,209.29,68.418Z" transform="translate(-206.459 -65.187)" fill="#bb5a38"/>
            <path id="Trazado_21114" data-name="Trazado 21114" d="M208.139,67.495a.245.245,0,1,1-.247-.247A.246.246,0,0,1,208.139,67.495Z" transform="translate(-207.648 -66.329)" fill="#bb5a38"/>
            <path id="Trazado_21115" data-name="Trazado 21115" d="M210.216,68.851a.37.37,0,1,1-.37-.37A.368.368,0,0,1,210.216,68.851Z" transform="translate(-204.781 -64.395)" fill="#bb5a38"/>
            <path id="Trazado_21116" data-name="Trazado 21116" d="M211.231,67.417a.33.33,0,1,1-.331-.331A.33.33,0,0,1,211.231,67.417Z" transform="translate(-203.064 -66.583)" fill="#bb5a38"/>
          </g>
          <path id="Trazado_21117" data-name="Trazado 21117" d="M210.214,67.43a.44.44,0,1,1-.442-.442A.441.441,0,0,1,210.214,67.43Z" transform="translate(-154.277 -29.244)" fill="#bb5a38"/>
          <path id="Trazado_21118" data-name="Trazado 21118" d="M199.065,68.218l2.774,5.653s1.51-14.154,7.284-15.212C209.123,58.659,198.968,58.713,199.065,68.218Z" transform="translate(-170.381 -42.307)" fill="#ffc94a"/>
          <path id="Trazado_21119" data-name="Trazado 21119" d="M217.6,68.15l-1.389,6.806s-2.27-15.42-8.044-16.478C208.167,58.478,217.7,58.645,217.6,68.15Z" transform="translate(-156.105 -42.59)" fill="#ffc94a"/>
          <path id="Trazado_21120" data-name="Trazado 21120" d="M207.4,65.449l1.143,4.094s1.69,2.594-2.525,2.594Z" transform="translate(-159.472 -31.658)" fill="#ed744d"/>
          <path id="Trazado_21121" data-name="Trazado 21121" d="M215.632,64.588a6.955,6.955,0,0,0-3.583-.986,5.141,5.141,0,0,0-5.165,6.873c1.086,3.043,2.119,3.978-.1,4.251" transform="translate(-158.59 -34.554)" fill="none" stroke="#bb5a38" stroke-miterlimit="10" stroke-width="0.707"/>
          <path id="Trazado_21122" data-name="Trazado 21122" d="M222.216,59.15s.426,7.24-4.554,9-14.953.38-16.548,8.576c0,0-1.025-8.136,0-12.749S214.25,56.3,222.216,59.15Z" transform="translate(-167.879 -43.263)" fill="#ffc94a"/>
        </g>
        <g id="Grupo_6102" data-name="Grupo 6102" transform="translate(40.391 278.491)">
          <path id="Trazado_21123" data-name="Trazado 21123" d="M213.212,168.1s-3.68,20.606-3.68,27.412,2.943,10.3,1.839,11.958-2.758,1.472-3.126,5.152-4.048,6.621-9.934,6.621-5.152-5.519-4.967-6.439,5.887-7.358,7.541-12.878-1.1-33.666-1.1-33.666S211.923,152.651,213.212,168.1Z" transform="translate(-193.213 -160.725)" fill="#ed744d"/>
        </g>
        <path id="Trazado_21124" data-name="Trazado 21124" d="M227.017,102.766h-21.1s-13.276,11.131-13.276,42.973c0,14.7,4.8,48.156,7.25,67.362-1.813,19.337,2.193,63.2,2.193,63.2l9.387.152c3.354-20.814,5.874-40.729,6.077-58.155l9.459-56.955.005.028Z" transform="translate(-153.713 26.868)" fill="#ed744d"/>
        <g id="Grupo_6103" data-name="Grupo 6103" transform="translate(83.431 278.491)">
          <path id="Trazado_21125" data-name="Trazado 21125" d="M209.971,168.1s3.678,20.606,3.678,27.412-2.943,10.3-1.839,11.958,2.758,1.472,3.128,5.152,4.048,6.621,9.934,6.621,5.149-5.519,4.967-6.439-5.887-7.358-7.543-12.878,1.1-33.666,1.1-33.666S211.258,152.651,209.971,168.1Z" transform="translate(-209.971 -160.725)" fill="#ed744d"/>
        </g>
        <path id="Trazado_21126" data-name="Trazado 21126" d="M204.942,103.527l21.379-1.246a91.67,91.67,0,0,1,13.81,54.359c-1.053,14.663-2.288,38.6-4.744,57.811,1.816,19.337-5.517,62.608-5.517,62.608l-9.387.152c-3.352-20.814-3.192-42.123-3.4-59.549L204.947,162.1l-.005.028Z" transform="translate(-134.428 26.107)" fill="#ed744d"/>
        <path id="Trazado_21127" data-name="Trazado 21127" d="M223.9,148.536l.616-45.77h-21.1s-5.283,4.438-9.184,15.705C213.711,129.718,223.761,148.667,223.9,148.536Z" transform="translate(-151.215 26.868)" fill="#7986cb"/>
        <path id="Trazado_21128" data-name="Trazado 21128" d="M234.732,119.484a81.37,81.37,0,0,0-8.411-17.2l-21.379,1.246v34.593c.794.632,1.389,10.535,2.173,11.177C212.29,138.163,225.661,126.454,234.732,119.484Z" transform="translate(-134.428 26.107)" fill="#7986cb"/>
        <path id="Trazado_21129" data-name="Trazado 21129" d="M239.422,143.2c-1.415-9.688-3.28-61.452-17.855-66.376,0,0-10.718,24.425-5.471,41.5a119.627,119.627,0,0,0,12.765,28.4C238.525,144.964,239.422,143.2,239.422,143.2Z" transform="translate(-119.202 -13.815)" fill="#ed744d"/>
        <path id="Trazado_21130" data-name="Trazado 21130" d="M257.005,81.059s-21.474-7.245-31.947-6.922c-12.7.393-33,8.732-33,8.732a112.785,112.785,0,0,0,2.977,25.373s10.312,37.631,12.2,41.7c8.175,17.608,28.719,18.854,37.736,1.554C248.093,145.516,257.005,81.059,257.005,81.059Z" transform="translate(-154.641 -18.048)" fill="#ed744d"/>
        <path id="Trazado_21131" data-name="Trazado 21131" d="M248.044,77.158c-1.382-.4-4.356-1.258-5.959-1.687-.832,10.314-2.132,22.64-9.449,29.407-5.054,4.677-14.054,4.325-18-.937-5.969-7.954-8.19-15.687-12.063-28.026-1.459.444-2.864.894-4.179,1.333.781,5.25,3.439,35.029-4.263,37.683.932,3.436,2.591,9.513,3.678,13.368a3.648,3.648,0,0,1,.36.182c8.211,5.247,18.248,3.948,27.491,3.308,7.071-.491,14.275-.948,21-3.038.955-5.327,1.883-11.177,2.738-16.938C243.77,102.2,246.724,87.254,248.044,77.158Z" transform="translate(-151.389 -15.94)" fill="#7986cb"/>
        <path id="Trazado_21132" data-name="Trazado 21132" d="M211.545,80.046s-1.7-3.57-3.043-3.077-7.469,1.649-7.469,1.649,6.272.044,7.374.842S211.989,80.766,211.545,80.046Z" transform="translate(-140.558 -13.663)" fill="#bb5a38"/>
        <path id="Trazado_21133" data-name="Trazado 21133" d="M206.429,79.945s1.2-3.38,2.609-3.108a60.506,60.506,0,0,0,6.344.265s-4.983.809-5.946,1.772S206.106,80.726,206.429,79.945Z" transform="translate(-132.142 -13.821)" fill="#bb5a38"/>
        <path id="Trazado_21134" data-name="Trazado 21134" d="M206.089,77.531s7.25,7.006,4.828,30.692c0,0-7.577,32.425-15.354,42.082-3.832,4.759-6.68,5.668-10.52,3.693C178.909,150.839,187.708,85.436,206.089,77.531Z" transform="translate(-168.676 -12.709)" fill="#ed744d"/>
        <g id="Grupo_6104" data-name="Grupo 6104" transform="translate(43.293 99.957)">
          <path id="Trazado_21135" data-name="Trazado 21135" d="M208.851,102.432c-11.706,0-14.431-9.464-14.462-9.575a1.3,1.3,0,0,1,2.514-.688c.126.449,3.121,10.376,17.644,6.932a1.3,1.3,0,0,1,.6,2.535A27.419,27.419,0,0,1,208.851,102.432Z" transform="translate(-194.343 -91.211)" fill="#6473b2"/>
        </g>
        <g id="Grupo_6105" data-name="Grupo 6105" transform="translate(76.198 99.959)">
          <path id="Trazado_21136" data-name="Trazado 21136" d="M214.457,102.431a27.419,27.419,0,0,1-6.3-.8,1.3,1.3,0,0,1,.6-2.535c14.629,3.462,17.529-6.5,17.644-6.927a1.3,1.3,0,0,1,2.514.683C228.888,92.966,226.163,102.431,214.457,102.431Z" transform="translate(-207.155 -91.212)" fill="#6473b2"/>
        </g>
        <path id="Trazado_21137" data-name="Trazado 21137" d="M210.2,94.639" transform="translate(-126.175 14.122)" fill="none" stroke="#dfc5b6" stroke-linecap="round" stroke-miterlimit="10" stroke-width="1.078"/>
        <g id="Grupo_6106" data-name="Grupo 6106" transform="translate(0 172.137)">
          <path id="Trazado_21138" data-name="Trazado 21138" d="M179.411,133.009l.958-1.7,6.349-11.992,7.137,3.087-.542,5.53s.663,10.515.318,10.895l-2.3,3.778a.76.76,0,0,1-1.315-.416,2.722,2.722,0,0,1,.306-2.306l.485-.817-.229-2.6-2,5.984L187.3,145a3.27,3.27,0,0,1-1.554,1.436,1.18,1.18,0,0,1-.573,0,.6.6,0,0,1-.306-.434,3.377,3.377,0,0,1,.357-2.124l1.153-2.276,1.379-4.007c.2-1.079-.29-.437-.383-.19l-1.78,4.628-1.834,3.393a3.276,3.276,0,0,1-1.551,1.436l-.044.021a.6.6,0,0,1-.835-.457l-.008-.049a3.285,3.285,0,0,1,.365-2.073l1.7-3.115,1.672-5.632c.154-1.032-.36-.611-.5-.164l-1.163,3.621-1.641,3.488a3.285,3.285,0,0,1-1.472,1.52l-.044.023a.6.6,0,0,1-.858-.408l-.01-.049a3.277,3.277,0,0,1,.249-2.091l1.523-3.205,1.238-4.559a.156.156,0,0,0-.267-.146l-.357.393-1.649,3.462-.47,2.722a1.654,1.654,0,0,1-1.592,1.315.505.505,0,0,1-.534-.629l.429-3.729Z" transform="translate(-177.487 -119.315)" fill="#ed744d"/>
        </g>
        <path id="Trazado_21139" data-name="Trazado 21139" d="M188.053,156.228S200.782,120.533,202,113.46c2.473-14.326-5.756-16.255-12.228-6.444-4.4,6.67-8.845,42.411-8.845,42.411-.452,1.782-.84,5.265-.84,5.265S182.1,156.9,188.053,156.228Z" transform="translate(-173.405 23.963)" fill="#ed744d"/>
        <g id="Grupo_6107" data-name="Grupo 6107" transform="translate(115.624 170.979)">
          <path id="Trazado_21140" data-name="Trazado 21140" d="M237.182,133.093l-.819-1.772-5.383-12.456-7.361,2.517.105,5.553s-1.49,10.433-1.174,10.838l1.993,3.945a.761.761,0,0,0,1.346-.311,2.733,2.733,0,0,0-.126-2.322l-.419-.853.431-2.576,1.52,6.125,1.084,2.645a3.265,3.265,0,0,0,1.433,1.554,1.189,1.189,0,0,0,.573.044.6.6,0,0,0,.339-.408,3.4,3.4,0,0,0-.187-2.145l-.973-2.36-1.058-4.1c-.113-1.094.324-.413.4-.159l1.408,4.754,1.562,3.524a3.264,3.264,0,0,0,1.433,1.554l.044.023a.591.591,0,0,0,.529.021.6.6,0,0,0,.339-.408l.01-.049a3.286,3.286,0,0,0-.2-2.1l-1.446-3.239-1.225-5.745c-.072-1.043.408-.583.516-.126l.876,3.7,1.361,3.606A3.277,3.277,0,0,0,235.456,144l.041.026a.6.6,0,0,0,.886-.339l.015-.049a3.3,3.3,0,0,0-.082-2.1l-1.266-3.313-.876-4.644a.157.157,0,0,1,.277-.126l.324.421,1.374,3.58.252,2.753a1.657,1.657,0,0,0,1.485,1.436.506.506,0,0,0,.583-.586l-.136-3.752Z" transform="translate(-222.506 -118.864)" fill="#ed744d"/>
        </g>
        <path id="Trazado_21141" data-name="Trazado 21141" d="M229.748,156.021s-9.5-36.786-10.158-43.931c-1.336-14.478,6.637-15.551,12.315-5.263,3.863,7,5.481,42.976,5.481,42.976.311,1.813.424,5.316.424,5.316S235.632,157.159,229.748,156.021Z" transform="translate(-111.686 22.56)" fill="#ed744d"/>
      </g>
    </g>
    <path id="Trazado_21142" data-name="Trazado 21142" d="M217.676,24.868h-16.4a2.233,2.233,0,0,0-2.16,2.8l7.916,30.15a2.232,2.232,0,0,0,4.307.036l8.483-30.147A2.232,2.232,0,0,0,217.676,24.868Z" transform="translate(514.188 964.792)" fill="#ff5953"/>
  </g>
</svg>
