<svg xmlns="http://www.w3.org/2000/svg" width="117.393" height="413.059" viewBox="0 0 117.393 413.059">
  <g id="Grupo_15859" data-name="Grupo 15859" transform="translate(-293.35 -987.859)">
    <ellipse id="Elipse_517" data-name="Elipse 517" cx="58.696" cy="157.943" rx="58.696" ry="157.943" transform="translate(293.35 1060.832)" fill="#f8f3ff"/>
    <g id="Grupo_6121" data-name="Grupo 6121" transform="translate(301.963 1061.008)">
      <g id="Grupo_6113" data-name="Grupo 6113" transform="translate(77.051 114.588)">
        <g id="Grupo_6112" data-name="Grupo 6112" transform="translate(0 40.157)">
          <path id="Trazado_21143" data-name="Trazado 21143" d="M74.235,133.478,70.223,135.1h0a3.737,3.737,0,0,1,2.34-4.307l3.56-1.33,1.2-1.189.444,4.22Z" transform="translate(-66.998 -88.795)" fill="#962e09"/>
          <g id="Grupo_6110" data-name="Grupo 6110" transform="translate(0 29.144)">
            <path id="Trazado_21144" data-name="Trazado 21144" d="M82.7,129.243l-7.361,2.735-6.429-2.037s1.061-2.311,2.555-1.9a27.635,27.635,0,0,0,4.651.5l4.99-2.91Z" transform="translate(-68.913 -122.07)" fill="#792304"/>
            <path id="Trazado_21145" data-name="Trazado 21145" d="M81.043,126.569l-6.323,2.345-5.111-2.335s1.11-1.8,2.3-1.312a22.862,22.862,0,0,0,3.8.886l4.42-1.906Z" transform="translate(-67.821 -124.247)" fill="#ff7e46"/>
            <path id="Trazado_21146" data-name="Trazado 21146" d="M82.691,127.583l-7.584,2.812-6.136-2.8s1.33-2.165,2.766-1.574a27.436,27.436,0,0,0,4.556,1.061L81.6,124.8Z" transform="translate(-68.822 -123.386)" fill="#792304"/>
          </g>
          <g id="Grupo_6111" data-name="Grupo 6111" transform="translate(3.964)">
            <path id="Trazado_21147" data-name="Trazado 21147" d="M71.442,139.861c-.023,1.811.668,4.849.177,6.59-.878,3.11-1.947,7.461-.308,7.982,2.24.711,3.781-6.85,3.9-7.155a1.676,1.676,0,0,1,2.1-.981h0a.983.983,0,0,1,.665.958l-.483,3.393-.678,1.726.444,4.22s3.2-2.329,3.608-3.339c1.148-2.856,3.639-6.742,3.059-9.12-.267-1.089-3.709-10.715-3.709-10.715l.37-15.818a4.59,4.59,0,0,0-6.09-4.446h0l-1.4,15.256a9.573,9.573,0,0,1-.46,4.831A19.8,19.8,0,0,0,71.442,139.861Z" transform="translate(-70.456 -112.899)" fill="#962e09"/>
            <path id="Trazado_21148" data-name="Trazado 21148" d="M72.313,128.719a1.676,1.676,0,0,1,2.1-.981.983.983,0,0,1,.665.958l-.483,3.393s3.077-8.154-.1-7.291C73.255,125.136,72.194,129.025,72.313,128.719Z" transform="translate(-67.559 -94.34)" fill="#792304"/>
          </g>
        </g>
        <path id="Trazado_21149" data-name="Trazado 21149" d="M71.7,155.714l-.331-50.509L84.22,97.264s5.671,15.215,3.429,25.29c-2.666,12-8.866,35.386-8.866,35.386Z" transform="translate(-65.058 -97.264)" fill="#962e09"/>
      </g>
      <g id="Grupo_6114" data-name="Grupo 6114" transform="translate(16.05 281.388)">
        <path id="Trazado_21150" data-name="Trazado 21150" d="M65.16,169.588s-3.68,20.606-3.68,27.412,2.946,10.3,1.841,11.958-2.761,1.472-3.128,5.152-4.048,6.621-9.934,6.621-5.152-5.519-4.967-6.439,5.887-7.358,7.543-12.878-1.1-33.666-1.1-33.666S63.873,154.135,65.16,169.588Z" transform="translate(-45.161 -162.209)" fill="#962e09"/>
      </g>
      <path id="Trazado_21151" data-name="Trazado 21151" d="M84.2,104.25H64.476s-25.642,5.319-23.033,52.913c.8,14.675,9.857,38.8,12.31,58.011-1.813,19.337,5.517,62.608,5.517,62.608l9.387.151c3.354-20.814,5.874-40.729,6.077-58.155L84.2,162.823l.005.028Z" transform="translate(-35.236 28.281)" fill="#962e09"/>
      <g id="Grupo_6115" data-name="Grupo 6115" transform="translate(59.088 281.388)">
        <path id="Trazado_21152" data-name="Trazado 21152" d="M61.919,169.588S65.6,190.194,65.6,197s-2.946,10.3-1.841,11.958,2.761,1.472,3.128,5.152,4.048,6.621,9.934,6.621,5.152-5.519,4.967-6.439-5.887-7.358-7.543-12.878,1.1-33.666,1.1-33.666S63.206,154.135,61.919,169.588Z" transform="translate(-61.919 -162.209)" fill="#962e09"/>
      </g>
      <path id="Trazado_21153" data-name="Trazado 21153" d="M56.89,104.25H76.615s25.629,3.973,22.406,54.533c-.935,14.668-9.231,37.184-11.683,56.39,1.813,19.337-5.519,62.608-5.519,62.608l-9.385.151c-3.354-20.814-5.874-40.729-6.077-58.155L56.9,162.823l-.005.028Z" transform="translate(-10.718 28.281)" fill="#962e09"/>
      <path id="Trazado_21154" data-name="Trazado 21154" d="M108.425,114.228c-6.336-8.835-13.692-9.978-13.692-9.978H58.076s-6.583,1.369-12.739,8.907A221.927,221.927,0,0,0,108.425,114.228Z" transform="translate(-28.837 28.281)" fill="#832307"/>
      <path id="Trazado_21155" data-name="Trazado 21155" d="M102.16,105.528a36.3,36.3,0,0,1-20.177,5.334c-9.392-.272-19.7-.832-27.982-5.7a30.447,30.447,0,0,0-9.439,9.261c15.091,7.448,26.015,19.735,34.452,33.887,3.321-12.361,25.067-30.653,33.011-31.675A29.786,29.786,0,0,0,102.16,105.528Z" transform="translate(-30.051 29.705)" fill="#ffd54f"/>
      <circle id="Elipse_518" data-name="Elipse 518" cx="4.793" cy="4.793" r="4.793" transform="translate(32.412 38.846)" fill="#431202"/>
      <path id="Trazado_21156" data-name="Trazado 21156" d="M58.894,71A4.794,4.794,0,1,1,54.1,66.2,4.793,4.793,0,0,1,58.894,71Z" transform="translate(-22.612 -31.388)" fill="#431202"/>
      <circle id="Elipse_519" data-name="Elipse 519" cx="5.744" cy="5.744" r="5.744" transform="translate(57.384 12.904)" fill="#431202"/>
      <path id="Trazado_21157" data-name="Trazado 21157" d="M72.983,66.139a5.045,5.045,0,1,1-5.047-5.047A5.047,5.047,0,0,1,72.983,66.139Z" transform="translate(-1.305 -39.405)" fill="#431202"/>
      <path id="Trazado_21158" data-name="Trazado 21158" d="M71.913,68.755a5.045,5.045,0,1,1-5.044-5.044A5.045,5.045,0,0,1,71.913,68.755Z" transform="translate(-2.983 -35.298)" fill="#431202"/>
      <path id="Trazado_21159" data-name="Trazado 21159" d="M49.232,75.319c.86,10.915,9.726,19.121,19.8,18.325S86.786,83.334,85.71,72.437C84.541,60.62,77.055,55.53,67.072,57.081,56.113,58.784,48.369,64.4,49.232,75.319Z" transform="translate(-22.831 -46.122)" fill="#431202"/>
      <path id="Trazado_21160" data-name="Trazado 21160" d="M97.168,139.119c-.241-10.425-19.047-57.677-26.5-60.356,0,0-9.975,23.955-3.4,40.567S82.739,142.7,82.739,142.7C92.234,140.179,97.168,139.119,97.168,139.119Z" transform="translate(2.043 -11.691)" fill="#962e09"/>
      <path id="Trazado_21161" data-name="Trazado 21161" d="M100.35,146.437a122.98,122.98,0,0,0,5.594-17.213s8.293-4.276,5.92-11.814a61.6,61.6,0,0,0-3.336-7.99,49.419,49.419,0,0,1-4.977-24.248c.051-.937.092-1.467.092-1.467S87.478,75.3,77.007,75.621c-12.7.393-33,8.732-33,8.732a112.784,112.784,0,0,0,2.977,25.373s8.73,25.249,13.2,36.712Z" transform="translate(-30.93 -16.634)" fill="#962e09"/>
      <path id="Trazado_21162" data-name="Trazado 21162" d="M111.864,114.343a61.6,61.6,0,0,0-3.336-7.99,49.419,49.419,0,0,1-4.977-24.248c.051-.937.092-1.467.092-1.467s-2.73-1.42-6.673-3.072c-1.649,9.588-6.711,19.961-16.7,20.629C63.875,99.293,52.32,78.2,52.32,78.2,47.417,79.886,44,81.286,44,81.286a112.784,112.784,0,0,0,2.977,25.373s6.6,19.08,11.26,31.6c14.747.47,29.518.74,44.221-.329,2.088-5.984,3.483-11.773,3.483-11.773S114.237,121.881,111.864,114.343Z" transform="translate(-30.93 -13.567)" fill="#ffd54f"/>
      <path id="Trazado_21163" data-name="Trazado 21163" d="M63.5,81.278s-1.721-3.149-3.064-2.658a70.447,70.447,0,0,1-7.451,1.23s6.274.044,7.376.842S63.938,82,63.5,81.278Z" transform="translate(-16.848 -11.997)" fill="#792304"/>
      <path id="Trazado_21164" data-name="Trazado 21164" d="M58.377,81.429s1.2-3.38,2.609-3.108a60.5,60.5,0,0,0,6.344.265s-4.983.809-5.943,1.772S58.054,82.21,58.377,81.429Z" transform="translate(-8.432 -12.408)" fill="#792304"/>
      <g id="Grupo_6117" data-name="Grupo 6117" transform="translate(38.571 43.639)">
        <g id="Grupo_6116" data-name="Grupo 6116">
          <path id="Trazado_21165" data-name="Trazado 21165" d="M53.93,69.768l.594,21.955,14.39-1.136L67.408,69.639Z" transform="translate(-53.93 -69.639)" fill="#962e09"/>
        </g>
      </g>
      <path id="Trazado_21166" data-name="Trazado 21166" d="M66.8,69.639l-12.482.121A37.636,37.636,0,0,0,54.96,74.7C59.051,83.778,63.4,85.635,67.976,86.01Z" transform="translate(-14.751 -26.001)" fill="#792304"/>
      <path id="Trazado_21167" data-name="Trazado 21167" d="M71.631,96.34h0c-7,.216-18.389-8.065-18.6-15.066,0,0-1.51-10.674.362-14.046,3.252-5.851,17.244-6.832,22.85-6.015,8.583,1.248,7.5,17.108,7.5,17.108C84.773,91.355,74.692,96.245,71.631,96.34Z" transform="translate(-17.677 -39.608)" fill="#962e09"/>
      <path id="Trazado_21168" data-name="Trazado 21168" d="M50.8,71.258c.239,3,3.113,5.368,6.726,5.273l-.375-10.9C53.544,65.731,50.373,65.872,50.8,71.258Z" transform="translate(-20.324 -32.283)" fill="#962e09"/>
      <path id="Trazado_21169" data-name="Trazado 21169" d="M52.9,67.3a.4.4,0,0,0-.745-.221,2.391,2.391,0,0,0-.19,2.342c.6,1.361,1.77,2.671,2.276,2.083s-.044-.434-.925-2.191A4.273,4.273,0,0,1,52.9,67.3Z" transform="translate(-18.795 -30.32)" fill="#792304"/>
      <path id="Trazado_21170" data-name="Trazado 21170" d="M55.606,62.182c5.114-2.05,24.366-2.954,24.366-2.954A28.314,28.314,0,0,1,68.941,70.785,34.362,34.362,0,0,1,61.4,73.9a7.24,7.24,0,0,0-5.144,5.846h0l-.159-.681A4.017,4.017,0,0,0,51.659,76h0a31.1,31.1,0,0,1,.429-8.447C52.624,65.145,53.662,62.96,55.606,62.182Z" transform="translate(-19.101 -42.329)" fill="#431202"/>
      <path id="Trazado_21171" data-name="Trazado 21171" d="M64.807,67.743c.069.876-.39,1.626-1.025,1.675s-1.2-.616-1.274-1.492" transform="translate(-1.907 -28.974)" fill="none" stroke="#28121e" stroke-miterlimit="10" stroke-width="0.595"/>
      <path id="Trazado_21172" data-name="Trazado 21172" d="M60.41,67.913c.069.876-.388,1.626-1.022,1.675s-1.207-.616-1.276-1.492" transform="translate(-8.803 -28.708)" fill="none" stroke="#28121e" stroke-miterlimit="10" stroke-width="0.595"/>
      <path id="Trazado_21173" data-name="Trazado 21173" d="M56.786,67.378s3.852-2.563,7.762-.614" transform="translate(-10.881 -31.657)" fill="none" stroke="#792304" stroke-miterlimit="10" stroke-width="0.679"/>
      <path id="Trazado_21174" data-name="Trazado 21174" d="M69.72,66.407a7.049,7.049,0,0,0-3.7-.711,5.342,5.342,0,0,0-4.939,6.611,5.451,5.451,0,0,0,.27.747c1.341,2.984,2.458,3.85.239,4.3" transform="translate(-4.434 -32.217)" fill="none" stroke="#792304" stroke-miterlimit="10" stroke-width="0.679"/>
      <path id="Trazado_21175" data-name="Trazado 21175" d="M52.146,78.876s9.582,21.2,7.161,44.884C58.012,136.425,55.69,154.5,46.924,144.8,37.013,133.825,33.764,86.781,52.146,78.876Z" transform="translate(-38.912 -11.514)" fill="#962e09"/>
      <g id="Grupo_6118" data-name="Grupo 6118" transform="translate(25.03 103.264)">
        <path id="Trazado_21176" data-name="Trazado 21176" d="M63.166,104.074c-11.706,0-14.431-9.462-14.462-9.572a1.3,1.3,0,0,1,2.514-.688c.126.447,3.121,10.376,17.647,6.929a1.3,1.3,0,0,1,.6,2.538A27.388,27.388,0,0,1,63.166,104.074Z" transform="translate(-48.658 -92.855)" fill="#e8bc42"/>
      </g>
      <g id="Grupo_6119" data-name="Grupo 6119" transform="translate(58.386 110.358)">
        <path id="Trazado_21177" data-name="Trazado 21177" d="M71.476,100.685a17.227,17.227,0,0,1-9.279-2.7,1.3,1.3,0,0,1,1.5-2.132,14.674,14.674,0,0,0,14.033.814,1.3,1.3,0,1,1,1.089,2.368A17.4,17.4,0,0,1,71.476,100.685Z" transform="translate(-61.646 -95.617)" fill="#e8bc42"/>
      </g>
      <path id="Trazado_21178" data-name="Trazado 21178" d="M62.748,59.543a4,4,0,1,1-4-4A4,4,0,0,1,62.748,59.543Z" transform="translate(-14.069 -48.102)" fill="#431202"/>
      <path id="Trazado_21179" data-name="Trazado 21179" d="M61.731,60.619a4.825,4.825,0,1,1-4.826-4.826A4.825,4.825,0,0,1,61.731,60.619Z" transform="translate(-18.258 -47.716)" fill="#431202"/>
      <circle id="Elipse_520" data-name="Elipse 520" cx="6.449" cy="6.449" r="6.449" transform="translate(22.979 4.306)" fill="#431202"/>
      <circle id="Elipse_521" data-name="Elipse 521" cx="6.716" cy="6.716" r="6.716" transform="translate(18.603 12.507)" fill="#431202"/>
      <path id="Trazado_21180" data-name="Trazado 21180" d="M59.3,67.359a6.771,6.771,0,1,1-6.77-6.773A6.77,6.77,0,0,1,59.3,67.359Z" transform="translate(-28.175 -40.199)" fill="#431202"/>
      <path id="Trazado_21181" data-name="Trazado 21181" d="M58.77,69.231a5.735,5.735,0,1,1-5.735-5.738A5.736,5.736,0,0,1,58.77,69.231Z" transform="translate(-25.758 -35.64)" fill="#431202"/>
      <path id="Trazado_21182" data-name="Trazado 21182" d="M63.025,58.819a5.884,5.884,0,1,1-5.884-5.884A5.884,5.884,0,0,1,63.025,58.819Z" transform="translate(-19.552 -52.198)" fill="#431202"/>
      <circle id="Elipse_522" data-name="Elipse 522" cx="6.967" cy="6.967" r="6.967" transform="translate(39.206)" fill="#431202"/>
      <circle id="Elipse_523" data-name="Elipse 523" cx="8.013" cy="8.013" r="8.013" transform="translate(47.521 3.77)" fill="#431202"/>
      <path id="Trazado_21183" data-name="Trazado 21183" d="M66.617,62.866a3.26,3.26,0,1,1-3.262-3.259A3.261,3.261,0,0,1,66.617,62.866Z" transform="translate(-5.69 -41.734)" fill="#431202"/>
      <path id="Trazado_21184" data-name="Trazado 21184" d="M66.35,64.868a4.459,4.459,0,1,1-4.459-4.459A4.458,4.458,0,0,1,66.35,64.868Z" transform="translate(-9.866 -40.476)" fill="#431202"/>
      <path id="Trazado_21185" data-name="Trazado 21185" d="M64.028,65.684a4.459,4.459,0,1,1-4.459-4.459A4.46,4.46,0,0,1,64.028,65.684Z" transform="translate(-13.508 -39.197)" fill="#431202"/>
      <path id="Trazado_21186" data-name="Trazado 21186" d="M58.713,71.482a3.553,3.553,0,1,0,7.107,0Z" transform="translate(-7.859 -23.11)" fill="#fff"/>
      <g id="Grupo_6120" data-name="Grupo 6120" transform="translate(55.534 120.81)">
        <path id="Trazado_21187" data-name="Trazado 21187" d="M75.526,114.867l-1.875-.55L60.535,110.84l1.4-7.651,5.506-.719s10.1-3.018,10.543-2.769l4.2,1.387a.761.761,0,0,1-.108,1.377,2.729,2.729,0,0,1-2.317.221l-.9-.29-2.484.809,6.282.6,2.776.681a3.264,3.264,0,0,1,1.749,1.189,1.182,1.182,0,0,1,.128.56.589.589,0,0,1-.354.393,3.372,3.372,0,0,1-2.147.134l-2.478-.611-4.215-.439c-1.1.051-.36.38-.1.416l4.911.688,3.716,1.02a3.288,3.288,0,0,1,1.749,1.189l.031.039a.6.6,0,0,1-.257.917l-.046.018a3.291,3.291,0,0,1-2.1.113l-3.418-.953-5.863-.357c-1.043.082-.516.488-.049.527l3.791.318,3.768.812a3.276,3.276,0,0,1,1.813,1.089l.033.039a.6.6,0,0,1-.205.927l-.044.021a3.3,3.3,0,0,1-2.093.231L80.285,112l-4.723-.18a.156.156,0,0,0-.082.293l.465.259,3.745.827,2.758-.157a1.648,1.648,0,0,1,1.639,1.253.507.507,0,0,1-.491.665l-3.729.421Z" transform="translate(-60.535 -99.686)" fill="#962e09"/>
      </g>
      <path id="Trazado_21188" data-name="Trazado 21188" d="M97.284,104.728s-36.637-6.059-43.8-5.65c-14.516.824-15.89,13.751-4.872,17.842,7.492,2.784,12.033,1.107,12.033,1.107L92.265,113.2c1.839.039,5.319-.37,5.319-.37S99.279,110.381,97.284,104.728Z" transform="translate(-35.123 20.139)" fill="#962e09"/>
    </g>
    <path id="Trazado_21189" data-name="Trazado 21189" d="M71.715,24.167H56.865a2.195,2.195,0,0,0-1.929,3.244l8.057,14.814a2.189,2.189,0,0,1,0,2.1L54.936,59.137a2.194,2.194,0,0,0,1.929,3.244h14.85a2.194,2.194,0,0,0,1.929-3.244L65.587,44.323a2.189,2.189,0,0,1,0-2.1l8.057-14.814A2.195,2.195,0,0,0,71.715,24.167Z" transform="translate(287.757 963.692)" fill="#ff5953"/>
  </g>
</svg>
