<svg xmlns="http://www.w3.org/2000/svg" width="266.334" height="200.388" viewBox="0 0 266.334 200.388">
  <g id="Grupo_15652" data-name="Grupo 15652" transform="translate(-1105.629 590.08)">
    <path id="Trazado_24694" data-name="Trazado 24694" d="M1132.577-517.227c24.579-62.672,89.507-80.757,169.068-38.964,22.209,11.667,45,27,58.451,48.762,5.037,8.15,8.677,18.271,8.787,27.922.072,6.375-1.836,12.995-6.332,17.515-5.485,5.515-13.756,7.057-21.514,7.606-17.574,1.243-32.746,6.19-48.909,13.225-27.814,12.106-53.688,27.071-79.345,43.066-7.973,4.97-17.019,9.05-26.4,8.49-17.053-1.018-31.4-16.638-41.4-29.124a93.293,93.293,0,0,1-20.21-66.1A115.309,115.309,0,0,1,1132.577-517.227Z" transform="translate(-4.921 -2.957)" fill="#f8f3ff"/>
    <path id="Trazado_24695" data-name="Trazado 24695" d="M1371.963-523.225h-65.946V-590.08h-66.892v66.855h-.531l-11.752-11.7H1182.6l-10.073,11.7h-.409l-11.659-11.7h-43.892l-9.995,11.7h-.945v66.892h133.5v66.641h66.892v-65.569l11.215,11.165h44.239l10.282-11.942-.309-.3h.519Zm-1.477,1.477v63.937h-64.469v-63.937Zm-65.946,63.937H1240.6v-63.937h63.937ZM1240.6-588.6h63.937v65.378H1240.6Zm-57.38,55.155h43.064l10.269,10.223h-62.134Zm-66.039,0h42.727l10.189,10.223h-61.648Zm-10.077,11.7h64.477v63.937h-64.477Zm65.954,63.937v-63.937h66.064v63.937ZM1240.6-391.17v-65.163h63.937v65.163Zm120.25-54.4h-43.064l-10.809-10.76h63.136Z" fill="#7b1fa2"/>
  </g>
</svg>
