<svg xmlns="http://www.w3.org/2000/svg" width="294.826" height="199.804" viewBox="0 0 294.826 199.804">
  <g id="Grupo_15651" data-name="Grupo 15651" transform="translate(-418.317 560.2)">
    <path id="Trazado_24681" data-name="Trazado 24681" d="M695.734-421.779c-25.228,64.329-91.872,82.892-173.535,39.993-22.8-11.975-46.187-27.709-60-50.05-5.171-8.366-8.908-18.754-9.02-28.66-.074-6.543,1.885-13.338,6.5-17.977,5.63-5.66,14.119-7.243,22.082-7.807,18.039-1.276,33.612-6.354,50.2-13.574,28.549-12.426,55.107-27.786,81.442-44.2,8.184-5.1,17.47-9.29,27.1-8.715,17.5,1.045,32.232,17.078,42.489,29.894a95.761,95.761,0,0,1,20.745,67.846A118.36,118.36,0,0,1,695.734-421.779Z" transform="translate(-8.431 -1.783)" fill="#f8f3ff"/>
    <g id="Grupo_15644" data-name="Grupo 15644" transform="translate(630.564 -484.039)">
      <g id="Grupo_15639" data-name="Grupo 15639">
        <path id="Trazado_24682" data-name="Trazado 24682" d="M780.087-385.02H719.222a.758.758,0,0,1-.447-.146l-20.2-14.739a.759.759,0,0,1-.312-.613v-58.47a.758.758,0,0,1,.758-.758h60.047a.755.755,0,0,1,.437.139l21.016,14.8a.757.757,0,0,1,.321.619v58.409A.758.758,0,0,1,780.087-385.02Zm-60.617-1.516h59.859v-57.257l-20.5-14.435H699.782V-400.9Z" transform="translate(-698.266 459.745)" fill="#ba68c8"/>
      </g>
      <g id="Grupo_15640" data-name="Grupo 15640" transform="translate(60.047)">
        <path id="Trazado_24683" data-name="Trazado 24683" d="M797.5-386.265a.753.753,0,0,1-.44-.141l-2.468-1.762a.759.759,0,0,1-.176-1.058.757.757,0,0,1,1.058-.177l2.467,1.762a.758.758,0,0,1,.177,1.058A.756.756,0,0,1,797.5-386.265Zm-4.935-3.525a.749.749,0,0,1-.44-.141l-2.468-1.763a.758.758,0,0,1-.177-1.058.757.757,0,0,1,1.058-.176L793-391.165a.757.757,0,0,1,.176,1.057A.755.755,0,0,1,792.562-389.791Zm-4.936-3.525a.754.754,0,0,1-.44-.142l-2.468-1.763a.757.757,0,0,1-.176-1.058.756.756,0,0,1,1.057-.176l2.468,1.763a.757.757,0,0,1,.176,1.058A.756.756,0,0,1,787.626-393.315Zm-4.936-3.525a.754.754,0,0,1-.44-.142l-2.468-1.763a.757.757,0,0,1-.176-1.058.757.757,0,0,1,1.057-.176l2.468,1.763a.758.758,0,0,1,.177,1.058A.758.758,0,0,1,782.69-396.841Zm-4.466-3.767a.758.758,0,0,1-.758-.758V-404.4a.758.758,0,0,1,.758-.758.758.758,0,0,1,.758.758v3.033A.757.757,0,0,1,778.224-400.608Zm0-6.065a.758.758,0,0,1-.758-.758v-3.033a.758.758,0,0,1,.758-.758.758.758,0,0,1,.758.758v3.033A.757.757,0,0,1,778.224-406.674Zm0-6.065a.758.758,0,0,1-.758-.758v-3.033a.758.758,0,0,1,.758-.758.758.758,0,0,1,.758.758v3.033A.757.757,0,0,1,778.224-412.739Zm0-6.065a.758.758,0,0,1-.758-.758v-3.033a.758.758,0,0,1,.758-.758.758.758,0,0,1,.758.758v3.033A.757.757,0,0,1,778.224-418.8Zm0-6.065a.758.758,0,0,1-.758-.758v-3.033a.758.758,0,0,1,.758-.758.758.758,0,0,1,.758.758v3.033A.757.757,0,0,1,778.224-424.869Zm0-6.065a.758.758,0,0,1-.758-.758v-3.033a.758.758,0,0,1,.758-.758.758.758,0,0,1,.758.758v3.033A.757.757,0,0,1,778.224-430.935Zm0-6.065a.758.758,0,0,1-.758-.758v-3.033a.758.758,0,0,1,.758-.758.758.758,0,0,1,.758.758v3.033A.757.757,0,0,1,778.224-437Zm0-6.065a.758.758,0,0,1-.758-.758v-3.033a.758.758,0,0,1,.758-.758.758.758,0,0,1,.758.758v3.033A.757.757,0,0,1,778.224-443.065Zm0-6.065a.758.758,0,0,1-.758-.758v-3.033a.758.758,0,0,1,.758-.758.758.758,0,0,1,.758.758v3.033A.757.757,0,0,1,778.224-449.131Zm0-6.065a.758.758,0,0,1-.758-.758v-3.033a.758.758,0,0,1,.758-.758.758.758,0,0,1,.758.758v3.033A.757.757,0,0,1,778.224-455.2Z" transform="translate(-777.466 459.745)" fill="#ba68c8"/>
      </g>
      <g id="Grupo_15641" data-name="Grupo 15641" transform="translate(2.426 58.197)">
        <path id="Trazado_24684" data-name="Trazado 24684" d="M759.845-381.469h-3.033a.758.758,0,0,1-.758-.758.758.758,0,0,1,.758-.758h3.033a.758.758,0,0,1,.758.758A.758.758,0,0,1,759.845-381.469Zm-6.065,0h-3.033a.758.758,0,0,1-.758-.758.758.758,0,0,1,.758-.758h3.033a.758.758,0,0,1,.758.758A.758.758,0,0,1,753.779-381.469Zm-6.065,0h-3.033a.758.758,0,0,1-.758-.758.758.758,0,0,1,.758-.758h3.033a.758.758,0,0,1,.758.758A.758.758,0,0,1,747.714-381.469Zm-6.065,0h-3.033a.758.758,0,0,1-.758-.758.758.758,0,0,1,.758-.758h3.033a.758.758,0,0,1,.758.758A.758.758,0,0,1,741.649-381.469Zm-6.065,0h-3.033a.758.758,0,0,1-.758-.758.758.758,0,0,1,.758-.758h3.033a.758.758,0,0,1,.758.758A.758.758,0,0,1,735.583-381.469Zm-6.065,0h-3.033a.758.758,0,0,1-.758-.758.758.758,0,0,1,.758-.758h3.033a.758.758,0,0,1,.758.758A.758.758,0,0,1,729.518-381.469Zm-6.065,0H720.42a.758.758,0,0,1-.758-.758.758.758,0,0,1,.758-.758h3.033a.758.758,0,0,1,.758.758A.758.758,0,0,1,723.453-381.469Zm-6.065,0h-3.033a.758.758,0,0,1-.758-.758.758.758,0,0,1,.758-.758h3.033a.758.758,0,0,1,.758.758A.758.758,0,0,1,717.387-381.469Zm-6.065,0h-3.033a.758.758,0,0,1-.758-.758.758.758,0,0,1,.758-.758h3.033a.758.758,0,0,1,.758.758A.758.758,0,0,1,711.322-381.469Zm-6.065,0h-3.033a.758.758,0,0,1-.758-.758.758.758,0,0,1,.758-.758h3.033a.758.758,0,0,1,.758.758A.758.758,0,0,1,705.257-381.469Z" transform="translate(-701.466 382.985)" fill="#ba68c8"/>
      </g>
      <g id="Grupo_15642" data-name="Grupo 15642" transform="translate(0 0)">
        <path id="Trazado_24685" data-name="Trazado 24685" d="M780.087-443.7H719.222a.762.762,0,0,1-.443-.143l-20.2-14.526a.759.759,0,0,1-.173-1.058.76.76,0,0,1,1.058-.173l20,14.384h60.62a.758.758,0,0,1,.758.758A.758.758,0,0,1,780.087-443.7Z" transform="translate(-698.266 459.745)" fill="#ba68c8"/>
      </g>
      <g id="Grupo_15643" data-name="Grupo 15643" transform="translate(20.197 14.526)">
        <path id="Trazado_24686" data-name="Trazado 24686" d="M725.664-380.387a.758.758,0,0,1-.758-.758v-58.682a.758.758,0,0,1,.758-.758.758.758,0,0,1,.758.758v58.682A.757.757,0,0,1,725.664-380.387Z" transform="translate(-724.906 440.585)" fill="#ba68c8"/>
      </g>
    </g>
    <g id="Grupo_15645" data-name="Grupo 15645" transform="translate(476.608 -484.039)">
      <path id="Trazado_24687" data-name="Trazado 24687" d="M577.023-385.02H516.158a.758.758,0,0,1-.447-.146l-20.2-14.739a.758.758,0,0,1-.311-.613v-58.47a.758.758,0,0,1,.758-.758h60.047a.758.758,0,0,1,.437.139l21.016,14.8a.758.758,0,0,1,.322.619v58.409A.758.758,0,0,1,577.023-385.02ZM516.4-386.537h59.86v-57.257l-20.5-14.435H496.718V-400.9Z" transform="translate(-495.202 459.745)" fill="#ba68c8"/>
    </g>
    <path id="Trazado_24688" data-name="Trazado 24688" d="M603.87-378.546l-65.7-46.928V-559.442a.758.758,0,0,0-.758-.758.758.758,0,0,0-.758.758v133.6H419.075a.758.758,0,0,0-.758.758.758.758,0,0,0,.758.758H537.17l65.819,47.014a.754.754,0,0,0,.44.141.759.759,0,0,0,.618-.318A.759.759,0,0,0,603.87-378.546Z" fill="#7b1fa2"/>
    <g id="Grupo_15646" data-name="Grupo 15646" transform="translate(476.608 -484.038)">
      <path id="Trazado_24689" data-name="Trazado 24689" d="M577.023-443.7H516.157a.759.759,0,0,1-.443-.143l-20.2-14.526a.757.757,0,0,1-.173-1.058.76.76,0,0,1,1.058-.173l20,14.384h60.621a.758.758,0,0,1,.758.758A.758.758,0,0,1,577.023-443.7Z" transform="translate(-495.201 459.745)" fill="#ba68c8"/>
    </g>
    <g id="Grupo_15647" data-name="Grupo 15647" transform="translate(496.806 -469.512)">
      <path id="Trazado_24690" data-name="Trazado 24690" d="M522.6-380.387a.758.758,0,0,1-.758-.758v-58.682a.758.758,0,0,1,.758-.758.758.758,0,0,1,.758.758v58.682A.758.758,0,0,1,522.6-380.387Z" transform="translate(-521.842 440.585)" fill="#ba68c8"/>
    </g>
    <g id="Grupo_15648" data-name="Grupo 15648" transform="translate(527.916 -558.604)">
      <path id="Trazado_24691" data-name="Trazado 24691" d="M562.875-553.626l1.776-2.239-1.776-2.23h1.27l1.129,1.56,1.133-1.56h1.262l-1.786,2.235,1.786,2.234H566.4l-1.124-1.546-1.133,1.546Z" transform="translate(-562.875 558.095)" fill="#ba68c8"/>
    </g>
    <g id="Grupo_15649" data-name="Grupo 15649" transform="translate(418.393 -421.724)">
      <path id="Trazado_24692" data-name="Trazado 24692" d="M421.9-377.554h1.062l-2.675,6.57h-1.044l.96-2.248-1.79-4.322h1.124l1.159,3.2Z" transform="translate(-418.417 377.554)" fill="#ba68c8"/>
    </g>
    <g id="Grupo_15650" data-name="Grupo 15650" transform="translate(595.056 -377.051)">
      <path id="Trazado_24693" data-name="Trazado 24693" d="M655.083-318.631l-2.163,3.665h2.132v.8h-3.62l2.15-3.66h-2v-.809Z" transform="translate(-651.432 318.631)" fill="#ba68c8"/>
    </g>
  </g>
</svg>
